v -1.751492 4.954133 -3.221839
v -1.752874 4.954133 -3.207801
v -1.751280 4.958241 -3.207801
v -1.740747 4.954133 -3.167824
v -1.731799 4.954133 -3.156920
v -1.730671 4.958241 -3.158047
v -1.751492 4.954133 -3.193763
v -1.749928 4.958241 -3.194074
v -1.747397 4.954133 -3.180264
v -1.739422 4.958241 -3.168710
v -1.720894 4.954133 -3.147971
v -1.720009 4.958241 -3.149297
v -1.707844 4.958241 -3.142794
v -1.708454 4.954133 -3.141321
v -1.694955 4.954133 -3.137227
v -1.694644 4.958241 -3.138790
v -1.680917 4.954133 -3.135844
v -1.666879 4.954133 -3.137227
v -1.667190 4.958241 -3.138790
v -1.653991 4.958241 -3.142794
v -1.653380 4.954133 -3.141321
v -1.640940 4.954133 -3.147971
v -1.641826 4.958241 -3.149297
v -1.630036 4.954133 -3.156920
v -1.631163 4.958241 -3.158047
v -1.621087 4.954133 -3.167824
v -1.615910 4.958241 -3.180874
v -1.614437 4.954133 -3.180264
v -1.610343 4.954133 -3.193763
v -1.611906 4.958241 -3.194074
v -1.608960 4.954133 -3.207801
v -1.610554 4.958241 -3.207801
v -1.610343 4.954133 -3.221839
v -1.614437 4.954133 -3.235338
v -1.621087 4.954133 -3.247778
v -1.622413 4.958241 -3.246893
v -1.630036 4.954133 -3.258682
v -1.631163 4.958241 -3.257555
v -1.640940 4.954133 -3.267631
v -1.653990 4.958241 -3.272808
v -1.653380 4.954133 -3.274281
v -1.666879 4.954133 -3.278376
v -1.680917 4.954133 -3.279758
v -1.680917 4.958241 -3.278164
v -1.694955 4.954133 -3.278376
v -1.694644 4.958241 -3.276812
v -1.707844 4.958241 -3.272808
v -1.708454 4.954133 -3.274281
v -1.720894 4.954133 -3.267632
v -1.720009 4.958241 -3.266306
v -1.731799 4.954133 -3.258683
v -1.730671 4.958241 -3.257555
v -1.740747 4.954133 -3.247778
v -1.747397 4.954133 -3.235338
v -1.745924 4.958241 -3.234728
v -1.745924 4.958241 -3.180875
v -1.622413 4.958241 -3.168710
v -1.615910 4.958241 -3.234728
v -1.611906 4.958241 -3.221528
v -1.641826 4.958241 -3.266306
v -1.749928 4.958241 -3.221528
v -1.680917 4.958241 -3.137438
v -1.667190 4.958241 -3.276812
v -1.739422 4.958241 -3.246893
vn -0.914300 0.361700 -0.181900
vn -0.932200 0.361800 0.000000
vn -0.932200 0.361800 0.000000
vn -0.775100 0.361800 0.517900
vn -0.659200 0.361800 0.659200
vn -0.659200 0.361800 0.659200
vn -0.914400 0.361700 0.181900
vn -0.914300 0.361700 0.181900
vn -0.861300 0.361800 0.356800
vn -0.775100 0.361800 0.518000
vn -0.517900 0.361800 0.775100
vn -0.517900 0.361800 0.775100
vn -0.356700 0.361800 0.861300
vn -0.356700 0.361800 0.861300
vn -0.181900 0.361800 0.914300
vn -0.181900 0.361800 0.914300
vn 0.000000 0.361800 0.932200
vn 0.181800 0.361700 0.914300
vn 0.181900 0.361800 0.914300
vn 0.356700 0.361800 0.861300
vn 0.356700 0.361700 0.861300
vn 0.517900 0.361800 0.775100
vn 0.517900 0.361800 0.775100
vn 0.659200 0.361800 0.659200
vn 0.659200 0.361800 0.659200
vn 0.775100 0.361800 0.518000
vn 0.861300 0.361800 0.356700
vn 0.861300 0.361800 0.356700
vn 0.914300 0.361700 0.181900
vn 0.914300 0.361700 0.181900
vn 0.932200 0.361700 0.000000
vn 0.932200 0.361800 0.000000
vn 0.914300 0.361800 -0.181900
vn 0.861300 0.361800 -0.356700
vn 0.775100 0.361700 -0.517900
vn 0.775100 0.361800 -0.517900
vn 0.659200 0.361800 -0.659200
vn 0.659200 0.361800 -0.659200
vn 0.517900 0.361800 -0.775100
vn 0.356800 0.361700 -0.861300
vn 0.356700 0.361700 -0.861300
vn 0.181900 0.361800 -0.914300
vn 0.000000 0.361800 -0.932200
vn 0.000000 0.361800 -0.932200
vn -0.181900 0.361800 -0.914300
vn -0.181900 0.361800 -0.914300
vn -0.356700 0.361800 -0.861300
vn -0.356700 0.361800 -0.861300
vn -0.517900 0.361800 -0.775100
vn -0.517900 0.361800 -0.775100
vn -0.659200 0.361800 -0.659200
vn -0.659200 0.361800 -0.659200
vn -0.775100 0.361800 -0.517900
vn -0.861300 0.361800 -0.356800
vn -0.861300 0.361800 -0.356800
vn -0.861300 0.361800 0.356800
vn 0.775100 0.361800 0.517900
vn 0.861300 0.361800 -0.356700
vn 0.914300 0.361800 -0.181900
vn 0.517900 0.361800 -0.775100
vn -0.914300 0.361700 -0.181900
vn 0.000000 0.361800 0.932200
vn 0.181900 0.361800 -0.914300
vn -0.775100 0.361800 -0.517900
vt 0.482078 0.891536
vt 0.483654 0.888300
vt 0.484056 0.889985
vt 0.491261 0.880841
vt 0.494446 0.879423
vt 0.494577 0.881305
vt 0.485770 0.885366
vt 0.486115 0.887116
vt 0.488337 0.882847
vt 0.491469 0.882691
vt 0.497794 0.878650
vt 0.497846 0.880549
vt 0.501177 0.880451
vt 0.501205 0.878550
vt 0.504582 0.879127
vt 0.504474 0.881016
vt 0.507825 0.880360
vt 0.510836 0.882200
vt 0.510577 0.884020
vt 0.513191 0.886345
vt 0.513518 0.884577
vt 0.515776 0.887400
vt 0.515390 0.889105
vt 0.517520 0.890560
vt 0.517084 0.892195
vt 0.518664 0.893936
vt 0.518643 0.898881
vt 0.519137 0.897398
vt 0.518880 0.900813
vt 0.518383 0.902220
vt 0.517860 0.904049
vt 0.517381 0.905385
vt 0.516074 0.906983
vt 0.513559 0.909502
vt 0.510396 0.911508
vt 0.510103 0.912679
vt 0.506717 0.912925
vt 0.506526 0.914065
vt 0.502692 0.913699
vt 0.498570 0.914919
vt 0.498528 0.913799
vt 0.494440 0.913222
vt 0.490639 0.911989
vt 0.490904 0.913149
vt 0.487309 0.910149
vt 0.487664 0.911350
vt 0.485016 0.909025
vt 0.484593 0.907772
vt 0.482587 0.904949
vt 0.483057 0.906265
vt 0.481340 0.901789
vt 0.481834 0.903175
vt 0.480861 0.898413
vt 0.481124 0.894951
vt 0.481605 0.896489
vt 0.488617 0.884653
vt 0.518192 0.895496
vt 0.513182 0.910717
vt 0.515635 0.908254
vt 0.502615 0.914821
vt 0.482526 0.893150
vt 0.507639 0.882221
vt 0.494599 0.914354
vt 0.481358 0.899874
f 1/1/1 2/2/2 3/3/3
f 4/4/4 5/5/5 6/6/6
f 2/2/2 7/7/7 8/8/8
f 9/9/9 4/4/4 10/10/10
f 5/5/5 11/11/11 12/12/12
f 13/13/13 14/14/14 15/15/15
f 16/16/16 15/15/15 17/17/17
f 17/17/17 18/18/18 19/19/19
f 20/20/20 21/21/21 22/22/22
f 23/23/23 22/22/22 24/24/24
f 25/25/25 24/24/24 26/26/26
f 27/27/27 28/28/28 29/29/29
f 30/30/30 29/29/29 31/31/31
f 32/32/32 31/31/31 33/33/33
f 34/34/34 35/35/35 36/36/36
f 36/36/36 35/35/35 37/37/37
f 38/38/38 37/37/37 39/39/39
f 40/40/40 41/41/41 42/42/42
f 42/42/42 43/43/43 44/44/44
f 43/43/43 45/45/45 46/46/46
f 47/47/47 48/48/48 49/49/49
f 50/50/50 49/49/49 51/51/51
f 52/52/52 51/51/51 53/53/53
f 53/53/53 54/54/54 55/55/55
f 55/55/55 54/54/54 1/1/1
f 9/9/9 56/56/56 8/8/8
f 13/13/13 12/12/12 11/11/11
f 21/21/21 20/20/20 19/19/19
f 28/28/28 27/27/27 57/57/57
f 34/34/34 58/58/58 59/59/59
f 41/41/41 40/40/40 60/60/60
f 48/48/48 47/47/47 46/46/46
f 61/61/61 1/1/1 3/3/3
f 10/10/10 4/4/4 6/6/6
f 3/3/3 2/2/2 8/8/8
f 56/56/56 9/9/9 10/10/10
f 6/6/6 5/5/5 12/12/12
f 16/16/16 13/13/13 15/15/15
f 62/62/62 16/16/16 17/17/17
f 62/62/62 17/17/17 19/19/19
f 23/23/23 20/20/20 22/22/22
f 25/25/25 23/23/23 24/24/24
f 57/57/57 25/25/25 26/26/26
f 30/30/30 27/27/27 29/29/29
f 32/32/32 30/30/30 31/31/31
f 59/59/59 32/32/32 33/33/33
f 58/58/58 34/34/34 36/36/36
f 38/38/38 36/36/36 37/37/37
f 60/60/60 38/38/38 39/39/39
f 63/63/63 40/40/40 42/42/42
f 63/63/63 42/42/42 44/44/44
f 44/44/44 43/43/43 46/46/46
f 50/50/50 47/47/47 49/49/49
f 52/52/52 50/50/50 51/51/51
f 64/64/64 52/52/52 53/53/53
f 64/64/64 53/53/53 55/55/55
f 61/61/61 55/55/55 1/1/1
f 7/7/7 9/9/9 8/8/8
f 14/14/14 13/13/13 11/11/11
f 18/18/18 21/21/21 19/19/19
f 26/26/26 28/28/28 57/57/57
f 33/33/33 34/34/34 59/59/59
f 39/39/39 41/41/41 60/60/60
f 45/45/45 48/48/48 46/46/46
