v -0.313621 4.188066 -1.517206
v -0.302312 4.196855 -1.520639
v -0.305163 4.186248 -1.529126
v -0.301194 4.181680 -1.513400
v -0.301193 4.184208 -1.527910
v -0.298342 4.194815 -1.519423
v -0.302312 4.196855 -1.520639
v -0.298342 4.194815 -1.519423
v -0.301193 4.184208 -1.527910
v -0.313621 4.188066 -1.517206
v -0.305163 4.186248 -1.529126
v -0.312244 4.175287 -1.524398
v -0.301194 4.181680 -1.513400
v -0.308273 4.173246 -1.523182
v -0.301193 4.184208 -1.527910
v -0.305163 4.186248 -1.529126
v -0.301193 4.184208 -1.527910
v -0.308273 4.173246 -1.523182
v -0.313621 4.188066 -1.517206
v -0.312244 4.175287 -1.524398
v -0.316474 4.174932 -1.511183
v -0.301194 4.181680 -1.513400
v -0.312503 4.172891 -1.509967
v -0.308273 4.173246 -1.523182
v -0.312244 4.175287 -1.524398
v -0.308273 4.173246 -1.523182
v -0.312503 4.172891 -1.509967
v -0.313621 4.188066 -1.517206
v -0.316474 4.174932 -1.511183
v -0.313623 4.185538 -1.502696
v -0.301194 4.181680 -1.513400
v -0.309652 4.183497 -1.501480
v -0.312503 4.172891 -1.509967
v -0.312503 4.172891 -1.509967
v -0.309652 4.183497 -1.501480
v -0.313623 4.185538 -1.502696
v -0.313621 4.188066 -1.517206
v -0.313623 4.185538 -1.502696
v -0.306542 4.196499 -1.507424
v -0.301194 4.181680 -1.513400
v -0.302571 4.194459 -1.506208
v -0.309652 4.183497 -1.501480
v -0.313623 4.185538 -1.502696
v -0.309652 4.183497 -1.501480
v -0.302571 4.194459 -1.506208
v -0.313621 4.188066 -1.517206
v -0.306542 4.196499 -1.507424
v -0.302312 4.196855 -1.520639
v -0.301194 4.181680 -1.513400
v -0.298342 4.194815 -1.519423
v -0.302571 4.194459 -1.506208
v -0.302571 4.194459 -1.506208
v -0.298342 4.194815 -1.519423
v -0.302312 4.196855 -1.520639
v -0.305163 4.186248 -1.529126
v -0.302312 4.196855 -1.520639
v -0.301193 4.184208 -1.527910
v -0.312244 4.175287 -1.524398
v -0.305163 4.186248 -1.529126
v -0.308273 4.173246 -1.523182
v -0.316474 4.174932 -1.511183
v -0.312244 4.175287 -1.524398
v -0.312503 4.172891 -1.509967
v -0.316474 4.174932 -1.511183
v -0.306542 4.196499 -1.507424
v -0.313623 4.185538 -1.502696
v -0.302571 4.194459 -1.506208
v -0.306542 4.196499 -1.507424
v -0.302571 4.194459 -1.506208
v -0.302312 4.196855 -1.520639
vn -0.615600 0.586600 -0.526300
vn -0.615600 0.586600 -0.526300
vn -0.615600 0.586600 -0.526300
vn 0.972500 -0.229500 -0.039900
vn 0.972500 -0.229500 -0.039900
vn 0.972500 -0.229500 -0.039900
vn 0.470500 0.470800 -0.746400
vn 0.470500 0.470800 -0.746400
vn 0.470500 0.470800 -0.746400
vn -0.772300 0.246300 -0.585600
vn -0.772300 0.246300 -0.585600
vn -0.772300 0.246300 -0.585600
vn 0.815800 -0.569800 -0.099200
vn 0.815800 -0.569800 -0.099200
vn 0.815800 -0.569800 -0.099200
vn 0.057400 -0.426400 -0.902700
vn 0.057400 -0.426400 -0.902700
vn 0.057400 -0.426400 -0.902700
vn -0.950700 0.067800 -0.302500
vn -0.950700 0.067800 -0.302500
vn -0.950700 0.067800 -0.302500
vn 0.637300 -0.748300 0.183900
vn 0.637300 -0.748300 0.183900
vn 0.637300 -0.748300 0.183900
vn -0.413200 -0.897100 -0.156300
vn -0.413200 -0.897100 -0.156300
vn -0.413200 -0.897100 -0.156300
vn -0.972500 0.229500 0.039900
vn -0.972500 0.229500 0.039900
vn -0.972500 0.229500 0.039900
vn 0.615600 -0.586600 0.526300
vn 0.615600 -0.586600 0.526300
vn 0.615600 -0.586600 0.526300
vn -0.470500 -0.470700 0.746400
vn -0.470500 -0.470700 0.746400
vn -0.470500 -0.470700 0.746400
vn -0.815800 0.569800 0.099200
vn -0.815800 0.569800 0.099200
vn -0.815800 0.569800 0.099200
vn 0.772300 -0.246300 0.585600
vn 0.772300 -0.246300 0.585600
vn 0.772300 -0.246300 0.585600
vn -0.057400 0.426400 0.902700
vn -0.057400 0.426400 0.902700
vn -0.057400 0.426400 0.902700
vn -0.637300 0.748300 -0.183900
vn -0.637300 0.748300 -0.183900
vn -0.637300 0.748300 -0.183900
vn 0.950700 -0.067800 0.302500
vn 0.950700 -0.067800 0.302500
vn 0.950700 -0.067800 0.302500
vn 0.413100 0.897200 0.156300
vn 0.413100 0.897200 0.156300
vn 0.413100 0.897200 0.156300
vn 0.470400 0.470800 -0.746400
vn 0.470400 0.470800 -0.746400
vn 0.470400 0.470800 -0.746400
vn 0.057300 -0.426400 -0.902700
vn 0.057300 -0.426400 -0.902700
vn 0.057300 -0.426400 -0.902700
vn -0.413100 -0.897100 -0.156300
vn -0.413100 -0.897100 -0.156300
vn -0.413100 -0.897100 -0.156300
vn -0.470500 -0.470700 0.746400
vn -0.057300 0.426400 0.902700
vn -0.057300 0.426400 0.902700
vn -0.057300 0.426400 0.902700
vn 0.413100 0.897100 0.156300
vn 0.413100 0.897100 0.156300
vn 0.413100 0.897100 0.156300
vt 0.000000 0.000000
vt 0.000000 0.000000
vt 0.000000 0.000000
vt 0.000000 0.000000
vt 0.000000 0.000000
vt 0.000000 0.000000
vt 0.000000 0.000000
vt 0.000000 0.000000
vt 0.000000 0.000000
vt 0.000000 0.000000
vt 0.000000 0.000000
vt 0.000000 0.000000
vt 0.000000 0.000000
vt 0.000000 0.000000
vt 0.000000 0.000000
vt 0.000000 0.000000
vt 0.000000 0.000000
vt 0.000000 0.000000
vt 0.000000 0.000000
vt 0.000000 0.000000
vt 0.000000 0.000000
vt 0.000000 0.000000
vt 0.000000 0.000000
vt 0.000000 0.000000
vt 0.000000 0.000000
vt 0.000000 0.000000
vt 0.000000 0.000000
vt 0.000000 0.000000
vt 0.000000 0.000000
vt 0.000000 0.000000
vt 0.000000 0.000000
vt 0.000000 0.000000
vt 0.000000 0.000000
vt 0.000000 0.000000
vt 0.000000 0.000000
vt 0.000000 0.000000
vt 0.000000 0.000000
vt 0.000000 0.000000
vt 0.000000 0.000000
vt 0.000000 0.000000
vt 0.000000 0.000000
vt 0.000000 0.000000
vt 0.000000 0.000000
vt 0.000000 0.000000
vt 0.000000 0.000000
vt 0.000000 0.000000
vt 0.000000 0.000000
vt 0.000000 0.000000
vt 0.000000 0.000000
vt 0.000000 0.000000
vt 0.000000 0.000000
vt 0.000000 0.000000
vt 0.000000 0.000000
vt 0.000000 0.000000
vt 0.000000 0.000000
vt 0.000000 0.000000
vt 0.000000 0.000000
vt 0.000000 0.000000
vt 0.000000 0.000000
vt 0.000000 0.000000
vt 0.000000 0.000000
vt 0.000000 0.000000
vt 0.000000 0.000000
vt 0.000000 0.000000
vt 0.000000 0.000000
vt 0.000000 0.000000
vt 0.000000 0.000000
vt 0.000000 0.000000
vt 0.000000 0.000000
vt 0.000000 0.000000
f 1/1/1 2/2/2 3/3/3
f 4/4/4 5/5/5 6/6/6
f 7/7/7 8/8/8 9/9/9
f 10/10/10 11/11/11 12/12/12
f 13/13/13 14/14/14 15/15/15
f 16/16/16 17/17/17 18/18/18
f 19/19/19 20/20/20 21/21/21
f 22/22/22 23/23/23 24/24/24
f 25/25/25 26/26/26 27/27/27
f 28/28/28 29/29/29 30/30/30
f 31/31/31 32/32/32 33/33/33
f 34/34/34 35/35/35 36/36/36
f 37/37/37 38/38/38 39/39/39
f 40/40/40 41/41/41 42/42/42
f 43/43/43 44/44/44 45/45/45
f 46/46/46 47/47/47 48/48/48
f 49/49/49 50/50/50 51/51/51
f 52/52/52 53/53/53 54/54/54
f 55/55/55 56/56/56 57/57/57
f 58/58/58 59/59/59 60/60/60
f 61/61/61 62/62/62 63/63/63
f 64/64/64 34/34/34 36/36/36
f 65/65/65 66/66/66 67/67/67
f 68/68/68 69/69/69 70/70/70
