v -1.745770 4.949851 -3.180938
v -1.749765 4.949851 -3.194107
v -1.740947 4.946254 -3.195861
v -1.704340 4.946254 -3.151254
v -1.707780 4.949851 -3.142948
v -1.719916 4.949851 -3.149435
v -1.657495 4.946254 -3.151254
v -1.654054 4.949851 -3.142948
v -1.667223 4.949851 -3.138954
v -1.624370 4.946254 -3.184379
v -1.616064 4.949851 -3.180938
v -1.622551 4.949851 -3.168802
v -1.624370 4.946254 -3.231224
v -1.616064 4.949851 -3.234664
v -1.612070 4.949851 -3.221496
v -1.654054 4.949851 -3.272654
v -1.641918 4.949851 -3.266167
v -1.646913 4.946254 -3.258692
v -1.704340 4.946254 -3.264348
v -1.707780 4.949851 -3.272654
v -1.694612 4.949851 -3.276649
v -1.740947 4.946254 -3.219742
v -1.742123 4.946254 -3.207801
v -1.751113 4.949851 -3.207801
v -1.739283 4.949851 -3.168802
v -1.731808 4.946254 -3.173797
v -1.724196 4.946254 -3.164522
v -1.737464 4.946254 -3.184379
v -1.714921 4.946254 -3.156910
v -1.692858 4.946254 -3.147771
v -1.694612 4.949851 -3.138954
v -1.680917 4.946254 -3.146595
v -1.668977 4.946254 -3.147771
v -1.646913 4.946254 -3.156910
v -1.637638 4.946254 -3.164522
v -1.631281 4.949851 -3.158165
v -1.630026 4.946254 -3.173797
v -1.620887 4.946254 -3.195860
v -1.612070 4.949851 -3.194107
v -1.619711 4.946254 -3.207801
v -1.610721 4.949851 -3.207801
v -1.620887 4.946254 -3.219742
v -1.630026 4.946254 -3.241805
v -1.622551 4.949851 -3.246800
v -1.637638 4.946254 -3.251080
v -1.631281 4.949851 -3.257437
v -1.657495 4.946254 -3.264348
v -1.668976 4.946254 -3.267831
v -1.680917 4.946254 -3.269007
v -1.680917 4.949851 -3.277997
v -1.692858 4.946254 -3.267831
v -1.714921 4.946254 -3.258692
v -1.724196 4.946254 -3.251080
v -1.730553 4.949851 -3.257437
v -1.731808 4.946254 -3.241805
v -1.737464 4.946254 -3.231224
v -1.745770 4.949851 -3.234664
v -1.749765 4.949851 -3.221496
v -1.730553 4.949851 -3.158165
v -1.680917 4.949851 -3.137605
v -1.641918 4.949851 -3.149435
v -1.667222 4.949851 -3.276649
v -1.719916 4.949851 -3.266167
v -1.739283 4.949851 -3.246800
vn -0.343200 -0.928400 0.142200
vn -0.364300 -0.928400 0.072500
vn -0.364400 -0.928400 0.072500
vn -0.142200 -0.928400 0.343200
vn -0.142200 -0.928400 0.343200
vn -0.206400 -0.928400 0.308800
vn 0.142200 -0.928400 0.343200
vn 0.142200 -0.928400 0.343200
vn 0.072500 -0.928400 0.364400
vn 0.343200 -0.928400 0.142200
vn 0.343200 -0.928400 0.142200
vn 0.308900 -0.928400 0.206400
vn 0.343200 -0.928400 -0.142200
vn 0.343200 -0.928400 -0.142200
vn 0.364400 -0.928400 -0.072500
vn 0.142200 -0.928400 -0.343200
vn 0.206400 -0.928400 -0.308800
vn 0.206400 -0.928400 -0.308800
vn -0.142200 -0.928400 -0.343200
vn -0.142200 -0.928400 -0.343200
vn -0.072500 -0.928400 -0.364300
vn -0.364300 -0.928400 -0.072500
vn -0.371500 -0.928400 0.000000
vn -0.371500 -0.928400 0.000000
vn -0.308900 -0.928400 0.206400
vn -0.308900 -0.928400 0.206400
vn -0.262700 -0.928400 0.262600
vn -0.343200 -0.928400 0.142200
vn -0.206400 -0.928400 0.308800
vn -0.072500 -0.928400 0.364300
vn -0.072500 -0.928400 0.364300
vn 0.000000 -0.928400 0.371500
vn 0.072500 -0.928400 0.364400
vn 0.206400 -0.928400 0.308800
vn 0.262700 -0.928400 0.262700
vn 0.262700 -0.928400 0.262700
vn 0.308900 -0.928400 0.206400
vn 0.364300 -0.928400 0.072500
vn 0.364300 -0.928400 0.072500
vn 0.371500 -0.928400 0.000000
vn 0.371500 -0.928400 0.000000
vn 0.364300 -0.928400 -0.072400
vn 0.308900 -0.928400 -0.206400
vn 0.308900 -0.928400 -0.206400
vn 0.262700 -0.928400 -0.262700
vn 0.262700 -0.928400 -0.262600
vn 0.142200 -0.928400 -0.343200
vn 0.072500 -0.928400 -0.364300
vn 0.000000 -0.928400 -0.371500
vn 0.000000 -0.928400 -0.371500
vn -0.072500 -0.928400 -0.364300
vn -0.206400 -0.928400 -0.308800
vn -0.262700 -0.928400 -0.262700
vn -0.262700 -0.928400 -0.262700
vn -0.308900 -0.928400 -0.206400
vn -0.343200 -0.928400 -0.142200
vn -0.343200 -0.928400 -0.142200
vn -0.364300 -0.928400 -0.072500
vn -0.262700 -0.928400 0.262600
vn 0.000000 -0.928400 0.371500
vn 0.206400 -0.928400 0.308800
vn 0.072500 -0.928400 -0.364300
vn -0.206400 -0.928400 -0.308800
vn -0.308900 -0.928400 -0.206300
vt 0.488560 0.881599
vt 0.486045 0.884056
vt 0.487697 0.884083
vt 0.501046 0.878286
vt 0.501183 0.877407
vt 0.497835 0.877504
vt 0.511693 0.883413
vt 0.513258 0.883286
vt 0.510630 0.880967
vt 0.516402 0.894318
vt 0.518744 0.895793
vt 0.518288 0.892416
vt 0.511492 0.904613
vt 0.513259 0.907601
vt 0.515724 0.905144
vt 0.498561 0.911793
vt 0.502631 0.911695
vt 0.502271 0.908183
vt 0.486919 0.903142
vt 0.484930 0.905913
vt 0.487591 0.908232
vt 0.484570 0.889332
vt 0.485895 0.886579
vt 0.483974 0.886918
vt 0.491426 0.879641
vt 0.492424 0.880234
vt 0.495181 0.879029
vt 0.489900 0.881941
vt 0.498085 0.878371
vt 0.503976 0.878777
vt 0.504496 0.877970
vt 0.506786 0.879825
vt 0.509387 0.881391
vt 0.513622 0.885814
vt 0.515094 0.888502
vt 0.517173 0.889123
vt 0.516041 0.891373
vt 0.516136 0.897222
vt 0.518485 0.899125
vt 0.515219 0.899975
vt 0.517479 0.902282
vt 0.513659 0.902471
vt 0.508792 0.906320
vt 0.510163 0.909558
vt 0.505671 0.907525
vt 0.506565 0.910941
vt 0.498758 0.908268
vt 0.495307 0.907777
vt 0.492088 0.906729
vt 0.490850 0.910028
vt 0.489252 0.905164
vt 0.485174 0.900741
vt 0.484066 0.898053
vt 0.481733 0.900077
vt 0.483610 0.895181
vt 0.483790 0.892237
vt 0.481506 0.893406
vt 0.482435 0.890075
vt 0.494551 0.878259
vt 0.507677 0.879172
vt 0.515469 0.886040
vt 0.494566 0.911230
vt 0.482961 0.903159
vt 0.481256 0.896784
f 1/1/1 2/2/2 3/3/3
f 4/4/4 5/5/5 6/6/6
f 7/7/7 8/8/8 9/9/9
f 10/10/10 11/11/11 12/12/12
f 13/13/13 14/14/14 15/15/15
f 16/16/16 17/17/17 18/18/18
f 19/19/19 20/20/20 21/21/21
f 22/22/22 23/23/23 24/24/24
f 25/25/25 26/26/26 27/27/27
f 23/23/23 3/3/3 2/2/2
f 28/28/28 26/26/26 25/25/25
f 27/27/27 29/29/29 6/6/6
f 4/4/4 30/30/30 31/31/31
f 31/31/31 30/30/30 32/32/32
f 32/32/32 33/33/33 9/9/9
f 8/8/8 7/7/7 34/34/34
f 34/34/34 35/35/35 36/36/36
f 36/36/36 35/35/35 37/37/37
f 11/11/11 10/10/10 38/38/38
f 39/39/39 38/38/38 40/40/40
f 41/41/41 40/40/40 42/42/42
f 14/14/14 13/13/13 43/43/43
f 44/44/44 43/43/43 45/45/45
f 46/46/46 45/45/45 18/18/18
f 16/16/16 47/47/47 48/48/48
f 48/48/48 49/49/49 50/50/50
f 49/49/49 51/51/51 21/21/21
f 20/20/20 19/19/19 52/52/52
f 52/52/52 53/53/53 54/54/54
f 54/54/54 53/53/53 55/55/55
f 55/55/55 56/56/56 57/57/57
f 56/56/56 22/22/22 58/58/58
f 28/28/28 1/1/1 3/3/3
f 29/29/29 4/4/4 6/6/6
f 33/33/33 7/7/7 9/9/9
f 37/37/37 10/10/10 12/12/12
f 42/42/42 13/13/13 15/15/15
f 47/47/47 16/16/16 18/18/18
f 51/51/51 19/19/19 21/21/21
f 58/58/58 22/22/22 24/24/24
f 59/59/59 25/25/25 27/27/27
f 24/24/24 23/23/23 2/2/2
f 1/1/1 28/28/28 25/25/25
f 59/59/59 27/27/27 6/6/6
f 5/5/5 4/4/4 31/31/31
f 60/60/60 31/31/31 32/32/32
f 60/60/60 32/32/32 9/9/9
f 61/61/61 8/8/8 34/34/34
f 61/61/61 34/34/34 36/36/36
f 12/12/12 36/36/36 37/37/37
f 39/39/39 11/11/11 38/38/38
f 41/41/41 39/39/39 40/40/40
f 15/15/15 41/41/41 42/42/42
f 44/44/44 14/14/14 43/43/43
f 46/46/46 44/44/44 45/45/45
f 17/17/17 46/46/46 18/18/18
f 62/62/62 16/16/16 48/48/48
f 62/62/62 48/48/48 50/50/50
f 50/50/50 49/49/49 21/21/21
f 63/63/63 20/20/20 52/52/52
f 63/63/63 52/52/52 54/54/54
f 64/64/64 54/54/54 55/55/55
f 64/64/64 55/55/55 57/57/57
f 57/57/57 56/56/56 58/58/58
