v 0.489185 3.026887 -3.264318
v 0.478980 3.016776 -3.279592
v 0.465991 3.016776 -3.268932
v 0.470605 3.026887 -3.170908
v 0.452488 3.019801 -3.177624
v 0.452488 3.016776 -3.166023
v 0.455332 3.016776 -3.160702
v 0.465991 3.016776 -3.147714
v 0.458797 3.004456 -3.134210
v 0.477080 3.013981 -3.134210
v 0.484301 3.016776 -3.134210
v 0.478980 3.016776 -3.137054
v 0.582596 3.026887 -3.245738
v 0.600713 3.019801 -3.239022
v 0.600713 3.016776 -3.250622
v 0.588819 3.026887 -3.234095
v 0.592652 3.026887 -3.221461
v 0.600713 3.022362 -3.223065
v 0.587210 3.016776 -3.268932
v 0.597869 3.016776 -3.255943
v 0.600713 3.013981 -3.257843
v 0.594404 3.004456 -3.282436
v 0.576121 3.013981 -3.282436
v 0.568900 3.016776 -3.282436
v 0.574221 3.016776 -3.279592
v 0.557299 3.019801 -3.282436
v 0.552372 3.026887 -3.270542
v 0.564016 3.026887 -3.264318
v 0.526600 3.023162 -3.282436
v 0.526600 3.026887 -3.275668
v 0.539739 3.026887 -3.274374
v 0.500829 3.026887 -3.270542
v 0.513462 3.026887 -3.274374
v 0.511858 3.022362 -3.282436
v 0.452488 3.023162 -3.208323
v 0.459255 3.026887 -3.208323
v 0.460549 3.026887 -3.221461
v 0.452488 3.019801 -3.239021
v 0.464382 3.026887 -3.234095
v 0.470605 3.026887 -3.245738
v 0.455332 3.016776 -3.255943
v 0.495902 3.019801 -3.282436
v 0.484301 3.016776 -3.282436
v 0.477080 3.013981 -3.282436
v 0.452488 3.004456 -3.276126
v 0.452488 3.013981 -3.257843
v 0.458797 3.004456 -3.282436
v 0.460549 3.026887 -3.195184
v 0.452488 3.013981 -3.158802
v 0.464382 3.026887 -3.182551
v 0.452488 3.004456 -3.140520
v 0.489185 3.026887 -3.152327
v 0.574221 3.026887 -3.255943
v 0.541342 3.022362 -3.282436
v 0.526600 3.026887 -3.275668
v 0.526600 3.023162 -3.282436
v 0.452488 3.016776 -3.250623
v 0.452488 3.022362 -3.223065
v 0.593946 3.026887 -3.208323
v 0.600713 3.023162 -3.208323
v 0.452488 3.022362 -3.193581
v 0.495902 3.019801 -3.134210
v 0.500829 3.026887 -3.146104
v 0.511859 3.022362 -3.134210
v 0.513462 3.026887 -3.142272
v 0.526600 3.023162 -3.134210
v 0.526600 3.026887 -3.140978
v 0.513462 3.026887 -3.142272
v 0.539739 3.026887 -3.142272
v 0.552372 3.026887 -3.146104
v 0.541342 3.022362 -3.134210
v 0.526600 3.029068 -3.271996
v 0.539022 3.029068 -3.270772
v 0.561975 3.029068 -3.261265
v 0.576121 3.013981 -3.134210
v 0.574221 3.016776 -3.137054
v 0.568900 3.016776 -3.134210
v 0.564016 3.026887 -3.152327
v 0.557299 3.019801 -3.134210
v 0.587210 3.016776 -3.147714
v 0.571624 3.029068 -3.253346
v 0.600713 3.004456 -3.140520
v 0.600713 3.013981 -3.158802
v 0.574221 3.026887 -3.160703
v 0.597869 3.016776 -3.160703
v 0.585427 3.029068 -3.232689
v 0.594404 3.004456 -3.134210
v 0.600713 3.016776 -3.166023
v 0.582596 3.026887 -3.170908
v 0.600713 3.019801 -3.177624
v 0.588819 3.026887 -3.182551
v 0.600713 3.022362 -3.193581
v 0.592652 3.026887 -3.195184
v 0.589050 3.029068 -3.220745
v 0.600713 3.004456 -3.276126
v 0.600713 2.999410 -3.282436
v 0.514179 3.029068 -3.270772
v 0.502234 3.029068 -3.267149
v 0.491226 3.029068 -3.261265
v 0.478980 3.026887 -3.255943
v 0.481577 3.029068 -3.253346
v 0.473658 3.029068 -3.243698
v 0.464151 3.029068 -3.220745
v 0.462928 3.029068 -3.208323
v 0.579542 3.029068 -3.243698
v 0.571624 3.029068 -3.163300
v 0.561975 3.029068 -3.155381
v 0.579542 3.029068 -3.172948
v 0.585426 3.029068 -3.183956
v 0.589050 3.029068 -3.195901
v 0.590273 3.029068 -3.208323
v 0.464151 3.029068 -3.195901
v 0.467774 3.029068 -3.183956
v 0.473659 3.029068 -3.172948
v 0.478980 3.026887 -3.160702
v 0.481577 3.029068 -3.163299
v 0.491226 3.029068 -3.155381
v 0.502234 3.029068 -3.149497
v 0.514179 3.029068 -3.145874
v 0.526600 3.029068 -3.144650
v 0.514179 3.029068 -3.145874
v 0.539022 3.029068 -3.145874
v 0.550967 3.029068 -3.149497
v 0.452488 2.999410 -3.282436
v 0.452488 2.999410 -3.134210
v 0.511859 3.022362 -3.134210
v 0.550967 3.029068 -3.267149
v 0.600713 2.999409 -3.134210
v 0.526600 3.029068 -3.271996
v 0.467774 3.029068 -3.232689
vn -0.275400 0.868400 -0.412200
vn -0.313200 0.826000 -0.468700
vn -0.399200 0.825400 -0.399200
vn -0.412200 0.868500 0.275400
vn -0.440400 0.876000 0.196700
vn -0.453100 0.857900 0.242200
vn -0.468700 0.826000 0.313200
vn -0.399200 0.825400 0.399200
vn -0.464500 0.738100 0.489300
vn -0.374400 0.774000 0.510600
vn -0.242200 0.857900 0.453100
vn -0.313100 0.826000 0.468700
vn 0.412200 0.868500 -0.275400
vn 0.440400 0.876000 -0.196600
vn 0.453100 0.857900 -0.242200
vn 0.458000 0.868500 -0.189700
vn 0.486200 0.868400 -0.096700
vn 0.471600 0.876000 -0.100600
vn 0.399200 0.825400 -0.399200
vn 0.468700 0.826000 -0.313200
vn 0.510600 0.774000 -0.374400
vn 0.464600 0.738100 -0.489300
vn 0.374400 0.774000 -0.510500
vn 0.242200 0.857900 -0.453100
vn 0.313200 0.826000 -0.468700
vn 0.196700 0.876000 -0.440400
vn 0.189700 0.868400 -0.458000
vn 0.275400 0.868400 -0.412200
vn 0.000000 0.876100 -0.482200
vn 0.000000 0.868500 -0.495700
vn 0.096700 0.868500 -0.486200
vn -0.189700 0.868400 -0.458000
vn -0.096700 0.868500 -0.486200
vn -0.100600 0.876000 -0.471600
vn -0.482200 0.876100 0.000000
vn -0.495700 0.868500 0.000000
vn -0.486200 0.868400 -0.096700
vn -0.440400 0.876000 -0.196600
vn -0.458000 0.868400 -0.189700
vn -0.412200 0.868500 -0.275400
vn -0.468700 0.826000 -0.313200
vn -0.196700 0.876000 -0.440400
vn -0.242200 0.857900 -0.453100
vn -0.374400 0.774000 -0.510600
vn -0.489300 0.738100 -0.464500
vn -0.510600 0.774000 -0.374400
vn -0.464500 0.738100 -0.489300
vn -0.486200 0.868500 0.096700
vn -0.510600 0.774000 0.374400
vn -0.458000 0.868500 0.189700
vn -0.489300 0.738100 0.464500
vn -0.275400 0.868400 0.412200
vn 0.350500 0.868500 -0.350500
vn 0.100600 0.876000 -0.471600
vn 0.000000 0.868500 -0.495700
vn 0.000000 0.876100 -0.482200
vn -0.453100 0.857900 -0.242200
vn -0.471600 0.876000 -0.100600
vn 0.495700 0.868500 0.000000
vn 0.482200 0.876100 0.000000
vn -0.471600 0.876000 0.100600
vn -0.196700 0.876000 0.440400
vn -0.189700 0.868500 0.458000
vn -0.100600 0.876000 0.471600
vn -0.096700 0.868400 0.486200
vn 0.000000 0.876000 0.482200
vn 0.000000 0.868500 0.495700
vn -0.096700 0.868400 0.486200
vn 0.096700 0.868400 0.486300
vn 0.189700 0.868400 0.458000
vn 0.100600 0.876000 0.471600
vn 0.000000 0.859700 -0.510700
vn 0.099600 0.859700 -0.500900
vn 0.283700 0.859700 -0.424700
vn 0.374400 0.774000 0.510500
vn 0.313100 0.826000 0.468700
vn 0.242200 0.857900 0.453100
vn 0.275400 0.868400 0.412200
vn 0.196600 0.876000 0.440400
vn 0.399200 0.825400 0.399200
vn 0.361100 0.859700 -0.361100
vn 0.489300 0.738100 0.464600
vn 0.510600 0.774000 0.374400
vn 0.350500 0.868400 0.350600
vn 0.468700 0.826000 0.313200
vn 0.471800 0.859700 -0.195400
vn 0.464500 0.738100 0.489300
vn 0.453100 0.857900 0.242200
vn 0.412200 0.868400 0.275400
vn 0.440400 0.876000 0.196700
vn 0.458000 0.868400 0.189700
vn 0.471600 0.876000 0.100600
vn 0.486200 0.868500 0.096700
vn 0.500900 0.859700 -0.099600
vn 0.489300 0.738100 -0.464500
vn 0.529800 0.662300 -0.529700
vn -0.099600 0.859700 -0.500900
vn -0.195400 0.859700 -0.471800
vn -0.283700 0.859700 -0.424700
vn -0.350500 0.868500 -0.350500
vn -0.361100 0.859700 -0.361100
vn -0.424600 0.859800 -0.283700
vn -0.500900 0.859700 -0.099600
vn -0.510700 0.859700 0.000000
vn 0.424600 0.859700 -0.283700
vn 0.361100 0.859700 0.361200
vn 0.283700 0.859700 0.424700
vn 0.424600 0.859700 0.283700
vn 0.471800 0.859700 0.195400
vn 0.500900 0.859700 0.099600
vn 0.510700 0.859700 0.000000
vn -0.500900 0.859700 0.099600
vn -0.471800 0.859700 0.195400
vn -0.424600 0.859700 0.283700
vn -0.350500 0.868400 0.350500
vn -0.361200 0.859700 0.361200
vn -0.283700 0.859700 0.424700
vn -0.195400 0.859700 0.471800
vn -0.099600 0.859700 0.500900
vn 0.000000 0.859700 0.510800
vn -0.099600 0.859700 0.500900
vn 0.099600 0.859700 0.501000
vn 0.195400 0.859700 0.471800
vn -0.529700 0.662300 -0.529700
vn -0.529700 0.662300 0.529700
vn -0.100600 0.876000 0.471600
vn 0.195400 0.859700 -0.471800
vn 0.529700 0.662300 0.529700
vn 0.000000 0.859700 -0.510700
vn -0.471800 0.859700 -0.195400
vt 0.026094 0.810811
vt 0.030785 0.807211
vt 0.040802 0.807789
vt 0.072161 0.815875
vt 0.085474 0.813569
vt 0.094126 0.813369
vt 0.095879 0.813657
vt 0.097330 0.814361
vt 0.122104 0.811717
vt 0.100257 0.814327
vt 0.089615 0.815093
vt 0.093613 0.814939
vt 0.753557 0.811818
vt 0.738813 0.810240
vt 0.742133 0.808782
vt 0.746013 0.812449
vt 0.739096 0.813134
vt 0.733456 0.811807
vt 0.755197 0.807789
vt 0.745412 0.808494
vt 0.743975 0.807624
vt 0.753094 0.803681
vt 0.764390 0.806291
vt 0.768922 0.807057
vt 0.765214 0.807211
vt 0.776264 0.807886
vt 0.778480 0.810473
vt 0.769905 0.810811
vt 0.795999 0.808807
vt 0.795999 0.810195
vt 0.787204 0.810265
vt 0.017519 0.810473
vt 0.008796 0.810265
vt 0.009512 0.808588
vt 0.068511 0.812826
vt 0.062971 0.813846
vt 0.056903 0.813134
vt 0.057186 0.810240
vt 0.049986 0.812449
vt 0.042442 0.811818
vt 0.050587 0.808494
vt 0.019735 0.807886
vt 0.027077 0.807057
vt 0.031609 0.806291
vt 0.047966 0.804023
vt 0.052024 0.807624
vt 0.042905 0.803681
vt 0.067876 0.814559
vt 0.100409 0.812994
vt 0.071165 0.815244
vt 0.120043 0.811375
vt 0.062786 0.816882
vt 0.761563 0.811265
vt 0.786487 0.808588
vt 0.000000 0.810195
vt 0.000000 0.808807
vt 0.053866 0.808782
vt 0.062543 0.811807
vt 0.733028 0.813846
vt 0.727488 0.812826
vt 0.075757 0.813406
vt 0.069688 0.815922
vt 0.049120 0.817220
vt 0.035943 0.816624
vt 0.027602 0.817427
vt 0.795999 0.816844
vt 0.795999 0.817497
vt 0.823601 0.817427
vt 0.768397 0.817427
vt 0.746879 0.817220
vt 0.760056 0.816624
vt 0.795999 0.810992
vt 0.787543 0.811059
vt 0.770940 0.811574
vt 0.695742 0.814327
vt 0.702386 0.814939
vt 0.706384 0.815093
vt 0.733213 0.816882
vt 0.726311 0.815922
vt 0.698669 0.814361
vt 0.762964 0.812003
vt 0.675957 0.811375
vt 0.695590 0.812994
vt 0.726143 0.816428
vt 0.700120 0.813657
vt 0.748207 0.813123
vt 0.673895 0.811717
vt 0.701874 0.813369
vt 0.723838 0.815875
vt 0.710524 0.813569
vt 0.724834 0.815244
vt 0.720243 0.813406
vt 0.728123 0.814559
vt 0.741728 0.813771
vt 0.748033 0.804023
vt 0.749221 0.802297
vt 0.008456 0.811059
vt 0.016836 0.811255
vt 0.025059 0.811574
vt 0.034436 0.811265
vt 0.033035 0.812003
vt 0.040657 0.812526
vt 0.054271 0.813771
vt 0.059865 0.814444
vt 0.755343 0.812526
vt 0.731325 0.816885
vt 0.738579 0.817315
vt 0.728551 0.816362
vt 0.728998 0.815765
vt 0.731742 0.815118
vt 0.736134 0.814444
vt 0.064257 0.815118
vt 0.067001 0.815765
vt 0.067448 0.816362
vt 0.069856 0.816428
vt 0.064674 0.816885
vt 0.057420 0.817315
vt 0.044277 0.817634
vt 0.024548 0.817830
vt 0.795999 0.817896
vt 0.820547 0.817830
vt 0.771451 0.817830
vt 0.751722 0.817634
vt 0.046778 0.802297
vt 0.128498 0.810334
vt 0.831942 0.816624
vt 0.779163 0.811255
vt 0.667501 0.810334
vt 0.000000 0.810992
vt 0.047792 0.813123
f 1/1/1 2/2/2 3/3/3
f 4/4/4 5/5/5 6/6/6
f 4/4/4 7/7/7 8/8/8
f 8/8/8 9/9/9 10/10/10
f 11/11/11 12/12/12 10/10/10
f 13/13/13 14/14/14 15/15/15
f 13/13/13 16/16/16 14/14/14
f 16/16/16 17/17/17 18/18/18
f 19/19/19 20/20/20 21/21/21
f 19/19/19 22/22/22 23/23/23
f 24/24/24 25/25/25 23/23/23
f 26/26/26 27/27/27 28/28/28
f 29/29/29 30/30/30 31/31/31
f 32/32/32 33/33/33 34/34/34
f 35/35/35 36/36/36 37/37/37
f 38/38/38 39/39/39 40/40/40
f 3/3/3 41/41/41 40/40/40
f 1/1/1 42/42/42 43/43/43
f 44/44/44 2/2/2 43/43/43
f 3/3/3 2/2/2 44/44/44
f 1/1/1 32/32/32 42/42/42
f 3/3/3 45/45/45 46/46/46
f 45/45/45 3/3/3 47/47/47
f 48/48/48 36/36/36 35/35/35
f 49/49/49 7/7/7 6/6/6
f 4/4/4 50/50/50 5/5/5
f 8/8/8 7/7/7 49/49/49
f 9/9/9 8/8/8 51/51/51
f 8/8/8 12/12/12 52/52/52
f 52/52/52 12/12/12 11/11/11
f 21/21/21 20/20/20 15/15/15
f 13/13/13 20/20/20 19/19/19
f 53/53/53 19/19/19 25/25/25
f 28/28/28 25/25/25 24/24/24
f 54/54/54 31/31/31 27/27/27
f 33/33/33 55/55/55 56/56/56
f 57/57/57 41/41/41 46/46/46
f 58/58/58 37/37/37 39/39/39
f 17/17/17 59/59/59 60/60/60
f 50/50/50 48/48/48 61/61/61
f 40/40/40 41/41/41 57/57/57
f 62/62/62 63/63/63 52/52/52
f 64/64/64 65/65/65 63/63/63
f 66/66/66 67/67/67 68/68/68
f 69/69/69 67/67/67 66/66/66
f 70/70/70 69/69/69 71/71/71
f 31/31/31 30/30/30 72/72/72
f 27/27/27 31/31/31 73/73/73
f 74/74/74 28/28/28 27/27/27
f 75/75/75 76/76/76 77/77/77
f 78/78/78 79/79/79 77/77/77
f 78/78/78 70/70/70 79/79/79
f 78/78/78 76/76/76 80/80/80
f 81/81/81 53/53/53 28/28/28
f 80/80/80 76/76/76 75/75/75
f 80/80/80 82/82/82 83/83/83
f 84/84/84 80/80/80 85/85/85
f 17/17/17 16/16/16 86/86/86
f 82/82/82 80/80/80 87/87/87
f 88/88/88 85/85/85 83/83/83
f 89/89/89 85/85/85 88/88/88
f 90/90/90 91/91/91 89/89/89
f 92/92/92 93/93/93 91/91/91
f 60/60/60 59/59/59 93/93/93
f 59/59/59 17/17/17 94/94/94
f 95/95/95 96/96/96 22/22/22
f 55/55/55 33/33/33 97/97/97
f 33/33/33 32/32/32 98/98/98
f 32/32/32 1/1/1 99/99/99
f 1/1/1 100/100/100 101/101/101
f 101/101/101 100/100/100 40/40/40
f 102/102/102 40/40/40 39/39/39
f 39/39/39 37/37/37 103/103/103
f 37/37/37 36/36/36 104/104/104
f 13/13/13 53/53/53 81/81/81
f 16/16/16 13/13/13 105/105/105
f 84/84/84 106/106/106 107/107/107
f 108/108/108 106/106/106 84/84/84
f 109/109/109 108/108/108 89/89/89
f 110/110/110 109/109/109 91/91/91
f 111/111/111 110/110/110 93/93/93
f 112/112/112 104/104/104 36/36/36
f 113/113/113 112/112/112 48/48/48
f 114/114/114 113/113/113 50/50/50
f 115/115/115 116/116/116 114/114/114
f 52/52/52 117/117/117 116/116/116
f 118/118/118 117/117/117 52/52/52
f 119/119/119 118/118/118 63/63/63
f 67/67/67 120/120/120 121/121/121
f 69/69/69 122/122/122 120/120/120
f 123/123/123 122/122/122 69/69/69
f 78/78/78 107/107/107 123/123/123
f 100/100/100 1/1/1 3/3/3
f 7/7/7 4/4/4 6/6/6
f 115/115/115 4/4/4 8/8/8
f 12/12/12 8/8/8 10/10/10
f 20/20/20 13/13/13 15/15/15
f 14/14/14 16/16/16 18/18/18
f 95/95/95 19/19/19 21/21/21
f 25/25/25 19/19/19 23/23/23
f 54/54/54 29/29/29 31/31/31
f 42/42/42 32/32/32 34/34/34
f 58/58/58 35/35/35 37/37/37
f 100/100/100 3/3/3 40/40/40
f 2/2/2 1/1/1 43/43/43
f 47/47/47 3/3/3 44/44/44
f 41/41/41 3/3/3 46/46/46
f 124/124/124 45/45/45 47/47/47
f 61/61/61 48/48/48 35/35/35
f 51/51/51 8/8/8 49/49/49
f 125/125/125 9/9/9 51/51/51
f 115/115/115 8/8/8 52/52/52
f 62/62/62 52/52/52 11/11/11
f 53/53/53 13/13/13 19/19/19
f 28/28/28 53/53/53 25/25/25
f 26/26/26 28/28/28 24/24/24
f 26/26/26 54/54/54 27/27/27
f 34/34/34 33/33/33 56/56/56
f 38/38/38 58/58/58 39/39/39
f 18/18/18 17/17/17 60/60/60
f 5/5/5 50/50/50 61/61/61
f 38/38/38 40/40/40 57/57/57
f 62/62/62 64/64/64 63/63/63
f 126/126/126 66/66/66 68/68/68
f 71/71/71 69/69/69 66/66/66
f 79/79/79 70/70/70 71/71/71
f 73/73/73 31/31/31 72/72/72
f 127/127/127 27/27/27 73/73/73
f 127/127/127 74/74/74 27/27/27
f 76/76/76 78/78/78 77/77/77
f 84/84/84 78/78/78 80/80/80
f 74/74/74 81/81/81 28/28/28
f 87/87/87 80/80/80 75/75/75
f 85/85/85 80/80/80 83/83/83
f 89/89/89 84/84/84 85/85/85
f 94/94/94 17/17/17 86/86/86
f 128/128/128 82/82/82 87/87/87
f 90/90/90 89/89/89 88/88/88
f 90/90/90 92/92/92 91/91/91
f 92/92/92 60/60/60 93/93/93
f 111/111/111 59/59/59 94/94/94
f 19/19/19 95/95/95 22/22/22
f 129/129/129 55/55/55 97/97/97
f 97/97/97 33/33/33 98/98/98
f 98/98/98 32/32/32 99/99/99
f 99/99/99 1/1/1 101/101/101
f 102/102/102 101/101/101 40/40/40
f 130/130/130 102/102/102 39/39/39
f 130/130/130 39/39/39 103/103/103
f 103/103/103 37/37/37 104/104/104
f 105/105/105 13/13/13 81/81/81
f 86/86/86 16/16/16 105/105/105
f 78/78/78 84/84/84 107/107/107
f 89/89/89 108/108/108 84/84/84
f 91/91/91 109/109/109 89/89/89
f 93/93/93 110/110/110 91/91/91
f 59/59/59 111/111/111 93/93/93
f 48/48/48 112/112/112 36/36/36
f 50/50/50 113/113/113 48/48/48
f 4/4/4 114/114/114 50/50/50
f 4/4/4 115/115/115 114/114/114
f 115/115/115 52/52/52 116/116/116
f 63/63/63 118/118/118 52/52/52
f 65/65/65 119/119/119 63/63/63
f 68/68/68 67/67/67 121/121/121
f 67/67/67 69/69/69 120/120/120
f 70/70/70 123/123/123 69/69/69
f 70/70/70 78/78/78 123/123/123
