v -0.502781 4.844525 -2.031447
v -0.505273 4.844525 -2.018917
v -0.505273 4.817589 -2.018917
v -0.502781 4.817589 -2.031447
v -0.506546 4.814262 -2.019445
v -0.512371 4.844525 -2.008295
v -0.512371 4.817589 -2.008295
v -0.513345 4.814262 -2.009269
v -0.522993 4.844525 -2.001197
v -0.522993 4.817589 -2.001197
v -0.523520 4.814262 -2.002470
v -0.535523 4.844525 -1.998705
v -0.535523 4.817589 -1.998705
v -0.535523 4.814262 -2.000083
v -0.548053 4.844525 -2.001198
v -0.548053 4.817588 -2.001197
v -0.547526 4.814262 -2.002470
v -0.558675 4.844525 -2.008295
v -0.558675 4.817588 -2.008295
v -0.557701 4.814262 -2.009269
v -0.565773 4.844525 -2.018917
v -0.565773 4.817588 -2.018917
v -0.564500 4.814262 -2.019444
v -0.568265 4.844525 -2.031447
v -0.568265 4.817588 -2.031447
v -0.566887 4.814262 -2.031447
v -0.565773 4.844525 -2.043977
v -0.565773 4.817588 -2.043977
v -0.564500 4.814262 -2.043449
v -0.558675 4.844525 -2.054599
v -0.558675 4.817588 -2.054599
v -0.557701 4.814262 -2.053625
v -0.548053 4.844525 -2.061697
v -0.548053 4.817588 -2.061697
v -0.547526 4.814262 -2.060424
v -0.535523 4.844525 -2.064189
v -0.535523 4.817588 -2.064189
v -0.535523 4.814261 -2.062811
v -0.522993 4.844525 -2.061697
v -0.522993 4.817588 -2.061697
v -0.523521 4.814261 -2.060424
v -0.512371 4.844525 -2.054599
v -0.512371 4.817588 -2.054599
v -0.513345 4.814261 -2.053625
v -0.505273 4.844525 -2.043977
v -0.505273 4.817588 -2.043977
v -0.506546 4.814261 -2.043450
v -0.504159 4.814262 -2.031447
vn 1.000000 0.000000 0.000000
vn 0.923900 0.000000 0.382700
vn 0.906900 -0.190600 0.375600
vn 0.981700 -0.190600 0.000000
vn 0.853600 -0.382700 0.353500
vn 0.707100 0.000000 0.707100
vn 0.694100 -0.190600 0.694100
vn 0.653200 -0.382600 0.653300
vn 0.382600 0.000000 0.923900
vn 0.375700 -0.190600 0.906900
vn 0.353600 -0.382700 0.853500
vn 0.000000 0.000000 1.000000
vn 0.000000 -0.190600 0.981700
vn 0.000000 -0.382600 0.923900
vn -0.382700 0.000000 0.923900
vn -0.375700 -0.190600 0.906900
vn -0.353500 -0.382700 0.853500
vn -0.707100 -0.000000 0.707100
vn -0.694100 -0.190600 0.694100
vn -0.653300 -0.382700 0.653200
vn -0.923900 0.000000 0.382700
vn -0.906900 -0.190600 0.375700
vn -0.853500 -0.382700 0.353600
vn -1.000000 -0.000000 0.000000
vn -0.981700 -0.190600 0.000000
vn -0.923900 -0.382700 0.000000
vn -0.923900 0.000000 -0.382700
vn -0.906900 -0.190600 -0.375600
vn -0.853600 -0.382700 -0.353400
vn -0.707100 -0.000000 -0.707100
vn -0.694100 -0.190600 -0.694100
vn -0.653200 -0.382700 -0.653300
vn -0.382700 0.000000 -0.923900
vn -0.375700 -0.190600 -0.906900
vn -0.353500 -0.382700 -0.853500
vn 0.000000 -0.000000 -1.000000
vn 0.000000 -0.190600 -0.981700
vn 0.000000 -0.382700 -0.923900
vn 0.382700 0.000000 -0.923900
vn 0.375700 -0.190600 -0.906900
vn 0.353500 -0.382600 -0.853600
vn 0.707100 0.000000 -0.707100
vn 0.694100 -0.190600 -0.694100
vn 0.653300 -0.382700 -0.653200
vn 0.923900 0.000000 -0.382600
vn 0.906900 -0.190600 -0.375700
vn 0.853500 -0.382600 -0.353600
vn 0.923900 -0.382600 0.000000
vt 0.000000 0.000000
vt 0.000000 0.000000
vt 0.000000 0.000000
vt 0.000000 0.000000
vt 0.000000 0.000000
vt 0.000000 0.000000
vt 0.000000 0.000000
vt 0.000000 0.000000
vt 0.000000 0.000000
vt 0.000000 0.000000
vt 0.000000 0.000000
vt 0.000000 0.000000
vt 0.000000 0.000000
vt 0.000000 0.000000
vt 0.000000 0.000000
vt 0.000000 0.000000
vt 0.000000 0.000000
vt 0.000000 0.000000
vt 0.000000 0.000000
vt 0.000000 0.000000
vt 0.000000 0.000000
vt 0.000000 0.000000
vt 0.000000 0.000000
vt 0.000000 0.000000
vt 0.000000 0.000000
vt 0.000000 0.000000
vt 0.000000 0.000000
vt 0.000000 0.000000
vt 0.000000 0.000000
vt 0.000000 0.000000
vt 0.000000 0.000000
vt 0.000000 0.000000
vt 0.000000 0.000000
vt 0.000000 0.000000
vt 0.000000 0.000000
vt 0.000000 0.000000
vt 0.000000 0.000000
vt 0.000000 0.000000
vt 0.000000 0.000000
vt 0.000000 0.000000
vt 0.000000 0.000000
vt 0.000000 0.000000
vt 0.000000 0.000000
vt 0.000000 0.000000
vt 0.000000 0.000000
vt 0.000000 0.000000
vt 0.000000 0.000000
vt 0.000000 0.000000
f 1/1/1 2/2/2 3/3/3
f 4/4/4 3/3/3 5/5/5
f 2/2/2 6/6/6 7/7/7
f 3/3/3 7/7/7 8/8/8
f 6/6/6 9/9/9 10/10/10
f 7/7/7 10/10/10 11/11/11
f 12/12/12 13/13/13 10/10/10
f 13/13/13 14/14/14 11/11/11
f 12/12/12 15/15/15 16/16/16
f 13/13/13 16/16/16 17/17/17
f 15/15/15 18/18/18 19/19/19
f 16/16/16 19/19/19 20/20/20
f 18/18/18 21/21/21 22/22/22
f 19/19/19 22/22/22 23/23/23
f 24/24/24 25/25/25 22/22/22
f 22/22/22 25/25/25 26/26/26
f 27/27/27 28/28/28 25/25/25
f 28/28/28 29/29/29 26/26/26
f 30/30/30 31/31/31 28/28/28
f 28/28/28 31/31/31 32/32/32
f 33/33/33 34/34/34 31/31/31
f 31/31/31 34/34/34 35/35/35
f 36/36/36 37/37/37 34/34/34
f 34/34/34 37/37/37 38/38/38
f 36/36/36 39/39/39 40/40/40
f 37/37/37 40/40/40 41/41/41
f 39/39/39 42/42/42 43/43/43
f 43/43/43 44/44/44 41/41/41
f 42/42/42 45/45/45 46/46/46
f 43/43/43 46/46/46 47/47/47
f 45/45/45 1/1/1 4/4/4
f 46/46/46 4/4/4 48/48/48
f 4/4/4 1/1/1 3/3/3
f 48/48/48 4/4/4 5/5/5
f 3/3/3 2/2/2 7/7/7
f 5/5/5 3/3/3 8/8/8
f 7/7/7 6/6/6 10/10/10
f 8/8/8 7/7/7 11/11/11
f 9/9/9 12/12/12 10/10/10
f 10/10/10 13/13/13 11/11/11
f 13/13/13 12/12/12 16/16/16
f 14/14/14 13/13/13 17/17/17
f 16/16/16 15/15/15 19/19/19
f 17/17/17 16/16/16 20/20/20
f 19/19/19 18/18/18 22/22/22
f 20/20/20 19/19/19 23/23/23
f 21/21/21 24/24/24 22/22/22
f 23/23/23 22/22/22 26/26/26
f 24/24/24 27/27/27 25/25/25
f 25/25/25 28/28/28 26/26/26
f 27/27/27 30/30/30 28/28/28
f 29/29/29 28/28/28 32/32/32
f 30/30/30 33/33/33 31/31/31
f 32/32/32 31/31/31 35/35/35
f 33/33/33 36/36/36 34/34/34
f 35/35/35 34/34/34 38/38/38
f 37/37/37 36/36/36 40/40/40
f 38/38/38 37/37/37 41/41/41
f 40/40/40 39/39/39 43/43/43
f 40/40/40 43/43/43 41/41/41
f 43/43/43 42/42/42 46/46/46
f 44/44/44 43/43/43 47/47/47
f 46/46/46 45/45/45 4/4/4
f 47/47/47 46/46/46 48/48/48
