v -0.315937 4.188066 -2.542424
v -0.324581 4.196855 -2.550484
v -0.330492 4.186248 -2.543760
v -0.318881 4.181680 -2.555083
v -0.331433 4.184208 -2.547804
v -0.325522 4.194815 -2.554529
v -0.325522 4.194815 -2.554529
v -0.331433 4.184208 -2.547804
v -0.330492 4.186248 -2.543760
v -0.315937 4.188066 -2.542424
v -0.330492 4.186248 -2.543760
v -0.322850 4.175287 -2.540007
v -0.318881 4.181680 -2.555083
v -0.323790 4.173246 -2.544051
v -0.331433 4.184208 -2.547804
v -0.330492 4.186248 -2.543760
v -0.331433 4.184208 -2.547804
v -0.323790 4.173246 -2.544051
v -0.315937 4.188066 -2.542424
v -0.322850 4.175287 -2.540007
v -0.309296 4.174932 -2.542979
v -0.318881 4.181680 -2.555083
v -0.310237 4.172891 -2.547023
v -0.323790 4.173246 -2.544051
v -0.322850 4.175287 -2.540007
v -0.323790 4.173246 -2.544051
v -0.310237 4.172891 -2.547023
v -0.315937 4.188066 -2.542424
v -0.309296 4.174932 -2.542979
v -0.303385 4.185538 -2.549703
v -0.318881 4.181680 -2.555083
v -0.304326 4.183497 -2.553748
v -0.310237 4.172891 -2.547023
v -0.310237 4.172891 -2.547023
v -0.304326 4.183497 -2.553748
v -0.303385 4.185538 -2.549703
v -0.315937 4.188066 -2.542424
v -0.303385 4.185538 -2.549703
v -0.311028 4.196499 -2.553456
v -0.318881 4.181680 -2.555083
v -0.311968 4.194459 -2.557500
v -0.304326 4.183497 -2.553748
v -0.303385 4.185538 -2.549703
v -0.304326 4.183497 -2.553748
v -0.311968 4.194459 -2.557500
v -0.315937 4.188066 -2.542424
v -0.311028 4.196499 -2.553456
v -0.324581 4.196855 -2.550484
v -0.318881 4.181680 -2.555083
v -0.325522 4.194815 -2.554529
v -0.311968 4.194459 -2.557500
v -0.311028 4.196499 -2.553456
v -0.311968 4.194459 -2.557500
v -0.325522 4.194815 -2.554529
v -0.324581 4.196855 -2.550484
v -0.322850 4.175287 -2.540007
v -0.330492 4.186248 -2.543760
v -0.323790 4.173246 -2.544051
v -0.309296 4.174932 -2.542979
v -0.322850 4.175287 -2.540007
v -0.310237 4.172891 -2.547023
v -0.309296 4.174932 -2.542979
v -0.310237 4.172891 -2.547023
v -0.303385 4.185538 -2.549703
v -0.311028 4.196499 -2.553456
v -0.303385 4.185538 -2.549703
v -0.311968 4.194459 -2.557500
v -0.324581 4.196855 -2.550484
v -0.311028 4.196499 -2.553456
v -0.325522 4.194815 -2.554529
vn -0.146400 0.586600 0.796600
vn -0.146400 0.586600 0.796600
vn -0.146400 0.586600 0.796600
vn -0.522400 -0.229500 -0.821200
vn -0.522400 -0.229500 -0.821200
vn -0.522400 -0.229500 -0.821200
vn -0.881700 0.470800 -0.032500
vn -0.881700 0.470800 -0.032500
vn -0.881700 0.470800 -0.032500
vn -0.119000 0.246300 0.961900
vn -0.119000 0.246300 0.961900
vn -0.119000 0.246300 0.961900
vn -0.495100 -0.569800 -0.655900
vn -0.495100 -0.569800 -0.655900
vn -0.495100 -0.569800 -0.655900
vn -0.809600 -0.426400 0.403400
vn -0.809600 -0.426400 0.403400
vn -0.809600 -0.426400 0.403400
vn 0.215400 0.067800 0.974200
vn 0.215400 0.067800 0.974200
vn 0.215400 0.067800 0.974200
vn -0.160700 -0.748300 -0.643600
vn -0.160700 -0.748300 -0.643600
vn -0.160700 -0.748300 -0.643600
vn 0.072000 -0.897200 0.435800
vn 0.072000 -0.897200 0.435800
vn 0.072000 -0.897200 0.435800
vn 0.522500 0.229500 0.821200
vn 0.522500 0.229500 0.821200
vn 0.522500 0.229500 0.821200
vn 0.146300 -0.586600 -0.796600
vn 0.146300 -0.586600 -0.796600
vn 0.146300 -0.586600 -0.796600
vn 0.881700 -0.470700 0.032500
vn 0.881700 -0.470700 0.032500
vn 0.881700 -0.470700 0.032500
vn 0.495100 0.569800 0.655900
vn 0.495100 0.569800 0.655900
vn 0.495100 0.569800 0.655900
vn 0.119000 -0.246300 -0.961900
vn 0.119000 -0.246300 -0.961900
vn 0.119000 -0.246300 -0.961900
vn 0.809600 0.426400 -0.403400
vn 0.809600 0.426400 -0.403400
vn 0.809600 0.426400 -0.403400
vn 0.160800 0.748300 0.643600
vn 0.160800 0.748300 0.643600
vn 0.160800 0.748300 0.643600
vn -0.215300 -0.067800 -0.974200
vn -0.215300 -0.067800 -0.974200
vn -0.215300 -0.067800 -0.974200
vn -0.072000 0.897300 -0.435600
vn -0.072000 0.897300 -0.435600
vn -0.072000 0.897300 -0.435600
vn -0.881700 0.470800 -0.032500
vn -0.809700 -0.426400 0.403200
vn -0.809700 -0.426400 0.403200
vn -0.809700 -0.426400 0.403200
vn 0.072100 -0.897200 0.435800
vn 0.072100 -0.897200 0.435800
vn 0.072100 -0.897200 0.435800
vn 0.881700 -0.470800 0.032500
vn 0.881700 -0.470800 0.032500
vn 0.881700 -0.470800 0.032500
vn 0.809600 0.426400 -0.403300
vn 0.809600 0.426400 -0.403300
vn 0.809600 0.426400 -0.403300
vn -0.072000 0.897100 -0.436000
vn -0.072000 0.897100 -0.436000
vn -0.072000 0.897100 -0.436000
vt 0.000000 0.000000
vt 0.000000 0.000000
vt 0.000000 0.000000
vt 0.000000 0.000000
vt 0.000000 0.000000
vt 0.000000 0.000000
vt 0.000000 0.000000
vt 0.000000 0.000000
vt 0.000000 0.000000
vt 0.000000 0.000000
vt 0.000000 0.000000
vt 0.000000 0.000000
vt 0.000000 0.000000
vt 0.000000 0.000000
vt 0.000000 0.000000
vt 0.000000 0.000000
vt 0.000000 0.000000
vt 0.000000 0.000000
vt 0.000000 0.000000
vt 0.000000 0.000000
vt 0.000000 0.000000
vt 0.000000 0.000000
vt 0.000000 0.000000
vt 0.000000 0.000000
vt 0.000000 0.000000
vt 0.000000 0.000000
vt 0.000000 0.000000
vt 0.000000 0.000000
vt 0.000000 0.000000
vt 0.000000 0.000000
vt 0.000000 0.000000
vt 0.000000 0.000000
vt 0.000000 0.000000
vt 0.000000 0.000000
vt 0.000000 0.000000
vt 0.000000 0.000000
vt 0.000000 0.000000
vt 0.000000 0.000000
vt 0.000000 0.000000
vt 0.000000 0.000000
vt 0.000000 0.000000
vt 0.000000 0.000000
vt 0.000000 0.000000
vt 0.000000 0.000000
vt 0.000000 0.000000
vt 0.000000 0.000000
vt 0.000000 0.000000
vt 0.000000 0.000000
vt 0.000000 0.000000
vt 0.000000 0.000000
vt 0.000000 0.000000
vt 0.000000 0.000000
vt 0.000000 0.000000
vt 0.000000 0.000000
vt 0.000000 0.000000
vt 0.000000 0.000000
vt 0.000000 0.000000
vt 0.000000 0.000000
vt 0.000000 0.000000
vt 0.000000 0.000000
vt 0.000000 0.000000
vt 0.000000 0.000000
vt 0.000000 0.000000
vt 0.000000 0.000000
vt 0.000000 0.000000
vt 0.000000 0.000000
vt 0.000000 0.000000
vt 0.000000 0.000000
vt 0.000000 0.000000
vt 0.000000 0.000000
f 1/1/1 2/2/2 3/3/3
f 4/4/4 5/5/5 6/6/6
f 7/7/7 8/8/8 9/9/9
f 10/10/10 11/11/11 12/12/12
f 13/13/13 14/14/14 15/15/15
f 16/16/16 17/17/17 18/18/18
f 19/19/19 20/20/20 21/21/21
f 22/22/22 23/23/23 24/24/24
f 25/25/25 26/26/26 27/27/27
f 28/28/28 29/29/29 30/30/30
f 31/31/31 32/32/32 33/33/33
f 34/34/34 35/35/35 36/36/36
f 37/37/37 38/38/38 39/39/39
f 40/40/40 41/41/41 42/42/42
f 43/43/43 44/44/44 45/45/45
f 46/46/46 47/47/47 48/48/48
f 49/49/49 50/50/50 51/51/51
f 52/52/52 53/53/53 54/54/54
f 55/55/55 7/7/7 9/9/9
f 56/56/56 57/57/57 58/58/58
f 59/59/59 60/60/60 61/61/61
f 62/62/62 63/63/63 64/64/64
f 65/65/65 66/66/66 67/67/67
f 68/68/68 69/69/69 70/70/70
