v 0.452488 0.025439 -3.257844
v 0.452488 2.304378 -3.257844
v 0.452488 2.302207 -3.276126
v 0.452488 0.025439 -3.250623
v 0.452488 2.305032 -3.250622
v 0.452488 0.025439 -3.239022
v 0.452488 2.305690 -3.239022
v 0.452488 0.025439 -3.223065
v 0.452488 2.306266 -3.223065
v 0.452488 0.025439 -3.140520
v 0.452488 0.025439 -3.134210
v 0.452488 2.300988 -3.134210
v 0.452488 0.025439 -3.158802
v 0.452488 2.302207 -3.140520
v 0.452488 0.025439 -3.166024
v 0.452488 2.304379 -3.158802
v 0.452488 0.025439 -3.177624
v 0.452488 2.305032 -3.166024
v 0.452488 0.025439 -3.193581
v 0.452488 2.305690 -3.177624
v 0.452488 0.025439 -3.208323
v 0.452488 2.306266 -3.193581
v 0.452488 0.025439 -3.276126
v 0.452488 2.300988 -3.282436
v 0.452488 2.306452 -3.208323
v 0.452488 0.025439 -3.282436
vn -1.000000 0.000000 0.000000
vn -1.000000 0.000000 0.000000
vn -1.000000 0.000000 0.000000
vn -1.000000 0.000000 0.000000
vn -1.000000 0.000000 0.000000
vn -1.000000 0.000000 0.000000
vn -1.000000 0.000000 0.000000
vn -1.000000 0.000000 0.000000
vn -1.000000 0.000000 0.000000
vn -1.000000 0.000000 0.000000
vn -1.000000 0.000000 0.000000
vn -1.000000 0.000000 0.000000
vn -1.000000 0.000000 0.000000
vn -1.000000 0.000000 0.000000
vn -1.000000 0.000000 0.000000
vn -1.000000 0.000000 0.000000
vn -1.000000 0.000000 0.000000
vn -1.000000 0.000000 0.000000
vn -1.000000 0.000000 0.000000
vn -1.000000 0.000000 0.000000
vn -1.000000 0.000000 0.000000
vn -1.000000 0.000000 0.000000
vn -1.000000 0.000000 0.000000
vn -1.000000 0.000000 0.000000
vn -1.000000 0.000000 0.000000
vn -1.000000 0.000000 0.000000
vt 0.374826 0.001333
vt 0.146617 0.613138
vt 0.123772 0.611551
vt 0.375220 0.001725
vt 0.156924 0.613708
vt 0.375826 0.002354
vt 0.174838 0.614518
vt 0.376609 0.003219
vt 0.201106 0.615541
vt 0.379918 0.007694
vt 0.380129 0.008036
vt 0.310325 0.618911
vt 0.379276 0.006703
vt 0.305655 0.618903
vt 0.379009 0.006311
vt 0.289864 0.618507
vt 0.378566 0.005682
vt 0.282517 0.618295
vt 0.377920 0.004817
vt 0.269275 0.617846
vt 0.377285 0.004018
vt 0.247956 0.617139
vt 0.373766 0.000342
vt 0.117039 0.610875
vt 0.225378 0.616391
vt 0.373377 0.000000
f 1/1/1 2/2/2 3/3/3
f 4/4/4 5/5/5 2/2/2
f 6/6/6 7/7/7 5/5/5
f 8/8/8 9/9/9 7/7/7
f 10/10/10 11/11/11 12/12/12
f 13/13/13 10/10/10 14/14/14
f 15/15/15 13/13/13 16/16/16
f 17/17/17 15/15/15 18/18/18
f 19/19/19 17/17/17 20/20/20
f 21/21/21 19/19/19 22/22/22
f 9/9/9 8/8/8 21/21/21
f 23/23/23 3/3/3 24/24/24
f 23/23/23 1/1/1 3/3/3
f 1/1/1 4/4/4 2/2/2
f 4/4/4 6/6/6 5/5/5
f 6/6/6 8/8/8 7/7/7
f 14/14/14 10/10/10 12/12/12
f 16/16/16 13/13/13 14/14/14
f 18/18/18 15/15/15 16/16/16
f 20/20/20 17/17/17 18/18/18
f 22/22/22 19/19/19 20/20/20
f 25/25/25 21/21/21 22/22/22
f 25/25/25 9/9/9 21/21/21
f 26/26/26 23/23/23 24/24/24
