v 2.479032 3.380364 -2.874488
v 2.479032 3.380364 -2.214098
v 2.482717 3.391611 -2.222646
v 2.479032 3.293564 -2.958166
v 2.479032 3.293564 -2.130421
v 2.479032 3.380364 -2.214098
v 2.479032 4.336092 -2.958166
v 2.479032 4.249292 -2.874488
v 2.479032 4.249292 -2.214098
v 2.479032 4.336092 -2.130421
v 2.479032 3.380364 -2.874488
v 2.482717 3.391611 -2.222646
v 2.484547 3.391611 -2.222646
v 2.484547 3.391611 -2.865941
v 2.479032 4.249292 -2.874488
v 2.482717 4.238046 -2.865941
v 2.482717 4.238046 -2.222646
v 2.479032 4.249292 -2.214098
v 2.482717 4.238046 -2.222646
v 2.482717 3.391611 -2.222646
v 2.479032 3.380364 -2.874488
v 2.482717 3.391611 -2.865941
v 2.482717 4.238046 -2.865941
v 2.482717 4.238046 -2.865941
v 2.484547 4.238046 -2.865941
v 2.484547 4.238046 -2.222646
v 2.482717 4.238046 -2.222646
v 2.484547 4.238046 -2.222646
v 2.484547 3.391611 -2.222646
v 2.482717 3.391611 -2.865941
v 2.484547 3.391611 -2.865941
v 2.484547 4.238046 -2.865941
v 2.482717 3.391611 -2.865941
v 2.479032 3.380364 -2.874488
v 2.482717 3.391611 -2.222646
v 2.482717 3.391611 -2.865941
v 2.479032 4.249292 -2.214098
v 2.479032 3.380364 -2.214098
v 2.479032 4.249292 -2.874488
v 2.482717 4.238046 -2.222646
v 2.482717 3.391611 -2.222646
v 2.482717 4.238046 -2.865941
vn -0.950300 0.311300 0.000000
vn -0.950300 0.311300 0.000000
vn -0.950300 0.311300 0.000000
vn -1.000000 0.000000 0.000000
vn -1.000000 0.000000 0.000000
vn -1.000000 0.000000 0.000000
vn -1.000000 0.000000 0.000000
vn -1.000000 0.000000 0.000000
vn -1.000000 0.000000 0.000000
vn -1.000000 0.000000 0.000000
vn -1.000000 0.000000 0.000000
vn 0.000000 1.000000 0.000000
vn 0.000000 1.000000 0.000000
vn 0.000000 1.000000 0.000000
vn -0.950300 -0.311400 0.000000
vn -0.950300 -0.311400 0.000000
vn -0.950300 -0.311400 0.000000
vn -0.918300 0.000000 -0.395900
vn -0.918300 0.000000 -0.395900
vn -0.918300 0.000000 -0.395900
vn -0.918300 0.000000 0.395900
vn -0.918300 0.000000 0.395900
vn -0.918300 0.000000 0.395900
vn 0.000000 -1.000000 0.000000
vn 0.000000 -1.000000 0.000000
vn 0.000000 -1.000000 0.000000
vn 0.000000 0.000000 -1.000000
vn 0.000000 0.000000 -1.000000
vn 0.000000 0.000000 -1.000000
vn 0.000000 0.000000 1.000000
vn 0.000000 0.000000 1.000000
vn 0.000000 0.000000 1.000000
vn -0.950300 0.311400 0.000000
vn -0.950300 0.311400 0.000000
vn -0.950300 0.311400 0.000000
vn 0.000000 1.000000 0.000000
vn -0.950300 -0.311400 0.000000
vn -0.918300 0.000000 -0.395900
vn -0.918300 0.000000 0.395900
vn 0.000000 -1.000000 0.000000
vn 0.000000 0.000000 -1.000000
vn 0.000000 0.000000 1.000000
vt 0.000097 0.000097
vt 0.999903 0.000097
vt 0.999903 0.000097
vt 0.000097 0.000097
vt 0.999903 0.000097
vt 0.999903 0.000097
vt 0.000097 0.996547
vt 0.000097 0.996547
vt 0.999903 0.996547
vt 0.999903 0.996547
vt 0.000097 0.000097
vt 0.999903 0.000097
vt 0.999903 0.000097
vt 0.000097 0.000097
vt 0.000097 0.996547
vt 0.000097 0.996547
vt 0.999903 0.996547
vt 0.999903 0.996547
vt 0.999903 0.996547
vt 0.999903 0.000097
vt 0.000097 0.000097
vt 0.000097 0.000097
vt 0.000097 0.996547
vt 0.000097 0.996547
vt 0.000097 0.996547
vt 0.999903 0.996547
vt 0.999903 0.996547
vt 0.999903 0.996547
vt 0.999903 0.000097
vt 0.000097 0.000097
vt 0.000097 0.000097
vt 0.000097 0.996547
vt 0.000097 0.000097
vt 0.000097 0.000097
vt 0.999903 0.000097
vt 0.000097 0.000097
vt 0.999903 0.996547
vt 0.999903 0.000097
vt 0.000097 0.996547
vt 0.999903 0.996547
vt 0.999903 0.000097
vt 0.000097 0.996547
f 1/1/1 2/2/2 3/3/3
f 4/4/4 5/5/5 6/6/6
f 7/7/7 8/8/8 9/9/9
f 10/10/10 9/9/9 6/6/6
f 7/7/7 4/4/4 11/11/11
f 12/12/12 13/13/13 14/14/14
f 15/15/15 16/16/16 17/17/17
f 18/18/18 19/19/19 20/20/20
f 21/21/21 22/22/22 23/23/23
f 24/24/24 25/25/25 26/26/26
f 27/27/27 28/28/28 29/29/29
f 30/30/30 31/31/31 32/32/32
f 33/33/33 34/34/34 35/35/35
f 11/11/11 4/4/4 6/6/6
f 10/10/10 7/7/7 9/9/9
f 5/5/5 10/10/10 6/6/6
f 8/8/8 7/7/7 11/11/11
f 36/36/36 12/12/12 14/14/14
f 37/37/37 15/15/15 17/17/17
f 38/38/38 18/18/18 20/20/20
f 39/39/39 21/21/21 23/23/23
f 40/40/40 24/24/24 26/26/26
f 41/41/41 27/27/27 29/29/29
f 42/42/42 30/30/30 32/32/32
