v -0.745453 2.917531 -3.173751
v -1.253550 2.917531 -3.173751
v -1.217550 2.917531 -3.209751
v -0.781453 2.917531 -3.209751
v -0.781452 2.917531 -3.645437
v -0.745453 2.917531 -3.645437
v -0.781452 2.917531 -5.178236
v -0.745452 2.917531 -5.178236
v -1.217550 2.917531 -3.209751
v -1.253550 2.917531 -3.173751
v -1.253550 2.917531 -3.209751
v -0.745453 2.917531 -3.173751
v -0.733452 2.920746 -3.645437
v -0.733452 2.920746 -5.178236
v -1.265550 2.920746 -3.161751
v -1.265550 2.920746 -3.209751
v -0.781453 2.917531 -3.209751
v -1.217550 2.917531 -3.209751
v -0.733453 2.920746 -3.161751
v -0.733453 2.920746 -3.161751
v -1.265550 2.920746 -3.161751
vn 0.098400 -0.990200 0.098500
vn -0.098400 -0.990200 0.098400
vn 0.000000 -1.000000 0.000000
vn 0.000000 -1.000000 0.000000
vn 0.000000 -1.000000 0.000000
vn 0.130500 -0.991400 0.000000
vn 0.000000 -1.000000 0.000000
vn 0.130500 -0.991400 0.000000
vn 0.000000 -1.000000 0.000000
vn -0.098400 -0.990200 0.098400
vn -0.130500 -0.991400 0.000000
vn 0.098400 -0.990200 0.098500
vn 0.258800 -0.965900 0.000000
vn 0.258800 -0.965900 0.000000
vn -0.131600 -0.982500 0.131600
vn -0.258800 -0.965900 0.000000
vn 0.000000 -1.000000 0.000000
vn 0.000000 1.000000 0.000000
vn 0.131600 -0.982500 0.131700
vn 0.131600 -0.982500 0.131700
vn -0.131600 -0.982500 0.131600
vt 0.750509 0.774274
vt 0.750509 0.210163
vt 0.835371 0.250132
vt 0.776505 0.926253
vt 0.776298 0.631191
vt 0.796560 0.631922
vt 0.767526 0.053147
vt 0.784510 0.054069
vt 0.747389 0.353678
vt 0.629252 0.471816
vt 0.629252 0.353679
vt 0.809112 0.954890
vt 0.808035 0.632228
vt 0.797107 0.054668
vt 0.721224 0.196840
vt 0.588484 0.353678
vt 0.835370 0.734306
vt 0.747389 0.351617
vt 0.820140 0.963720
vt 0.721224 0.787597
vt 0.588483 0.511196
f 1/1/1 2/2/2 3/3/3
f 4/4/4 5/5/5 6/6/6
f 7/7/7 8/8/8 6/6/6
f 9/9/9 10/10/10 11/11/11
f 12/12/12 6/6/6 13/13/13
f 8/8/8 14/14/14 13/13/13
f 15/15/15 2/2/2 1/1/1
f 16/16/16 11/11/11 10/10/10
f 17/17/17 1/1/1 3/3/3
f 12/12/12 4/4/4 6/6/6
f 5/5/5 7/7/7 6/6/6
f 18/18/18 9/9/9 11/11/11
f 19/19/19 12/12/12 13/13/13
f 6/6/6 8/8/8 13/13/13
f 20/20/20 15/15/15 1/1/1
f 21/21/21 16/16/16 10/10/10
