v -0.724382 4.188066 -1.509648
v -0.713128 4.196855 -1.506039
v -0.710645 4.186248 -1.514641
v -0.716325 4.181680 -1.499449
v -0.708071 4.184208 -1.511383
v -0.710554 4.194815 -1.502781
v -0.710554 4.194815 -1.502781
v -0.708071 4.184208 -1.511383
v -0.710645 4.186248 -1.514641
v -0.724382 4.188066 -1.509648
v -0.710645 4.186248 -1.514641
v -0.719159 4.175287 -1.514780
v -0.716325 4.181680 -1.499449
v -0.716584 4.173246 -1.511522
v -0.708071 4.184208 -1.511383
v -0.710645 4.186248 -1.514641
v -0.708071 4.184208 -1.511383
v -0.716584 4.173246 -1.511522
v -0.724382 4.188066 -1.509648
v -0.719159 4.175287 -1.514780
v -0.730154 4.174932 -1.506317
v -0.716325 4.181680 -1.499449
v -0.727580 4.172891 -1.503058
v -0.716584 4.173246 -1.511522
v -0.716584 4.173246 -1.511522
v -0.727580 4.172891 -1.503058
v -0.730154 4.174932 -1.506317
v -0.724382 4.188066 -1.509648
v -0.730154 4.174932 -1.506317
v -0.732636 4.185538 -1.497715
v -0.716325 4.181680 -1.499449
v -0.730062 4.183497 -1.494456
v -0.727580 4.172891 -1.503058
v -0.730154 4.174932 -1.506317
v -0.727580 4.172891 -1.503058
v -0.730062 4.183497 -1.494456
v -0.724382 4.188066 -1.509648
v -0.732636 4.185538 -1.497715
v -0.724123 4.196499 -1.497576
v -0.716325 4.181680 -1.499449
v -0.721549 4.194459 -1.494318
v -0.730062 4.183497 -1.494456
v -0.732636 4.185538 -1.497715
v -0.730062 4.183497 -1.494456
v -0.721549 4.194459 -1.494318
v -0.724382 4.188066 -1.509648
v -0.724123 4.196499 -1.497576
v -0.713128 4.196855 -1.506039
v -0.716325 4.181680 -1.499449
v -0.710554 4.194815 -1.502781
v -0.721549 4.194459 -1.494318
v -0.724123 4.196499 -1.497576
v -0.721549 4.194459 -1.494318
v -0.710554 4.194815 -1.502781
v -0.713128 4.196855 -1.506039
v -0.710554 4.194815 -1.502781
v -0.710645 4.186248 -1.514641
v -0.719159 4.175287 -1.514780
v -0.719159 4.175287 -1.514780
v -0.716584 4.173246 -1.511522
v -0.730154 4.174932 -1.506317
v -0.732636 4.185538 -1.497715
v -0.730154 4.174932 -1.506317
v -0.730062 4.183497 -1.494456
v -0.724123 4.196499 -1.497576
v -0.713128 4.196855 -1.506039
v -0.724123 4.196499 -1.497576
v -0.710554 4.194815 -1.502781
vn -0.207000 0.586600 -0.783000
vn -0.207000 0.586600 -0.783000
vn -0.207000 0.586600 -0.783000
vn 0.822600 -0.229500 0.520300
vn 0.822600 -0.229500 0.520300
vn 0.822600 -0.229500 0.520300
vn 0.811400 0.470800 -0.346300
vn 0.811400 0.470800 -0.346300
vn 0.811400 0.470800 -0.346300
vn -0.302100 0.246300 -0.920900
vn -0.302100 0.246300 -0.920900
vn -0.302100 0.246300 -0.920900
vn 0.727400 -0.569700 0.382400
vn 0.727400 -0.569700 0.382400
vn 0.727400 -0.569700 0.382400
vn 0.560600 -0.426400 -0.709900
vn 0.560600 -0.426400 -0.709900
vn 0.560600 -0.426400 -0.709900
vn -0.609900 0.067800 -0.789600
vn -0.609900 0.067800 -0.789600
vn -0.609900 0.067800 -0.789600
vn 0.419600 -0.748300 0.513700
vn 0.419600 -0.748300 0.513700
vn 0.419600 -0.748300 0.513700
vn -0.250900 -0.897200 -0.363400
vn -0.250900 -0.897200 -0.363400
vn -0.250900 -0.897200 -0.363400
vn -0.822600 0.229500 -0.520300
vn -0.822600 0.229500 -0.520300
vn -0.822600 0.229500 -0.520300
vn 0.207000 -0.586600 0.783000
vn 0.207000 -0.586600 0.783000
vn 0.207000 -0.586600 0.783000
vn -0.811500 -0.470700 0.346300
vn -0.811500 -0.470700 0.346300
vn -0.811500 -0.470700 0.346300
vn -0.727400 0.569800 -0.382400
vn -0.727400 0.569800 -0.382400
vn -0.727400 0.569800 -0.382400
vn 0.302200 -0.246300 0.920900
vn 0.302200 -0.246300 0.920900
vn 0.302200 -0.246300 0.920900
vn -0.560600 0.426400 0.709900
vn -0.560600 0.426400 0.709900
vn -0.560600 0.426400 0.709900
vn -0.419600 0.748300 -0.513800
vn -0.419600 0.748300 -0.513800
vn -0.419600 0.748300 -0.513800
vn 0.610000 -0.067800 0.789500
vn 0.610000 -0.067800 0.789500
vn 0.610000 -0.067800 0.789500
vn 0.250900 0.897200 0.363500
vn 0.250900 0.897200 0.363500
vn 0.250900 0.897200 0.363500
vn 0.811500 0.470700 -0.346300
vn 0.811500 0.470700 -0.346300
vn 0.811500 0.470700 -0.346300
vn 0.560600 -0.426400 -0.709900
vn -0.250900 -0.897200 -0.363500
vn -0.250900 -0.897200 -0.363500
vn -0.250900 -0.897200 -0.363500
vn -0.811500 -0.470800 0.346300
vn -0.811500 -0.470800 0.346300
vn -0.811500 -0.470800 0.346300
vn -0.560600 0.426400 0.709900
vn 0.250900 0.897100 0.363700
vn 0.250900 0.897100 0.363700
vn 0.250900 0.897100 0.363700
vt 0.000000 0.000000
vt 0.000000 0.000000
vt 0.000000 0.000000
vt 0.000000 0.000000
vt 0.000000 0.000000
vt 0.000000 0.000000
vt 0.000000 0.000000
vt 0.000000 0.000000
vt 0.000000 0.000000
vt 0.000000 0.000000
vt 0.000000 0.000000
vt 0.000000 0.000000
vt 0.000000 0.000000
vt 0.000000 0.000000
vt 0.000000 0.000000
vt 0.000000 0.000000
vt 0.000000 0.000000
vt 0.000000 0.000000
vt 0.000000 0.000000
vt 0.000000 0.000000
vt 0.000000 0.000000
vt 0.000000 0.000000
vt 0.000000 0.000000
vt 0.000000 0.000000
vt 0.000000 0.000000
vt 0.000000 0.000000
vt 0.000000 0.000000
vt 0.000000 0.000000
vt 0.000000 0.000000
vt 0.000000 0.000000
vt 0.000000 0.000000
vt 0.000000 0.000000
vt 0.000000 0.000000
vt 0.000000 0.000000
vt 0.000000 0.000000
vt 0.000000 0.000000
vt 0.000000 0.000000
vt 0.000000 0.000000
vt 0.000000 0.000000
vt 0.000000 0.000000
vt 0.000000 0.000000
vt 0.000000 0.000000
vt 0.000000 0.000000
vt 0.000000 0.000000
vt 0.000000 0.000000
vt 0.000000 0.000000
vt 0.000000 0.000000
vt 0.000000 0.000000
vt 0.000000 0.000000
vt 0.000000 0.000000
vt 0.000000 0.000000
vt 0.000000 0.000000
vt 0.000000 0.000000
vt 0.000000 0.000000
vt 0.000000 0.000000
vt 0.000000 0.000000
vt 0.000000 0.000000
vt 0.000000 0.000000
vt 0.000000 0.000000
vt 0.000000 0.000000
vt 0.000000 0.000000
vt 0.000000 0.000000
vt 0.000000 0.000000
vt 0.000000 0.000000
vt 0.000000 0.000000
vt 0.000000 0.000000
vt 0.000000 0.000000
vt 0.000000 0.000000
f 1/1/1 2/2/2 3/3/3
f 4/4/4 5/5/5 6/6/6
f 7/7/7 8/8/8 9/9/9
f 10/10/10 11/11/11 12/12/12
f 13/13/13 14/14/14 15/15/15
f 16/16/16 17/17/17 18/18/18
f 19/19/19 20/20/20 21/21/21
f 22/22/22 23/23/23 24/24/24
f 25/25/25 26/26/26 27/27/27
f 28/28/28 29/29/29 30/30/30
f 31/31/31 32/32/32 33/33/33
f 34/34/34 35/35/35 36/36/36
f 37/37/37 38/38/38 39/39/39
f 40/40/40 41/41/41 42/42/42
f 43/43/43 44/44/44 45/45/45
f 46/46/46 47/47/47 48/48/48
f 49/49/49 50/50/50 51/51/51
f 52/52/52 53/53/53 54/54/54
f 55/55/55 56/56/56 57/57/57
f 58/58/58 16/16/16 18/18/18
f 59/59/59 60/60/60 61/61/61
f 62/62/62 63/63/63 64/64/64
f 65/65/65 43/43/43 45/45/45
f 66/66/66 67/67/67 68/68/68
