v -1.334396 0.883756 -5.117204
v -1.334396 0.888422 -5.116609
v -1.337897 0.888422 -5.117306
v -1.337737 0.883756 -5.117868
v -1.340865 0.888422 -5.119289
v -1.340570 0.883756 -5.119761
v -1.342849 0.888422 -5.122257
v -1.342463 0.883756 -5.122594
v -1.343545 0.888422 -5.125759
v -1.343127 0.883756 -5.125935
v -1.342849 0.888422 -5.129261
v -1.342463 0.883756 -5.129277
v -1.340865 0.888422 -5.132229
v -1.340570 0.883756 -5.132109
v -1.337897 0.888422 -5.134212
v -1.337737 0.883756 -5.134002
v -1.334396 0.888422 -5.134909
v -1.330894 0.888422 -5.134212
v -1.331054 0.883756 -5.134002
v -1.327926 0.888422 -5.132229
v -1.328222 0.883756 -5.132109
v -1.325942 0.888422 -5.129261
v -1.326329 0.883756 -5.129277
v -1.325246 0.888422 -5.125759
v -1.325664 0.883756 -5.125935
v -1.325942 0.888422 -5.122257
v -1.326329 0.883756 -5.122594
v -1.327926 0.888422 -5.119289
v -1.328222 0.883756 -5.119761
v -1.330894 0.888422 -5.117306
v -1.331054 0.883756 -5.117868
v -1.334396 0.883756 -5.134667
vn 0.000000 -0.126400 0.992000
vn 0.000000 -0.126400 0.992000
vn -0.378200 -0.123600 0.917400
vn -0.381500 -0.123500 0.916100
vn -0.700000 -0.115600 0.704700
vn -0.704700 -0.115500 0.700000
vn -0.917300 -0.103700 0.384500
vn -0.920600 -0.103400 0.376600
vn -0.996000 -0.089400 0.004600
vn -0.996000 -0.089100 -0.004700
vn -0.922800 -0.075100 -0.377700
vn -0.919600 -0.074800 -0.385600
vn -0.708000 -0.062900 -0.703400
vn -0.703400 -0.062700 -0.708000
vn -0.383800 -0.054600 -0.921800
vn -0.380500 -0.054600 -0.923200
vn 0.000000 -0.051700 -0.998700
vn 0.383800 -0.054600 -0.921800
vn 0.380500 -0.054600 -0.923200
vn 0.708000 -0.062900 -0.703400
vn 0.703400 -0.062700 -0.708000
vn 0.922900 -0.075100 -0.377700
vn 0.919600 -0.074800 -0.385600
vn 0.996000 -0.089400 0.004600
vn 0.996000 -0.089100 -0.004700
vn 0.917300 -0.103700 0.384500
vn 0.920600 -0.103400 0.376600
vn 0.700000 -0.115600 0.704700
vn 0.704700 -0.115500 0.700000
vn 0.378200 -0.123600 0.917400
vn 0.381500 -0.123500 0.916100
vn 0.000000 -0.051700 -0.998700
vt 0.000000 0.000000
vt 0.000000 0.000000
vt 0.000000 0.000000
vt 0.000000 0.000000
vt 0.000000 0.000000
vt 0.000000 0.000000
vt 0.000000 0.000000
vt 0.000000 0.000000
vt 0.000000 0.000000
vt 0.000000 0.000000
vt 0.000000 0.000000
vt 0.000000 0.000000
vt 0.000000 0.000000
vt 0.000000 0.000000
vt 0.000000 0.000000
vt 0.000000 0.000000
vt 0.000000 0.000000
vt 0.000000 0.000000
vt 0.000000 0.000000
vt 0.000000 0.000000
vt 0.000000 0.000000
vt 0.000000 0.000000
vt 0.000000 0.000000
vt 0.000000 0.000000
vt 0.000000 0.000000
vt 0.000000 0.000000
vt 0.000000 0.000000
vt 0.000000 0.000000
vt 0.000000 0.000000
vt 0.000000 0.000000
vt 0.000000 0.000000
vt 0.000000 0.000000
f 1/1/1 2/2/2 3/3/3
f 4/4/4 3/3/3 5/5/5
f 6/6/6 5/5/5 7/7/7
f 8/8/8 7/7/7 9/9/9
f 10/10/10 9/9/9 11/11/11
f 12/12/12 11/11/11 13/13/13
f 14/14/14 13/13/13 15/15/15
f 16/16/16 15/15/15 17/17/17
f 17/17/17 18/18/18 19/19/19
f 18/18/18 20/20/20 21/21/21
f 20/20/20 22/22/22 23/23/23
f 22/22/22 24/24/24 25/25/25
f 24/24/24 26/26/26 27/27/27
f 26/26/26 28/28/28 29/29/29
f 28/28/28 30/30/30 31/31/31
f 30/30/30 2/2/2 1/1/1
f 4/4/4 1/1/1 3/3/3
f 6/6/6 4/4/4 5/5/5
f 8/8/8 6/6/6 7/7/7
f 10/10/10 8/8/8 9/9/9
f 12/12/12 10/10/10 11/11/11
f 14/14/14 12/12/12 13/13/13
f 16/16/16 14/14/14 15/15/15
f 32/32/32 16/16/16 17/17/17
f 32/32/32 17/17/17 19/19/19
f 19/19/19 18/18/18 21/21/21
f 21/21/21 20/20/20 23/23/23
f 23/23/23 22/22/22 25/25/25
f 25/25/25 24/24/24 27/27/27
f 27/27/27 26/26/26 29/29/29
f 29/29/29 28/28/28 31/31/31
f 31/31/31 30/30/30 1/1/1
