v -0.341605 4.618503 -2.499612
v -0.342850 4.620243 -2.496605
v -0.344658 4.620243 -2.497571
v -0.340253 4.617432 -2.502874
v -0.342850 4.618503 -2.500278
v -0.346242 4.620243 -2.498872
v -0.340888 4.617432 -2.503214
v -0.343941 4.618503 -2.501173
v -0.347542 4.620244 -2.500456
v -0.341444 4.617432 -2.503670
v -0.344836 4.618504 -2.502265
v -0.348508 4.620244 -2.502264
v -0.341901 4.617432 -2.504227
v -0.345502 4.618504 -2.503510
v -0.349103 4.620244 -2.504226
v -0.342240 4.617432 -2.504861
v -0.345912 4.618504 -2.504861
v -0.349304 4.620244 -2.506266
v -0.346050 4.618504 -2.506266
v -0.342520 4.617433 -2.506267
v -0.349103 4.620244 -2.508305
v -0.345912 4.618505 -2.507671
v -0.348508 4.620244 -2.510267
v -0.342449 4.617433 -2.506983
v -0.345502 4.618504 -2.509022
v -0.347542 4.620244 -2.512074
v -0.342240 4.617433 -2.507672
v -0.344836 4.618504 -2.510267
v -0.346242 4.620244 -2.513659
v -0.341901 4.617433 -2.508306
v -0.343941 4.618504 -2.511359
v -0.344657 4.620243 -2.514959
v -0.341444 4.617433 -2.508863
v -0.342849 4.618504 -2.512254
v -0.342850 4.620243 -2.515925
v -0.340888 4.617432 -2.509319
v -0.341604 4.618504 -2.512920
v -0.340889 4.620243 -2.516520
v -0.340253 4.617432 -2.509659
v -0.340253 4.618503 -2.513330
v -0.338849 4.620243 -2.516720
v -0.339564 4.617432 -2.509867
v -0.338848 4.618503 -2.513468
v -0.336809 4.620243 -2.516519
v -0.338848 4.617432 -2.509938
v -0.337443 4.618503 -2.513329
v -0.334848 4.620243 -2.515924
v -0.338132 4.617432 -2.509867
v -0.336093 4.618503 -2.512919
v -0.333041 4.620243 -2.514957
v -0.334848 4.618503 -2.512253
v -0.337443 4.617432 -2.509658
v -0.331456 4.620243 -2.513657
v -0.336809 4.617432 -2.509319
v -0.333756 4.618503 -2.511358
v -0.330156 4.620242 -2.512072
v -0.332861 4.618503 -2.510266
v -0.336252 4.617432 -2.508862
v -0.329190 4.620242 -2.510264
v -0.332195 4.618503 -2.509021
v -0.335456 4.617432 -2.507671
v -0.328595 4.620243 -2.508303
v -0.331786 4.618503 -2.507670
v -0.335248 4.617432 -2.506982
v -0.328394 4.620243 -2.506263
v -0.331647 4.618503 -2.506265
v -0.335177 4.617432 -2.506266
v -0.328595 4.620243 -2.504223
v -0.331786 4.618503 -2.504860
v -0.335248 4.617432 -2.505549
v -0.329190 4.620243 -2.502262
v -0.332195 4.618503 -2.503509
v -0.335456 4.617432 -2.504861
v -0.330156 4.620243 -2.500454
v -0.332861 4.618503 -2.502264
v -0.335796 4.617432 -2.504226
v -0.331457 4.620243 -2.498870
v -0.333757 4.618503 -2.501172
v -0.336252 4.617432 -2.503670
v -0.333041 4.620243 -2.497570
v -0.334848 4.618503 -2.500277
v -0.336809 4.617432 -2.503213
v -0.334848 4.620242 -2.496604
v -0.336093 4.618503 -2.499611
v -0.337443 4.617432 -2.502874
v -0.336810 4.620242 -2.496009
v -0.337444 4.618503 -2.499202
v -0.338132 4.617432 -2.502665
v -0.338849 4.620243 -2.495809
v -0.338849 4.618503 -2.499063
v -0.340889 4.620243 -2.496010
v -0.340254 4.618503 -2.499202
v -0.338848 4.617432 -2.502594
v -0.338848 4.617070 -2.506266
v -0.342449 4.617432 -2.505550
v -0.335796 4.617432 -2.508306
v -0.339565 4.617432 -2.502665
vn -0.148600 -0.921700 0.358200
vn -0.214400 -0.828700 0.516900
vn -0.311100 -0.828700 0.465200
vn -0.076900 -0.979600 0.185700
vn -0.215600 -0.921700 0.322600
vn -0.395900 -0.828600 0.395700
vn -0.111700 -0.979600 0.167000
vn -0.274500 -0.921600 0.274400
vn -0.465600 -0.828600 0.310900
vn -0.142300 -0.979600 0.142000
vn -0.322700 -0.921600 0.215600
vn -0.517300 -0.828600 0.214000
vn -0.167300 -0.979600 0.111500
vn -0.358500 -0.921700 0.148100
vn -0.549200 -0.828500 0.109000
vn -0.185700 -0.979600 0.076600
vn -0.380600 -0.921600 0.075500
vn -0.559900 -0.828500 0.000000
vn -0.388000 -0.921600 0.000100
vn -0.201200 -0.979500 -0.000300
vn -0.549200 -0.828500 -0.109200
vn -0.380600 -0.921600 -0.075700
vn -0.517300 -0.828500 -0.214200
vn -0.197200 -0.979600 -0.039500
vn -0.358600 -0.921600 -0.148400
vn -0.465600 -0.828500 -0.311000
vn -0.185700 -0.979600 -0.076800
vn -0.322700 -0.921600 -0.215400
vn -0.396100 -0.828500 -0.395900
vn -0.167200 -0.979600 -0.111700
vn -0.274500 -0.921700 -0.274100
vn -0.311200 -0.828400 -0.465700
vn -0.142400 -0.979600 -0.142000
vn -0.215600 -0.921600 -0.322600
vn -0.214200 -0.828500 -0.517400
vn -0.111900 -0.979600 -0.167000
vn -0.148700 -0.921600 -0.358500
vn -0.109200 -0.828500 -0.549300
vn -0.076900 -0.979600 -0.185700
vn -0.075900 -0.921600 -0.380700
vn 0.000100 -0.828500 -0.560000
vn -0.039400 -0.979600 -0.197100
vn 0.000000 -0.921600 -0.388200
vn 0.109300 -0.828400 -0.549400
vn -0.000300 -0.979600 -0.201000
vn 0.075600 -0.921600 -0.380700
vn 0.214400 -0.828400 -0.517500
vn 0.039200 -0.979600 -0.197200
vn 0.148400 -0.921600 -0.358600
vn 0.311200 -0.828400 -0.465700
vn 0.215600 -0.921600 -0.322800
vn 0.076900 -0.979600 -0.185600
vn 0.396000 -0.828400 -0.396100
vn 0.111700 -0.979600 -0.166900
vn 0.274500 -0.921600 -0.274400
vn 0.465700 -0.828400 -0.311100
vn 0.322600 -0.921600 -0.215500
vn 0.142100 -0.979600 -0.142200
vn 0.517500 -0.828400 -0.214300
vn 0.358500 -0.921600 -0.148500
vn 0.185700 -0.979600 -0.076800
vn 0.549300 -0.828400 -0.109300
vn 0.380600 -0.921600 -0.075700
vn 0.197100 -0.979600 -0.039200
vn 0.560000 -0.828400 0.000000
vn 0.388000 -0.921600 -0.000000
vn 0.201000 -0.979600 0.000300
vn 0.549200 -0.828500 0.109200
vn 0.380500 -0.921600 0.075700
vn 0.197100 -0.979600 0.039800
vn 0.517300 -0.828500 0.214400
vn 0.358500 -0.921600 0.148500
vn 0.185700 -0.979600 0.077200
vn 0.465500 -0.828500 0.311200
vn 0.322500 -0.921600 0.215700
vn 0.167100 -0.979600 0.111500
vn 0.395900 -0.828500 0.395900
vn 0.274300 -0.921700 0.274300
vn 0.142100 -0.979600 0.142000
vn 0.311000 -0.828600 0.465500
vn 0.215500 -0.921700 0.322500
vn 0.111600 -0.979600 0.167300
vn 0.214200 -0.828600 0.517100
vn 0.148400 -0.921700 0.358300
vn 0.076800 -0.979600 0.185800
vn 0.109100 -0.828600 0.549000
vn 0.075600 -0.921700 0.380400
vn 0.039200 -0.979600 0.197000
vn -0.000100 -0.828600 0.559800
vn -0.000000 -0.921800 0.387800
vn -0.109300 -0.828600 0.549000
vn -0.075800 -0.921800 0.380300
vn -0.000100 -0.979600 0.200900
vn -0.000100 -1.000000 -0.000000
vn -0.197300 -0.979500 0.039200
vn 0.167100 -0.979600 -0.111900
vn -0.039300 -0.979600 0.197100
vt 0.000000 0.000000
vt 0.000000 0.000000
vt 0.000000 0.000000
vt 0.000000 0.000000
vt 0.000000 0.000000
vt 0.000000 0.000000
vt 0.000000 0.000000
vt 0.000000 0.000000
vt 0.000000 0.000000
vt 0.000000 0.000000
vt 0.000000 0.000000
vt 0.000000 0.000000
vt 0.000000 0.000000
vt 0.000000 0.000000
vt 0.000000 0.000000
vt 0.000000 0.000000
vt 0.000000 0.000000
vt 0.000000 0.000000
vt 0.000000 0.000000
vt 0.000000 0.000000
vt 0.000000 0.000000
vt 0.000000 0.000000
vt 0.000000 0.000000
vt 0.000000 0.000000
vt 0.000000 0.000000
vt 0.000000 0.000000
vt 0.000000 0.000000
vt 0.000000 0.000000
vt 0.000000 0.000000
vt 0.000000 0.000000
vt 0.000000 0.000000
vt 0.000000 0.000000
vt 0.000000 0.000000
vt 0.000000 0.000000
vt 0.000000 0.000000
vt 0.000000 0.000000
vt 0.000000 0.000000
vt 0.000000 0.000000
vt 0.000000 0.000000
vt 0.000000 0.000000
vt 0.000000 0.000000
vt 0.000000 0.000000
vt 0.000000 0.000000
vt 0.000000 0.000000
vt 0.000000 0.000000
vt 0.000000 0.000000
vt 0.000000 0.000000
vt 0.000000 0.000000
vt 0.000000 0.000000
vt 0.000000 0.000000
vt 0.000000 0.000000
vt 0.000000 0.000000
vt 0.000000 0.000000
vt 0.000000 0.000000
vt 0.000000 0.000000
vt 0.000000 0.000000
vt 0.000000 0.000000
vt 0.000000 0.000000
vt 0.000000 0.000000
vt 0.000000 0.000000
vt 0.000000 0.000000
vt 0.000000 0.000000
vt 0.000000 0.000000
vt 0.000000 0.000000
vt 0.000000 0.000000
vt 0.000000 0.000000
vt 0.000000 0.000000
vt 0.000000 0.000000
vt 0.000000 0.000000
vt 0.000000 0.000000
vt 0.000000 0.000000
vt 0.000000 0.000000
vt 0.000000 0.000000
vt 0.000000 0.000000
vt 0.000000 0.000000
vt 0.000000 0.000000
vt 0.000000 0.000000
vt 0.000000 0.000000
vt 0.000000 0.000000
vt 0.000000 0.000000
vt 0.000000 0.000000
vt 0.000000 0.000000
vt 0.000000 0.000000
vt 0.000000 0.000000
vt 0.000000 0.000000
vt 0.000000 0.000000
vt 0.000000 0.000000
vt 0.000000 0.000000
vt 0.000000 0.000000
vt 0.000000 0.000000
vt 0.000000 0.000000
vt 0.000000 0.000000
vt 0.000000 0.000000
vt 0.000000 0.000000
vt 0.000000 0.000000
vt 0.000000 0.000000
vt 0.000000 0.000000
f 1/1/1 2/2/2 3/3/3
f 4/4/4 1/1/1 5/5/5
f 5/5/5 3/3/3 6/6/6
f 7/7/7 5/5/5 8/8/8
f 8/8/8 6/6/6 9/9/9
f 10/10/10 8/8/8 11/11/11
f 11/11/11 9/9/9 12/12/12
f 13/13/13 11/11/11 14/14/14
f 14/14/14 12/12/12 15/15/15
f 16/16/16 14/14/14 17/17/17
f 17/17/17 15/15/15 18/18/18
f 17/17/17 19/19/19 20/20/20
f 19/19/19 18/18/18 21/21/21
f 20/20/20 19/19/19 22/22/22
f 22/22/22 21/21/21 23/23/23
f 24/24/24 22/22/22 25/25/25
f 25/25/25 23/23/23 26/26/26
f 27/27/27 25/25/25 28/28/28
f 28/28/28 26/26/26 29/29/29
f 30/30/30 28/28/28 31/31/31
f 31/31/31 29/29/29 32/32/32
f 33/33/33 31/31/31 34/34/34
f 34/34/34 32/32/32 35/35/35
f 36/36/36 34/34/34 37/37/37
f 37/37/37 35/35/35 38/38/38
f 39/39/39 37/37/37 40/40/40
f 40/40/40 38/38/38 41/41/41
f 42/42/42 40/40/40 43/43/43
f 43/43/43 41/41/41 44/44/44
f 45/45/45 43/43/43 46/46/46
f 46/46/46 44/44/44 47/47/47
f 48/48/48 46/46/46 49/49/49
f 47/47/47 50/50/50 51/51/51
f 52/52/52 49/49/49 51/51/51
f 51/51/51 50/50/50 53/53/53
f 54/54/54 51/51/51 55/55/55
f 53/53/53 56/56/56 57/57/57
f 58/58/58 55/55/55 57/57/57
f 56/56/56 59/59/59 60/60/60
f 57/57/57 60/60/60 61/61/61
f 59/59/59 62/62/62 63/63/63
f 60/60/60 63/63/63 64/64/64
f 62/62/62 65/65/65 66/66/66
f 63/63/63 66/66/66 67/67/67
f 65/65/65 68/68/68 69/69/69
f 66/66/66 69/69/69 70/70/70
f 68/68/68 71/71/71 72/72/72
f 69/69/69 72/72/72 73/73/73
f 71/71/71 74/74/74 75/75/75
f 72/72/72 75/75/75 76/76/76
f 74/74/74 77/77/77 78/78/78
f 75/75/75 78/78/78 79/79/79
f 77/77/77 80/80/80 81/81/81
f 78/78/78 81/81/81 82/82/82
f 80/80/80 83/83/83 84/84/84
f 81/81/81 84/84/84 85/85/85
f 83/83/83 86/86/86 87/87/87
f 84/84/84 87/87/87 88/88/88
f 87/87/87 86/86/86 89/89/89
f 88/88/88 87/87/87 90/90/90
f 89/89/89 91/91/91 92/92/92
f 93/93/93 90/90/90 92/92/92
f 94/94/94 4/4/4 7/7/7
f 94/94/94 7/7/7 10/10/10
f 94/94/94 10/10/10 13/13/13
f 94/94/94 13/13/13 16/16/16
f 94/94/94 16/16/16 95/95/95
f 94/94/94 95/95/95 20/20/20
f 94/94/94 20/20/20 24/24/24
f 94/94/94 24/24/24 27/27/27
f 94/94/94 27/27/27 30/30/30
f 94/94/94 30/30/30 33/33/33
f 94/94/94 33/33/33 36/36/36
f 94/94/94 36/36/36 39/39/39
f 94/94/94 39/39/39 42/42/42
f 94/94/94 42/42/42 45/45/45
f 94/94/94 45/45/45 48/48/48
f 94/94/94 48/48/48 52/52/52
f 94/94/94 52/52/52 54/54/54
f 94/94/94 54/54/54 58/58/58
f 94/94/94 58/58/58 96/96/96
f 94/94/94 96/96/96 61/61/61
f 94/94/94 61/61/61 64/64/64
f 94/94/94 64/64/64 67/67/67
f 94/94/94 67/67/67 70/70/70
f 94/94/94 70/70/70 73/73/73
f 94/94/94 73/73/73 76/76/76
f 94/94/94 76/76/76 79/79/79
f 94/94/94 79/79/79 82/82/82
f 94/94/94 82/82/82 85/85/85
f 94/94/94 85/85/85 88/88/88
f 94/94/94 88/88/88 93/93/93
f 94/94/94 93/93/93 97/97/97
f 94/94/94 97/97/97 4/4/4
f 91/91/91 2/2/2 1/1/1
f 97/97/97 92/92/92 1/1/1
f 5/5/5 1/1/1 3/3/3
f 7/7/7 4/4/4 5/5/5
f 8/8/8 5/5/5 6/6/6
f 10/10/10 7/7/7 8/8/8
f 11/11/11 8/8/8 9/9/9
f 13/13/13 10/10/10 11/11/11
f 14/14/14 11/11/11 12/12/12
f 16/16/16 13/13/13 14/14/14
f 17/17/17 14/14/14 15/15/15
f 95/95/95 16/16/16 17/17/17
f 19/19/19 17/17/17 18/18/18
f 95/95/95 17/17/17 20/20/20
f 22/22/22 19/19/19 21/21/21
f 24/24/24 20/20/20 22/22/22
f 25/25/25 22/22/22 23/23/23
f 27/27/27 24/24/24 25/25/25
f 28/28/28 25/25/25 26/26/26
f 30/30/30 27/27/27 28/28/28
f 31/31/31 28/28/28 29/29/29
f 33/33/33 30/30/30 31/31/31
f 34/34/34 31/31/31 32/32/32
f 36/36/36 33/33/33 34/34/34
f 37/37/37 34/34/34 35/35/35
f 39/39/39 36/36/36 37/37/37
f 40/40/40 37/37/37 38/38/38
f 42/42/42 39/39/39 40/40/40
f 43/43/43 40/40/40 41/41/41
f 45/45/45 42/42/42 43/43/43
f 46/46/46 43/43/43 44/44/44
f 48/48/48 45/45/45 46/46/46
f 49/49/49 46/46/46 47/47/47
f 52/52/52 48/48/48 49/49/49
f 49/49/49 47/47/47 51/51/51
f 54/54/54 52/52/52 51/51/51
f 55/55/55 51/51/51 53/53/53
f 58/58/58 54/54/54 55/55/55
f 55/55/55 53/53/53 57/57/57
f 96/96/96 58/58/58 57/57/57
f 57/57/57 56/56/56 60/60/60
f 96/96/96 57/57/57 61/61/61
f 60/60/60 59/59/59 63/63/63
f 61/61/61 60/60/60 64/64/64
f 63/63/63 62/62/62 66/66/66
f 64/64/64 63/63/63 67/67/67
f 66/66/66 65/65/65 69/69/69
f 67/67/67 66/66/66 70/70/70
f 69/69/69 68/68/68 72/72/72
f 70/70/70 69/69/69 73/73/73
f 72/72/72 71/71/71 75/75/75
f 73/73/73 72/72/72 76/76/76
f 75/75/75 74/74/74 78/78/78
f 76/76/76 75/75/75 79/79/79
f 78/78/78 77/77/77 81/81/81
f 79/79/79 78/78/78 82/82/82
f 81/81/81 80/80/80 84/84/84
f 82/82/82 81/81/81 85/85/85
f 84/84/84 83/83/83 87/87/87
f 85/85/85 84/84/84 88/88/88
f 90/90/90 87/87/87 89/89/89
f 93/93/93 88/88/88 90/90/90
f 90/90/90 89/89/89 92/92/92
f 97/97/97 93/93/93 92/92/92
f 92/92/92 91/91/91 1/1/1
f 4/4/4 97/97/97 1/1/1
