v -0.320829 4.615049 -1.564361
v -0.322984 4.617000 -1.563469
v -0.322001 4.617000 -1.560229
v -0.338940 4.615049 -1.537256
v -0.338940 4.617000 -1.539588
v -0.342310 4.617000 -1.539920
v -0.352802 4.615049 -1.570721
v -0.355240 4.615049 -1.567750
v -0.353301 4.617000 -1.566455
v -0.320829 4.615049 -1.549358
v -0.319714 4.615049 -1.553035
v -0.322001 4.617000 -1.553490
v -0.342765 4.615049 -1.576086
v -0.346442 4.615049 -1.574970
v -0.345550 4.617000 -1.572816
v -0.349831 4.615049 -1.540560
v -0.348535 4.617000 -1.542499
v -0.351153 4.617000 -1.544647
v -0.328049 4.615049 -1.540560
v -0.325079 4.615049 -1.542998
v -0.326728 4.617000 -1.544647
v -0.331438 4.615049 -1.574970
v -0.335116 4.615049 -1.576086
v -0.335571 4.617000 -1.573799
v -0.357051 4.615049 -1.549358
v -0.354897 4.617000 -1.550250
v -0.355879 4.617000 -1.553490
v -0.322641 4.615049 -1.567750
v -0.325079 4.615049 -1.570721
v -0.326728 4.617000 -1.569072
v -0.358167 4.615049 -1.560684
v -0.355879 4.617000 -1.560229
v -0.354897 4.617000 -1.563469
v -0.319337 4.615049 -1.556859
v -0.319714 4.615049 -1.560684
v -0.342764 4.615049 -1.537633
v -0.345550 4.617000 -1.540903
v -0.351153 4.617000 -1.569072
v -0.348536 4.617000 -1.571220
v -0.322641 4.615049 -1.545969
v -0.322984 4.617000 -1.550250
v -0.338940 4.615049 -1.576463
v -0.342310 4.617000 -1.573799
v -0.355240 4.615049 -1.545968
v -0.352802 4.615049 -1.542998
v -0.329345 4.617000 -1.542499
v -0.332331 4.617000 -1.540903
v -0.328049 4.615049 -1.573159
v -0.332331 4.617000 -1.572816
v -0.358543 4.615049 -1.556859
v -0.358167 4.615049 -1.553035
v -0.324580 4.617000 -1.566455
v -0.335116 4.615049 -1.537633
v -0.335571 4.617000 -1.539920
v -0.357051 4.615049 -1.564361
v -0.321669 4.617000 -1.556859
v -0.346442 4.615049 -1.538748
v -0.349831 4.615049 -1.573159
v -0.324580 4.617000 -1.547264
v -0.338940 4.617000 -1.574131
v -0.331438 4.615049 -1.538749
v -0.353301 4.617000 -1.547264
v -0.329345 4.617000 -1.571220
v -0.356211 4.617000 -1.556859
vn 0.592900 0.766900 -0.245500
vn 0.592900 0.767000 -0.245500
vn 0.629400 0.766900 -0.125200
vn 0.000000 0.766900 0.641700
vn 0.000000 0.766900 0.641700
vn -0.125200 0.766900 0.629400
vn -0.453700 0.766900 -0.453700
vn -0.533600 0.766900 -0.356500
vn -0.533600 0.766900 -0.356500
vn 0.592900 0.766900 0.245600
vn 0.629400 0.766900 0.125200
vn 0.629400 0.766900 0.125200
vn -0.125200 0.766900 -0.629400
vn -0.245600 0.766900 -0.592900
vn -0.245600 0.766900 -0.592900
vn -0.356500 0.766900 0.533600
vn -0.356500 0.766900 0.533600
vn -0.453700 0.766900 0.453800
vn 0.356500 0.766900 0.533600
vn 0.453700 0.766900 0.453800
vn 0.453700 0.766900 0.453700
vn 0.245600 0.766900 -0.592800
vn 0.125200 0.766900 -0.629400
vn 0.125200 0.766800 -0.629500
vn -0.592800 0.766900 0.245600
vn -0.592900 0.766900 0.245600
vn -0.629400 0.766900 0.125200
vn 0.533600 0.766900 -0.356500
vn 0.453700 0.766900 -0.453800
vn 0.453800 0.766900 -0.453800
vn -0.629400 0.766900 -0.125200
vn -0.629400 0.766900 -0.125200
vn -0.592900 0.767000 -0.245500
vn 0.641700 0.766900 0.000000
vn 0.629400 0.766900 -0.125200
vn -0.125200 0.766900 0.629400
vn -0.245600 0.766900 0.592900
vn -0.453700 0.767000 -0.453700
vn -0.356500 0.767000 -0.533500
vn 0.533600 0.766900 0.356500
vn 0.592900 0.766900 0.245500
vn 0.000000 0.767000 -0.641700
vn -0.125200 0.767000 -0.629400
vn -0.533500 0.766900 0.356500
vn -0.453800 0.766900 0.453800
vn 0.356500 0.766900 0.533600
vn 0.245600 0.766900 0.592900
vn 0.356500 0.766900 -0.533500
vn 0.245600 0.766900 -0.592900
vn -0.641700 0.766900 0.000000
vn -0.629400 0.766900 0.125200
vn 0.533600 0.767000 -0.356500
vn 0.125200 0.766900 0.629400
vn 0.125200 0.766900 0.629400
vn -0.592900 0.766900 -0.245500
vn 0.641700 0.766900 0.000000
vn -0.245600 0.766900 0.592900
vn -0.356500 0.766900 -0.533500
vn 0.533600 0.766900 0.356500
vn 0.000000 0.766900 -0.641700
vn 0.245600 0.766900 0.592900
vn -0.533600 0.766900 0.356500
vn 0.356500 0.766900 -0.533600
vn -0.641700 0.766900 0.000100
vt 0.000000 0.000000
vt 0.000000 0.000000
vt 0.000000 0.000000
vt 0.000000 0.000000
vt 0.000000 0.000000
vt 0.000000 0.000000
vt 0.000000 0.000000
vt 0.000000 0.000000
vt 0.000000 0.000000
vt 0.000000 0.000000
vt 0.000000 0.000000
vt 0.000000 0.000000
vt 0.000000 0.000000
vt 0.000000 0.000000
vt 0.000000 0.000000
vt 0.000000 0.000000
vt 0.000000 0.000000
vt 0.000000 0.000000
vt 0.000000 0.000000
vt 0.000000 0.000000
vt 0.000000 0.000000
vt 0.000000 0.000000
vt 0.000000 0.000000
vt 0.000000 0.000000
vt 0.000000 0.000000
vt 0.000000 0.000000
vt 0.000000 0.000000
vt 0.000000 0.000000
vt 0.000000 0.000000
vt 0.000000 0.000000
vt 0.000000 0.000000
vt 0.000000 0.000000
vt 0.000000 0.000000
vt 0.000000 0.000000
vt 0.000000 0.000000
vt 0.000000 0.000000
vt 0.000000 0.000000
vt 0.000000 0.000000
vt 0.000000 0.000000
vt 0.000000 0.000000
vt 0.000000 0.000000
vt 0.000000 0.000000
vt 0.000000 0.000000
vt 0.000000 0.000000
vt 0.000000 0.000000
vt 0.000000 0.000000
vt 0.000000 0.000000
vt 0.000000 0.000000
vt 0.000000 0.000000
vt 0.000000 0.000000
vt 0.000000 0.000000
vt 0.000000 0.000000
vt 0.000000 0.000000
vt 0.000000 0.000000
vt 0.000000 0.000000
vt 0.000000 0.000000
vt 0.000000 0.000000
vt 0.000000 0.000000
vt 0.000000 0.000000
vt 0.000000 0.000000
vt 0.000000 0.000000
vt 0.000000 0.000000
vt 0.000000 0.000000
vt 0.000000 0.000000
f 1/1/1 2/2/2 3/3/3
f 4/4/4 5/5/5 6/6/6
f 7/7/7 8/8/8 9/9/9
f 10/10/10 11/11/11 12/12/12
f 13/13/13 14/14/14 15/15/15
f 16/16/16 17/17/17 18/18/18
f 19/19/19 20/20/20 21/21/21
f 22/22/22 23/23/23 24/24/24
f 25/25/25 26/26/26 27/27/27
f 28/28/28 29/29/29 30/30/30
f 31/31/31 32/32/32 33/33/33
f 34/34/34 35/35/35 3/3/3
f 36/36/36 6/6/6 37/37/37
f 7/7/7 38/38/38 39/39/39
f 40/40/40 10/10/10 41/41/41
f 42/42/42 13/13/13 43/43/43
f 44/44/44 45/45/45 18/18/18
f 19/19/19 46/46/46 47/47/47
f 48/48/48 22/22/22 49/49/49
f 50/50/50 51/51/51 27/27/27
f 28/28/28 52/52/52 2/2/2
f 4/4/4 53/53/53 54/54/54
f 8/8/8 55/55/55 33/33/33
f 34/34/34 56/56/56 12/12/12
f 16/16/16 57/57/57 37/37/37
f 58/58/58 39/39/39 15/15/15
f 40/40/40 59/59/59 21/21/21
f 23/23/23 42/42/42 60/60/60
f 53/53/53 61/61/61 47/47/47
f 44/44/44 62/62/62 26/26/26
f 29/29/29 48/48/48 63/63/63
f 50/50/50 64/64/64 32/32/32
f 35/35/35 1/1/1 3/3/3
f 36/36/36 4/4/4 6/6/6
f 38/38/38 7/7/7 9/9/9
f 41/41/41 10/10/10 12/12/12
f 43/43/43 13/13/13 15/15/15
f 45/45/45 16/16/16 18/18/18
f 46/46/46 19/19/19 21/21/21
f 49/49/49 22/22/22 24/24/24
f 51/51/51 25/25/25 27/27/27
f 52/52/52 28/28/28 30/30/30
f 55/55/55 31/31/31 33/33/33
f 56/56/56 34/34/34 3/3/3
f 57/57/57 36/36/36 37/37/37
f 58/58/58 7/7/7 39/39/39
f 59/59/59 40/40/40 41/41/41
f 60/60/60 42/42/42 43/43/43
f 62/62/62 44/44/44 18/18/18
f 61/61/61 19/19/19 47/47/47
f 63/63/63 48/48/48 49/49/49
f 64/64/64 50/50/50 27/27/27
f 1/1/1 28/28/28 2/2/2
f 5/5/5 4/4/4 54/54/54
f 9/9/9 8/8/8 33/33/33
f 11/11/11 34/34/34 12/12/12
f 17/17/17 16/16/16 37/37/37
f 14/14/14 58/58/58 15/15/15
f 20/20/20 40/40/40 21/21/21
f 24/24/24 23/23/23 60/60/60
f 54/54/54 53/53/53 47/47/47
f 25/25/25 44/44/44 26/26/26
f 30/30/30 29/29/29 63/63/63
f 31/31/31 50/50/50 32/32/32
