v 2.476085 2.622128 -0.861692
v 2.480307 2.633336 -0.870210
v 2.480307 2.633336 -1.347537
v 2.476085 2.535635 -1.439438
v 2.476085 2.535635 -0.778309
v 2.476085 2.622128 -0.861692
v 2.476085 3.397035 -0.778309
v 2.476085 3.397035 -1.439438
v 2.476085 3.310541 -1.356055
v 2.476085 3.310541 -0.861692
v 2.476085 2.622129 -1.356055
v 2.480307 2.633336 -0.870210
v 2.482403 2.633336 -0.870210
v 2.482403 2.633336 -1.347537
v 2.476085 3.310541 -1.356055
v 2.480307 3.299334 -1.347537
v 2.480307 3.299334 -0.870210
v 2.476085 3.310541 -0.861692
v 2.480307 3.299334 -0.870210
v 2.480307 2.633336 -0.870210
v 2.476085 2.622129 -1.356055
v 2.480307 2.633336 -1.347537
v 2.480307 3.299334 -1.347537
v 2.480307 3.299334 -1.347537
v 2.482403 3.299334 -1.347537
v 2.482403 3.299334 -0.870210
v 2.480307 3.299334 -0.870210
v 2.482403 3.299334 -0.870210
v 2.482403 2.633336 -0.870210
v 2.480307 2.633336 -1.347537
v 2.482403 2.633336 -1.347537
v 2.482403 3.299334 -1.347537
v 2.476085 2.622129 -1.356055
v 2.480307 2.633336 -1.347537
v 2.476085 3.310541 -0.861692
v 2.476085 2.622128 -0.861692
v 2.476085 3.310541 -1.356055
v 2.480307 3.299334 -0.870210
v 2.480307 2.633336 -0.870210
v 2.480307 3.299334 -1.347537
vn -0.935800 0.352500 0.000000
vn -0.935800 0.352500 0.000000
vn -0.935800 0.352500 0.000000
vn -1.000000 -0.000000 0.000000
vn -1.000000 -0.000000 0.000000
vn -1.000000 -0.000000 0.000000
vn -1.000000 -0.000000 0.000000
vn -1.000000 -0.000000 0.000000
vn -1.000000 -0.000000 0.000000
vn -1.000000 -0.000000 0.000000
vn -1.000000 -0.000000 0.000000
vn 0.000000 1.000000 0.000000
vn 0.000000 1.000000 0.000000
vn 0.000000 1.000000 0.000000
vn -0.935800 -0.352500 0.000000
vn -0.935800 -0.352500 0.000000
vn -0.935800 -0.352500 0.000000
vn -0.896000 0.000000 -0.444100
vn -0.896000 0.000000 -0.444100
vn -0.896000 0.000000 -0.444100
vn -0.896000 0.000000 0.444100
vn -0.896000 0.000000 0.444100
vn -0.896000 0.000000 0.444100
vn 0.000000 -1.000000 0.000000
vn 0.000000 -1.000000 0.000000
vn 0.000000 -1.000000 0.000000
vn 0.000000 0.000000 -1.000000
vn 0.000000 0.000000 -1.000000
vn 0.000000 0.000000 -1.000000
vn 0.000000 0.000000 1.000000
vn 0.000000 0.000000 1.000000
vn 0.000000 0.000000 1.000000
vn -0.935800 0.352500 0.000000
vn 0.000000 1.000000 0.000000
vn -0.935800 -0.352500 0.000000
vn -0.896000 0.000000 -0.444100
vn -0.896000 0.000000 0.444100
vn 0.000000 -1.000000 0.000000
vn 0.000000 0.000000 -1.000000
vn 0.000000 0.000000 1.000000
vt 0.999903 0.000097
vt 0.999903 0.000097
vt 0.000097 0.000097
vt 0.000097 0.000097
vt 0.999903 0.000097
vt 0.999903 0.000097
vt 0.999903 0.996547
vt 0.000097 0.996547
vt 0.000097 0.996547
vt 0.999903 0.996547
vt 0.000097 0.000097
vt 0.999903 0.000097
vt 0.999903 0.000097
vt 0.000097 0.000097
vt 0.000097 0.996547
vt 0.000097 0.996547
vt 0.999903 0.996547
vt 0.999903 0.996547
vt 0.999903 0.996547
vt 0.999903 0.000097
vt 0.000097 0.000097
vt 0.000097 0.000097
vt 0.000097 0.996547
vt 0.000097 0.996547
vt 0.000097 0.996547
vt 0.999903 0.996547
vt 0.999903 0.996547
vt 0.999903 0.996547
vt 0.999903 0.000097
vt 0.000097 0.000097
vt 0.000097 0.000097
vt 0.000097 0.996547
vt 0.000097 0.000097
vt 0.000097 0.000097
vt 0.999903 0.996547
vt 0.999903 0.000097
vt 0.000097 0.996547
vt 0.999903 0.996547
vt 0.999903 0.000097
vt 0.000097 0.996547
f 1/1/1 2/2/2 3/3/3
f 4/4/4 5/5/5 6/6/6
f 7/7/7 8/8/8 9/9/9
f 5/5/5 7/7/7 10/10/10
f 4/4/4 11/11/11 9/9/9
f 12/12/12 13/13/13 14/14/14
f 15/15/15 16/16/16 17/17/17
f 18/18/18 19/19/19 20/20/20
f 21/21/21 22/22/22 23/23/23
f 24/24/24 25/25/25 26/26/26
f 27/27/27 28/28/28 29/29/29
f 30/30/30 31/31/31 32/32/32
f 33/33/33 1/1/1 3/3/3
f 11/11/11 4/4/4 6/6/6
f 10/10/10 7/7/7 9/9/9
f 6/6/6 5/5/5 10/10/10
f 8/8/8 4/4/4 9/9/9
f 34/34/34 12/12/12 14/14/14
f 35/35/35 15/15/15 17/17/17
f 36/36/36 18/18/18 20/20/20
f 37/37/37 21/21/21 23/23/23
f 38/38/38 24/24/24 26/26/26
f 39/39/39 27/27/27 29/29/29
f 40/40/40 30/30/30 32/32/32
