v -0.093684 0.628625 -4.540238
v -0.093684 0.718088 -4.540238
v -0.076237 0.695416 -4.544633
v -0.070422 0.627399 -4.546099
v -0.076237 0.559995 -4.544633
v -0.093684 0.539162 -4.540238
v -0.117362 0.543213 -4.534640
v -0.117362 0.630650 -4.534640
v -0.117362 0.718088 -4.534640
v -0.166868 0.638698 -4.525253
v -0.166869 0.718088 -4.525253
v -0.141874 0.718088 -4.529568
v -0.141874 0.634275 -4.529568
v -0.141874 0.550461 -4.529568
v -0.166869 0.559309 -4.525253
v -0.217218 0.646993 -4.519656
v -0.217218 0.718088 -4.519656
v -0.191994 0.718088 -4.521929
v -0.191994 0.643122 -4.521929
v -0.191994 0.568156 -4.521929
v -0.217218 0.575898 -4.519656
v -0.267831 0.651970 -4.518446
v -0.267831 0.718088 -4.518446
v -0.242510 0.718088 -4.518493
v -0.242510 0.649758 -4.518493
v -0.242510 0.581428 -4.518493
v -0.267831 0.585851 -4.518446
v -0.318421 0.655407 -4.521664
v -0.318421 0.718088 -4.521664
v -0.293143 0.718088 -4.519523
v -0.293143 0.654181 -4.519523
v -0.293143 0.590275 -4.519523
v -0.318421 0.592727 -4.521664
v -0.343636 0.654661 -4.524808
v -0.368789 0.652929 -4.528831
v -0.368789 0.718088 -4.528831
v -0.343636 0.718088 -4.524808
v -0.343636 0.591234 -4.524808
v -0.368789 0.587770 -4.528831
v -0.393880 0.651197 -4.533607
v -0.418945 0.648952 -4.538945
v -0.418945 0.718088 -4.538945
v -0.393880 0.718088 -4.533607
v -0.393880 0.584306 -4.533607
v -0.418945 0.579815 -4.538945
v -0.444022 0.645680 -4.544659
v -0.469187 0.641896 -4.550448
v -0.469187 0.718088 -4.550448
v -0.444022 0.718088 -4.544659
v -0.444022 0.573273 -4.544659
v -0.469187 0.565705 -4.550448
v -0.494518 0.638112 -4.556014
v -0.520575 0.634872 -4.561132
v -0.520575 0.718088 -4.561132
v -0.494518 0.718088 -4.556014
v -0.494518 0.558136 -4.556014
v -0.520575 0.551657 -4.561132
v -0.547918 0.632722 -4.565578
v -0.576010 0.631115 -4.568902
v -0.576010 0.718088 -4.568902
v -0.547918 0.718088 -4.565578
v -0.547918 0.547355 -4.565578
v -0.576010 0.544142 -4.568902
v -0.604317 0.629509 -4.570647
v -0.629464 0.628274 -4.571364
v -0.629464 0.718088 -4.571364
v -0.604317 0.718088 -4.570647
v -0.604317 0.540930 -4.570647
v -0.629464 0.538460 -4.571364
v -0.648076 0.627782 -4.571603
v -0.663751 0.627659 -4.571603
v -0.663751 0.718088 -4.571603
v -0.648076 0.718088 -4.571603
v -0.648076 0.537476 -4.571603
v -0.663751 0.537230 -4.571603
v -0.680091 0.627530 -4.571603
v -0.696762 0.627465 -4.571603
v -0.696762 0.718088 -4.571603
v -0.680091 0.718088 -4.571603
v -0.680091 0.536973 -4.571603
v -0.696762 0.536842 -4.571603
v -0.729773 0.627659 -4.571603
v -0.729773 0.718088 -4.571603
v -0.713434 0.718088 -4.571603
v -0.713434 0.627530 -4.571603
v -0.713434 0.536973 -4.571603
v -0.729773 0.537230 -4.571603
v -0.764060 0.628274 -4.571363
v -0.764060 0.718088 -4.571363
v -0.745449 0.718088 -4.571603
v -0.745449 0.627782 -4.571603
v -0.745449 0.537476 -4.571603
v -0.764060 0.538460 -4.571363
v -0.817515 0.631115 -4.568901
v -0.817515 0.718088 -4.568901
v -0.789207 0.718088 -4.570646
v -0.789207 0.629509 -4.570646
v -0.789207 0.540930 -4.570646
v -0.817515 0.544142 -4.568901
v -0.872949 0.634872 -4.561131
v -0.872949 0.718088 -4.561131
v -0.845607 0.718088 -4.565578
v -0.845607 0.632722 -4.565578
v -0.845607 0.547355 -4.565578
v -0.872949 0.551657 -4.561131
v -0.924338 0.641896 -4.550447
v -0.924338 0.718088 -4.550447
v -0.899006 0.718088 -4.556013
v -0.899006 0.638112 -4.556013
v -0.899006 0.558136 -4.556013
v -0.924338 0.565704 -4.550447
v -0.974579 0.648952 -4.538944
v -0.974579 0.718088 -4.538944
v -0.949503 0.718088 -4.544658
v -0.949503 0.645680 -4.544658
v -0.949503 0.573273 -4.544658
v -0.974579 0.579815 -4.538944
v -1.024735 0.652929 -4.528830
v -1.024735 0.718088 -4.528830
v -0.999644 0.718088 -4.533605
v -0.999644 0.651197 -4.533605
v -0.999644 0.584306 -4.533605
v -1.024735 0.587770 -4.528830
v -1.075104 0.655407 -4.521661
v -1.075104 0.718088 -4.521661
v -1.049888 0.718088 -4.524806
v -1.049888 0.654661 -4.524806
v -1.049888 0.591234 -4.524806
v -1.075104 0.592727 -4.521661
v -1.100381 0.654181 -4.519521
v -1.125693 0.651970 -4.518444
v -1.125693 0.718088 -4.518444
v -1.100381 0.718088 -4.519521
v -1.100381 0.590275 -4.519521
v -1.125693 0.585851 -4.518444
v -1.151014 0.649758 -4.518490
v -1.176306 0.646993 -4.519653
v -1.176306 0.718088 -4.519653
v -1.151014 0.718088 -4.518490
v -1.151014 0.581427 -4.518490
v -1.176306 0.575898 -4.519653
v -1.201530 0.643122 -4.521926
v -1.226656 0.638698 -4.525250
v -1.226656 0.718088 -4.525250
v -1.201530 0.718088 -4.521926
v -1.201530 0.568156 -4.521926
v -1.226656 0.559309 -4.525250
v -1.251650 0.634275 -4.529565
v -1.276162 0.630650 -4.534637
v -1.276162 0.718088 -4.534637
v -1.251650 0.718088 -4.529565
v -1.251650 0.550461 -4.529565
v -1.276162 0.543213 -4.534637
v -1.299840 0.628625 -4.540235
v -1.323102 0.627399 -4.546095
v -1.317287 0.695416 -4.544630
v -1.299840 0.718088 -4.540235
v -1.299840 0.539162 -4.540235
v -1.317287 0.559995 -4.544630
vn -0.237200 0.000000 -0.971400
vn -0.234300 0.000000 -0.972100
vn -0.244200 0.000000 -0.969700
vn -0.244300 0.000000 -0.969700
vn -0.244300 0.000000 -0.969700
vn -0.234800 0.000000 -0.972000
vn -0.218400 0.000000 -0.975800
vn -0.216400 0.000000 -0.976300
vn -0.216300 0.000000 -0.976300
vn -0.150600 0.000000 -0.988600
vn -0.150600 0.000000 -0.988600
vn -0.186400 0.000000 -0.982500
vn -0.186400 0.000000 -0.982500
vn -0.189600 0.000000 -0.981800
vn -0.154800 0.000000 -0.987900
vn -0.067800 0.000000 -0.997700
vn -0.067900 0.000000 -0.997700
vn -0.110400 0.000000 -0.993900
vn -0.110500 0.000000 -0.993900
vn -0.114600 0.000000 -0.993400
vn -0.071300 0.000000 -0.997400
vn 0.020300 0.000000 -0.999800
vn 0.020300 0.000000 -0.999800
vn -0.023900 0.000000 -0.999700
vn -0.023900 0.000000 -0.999700
vn -0.026600 0.000000 -0.999600
vn 0.017900 0.000000 -0.999800
vn 0.104100 0.000000 -0.994600
vn 0.104100 0.000000 -0.994600
vn 0.063400 0.000000 -0.998000
vn 0.063400 0.000000 -0.998000
vn 0.061700 0.000000 -0.998100
vn 0.103900 0.000000 -0.994600
vn 0.140800 0.000000 -0.990000
vn 0.172500 0.000000 -0.985000
vn 0.172500 0.000000 -0.985000
vn 0.140900 0.000000 -0.990000
vn 0.141900 0.000000 -0.989900
vn 0.173700 0.000000 -0.984800
vn 0.197600 0.000000 -0.980300
vn 0.215200 0.000000 -0.976500
vn 0.215200 0.000000 -0.976500
vn 0.197600 0.000000 -0.980300
vn 0.198700 0.000000 -0.980000
vn 0.216100 0.000000 -0.976300
vn 0.223200 0.000000 -0.974800
vn 0.219400 0.000000 -0.975600
vn 0.219400 0.000000 -0.975600
vn 0.223200 0.000000 -0.974800
vn 0.223300 0.000000 -0.974700
vn 0.218500 0.000000 -0.975800
vn 0.203700 0.000000 -0.979000
vn 0.176600 0.000000 -0.984300
vn 0.176600 0.000000 -0.984300
vn 0.203700 0.000000 -0.979000
vn 0.201800 0.000000 -0.979400
vn 0.174500 0.000000 -0.984600
vn 0.139000 0.000000 -0.990300
vn 0.089500 0.000000 -0.996000
vn 0.089500 0.000000 -0.996000
vn 0.139000 0.000000 -0.990300
vn 0.137200 0.000000 -0.990500
vn 0.087500 0.000000 -0.996200
vn 0.045000 0.000000 -0.999000
vn 0.020700 0.000000 -0.999800
vn 0.020700 0.000000 -0.999800
vn 0.045000 0.000000 -0.999000
vn 0.043900 0.000000 -0.999000
vn 0.020300 0.000000 -0.999800
vn 0.006400 0.000000 -1.000000
vn 0.000000 0.000000 -1.000000
vn 0.000000 0.000000 -1.000000
vn 0.006400 0.000000 -1.000000
vn 0.006300 0.000000 -1.000000
vn 0.000000 0.000000 -1.000000
vn 0.000000 0.000000 -1.000000
vn 0.000000 0.000000 -1.000000
vn 0.000000 0.000000 -1.000000
vn 0.000000 0.000000 -1.000000
vn 0.000000 0.000000 -1.000000
vn 0.000000 0.000000 -1.000000
vn 0.000000 0.000000 -1.000000
vn 0.000000 0.000000 -1.000000
vn 0.000000 0.000000 -1.000000
vn 0.000000 0.000000 -1.000000
vn 0.000000 0.000000 -1.000000
vn 0.000000 0.000000 -1.000000
vn -0.020700 0.000000 -0.999800
vn -0.020700 0.000000 -0.999800
vn -0.006400 0.000000 -1.000000
vn -0.006400 0.000000 -1.000000
vn -0.006300 0.000000 -1.000000
vn -0.020300 0.000000 -0.999800
vn -0.089500 0.000000 -0.996000
vn -0.089500 0.000000 -0.996000
vn -0.045000 0.000000 -0.999000
vn -0.045000 0.000000 -0.999000
vn -0.043900 0.000000 -0.999000
vn -0.087500 0.000000 -0.996200
vn -0.176600 0.000000 -0.984300
vn -0.176700 0.000000 -0.984300
vn -0.139000 0.000000 -0.990300
vn -0.139000 0.000000 -0.990300
vn -0.137200 0.000000 -0.990500
vn -0.174600 0.000000 -0.984600
vn -0.219400 0.000000 -0.975600
vn -0.219400 0.000000 -0.975600
vn -0.203700 0.000000 -0.979000
vn -0.203700 0.000000 -0.979000
vn -0.201800 0.000000 -0.979400
vn -0.218500 0.000000 -0.975800
vn -0.215200 0.000000 -0.976500
vn -0.215200 0.000000 -0.976600
vn -0.223200 0.000000 -0.974800
vn -0.223200 0.000000 -0.974800
vn -0.223300 0.000000 -0.974700
vn -0.216100 0.000000 -0.976300
vn -0.172500 0.000000 -0.985000
vn -0.172500 0.000000 -0.985000
vn -0.197600 0.000000 -0.980300
vn -0.197600 0.000000 -0.980300
vn -0.198700 0.000000 -0.980000
vn -0.173700 0.000000 -0.984800
vn -0.104100 0.000000 -0.994500
vn -0.104100 0.000000 -0.994500
vn -0.140900 0.000000 -0.990000
vn -0.140900 0.000000 -0.990000
vn -0.141900 0.000000 -0.989900
vn -0.103900 0.000000 -0.994600
vn -0.063400 0.000000 -0.998000
vn -0.020300 0.000000 -0.999800
vn -0.020300 0.000000 -0.999800
vn -0.063400 0.000000 -0.998000
vn -0.061700 0.000000 -0.998100
vn -0.017900 0.000000 -0.999800
vn 0.023900 0.000000 -0.999700
vn 0.067800 0.000000 -0.997700
vn 0.067800 0.000000 -0.997700
vn 0.023900 0.000000 -0.999700
vn 0.026600 0.000000 -0.999600
vn 0.071300 0.000000 -0.997400
vn 0.110400 0.000000 -0.993900
vn 0.150600 0.000000 -0.988600
vn 0.150600 0.000000 -0.988600
vn 0.110400 0.000000 -0.993900
vn 0.114600 0.000000 -0.993400
vn 0.154800 0.000000 -0.987900
vn 0.186400 0.000000 -0.982500
vn 0.216300 0.000000 -0.976300
vn 0.216300 0.000000 -0.976300
vn 0.186400 0.000000 -0.982500
vn 0.189600 0.000000 -0.981800
vn 0.218400 0.000000 -0.975800
vn 0.237200 0.000000 -0.971500
vn 0.244200 0.000000 -0.969700
vn 0.244300 0.000000 -0.969700
vn 0.234300 0.000000 -0.972100
vn 0.234800 0.000000 -0.972000
vn 0.244300 0.000000 -0.969700
vt 0.788134 0.907277
vt 0.905060 0.907276
vt 0.875296 0.919779
vt 0.786004 0.923946
vt 0.697778 0.919779
vt 0.671208 0.907277
vt 0.678244 0.890364
vt 0.791652 0.890364
vt 0.905059 0.890363
vt 0.805631 0.855329
vt 0.905058 0.855328
vt 0.905059 0.872964
vt 0.797947 0.872964
vt 0.690835 0.872965
vt 0.706204 0.855329
vt 0.820039 0.820095
vt 0.905057 0.820095
vt 0.905058 0.837707
vt 0.813315 0.837707
vt 0.721573 0.837707
vt 0.735020 0.820095
vt 0.828683 0.784881
vt 0.905055 0.784880
vt 0.905056 0.802488
vt 0.824841 0.802489
vt 0.744626 0.802489
vt 0.752310 0.784881
vt 0.834653 0.749625
vt 0.905053 0.749624
vt 0.905054 0.767262
vt 0.832524 0.767263
vt 0.759994 0.767263
vt 0.764252 0.749625
vt 0.833356 0.731957
vt 0.830346 0.714251
vt 0.905051 0.714250
vt 0.905052 0.731957
vt 0.761660 0.731957
vt 0.755641 0.714251
vt 0.827336 0.696497
vt 0.823435 0.678688
vt 0.905048 0.678688
vt 0.905050 0.696497
vt 0.749623 0.696498
vt 0.741822 0.678689
vt 0.817752 0.660816
vt 0.811178 0.642872
vt 0.905046 0.642872
vt 0.905047 0.660815
vt 0.730458 0.660816
vt 0.717310 0.642873
vt 0.804604 0.624850
vt 0.798976 0.606390
vt 0.905044 0.606390
vt 0.905045 0.624849
vt 0.704163 0.624851
vt 0.692908 0.606391
vt 0.795239 0.587134
vt 0.792448 0.567455
vt 0.905041 0.567454
vt 0.905043 0.587134
vt 0.685435 0.587135
vt 0.679854 0.567456
vt 0.789657 0.547725
vt 0.787511 0.530243
vt 0.905039 0.530242
vt 0.905040 0.547724
vt 0.674273 0.547726
vt 0.669982 0.530244
vt 0.786656 0.517308
vt 0.786441 0.506416
vt 0.905038 0.506415
vt 0.905038 0.517308
vt 0.668273 0.517309
vt 0.667845 0.506417
vt 0.786218 0.495063
vt 0.786103 0.483479
vt 0.905036 0.483478
vt 0.905037 0.495062
vt 0.667398 0.495064
vt 0.667170 0.483480
vt 0.786439 0.460541
vt 0.905034 0.460540
vt 0.905035 0.471894
vt 0.786216 0.471895
vt 0.667398 0.471895
vt 0.667844 0.460542
vt 0.787507 0.436714
vt 0.905033 0.436714
vt 0.905034 0.449648
vt 0.786653 0.449649
vt 0.668272 0.449650
vt 0.669980 0.436715
vt 0.792440 0.399503
vt 0.905031 0.399502
vt 0.905032 0.419232
vt 0.789651 0.419233
vt 0.674269 0.419234
vt 0.679849 0.399504
vt 0.798964 0.360569
vt 0.905029 0.360568
vt 0.905030 0.379824
vt 0.795229 0.379824
vt 0.685429 0.379825
vt 0.692900 0.360570
vt 0.811163 0.324088
vt 0.905027 0.324088
vt 0.905028 0.342109
vt 0.804591 0.342110
vt 0.704154 0.342110
vt 0.717299 0.324089
vt 0.823416 0.288274
vt 0.905025 0.288273
vt 0.905026 0.306145
vt 0.817735 0.306145
vt 0.730445 0.306146
vt 0.741808 0.288274
vt 0.830324 0.252713
vt 0.905023 0.252713
vt 0.905024 0.270465
vt 0.827316 0.270466
vt 0.749607 0.270466
vt 0.755624 0.252714
vt 0.834627 0.217342
vt 0.905022 0.217342
vt 0.905022 0.235008
vt 0.833332 0.235009
vt 0.761641 0.235009
vt 0.764233 0.217343
vt 0.832498 0.199706
vt 0.828655 0.182090
vt 0.905020 0.182090
vt 0.905021 0.199706
vt 0.759974 0.199706
vt 0.752290 0.182090
vt 0.824813 0.164484
vt 0.820011 0.146880
vt 0.905019 0.146879
vt 0.905020 0.164483
vt 0.744607 0.164484
vt 0.735002 0.146880
vt 0.813287 0.129269
vt 0.805604 0.111650
vt 0.905019 0.111650
vt 0.905019 0.129269
vt 0.721555 0.129270
vt 0.706188 0.111650
vt 0.797920 0.094016
vt 0.791625 0.076620
vt 0.905019 0.076619
vt 0.905019 0.094016
vt 0.690821 0.094017
vt 0.678231 0.076620
vt 0.788107 0.059709
vt 0.785977 0.043041
vt 0.875258 0.047208
vt 0.905018 0.059709
vt 0.671195 0.059709
vt 0.697762 0.047208
f 1/1/1 2/2/2 3/3/3
f 1/1/1 4/4/4 5/5/5
f 1/1/1 6/6/6 7/7/7
f 8/8/8 9/9/9 2/2/2
f 10/10/10 11/11/11 12/12/12
f 13/13/13 12/12/12 9/9/9
f 8/8/8 7/7/7 14/14/14
f 13/13/13 14/14/14 15/15/15
f 16/16/16 17/17/17 18/18/18
f 19/19/19 18/18/18 11/11/11
f 10/10/10 15/15/15 20/20/20
f 19/19/19 20/20/20 21/21/21
f 22/22/22 23/23/23 24/24/24
f 25/25/25 24/24/24 17/17/17
f 16/16/16 21/21/21 26/26/26
f 25/25/25 26/26/26 27/27/27
f 28/28/28 29/29/29 30/30/30
f 31/31/31 30/30/30 23/23/23
f 22/22/22 27/27/27 32/32/32
f 31/31/31 32/32/32 33/33/33
f 34/34/34 35/35/35 36/36/36
f 37/37/37 29/29/29 28/28/28
f 34/34/34 28/28/28 33/33/33
f 38/38/38 39/39/39 35/35/35
f 40/40/40 41/41/41 42/42/42
f 43/43/43 36/36/36 35/35/35
f 40/40/40 35/35/35 39/39/39
f 44/44/44 45/45/45 41/41/41
f 46/46/46 47/47/47 48/48/48
f 49/49/49 42/42/42 41/41/41
f 46/46/46 41/41/41 45/45/45
f 50/50/50 51/51/51 47/47/47
f 52/52/52 53/53/53 54/54/54
f 55/55/55 48/48/48 47/47/47
f 52/52/52 47/47/47 51/51/51
f 56/56/56 57/57/57 53/53/53
f 58/58/58 59/59/59 60/60/60
f 61/61/61 54/54/54 53/53/53
f 58/58/58 53/53/53 57/57/57
f 62/62/62 63/63/63 59/59/59
f 64/64/64 65/65/65 66/66/66
f 67/67/67 60/60/60 59/59/59
f 64/64/64 59/59/59 63/63/63
f 68/68/68 69/69/69 65/65/65
f 70/70/70 71/71/71 72/72/72
f 73/73/73 66/66/66 65/65/65
f 70/70/70 65/65/65 69/69/69
f 74/74/74 75/75/75 71/71/71
f 76/76/76 77/77/77 78/78/78
f 79/79/79 72/72/72 71/71/71
f 76/76/76 71/71/71 75/75/75
f 80/80/80 81/81/81 77/77/77
f 82/82/82 83/83/83 84/84/84
f 85/85/85 84/84/84 78/78/78
f 77/77/77 81/81/81 86/86/86
f 85/85/85 86/86/86 87/87/87
f 88/88/88 89/89/89 90/90/90
f 91/91/91 90/90/90 83/83/83
f 82/82/82 87/87/87 92/92/92
f 91/91/91 92/92/92 93/93/93
f 94/94/94 95/95/95 96/96/96
f 97/97/97 96/96/96 89/89/89
f 88/88/88 93/93/93 98/98/98
f 97/97/97 98/98/98 99/99/99
f 100/100/100 101/101/101 102/102/102
f 103/103/103 102/102/102 95/95/95
f 94/94/94 99/99/99 104/104/104
f 103/103/103 104/104/104 105/105/105
f 106/106/106 107/107/107 108/108/108
f 109/109/109 108/108/108 101/101/101
f 100/100/100 105/105/105 110/110/110
f 109/109/109 110/110/110 111/111/111
f 112/112/112 113/113/113 114/114/114
f 115/115/115 114/114/114 107/107/107
f 106/106/106 111/111/111 116/116/116
f 115/115/115 116/116/116 117/117/117
f 118/118/118 119/119/119 120/120/120
f 121/121/121 120/120/120 113/113/113
f 112/112/112 117/117/117 122/122/122
f 121/121/121 122/122/122 123/123/123
f 124/124/124 125/125/125 126/126/126
f 127/127/127 126/126/126 119/119/119
f 118/118/118 123/123/123 128/128/128
f 127/127/127 128/128/128 129/129/129
f 130/130/130 131/131/131 132/132/132
f 133/133/133 125/125/125 124/124/124
f 130/130/130 124/124/124 129/129/129
f 134/134/134 135/135/135 131/131/131
f 136/136/136 137/137/137 138/138/138
f 139/139/139 132/132/132 131/131/131
f 136/136/136 131/131/131 135/135/135
f 140/140/140 141/141/141 137/137/137
f 142/142/142 143/143/143 144/144/144
f 145/145/145 138/138/138 137/137/137
f 142/142/142 137/137/137 141/141/141
f 146/146/146 147/147/147 143/143/143
f 148/148/148 149/149/149 150/150/150
f 151/151/151 144/144/144 143/143/143
f 148/148/148 143/143/143 147/147/147
f 152/152/152 153/153/153 149/149/149
f 154/154/154 155/155/155 156/156/156
f 157/157/157 150/150/150 149/149/149
f 154/154/154 149/149/149 153/153/153
f 154/154/154 158/158/158 159/159/159
f 4/4/4 1/1/1 3/3/3
f 6/6/6 1/1/1 5/5/5
f 8/8/8 1/1/1 7/7/7
f 1/1/1 8/8/8 2/2/2
f 13/13/13 10/10/10 12/12/12
f 8/8/8 13/13/13 9/9/9
f 13/13/13 8/8/8 14/14/14
f 10/10/10 13/13/13 15/15/15
f 19/19/19 16/16/16 18/18/18
f 10/10/10 19/19/19 11/11/11
f 19/19/19 10/10/10 20/20/20
f 16/16/16 19/19/19 21/21/21
f 25/25/25 22/22/22 24/24/24
f 16/16/16 25/25/25 17/17/17
f 25/25/25 16/16/16 26/26/26
f 22/22/22 25/25/25 27/27/27
f 31/31/31 28/28/28 30/30/30
f 22/22/22 31/31/31 23/23/23
f 31/31/31 22/22/22 32/32/32
f 28/28/28 31/31/31 33/33/33
f 37/37/37 34/34/34 36/36/36
f 34/34/34 37/37/37 28/28/28
f 38/38/38 34/34/34 33/33/33
f 34/34/34 38/38/38 35/35/35
f 43/43/43 40/40/40 42/42/42
f 40/40/40 43/43/43 35/35/35
f 44/44/44 40/40/40 39/39/39
f 40/40/40 44/44/44 41/41/41
f 49/49/49 46/46/46 48/48/48
f 46/46/46 49/49/49 41/41/41
f 50/50/50 46/46/46 45/45/45
f 46/46/46 50/50/50 47/47/47
f 55/55/55 52/52/52 54/54/54
f 52/52/52 55/55/55 47/47/47
f 56/56/56 52/52/52 51/51/51
f 52/52/52 56/56/56 53/53/53
f 61/61/61 58/58/58 60/60/60
f 58/58/58 61/61/61 53/53/53
f 62/62/62 58/58/58 57/57/57
f 58/58/58 62/62/62 59/59/59
f 67/67/67 64/64/64 66/66/66
f 64/64/64 67/67/67 59/59/59
f 68/68/68 64/64/64 63/63/63
f 64/64/64 68/68/68 65/65/65
f 73/73/73 70/70/70 72/72/72
f 70/70/70 73/73/73 65/65/65
f 74/74/74 70/70/70 69/69/69
f 70/70/70 74/74/74 71/71/71
f 79/79/79 76/76/76 78/78/78
f 76/76/76 79/79/79 71/71/71
f 80/80/80 76/76/76 75/75/75
f 76/76/76 80/80/80 77/77/77
f 85/85/85 82/82/82 84/84/84
f 77/77/77 85/85/85 78/78/78
f 85/85/85 77/77/77 86/86/86
f 82/82/82 85/85/85 87/87/87
f 91/91/91 88/88/88 90/90/90
f 82/82/82 91/91/91 83/83/83
f 91/91/91 82/82/82 92/92/92
f 88/88/88 91/91/91 93/93/93
f 97/97/97 94/94/94 96/96/96
f 88/88/88 97/97/97 89/89/89
f 97/97/97 88/88/88 98/98/98
f 94/94/94 97/97/97 99/99/99
f 103/103/103 100/100/100 102/102/102
f 94/94/94 103/103/103 95/95/95
f 103/103/103 94/94/94 104/104/104
f 100/100/100 103/103/103 105/105/105
f 109/109/109 106/106/106 108/108/108
f 100/100/100 109/109/109 101/101/101
f 109/109/109 100/100/100 110/110/110
f 106/106/106 109/109/109 111/111/111
f 115/115/115 112/112/112 114/114/114
f 106/106/106 115/115/115 107/107/107
f 115/115/115 106/106/106 116/116/116
f 112/112/112 115/115/115 117/117/117
f 121/121/121 118/118/118 120/120/120
f 112/112/112 121/121/121 113/113/113
f 121/121/121 112/112/112 122/122/122
f 118/118/118 121/121/121 123/123/123
f 127/127/127 124/124/124 126/126/126
f 118/118/118 127/127/127 119/119/119
f 127/127/127 118/118/118 128/128/128
f 124/124/124 127/127/127 129/129/129
f 133/133/133 130/130/130 132/132/132
f 130/130/130 133/133/133 124/124/124
f 134/134/134 130/130/130 129/129/129
f 130/130/130 134/134/134 131/131/131
f 139/139/139 136/136/136 138/138/138
f 136/136/136 139/139/139 131/131/131
f 140/140/140 136/136/136 135/135/135
f 136/136/136 140/140/140 137/137/137
f 145/145/145 142/142/142 144/144/144
f 142/142/142 145/145/145 137/137/137
f 146/146/146 142/142/142 141/141/141
f 142/142/142 146/146/146 143/143/143
f 151/151/151 148/148/148 150/150/150
f 148/148/148 151/151/151 143/143/143
f 152/152/152 148/148/148 147/147/147
f 148/148/148 152/152/152 149/149/149
f 157/157/157 154/154/154 156/156/156
f 154/154/154 157/157/157 149/149/149
f 158/158/158 154/154/154 153/153/153
f 155/155/155 154/154/154 159/159/159
