v -1.657548 4.900342 0.853258
v -1.636648 4.890504 0.853258
v -1.636651 4.890505 -3.175178
v -1.682201 4.903796 0.853258
v -1.657551 4.900342 -3.175178
v -1.733098 4.875782 0.853258
v -1.727753 4.890504 0.853511
v -1.727756 4.890505 -3.175178
v -1.643316 4.841049 0.853258
v -1.634138 4.826326 0.853343
v -1.634141 4.826327 -3.175178
v -1.631306 4.875782 -3.175178
v -1.631303 4.875782 0.853258
v -1.632457 4.858415 0.853258
v -1.706853 4.900342 0.853258
v -1.682204 4.903797 -3.175178
v -1.632461 4.858416 -3.175178
v -1.730263 4.826327 0.853343
v -1.721085 4.841049 0.853511
v -1.721088 4.841050 -3.175178
v -1.733101 4.875782 -3.175178
v -1.731947 4.858416 -3.175178
v -1.731943 4.858415 0.853258
v -1.643319 4.841050 -3.175178
v -1.706856 4.900342 -3.175178
v -1.730266 4.826327 -3.175178
vn 0.285500 0.958300 0.000000
vn 0.738800 0.673900 0.000000
vn 0.738800 0.673900 0.000000
vn 0.000000 1.000000 0.000000
vn 0.285500 0.958300 0.000000
vn -0.989900 0.141500 0.000000
vn -0.738300 0.674500 0.000000
vn -0.738800 0.673900 0.000000
vn 1.000000 0.000300 0.000000
vn 0.961400 0.275200 0.000000
vn 0.848600 0.529000 0.000000
vn 0.990100 0.140400 0.000000
vn 0.990100 0.140400 0.000000
vn 0.951500 -0.307500 0.000000
vn -0.286000 0.958200 0.000000
vn 0.000000 1.000000 0.000000
vn 0.951500 -0.307500 0.000000
vn -0.961000 0.276500 0.000000
vn -1.000000 -0.000100 0.000000
vn -1.000000 -0.000600 0.000000
vn -0.990100 0.140400 0.000000
vn -0.951500 -0.307500 0.000000
vn -0.951200 -0.308400 0.000000
vn 1.000000 -0.000600 0.000000
vn -0.285500 0.958300 0.000000
vn -0.961400 0.275100 0.000000
vt 0.551957 0.961324
vt 0.521240 0.961445
vt 0.521246 0.113912
vt 0.582673 0.961204
vt 0.551962 0.113791
vt 0.674816 0.961017
vt 0.644103 0.961257
vt 0.644106 0.113742
vt 0.429102 0.961188
vt 0.398388 0.961263
vt 0.398391 0.113777
vt 0.490530 0.114034
vt 0.490524 0.961567
vt 0.459813 0.961374
vt 0.613389 0.961083
vt 0.582678 0.113671
vt 0.459819 0.113841
vt 0.766941 0.961231
vt 0.736231 0.961382
vt 0.736230 0.113999
vt 0.674817 0.113619
vt 0.705523 0.113812
vt 0.705522 0.961210
vt 0.429107 0.113655
vt 0.613395 0.113550
vt 0.766939 0.113877
f 1/1/1 2/2/2 3/3/3
f 4/4/4 1/1/1 5/5/5
f 6/6/6 7/7/7 8/8/8
f 9/9/9 10/10/10 11/11/11
f 12/12/12 13/13/13 14/14/14
f 15/15/15 4/4/4 16/16/16
f 17/17/17 14/14/14 9/9/9
f 8/8/8 7/7/7 15/15/15
f 2/2/2 13/13/13 12/12/12
f 18/18/18 19/19/19 20/20/20
f 6/6/6 21/21/21 22/22/22
f 23/23/23 22/22/22 20/20/20
f 5/5/5 1/1/1 3/3/3
f 16/16/16 4/4/4 5/5/5
f 21/21/21 6/6/6 8/8/8
f 24/24/24 9/9/9 11/11/11
f 17/17/17 12/12/12 14/14/14
f 25/25/25 15/15/15 16/16/16
f 24/24/24 17/17/17 9/9/9
f 25/25/25 8/8/8 15/15/15
f 3/3/3 2/2/2 12/12/12
f 26/26/26 18/18/18 20/20/20
f 23/23/23 6/6/6 22/22/22
f 19/19/19 23/23/23 20/20/20
