v -0.720604 1.269741 -3.946286
v -0.740084 1.269741 -3.942412
v -0.730730 1.269741 -3.895384
v -0.711250 1.269741 -3.942412
v -0.715736 1.269741 -3.944810
v -0.704090 1.269741 -3.935252
v -0.707318 1.269741 -3.939184
v -0.700216 1.269741 -3.915772
v -0.701692 1.269741 -3.930766
v -0.699717 1.269741 -3.920835
v -0.700216 1.269741 -3.925898
v -0.711250 1.269741 -3.899258
v -0.701692 1.269741 -3.910904
v -0.707318 1.269741 -3.902486
v -0.704090 1.269741 -3.906418
v -0.720604 1.269741 -3.895384
v -0.715736 1.269741 -3.896860
v -0.725667 1.269741 -3.894885
v -0.740084 1.269741 -3.899258
v -0.735598 1.269741 -3.896860
v -0.747244 1.269741 -3.906418
v -0.744017 1.269741 -3.902486
v -0.751119 1.269741 -3.925898
v -0.749642 1.269741 -3.910904
v -0.751617 1.269741 -3.920835
v -0.751119 1.269741 -3.915772
v -0.749642 1.269741 -3.930766
v -0.744017 1.269741 -3.939185
v -0.747244 1.269741 -3.935252
v -0.730730 1.269741 -3.946286
v -0.735598 1.269741 -3.944810
v -0.725667 1.269741 -3.946785
vn 0.000000 1.000000 0.000000
vn 0.000000 1.000000 0.000000
vn 0.000000 1.000000 0.000000
vn 0.000000 1.000000 0.000000
vn 0.000000 1.000000 0.000000
vn 0.000000 1.000000 0.000000
vn 0.000000 1.000000 0.000000
vn 0.000000 1.000000 0.000000
vn 0.000000 1.000000 0.000000
vn 0.000000 1.000000 0.000000
vn 0.000000 1.000000 0.000000
vn 0.000000 1.000000 0.000000
vn 0.000000 1.000000 0.000000
vn 0.000000 1.000000 0.000000
vn 0.000000 1.000000 0.000000
vn 0.000000 1.000000 0.000000
vn 0.000000 1.000000 0.000000
vn 0.000000 1.000000 0.000000
vn 0.000000 1.000000 0.000000
vn 0.000000 1.000000 0.000000
vn 0.000000 1.000000 0.000000
vn 0.000000 1.000000 0.000000
vn 0.000000 1.000000 0.000000
vn 0.000000 1.000000 0.000000
vn 0.000000 1.000000 0.000000
vn 0.000000 1.000000 0.000000
vn 0.000000 1.000000 0.000000
vn 0.000000 1.000000 0.000000
vn 0.000000 1.000000 0.000000
vn 0.000000 1.000000 0.000000
vn 0.000000 1.000000 0.000200
vn 0.000000 1.000000 0.000000
vt 0.000000 0.000000
vt 0.000000 0.000000
vt 0.000000 0.000000
vt 0.000000 0.000000
vt 0.000000 0.000000
vt 0.000000 0.000000
vt 0.000000 0.000000
vt 0.000000 0.000000
vt 0.000000 0.000000
vt 0.000000 0.000000
vt 0.000000 0.000000
vt 0.000000 0.000000
vt 0.000000 0.000000
vt 0.000000 0.000000
vt 0.000000 0.000000
vt 0.000000 0.000000
vt 0.000000 0.000000
vt 0.000000 0.000000
vt 0.000000 0.000000
vt 0.000000 0.000000
vt 0.000000 0.000000
vt 0.000000 0.000000
vt 0.000000 0.000000
vt 0.000000 0.000000
vt 0.000000 0.000000
vt 0.000000 0.000000
vt 0.000000 0.000000
vt 0.000000 0.000000
vt 0.000000 0.000000
vt 0.000000 0.000000
vt 0.000000 0.000000
vt 0.000000 0.000000
f 1/1/1 2/2/2 3/3/3
f 4/4/4 5/5/5 1/1/1
f 6/6/6 7/7/7 4/4/4
f 8/8/8 9/9/9 6/6/6
f 8/8/8 10/10/10 11/11/11
f 12/12/12 13/13/13 8/8/8
f 12/12/12 14/14/14 15/15/15
f 16/16/16 17/17/17 12/12/12
f 3/3/3 18/18/18 16/16/16
f 19/19/19 20/20/20 3/3/3
f 21/21/21 22/22/22 19/19/19
f 23/23/23 24/24/24 21/21/21
f 23/23/23 25/25/25 26/26/26
f 2/2/2 27/27/27 23/23/23
f 2/2/2 28/28/28 29/29/29
f 30/30/30 31/31/31 2/2/2
f 1/1/1 32/32/32 30/30/30
f 8/8/8 4/4/4 1/1/1
f 8/8/8 11/11/11 9/9/9
f 12/12/12 15/15/15 13/13/13
f 3/3/3 16/16/16 12/12/12
f 23/23/23 19/19/19 3/3/3
f 23/23/23 26/26/26 24/24/24
f 2/2/2 29/29/29 27/27/27
f 1/1/1 30/30/30 2/2/2
f 8/8/8 6/6/6 4/4/4
f 1/1/1 12/12/12 8/8/8
f 23/23/23 21/21/21 19/19/19
f 3/3/3 2/2/2 23/23/23
f 3/3/3 12/12/12 1/1/1
