v -1.334396 0.870317 -5.115730
v -1.334396 0.874797 -5.114990
v -1.338714 0.874797 -5.115849
v -1.338495 0.870317 -5.116546
v -1.342375 0.874797 -5.118295
v -1.341971 0.870317 -5.118868
v -1.344821 0.874797 -5.121955
v -1.344293 0.870317 -5.122344
v -1.345680 0.874797 -5.126274
v -1.345108 0.870317 -5.126443
v -1.344821 0.874797 -5.130592
v -1.344293 0.870317 -5.130543
v -1.342375 0.874797 -5.134253
v -1.341971 0.870317 -5.134018
v -1.338714 0.874797 -5.136699
v -1.338495 0.870317 -5.136341
v -1.334396 0.874797 -5.137558
v -1.330077 0.874797 -5.136699
v -1.330296 0.870317 -5.136341
v -1.326416 0.874797 -5.134253
v -1.326821 0.870317 -5.134018
v -1.323970 0.874797 -5.130592
v -1.324498 0.870317 -5.130543
v -1.323111 0.874797 -5.126274
v -1.323683 0.870317 -5.126443
v -1.323970 0.874797 -5.121955
v -1.324498 0.870317 -5.122344
v -1.326416 0.874797 -5.118295
v -1.326821 0.870317 -5.118868
v -1.330077 0.874797 -5.115849
v -1.330296 0.870317 -5.116546
v -1.334396 0.870317 -5.137156
vn 0.000000 -0.163100 0.986600
vn 0.000000 -0.163100 0.986600
vn -0.376100 -0.160300 0.912600
vn -0.379500 -0.160300 0.911200
vn -0.696600 -0.152600 0.701100
vn -0.701200 -0.152400 0.696400
vn -0.913100 -0.140800 0.382700
vn -0.916300 -0.140500 0.374900
vn -0.991900 -0.126700 0.004500
vn -0.991900 -0.126400 -0.004700
vn -0.919600 -0.112600 -0.376400
vn -0.916300 -0.112300 -0.384300
vn -0.705900 -0.100400 -0.701200
vn -0.701200 -0.100300 -0.705900
vn -0.382700 -0.092300 -0.919200
vn -0.379300 -0.092200 -0.920700
vn 0.000000 -0.089400 -0.996000
vn 0.382700 -0.092300 -0.919200
vn 0.379300 -0.092200 -0.920700
vn 0.705900 -0.100400 -0.701200
vn 0.701200 -0.100300 -0.705900
vn 0.919600 -0.112600 -0.376400
vn 0.916300 -0.112300 -0.384300
vn 0.991900 -0.126700 0.004500
vn 0.991900 -0.126400 -0.004700
vn 0.913100 -0.140800 0.382700
vn 0.916300 -0.140500 0.374900
vn 0.696600 -0.152500 0.701100
vn 0.701200 -0.152400 0.696500
vn 0.376100 -0.160300 0.912600
vn 0.379400 -0.160300 0.911200
vn 0.000000 -0.089400 -0.996000
vt 0.000000 0.000000
vt 0.000000 0.000000
vt 0.000000 0.000000
vt 0.000000 0.000000
vt 0.000000 0.000000
vt 0.000000 0.000000
vt 0.000000 0.000000
vt 0.000000 0.000000
vt 0.000000 0.000000
vt 0.000000 0.000000
vt 0.000000 0.000000
vt 0.000000 0.000000
vt 0.000000 0.000000
vt 0.000000 0.000000
vt 0.000000 0.000000
vt 0.000000 0.000000
vt 0.000000 0.000000
vt 0.000000 0.000000
vt 0.000000 0.000000
vt 0.000000 0.000000
vt 0.000000 0.000000
vt 0.000000 0.000000
vt 0.000000 0.000000
vt 0.000000 0.000000
vt 0.000000 0.000000
vt 0.000000 0.000000
vt 0.000000 0.000000
vt 0.000000 0.000000
vt 0.000000 0.000000
vt 0.000000 0.000000
vt 0.000000 0.000000
vt 0.000000 0.000000
f 1/1/1 2/2/2 3/3/3
f 4/4/4 3/3/3 5/5/5
f 6/6/6 5/5/5 7/7/7
f 8/8/8 7/7/7 9/9/9
f 10/10/10 9/9/9 11/11/11
f 12/12/12 11/11/11 13/13/13
f 14/14/14 13/13/13 15/15/15
f 16/16/16 15/15/15 17/17/17
f 17/17/17 18/18/18 19/19/19
f 18/18/18 20/20/20 21/21/21
f 20/20/20 22/22/22 23/23/23
f 22/22/22 24/24/24 25/25/25
f 24/24/24 26/26/26 27/27/27
f 26/26/26 28/28/28 29/29/29
f 28/28/28 30/30/30 31/31/31
f 30/30/30 2/2/2 1/1/1
f 4/4/4 1/1/1 3/3/3
f 6/6/6 4/4/4 5/5/5
f 8/8/8 6/6/6 7/7/7
f 10/10/10 8/8/8 9/9/9
f 12/12/12 10/10/10 11/11/11
f 14/14/14 12/12/12 13/13/13
f 16/16/16 14/14/14 15/15/15
f 32/32/32 16/16/16 17/17/17
f 32/32/32 17/17/17 19/19/19
f 19/19/19 18/18/18 21/21/21
f 21/21/21 20/20/20 23/23/23
f 23/23/23 22/22/22 25/25/25
f 25/25/25 24/24/24 27/27/27
f 27/27/27 26/26/26 29/29/29
f 29/29/29 28/28/28 31/31/31
f 31/31/31 30/30/30 1/1/1
