v 2.495326 1.782034 -3.152019
v 2.495326 1.789355 -3.159340
v 0.526841 1.789355 -3.159340
v 2.495326 1.792034 -3.169340
v 0.526841 1.792034 -3.169340
v 0.526841 1.792034 -3.209340
v 0.526841 1.782034 -3.152020
v 2.495326 1.792034 -3.209340
vn -0.000000 0.707078 0.707136
vn 0.000000 0.907081 0.420955
vn -0.000000 0.818101 0.575075
vn 0.000000 0.999557 0.029753
vn 0.000000 0.996036 0.088945
vn 0.000000 1.000000 0.000000
vn -0.000000 0.707055 0.707159
vn 0.000000 1.000000 0.000000
vt 0.862796 0.945202
vt 0.847396 0.945298
vt 0.847396 0.255315
vt 0.831996 0.945393
vt 0.831996 0.255410
vt 0.814066 0.255410
vt 0.862796 0.255219
vt 0.814065 0.945393
f 1/1/1 2/2/2 3/3/3
f 2/2/2 4/4/4 5/5/5
f 6/6/6 5/5/5 4/4/4
f 7/7/7 1/1/1 3/3/3
f 3/3/3 2/2/2 5/5/5
f 8/8/8 6/6/6 4/4/4
