v -0.015401 4.188066 -2.220961
v -0.013037 4.196855 -2.232541
v -0.021858 4.186248 -2.234074
v -0.006139 4.181680 -2.230078
v -0.018898 4.184208 -2.236987
v -0.010077 4.194815 -2.235454
v -0.013037 4.196855 -2.232541
v -0.010077 4.194815 -2.235454
v -0.018898 4.184208 -2.236987
v -0.015401 4.188066 -2.220961
v -0.021858 4.186248 -2.234074
v -0.021071 4.175287 -2.225596
v -0.006139 4.181680 -2.230078
v -0.018111 4.173246 -2.228509
v -0.018898 4.184208 -2.236987
v -0.021858 4.186248 -2.234074
v -0.018898 4.184208 -2.236987
v -0.018111 4.173246 -2.228509
v -0.015401 4.188066 -2.220961
v -0.021071 4.175287 -2.225596
v -0.011462 4.174932 -2.215586
v -0.006139 4.181680 -2.230078
v -0.008503 4.172891 -2.218499
v -0.018111 4.173246 -2.228509
v -0.018111 4.173246 -2.228509
v -0.008503 4.172891 -2.218499
v -0.011462 4.174932 -2.215586
v -0.015401 4.188066 -2.220961
v -0.011462 4.174932 -2.215586
v -0.002642 4.185538 -2.214053
v -0.006139 4.181680 -2.230078
v 0.000318 4.183497 -2.216966
v -0.008503 4.172891 -2.218499
v -0.011462 4.174932 -2.215586
v -0.008503 4.172891 -2.218499
v 0.000318 4.183497 -2.216966
v -0.015401 4.188066 -2.220961
v -0.002642 4.185538 -2.214053
v -0.003429 4.196499 -2.222531
v -0.006139 4.181680 -2.230078
v -0.000469 4.194459 -2.225444
v 0.000318 4.183497 -2.216966
v 0.000318 4.183497 -2.216966
v -0.000469 4.194459 -2.225444
v -0.003429 4.196499 -2.222531
v -0.015401 4.188066 -2.220961
v -0.003429 4.196499 -2.222531
v -0.013037 4.196855 -2.232541
v -0.006139 4.181680 -2.230078
v -0.010077 4.194815 -2.235454
v -0.000469 4.194459 -2.225444
v -0.000469 4.194459 -2.225444
v -0.010077 4.194815 -2.235454
v -0.013037 4.196855 -2.232541
v -0.021858 4.186248 -2.234074
v -0.013037 4.196855 -2.232541
v -0.018898 4.184208 -2.236987
v -0.021071 4.175287 -2.225596
v -0.021858 4.186248 -2.234074
v -0.018111 4.173246 -2.228509
v -0.021071 4.175287 -2.225596
v -0.002642 4.185538 -2.214053
v -0.011462 4.174932 -2.215586
v 0.000318 4.183497 -2.216966
v -0.002642 4.185538 -2.214053
v 0.000318 4.183497 -2.216966
v -0.003429 4.196499 -2.222531
v -0.003429 4.196499 -2.222531
v -0.000469 4.194459 -2.225444
v -0.013037 4.196855 -2.232541
vn -0.755800 0.586600 0.290900
vn -0.755800 0.586600 0.290900
vn -0.755800 0.586600 0.290900
vn 0.427900 -0.229500 -0.874200
vn 0.427900 -0.229500 -0.874200
vn 0.427900 -0.229500 -0.874200
vn -0.432300 0.470700 -0.769100
vn -0.432300 0.470700 -0.769100
vn -0.432300 0.470700 -0.769100
vn -0.882600 0.246300 0.400400
vn -0.882600 0.246300 0.400400
vn -0.882600 0.246300 0.400400
vn 0.301100 -0.569800 -0.764700
vn 0.301100 -0.569800 -0.764700
vn 0.301100 -0.569800 -0.764700
vn -0.766600 -0.426400 -0.480200
vn -0.766600 -0.426400 -0.480200
vn -0.766600 -0.426400 -0.480200
vn -0.718600 0.067800 0.692100
vn -0.718600 0.067800 0.692100
vn -0.718600 0.067800 0.692100
vn 0.465100 -0.748300 -0.473000
vn 0.465100 -0.748300 -0.473000
vn 0.465100 -0.748300 -0.473000
vn -0.334200 -0.897200 0.288800
vn -0.334200 -0.897200 0.288800
vn -0.334200 -0.897200 0.288800
vn -0.427900 0.229500 0.874200
vn -0.427900 0.229500 0.874200
vn -0.427900 0.229500 0.874200
vn 0.755800 -0.586600 -0.290900
vn 0.755800 -0.586600 -0.290900
vn 0.755800 -0.586600 -0.290900
vn 0.432400 -0.470700 0.769100
vn 0.432400 -0.470700 0.769100
vn 0.432400 -0.470700 0.769100
vn -0.301100 0.569800 0.764600
vn -0.301100 0.569800 0.764600
vn -0.301100 0.569800 0.764600
vn 0.882600 -0.246300 -0.400400
vn 0.882600 -0.246300 -0.400400
vn 0.882600 -0.246300 -0.400400
vn 0.766600 0.426400 0.480200
vn 0.766600 0.426400 0.480200
vn 0.766600 0.426400 0.480200
vn -0.465100 0.748300 0.473000
vn -0.465100 0.748300 0.473000
vn -0.465100 0.748300 0.473000
vn 0.718600 -0.067800 -0.692100
vn 0.718600 -0.067800 -0.692100
vn 0.718600 -0.067800 -0.692100
vn 0.334200 0.897200 -0.288800
vn 0.334200 0.897200 -0.288800
vn 0.334200 0.897200 -0.288800
vn -0.432500 0.470700 -0.769000
vn -0.432500 0.470700 -0.769000
vn -0.432500 0.470700 -0.769000
vn -0.766600 -0.426400 -0.480100
vn -0.766600 -0.426400 -0.480100
vn -0.766600 -0.426400 -0.480100
vn -0.334200 -0.897200 0.288800
vn 0.432300 -0.470800 0.769100
vn 0.432300 -0.470800 0.769100
vn 0.432300 -0.470800 0.769100
vn 0.766600 0.426400 0.480100
vn 0.766600 0.426400 0.480100
vn 0.766600 0.426400 0.480100
vn 0.334100 0.897200 -0.288800
vn 0.334100 0.897200 -0.288800
vn 0.334100 0.897200 -0.288800
vt 0.000000 0.000000
vt 0.000000 0.000000
vt 0.000000 0.000000
vt 0.000000 0.000000
vt 0.000000 0.000000
vt 0.000000 0.000000
vt 0.000000 0.000000
vt 0.000000 0.000000
vt 0.000000 0.000000
vt 0.000000 0.000000
vt 0.000000 0.000000
vt 0.000000 0.000000
vt 0.000000 0.000000
vt 0.000000 0.000000
vt 0.000000 0.000000
vt 0.000000 0.000000
vt 0.000000 0.000000
vt 0.000000 0.000000
vt 0.000000 0.000000
vt 0.000000 0.000000
vt 0.000000 0.000000
vt 0.000000 0.000000
vt 0.000000 0.000000
vt 0.000000 0.000000
vt 0.000000 0.000000
vt 0.000000 0.000000
vt 0.000000 0.000000
vt 0.000000 0.000000
vt 0.000000 0.000000
vt 0.000000 0.000000
vt 0.000000 0.000000
vt 0.000000 0.000000
vt 0.000000 0.000000
vt 0.000000 0.000000
vt 0.000000 0.000000
vt 0.000000 0.000000
vt 0.000000 0.000000
vt 0.000000 0.000000
vt 0.000000 0.000000
vt 0.000000 0.000000
vt 0.000000 0.000000
vt 0.000000 0.000000
vt 0.000000 0.000000
vt 0.000000 0.000000
vt 0.000000 0.000000
vt 0.000000 0.000000
vt 0.000000 0.000000
vt 0.000000 0.000000
vt 0.000000 0.000000
vt 0.000000 0.000000
vt 0.000000 0.000000
vt 0.000000 0.000000
vt 0.000000 0.000000
vt 0.000000 0.000000
vt 0.000000 0.000000
vt 0.000000 0.000000
vt 0.000000 0.000000
vt 0.000000 0.000000
vt 0.000000 0.000000
vt 0.000000 0.000000
vt 0.000000 0.000000
vt 0.000000 0.000000
vt 0.000000 0.000000
vt 0.000000 0.000000
vt 0.000000 0.000000
vt 0.000000 0.000000
vt 0.000000 0.000000
vt 0.000000 0.000000
vt 0.000000 0.000000
vt 0.000000 0.000000
f 1/1/1 2/2/2 3/3/3
f 4/4/4 5/5/5 6/6/6
f 7/7/7 8/8/8 9/9/9
f 10/10/10 11/11/11 12/12/12
f 13/13/13 14/14/14 15/15/15
f 16/16/16 17/17/17 18/18/18
f 19/19/19 20/20/20 21/21/21
f 22/22/22 23/23/23 24/24/24
f 25/25/25 26/26/26 27/27/27
f 28/28/28 29/29/29 30/30/30
f 31/31/31 32/32/32 33/33/33
f 34/34/34 35/35/35 36/36/36
f 37/37/37 38/38/38 39/39/39
f 40/40/40 41/41/41 42/42/42
f 43/43/43 44/44/44 45/45/45
f 46/46/46 47/47/47 48/48/48
f 49/49/49 50/50/50 51/51/51
f 52/52/52 53/53/53 54/54/54
f 55/55/55 56/56/56 57/57/57
f 58/58/58 59/59/59 60/60/60
f 61/61/61 25/25/25 27/27/27
f 62/62/62 63/63/63 64/64/64
f 65/65/65 66/66/66 67/67/67
f 68/68/68 69/69/69 70/70/70
