v -1.653900 5.841813 -5.135151
v -1.039129 5.841813 -5.135151
v -1.047086 5.852283 -5.138581
v -0.961232 5.761009 -5.135151
v -1.039129 5.841813 -5.135151
v -1.653900 5.841813 -5.135151
v -0.961232 6.731521 -5.135151
v -1.731797 6.731521 -5.135151
v -1.653900 6.650717 -5.135151
v -1.039129 6.650717 -5.135151
v -1.731797 5.761009 -5.135151
v -1.047086 5.852283 -5.138581
v -1.047086 5.852283 -5.140285
v -1.645943 5.852283 -5.140285
v -1.653900 6.650717 -5.135151
v -1.645943 6.640247 -5.138581
v -1.047086 6.640247 -5.138581
v -1.039129 6.650717 -5.135151
v -1.047086 6.640247 -5.138581
v -1.047086 5.852283 -5.138581
v -1.653900 5.841813 -5.135151
v -1.645943 5.852283 -5.138581
v -1.645943 6.640247 -5.138581
v -1.645943 6.640247 -5.138581
v -1.645943 6.640247 -5.140285
v -1.047086 6.640247 -5.140285
v -1.047086 6.640247 -5.138581
v -1.047086 6.640247 -5.140285
v -1.047086 5.852283 -5.140285
v -1.645943 5.852283 -5.138581
v -1.645943 5.852283 -5.140285
v -1.645943 6.640247 -5.140285
v -1.645943 5.852283 -5.138581
v -1.653900 5.841813 -5.135151
v -1.047086 5.852283 -5.138581
v -1.645943 5.852283 -5.138581
v -1.039129 6.650717 -5.135151
v -1.653900 6.650717 -5.135151
v -1.047086 6.640247 -5.138581
v -1.039129 5.841813 -5.135151
v -1.039129 6.650717 -5.135151
v -1.047086 5.852283 -5.138581
v -1.653900 6.650717 -5.135151
v -1.653900 5.841813 -5.135151
v -1.645943 6.640247 -5.138581
v -1.047086 6.640247 -5.138581
v -1.047086 5.852283 -5.138581
v -1.645943 6.640247 -5.138581
vn 0.000000 0.311400 0.950300
vn 0.000000 0.311400 0.950300
vn 0.000000 0.311400 0.950300
vn 0.000000 0.000000 1.000000
vn 0.000000 0.000000 1.000000
vn 0.000000 0.000000 1.000000
vn 0.000000 0.000000 1.000000
vn 0.000000 0.000000 1.000000
vn 0.000000 0.000000 1.000000
vn 0.000000 0.000000 1.000000
vn 0.000000 0.000000 1.000000
vn 0.000000 1.000000 0.000000
vn 0.000000 1.000000 0.000000
vn 0.000000 1.000000 0.000000
vn 0.000000 -0.311400 0.950300
vn 0.000000 -0.311400 0.950300
vn 0.000000 -0.311400 0.950300
vn -0.395800 0.000000 0.918300
vn -0.395800 0.000000 0.918300
vn -0.395800 0.000000 0.918300
vn 0.395800 0.000000 0.918300
vn 0.395800 0.000000 0.918300
vn 0.395800 0.000000 0.918300
vn 0.000000 -1.000000 0.000000
vn 0.000000 -1.000000 0.000000
vn 0.000000 -1.000000 0.000000
vn -1.000000 0.000000 0.000000
vn -1.000000 0.000000 0.000000
vn -1.000000 0.000000 0.000000
vn 1.000000 0.000000 0.000000
vn 1.000000 0.000000 0.000000
vn 1.000000 0.000000 0.000000
vn 0.000000 0.311300 0.950300
vn 0.000000 0.311300 0.950300
vn 0.000000 0.311300 0.950300
vn 0.000000 1.000000 0.000000
vn 0.000000 -0.311300 0.950300
vn 0.000000 -0.311300 0.950300
vn 0.000000 -0.311300 0.950300
vn -0.395900 0.000000 0.918300
vn -0.395900 0.000000 0.918300
vn -0.395900 0.000000 0.918300
vn 0.395900 0.000000 0.918300
vn 0.395900 0.000000 0.918300
vn 0.395900 0.000000 0.918300
vn 0.000000 -1.000000 0.000000
vn -1.000000 0.000000 0.000000
vn 1.000000 0.000000 0.000000
vt 0.000097 0.000097
vt 0.999903 0.000097
vt 0.999903 0.000097
vt 0.999903 0.000097
vt 0.999903 0.000097
vt 0.000097 0.000097
vt 0.999903 0.996547
vt 0.000097 0.996547
vt 0.000097 0.996547
vt 0.999903 0.996547
vt 0.000097 0.000097
vt 0.999903 0.000097
vt 0.999903 0.000097
vt 0.000097 0.000097
vt 0.000097 0.996547
vt 0.000097 0.996547
vt 0.999903 0.996547
vt 0.999903 0.996547
vt 0.999903 0.996547
vt 0.999903 0.000097
vt 0.000097 0.000097
vt 0.000097 0.000097
vt 0.000097 0.996547
vt 0.000097 0.996547
vt 0.000097 0.996547
vt 0.999903 0.996547
vt 0.999903 0.996547
vt 0.999903 0.996547
vt 0.999903 0.000097
vt 0.000097 0.000097
vt 0.000097 0.000097
vt 0.000097 0.996547
vt 0.000097 0.000097
vt 0.000097 0.000097
vt 0.999903 0.000097
vt 0.000097 0.000097
vt 0.999903 0.996547
vt 0.000097 0.996547
vt 0.999903 0.996547
vt 0.999903 0.000097
vt 0.999903 0.996547
vt 0.999903 0.000097
vt 0.000097 0.996547
vt 0.000097 0.000097
vt 0.000097 0.996547
vt 0.999903 0.996547
vt 0.999903 0.000097
vt 0.000097 0.996547
f 1/1/1 2/2/2 3/3/3
f 4/4/4 5/5/5 6/6/6
f 7/7/7 8/8/8 9/9/9
f 7/7/7 10/10/10 5/5/5
f 11/11/11 6/6/6 9/9/9
f 12/12/12 13/13/13 14/14/14
f 15/15/15 16/16/16 17/17/17
f 18/18/18 19/19/19 20/20/20
f 21/21/21 22/22/22 23/23/23
f 24/24/24 25/25/25 26/26/26
f 27/27/27 28/28/28 29/29/29
f 30/30/30 31/31/31 32/32/32
f 33/33/33 34/34/34 35/35/35
f 11/11/11 4/4/4 6/6/6
f 10/10/10 7/7/7 9/9/9
f 4/4/4 7/7/7 5/5/5
f 8/8/8 11/11/11 9/9/9
f 36/36/36 12/12/12 14/14/14
f 37/37/37 38/38/38 39/39/39
f 40/40/40 41/41/41 42/42/42
f 43/43/43 44/44/44 45/45/45
f 46/46/46 24/24/24 26/26/26
f 47/47/47 27/27/27 29/29/29
f 48/48/48 30/30/30 32/32/32
