v 2.495326 0.274070 -1.005897
v 2.495326 0.319871 -1.005897
v 2.495326 0.294070 -0.985896
v 2.495326 0.274070 -1.028851
v 2.495326 0.284070 -0.988576
v 2.495326 0.276750 -0.995897
v 2.495326 0.299871 -0.985896
v 2.495326 0.319871 -1.005897
v 2.495326 0.317191 -0.995897
v 2.495326 0.309871 -0.988576
v 2.495326 0.319871 -1.028851
v 2.495326 0.309871 -0.988576
vn 1.000000 0.000000 0.000000
vn 1.000000 0.000000 0.000000
vn 1.000000 0.000000 0.000000
vn 1.000000 0.000000 0.000000
vn 1.000000 0.000000 0.000000
vn 1.000000 0.000000 0.000000
vn 1.000000 0.000000 0.000000
vn 1.000000 -0.000100 0.000000
vn 1.000000 -0.000100 0.000000
vn 1.000000 -0.000100 0.000000
vn 1.000000 0.000000 0.000000
vn 1.000000 0.000000 0.000000
vt 0.000000 0.000000
vt 0.394982 0.018646
vt 0.322769 0.015237
vt 0.000000 0.000000
vt 0.552798 0.025583
vt 0.502063 0.023701
vt 0.416384 0.019657
vt 0.394982 0.018646
vt 0.539185 0.025454
vt 0.547212 0.025833
vt 0.000000 0.000000
vt 0.547212 0.025833
f 1/1/1 2/2/2 3/3/3
f 2/2/2 1/1/1 4/4/4
f 3/3/3 5/5/5 6/6/6
f 2/2/2 7/7/7 3/3/3
f 8/8/8 9/9/9 10/10/10
f 4/4/4 11/11/11 2/2/2
f 3/3/3 6/6/6 1/1/1
f 2/2/2 12/12/12 7/7/7
