v 0.820953 1.995285 -5.060963
v -1.991337 3.845164 -5.060962
v -1.991337 3.423385 -5.060962
v 2.386958 1.573529 -5.060963
v 2.386958 1.995308 -5.060963
v 0.820953 1.995285 -5.060963
v -2.011337 3.879939 -5.080962
v 0.820953 2.016905 -5.080963
v 0.820953 2.016905 -5.118393
v 2.386958 1.995308 -3.402544
v 2.386958 1.995308 -5.060963
v 2.386958 1.573529 -5.060963
v 2.386958 2.016927 -5.080962
v 2.406958 2.016927 -5.060963
v 2.445547 2.016927 -5.117235
v 2.386958 2.016927 -5.117235
v 0.820953 2.016905 -5.118393
v 0.820953 2.016905 -5.080963
v 2.406958 0.279948 -0.829825
v 2.445547 0.279948 -0.829825
v 2.445547 2.016927 -3.402544
v 2.406958 -0.163450 -0.829825
v 2.445547 -0.163450 -0.829825
v 2.445547 0.279948 -0.829825
v 2.445547 2.016927 -3.402544
v 2.445547 2.016927 -5.060963
v 2.386958 0.271832 -0.849825
v 2.386958 1.995308 -3.402544
v 2.386958 1.573529 -3.402544
v 2.386958 2.016927 -5.080962
v 2.386958 1.995308 -5.060963
v 2.406958 2.016927 -5.060963
v 0.820953 2.016905 -5.080963
v -2.011337 3.879939 -5.080962
v -1.991337 3.845164 -5.060962
v -1.991337 3.845164 -5.060962
v -2.011337 3.879939 -5.080962
v -2.011337 3.436541 -5.080962
v 2.386958 -0.149947 -0.849825
v 2.406958 -0.163450 -0.829825
v 2.406958 0.279948 -0.829825
v 2.406958 0.279948 -0.829825
v 2.406958 2.016927 -3.402544
v 2.386958 1.995308 -3.402544
v 0.820953 2.016905 -5.080963
v 0.820953 1.995285 -5.060963
v 2.386958 1.995308 -5.060963
v 2.406958 2.016927 -5.060963
v 2.386958 1.995308 -5.060963
v 2.386958 1.995308 -3.402544
v -2.011337 3.879939 -5.080962
v -2.011337 3.879939 -5.119552
v -2.011337 3.436541 -5.119552
v 0.820953 1.573507 -5.060963
v 0.820953 1.573507 -5.060963
v -2.011337 3.879939 -5.119552
v 2.386958 1.573529 -3.402544
v 2.386958 2.016927 -5.117235
v 2.386958 2.016927 -5.080962
v 2.406958 2.016927 -3.402544
v 2.406958 0.279948 -0.829825
v 2.406958 2.016927 -3.402544
v 2.386958 -0.149947 -0.849825
v 0.820953 1.995285 -5.060963
v 0.820953 2.016905 -5.080963
v -1.991337 3.845164 -5.060962
v -1.991337 3.423385 -5.060962
v 2.386958 0.271832 -0.849825
v 2.386958 0.271832 -0.849825
v 2.386958 2.016927 -5.080962
v 2.406958 2.016927 -3.402544
v -2.011337 3.436541 -5.080962
vn 0.000000 0.000000 1.000000
vn 0.000000 0.000000 1.000000
vn 0.000000 0.000000 1.000000
vn 0.000000 0.000000 1.000000
vn 0.000000 0.000000 1.000000
vn 0.000000 0.000000 1.000000
vn 0.549600 0.835500 0.000000
vn 0.549600 0.835500 0.000000
vn 0.549600 0.835500 0.000000
vn -1.000000 0.000000 0.000000
vn -1.000000 0.000000 0.000000
vn -1.000000 0.000000 0.000000
vn 0.000000 1.000000 0.000000
vn 0.000000 1.000000 0.000000
vn 0.000000 1.000000 0.000000
vn 0.000000 1.000000 0.000000
vn 0.000000 1.000000 0.000000
vn 0.000000 1.000000 0.000000
vn 0.000000 0.828800 0.559600
vn 0.000000 0.828800 0.559600
vn 0.000000 0.828800 0.559600
vn 0.000000 0.000000 1.000000
vn 0.000000 0.000000 1.000000
vn 0.000000 0.000000 1.000000
vn 0.000000 1.000000 0.000000
vn 0.000000 1.000000 0.000000
vn -1.000000 0.000000 0.000000
vn -1.000000 0.000000 0.000000
vn -1.000000 0.000000 0.000000
vn -0.591700 0.547400 0.591800
vn -0.591700 0.547400 0.591800
vn -0.591700 0.547400 0.591800
vn 0.407800 0.620000 0.670200
vn 0.407800 0.620000 0.670200
vn 0.407800 0.620000 0.670200
vn -0.707100 0.000000 0.707100
vn -0.707100 0.000000 0.707100
vn -0.707100 0.000000 0.707100
vn -0.707100 0.000000 0.707100
vn -0.707100 0.000000 0.707100
vn -0.707100 0.000000 0.707100
vn -0.667300 0.617300 0.416800
vn -0.667300 0.617300 0.416800
vn -0.667300 0.617300 0.416800
vn -0.000000 0.679100 0.734100
vn -0.000000 0.679100 0.734100
vn -0.000000 0.679100 0.734100
vn -0.734100 0.679100 0.000000
vn -0.734100 0.679100 0.000000
vn -0.734100 0.679100 0.000000
vn -1.000000 0.000000 0.000000
vn -1.000000 0.000000 0.000000
vn -1.000000 0.000000 0.000000
vn 0.000000 0.000000 1.000000
vn 0.000000 0.000000 1.000000
vn 0.549600 0.835500 0.000000
vn -1.000000 0.000000 0.000000
vn 0.000000 1.000000 0.000000
vn 0.000000 1.000000 0.000000
vn 0.000000 0.828800 0.559600
vn 0.000000 0.000000 1.000000
vn 0.000000 1.000000 0.000000
vn -1.000000 0.000000 0.000000
vn 0.407900 0.620000 0.670200
vn 0.407900 0.620000 0.670200
vn 0.407900 0.620000 0.670200
vn -0.707100 0.000000 0.707100
vn -0.707100 0.000000 0.707100
vn -0.667300 0.617300 0.416800
vn -0.000000 0.679100 0.734100
vn -0.734100 0.679100 0.000000
vn -1.000000 0.000000 0.000000
vt 0.427940 0.873429
vt 0.426082 0.095852
vt 0.765172 0.090683
vt 0.807611 0.935480
vt 0.416499 0.935489
vt 0.416482 0.051323
vt 0.395715 0.086713
vt 0.389553 0.869501
vt 0.350060 0.869434
vt 0.178515 0.935493
vt 0.178515 0.493403
vt 0.833997 0.493403
vt 0.144916 0.336280
vt 0.120716 0.493403
vt 0.074024 0.051313
vt 0.355820 0.935490
vt 0.354966 0.051324
vt 0.381994 0.051324
vt 0.637619 0.136574
vt 0.669466 0.136574
vt 0.669466 0.942930
vt 0.777271 0.942929
vt 0.777271 0.942929
vt 0.387768 0.865065
vt 0.074019 0.935493
vt 0.074021 0.493403
vt 0.880162 0.098458
vt 0.880159 0.988309
vt 0.088121 0.905931
vt 0.382011 0.935490
vt 0.396451 0.935490
vt 0.396451 0.946782
vt 0.389553 0.869501
vt 0.395715 0.086713
vt 0.426082 0.095852
vt 0.426082 0.095852
vt 0.395715 0.086713
vt 0.763741 0.077945
vt 0.088123 0.016080
vt 0.088123 0.009109
vt 0.920759 0.095708
vt 0.637619 0.136574
vt 0.637618 0.942930
vt 0.621111 0.939787
vt 0.381994 0.051324
vt 0.416482 0.051323
vt 0.416499 0.935489
vt 0.120716 0.493403
vt 0.178515 0.493403
vt 0.178515 0.935493
vt 0.395715 0.086713
vt 0.370685 0.079256
vt 0.760981 0.065150
vt 0.765172 0.949367
vt 0.807595 0.051314
vt 0.370685 0.079256
vt 0.833997 0.935493
vt 0.144916 0.051313
vt 0.382011 0.935490
vt 0.637618 0.942930
vt 0.387768 0.865065
vt 0.120715 0.935493
vt 0.088123 0.016080
vt 0.427940 0.873429
vt 0.389553 0.869501
vt 0.426082 0.095852
vt 0.765172 0.090683
vt 0.880162 0.098458
vt 0.621113 0.139700
vt 0.382011 0.935490
vt 0.120715 0.935493
vt 0.763741 0.077945
f 1/1/1 2/2/2 3/3/3
f 4/4/4 5/5/5 6/6/6
f 7/7/7 8/8/8 9/9/9
f 10/10/10 11/11/11 12/12/12
f 13/13/13 14/14/14 15/15/15
f 16/16/16 17/17/17 18/18/18
f 19/19/19 20/20/20 21/21/21
f 22/22/22 23/23/23 24/24/24
f 25/25/25 26/26/26 14/14/14
f 27/27/27 28/28/28 29/29/29
f 30/30/30 31/31/31 32/32/32
f 33/33/33 34/34/34 35/35/35
f 36/36/36 37/37/37 38/38/38
f 39/39/39 40/40/40 41/41/41
f 42/42/42 43/43/43 44/44/44
f 45/45/45 46/46/46 47/47/47
f 48/48/48 49/49/49 50/50/50
f 51/51/51 52/52/52 53/53/53
f 54/54/54 1/1/1 3/3/3
f 55/55/55 4/4/4 6/6/6
f 56/56/56 7/7/7 9/9/9
f 57/57/57 10/10/10 12/12/12
f 15/15/15 58/58/58 13/13/13
f 14/14/14 26/26/26 15/15/15
f 59/59/59 16/16/16 18/18/18
f 60/60/60 19/19/19 21/21/21
f 61/61/61 22/22/22 24/24/24
f 62/62/62 25/25/25 14/14/14
f 63/63/63 27/27/27 29/29/29
f 64/64/64 65/65/65 66/66/66
f 67/67/67 36/36/36 38/38/38
f 68/68/68 39/39/39 41/41/41
f 69/69/69 42/42/42 44/44/44
f 70/70/70 45/45/45 47/47/47
f 71/71/71 48/48/48 50/50/50
f 72/72/72 51/51/51 53/53/53
