v 0.491841 0.860277 -1.866047
v 0.491841 0.860277 -2.372144
v 0.526841 0.860277 -2.337144
v 0.526841 0.860277 -1.901047
v 2.495326 0.860277 -1.901047
v 2.495326 0.860277 -1.866047
v 0.526841 0.860277 -2.337144
v 0.491841 0.860277 -2.372144
v 0.526841 0.860277 -2.372144
v 0.491841 0.860277 -1.866047
v 2.495326 0.863627 -1.853547
v 0.479341 0.863627 -1.853547
v 2.495326 0.872777 -1.844396
v 0.470190 0.872777 -2.393795
v 0.479341 0.863627 -2.384644
v 0.479341 0.863627 -1.853547
v 0.479341 0.863627 -2.384644
v 0.526841 0.863627 -2.384644
v 0.470190 0.872777 -2.393795
v 0.526841 0.872777 -2.393795
v 0.526841 0.860277 -1.901047
v 0.526841 0.860277 -2.337144
v 0.470190 0.872777 -1.844396
v 0.470190 0.872777 -1.844396
vn -0.098400 -0.990200 0.098400
vn -0.098400 -0.990200 -0.098400
vn 0.000000 -0.894400 0.447200
vn 0.000000 -1.000000 0.000000
vn 0.000000 -1.000000 0.000000
vn 0.000000 -0.991400 0.130500
vn 0.000000 -0.894400 0.447200
vn -0.098400 -0.990200 -0.098400
vn 0.000000 -0.991500 -0.130300
vn -0.098400 -0.990200 0.098400
vn 0.000000 -0.866000 0.500000
vn -0.333200 -0.882000 0.333200
vn 0.000000 -0.707100 0.707100
vn -0.707100 -0.707100 0.000000
vn -0.333200 -0.882000 -0.333200
vn -0.333200 -0.882000 0.333200
vn -0.333200 -0.882000 -0.333200
vn 0.000000 -0.866000 -0.500000
vn 0.000000 -0.707100 -0.707100
vn 0.000000 -0.707100 -0.707100
vn 0.000000 -1.000000 0.000000
vn 0.000000 0.000000 1.000000
vn 0.000000 -0.707100 0.707100
vn -0.707100 -0.707100 0.000000
vt 0.785325 0.896557
vt 0.785326 0.092067
vt 0.883261 0.147703
vt 0.799469 0.110211
vt 0.801185 0.966529
vt 0.775167 0.966123
vt 0.255332 0.575937
vt 0.366618 0.488915
vt 0.366618 0.575937
vt 0.773420 0.094581
vt 0.749176 0.965550
vt 0.747416 0.088631
vt 0.723024 0.964973
vt 0.712906 0.057652
vt 0.749117 0.072197
vt 0.749119 0.916425
vt 0.407765 0.457835
vt 0.407765 0.575937
vt 0.448912 0.435083
vt 0.448912 0.575937
vt 0.883259 0.840922
vt 0.255331 0.577456
vt 0.721255 0.084119
vt 0.712909 0.930971
f 1/1/1 2/2/2 3/3/3
f 4/4/4 5/5/5 6/6/6
f 7/7/7 8/8/8 9/9/9
f 10/10/10 6/6/6 11/11/11
f 12/12/12 11/11/11 13/13/13
f 14/14/14 15/15/15 16/16/16
f 15/15/15 2/2/2 1/1/1
f 8/8/8 17/17/17 18/18/18
f 17/17/17 19/19/19 20/20/20
f 21/21/21 1/1/1 3/3/3
f 10/10/10 4/4/4 6/6/6
f 22/22/22 7/7/7 9/9/9
f 12/12/12 10/10/10 11/11/11
f 23/23/23 12/12/12 13/13/13
f 24/24/24 14/14/14 16/16/16
f 16/16/16 15/15/15 1/1/1
f 9/9/9 8/8/8 18/18/18
f 18/18/18 17/17/17 20/20/20
