v -0.360560 4.385015 -1.634844
v -0.350398 4.398927 -1.610312
v -0.350060 4.396337 -1.608983
v -0.360222 4.382425 -1.633515
v -0.350098 4.393846 -1.607555
v -0.360259 4.379934 -1.632087
v -0.350509 4.391551 -1.606083
v -0.360671 4.377639 -1.630615
v -0.351279 4.389539 -1.604623
v -0.352378 4.387888 -1.603232
v -0.362539 4.373976 -1.627764
v -0.353762 4.386661 -1.601963
v -0.363924 4.372749 -1.626494
v -0.355381 4.385905 -1.600864
v -0.357170 4.385650 -1.599978
v -0.367331 4.371738 -1.624510
v -0.359061 4.385905 -1.599339
v -0.360982 4.386661 -1.598972
v -0.371144 4.372749 -1.623503
v -0.362859 4.387888 -1.598890
v -0.373021 4.373976 -1.623422
v -0.364620 4.389539 -1.599097
v -0.374781 4.375627 -1.623629
v -0.366197 4.391551 -1.599585
v -0.367529 4.393846 -1.600335
v -0.377690 4.379934 -1.624867
v -0.368565 4.396337 -1.601318
v -0.378726 4.382425 -1.625850
v -0.369265 4.398927 -1.602497
v -0.369603 4.401517 -1.603826
v -0.379765 4.387605 -1.628357
v -0.369566 4.404007 -1.605254
v -0.379727 4.390096 -1.629785
v -0.369154 4.406302 -1.606726
v -0.368384 4.408314 -1.608186
v -0.378546 4.394403 -1.632717
v -0.367286 4.409966 -1.609577
v -0.377447 4.396054 -1.634109
v -0.365901 4.411192 -1.610846
v -0.376062 4.397281 -1.635378
v -0.364283 4.411948 -1.611945
v -0.374444 4.398036 -1.636477
v -0.362494 4.412203 -1.612831
v -0.360602 4.411948 -1.613470
v -0.370763 4.398036 -1.638001
v -0.358681 4.411192 -1.613837
v -0.368842 4.397281 -1.638369
v -0.356804 4.409966 -1.613919
v -0.366965 4.396054 -1.638450
v -0.355044 4.408314 -1.613712
v -0.353467 4.406302 -1.613224
v -0.363628 4.392391 -1.637755
v -0.352135 4.404007 -1.612474
v -0.351099 4.401517 -1.611491
v -0.361260 4.387605 -1.636022
v -0.361440 4.375627 -1.629155
v -0.365542 4.371994 -1.625396
v -0.369223 4.371994 -1.623871
v -0.376358 4.377639 -1.624117
v -0.379427 4.385015 -1.627029
v -0.379316 4.392391 -1.631257
v -0.372655 4.398291 -1.637362
v -0.365205 4.394403 -1.638243
v -0.362296 4.390096 -1.637005
vn 0.923900 0.000000 -0.382700
vn 0.923900 0.000000 -0.382700
vn 0.939400 -0.119500 -0.321300
vn 0.939400 -0.119500 -0.321300
vn 0.937300 -0.241800 -0.251100
vn 0.937300 -0.241800 -0.251000
vn 0.913900 -0.368800 -0.169400
vn 0.913900 -0.368800 -0.169300
vn 0.862300 -0.501100 -0.072900
vn 0.771500 -0.634900 0.040600
vn 0.771500 -0.634900 0.040600
vn 0.628800 -0.758700 0.169800
vn 0.628800 -0.758800 0.169800
vn 0.427100 -0.850900 0.305700
vn 0.177600 -0.885800 0.428800
vn 0.177600 -0.885800 0.428700
vn -0.085900 -0.850900 0.518200
vn -0.324600 -0.758700 0.564700
vn -0.324500 -0.758800 0.564700
vn -0.516900 -0.634900 0.574100
vn -0.516900 -0.634900 0.574100
vn -0.661300 -0.501100 0.558200
vn -0.661300 -0.501100 0.558100
vn -0.766000 -0.368800 0.526500
vn -0.840300 -0.241800 0.485200
vn -0.840400 -0.241800 0.485100
vn -0.891400 -0.119500 0.437100
vn -0.891500 -0.119500 0.437000
vn -0.923900 0.000000 0.382700
vn -0.939400 0.119500 0.321300
vn -0.939400 0.119500 0.321400
vn -0.937300 0.241800 0.251000
vn -0.937300 0.241800 0.251100
vn -0.913900 0.368800 0.169300
vn -0.862300 0.501100 0.073000
vn -0.862300 0.501100 0.073000
vn -0.771500 0.634900 -0.040500
vn -0.771500 0.634900 -0.040400
vn -0.628800 0.758800 -0.169800
vn -0.628800 0.758800 -0.169800
vn -0.427000 0.850900 -0.305700
vn -0.427000 0.851000 -0.305700
vn -0.177600 0.885800 -0.428700
vn 0.085700 0.851000 -0.518100
vn 0.085800 0.851000 -0.518100
vn 0.324400 0.758800 -0.564700
vn 0.324500 0.758800 -0.564700
vn 0.516900 0.634900 -0.574100
vn 0.516900 0.634900 -0.574100
vn 0.661300 0.501100 -0.558100
vn 0.766000 0.368800 -0.526500
vn 0.766000 0.368800 -0.526500
vn 0.840300 0.241800 -0.485200
vn 0.891400 0.119500 -0.437100
vn 0.891400 0.119500 -0.437100
vn 0.862300 -0.501100 -0.073000
vn 0.427100 -0.851000 0.305600
vn -0.085800 -0.851000 0.518100
vn -0.766000 -0.368800 0.526400
vn -0.923900 0.000000 0.382700
vn -0.913900 0.368900 0.169400
vn -0.177500 0.885800 -0.428700
vn 0.661300 0.501100 -0.558100
vn 0.840300 0.241800 -0.485200
vt 0.000000 0.000000
vt 0.000000 0.000000
vt 0.000000 0.000000
vt 0.000000 0.000000
vt 0.000000 0.000000
vt 0.000000 0.000000
vt 0.000000 0.000000
vt 0.000000 0.000000
vt 0.000000 0.000000
vt 0.000000 0.000000
vt 0.000000 0.000000
vt 0.000000 0.000000
vt 0.000000 0.000000
vt 0.000000 0.000000
vt 0.000000 0.000000
vt 0.000000 0.000000
vt 0.000000 0.000000
vt 0.000000 0.000000
vt 0.000000 0.000000
vt 0.000000 0.000000
vt 0.000000 0.000000
vt 0.000000 0.000000
vt 0.000000 0.000000
vt 0.000000 0.000000
vt 0.000000 0.000000
vt 0.000000 0.000000
vt 0.000000 0.000000
vt 0.000000 0.000000
vt 0.000000 0.000000
vt 0.000000 0.000000
vt 0.000000 0.000000
vt 0.000000 0.000000
vt 0.000000 0.000000
vt 0.000000 0.000000
vt 0.000000 0.000000
vt 0.000000 0.000000
vt 0.000000 0.000000
vt 0.000000 0.000000
vt 0.000000 0.000000
vt 0.000000 0.000000
vt 0.000000 0.000000
vt 0.000000 0.000000
vt 0.000000 0.000000
vt 0.000000 0.000000
vt 0.000000 0.000000
vt 0.000000 0.000000
vt 0.000000 0.000000
vt 0.000000 0.000000
vt 0.000000 0.000000
vt 0.000000 0.000000
vt 0.000000 0.000000
vt 0.000000 0.000000
vt 0.000000 0.000000
vt 0.000000 0.000000
vt 0.000000 0.000000
vt 0.000000 0.000000
vt 0.000000 0.000000
vt 0.000000 0.000000
vt 0.000000 0.000000
vt 0.000000 0.000000
vt 0.000000 0.000000
vt 0.000000 0.000000
vt 0.000000 0.000000
vt 0.000000 0.000000
f 1/1/1 2/2/2 3/3/3
f 4/4/4 3/3/3 5/5/5
f 6/6/6 5/5/5 7/7/7
f 8/8/8 7/7/7 9/9/9
f 9/9/9 10/10/10 11/11/11
f 10/10/10 12/12/12 13/13/13
f 13/13/13 12/12/12 14/14/14
f 14/14/14 15/15/15 16/16/16
f 16/16/16 15/15/15 17/17/17
f 17/17/17 18/18/18 19/19/19
f 19/19/19 18/18/18 20/20/20
f 21/21/21 20/20/20 22/22/22
f 23/23/23 22/22/22 24/24/24
f 24/24/24 25/25/25 26/26/26
f 26/26/26 25/25/25 27/27/27
f 28/28/28 27/27/27 29/29/29
f 29/29/29 30/30/30 31/31/31
f 31/31/31 30/30/30 32/32/32
f 33/33/33 32/32/32 34/34/34
f 34/34/34 35/35/35 36/36/36
f 35/35/35 37/37/37 38/38/38
f 37/37/37 39/39/39 40/40/40
f 40/40/40 39/39/39 41/41/41
f 42/42/42 41/41/41 43/43/43
f 43/43/43 44/44/44 45/45/45
f 44/44/44 46/46/46 47/47/47
f 47/47/47 46/46/46 48/48/48
f 49/49/49 48/48/48 50/50/50
f 50/50/50 51/51/51 52/52/52
f 52/52/52 51/51/51 53/53/53
f 53/53/53 54/54/54 55/55/55
f 55/55/55 54/54/54 2/2/2
f 4/4/4 1/1/1 3/3/3
f 6/6/6 4/4/4 5/5/5
f 8/8/8 6/6/6 7/7/7
f 56/56/56 8/8/8 9/9/9
f 56/56/56 9/9/9 11/11/11
f 11/11/11 10/10/10 13/13/13
f 57/57/57 13/13/13 14/14/14
f 57/57/57 14/14/14 16/16/16
f 58/58/58 16/16/16 17/17/17
f 58/58/58 17/17/17 19/19/19
f 21/21/21 19/19/19 20/20/20
f 23/23/23 21/21/21 22/22/22
f 59/59/59 23/23/23 24/24/24
f 59/59/59 24/24/24 26/26/26
f 28/28/28 26/26/26 27/27/27
f 60/60/60 28/28/28 29/29/29
f 60/60/60 29/29/29 31/31/31
f 33/33/33 31/31/31 32/32/32
f 61/61/61 33/33/33 34/34/34
f 61/61/61 34/34/34 36/36/36
f 36/36/36 35/35/35 38/38/38
f 38/38/38 37/37/37 40/40/40
f 42/42/42 40/40/40 41/41/41
f 62/62/62 42/42/42 43/43/43
f 62/62/62 43/43/43 45/45/45
f 45/45/45 44/44/44 47/47/47
f 49/49/49 47/47/47 48/48/48
f 63/63/63 49/49/49 50/50/50
f 63/63/63 50/50/50 52/52/52
f 64/64/64 52/52/52 53/53/53
f 64/64/64 53/53/53 55/55/55
f 1/1/1 55/55/55 2/2/2
