v 0.486993 3.563360 -3.216201
v 0.486217 3.563360 -3.208323
v 0.484951 3.570478 -3.208323
v 0.493023 3.563360 -3.185887
v 0.498045 3.563360 -3.179768
v 0.497150 3.570478 -3.178872
v 0.486993 3.563360 -3.200444
v 0.485751 3.570478 -3.200197
v 0.488121 3.570478 -3.192384
v 0.489291 3.563360 -3.192869
v 0.504165 3.563360 -3.174746
v 0.503461 3.570478 -3.173692
v 0.510662 3.570478 -3.169843
v 0.511147 3.563360 -3.171014
v 0.518722 3.563360 -3.168716
v 0.518722 3.563360 -3.168716
v 0.526600 3.563360 -3.167940
v 0.526600 3.570478 -3.166673
v 0.534479 3.563360 -3.168716
v 0.542054 3.563360 -3.171014
v 0.549036 3.563360 -3.174746
v 0.549740 3.570478 -3.173692
v 0.555156 3.563360 -3.179768
v 0.556051 3.570478 -3.178872
v 0.560178 3.563360 -3.185887
v 0.561231 3.570478 -3.185184
v 0.563909 3.563360 -3.192869
v 0.566207 3.563360 -3.200444
v 0.567450 3.570478 -3.200197
v 0.566983 3.563360 -3.208323
v 0.568250 3.570478 -3.208323
v 0.566207 3.563360 -3.216201
v 0.563909 3.563360 -3.223777
v 0.560178 3.563360 -3.230758
v 0.561231 3.570478 -3.231462
v 0.555156 3.563360 -3.236878
v 0.549036 3.563360 -3.241900
v 0.549740 3.570478 -3.242953
v 0.542539 3.570478 -3.246802
v 0.542054 3.563360 -3.245632
v 0.534479 3.563360 -3.247930
v 0.534726 3.570478 -3.249172
v 0.526600 3.563360 -3.248706
v 0.526600 3.570478 -3.249973
v 0.518722 3.563360 -3.247930
v 0.511147 3.563360 -3.245632
v 0.504165 3.563360 -3.241900
v 0.503461 3.570478 -3.242953
v 0.498045 3.563360 -3.236878
v 0.497150 3.570478 -3.237774
v 0.493023 3.563360 -3.230758
v 0.491970 3.570478 -3.231462
v 0.489291 3.563360 -3.223777
v 0.485751 3.570478 -3.216448
v 0.542539 3.570478 -3.169843
v 0.534726 3.570478 -3.167473
v 0.565080 3.570478 -3.192384
v 0.565080 3.570478 -3.224262
v 0.567450 3.570478 -3.216448
v 0.510662 3.570478 -3.246802
v 0.518475 3.570478 -3.249172
v 0.518722 3.563360 -3.247930
v 0.491970 3.570478 -3.185184
v 0.518475 3.570478 -3.167473
v 0.518475 3.570478 -3.167473
v 0.556051 3.570478 -3.237774
v 0.518475 3.570478 -3.249172
v 0.488121 3.570478 -3.224262
vn -0.965600 -0.175200 -0.192100
vn -0.984500 -0.175200 0.000000
vn -0.984500 -0.175200 0.000000
vn -0.818600 -0.175200 0.547000
vn -0.696100 -0.175200 0.696200
vn -0.696100 -0.175200 0.696200
vn -0.965600 -0.175200 0.192100
vn -0.965600 -0.175200 0.192100
vn -0.909600 -0.175200 0.376800
vn -0.909600 -0.175200 0.376800
vn -0.547000 -0.175100 0.818600
vn -0.547000 -0.175200 0.818600
vn -0.376800 -0.175200 0.909600
vn -0.376800 -0.175200 0.909600
vn -0.192100 -0.175200 0.965600
vn -0.192100 -0.175200 0.965600
vn 0.000000 -0.175200 0.984500
vn 0.000000 -0.175200 0.984500
vn 0.192100 -0.175200 0.965600
vn 0.376800 -0.175200 0.909600
vn 0.547000 -0.175200 0.818600
vn 0.547000 -0.175200 0.818600
vn 0.696200 -0.175200 0.696200
vn 0.696200 -0.175200 0.696200
vn 0.818600 -0.175200 0.547000
vn 0.818600 -0.175200 0.547000
vn 0.909600 -0.175200 0.376800
vn 0.965600 -0.175200 0.192100
vn 0.965600 -0.175200 0.192100
vn 0.984500 -0.175200 0.000000
vn 0.984500 -0.175200 0.000000
vn 0.965600 -0.175200 -0.192100
vn 0.909600 -0.175200 -0.376800
vn 0.818600 -0.175200 -0.547000
vn 0.818600 -0.175200 -0.547000
vn 0.696200 -0.175200 -0.696200
vn 0.547000 -0.175200 -0.818600
vn 0.547000 -0.175200 -0.818600
vn 0.376800 -0.175200 -0.909600
vn 0.376700 -0.175200 -0.909600
vn 0.192100 -0.175200 -0.965600
vn 0.192100 -0.175200 -0.965600
vn 0.000000 -0.175200 -0.984500
vn 0.000000 -0.175200 -0.984500
vn -0.192100 -0.175200 -0.965600
vn -0.376700 -0.175200 -0.909600
vn -0.547000 -0.175200 -0.818600
vn -0.547000 -0.175200 -0.818600
vn -0.696100 -0.175200 -0.696200
vn -0.696200 -0.175200 -0.696200
vn -0.818600 -0.175200 -0.547000
vn -0.818600 -0.175200 -0.547000
vn -0.909600 -0.175200 -0.376800
vn -0.965600 -0.175200 -0.192100
vn 0.376800 -0.175200 0.909600
vn 0.192000 -0.175200 0.965600
vn 0.909600 -0.175200 0.376800
vn 0.909600 -0.175200 -0.376700
vn 0.965600 -0.175200 -0.192100
vn -0.376700 -0.175200 -0.909600
vn -0.192100 -0.175200 -0.965600
vn -0.192100 -0.175200 -0.965600
vn -0.818600 -0.175200 0.547000
vn -0.192000 -0.175200 0.965600
vn -0.192000 -0.175200 0.965600
vn 0.696200 -0.175200 -0.696100
vn -0.192100 -0.175200 -0.965600
vn -0.909600 -0.175200 -0.376700
vt 0.021068 0.960455
vt 0.022185 0.960882
vt 0.022732 0.962833
vt 0.020447 0.962098
vt 0.017946 0.962430
vt 0.018455 0.964430
vt 0.022514 0.961309
vt 0.023089 0.963274
vt 0.022540 0.963697
vt 0.021959 0.961720
vt 0.014490 0.962703
vt 0.014914 0.964711
vt 0.010499 0.964919
vt 0.010194 0.962905
vt 0.005267 0.963029
vt 0.801266 0.963029
vt 0.795999 0.963071
vt 0.795999 0.965091
vt 0.790732 0.963029
vt 0.785805 0.962905
vt 0.781509 0.962703
vt 0.781085 0.964711
vt 0.778053 0.962430
vt 0.777544 0.964430
vt 0.775552 0.962098
vt 0.774992 0.964088
vt 0.774040 0.961720
vt 0.773485 0.961309
vt 0.772910 0.963274
vt 0.773814 0.960882
vt 0.773267 0.962833
vt 0.774931 0.960455
vt 0.776730 0.960044
vt 0.779102 0.959666
vt 0.778720 0.961579
vt 0.781940 0.959334
vt 0.785143 0.959062
vt 0.784907 0.960956
vt 0.788456 0.960747
vt 0.788615 0.958859
vt 0.792263 0.958735
vt 0.792183 0.960618
vt 0.795999 0.958693
vt 0.795999 0.960575
vt 0.799735 0.958735
vt 0.007384 0.958859
vt 0.010856 0.959062
vt 0.011093 0.960956
vt 0.014059 0.959334
vt 0.014371 0.961236
vt 0.016897 0.959666
vt 0.017279 0.961579
vt 0.019269 0.960044
vt 0.021570 0.962393
vt 0.785500 0.964919
vt 0.790572 0.965048
vt 0.773459 0.963697
vt 0.776284 0.961969
vt 0.774429 0.962393
vt 0.007543 0.960747
vt 0.003816 0.960618
vt 0.003736 0.958735
vt 0.021007 0.964088
vt 0.005427 0.965048
vt 0.801426 0.965048
vt 0.781628 0.961236
vt 0.799815 0.960618
vt 0.019715 0.961969
f 1/1/1 2/2/2 3/3/3
f 4/4/4 5/5/5 6/6/6
f 2/2/2 7/7/7 8/8/8
f 9/9/9 10/10/10 4/4/4
f 5/5/5 11/11/11 12/12/12
f 13/13/13 14/14/14 15/15/15
f 16/16/16 17/17/17 18/18/18
f 18/18/18 17/17/17 19/19/19
f 20/20/20 21/21/21 22/22/22
f 21/21/21 23/23/23 24/24/24
f 23/23/23 25/25/25 26/26/26
f 27/27/27 28/28/28 29/29/29
f 29/29/29 28/28/28 30/30/30
f 31/31/31 30/30/30 32/32/32
f 33/33/33 34/34/34 35/35/35
f 35/35/35 34/34/34 36/36/36
f 36/36/36 37/37/37 38/38/38
f 39/39/39 40/40/40 41/41/41
f 42/42/42 41/41/41 43/43/43
f 44/44/44 43/43/43 45/45/45
f 46/46/46 47/47/47 48/48/48
f 48/48/48 47/47/47 49/49/49
f 50/50/50 49/49/49 51/51/51
f 52/52/52 51/51/51 53/53/53
f 53/53/53 1/1/1 54/54/54
f 9/9/9 8/8/8 7/7/7
f 14/14/14 13/13/13 12/12/12
f 55/55/55 56/56/56 19/19/19
f 57/57/57 26/26/26 25/25/25
f 58/58/58 59/59/59 32/32/32
f 40/40/40 39/39/39 38/38/38
f 60/60/60 61/61/61 62/62/62
f 54/54/54 1/1/1 3/3/3
f 63/63/63 4/4/4 6/6/6
f 3/3/3 2/2/2 8/8/8
f 63/63/63 9/9/9 4/4/4
f 6/6/6 5/5/5 12/12/12
f 64/64/64 13/13/13 15/15/15
f 65/65/65 16/16/16 18/18/18
f 56/56/56 18/18/18 19/19/19
f 55/55/55 20/20/20 22/22/22
f 22/22/22 21/21/21 24/24/24
f 24/24/24 23/23/23 26/26/26
f 57/57/57 27/27/27 29/29/29
f 31/31/31 29/29/29 30/30/30
f 59/59/59 31/31/31 32/32/32
f 58/58/58 33/33/33 35/35/35
f 66/66/66 35/35/35 36/36/36
f 66/66/66 36/36/36 38/38/38
f 42/42/42 39/39/39 41/41/41
f 44/44/44 42/42/42 43/43/43
f 67/67/67 44/44/44 45/45/45
f 60/60/60 46/46/46 48/48/48
f 50/50/50 48/48/48 49/49/49
f 52/52/52 50/50/50 51/51/51
f 68/68/68 52/52/52 53/53/53
f 68/68/68 53/53/53 54/54/54
f 10/10/10 9/9/9 7/7/7
f 11/11/11 14/14/14 12/12/12
f 20/20/20 55/55/55 19/19/19
f 27/27/27 57/57/57 25/25/25
f 33/33/33 58/58/58 32/32/32
f 37/37/37 40/40/40 38/38/38
f 46/46/46 60/60/60 62/62/62
