v -1.756698 0.025438 -3.277131
v -1.756698 3.767508 -3.277131
v -1.756698 3.762348 -3.283582
v -1.756698 0.025438 -3.258437
v -1.756698 3.777247 -3.258437
v -1.756698 0.025438 -3.251053
v -1.756698 3.780105 -3.251053
v -1.756698 0.025438 -3.239191
v -1.756698 3.783198 -3.239191
v -1.756698 0.025438 -3.222875
v -1.756698 3.785817 -3.222875
v -1.756698 0.025438 -3.138472
v -1.756698 0.025438 -3.132020
v -1.756698 3.762348 -3.132020
v -1.756698 0.025438 -3.157166
v -1.756698 3.767508 -3.138472
v -1.756698 0.025438 -3.164550
v -1.756698 3.777247 -3.157166
v -1.756698 0.025438 -3.176412
v -1.756698 3.780105 -3.164550
v -1.756698 0.025438 -3.192728
v -1.756698 3.783198 -3.176412
v -1.756698 0.025438 -3.207801
v -1.756698 3.785817 -3.192728
v -1.756698 0.025438 -3.283582
v -1.756698 3.786635 -3.207801
vn -1.000000 0.000000 0.000000
vn -1.000000 0.000000 0.000000
vn -1.000000 0.000000 0.000000
vn -1.000000 0.000000 0.000000
vn -1.000000 0.000000 0.000000
vn -1.000000 0.000000 0.000000
vn -1.000000 0.000000 0.000000
vn -1.000000 0.000000 0.000000
vn -1.000000 0.000000 0.000000
vn -1.000000 0.000000 0.000000
vn -1.000000 0.000000 0.000000
vn -1.000000 0.000000 0.000000
vn -1.000000 0.000000 0.000000
vn -1.000000 0.000000 0.000000
vn -1.000000 0.000000 0.000000
vn -1.000000 0.000000 0.000000
vn -1.000000 0.000000 0.000000
vn -1.000000 0.000000 0.000000
vn -1.000000 0.000000 0.000000
vn -1.000000 0.000000 0.000000
vn -1.000000 0.000000 0.000000
vn -1.000000 0.000000 0.000000
vn -1.000000 0.000000 0.000000
vn -1.000000 0.000000 0.000000
vn -1.000000 0.000000 0.000000
vn -1.000000 0.000000 0.000000
vt 0.007316 0.029325
vt 0.137651 0.466783
vt 0.133036 0.466303
vt 0.006743 0.025216
vt 0.150971 0.466255
vt 0.006514 0.023594
vt 0.156817 0.465683
vt 0.006145 0.020986
vt 0.166712 0.464213
vt 0.005632 0.017401
vt 0.182592 0.461591
vt 0.002876 -0.001149
vt 0.002659 -0.002567
vt 0.337920 0.432993
vt 0.003501 0.002959
vt 0.325814 0.436308
vt 0.003746 0.004582
vt 0.286435 0.443998
vt 0.004136 0.007189
vt 0.271623 0.446672
vt 0.004667 0.010775
vt 0.248594 0.450416
vt 0.005152 0.014088
vt 0.221236 0.454965
vt 0.007512 0.030743
vt 0.200225 0.458578
f 1/1/1 2/2/2 3/3/3
f 4/4/4 5/5/5 2/2/2
f 6/6/6 7/7/7 5/5/5
f 8/8/8 9/9/9 7/7/7
f 10/10/10 11/11/11 9/9/9
f 12/12/12 13/13/13 14/14/14
f 15/15/15 12/12/12 16/16/16
f 17/17/17 15/15/15 18/18/18
f 19/19/19 17/17/17 20/20/20
f 21/21/21 19/19/19 22/22/22
f 23/23/23 21/21/21 24/24/24
f 11/11/11 10/10/10 23/23/23
f 25/25/25 1/1/1 3/3/3
f 1/1/1 4/4/4 2/2/2
f 4/4/4 6/6/6 5/5/5
f 6/6/6 8/8/8 7/7/7
f 8/8/8 10/10/10 9/9/9
f 16/16/16 12/12/12 14/14/14
f 18/18/18 15/15/15 16/16/16
f 20/20/20 17/17/17 18/18/18
f 22/22/22 19/19/19 20/20/20
f 24/24/24 21/21/21 22/22/22
f 26/26/26 23/23/23 24/24/24
f 26/26/26 11/11/11 23/23/23
