v 0.459859 1.669972 -1.473584
v 0.458536 1.669972 -1.460150
v 0.451616 1.673781 -1.460150
v 0.463778 1.669972 -1.486502
v 0.451616 1.674598 -1.475224
v 0.470141 1.669972 -1.498407
v 0.451616 1.677217 -1.491540
v 0.451616 1.680310 -1.503402
v 0.451616 1.683168 -1.510785
v 0.454524 1.680310 -1.508842
v 0.465424 1.680310 -1.522123
v 0.458068 1.692907 -1.535931
v 0.476762 1.683168 -1.535931
v 0.478705 1.680310 -1.533023
v 0.489140 1.669972 -1.517406
v 0.484146 1.680310 -1.535931
v 0.496008 1.677217 -1.535931
v 0.501045 1.669972 -1.523769
v 0.512324 1.674598 -1.535931
v 0.513963 1.669972 -1.527688
v 0.527397 1.673781 -1.535931
v 0.527397 1.669972 -1.529011
v 0.513963 1.669972 -1.527688
v 0.540832 1.669972 -1.527688
v 0.553749 1.669972 -1.523769
v 0.542471 1.674598 -1.535931
v 0.578033 1.683168 -1.535931
v 0.576090 1.680310 -1.533023
v 0.570649 1.680310 -1.535931
v 0.565655 1.669972 -1.517406
v 0.558787 1.677217 -1.535931
v 0.589371 1.680310 -1.522123
v 0.603179 1.692907 -1.529480
v 0.603179 1.683168 -1.510785
v 0.596727 1.692907 -1.535931
v 0.576090 1.669972 -1.508842
v 0.600270 1.680310 -1.508842
v 0.603179 1.680310 -1.503402
v 0.584653 1.669972 -1.498407
v 0.603179 1.677217 -1.491540
v 0.591017 1.669972 -1.486502
v 0.603179 1.674598 -1.475224
v 0.594935 1.669972 -1.473584
v 0.603179 1.673781 -1.460150
v 0.596259 1.669972 -1.460150
v 0.594935 1.669972 -1.446716
v 0.591017 1.669972 -1.433798
v 0.603179 1.674598 -1.445076
v 0.603179 1.683168 -1.409515
v 0.600270 1.680310 -1.411458
v 0.603179 1.680310 -1.416898
v 0.584653 1.669972 -1.421893
v 0.603179 1.677217 -1.428760
v 0.589371 1.680310 -1.398177
v 0.576090 1.669972 -1.411458
v 0.596727 1.692907 -1.384369
v 0.578033 1.683168 -1.384369
v 0.603179 1.692907 -1.390820
v 0.576090 1.680310 -1.387277
v 0.565655 1.669972 -1.402894
v 0.570649 1.680310 -1.384369
v 0.558787 1.677217 -1.384369
v 0.553749 1.669972 -1.396531
v 0.542471 1.674598 -1.384369
v 0.540832 1.669972 -1.392612
v 0.527397 1.673781 -1.384369
v 0.527397 1.669972 -1.391289
v 0.513963 1.669972 -1.392612
v 0.501045 1.669972 -1.396531
v 0.513963 1.669972 -1.392612
v 0.512324 1.674598 -1.384369
v 0.514696 1.667741 -1.524005
v 0.514696 1.667741 -1.524005
v 0.502482 1.667741 -1.520300
v 0.476762 1.683168 -1.384369
v 0.478705 1.680310 -1.387277
v 0.484146 1.680310 -1.384369
v 0.489140 1.669972 -1.402894
v 0.496008 1.677217 -1.384369
v 0.465424 1.680310 -1.398177
v 0.481360 1.667741 -1.506187
v 0.478705 1.669972 -1.508842
v 0.451616 1.692907 -1.390821
v 0.451616 1.683169 -1.409515
v 0.454524 1.680310 -1.411458
v 0.470141 1.669972 -1.421893
v 0.463542 1.667741 -1.472852
v 0.458068 1.692907 -1.384369
v 0.451616 1.680310 -1.416899
v 0.451616 1.677217 -1.428760
v 0.463778 1.669972 -1.433798
v 0.451616 1.674598 -1.445076
v 0.459859 1.669972 -1.446716
v 0.462291 1.667741 -1.460150
v 0.451616 1.692907 -1.529480
v 0.451616 1.698068 -1.535931
v 0.527397 1.667741 -1.525256
v 0.540099 1.667741 -1.524005
v 0.563568 1.667741 -1.514284
v 0.573434 1.667741 -1.506187
v 0.581531 1.667741 -1.496321
v 0.591252 1.667741 -1.472852
v 0.592503 1.667741 -1.460150
v 0.473264 1.667741 -1.496321
v 0.467247 1.667741 -1.485065
v 0.481360 1.667741 -1.414113
v 0.491226 1.667741 -1.406016
v 0.473264 1.667741 -1.423979
v 0.467247 1.667741 -1.435235
v 0.463542 1.667741 -1.447448
v 0.591252 1.667741 -1.447448
v 0.587548 1.667741 -1.435235
v 0.581531 1.667741 -1.423979
v 0.573434 1.667741 -1.414113
v 0.563568 1.667741 -1.406016
v 0.552312 1.667741 -1.400000
v 0.540099 1.667741 -1.396295
v 0.527397 1.667741 -1.395044
v 0.514696 1.667741 -1.396295
v 0.502482 1.667741 -1.400000
v 0.514696 1.667741 -1.396295
v 0.512324 1.674598 -1.535931
v 0.603179 1.698068 -1.535931
v 0.603179 1.698068 -1.384369
v 0.512324 1.674598 -1.384369
v 0.491226 1.667741 -1.514284
v 0.478705 1.669972 -1.411458
v 0.451616 1.698068 -1.384369
v 0.552312 1.667741 -1.520300
v 0.587548 1.667741 -1.485065
vn -0.486200 -0.868500 -0.096700
vn -0.495700 -0.868500 0.000000
vn -0.482200 -0.876000 0.000000
vn -0.458000 -0.868400 -0.189700
vn -0.471600 -0.876000 -0.100600
vn -0.412200 -0.868400 -0.275400
vn -0.440400 -0.876000 -0.196700
vn -0.453100 -0.857900 -0.242200
vn -0.510600 -0.774000 -0.374400
vn -0.468700 -0.826000 -0.313200
vn -0.399200 -0.825400 -0.399200
vn -0.464500 -0.738100 -0.489300
vn -0.374400 -0.774000 -0.510600
vn -0.313200 -0.826000 -0.468700
vn -0.275400 -0.868400 -0.412200
vn -0.242200 -0.857900 -0.453100
vn -0.196700 -0.876000 -0.440400
vn -0.189700 -0.868400 -0.458000
vn -0.100600 -0.876000 -0.471600
vn -0.096700 -0.868400 -0.486200
vn 0.000000 -0.876000 -0.482200
vn 0.000000 -0.868400 -0.495700
vn -0.096700 -0.868400 -0.486200
vn 0.096700 -0.868400 -0.486200
vn 0.189700 -0.868500 -0.458000
vn 0.100600 -0.876000 -0.471600
vn 0.374400 -0.774000 -0.510600
vn 0.313200 -0.826000 -0.468700
vn 0.242200 -0.857900 -0.453100
vn 0.275400 -0.868500 -0.412200
vn 0.196700 -0.876000 -0.440400
vn 0.399200 -0.825400 -0.399200
vn 0.489300 -0.738100 -0.464600
vn 0.510600 -0.774000 -0.374400
vn 0.464500 -0.738100 -0.489300
vn 0.350500 -0.868500 -0.350500
vn 0.468700 -0.826000 -0.313200
vn 0.453100 -0.857900 -0.242200
vn 0.412200 -0.868500 -0.275400
vn 0.440400 -0.876000 -0.196700
vn 0.458000 -0.868500 -0.189700
vn 0.471600 -0.876000 -0.100600
vn 0.486200 -0.868400 -0.096700
vn 0.482200 -0.876000 0.000000
vn 0.495700 -0.868500 0.000000
vn 0.486200 -0.868400 0.096700
vn 0.458000 -0.868500 0.189700
vn 0.471600 -0.876000 0.100600
vn 0.510600 -0.774000 0.374400
vn 0.468700 -0.826000 0.313200
vn 0.453100 -0.857900 0.242200
vn 0.412200 -0.868500 0.275400
vn 0.440400 -0.876000 0.196700
vn 0.399200 -0.825400 0.399200
vn 0.350500 -0.868400 0.350500
vn 0.464500 -0.738100 0.489300
vn 0.374400 -0.774000 0.510600
vn 0.489300 -0.738100 0.464500
vn 0.313200 -0.826000 0.468700
vn 0.275400 -0.868400 0.412200
vn 0.242200 -0.857900 0.453100
vn 0.196700 -0.876000 0.440400
vn 0.189700 -0.868500 0.458000
vn 0.100600 -0.876000 0.471600
vn 0.096700 -0.868400 0.486200
vn 0.000000 -0.876000 0.482200
vn 0.000000 -0.868400 0.495700
vn -0.096700 -0.868400 0.486200
vn -0.189700 -0.868400 0.458000
vn -0.096700 -0.868400 0.486200
vn -0.100600 -0.876000 0.471600
vn -0.099600 -0.859700 -0.500900
vn -0.099600 -0.859700 -0.500900
vn -0.195400 -0.859700 -0.471800
vn -0.374400 -0.774000 0.510600
vn -0.313200 -0.826000 0.468700
vn -0.242200 -0.857900 0.453100
vn -0.275400 -0.868400 0.412200
vn -0.196700 -0.876000 0.440400
vn -0.399200 -0.825400 0.399200
vn -0.361100 -0.859700 -0.361100
vn -0.350500 -0.868400 -0.350600
vn -0.489300 -0.738100 0.464600
vn -0.510600 -0.774000 0.374400
vn -0.468700 -0.826000 0.313200
vn -0.412200 -0.868500 0.275400
vn -0.500900 -0.859700 -0.099600
vn -0.464500 -0.738100 0.489300
vn -0.453100 -0.857900 0.242200
vn -0.440400 -0.876000 0.196700
vn -0.458000 -0.868500 0.189700
vn -0.471600 -0.876000 0.100600
vn -0.486200 -0.868500 0.096700
vn -0.510700 -0.859700 0.000000
vn -0.489300 -0.738100 -0.464600
vn -0.529800 -0.662300 -0.529800
vn 0.000000 -0.859700 -0.510700
vn 0.099600 -0.859700 -0.500900
vn 0.283700 -0.859700 -0.424600
vn 0.361100 -0.859700 -0.361100
vn 0.424600 -0.859700 -0.283700
vn 0.500900 -0.859700 -0.099600
vn 0.510700 -0.859700 0.000000
vn -0.424600 -0.859700 -0.283700
vn -0.471800 -0.859700 -0.195400
vn -0.361100 -0.859700 0.361100
vn -0.283700 -0.859700 0.424700
vn -0.424600 -0.859700 0.283700
vn -0.471800 -0.859700 0.195400
vn -0.500900 -0.859700 0.099600
vn 0.500900 -0.859700 0.099600
vn 0.471800 -0.859700 0.195400
vn 0.424600 -0.859700 0.283700
vn 0.361100 -0.859700 0.361100
vn 0.283700 -0.859700 0.424600
vn 0.195400 -0.859700 0.471800
vn 0.099600 -0.859700 0.500900
vn 0.000000 -0.859700 0.510700
vn -0.099600 -0.859700 0.500900
vn -0.195400 -0.859700 0.471800
vn -0.099600 -0.859700 0.500900
vn -0.100600 -0.876000 -0.471600
vn 0.529700 -0.662300 -0.529800
vn 0.529800 -0.662300 0.529700
vn -0.100600 -0.876000 0.471600
vn -0.283700 -0.859700 -0.424700
vn -0.350500 -0.868500 0.350500
vn -0.529700 -0.662300 0.529800
vn 0.195400 -0.859700 -0.471800
vn 0.471800 -0.859700 -0.195400
vt 0.042179 0.795008
vt 0.046105 0.796253
vt 0.049975 0.798038
vt 0.037408 0.793810
vt 0.046190 0.797024
vt 0.031997 0.792707
vt 0.042594 0.796739
vt 0.040256 0.797089
vt 0.038891 0.797744
vt 0.037916 0.796584
vt 0.030764 0.795353
vt 0.032039 0.799977
vt 0.023877 0.795413
vt 0.023312 0.794343
vt 0.019865 0.790945
vt 0.020524 0.794073
vt 0.015010 0.792624
vt 0.013374 0.790356
vt 0.007256 0.791396
vt 0.006725 0.789992
vt 0.711545 0.791013
vt 0.711545 0.789870
vt 0.718270 0.789992
vt 0.704819 0.789992
vt 0.698171 0.790356
vt 0.704288 0.791396
vt 0.687668 0.795413
vt 0.688232 0.794343
vt 0.691021 0.794073
vt 0.691680 0.790945
vt 0.696535 0.792624
vt 0.680781 0.795353
vt 0.675813 0.800575
vt 0.672654 0.797744
vt 0.679506 0.799977
vt 0.685437 0.791739
vt 0.673629 0.796584
vt 0.671288 0.797089
vt 0.679547 0.792707
vt 0.668950 0.796739
vt 0.674137 0.793810
vt 0.665354 0.797024
vt 0.669366 0.795008
vt 0.661570 0.798038
vt 0.665439 0.796253
vt 0.662629 0.797499
vt 0.661294 0.798696
vt 0.657262 0.799818
vt 0.644449 0.807132
vt 0.647101 0.805612
vt 0.647443 0.805108
vt 0.661910 0.799800
vt 0.651891 0.802559
vt 0.649169 0.806843
vt 0.665074 0.800767
vt 0.637089 0.814027
vt 0.652364 0.809463
vt 0.635943 0.813428
vt 0.655492 0.807853
vt 0.671457 0.801561
vt 0.659481 0.808123
vt 0.672230 0.806674
vt 0.681586 0.802151
vt 0.691950 0.805446
vt 0.695373 0.802514
vt 0.711545 0.805063
vt 0.711545 0.802637
vt 0.727716 0.802514
vt 0.029958 0.802151
vt 0.016172 0.802514
vt 0.019595 0.805446
vt 0.718020 0.789288
vt 0.006475 0.789288
vt 0.012871 0.789632
vt 0.059180 0.809463
vt 0.056052 0.807853
vt 0.052064 0.808123
vt 0.040088 0.801561
vt 0.039315 0.806674
vt 0.062376 0.806843
vt 0.025085 0.790940
vt 0.026107 0.791739
vt 0.075601 0.813428
vt 0.067095 0.807132
vt 0.064443 0.805612
vt 0.049635 0.799800
vt 0.040317 0.794030
vt 0.074455 0.814027
vt 0.064102 0.805107
vt 0.059654 0.802559
vt 0.050251 0.798696
vt 0.054282 0.799819
vt 0.048916 0.797499
vt 0.043948 0.795208
vt 0.035732 0.800575
vt 0.034706 0.802395
vt 0.711545 0.789172
vt 0.705069 0.789288
vt 0.692439 0.790190
vt 0.686459 0.790940
vt 0.680840 0.791855
vt 0.671227 0.794030
vt 0.667596 0.795208
vt 0.030705 0.791855
vt 0.035835 0.792898
vt 0.043432 0.799476
vt 0.037191 0.800226
vt 0.046691 0.798561
vt 0.047525 0.797517
vt 0.046465 0.796385
vt 0.665080 0.796385
vt 0.664020 0.797517
vt 0.664854 0.798561
vt 0.668113 0.799476
vt 0.674354 0.800226
vt 0.683959 0.800784
vt 0.696742 0.801127
vt 0.711545 0.801243
vt 0.726348 0.801127
vt 0.027586 0.800784
vt 0.014803 0.801127
vt 0.718801 0.791396
vt 0.676838 0.802395
vt 0.632785 0.816445
vt 0.731139 0.805446
vt 0.019106 0.790190
vt 0.046471 0.800767
vt 0.078760 0.816445
vt 0.698673 0.789632
vt 0.675709 0.792898
f 1/1/1 2/2/2 3/3/3
f 4/4/4 1/1/1 5/5/5
f 6/6/6 7/7/7 8/8/8
f 6/6/6 4/4/4 7/7/7
f 9/9/9 10/10/10 8/8/8
f 11/11/11 10/10/10 9/9/9
f 6/6/6 10/10/10 11/11/11
f 11/11/11 12/12/12 13/13/13
f 11/11/11 14/14/14 15/15/15
f 16/16/16 14/14/14 13/13/13
f 15/15/15 14/14/14 16/16/16
f 17/17/17 18/18/18 15/15/15
f 19/19/19 20/20/20 18/18/18
f 21/21/21 22/22/22 23/23/23
f 24/24/24 22/22/22 21/21/21
f 25/25/25 24/24/24 26/26/26
f 27/27/27 28/28/28 29/29/29
f 30/30/30 31/31/31 29/29/29
f 30/30/30 25/25/25 31/31/31
f 32/32/32 28/28/28 27/27/27
f 30/30/30 28/28/28 32/32/32
f 32/32/32 33/33/33 34/34/34
f 33/33/33 32/32/32 35/35/35
f 36/36/36 32/32/32 37/37/37
f 38/38/38 37/37/37 34/34/34
f 39/39/39 37/37/37 38/38/38
f 40/40/40 41/41/41 39/39/39
f 42/42/42 43/43/43 41/41/41
f 44/44/44 45/45/45 43/43/43
f 46/46/46 45/45/45 44/44/44
f 47/47/47 46/46/46 48/48/48
f 49/49/49 50/50/50 51/51/51
f 52/52/52 53/53/53 51/51/51
f 52/52/52 47/47/47 53/53/53
f 50/50/50 54/54/54 55/55/55
f 54/54/54 50/50/50 49/49/49
f 54/54/54 56/56/56 57/57/57
f 56/56/56 54/54/54 58/58/58
f 54/54/54 59/59/59 60/60/60
f 61/61/61 59/59/59 57/57/57
f 60/60/60 59/59/59 61/61/61
f 62/62/62 63/63/63 60/60/60
f 64/64/64 65/65/65 63/63/63
f 66/66/66 67/67/67 65/65/65
f 68/68/68 67/67/67 66/66/66
f 69/69/69 70/70/70 71/71/71
f 72/72/72 23/23/23 22/22/22
f 18/18/18 20/20/20 73/73/73
f 15/15/15 18/18/18 74/74/74
f 75/75/75 76/76/76 77/77/77
f 78/78/78 79/79/79 77/77/77
f 78/78/78 69/69/69 79/79/79
f 78/78/78 76/76/76 80/80/80
f 81/81/81 82/82/82 15/15/15
f 80/80/80 76/76/76 75/75/75
f 80/80/80 83/83/83 84/84/84
f 80/80/80 85/85/85 86/86/86
f 87/87/87 1/1/1 4/4/4
f 83/83/83 80/80/80 88/88/88
f 89/89/89 85/85/85 84/84/84
f 86/86/86 85/85/85 89/89/89
f 90/90/90 91/91/91 86/86/86
f 92/92/92 93/93/93 91/91/91
f 3/3/3 2/2/2 93/93/93
f 94/94/94 2/2/2 1/1/1
f 95/95/95 96/96/96 12/12/12
f 97/97/97 22/22/22 24/24/24
f 98/98/98 24/24/24 25/25/25
f 25/25/25 30/30/30 99/99/99
f 30/30/30 36/36/36 100/100/100
f 100/100/100 36/36/36 39/39/39
f 101/101/101 39/39/39 41/41/41
f 41/41/41 43/43/43 102/102/102
f 43/43/43 45/45/45 103/103/103
f 6/6/6 82/82/82 81/81/81
f 6/6/6 104/104/104 105/105/105
f 106/106/106 107/107/107 78/78/78
f 86/86/86 108/108/108 106/106/106
f 91/91/91 109/109/109 108/108/108
f 93/93/93 110/110/110 109/109/109
f 94/94/94 110/110/110 93/93/93
f 111/111/111 103/103/103 45/45/45
f 47/47/47 112/112/112 111/111/111
f 113/113/113 112/112/112 47/47/47
f 114/114/114 113/113/113 52/52/52
f 115/115/115 114/114/114 55/55/55
f 63/63/63 116/116/116 115/115/115
f 65/65/65 117/117/117 116/116/116
f 67/67/67 118/118/118 117/117/117
f 119/119/119 118/118/118 67/67/67
f 120/120/120 121/121/121 70/70/70
f 69/69/69 78/78/78 107/107/107
f 5/5/5 1/1/1 3/3/3
f 7/7/7 4/4/4 5/5/5
f 10/10/10 6/6/6 8/8/8
f 95/95/95 11/11/11 9/9/9
f 82/82/82 6/6/6 11/11/11
f 14/14/14 11/11/11 13/13/13
f 82/82/82 11/11/11 15/15/15
f 17/17/17 15/15/15 16/16/16
f 17/17/17 19/19/19 18/18/18
f 122/122/122 21/21/21 23/23/23
f 26/26/26 24/24/24 21/21/21
f 31/31/31 25/25/25 26/26/26
f 28/28/28 30/30/30 29/29/29
f 35/35/35 32/32/32 27/27/27
f 36/36/36 30/30/30 32/32/32
f 37/37/37 32/32/32 34/34/34
f 123/123/123 33/33/33 35/35/35
f 39/39/39 36/36/36 37/37/37
f 40/40/40 39/39/39 38/38/38
f 40/40/40 42/42/42 41/41/41
f 42/42/42 44/44/44 43/43/43
f 48/48/48 46/46/46 44/44/44
f 53/53/53 47/47/47 48/48/48
f 50/50/50 52/52/52 51/51/51
f 52/52/52 50/50/50 55/55/55
f 58/58/58 54/54/54 49/49/49
f 59/59/59 54/54/54 57/57/57
f 124/124/124 56/56/56 58/58/58
f 55/55/55 54/54/54 60/60/60
f 62/62/62 60/60/60 61/61/61
f 62/62/62 64/64/64 63/63/63
f 64/64/64 66/66/66 65/65/65
f 125/125/125 68/68/68 66/66/66
f 79/79/79 69/69/69 71/71/71
f 97/97/97 72/72/72 22/22/22
f 74/74/74 18/18/18 73/73/73
f 126/126/126 15/15/15 74/74/74
f 76/76/76 78/78/78 77/77/77
f 127/127/127 78/78/78 80/80/80
f 126/126/126 81/81/81 15/15/15
f 88/88/88 80/80/80 75/75/75
f 85/85/85 80/80/80 84/84/84
f 127/127/127 80/80/80 86/86/86
f 105/105/105 87/87/87 4/4/4
f 128/128/128 83/83/83 88/88/88
f 90/90/90 86/86/86 89/89/89
f 90/90/90 92/92/92 91/91/91
f 92/92/92 3/3/3 93/93/93
f 87/87/87 94/94/94 1/1/1
f 11/11/11 95/95/95 12/12/12
f 98/98/98 97/97/97 24/24/24
f 129/129/129 98/98/98 25/25/25
f 129/129/129 25/25/25 99/99/99
f 99/99/99 30/30/30 100/100/100
f 101/101/101 100/100/100 39/39/39
f 130/130/130 101/101/101 41/41/41
f 130/130/130 41/41/41 102/102/102
f 102/102/102 43/43/43 103/103/103
f 104/104/104 6/6/6 81/81/81
f 4/4/4 6/6/6 105/105/105
f 127/127/127 106/106/106 78/78/78
f 127/127/127 86/86/86 106/106/106
f 86/86/86 91/91/91 108/108/108
f 91/91/91 93/93/93 109/109/109
f 2/2/2 94/94/94 93/93/93
f 46/46/46 111/111/111 45/45/45
f 46/46/46 47/47/47 111/111/111
f 52/52/52 113/113/113 47/47/47
f 55/55/55 114/114/114 52/52/52
f 60/60/60 115/115/115 55/55/55
f 60/60/60 63/63/63 115/115/115
f 63/63/63 65/65/65 116/116/116
f 65/65/65 67/67/67 117/117/117
f 68/68/68 119/119/119 67/67/67
f 69/69/69 120/120/120 70/70/70
f 120/120/120 69/69/69 107/107/107
