v 0.519843 2.346681 -3.242297
v 0.519843 2.348359 -3.242297
v 0.526600 2.348359 -3.242963
v 0.492626 2.346681 -3.215081
v 0.492626 2.348359 -3.215081
v 0.494598 2.348359 -3.221579
v 0.551094 2.346681 -3.183829
v 0.551094 2.348359 -3.183829
v 0.545845 2.348359 -3.179521
v 0.526600 2.346681 -3.242963
v 0.526600 2.348359 -3.242963
v 0.533358 2.348359 -3.242297
v 0.560575 2.346681 -3.215081
v 0.560575 2.348359 -3.215081
v 0.561240 2.348359 -3.208323
v 0.561240 2.346681 -3.208323
v 0.560575 2.348359 -3.201565
v 0.545845 2.346681 -3.179521
v 0.539856 2.348359 -3.176320
v 0.497799 2.346681 -3.189078
v 0.497799 2.348359 -3.189078
v 0.494598 2.348359 -3.195067
v 0.551094 2.346681 -3.232817
v 0.551094 2.348359 -3.232817
v 0.555402 2.348359 -3.227568
v 0.555402 2.346681 -3.189078
v 0.555402 2.348359 -3.189078
v 0.558603 2.346681 -3.221579
v 0.558603 2.348359 -3.221579
v 0.497799 2.346681 -3.227568
v 0.497799 2.348359 -3.227568
v 0.502106 2.348359 -3.232817
v 0.492626 2.346681 -3.201565
v 0.492626 2.348359 -3.201565
v 0.491961 2.348359 -3.208323
v 0.502106 2.346681 -3.232817
v 0.507356 2.348359 -3.237125
v 0.507356 2.346681 -3.237125
v 0.513344 2.348359 -3.240326
v 0.539857 2.346681 -3.240326
v 0.539857 2.348359 -3.240326
v 0.545845 2.348359 -3.237125
v 0.558603 2.346681 -3.195067
v 0.558603 2.348359 -3.195067
v 0.513344 2.346681 -3.176320
v 0.513344 2.348359 -3.176320
v 0.507356 2.348359 -3.179521
v 0.545845 2.346681 -3.237125
v 0.507356 2.346681 -3.179521
v 0.502106 2.348359 -3.183829
v 0.539856 2.346681 -3.176320
v 0.533358 2.348359 -3.174349
v 0.560575 2.346681 -3.201565
v 0.502106 2.346681 -3.183829
v 0.494598 2.346681 -3.221579
v 0.533358 2.346681 -3.242297
v 0.491961 2.346681 -3.208323
v 0.555402 2.346681 -3.227568
v 0.513344 2.346681 -3.240326
v 0.533358 2.346681 -3.174349
v 0.526600 2.348359 -3.173683
v 0.526600 2.346681 -3.173683
v 0.519843 2.348359 -3.174349
v 0.494598 2.346681 -3.195067
v 0.519843 2.346681 -3.174349
v 0.526600 2.346681 -3.242963
vn -0.195100 0.000000 -0.980800
vn -0.195100 0.000000 -0.980800
vn 0.000000 0.000000 -1.000000
vn -0.980800 0.000000 -0.195100
vn -0.980800 0.000000 -0.195100
vn -0.923900 0.000000 -0.382600
vn 0.707100 0.000000 0.707100
vn 0.707100 0.000000 0.707100
vn 0.555500 0.000000 0.831500
vn 0.000000 0.000000 -1.000000
vn 0.000000 0.000000 -1.000000
vn 0.195100 0.000000 -0.980800
vn 0.980800 0.000000 -0.195000
vn 0.980800 0.000000 -0.195000
vn 1.000000 0.000000 0.000000
vn 1.000000 0.000000 0.000000
vn 0.980800 0.000000 0.195100
vn 0.555600 0.000000 0.831400
vn 0.382700 0.000000 0.923900
vn -0.831400 0.000000 0.555600
vn -0.831400 0.000000 0.555600
vn -0.923900 0.000000 0.382700
vn 0.707100 0.000000 -0.707000
vn 0.707100 0.000000 -0.707100
vn 0.831500 0.000000 -0.555500
vn 0.831500 0.000000 0.555500
vn 0.831500 0.000000 0.555500
vn 0.923900 0.000000 -0.382700
vn 0.923900 0.000000 -0.382700
vn -0.831400 0.000000 -0.555600
vn -0.831400 0.000000 -0.555600
vn -0.707100 0.000000 -0.707100
vn -0.980800 0.000000 0.195000
vn -0.980800 0.000000 0.195000
vn -1.000000 0.000000 0.000000
vn -0.707100 0.000000 -0.707100
vn -0.555600 0.000000 -0.831400
vn -0.555600 0.000000 -0.831400
vn -0.382700 0.000000 -0.923900
vn 0.382600 0.000000 -0.923900
vn 0.382600 0.000000 -0.923900
vn 0.555500 0.000000 -0.831500
vn 0.923900 0.000000 0.382600
vn 0.923900 0.000000 0.382600
vn -0.382700 0.000000 0.923900
vn -0.382700 0.000000 0.923900
vn -0.555500 0.000000 0.831500
vn 0.555600 0.000000 -0.831400
vn -0.555600 0.000000 0.831400
vn -0.707100 0.000000 0.707100
vn 0.382700 0.000000 0.923900
vn 0.195100 0.000000 0.980800
vn 0.980800 0.000000 0.195100
vn -0.707100 0.000000 0.707100
vn -0.923900 0.000000 -0.382600
vn 0.195100 0.000000 -0.980800
vn -1.000000 0.000000 0.000000
vn 0.831400 0.000000 -0.555600
vn -0.382700 0.000000 -0.923900
vn 0.195100 0.000000 0.980800
vn 0.000000 0.000000 1.000000
vn 0.000000 0.000000 1.000000
vn -0.195000 0.000000 0.980800
vn -0.923900 0.000000 0.382600
vn -0.195000 0.000000 0.980800
vn 0.000000 0.000000 -1.000000
vt 0.032848 0.625575
vt 0.032452 0.626035
vt 0.000000 0.625999
vt 0.203556 0.627050
vt 0.202343 0.627510
vt 0.177523 0.627158
vt 0.480995 0.628745
vt 0.481624 0.629205
vt 0.460516 0.629438
vt 0.795999 0.625539
vt 0.795999 0.625999
vt 0.763547 0.626035
vt 0.592443 0.627050
vt 0.593656 0.627510
vt 0.569895 0.627877
vt 0.568761 0.627417
vt 0.546985 0.628243
vt 0.460039 0.628978
vt 0.439587 0.629612
vt 0.293777 0.628460
vt 0.293003 0.628920
vt 0.271260 0.628595
vt 0.670944 0.626089
vt 0.672109 0.626549
vt 0.644567 0.626833
vt 0.502222 0.628460
vt 0.502996 0.628920
vt 0.617222 0.626698
vt 0.618476 0.627158
vt 0.152677 0.626374
vt 0.151433 0.626833
vt 0.123890 0.626549
vt 0.250045 0.627783
vt 0.249014 0.628243
vt 0.226104 0.627877
vt 0.125056 0.626089
vt 0.094801 0.626315
vt 0.095801 0.625855
vt 0.064226 0.626142
vt 0.731032 0.625682
vt 0.731773 0.626142
vt 0.701198 0.626315
vt 0.523830 0.628136
vt 0.524739 0.628595
vt 0.356733 0.629152
vt 0.356412 0.629612
vt 0.335483 0.629438
vt 0.700198 0.625855
vt 0.335960 0.628978
vt 0.314375 0.629205
vt 0.439266 0.629152
vt 0.418767 0.629718
vt 0.545954 0.627783
vt 0.315004 0.628745
vt 0.178777 0.626698
vt 0.763151 0.625575
vt 0.227239 0.627417
vt 0.643322 0.626374
vt 0.064967 0.625682
vt 0.418606 0.629259
vt 0.397999 0.629755
vt 0.397999 0.629323
vt 0.377232 0.629718
vt 0.272169 0.628136
vt 0.377393 0.629259
vt 0.000000 0.625539
f 1/1/1 2/2/2 3/3/3
f 4/4/4 5/5/5 6/6/6
f 7/7/7 8/8/8 9/9/9
f 10/10/10 11/11/11 12/12/12
f 13/13/13 14/14/14 15/15/15
f 16/16/16 15/15/15 17/17/17
f 18/18/18 9/9/9 19/19/19
f 20/20/20 21/21/21 22/22/22
f 23/23/23 24/24/24 25/25/25
f 26/26/26 27/27/27 8/8/8
f 28/28/28 29/29/29 14/14/14
f 30/30/30 31/31/31 32/32/32
f 33/33/33 34/34/34 35/35/35
f 36/36/36 32/32/32 37/37/37
f 38/38/38 37/37/37 39/39/39
f 40/40/40 41/41/41 42/42/42
f 43/43/43 44/44/44 27/27/27
f 45/45/45 46/46/46 47/47/47
f 48/48/48 42/42/42 24/24/24
f 49/49/49 47/47/47 50/50/50
f 51/51/51 19/19/19 52/52/52
f 53/53/53 17/17/17 44/44/44
f 54/54/54 50/50/50 21/21/21
f 55/55/55 6/6/6 31/31/31
f 56/56/56 12/12/12 41/41/41
f 57/57/57 35/35/35 5/5/5
f 58/58/58 25/25/25 29/29/29
f 59/59/59 39/39/39 2/2/2
f 60/60/60 52/52/52 61/61/61
f 62/62/62 61/61/61 63/63/63
f 64/64/64 22/22/22 34/34/34
f 65/65/65 63/63/63 46/46/46
f 66/66/66 1/1/1 3/3/3
f 55/55/55 4/4/4 6/6/6
f 18/18/18 7/7/7 9/9/9
f 56/56/56 10/10/10 12/12/12
f 16/16/16 13/13/13 15/15/15
f 53/53/53 16/16/16 17/17/17
f 51/51/51 18/18/18 19/19/19
f 64/64/64 20/20/20 22/22/22
f 58/58/58 23/23/23 25/25/25
f 7/7/7 26/26/26 8/8/8
f 13/13/13 28/28/28 14/14/14
f 36/36/36 30/30/30 32/32/32
f 57/57/57 33/33/33 35/35/35
f 38/38/38 36/36/36 37/37/37
f 59/59/59 38/38/38 39/39/39
f 48/48/48 40/40/40 42/42/42
f 26/26/26 43/43/43 27/27/27
f 49/49/49 45/45/45 47/47/47
f 23/23/23 48/48/48 24/24/24
f 54/54/54 49/49/49 50/50/50
f 60/60/60 51/51/51 52/52/52
f 43/43/43 53/53/53 44/44/44
f 20/20/20 54/54/54 21/21/21
f 30/30/30 55/55/55 31/31/31
f 40/40/40 56/56/56 41/41/41
f 4/4/4 57/57/57 5/5/5
f 28/28/28 58/58/58 29/29/29
f 1/1/1 59/59/59 2/2/2
f 62/62/62 60/60/60 61/61/61
f 65/65/65 62/62/62 63/63/63
f 33/33/33 64/64/64 34/34/34
f 45/45/45 65/65/65 46/46/46
