v 0.458550 1.920158 -1.473845
v 0.457201 1.920158 -1.460150
v 0.455440 1.924441 -1.460150
v 0.469031 1.920158 -1.421151
v 0.477761 1.920158 -1.410514
v 0.476516 1.924441 -1.409269
v 0.458550 1.920158 -1.446455
v 0.456823 1.924441 -1.446112
v 0.462545 1.920158 -1.433287
v 0.467567 1.924441 -1.420173
v 0.488398 1.920158 -1.401784
v 0.487420 1.924441 -1.400320
v 0.499861 1.924441 -1.393670
v 0.500534 1.920158 -1.395297
v 0.513703 1.920158 -1.391303
v 0.513703 1.920158 -1.391303
v 0.527397 1.920158 -1.389954
v 0.527397 1.924441 -1.388193
v 0.541092 1.920158 -1.391303
v 0.541435 1.924441 -1.389575
v 0.554934 1.924441 -1.393670
v 0.554260 1.920158 -1.395297
v 0.566396 1.920158 -1.401784
v 0.577034 1.920158 -1.410514
v 0.578279 1.924441 -1.409268
v 0.585763 1.920158 -1.421151
v 0.587228 1.924441 -1.420173
v 0.593877 1.924441 -1.432613
v 0.592250 1.920158 -1.433287
v 0.596245 1.920158 -1.446455
v 0.597594 1.920158 -1.460150
v 0.599355 1.924441 -1.460150
v 0.596245 1.920158 -1.473845
v 0.593877 1.924441 -1.487687
v 0.592250 1.920158 -1.487013
v 0.585763 1.920158 -1.499149
v 0.587228 1.924441 -1.500127
v 0.577034 1.920158 -1.509786
v 0.578279 1.924441 -1.511031
v 0.566396 1.920158 -1.518516
v 0.554260 1.920158 -1.525003
v 0.541092 1.920158 -1.528997
v 0.541436 1.924441 -1.530725
v 0.527397 1.920158 -1.530346
v 0.513703 1.920158 -1.528997
v 0.513359 1.924441 -1.530725
v 0.500534 1.920158 -1.525003
v 0.488398 1.920158 -1.518516
v 0.487420 1.924441 -1.519980
v 0.477761 1.920158 -1.509786
v 0.476516 1.924441 -1.511031
v 0.469031 1.920158 -1.499149
v 0.467567 1.924441 -1.500127
v 0.462544 1.920158 -1.487013
v 0.456823 1.924441 -1.474188
v 0.460918 1.924441 -1.432613
v 0.597972 1.924441 -1.474188
v 0.554934 1.924441 -1.526630
v 0.567375 1.924441 -1.519980
v 0.499861 1.924441 -1.526630
v 0.513359 1.924441 -1.530725
v 0.513359 1.924441 -1.389575
v 0.513359 1.924441 -1.389575
v 0.567375 1.924441 -1.400320
v 0.597972 1.924441 -1.446112
v 0.527397 1.924441 -1.532107
v 0.460918 1.924441 -1.487687
v 0.513703 1.920158 -1.528997
vn -0.907100 -0.380300 -0.180400
vn -0.924800 -0.380300 0.000000
vn -0.924800 -0.380300 0.000000
vn -0.769000 -0.380300 0.513800
vn -0.654000 -0.380300 0.654000
vn -0.654000 -0.380300 0.654000
vn -0.907100 -0.380300 0.180400
vn -0.907100 -0.380300 0.180400
vn -0.854400 -0.380300 0.353900
vn -0.769000 -0.380300 0.513800
vn -0.513800 -0.380300 0.769000
vn -0.513800 -0.380300 0.769000
vn -0.353900 -0.380300 0.854400
vn -0.353900 -0.380300 0.854400
vn -0.180400 -0.380300 0.907100
vn -0.180400 -0.380300 0.907100
vn 0.000000 -0.380300 0.924800
vn 0.000000 -0.380300 0.924800
vn 0.180400 -0.380300 0.907100
vn 0.180400 -0.380300 0.907100
vn 0.353900 -0.380300 0.854500
vn 0.353900 -0.380300 0.854500
vn 0.513800 -0.380300 0.769000
vn 0.654000 -0.380300 0.654000
vn 0.654000 -0.380300 0.654000
vn 0.769000 -0.380300 0.513800
vn 0.769000 -0.380300 0.513800
vn 0.854400 -0.380300 0.353900
vn 0.854400 -0.380300 0.353900
vn 0.907100 -0.380300 0.180400
vn 0.924800 -0.380300 0.000000
vn 0.924800 -0.380300 0.000000
vn 0.907100 -0.380300 -0.180400
vn 0.854500 -0.380300 -0.353900
vn 0.854500 -0.380300 -0.353900
vn 0.769000 -0.380300 -0.513800
vn 0.769000 -0.380300 -0.513800
vn 0.654000 -0.380300 -0.654000
vn 0.654000 -0.380300 -0.654000
vn 0.513800 -0.380300 -0.769000
vn 0.353900 -0.380300 -0.854500
vn 0.180400 -0.380300 -0.907100
vn 0.180400 -0.380300 -0.907100
vn 0.000000 -0.380300 -0.924800
vn -0.180400 -0.380300 -0.907100
vn -0.180400 -0.380300 -0.907100
vn -0.353900 -0.380300 -0.854500
vn -0.513800 -0.380300 -0.769000
vn -0.513800 -0.380300 -0.769000
vn -0.654000 -0.380300 -0.654000
vn -0.654000 -0.380300 -0.654000
vn -0.769000 -0.380300 -0.513800
vn -0.769000 -0.380300 -0.513800
vn -0.854400 -0.380300 -0.353900
vn -0.907100 -0.380300 -0.180400
vn -0.854400 -0.380300 0.353900
vn 0.907100 -0.380300 -0.180400
vn 0.353900 -0.380300 -0.854500
vn 0.513800 -0.380300 -0.769000
vn -0.353900 -0.380300 -0.854500
vn -0.180400 -0.380300 -0.907100
vn -0.180400 -0.380300 0.907100
vn -0.180400 -0.380300 0.907100
vn 0.513800 -0.380300 0.769000
vn 0.907100 -0.380300 0.180400
vn 0.000000 -0.380300 -0.924900
vn -0.854400 -0.380300 -0.353900
vn -0.180400 -0.380300 -0.907100
vt 0.034103 0.912231
vt 0.036820 0.913500
vt 0.037539 0.915507
vt 0.037457 0.917115
vt 0.034157 0.918101
vt 0.035042 0.920224
vt 0.038472 0.914770
vt 0.039270 0.916808
vt 0.038787 0.915990
vt 0.038354 0.919213
vt 0.028626 0.918911
vt 0.029426 0.921053
vt 0.021419 0.921670
vt 0.020799 0.919512
vt 0.010988 0.919882
vt 0.722533 0.919882
vt 0.711545 0.920007
vt 0.711545 0.922177
vt 0.700557 0.919882
vt 0.700214 0.922049
vt 0.690126 0.921670
vt 0.690746 0.919512
vt 0.682919 0.918911
vt 0.677388 0.918101
vt 0.676503 0.920224
vt 0.674088 0.917115
vt 0.673191 0.919213
vt 0.671895 0.918060
vt 0.672757 0.915990
vt 0.673073 0.914770
vt 0.674725 0.913500
vt 0.674006 0.915507
vt 0.677442 0.912231
vt 0.680460 0.912954
vt 0.681000 0.911010
vt 0.685215 0.909885
vt 0.684766 0.911801
vt 0.689933 0.908899
vt 0.689575 0.910790
vt 0.695028 0.908090
vt 0.700391 0.907488
vt 0.705926 0.907118
vt 0.705837 0.908965
vt 0.711545 0.906993
vt 0.717164 0.907118
vt 0.717252 0.908965
vt 0.011154 0.907488
vt 0.016517 0.908090
vt 0.016784 0.909961
vt 0.021612 0.908899
vt 0.021969 0.910790
vt 0.026330 0.909885
vt 0.026779 0.911801
vt 0.030544 0.911010
vt 0.034734 0.914206
vt 0.039649 0.918060
vt 0.676811 0.914206
vt 0.700213 0.909344
vt 0.694761 0.909961
vt 0.011331 0.909344
vt 0.005708 0.908965
vt 0.011331 0.922049
vt 0.722875 0.922049
vt 0.682119 0.921053
vt 0.672275 0.916808
vt 0.711545 0.908836
vt 0.031085 0.912954
vt 0.005619 0.907118
f 1/1/1 2/2/2 3/3/3
f 4/4/4 5/5/5 6/6/6
f 2/2/2 7/7/7 8/8/8
f 9/9/9 4/4/4 10/10/10
f 5/5/5 11/11/11 12/12/12
f 13/13/13 14/14/14 15/15/15
f 16/16/16 17/17/17 18/18/18
f 17/17/17 19/19/19 20/20/20
f 21/21/21 22/22/22 23/23/23
f 23/23/23 24/24/24 25/25/25
f 24/24/24 26/26/26 27/27/27
f 28/28/28 29/29/29 30/30/30
f 30/30/30 31/31/31 32/32/32
f 32/32/32 31/31/31 33/33/33
f 34/34/34 35/35/35 36/36/36
f 37/37/37 36/36/36 38/38/38
f 39/39/39 38/38/38 40/40/40
f 41/41/41 42/42/42 43/43/43
f 43/43/43 42/42/42 44/44/44
f 44/44/44 45/45/45 46/46/46
f 47/47/47 48/48/48 49/49/49
f 49/49/49 48/48/48 50/50/50
f 51/51/51 50/50/50 52/52/52
f 53/53/53 52/52/52 54/54/54
f 54/54/54 1/1/1 55/55/55
f 56/56/56 8/8/8 7/7/7
f 14/14/14 13/13/13 12/12/12
f 21/21/21 20/20/20 19/19/19
f 29/29/29 28/28/28 27/27/27
f 35/35/35 34/34/34 57/57/57
f 58/58/58 59/59/59 40/40/40
f 47/47/47 60/60/60 61/61/61
f 55/55/55 1/1/1 3/3/3
f 10/10/10 4/4/4 6/6/6
f 3/3/3 2/2/2 8/8/8
f 56/56/56 9/9/9 10/10/10
f 6/6/6 5/5/5 12/12/12
f 62/62/62 13/13/13 15/15/15
f 63/63/63 16/16/16 18/18/18
f 18/18/18 17/17/17 20/20/20
f 64/64/64 21/21/21 23/23/23
f 64/64/64 23/23/23 25/25/25
f 25/25/25 24/24/24 27/27/27
f 65/65/65 28/28/28 30/30/30
f 65/65/65 30/30/30 32/32/32
f 57/57/57 32/32/32 33/33/33
f 37/37/37 34/34/34 36/36/36
f 39/39/39 37/37/37 38/38/38
f 59/59/59 39/39/39 40/40/40
f 58/58/58 41/41/41 43/43/43
f 66/66/66 43/43/43 44/44/44
f 66/66/66 44/44/44 46/46/46
f 60/60/60 47/47/47 49/49/49
f 51/51/51 49/49/49 50/50/50
f 53/53/53 51/51/51 52/52/52
f 67/67/67 53/53/53 54/54/54
f 67/67/67 54/54/54 55/55/55
f 9/9/9 56/56/56 7/7/7
f 11/11/11 14/14/14 12/12/12
f 22/22/22 21/21/21 19/19/19
f 26/26/26 29/29/29 27/27/27
f 33/33/33 35/35/35 57/57/57
f 41/41/41 58/58/58 40/40/40
f 68/68/68 47/47/47 61/61/61
