v -0.114388 4.398927 -2.216571
v -0.113059 4.396337 -2.216909
v -0.137590 4.382425 -2.206748
v -0.111631 4.393846 -2.216872
v -0.136162 4.379934 -2.206710
v -0.110159 4.391551 -2.216460
v -0.134690 4.377639 -2.206299
v -0.108699 4.389539 -2.215690
v -0.133231 4.375627 -2.205529
v -0.107308 4.387888 -2.214592
v -0.106038 4.386661 -2.213207
v -0.130570 4.372749 -2.203046
v -0.104940 4.385905 -2.211589
v -0.104054 4.385650 -2.209799
v -0.128585 4.371738 -2.199638
v -0.103415 4.385905 -2.207908
v -0.103048 4.386661 -2.205987
v -0.127579 4.372749 -2.195825
v -0.102966 4.387887 -2.204110
v -0.103173 4.389539 -2.202349
v -0.127705 4.375627 -2.192188
v -0.103661 4.391551 -2.200773
v -0.128192 4.377639 -2.190611
v -0.104411 4.393846 -2.199441
v -0.128942 4.379934 -2.189280
v -0.105394 4.396337 -2.198405
v -0.106573 4.398927 -2.197704
v -0.131104 4.385015 -2.187543
v -0.107901 4.401517 -2.197366
v -0.132433 4.387605 -2.187205
v -0.109329 4.404007 -2.197403
v -0.133861 4.390096 -2.187242
v -0.110801 4.406302 -2.197815
v -0.112261 4.408314 -2.198585
v -0.136793 4.394403 -2.188423
v -0.113653 4.409966 -2.199683
v -0.138184 4.396054 -2.189522
v -0.114922 4.411192 -2.201068
v -0.139454 4.397281 -2.190907
v -0.116021 4.411948 -2.202686
v -0.116907 4.412203 -2.204476
v -0.141438 4.398291 -2.194314
v -0.117545 4.411948 -2.206367
v -0.142077 4.398036 -2.196206
v -0.117913 4.411192 -2.208288
v -0.142444 4.397281 -2.198127
v -0.117994 4.409966 -2.210165
v -0.142526 4.396054 -2.200004
v -0.117787 4.408314 -2.211926
v -0.142319 4.394403 -2.201764
v -0.117299 4.406302 -2.213502
v -0.116549 4.404007 -2.214834
v -0.141081 4.390096 -2.204673
v -0.115566 4.401517 -2.215870
v -0.140098 4.387605 -2.205709
v -0.138919 4.385015 -2.206410
v -0.131839 4.373976 -2.204430
v -0.129471 4.371994 -2.201427
v -0.127946 4.371994 -2.197747
v -0.127498 4.373976 -2.193949
v -0.129926 4.382425 -2.188243
v -0.135333 4.392391 -2.187654
v -0.140552 4.398036 -2.192525
v -0.141831 4.392391 -2.203341
vn -0.382600 0.000000 -0.923900
vn -0.321300 -0.119600 -0.939400
vn -0.321300 -0.119600 -0.939400
vn -0.251100 -0.241800 -0.937300
vn -0.251200 -0.241900 -0.937200
vn -0.169300 -0.368800 -0.914000
vn -0.169400 -0.368800 -0.913900
vn -0.072900 -0.501200 -0.862200
vn -0.073000 -0.501100 -0.862300
vn 0.040500 -0.635000 -0.771400
vn 0.169800 -0.758700 -0.628900
vn 0.169800 -0.758700 -0.628800
vn 0.305700 -0.851000 -0.426900
vn 0.428700 -0.885800 -0.177500
vn 0.428700 -0.885800 -0.177600
vn 0.518100 -0.851000 0.085700
vn 0.564700 -0.758800 0.324500
vn 0.564700 -0.758700 0.324600
vn 0.574200 -0.634900 0.516900
vn 0.558100 -0.501100 0.661400
vn 0.558100 -0.501100 0.661300
vn 0.526300 -0.368800 0.766100
vn 0.526500 -0.368900 0.766000
vn 0.485200 -0.241800 0.840300
vn 0.485200 -0.241800 0.840300
vn 0.437100 -0.119500 0.891400
vn 0.382700 0.000000 0.923900
vn 0.382700 0.000000 0.923800
vn 0.321300 0.119500 0.939400
vn 0.321300 0.119500 0.939400
vn 0.251100 0.241800 0.937300
vn 0.251000 0.241800 0.937300
vn 0.169400 0.368900 0.913900
vn 0.073000 0.501100 0.862300
vn 0.073000 0.501100 0.862300
vn -0.040400 0.634800 0.771500
vn -0.040500 0.634800 0.771500
vn -0.169800 0.758800 0.628800
vn -0.169900 0.758800 0.628800
vn -0.305700 0.851100 0.426800
vn -0.428800 0.885800 0.177400
vn -0.428700 0.885800 0.177600
vn -0.518100 0.851000 -0.085800
vn -0.518100 0.851000 -0.085700
vn -0.564700 0.758800 -0.324600
vn -0.564700 0.758800 -0.324600
vn -0.574100 0.634900 -0.517000
vn -0.574200 0.634900 -0.516900
vn -0.558100 0.501100 -0.661400
vn -0.558100 0.501100 -0.661300
vn -0.526400 0.368800 -0.766000
vn -0.485100 0.241800 -0.840300
vn -0.485200 0.241800 -0.840300
vn -0.437000 0.119500 -0.891500
vn -0.437100 0.119500 -0.891400
vn -0.382700 0.000000 -0.923800
vn 0.040500 -0.634900 -0.771500
vn 0.305600 -0.851000 -0.427000
vn 0.518100 -0.850900 0.085800
vn 0.574200 -0.634900 0.516800
vn 0.437000 -0.119600 0.891400
vn 0.169300 0.368900 0.913900
vn -0.305700 0.851000 0.427000
vn -0.526400 0.368900 -0.766000
vt 0.000000 0.000000
vt 0.000000 0.000000
vt 0.000000 0.000000
vt 0.000000 0.000000
vt 0.000000 0.000000
vt 0.000000 0.000000
vt 0.000000 0.000000
vt 0.000000 0.000000
vt 0.000000 0.000000
vt 0.000000 0.000000
vt 0.000000 0.000000
vt 0.000000 0.000000
vt 0.000000 0.000000
vt 0.000000 0.000000
vt 0.000000 0.000000
vt 0.000000 0.000000
vt 0.000000 0.000000
vt 0.000000 0.000000
vt 0.000000 0.000000
vt 0.000000 0.000000
vt 0.000000 0.000000
vt 0.000000 0.000000
vt 0.000000 0.000000
vt 0.000000 0.000000
vt 0.000000 0.000000
vt 0.000000 0.000000
vt 0.000000 0.000000
vt 0.000000 0.000000
vt 0.000000 0.000000
vt 0.000000 0.000000
vt 0.000000 0.000000
vt 0.000000 0.000000
vt 0.000000 0.000000
vt 0.000000 0.000000
vt 0.000000 0.000000
vt 0.000000 0.000000
vt 0.000000 0.000000
vt 0.000000 0.000000
vt 0.000000 0.000000
vt 0.000000 0.000000
vt 0.000000 0.000000
vt 0.000000 0.000000
vt 0.000000 0.000000
vt 0.000000 0.000000
vt 0.000000 0.000000
vt 0.000000 0.000000
vt 0.000000 0.000000
vt 0.000000 0.000000
vt 0.000000 0.000000
vt 0.000000 0.000000
vt 0.000000 0.000000
vt 0.000000 0.000000
vt 0.000000 0.000000
vt 0.000000 0.000000
vt 0.000000 0.000000
vt 0.000000 0.000000
vt 0.000000 0.000000
vt 0.000000 0.000000
vt 0.000000 0.000000
vt 0.000000 0.000000
vt 0.000000 0.000000
vt 0.000000 0.000000
vt 0.000000 0.000000
vt 0.000000 0.000000
f 1/1/1 2/2/2 3/3/3
f 2/2/2 4/4/4 5/5/5
f 5/5/5 4/4/4 6/6/6
f 7/7/7 6/6/6 8/8/8
f 9/9/9 8/8/8 10/10/10
f 10/10/10 11/11/11 12/12/12
f 12/12/12 11/11/11 13/13/13
f 13/13/13 14/14/14 15/15/15
f 15/15/15 14/14/14 16/16/16
f 16/16/16 17/17/17 18/18/18
f 18/18/18 17/17/17 19/19/19
f 19/19/19 20/20/20 21/21/21
f 20/20/20 22/22/22 23/23/23
f 22/22/22 24/24/24 25/25/25
f 25/25/25 24/24/24 26/26/26
f 26/26/26 27/27/27 28/28/28
f 27/27/27 29/29/29 30/30/30
f 30/30/30 29/29/29 31/31/31
f 32/32/32 31/31/31 33/33/33
f 33/33/33 34/34/34 35/35/35
f 35/35/35 34/34/34 36/36/36
f 37/37/37 36/36/36 38/38/38
f 39/39/39 38/38/38 40/40/40
f 40/40/40 41/41/41 42/42/42
f 41/41/41 43/43/43 44/44/44
f 43/43/43 45/45/45 46/46/46
f 46/46/46 45/45/45 47/47/47
f 48/48/48 47/47/47 49/49/49
f 50/50/50 49/49/49 51/51/51
f 51/51/51 52/52/52 53/53/53
f 52/52/52 54/54/54 55/55/55
f 54/54/54 1/1/1 56/56/56
f 56/56/56 1/1/1 3/3/3
f 3/3/3 2/2/2 5/5/5
f 7/7/7 5/5/5 6/6/6
f 9/9/9 7/7/7 8/8/8
f 57/57/57 9/9/9 10/10/10
f 57/57/57 10/10/10 12/12/12
f 58/58/58 12/12/12 13/13/13
f 58/58/58 13/13/13 15/15/15
f 59/59/59 15/15/15 16/16/16
f 59/59/59 16/16/16 18/18/18
f 60/60/60 18/18/18 19/19/19
f 60/60/60 19/19/19 21/21/21
f 21/21/21 20/20/20 23/23/23
f 23/23/23 22/22/22 25/25/25
f 61/61/61 25/25/25 26/26/26
f 61/61/61 26/26/26 28/28/28
f 28/28/28 27/27/27 30/30/30
f 32/32/32 30/30/30 31/31/31
f 62/62/62 32/32/32 33/33/33
f 62/62/62 33/33/33 35/35/35
f 37/37/37 35/35/35 36/36/36
f 39/39/39 37/37/37 38/38/38
f 63/63/63 39/39/39 40/40/40
f 63/63/63 40/40/40 42/42/42
f 42/42/42 41/41/41 44/44/44
f 44/44/44 43/43/43 46/46/46
f 48/48/48 46/46/46 47/47/47
f 50/50/50 48/48/48 49/49/49
f 64/64/64 50/50/50 51/51/51
f 64/64/64 51/51/51 53/53/53
f 53/53/53 52/52/52 55/55/55
f 55/55/55 54/54/54 56/56/56
