v -0.341602 4.618503 -1.563283
v -0.342848 4.620243 -1.566290
v -0.340886 4.620243 -1.566885
v -0.340251 4.617432 -1.560021
v -0.340251 4.618503 -1.563693
v -0.338846 4.620243 -1.567086
v -0.338846 4.618503 -1.563831
v -0.338846 4.617432 -1.560300
v -0.336807 4.620244 -1.566885
v -0.337441 4.618504 -1.563692
v -0.338130 4.617432 -1.560230
v -0.334845 4.620244 -1.566289
v -0.336090 4.618504 -1.563282
v -0.333038 4.620244 -1.565323
v -0.337441 4.617432 -1.560021
v -0.334845 4.618504 -1.562617
v -0.331453 4.620244 -1.564023
v -0.333753 4.618504 -1.561721
v -0.336250 4.617433 -1.559225
v -0.330153 4.620244 -1.562438
v -0.332858 4.618505 -1.560630
v -0.329187 4.620244 -1.560631
v -0.335793 4.617433 -1.558668
v -0.332192 4.618504 -1.559385
v -0.328592 4.620244 -1.558669
v -0.335454 4.617433 -1.558033
v -0.331782 4.618504 -1.558034
v -0.328391 4.620244 -1.556630
v -0.335245 4.617433 -1.557345
v -0.331644 4.618504 -1.556629
v -0.328592 4.620243 -1.554590
v -0.335174 4.617433 -1.556629
v -0.331783 4.618504 -1.555224
v -0.329187 4.620243 -1.552629
v -0.335245 4.617432 -1.555912
v -0.332192 4.618504 -1.553873
v -0.330153 4.620243 -1.550822
v -0.335454 4.617432 -1.555224
v -0.332858 4.618503 -1.552628
v -0.331453 4.620243 -1.549237
v -0.335793 4.617432 -1.554589
v -0.333754 4.618503 -1.551537
v -0.333038 4.620243 -1.547937
v -0.336250 4.617432 -1.554033
v -0.334845 4.618503 -1.550642
v -0.334846 4.620243 -1.546971
v -0.336806 4.617432 -1.553576
v -0.336090 4.618503 -1.549976
v -0.336807 4.620243 -1.546377
v -0.337441 4.617432 -1.553237
v -0.337441 4.618503 -1.549567
v -0.338847 4.620243 -1.546176
v -0.338130 4.617432 -1.553028
v -0.338846 4.618503 -1.549428
v -0.340887 4.620242 -1.546377
v -0.340251 4.618503 -1.549567
v -0.339562 4.617432 -1.553028
v -0.342848 4.620242 -1.546972
v -0.341602 4.618503 -1.549977
v -0.340251 4.617432 -1.553237
v -0.344656 4.620243 -1.547939
v -0.342848 4.618503 -1.550642
v -0.340886 4.617432 -1.553577
v -0.346240 4.620243 -1.549239
v -0.343939 4.618503 -1.551538
v -0.341442 4.617432 -1.554033
v -0.347540 4.620243 -1.550824
v -0.344835 4.618503 -1.552629
v -0.341899 4.617432 -1.554590
v -0.348507 4.620243 -1.552631
v -0.345500 4.618503 -1.553875
v -0.342238 4.617432 -1.555224
v -0.349102 4.620243 -1.554592
v -0.345910 4.618503 -1.555226
v -0.342447 4.617432 -1.555913
v -0.349302 4.620243 -1.556632
v -0.346048 4.618503 -1.556631
v -0.342517 4.617432 -1.556629
v -0.349102 4.620243 -1.558672
v -0.345910 4.618503 -1.558035
v -0.342447 4.617432 -1.557346
v -0.348506 4.620242 -1.560633
v -0.345500 4.618503 -1.559386
v -0.342238 4.617432 -1.558034
v -0.347540 4.620242 -1.562440
v -0.344834 4.618503 -1.560631
v -0.341899 4.617432 -1.558669
v -0.346240 4.620243 -1.564024
v -0.343939 4.618503 -1.561722
v -0.341442 4.617432 -1.559225
v -0.344655 4.620243 -1.565324
v -0.342847 4.618503 -1.562618
v -0.338846 4.617070 -1.556629
v -0.339562 4.617432 -1.560230
v -0.336806 4.617432 -1.559681
v -0.338846 4.617432 -1.552958
v -0.340886 4.617432 -1.559682
vn -0.148200 -0.921700 -0.358400
vn -0.214000 -0.828700 -0.517200
vn -0.109000 -0.828600 -0.549100
vn -0.076900 -0.979600 -0.185700
vn -0.075600 -0.921700 -0.380500
vn 0.000100 -0.828600 -0.559800
vn 0.000200 -0.921700 -0.387900
vn 0.000300 -0.979600 -0.201000
vn 0.109300 -0.828600 -0.549100
vn 0.075900 -0.921700 -0.380500
vn 0.039500 -0.979600 -0.197100
vn 0.214400 -0.828600 -0.517100
vn 0.148600 -0.921700 -0.358200
vn 0.311100 -0.828500 -0.465500
vn 0.077000 -0.979600 -0.185700
vn 0.215700 -0.921700 -0.322400
vn 0.395900 -0.828500 -0.396000
vn 0.274400 -0.921600 -0.274400
vn 0.142500 -0.979500 -0.142000
vn 0.465600 -0.828500 -0.311100
vn 0.322700 -0.921600 -0.215600
vn 0.517300 -0.828500 -0.214300
vn 0.167300 -0.979600 -0.111600
vn 0.358400 -0.921700 -0.148500
vn 0.549200 -0.828500 -0.109300
vn 0.185800 -0.979600 -0.076600
vn 0.380600 -0.921600 -0.076100
vn 0.560000 -0.828500 -0.000200
vn 0.197300 -0.979600 -0.039100
vn 0.388000 -0.921600 -0.000400
vn 0.549300 -0.828500 0.109200
vn 0.201100 -0.979600 -0.000300
vn 0.380500 -0.921600 0.075700
vn 0.517400 -0.828500 0.214300
vn 0.197300 -0.979600 0.038600
vn 0.358600 -0.921600 0.148700
vn 0.465700 -0.828500 0.311100
vn 0.185700 -0.979600 0.076900
vn 0.322700 -0.921500 0.215800
vn 0.396000 -0.828400 0.396000
vn 0.167300 -0.979600 0.111500
vn 0.274400 -0.921600 0.274500
vn 0.311200 -0.828400 0.465700
vn 0.142400 -0.979600 0.141800
vn 0.215700 -0.921600 0.322600
vn 0.214400 -0.828400 0.517500
vn 0.111700 -0.979600 0.167100
vn 0.148600 -0.921600 0.358500
vn 0.109200 -0.828300 0.549500
vn 0.076800 -0.979600 0.185700
vn 0.075700 -0.921600 0.380600
vn 0.000000 -0.828400 0.560200
vn 0.039200 -0.979600 0.197100
vn -0.000000 -0.921600 0.388000
vn -0.109200 -0.828400 0.549400
vn -0.075700 -0.921600 0.380600
vn -0.039200 -0.979600 0.197100
vn -0.214500 -0.828400 0.517400
vn -0.148500 -0.921600 0.358500
vn -0.076900 -0.979600 0.185700
vn -0.311300 -0.828400 0.465700
vn -0.215600 -0.921600 0.322700
vn -0.111600 -0.979600 0.167200
vn -0.396000 -0.828500 0.396000
vn -0.274400 -0.921600 0.274400
vn -0.142100 -0.979600 0.142200
vn -0.465700 -0.828500 0.311100
vn -0.322600 -0.921600 0.215600
vn -0.167100 -0.979600 0.111600
vn -0.517300 -0.828500 0.214300
vn -0.358500 -0.921700 0.148400
vn -0.185600 -0.979600 0.076800
vn -0.549200 -0.828500 0.109200
vn -0.380500 -0.921700 0.075400
vn -0.197100 -0.979600 0.039200
vn -0.559900 -0.828500 0.000000
vn -0.387900 -0.921700 -0.000200
vn -0.200900 -0.979600 0.000400
vn -0.549100 -0.828600 -0.109300
vn -0.380400 -0.921700 -0.075900
vn -0.197000 -0.979600 -0.038900
vn -0.517100 -0.828600 -0.214200
vn -0.358300 -0.921700 -0.148600
vn -0.185600 -0.979600 -0.076700
vn -0.465300 -0.828600 -0.311100
vn -0.322400 -0.921700 -0.215600
vn -0.167000 -0.979600 -0.111600
vn -0.395700 -0.828600 -0.395900
vn -0.274200 -0.921700 -0.274400
vn -0.142000 -0.979600 -0.142000
vn -0.310900 -0.828600 -0.465500
vn -0.215300 -0.921700 -0.322600
vn 0.000100 -1.000000 -0.000000
vn -0.039200 -0.979600 -0.197200
vn 0.112000 -0.979600 -0.166900
vn 0.000000 -0.979600 0.201000
vn -0.111500 -0.979600 -0.167100
vt 0.000000 0.000000
vt 0.000000 0.000000
vt 0.000000 0.000000
vt 0.000000 0.000000
vt 0.000000 0.000000
vt 0.000000 0.000000
vt 0.000000 0.000000
vt 0.000000 0.000000
vt 0.000000 0.000000
vt 0.000000 0.000000
vt 0.000000 0.000000
vt 0.000000 0.000000
vt 0.000000 0.000000
vt 0.000000 0.000000
vt 0.000000 0.000000
vt 0.000000 0.000000
vt 0.000000 0.000000
vt 0.000000 0.000000
vt 0.000000 0.000000
vt 0.000000 0.000000
vt 0.000000 0.000000
vt 0.000000 0.000000
vt 0.000000 0.000000
vt 0.000000 0.000000
vt 0.000000 0.000000
vt 0.000000 0.000000
vt 0.000000 0.000000
vt 0.000000 0.000000
vt 0.000000 0.000000
vt 0.000000 0.000000
vt 0.000000 0.000000
vt 0.000000 0.000000
vt 0.000000 0.000000
vt 0.000000 0.000000
vt 0.000000 0.000000
vt 0.000000 0.000000
vt 0.000000 0.000000
vt 0.000000 0.000000
vt 0.000000 0.000000
vt 0.000000 0.000000
vt 0.000000 0.000000
vt 0.000000 0.000000
vt 0.000000 0.000000
vt 0.000000 0.000000
vt 0.000000 0.000000
vt 0.000000 0.000000
vt 0.000000 0.000000
vt 0.000000 0.000000
vt 0.000000 0.000000
vt 0.000000 0.000000
vt 0.000000 0.000000
vt 0.000000 0.000000
vt 0.000000 0.000000
vt 0.000000 0.000000
vt 0.000000 0.000000
vt 0.000000 0.000000
vt 0.000000 0.000000
vt 0.000000 0.000000
vt 0.000000 0.000000
vt 0.000000 0.000000
vt 0.000000 0.000000
vt 0.000000 0.000000
vt 0.000000 0.000000
vt 0.000000 0.000000
vt 0.000000 0.000000
vt 0.000000 0.000000
vt 0.000000 0.000000
vt 0.000000 0.000000
vt 0.000000 0.000000
vt 0.000000 0.000000
vt 0.000000 0.000000
vt 0.000000 0.000000
vt 0.000000 0.000000
vt 0.000000 0.000000
vt 0.000000 0.000000
vt 0.000000 0.000000
vt 0.000000 0.000000
vt 0.000000 0.000000
vt 0.000000 0.000000
vt 0.000000 0.000000
vt 0.000000 0.000000
vt 0.000000 0.000000
vt 0.000000 0.000000
vt 0.000000 0.000000
vt 0.000000 0.000000
vt 0.000000 0.000000
vt 0.000000 0.000000
vt 0.000000 0.000000
vt 0.000000 0.000000
vt 0.000000 0.000000
vt 0.000000 0.000000
vt 0.000000 0.000000
vt 0.000000 0.000000
vt 0.000000 0.000000
vt 0.000000 0.000000
vt 0.000000 0.000000
vt 0.000000 0.000000
f 1/1/1 2/2/2 3/3/3
f 4/4/4 1/1/1 5/5/5
f 5/5/5 3/3/3 6/6/6
f 5/5/5 7/7/7 8/8/8
f 7/7/7 6/6/6 9/9/9
f 7/7/7 10/10/10 11/11/11
f 10/10/10 9/9/9 12/12/12
f 11/11/11 10/10/10 13/13/13
f 13/13/13 12/12/12 14/14/14
f 15/15/15 13/13/13 16/16/16
f 16/16/16 14/14/14 17/17/17
f 16/16/16 18/18/18 19/19/19
f 18/18/18 17/17/17 20/20/20
f 19/19/19 18/18/18 21/21/21
f 21/21/21 20/20/20 22/22/22
f 23/23/23 21/21/21 24/24/24
f 24/24/24 22/22/22 25/25/25
f 26/26/26 24/24/24 27/27/27
f 27/27/27 25/25/25 28/28/28
f 29/29/29 27/27/27 30/30/30
f 30/30/30 28/28/28 31/31/31
f 32/32/32 30/30/30 33/33/33
f 33/33/33 31/31/31 34/34/34
f 35/35/35 33/33/33 36/36/36
f 36/36/36 34/34/34 37/37/37
f 38/38/38 36/36/36 39/39/39
f 39/39/39 37/37/37 40/40/40
f 41/41/41 39/39/39 42/42/42
f 42/42/42 40/40/40 43/43/43
f 44/44/44 42/42/42 45/45/45
f 45/45/45 43/43/43 46/46/46
f 47/47/47 45/45/45 48/48/48
f 48/48/48 46/46/46 49/49/49
f 50/50/50 48/48/48 51/51/51
f 51/51/51 49/49/49 52/52/52
f 53/53/53 51/51/51 54/54/54
f 52/52/52 55/55/55 56/56/56
f 54/54/54 56/56/56 57/57/57
f 55/55/55 58/58/58 59/59/59
f 56/56/56 59/59/59 60/60/60
f 58/58/58 61/61/61 62/62/62
f 59/59/59 62/62/62 63/63/63
f 61/61/61 64/64/64 65/65/65
f 62/62/62 65/65/65 66/66/66
f 64/64/64 67/67/67 68/68/68
f 65/65/65 68/68/68 69/69/69
f 67/67/67 70/70/70 71/71/71
f 68/68/68 71/71/71 72/72/72
f 70/70/70 73/73/73 74/74/74
f 71/71/71 74/74/74 75/75/75
f 73/73/73 76/76/76 77/77/77
f 74/74/74 77/77/77 78/78/78
f 76/76/76 79/79/79 80/80/80
f 77/77/77 80/80/80 81/81/81
f 79/79/79 82/82/82 83/83/83
f 80/80/80 83/83/83 84/84/84
f 82/82/82 85/85/85 86/86/86
f 83/83/83 86/86/86 87/87/87
f 85/85/85 88/88/88 89/89/89
f 86/86/86 89/89/89 90/90/90
f 88/88/88 91/91/91 92/92/92
f 90/90/90 89/89/89 92/92/92
f 93/93/93 4/4/4 94/94/94
f 93/93/93 94/94/94 8/8/8
f 93/93/93 8/8/8 11/11/11
f 93/93/93 11/11/11 15/15/15
f 93/93/93 15/15/15 95/95/95
f 93/93/93 95/95/95 19/19/19
f 93/93/93 19/19/19 23/23/23
f 93/93/93 23/23/23 26/26/26
f 93/93/93 26/26/26 29/29/29
f 93/93/93 29/29/29 32/32/32
f 93/93/93 32/32/32 35/35/35
f 93/93/93 35/35/35 38/38/38
f 93/93/93 38/38/38 41/41/41
f 93/93/93 41/41/41 44/44/44
f 93/93/93 44/44/44 47/47/47
f 93/93/93 47/47/47 50/50/50
f 93/93/93 50/50/50 53/53/53
f 93/93/93 53/53/53 96/96/96
f 93/93/93 96/96/96 57/57/57
f 93/93/93 57/57/57 60/60/60
f 93/93/93 60/60/60 63/63/63
f 93/93/93 63/63/63 66/66/66
f 93/93/93 66/66/66 69/69/69
f 93/93/93 69/69/69 72/72/72
f 93/93/93 72/72/72 75/75/75
f 93/93/93 75/75/75 78/78/78
f 93/93/93 78/78/78 81/81/81
f 93/93/93 81/81/81 84/84/84
f 93/93/93 84/84/84 87/87/87
f 93/93/93 87/87/87 90/90/90
f 93/93/93 90/90/90 97/97/97
f 93/93/93 97/97/97 4/4/4
f 92/92/92 91/91/91 2/2/2
f 97/97/97 92/92/92 1/1/1
f 5/5/5 1/1/1 3/3/3
f 94/94/94 4/4/4 5/5/5
f 7/7/7 5/5/5 6/6/6
f 94/94/94 5/5/5 8/8/8
f 10/10/10 7/7/7 9/9/9
f 8/8/8 7/7/7 11/11/11
f 13/13/13 10/10/10 12/12/12
f 15/15/15 11/11/11 13/13/13
f 16/16/16 13/13/13 14/14/14
f 95/95/95 15/15/15 16/16/16
f 18/18/18 16/16/16 17/17/17
f 95/95/95 16/16/16 19/19/19
f 21/21/21 18/18/18 20/20/20
f 23/23/23 19/19/19 21/21/21
f 24/24/24 21/21/21 22/22/22
f 26/26/26 23/23/23 24/24/24
f 27/27/27 24/24/24 25/25/25
f 29/29/29 26/26/26 27/27/27
f 30/30/30 27/27/27 28/28/28
f 32/32/32 29/29/29 30/30/30
f 33/33/33 30/30/30 31/31/31
f 35/35/35 32/32/32 33/33/33
f 36/36/36 33/33/33 34/34/34
f 38/38/38 35/35/35 36/36/36
f 39/39/39 36/36/36 37/37/37
f 41/41/41 38/38/38 39/39/39
f 42/42/42 39/39/39 40/40/40
f 44/44/44 41/41/41 42/42/42
f 45/45/45 42/42/42 43/43/43
f 47/47/47 44/44/44 45/45/45
f 48/48/48 45/45/45 46/46/46
f 50/50/50 47/47/47 48/48/48
f 51/51/51 48/48/48 49/49/49
f 53/53/53 50/50/50 51/51/51
f 54/54/54 51/51/51 52/52/52
f 96/96/96 53/53/53 54/54/54
f 54/54/54 52/52/52 56/56/56
f 96/96/96 54/54/54 57/57/57
f 56/56/56 55/55/55 59/59/59
f 57/57/57 56/56/56 60/60/60
f 59/59/59 58/58/58 62/62/62
f 60/60/60 59/59/59 63/63/63
f 62/62/62 61/61/61 65/65/65
f 63/63/63 62/62/62 66/66/66
f 65/65/65 64/64/64 68/68/68
f 66/66/66 65/65/65 69/69/69
f 68/68/68 67/67/67 71/71/71
f 69/69/69 68/68/68 72/72/72
f 71/71/71 70/70/70 74/74/74
f 72/72/72 71/71/71 75/75/75
f 74/74/74 73/73/73 77/77/77
f 75/75/75 74/74/74 78/78/78
f 77/77/77 76/76/76 80/80/80
f 78/78/78 77/77/77 81/81/81
f 80/80/80 79/79/79 83/83/83
f 81/81/81 80/80/80 84/84/84
f 83/83/83 82/82/82 86/86/86
f 84/84/84 83/83/83 87/87/87
f 86/86/86 85/85/85 89/89/89
f 87/87/87 86/86/86 90/90/90
f 89/89/89 88/88/88 92/92/92
f 97/97/97 90/90/90 92/92/92
f 1/1/1 92/92/92 2/2/2
f 4/4/4 97/97/97 1/1/1
