v 0.463175 3.525572 -3.182051
v 0.459269 3.525572 -3.194930
v 0.467892 3.522054 -3.196645
v 0.503694 3.522054 -3.153021
v 0.500329 3.525572 -3.144898
v 0.488460 3.525572 -3.151242
v 0.552872 3.525572 -3.144898
v 0.539994 3.525572 -3.140991
v 0.538278 3.522054 -3.149615
v 0.590026 3.525572 -3.182051
v 0.583682 3.525572 -3.170182
v 0.576371 3.522054 -3.175067
v 0.590026 3.525572 -3.234594
v 0.593932 3.525572 -3.221716
v 0.585309 3.522054 -3.220001
v 0.549507 3.522054 -3.263625
v 0.552872 3.525572 -3.271748
v 0.564741 3.525572 -3.265404
v 0.500329 3.525572 -3.271748
v 0.513207 3.525572 -3.275655
v 0.514923 3.522054 -3.267031
v 0.459269 3.525572 -3.221716
v 0.467892 3.522054 -3.220001
v 0.466742 3.522054 -3.208323
v 0.476830 3.522054 -3.175067
v 0.484274 3.522054 -3.165997
v 0.478057 3.525572 -3.159779
v 0.471298 3.522054 -3.185416
v 0.469519 3.525572 -3.170182
v 0.493345 3.522054 -3.158552
v 0.514923 3.522054 -3.149615
v 0.514923 3.522054 -3.149615
v 0.526600 3.522054 -3.148464
v 0.526600 3.525572 -3.139672
v 0.549507 3.522054 -3.153021
v 0.559856 3.522054 -3.158552
v 0.564741 3.525572 -3.151242
v 0.568927 3.522054 -3.165997
v 0.575144 3.525572 -3.159779
v 0.581903 3.522054 -3.185416
v 0.585309 3.522054 -3.196645
v 0.593932 3.525572 -3.194930
v 0.586459 3.522054 -3.208323
v 0.595251 3.525572 -3.208323
v 0.581903 3.522054 -3.231230
v 0.576371 3.522054 -3.241579
v 0.583682 3.525572 -3.246463
v 0.568927 3.522054 -3.250649
v 0.575144 3.525572 -3.256866
v 0.559856 3.522054 -3.258093
v 0.538278 3.522054 -3.267031
v 0.539994 3.525572 -3.275655
v 0.526600 3.522054 -3.268181
v 0.526600 3.525572 -3.276974
v 0.514923 3.522054 -3.267031
v 0.513207 3.525572 -3.275655
v 0.503694 3.522054 -3.263625
v 0.493345 3.522054 -3.258093
v 0.484274 3.522054 -3.250649
v 0.478057 3.525572 -3.256866
v 0.476830 3.522054 -3.241579
v 0.469519 3.525572 -3.246463
v 0.471298 3.522054 -3.231230
v 0.463175 3.525572 -3.234594
v 0.457949 3.525572 -3.208323
v 0.513207 3.525572 -3.140991
v 0.513207 3.525572 -3.140991
v 0.488460 3.525572 -3.265404
vn -0.343200 -0.928400 0.142100
vn -0.364300 -0.928400 0.072500
vn -0.364300 -0.928400 0.072500
vn -0.142100 -0.928400 0.343200
vn -0.142100 -0.928400 0.343200
vn -0.206400 -0.928400 0.308800
vn 0.142100 -0.928400 0.343200
vn 0.072500 -0.928400 0.364300
vn 0.072500 -0.928400 0.364300
vn 0.343200 -0.928400 0.142200
vn 0.308800 -0.928400 0.206400
vn 0.308800 -0.928400 0.206400
vn 0.343200 -0.928400 -0.142100
vn 0.364300 -0.928400 -0.072500
vn 0.364300 -0.928400 -0.072500
vn 0.142100 -0.928400 -0.343200
vn 0.142200 -0.928400 -0.343200
vn 0.206300 -0.928400 -0.308800
vn -0.142100 -0.928400 -0.343200
vn -0.072500 -0.928400 -0.364300
vn -0.072500 -0.928400 -0.364300
vn -0.364300 -0.928400 -0.072500
vn -0.364300 -0.928400 -0.072500
vn -0.371400 -0.928400 0.000000
vn -0.308800 -0.928400 0.206400
vn -0.262600 -0.928400 0.262600
vn -0.262600 -0.928400 0.262600
vn -0.343200 -0.928400 0.142100
vn -0.308800 -0.928400 0.206400
vn -0.206300 -0.928400 0.308800
vn -0.072500 -0.928400 0.364300
vn -0.072500 -0.928400 0.364300
vn 0.000000 -0.928400 0.371400
vn 0.000000 -0.928400 0.371400
vn 0.142100 -0.928400 0.343200
vn 0.206300 -0.928400 0.308800
vn 0.206400 -0.928400 0.308800
vn 0.262600 -0.928400 0.262600
vn 0.262600 -0.928400 0.262600
vn 0.343200 -0.928400 0.142200
vn 0.364300 -0.928400 0.072500
vn 0.364300 -0.928400 0.072500
vn 0.371400 -0.928400 0.000000
vn 0.371400 -0.928400 0.000000
vn 0.343200 -0.928400 -0.142100
vn 0.308800 -0.928400 -0.206400
vn 0.308800 -0.928400 -0.206400
vn 0.262600 -0.928400 -0.262600
vn 0.262600 -0.928400 -0.262600
vn 0.206300 -0.928400 -0.308800
vn 0.072500 -0.928400 -0.364300
vn 0.072500 -0.928400 -0.364300
vn 0.000000 -0.928400 -0.371400
vn 0.000000 -0.928400 -0.371400
vn -0.072500 -0.928400 -0.364300
vn -0.072500 -0.928400 -0.364300
vn -0.142100 -0.928400 -0.343200
vn -0.206300 -0.928400 -0.308800
vn -0.262600 -0.928400 -0.262600
vn -0.262600 -0.928400 -0.262600
vn -0.308800 -0.928400 -0.206300
vn -0.308800 -0.928400 -0.206400
vn -0.343200 -0.928400 -0.142100
vn -0.343200 -0.928400 -0.142100
vn -0.371400 -0.928400 0.000000
vn -0.072500 -0.928400 0.364300
vn -0.072500 -0.928400 0.364300
vn -0.206400 -0.928400 -0.308800
vt 0.039812 0.951950
vt 0.039702 0.951251
vt 0.034729 0.950194
vt 0.017375 0.952559
vt 0.020785 0.953964
vt 0.028793 0.953620
vt 0.775214 0.953964
vt 0.785069 0.954176
vt 0.786918 0.952744
vt 0.756187 0.951950
vt 0.757792 0.952593
vt 0.763146 0.951364
vt 0.764117 0.949101
vt 0.760512 0.949799
vt 0.764558 0.948928
vt 0.785451 0.946563
vt 0.784277 0.947087
vt 0.778659 0.947431
vt 0.011722 0.947087
vt 0.005908 0.946875
vt 0.005322 0.946378
vt 0.035487 0.949799
vt 0.031441 0.948928
vt 0.033622 0.949561
vt 0.032853 0.951364
vt 0.029463 0.951856
vt 0.034602 0.953157
vt 0.034545 0.950803
vt 0.038207 0.952593
vt 0.024278 0.952259
vt 0.009081 0.952744
vt 0.805080 0.952744
vt 0.795999 0.952806
vt 0.795999 0.954247
vt 0.778624 0.952559
vt 0.771721 0.952259
vt 0.767206 0.953620
vt 0.766536 0.951856
vt 0.761397 0.953157
vt 0.761454 0.950803
vt 0.761270 0.950194
vt 0.756297 0.951251
vt 0.762377 0.949561
vt 0.757828 0.950525
vt 0.767616 0.948319
vt 0.771377 0.947758
vt 0.768448 0.948457
vt 0.775689 0.947266
vt 0.773342 0.947893
vt 0.780419 0.946863
vt 0.790677 0.946378
vt 0.790091 0.946875
vt 0.795999 0.946316
vt 0.795999 0.946803
vt 0.801321 0.946378
vt 0.801908 0.946875
vt 0.010548 0.946563
vt 0.015580 0.946863
vt 0.020310 0.947266
vt 0.022657 0.947893
vt 0.024622 0.947758
vt 0.027551 0.948457
vt 0.028383 0.948319
vt 0.031882 0.949101
vt 0.038171 0.950525
vt 0.010929 0.954176
vt 0.806929 0.954176
vt 0.017340 0.947431
f 1/1/1 2/2/2 3/3/3
f 4/4/4 5/5/5 6/6/6
f 7/7/7 8/8/8 9/9/9
f 10/10/10 11/11/11 12/12/12
f 13/13/13 14/14/14 15/15/15
f 16/16/16 17/17/17 18/18/18
f 19/19/19 20/20/20 21/21/21
f 22/22/22 23/23/23 24/24/24
f 25/25/25 26/26/26 27/27/27
f 24/24/24 3/3/3 2/2/2
f 28/28/28 25/25/25 29/29/29
f 26/26/26 30/30/30 6/6/6
f 5/5/5 4/4/4 31/31/31
f 32/32/32 33/33/33 34/34/34
f 34/34/34 33/33/33 9/9/9
f 35/35/35 36/36/36 37/37/37
f 37/37/37 36/36/36 38/38/38
f 39/39/39 38/38/38 12/12/12
f 40/40/40 41/41/41 42/42/42
f 41/41/41 43/43/43 44/44/44
f 43/43/43 15/15/15 14/14/14
f 45/45/45 46/46/46 47/47/47
f 46/46/46 48/48/48 49/49/49
f 49/49/49 48/48/48 50/50/50
f 16/16/16 51/51/51 52/52/52
f 51/51/51 53/53/53 54/54/54
f 53/53/53 55/55/55 56/56/56
f 19/19/19 57/57/57 58/58/58
f 58/58/58 59/59/59 60/60/60
f 60/60/60 59/59/59 61/61/61
f 62/62/62 61/61/61 63/63/63
f 64/64/64 63/63/63 23/23/23
f 28/28/28 1/1/1 3/3/3
f 30/30/30 4/4/4 6/6/6
f 35/35/35 7/7/7 9/9/9
f 40/40/40 10/10/10 12/12/12
f 45/45/45 13/13/13 15/15/15
f 50/50/50 16/16/16 18/18/18
f 57/57/57 19/19/19 21/21/21
f 65/65/65 22/22/22 24/24/24
f 29/29/29 25/25/25 27/27/27
f 65/65/65 24/24/24 2/2/2
f 1/1/1 28/28/28 29/29/29
f 27/27/27 26/26/26 6/6/6
f 66/66/66 5/5/5 31/31/31
f 67/67/67 32/32/32 34/34/34
f 8/8/8 34/34/34 9/9/9
f 7/7/7 35/35/35 37/37/37
f 39/39/39 37/37/37 38/38/38
f 11/11/11 39/39/39 12/12/12
f 10/10/10 40/40/40 42/42/42
f 42/42/42 41/41/41 44/44/44
f 44/44/44 43/43/43 14/14/14
f 13/13/13 45/45/45 47/47/47
f 47/47/47 46/46/46 49/49/49
f 18/18/18 49/49/49 50/50/50
f 17/17/17 16/16/16 52/52/52
f 52/52/52 51/51/51 54/54/54
f 54/54/54 53/53/53 56/56/56
f 68/68/68 19/19/19 58/58/58
f 68/68/68 58/58/58 60/60/60
f 62/62/62 60/60/60 61/61/61
f 64/64/64 62/62/62 63/63/63
f 22/22/22 64/64/64 23/23/23
