v 0.516918 2.631262 -3.257001
v 0.516918 2.637939 -3.257001
v 0.526600 2.637939 -3.257955
v 0.477922 2.631262 -3.218006
v 0.477922 2.637939 -3.218006
v 0.480746 2.637939 -3.227316
v 0.561696 2.631262 -3.173228
v 0.561696 2.637939 -3.173228
v 0.554174 2.637939 -3.167055
v 0.526600 2.631262 -3.257955
v 0.526600 2.637939 -3.257955
v 0.536283 2.637939 -3.257001
v 0.575279 2.631262 -3.218006
v 0.575279 2.637939 -3.218006
v 0.576232 2.637939 -3.208323
v 0.576232 2.631262 -3.208323
v 0.575279 2.637939 -3.198640
v 0.554174 2.631262 -3.167055
v 0.545594 2.637939 -3.162469
v 0.485333 2.631262 -3.180749
v 0.485333 2.637939 -3.180749
v 0.480747 2.637939 -3.189330
v 0.561696 2.631262 -3.243418
v 0.561696 2.637939 -3.243418
v 0.567868 2.637939 -3.235897
v 0.567868 2.631262 -3.180749
v 0.567868 2.637939 -3.180749
v 0.572454 2.631262 -3.227316
v 0.572454 2.637939 -3.227316
v 0.485333 2.631262 -3.235897
v 0.485333 2.637939 -3.235897
v 0.491505 2.637939 -3.243418
v 0.477922 2.631262 -3.198640
v 0.477922 2.637939 -3.198640
v 0.476968 2.637939 -3.208323
v 0.491505 2.631262 -3.243418
v 0.499026 2.637939 -3.249590
v 0.499026 2.631262 -3.249590
v 0.507607 2.637939 -3.254177
v 0.545594 2.631262 -3.254177
v 0.545594 2.637939 -3.254177
v 0.554175 2.637939 -3.249590
v 0.572454 2.631262 -3.189330
v 0.572454 2.637939 -3.189330
v 0.507607 2.631262 -3.162469
v 0.507607 2.637939 -3.162469
v 0.499026 2.637939 -3.167055
v 0.554175 2.631262 -3.249590
v 0.499026 2.631262 -3.167055
v 0.491505 2.637939 -3.173228
v 0.545594 2.631262 -3.162469
v 0.536283 2.637939 -3.159645
v 0.575279 2.631262 -3.198640
v 0.491505 2.631262 -3.173228
v 0.480746 2.631262 -3.227316
v 0.536283 2.631262 -3.257001
v 0.476968 2.631262 -3.208323
v 0.567868 2.631262 -3.235897
v 0.507607 2.631262 -3.254177
v 0.536283 2.631262 -3.159645
v 0.526600 2.637939 -3.158691
v 0.526600 2.631262 -3.158691
v 0.516918 2.637939 -3.159645
v 0.480747 2.631262 -3.189330
v 0.516918 2.631262 -3.159645
v 0.517325 2.642644 -3.161690
v 0.508405 2.642644 -3.164396
v 0.517325 2.642644 -3.254956
v 0.526600 2.642644 -3.255869
v 0.479968 2.642644 -3.217599
v 0.560221 2.642644 -3.174702
v 0.553016 2.642644 -3.168790
v 0.526600 2.642644 -3.255869
v 0.535876 2.642644 -3.254956
v 0.573233 2.642644 -3.217599
v 0.574147 2.642644 -3.208323
v 0.573233 2.642644 -3.199047
v 0.544796 2.642644 -3.164396
v 0.487067 2.642644 -3.181908
v 0.560221 2.642644 -3.241943
v 0.566134 2.642644 -3.181908
v 0.570528 2.642644 -3.226518
v 0.487067 2.642644 -3.234738
v 0.492980 2.642644 -3.241943
v 0.479968 2.642644 -3.199047
v 0.479054 2.642644 -3.208323
v 0.500185 2.642644 -3.247856
v 0.544796 2.642644 -3.252250
v 0.570528 2.642644 -3.190128
v 0.500185 2.642644 -3.168790
v 0.553016 2.642644 -3.247856
v 0.535876 2.642644 -3.161690
v 0.492980 2.642644 -3.174703
v 0.482673 2.642644 -3.226518
v 0.566134 2.642644 -3.234738
v 0.508405 2.642644 -3.252250
v 0.516918 2.637939 -3.159645
v 0.526600 2.642644 -3.160777
v 0.482673 2.642644 -3.190128
v 0.526600 2.631262 -3.257955
v 0.517325 2.642644 -3.161690
vn -0.195100 0.000000 -0.980800
vn -0.191000 0.204500 -0.960000
vn 0.000000 0.204500 -0.978900
vn -0.980800 0.000000 -0.195100
vn -0.960100 0.204500 -0.191000
vn -0.904300 0.204500 -0.374600
vn 0.707100 0.000000 0.707100
vn 0.692100 0.204500 0.692200
vn 0.543800 0.204500 0.813900
vn 0.000000 0.000000 -1.000000
vn 0.000000 0.204500 -0.978900
vn 0.191000 0.204500 -0.960000
vn 0.980800 0.000000 -0.195100
vn 0.960100 0.204500 -0.191000
vn 0.978900 0.204500 0.000000
vn 1.000000 0.000000 0.000000
vn 0.960100 0.204500 0.191000
vn 0.555600 0.000000 0.831400
vn 0.374600 0.204500 0.904300
vn -0.831400 0.000000 0.555600
vn -0.813900 0.204500 0.543800
vn -0.904300 0.204500 0.374600
vn 0.707100 0.000000 -0.707100
vn 0.692200 0.204500 -0.692100
vn 0.813900 0.204500 -0.543800
vn 0.831400 0.000000 0.555600
vn 0.813900 0.204500 0.543800
vn 0.923900 0.000000 -0.382700
vn 0.904300 0.204500 -0.374600
vn -0.831400 0.000000 -0.555600
vn -0.813900 0.204500 -0.543800
vn -0.692100 0.204500 -0.692200
vn -0.980800 0.000000 0.195100
vn -0.960100 0.204500 0.191000
vn -0.978900 0.204500 0.000000
vn -0.707100 0.000000 -0.707100
vn -0.543800 0.204500 -0.813900
vn -0.555500 0.000000 -0.831500
vn -0.374600 0.204500 -0.904300
vn 0.382600 0.000000 -0.923900
vn 0.374600 0.204500 -0.904300
vn 0.543800 0.204500 -0.813900
vn 0.923900 0.000000 0.382700
vn 0.904300 0.204500 0.374600
vn -0.382700 0.000000 0.923900
vn -0.374600 0.204500 0.904300
vn -0.543800 0.204500 0.813900
vn 0.555600 0.000000 -0.831400
vn -0.555600 0.000000 0.831400
vn -0.692200 0.204500 0.692100
vn 0.382700 0.000000 0.923900
vn 0.190900 0.204500 0.960100
vn 0.980800 0.000000 0.195100
vn -0.707100 0.000000 0.707100
vn -0.923900 0.000000 -0.382700
vn 0.195100 0.000000 -0.980800
vn -1.000000 0.000000 0.000000
vn 0.831400 0.000000 -0.555600
vn -0.382700 0.000000 -0.923900
vn 0.195100 0.000000 0.980800
vn 0.000000 0.204500 0.978900
vn 0.000000 0.000000 1.000000
vn -0.191000 0.204500 0.960100
vn -0.923900 0.000000 0.382700
vn -0.195000 0.000000 0.980800
vn -0.178300 0.405200 0.896600
vn -0.349900 0.405200 0.844600
vn -0.178400 0.405200 -0.896600
vn 0.000000 0.405200 -0.914200
vn -0.896600 0.405200 -0.178400
vn 0.646400 0.405200 0.646400
vn 0.507900 0.405200 0.760100
vn 0.000000 0.405200 -0.914200
vn 0.178400 0.405200 -0.896600
vn 0.896600 0.405200 -0.178300
vn 0.914200 0.405200 0.000000
vn 0.896600 0.405200 0.178400
vn 0.349900 0.405200 0.844600
vn -0.760100 0.405200 0.507900
vn 0.646400 0.405200 -0.646400
vn 0.760200 0.405200 0.507900
vn 0.844600 0.405200 -0.349800
vn -0.760100 0.405200 -0.507900
vn -0.646400 0.405200 -0.646500
vn -0.896700 0.405200 0.178400
vn -0.914200 0.405200 0.000000
vn -0.507900 0.405200 -0.760100
vn 0.349800 0.405200 -0.844600
vn 0.844600 0.405200 0.349900
vn -0.507900 0.405200 0.760100
vn 0.507900 0.405200 -0.760100
vn 0.178300 0.405200 0.896700
vn -0.646400 0.405200 0.646400
vn -0.844600 0.405200 -0.349900
vn 0.760100 0.405200 -0.507900
vn -0.349900 0.405200 -0.844600
vn -0.191000 0.204500 0.960100
vn 0.000000 0.405200 0.914200
vn -0.844600 0.405200 0.349800
vn 0.000000 0.000000 -1.000000
vn -0.178300 0.405200 0.896600
vt 0.012851 0.702775
vt 0.012680 0.704605
vt 0.000000 0.704553
vt 0.089688 0.704889
vt 0.088281 0.706719
vt 0.075772 0.706214
vt 0.641759 0.707317
vt 0.645826 0.709147
vt 0.633548 0.709481
vt 0.795999 0.702723
vt 0.795999 0.704553
vt 0.783319 0.704605
vt 0.706311 0.704889
vt 0.707718 0.706719
vt 0.695255 0.707244
vt 0.693546 0.705414
vt 0.682837 0.707769
vt 0.628009 0.707651
vt 0.621270 0.709730
vt 0.141033 0.706909
vt 0.137871 0.708739
vt 0.125537 0.708274
vt 0.744654 0.703511
vt 0.745372 0.705341
vt 0.732780 0.705749
vt 0.654966 0.706909
vt 0.658128 0.708739
vt 0.719077 0.704384
vt 0.720227 0.706214
vt 0.064142 0.703919
vt 0.063219 0.705749
vt 0.050628 0.705341
vt 0.115236 0.705939
vt 0.113162 0.707769
vt 0.100744 0.707244
vt 0.051345 0.703511
vt 0.038002 0.705007
vt 0.038529 0.703177
vt 0.025350 0.704758
vt 0.770303 0.702928
vt 0.770649 0.704758
vt 0.757997 0.705007
vt 0.667925 0.706444
vt 0.670462 0.708274
vt 0.183153 0.707900
vt 0.174729 0.709730
vt 0.162451 0.709481
vt 0.757470 0.703177
vt 0.167990 0.707651
vt 0.150173 0.709147
vt 0.612846 0.707900
vt 0.608913 0.709883
vt 0.680763 0.705939
vt 0.154240 0.707317
vt 0.076922 0.704384
vt 0.783148 0.702775
vt 0.102453 0.705414
vt 0.731857 0.703919
vt 0.025696 0.702928
vt 0.591998 0.708053
vt 0.398009 0.709935
vt 0.398000 0.708105
vt 0.187086 0.709883
vt 0.128074 0.706444
vt 0.204001 0.708053
vt 0.149358 0.711062
vt 0.155612 0.710915
vt 0.012289 0.706006
vt 0.000000 0.705956
vt 0.085072 0.708031
vt 0.655096 0.710357
vt 0.646158 0.710677
vt 0.795999 0.705956
vt 0.783710 0.706006
vt 0.710927 0.708031
vt 0.699150 0.708534
vt 0.687566 0.709037
vt 0.640387 0.710915
vt 0.130663 0.709966
vt 0.747007 0.706711
vt 0.665336 0.709966
vt 0.722850 0.707547
vt 0.061115 0.707102
vt 0.048992 0.706711
vt 0.108433 0.709037
vt 0.096849 0.708534
vt 0.036801 0.706391
vt 0.771438 0.706152
vt 0.676249 0.709520
vt 0.149841 0.710677
vt 0.759198 0.706391
vt 0.646641 0.711062
vt 0.140903 0.710357
vt 0.073149 0.707547
vt 0.734884 0.707102
vt 0.024561 0.706152
vt 0.983085 0.709883
vt 0.795999 0.711112
vt 0.119750 0.709520
vt 0.000000 0.702723
vt 0.945357 0.711062
f 1/1/1 2/2/2 3/3/3
f 4/4/4 5/5/5 6/6/6
f 7/7/7 8/8/8 9/9/9
f 10/10/10 11/11/11 12/12/12
f 13/13/13 14/14/14 15/15/15
f 16/16/16 15/15/15 17/17/17
f 18/18/18 9/9/9 19/19/19
f 20/20/20 21/21/21 22/22/22
f 23/23/23 24/24/24 25/25/25
f 26/26/26 27/27/27 8/8/8
f 28/28/28 29/29/29 14/14/14
f 30/30/30 31/31/31 32/32/32
f 33/33/33 34/34/34 35/35/35
f 36/36/36 32/32/32 37/37/37
f 38/38/38 37/37/37 39/39/39
f 40/40/40 41/41/41 42/42/42
f 43/43/43 44/44/44 27/27/27
f 45/45/45 46/46/46 47/47/47
f 48/48/48 42/42/42 24/24/24
f 49/49/49 47/47/47 50/50/50
f 51/51/51 19/19/19 52/52/52
f 53/53/53 17/17/17 44/44/44
f 54/54/54 50/50/50 21/21/21
f 55/55/55 6/6/6 31/31/31
f 56/56/56 12/12/12 41/41/41
f 57/57/57 35/35/35 5/5/5
f 58/58/58 25/25/25 29/29/29
f 59/59/59 39/39/39 2/2/2
f 60/60/60 52/52/52 61/61/61
f 62/62/62 61/61/61 63/63/63
f 64/64/64 22/22/22 34/34/34
f 65/65/65 63/63/63 46/46/46
f 63/63/63 66/66/66 67/67/67
f 2/2/2 68/68/68 69/69/69
f 6/6/6 5/5/5 70/70/70
f 8/8/8 71/71/71 72/72/72
f 11/11/11 73/73/73 74/74/74
f 15/15/15 14/14/14 75/75/75
f 15/15/15 76/76/76 77/77/77
f 9/9/9 72/72/72 78/78/78
f 22/22/22 21/21/21 79/79/79
f 25/25/25 24/24/24 80/80/80
f 8/8/8 27/27/27 81/81/81
f 14/14/14 29/29/29 82/82/82
f 31/31/31 83/83/83 84/84/84
f 34/34/34 85/85/85 86/86/86
f 32/32/32 84/84/84 87/87/87
f 39/39/39 37/37/37 87/87/87
f 42/42/42 41/41/41 88/88/88
f 27/27/27 44/44/44 89/89/89
f 46/46/46 67/67/67 90/90/90
f 24/24/24 42/42/42 91/91/91
f 50/50/50 47/47/47 90/90/90
f 19/19/19 78/78/78 92/92/92
f 17/17/17 77/77/77 89/89/89
f 21/21/21 50/50/50 93/93/93
f 6/6/6 94/94/94 83/83/83
f 12/12/12 74/74/74 88/88/88
f 5/5/5 35/35/35 86/86/86
f 29/29/29 25/25/25 95/95/95
f 39/39/39 96/96/96 68/68/68
f 61/61/61 52/52/52 92/92/92
f 97/97/97 61/61/61 98/98/98
f 34/34/34 22/22/22 99/99/99
f 100/100/100 1/1/1 3/3/3
f 55/55/55 4/4/4 6/6/6
f 18/18/18 7/7/7 9/9/9
f 56/56/56 10/10/10 12/12/12
f 16/16/16 13/13/13 15/15/15
f 53/53/53 16/16/16 17/17/17
f 51/51/51 18/18/18 19/19/19
f 64/64/64 20/20/20 22/22/22
f 58/58/58 23/23/23 25/25/25
f 7/7/7 26/26/26 8/8/8
f 13/13/13 28/28/28 14/14/14
f 36/36/36 30/30/30 32/32/32
f 57/57/57 33/33/33 35/35/35
f 38/38/38 36/36/36 37/37/37
f 59/59/59 38/38/38 39/39/39
f 48/48/48 40/40/40 42/42/42
f 26/26/26 43/43/43 27/27/27
f 49/49/49 45/45/45 47/47/47
f 23/23/23 48/48/48 24/24/24
f 54/54/54 49/49/49 50/50/50
f 60/60/60 51/51/51 52/52/52
f 43/43/43 53/53/53 44/44/44
f 20/20/20 54/54/54 21/21/21
f 30/30/30 55/55/55 31/31/31
f 40/40/40 56/56/56 41/41/41
f 4/4/4 57/57/57 5/5/5
f 28/28/28 58/58/58 29/29/29
f 1/1/1 59/59/59 2/2/2
f 62/62/62 60/60/60 61/61/61
f 65/65/65 62/62/62 63/63/63
f 33/33/33 64/64/64 34/34/34
f 45/45/45 65/65/65 46/46/46
f 46/46/46 63/63/63 67/67/67
f 3/3/3 2/2/2 69/69/69
f 94/94/94 6/6/6 70/70/70
f 9/9/9 8/8/8 72/72/72
f 12/12/12 11/11/11 74/74/74
f 76/76/76 15/15/15 75/75/75
f 17/17/17 15/15/15 77/77/77
f 19/19/19 9/9/9 78/78/78
f 99/99/99 22/22/22 79/79/79
f 95/95/95 25/25/25 80/80/80
f 71/71/71 8/8/8 81/81/81
f 75/75/75 14/14/14 82/82/82
f 32/32/32 31/31/31 84/84/84
f 35/35/35 34/34/34 86/86/86
f 37/37/37 32/32/32 87/87/87
f 96/96/96 39/39/39 87/87/87
f 91/91/91 42/42/42 88/88/88
f 81/81/81 27/27/27 89/89/89
f 47/47/47 46/46/46 90/90/90
f 80/80/80 24/24/24 91/91/91
f 93/93/93 50/50/50 90/90/90
f 52/52/52 19/19/19 92/92/92
f 44/44/44 17/17/17 89/89/89
f 79/79/79 21/21/21 93/93/93
f 31/31/31 6/6/6 83/83/83
f 41/41/41 12/12/12 88/88/88
f 70/70/70 5/5/5 86/86/86
f 82/82/82 29/29/29 95/95/95
f 2/2/2 39/39/39 68/68/68
f 98/98/98 61/61/61 92/92/92
f 101/101/101 97/97/97 98/98/98
f 85/85/85 34/34/34 99/99/99
