v 0.466881 2.314127 -3.183586
v 0.471584 2.314838 -3.185534
v 0.468196 2.314838 -3.196706
v 0.551337 2.314127 -3.148603
v 0.549389 2.314838 -3.153307
v 0.538218 2.314838 -3.149918
v 0.463202 2.314127 -3.220934
v 0.461960 2.314127 -3.208323
v 0.467051 2.314838 -3.208323
v 0.580347 2.314127 -3.244235
v 0.576114 2.314838 -3.241407
v 0.581617 2.314838 -3.231111
v 0.591241 2.314127 -3.208323
v 0.586149 2.314838 -3.208323
v 0.585005 2.314838 -3.196706
v 0.580347 2.314127 -3.172411
v 0.586320 2.314127 -3.183586
v 0.581617 2.314838 -3.185534
v 0.539211 2.314127 -3.144925
v 0.526600 2.314838 -3.148774
v 0.466881 2.314127 -3.233060
v 0.468196 2.314838 -3.219940
v 0.463202 2.314127 -3.195712
v 0.472854 2.314127 -3.244235
v 0.471584 2.314838 -3.231111
v 0.572308 2.314127 -3.254030
v 0.568708 2.314838 -3.250430
v 0.480893 2.314127 -3.254030
v 0.484493 2.314838 -3.250430
v 0.493517 2.314838 -3.257836
v 0.576114 2.314838 -3.175239
v 0.568708 2.314838 -3.166215
v 0.589999 2.314127 -3.220934
v 0.585005 2.314838 -3.219940
v 0.586320 2.314127 -3.233060
v 0.526600 2.314127 -3.272963
v 0.513990 2.314127 -3.271721
v 0.514983 2.314838 -3.266728
v 0.490688 2.314127 -3.154577
v 0.501864 2.314127 -3.148603
v 0.503812 2.314838 -3.153307
v 0.501864 2.314127 -3.268043
v 0.503812 2.314838 -3.263339
v 0.472854 2.314127 -3.172411
v 0.477087 2.314838 -3.175239
v 0.526600 2.314127 -3.143683
v 0.514983 2.314838 -3.149918
v 0.572308 2.314127 -3.162615
v 0.559684 2.314838 -3.158810
v 0.539211 2.314127 -3.271721
v 0.538218 2.314838 -3.266728
v 0.549389 2.314838 -3.263339
v 0.526600 2.314127 -3.272963
v 0.526600 2.314838 -3.267872
v 0.490688 2.314127 -3.262069
v 0.513990 2.314127 -3.144925
v 0.551337 2.314127 -3.268043
v 0.559684 2.314838 -3.257836
v 0.589999 2.314127 -3.195712
v 0.477087 2.314838 -3.241407
v 0.562513 2.314127 -3.154577
v 0.480893 2.314127 -3.162615
v 0.484493 2.314838 -3.166215
v 0.562513 2.314127 -3.262069
v 0.493517 2.314838 -3.158810
v 0.464382 2.312753 -3.182551
v 0.464997 2.313337 -3.182806
v 0.461203 2.313337 -3.195315
v 0.539739 2.312753 -3.142272
v 0.552372 2.312753 -3.146104
v 0.552117 2.313337 -3.146720
v 0.459255 2.312753 -3.208323
v 0.459922 2.313337 -3.208323
v 0.461203 2.313337 -3.221331
v 0.588819 2.312753 -3.234095
v 0.582596 2.312753 -3.245738
v 0.582042 2.313337 -3.245368
v 0.592652 2.312753 -3.195184
v 0.593946 2.312753 -3.208323
v 0.593279 2.313337 -3.208323
v 0.582596 2.312753 -3.170908
v 0.588819 2.312753 -3.182551
v 0.588204 2.313337 -3.182806
v 0.526600 2.312753 -3.140978
v 0.539609 2.313337 -3.142925
v 0.464382 2.312753 -3.234095
v 0.460549 2.312753 -3.221461
v 0.460549 2.312753 -3.195184
v 0.464997 2.313337 -3.233840
v 0.471159 2.313337 -3.245368
v 0.574221 2.312753 -3.255943
v 0.573750 2.313337 -3.255472
v 0.478980 2.312753 -3.255943
v 0.479451 2.313337 -3.255472
v 0.489556 2.313337 -3.263764
v 0.574221 2.312753 -3.160703
v 0.582042 2.313337 -3.171278
v 0.592652 2.312753 -3.221461
v 0.591998 2.313337 -3.221331
v 0.588204 2.313337 -3.233840
v 0.513462 2.312753 -3.274374
v 0.513592 2.313337 -3.273721
v 0.526600 2.313337 -3.275002
v 0.500829 2.312753 -3.146104
v 0.501084 2.313337 -3.146720
v 0.489556 2.313337 -3.152882
v 0.500829 2.312753 -3.270542
v 0.501084 2.313337 -3.269926
v 0.470605 2.312753 -3.170908
v 0.471159 2.313337 -3.171278
v 0.526600 2.313337 -3.141644
v 0.513592 2.313337 -3.142925
v 0.573749 2.313337 -3.161174
v 0.563645 2.313337 -3.152882
v 0.552372 2.312753 -3.270542
v 0.539739 2.312753 -3.274374
v 0.539609 2.313337 -3.273721
v 0.526600 2.312753 -3.275668
v 0.526600 2.313337 -3.275002
v 0.489185 2.312753 -3.264318
v 0.513462 2.312753 -3.142272
v 0.564016 2.312753 -3.264318
v 0.552117 2.313337 -3.269926
v 0.591998 2.313337 -3.195315
v 0.470605 2.312753 -3.245738
v 0.564016 2.312753 -3.152327
v 0.478980 2.312753 -3.160703
v 0.479451 2.313337 -3.161174
v 0.563645 2.313337 -3.263764
v 0.489185 2.312753 -3.152328
v 0.526600 2.314838 -3.267872
v 0.526600 2.312753 -3.275668
vn -0.238600 0.966100 0.098800
vn -0.127900 0.990400 0.052900
vn -0.135700 0.990400 0.027000
vn 0.098800 0.966100 0.238600
vn 0.053000 0.990400 0.127800
vn 0.027000 0.990400 0.135800
vn -0.253300 0.966000 -0.050400
vn -0.258300 0.966100 0.000000
vn -0.138400 0.990400 0.000000
vn 0.214800 0.966000 -0.143500
vn 0.115100 0.990400 -0.076900
vn 0.127900 0.990400 -0.053000
vn 0.258300 0.966100 0.000000
vn 0.138400 0.990400 0.000000
vn 0.135700 0.990400 0.027000
vn 0.214800 0.966000 0.143500
vn 0.238600 0.966000 0.098800
vn 0.127900 0.990400 0.053000
vn 0.050400 0.966000 0.253300
vn 0.000000 0.990400 0.138400
vn -0.238600 0.966000 -0.098800
vn -0.135800 0.990400 -0.027000
vn -0.253300 0.966000 0.050400
vn -0.214800 0.966000 -0.143500
vn -0.127900 0.990400 -0.053000
vn 0.182700 0.966000 -0.182600
vn 0.097900 0.990400 -0.097900
vn -0.182700 0.966000 -0.182700
vn -0.097900 0.990400 -0.097800
vn -0.076900 0.990400 -0.115100
vn 0.115100 0.990400 0.076900
vn 0.097900 0.990400 0.097800
vn 0.253300 0.966000 -0.050400
vn 0.135700 0.990400 -0.027000
vn 0.238600 0.966000 -0.098800
vn 0.000000 0.966100 -0.258300
vn -0.050400 0.966000 -0.253400
vn -0.027000 0.990400 -0.135800
vn -0.143500 0.966000 0.214800
vn -0.098800 0.966000 0.238600
vn -0.052900 0.990400 0.127900
vn -0.098800 0.966000 -0.238600
vn -0.052900 0.990400 -0.127900
vn -0.214800 0.966000 0.143500
vn -0.115100 0.990400 0.076900
vn 0.000000 0.966000 0.258300
vn -0.027000 0.990400 0.135800
vn 0.182700 0.966000 0.182600
vn 0.076900 0.990400 0.115100
vn 0.050400 0.966000 -0.253300
vn 0.027000 0.990400 -0.135700
vn 0.052900 0.990400 -0.127900
vn 0.000000 0.966100 -0.258300
vn 0.000000 0.990400 -0.138400
vn -0.143500 0.966000 -0.214800
vn -0.050400 0.966000 0.253300
vn 0.098800 0.966000 -0.238700
vn 0.076900 0.990400 -0.115100
vn 0.253300 0.966000 0.050400
vn -0.115100 0.990400 -0.076900
vn 0.143500 0.966000 0.214800
vn -0.182600 0.966100 0.182600
vn -0.097900 0.990400 0.097900
vn 0.143500 0.966000 -0.214800
vn -0.076900 0.990400 0.115100
vn -0.608400 0.752500 0.252000
vn -0.485700 0.850600 0.201200
vn -0.515500 0.850700 0.102500
vn 0.128500 0.752600 0.645900
vn 0.252100 0.752500 0.608400
vn 0.201200 0.850700 0.485600
vn -0.658500 0.752600 0.000000
vn -0.525700 0.850700 0.000000
vn -0.515600 0.850600 -0.102500
vn 0.608400 0.752500 -0.252100
vn 0.547500 0.752600 -0.365700
vn 0.437100 0.850700 -0.292000
vn 0.645900 0.752500 0.128500
vn 0.658500 0.752600 0.000000
vn 0.525600 0.850700 0.000000
vn 0.547500 0.752600 0.365800
vn 0.608400 0.752500 0.252000
vn 0.485700 0.850700 0.201100
vn 0.000000 0.752500 0.658500
vn 0.102500 0.850700 0.515500
vn -0.608400 0.752600 -0.252000
vn -0.645900 0.752500 -0.128400
vn -0.645800 0.752600 0.128500
vn -0.485600 0.850700 -0.201100
vn -0.437100 0.850700 -0.292000
vn 0.465600 0.752600 -0.465600
vn 0.371700 0.850700 -0.371700
vn -0.465600 0.752600 -0.465600
vn -0.371700 0.850700 -0.371700
vn -0.292100 0.850700 -0.437100
vn 0.465600 0.752500 0.465700
vn 0.437100 0.850600 0.292100
vn 0.645900 0.752500 -0.128500
vn 0.515600 0.850600 -0.102500
vn 0.485600 0.850600 -0.201200
vn -0.128400 0.752500 -0.645900
vn -0.102500 0.850600 -0.515600
vn 0.000000 0.850700 -0.525600
vn -0.252100 0.752500 0.608400
vn -0.201200 0.850700 0.485600
vn -0.292000 0.850600 0.437100
vn -0.252000 0.752600 -0.608300
vn -0.201100 0.850700 -0.485600
vn -0.547500 0.752600 0.365800
vn -0.437100 0.850700 0.292000
vn 0.000000 0.850600 0.525700
vn -0.102500 0.850600 0.515600
vn 0.371700 0.850700 0.371700
vn 0.292000 0.850700 0.437000
vn 0.252000 0.752600 -0.608300
vn 0.128400 0.752500 -0.645900
vn 0.102500 0.850600 -0.515600
vn 0.000000 0.752600 -0.658400
vn 0.000000 0.850700 -0.525600
vn -0.365900 0.752500 -0.547500
vn -0.128500 0.752500 0.645900
vn 0.365900 0.752600 -0.547500
vn 0.201100 0.850700 -0.485600
vn 0.515600 0.850700 0.102600
vn -0.547500 0.752600 -0.365800
vn 0.365800 0.752600 0.547400
vn -0.465700 0.752500 0.465600
vn -0.371700 0.850700 0.371700
vn 0.292100 0.850700 -0.437100
vn -0.365900 0.752500 0.547600
vn 0.000000 0.990400 -0.138400
vn 0.000000 0.752600 -0.658400
vt 0.271447 0.619835
vt 0.273027 0.619925
vt 0.251020 0.619319
vt 0.439521 0.621732
vt 0.438965 0.621672
vt 0.418455 0.621856
vt 0.202592 0.617811
vt 0.226337 0.618494
vt 0.228315 0.618689
vt 0.644312 0.616547
vt 0.642129 0.616896
vt 0.616024 0.617454
vt 0.569662 0.618494
vt 0.567684 0.618689
vt 0.544979 0.619319
vt 0.502837 0.620441
vt 0.524552 0.619835
vt 0.522972 0.619925
vt 0.418734 0.621931
vt 0.397999 0.621918
vt 0.177780 0.617153
vt 0.204710 0.618059
vt 0.249226 0.619178
vt 0.151687 0.616547
vt 0.179975 0.617454
vt 0.671871 0.616016
vt 0.669821 0.616407
vt 0.124128 0.616016
vt 0.126179 0.616407
vt 0.096770 0.616005
vt 0.501493 0.620483
vt 0.480403 0.620972
vt 0.593408 0.617811
vt 0.591289 0.618059
vt 0.618219 0.617153
vt 0.000000 0.614990
vt 0.032532 0.615057
vt 0.033235 0.615523
vt 0.335581 0.621408
vt 0.356478 0.621732
vt 0.357034 0.621672
vt 0.064377 0.615257
vt 0.065687 0.615707
vt 0.293162 0.620441
vt 0.294506 0.620483
vt 0.397999 0.621999
vt 0.377544 0.621856
vt 0.481494 0.620972
vt 0.459590 0.621374
vt 0.763467 0.615057
vt 0.762764 0.615523
vt 0.730312 0.615707
vt 0.795999 0.614990
vt 0.795999 0.615461
vt 0.095004 0.615580
vt 0.377265 0.621931
vt 0.731623 0.615257
vt 0.699229 0.616005
vt 0.546773 0.619178
vt 0.153870 0.616896
vt 0.460418 0.621408
vt 0.314505 0.620972
vt 0.315596 0.620972
vt 0.700995 0.615580
vt 0.336409 0.621374
vt 0.270976 0.619515
vt 0.271019 0.619661
vt 0.248741 0.618983
vt 0.418818 0.621699
vt 0.439688 0.621491
vt 0.439672 0.621618
vt 0.225750 0.618118
vt 0.225804 0.618278
vt 0.202023 0.617573
vt 0.618865 0.616721
vt 0.644951 0.616089
vt 0.644893 0.616269
vt 0.547307 0.618830
vt 0.570249 0.618118
vt 0.570195 0.618278
vt 0.503238 0.620146
vt 0.525023 0.619515
vt 0.524980 0.619661
vt 0.397999 0.621769
vt 0.418810 0.621823
vt 0.177134 0.616721
vt 0.201966 0.617406
vt 0.248692 0.618830
vt 0.177193 0.616894
vt 0.151106 0.616269
vt 0.672468 0.615536
vt 0.672413 0.615722
vt 0.123531 0.615536
vt 0.123586 0.615722
vt 0.094540 0.615272
vt 0.481821 0.620700
vt 0.503201 0.620286
vt 0.594033 0.617406
vt 0.593976 0.617573
vt 0.618806 0.616894
vt 0.032331 0.614537
vt 0.032349 0.614732
vt 0.000000 0.614663
vt 0.356311 0.621491
vt 0.356327 0.621618
vt 0.335356 0.621284
vt 0.063999 0.614745
vt 0.064033 0.614938
vt 0.292761 0.620146
vt 0.292798 0.620286
vt 0.397999 0.621918
vt 0.377189 0.621823
vt 0.481791 0.620834
vt 0.460643 0.621284
vt 0.732000 0.614745
vt 0.763669 0.614537
vt 0.763650 0.614732
vt 0.795999 0.614467
vt 0.795999 0.614663
vt 0.094493 0.615082
vt 0.377181 0.621699
vt 0.701506 0.615082
vt 0.731966 0.614938
vt 0.547258 0.618983
vt 0.151048 0.616089
vt 0.460666 0.621154
vt 0.314178 0.620700
vt 0.314208 0.620834
vt 0.701459 0.615272
vt 0.335333 0.621154
vt 0.000000 0.615461
vt 0.000000 0.614467
f 1/1/1 2/2/2 3/3/3
f 4/4/4 5/5/5 6/6/6
f 7/7/7 8/8/8 9/9/9
f 10/10/10 11/11/11 12/12/12
f 13/13/13 14/14/14 15/15/15
f 16/16/16 17/17/17 18/18/18
f 19/19/19 6/6/6 20/20/20
f 21/21/21 7/7/7 22/22/22
f 8/8/8 23/23/23 3/3/3
f 24/24/24 21/21/21 25/25/25
f 10/10/10 26/26/26 27/27/27
f 28/28/28 29/29/29 30/30/30
f 16/16/16 31/31/31 32/32/32
f 13/13/13 33/33/33 34/34/34
f 35/35/35 12/12/12 34/34/34
f 36/36/36 37/37/37 38/38/38
f 39/39/39 40/40/40 41/41/41
f 42/42/42 43/43/43 38/38/38
f 44/44/44 45/45/45 2/2/2
f 46/46/46 20/20/20 47/47/47
f 48/48/48 32/32/32 49/49/49
f 50/50/50 51/51/51 52/52/52
f 53/53/53 54/54/54 51/51/51
f 55/55/55 30/30/30 43/43/43
f 40/40/40 56/56/56 47/47/47
f 57/57/57 52/52/52 58/58/58
f 17/17/17 59/59/59 15/15/15
f 28/28/28 24/24/24 60/60/60
f 4/4/4 61/61/61 49/49/49
f 44/44/44 62/62/62 63/63/63
f 64/64/64 58/58/58 27/27/27
f 39/39/39 65/65/65 63/63/63
f 66/66/66 67/67/67 68/68/68
f 69/69/69 70/70/70 71/71/71
f 72/72/72 73/73/73 74/74/74
f 75/75/75 76/76/76 77/77/77
f 78/78/78 79/79/79 80/80/80
f 81/81/81 82/82/82 83/83/83
f 84/84/84 69/69/69 85/85/85
f 86/86/86 87/87/87 74/74/74
f 72/72/72 88/88/88 68/68/68
f 86/86/86 89/89/89 90/90/90
f 91/91/91 92/92/92 77/77/77
f 93/93/93 94/94/94 95/95/95
f 96/96/96 81/81/81 97/97/97
f 98/98/98 99/99/99 80/80/80
f 75/75/75 100/100/100 99/99/99
f 101/101/101 102/102/102 103/103/103
f 104/104/104 105/105/105 106/106/106
f 107/107/107 108/108/108 102/102/102
f 109/109/109 110/110/110 67/67/67
f 84/84/84 111/111/111 112/112/112
f 96/96/96 113/113/113 114/114/114
f 115/115/115 116/116/116 117/117/117
f 116/116/116 118/118/118 119/119/119
f 107/107/107 120/120/120 95/95/95
f 104/104/104 121/121/121 112/112/112
f 122/122/122 115/115/115 123/123/123
f 78/78/78 124/124/124 83/83/83
f 125/125/125 90/90/90 94/94/94
f 126/126/126 114/114/114 71/71/71
f 127/127/127 128/128/128 110/110/110
f 91/91/91 122/122/122 129/129/129
f 130/130/130 106/106/106 128/128/128
f 68/68/68 67/67/67 1/1/1
f 85/85/85 71/71/71 4/4/4
f 73/73/73 8/8/8 7/7/7
f 100/100/100 77/77/77 10/10/10
f 124/124/124 80/80/80 13/13/13
f 83/83/83 17/17/17 16/16/16
f 85/85/85 19/19/19 46/46/46
f 74/74/74 7/7/7 21/21/21
f 68/68/68 23/23/23 8/8/8
f 90/90/90 89/89/89 21/21/21
f 77/77/77 92/92/92 26/26/26
f 94/94/94 28/28/28 55/55/55
f 97/97/97 16/16/16 48/48/48
f 99/99/99 33/33/33 13/13/13
f 99/99/99 100/100/100 35/35/35
f 103/103/103 102/102/102 37/37/37
f 106/106/106 105/105/105 40/40/40
f 108/108/108 42/42/42 37/37/37
f 67/67/67 110/110/110 44/44/44
f 111/111/111 46/46/46 56/56/56
f 113/113/113 48/48/48 61/61/61
f 117/117/117 50/50/50 57/57/57
f 117/117/117 119/119/119 53/53/53
f 108/108/108 95/95/95 55/55/55
f 105/105/105 112/112/112 56/56/56
f 123/123/123 57/57/57 64/64/64
f 124/124/124 59/59/59 17/17/17
f 94/94/94 90/90/90 24/24/24
f 71/71/71 114/114/114 61/61/61
f 110/110/110 128/128/128 62/62/62
f 92/92/92 129/129/129 64/64/64
f 106/106/106 39/39/39 62/62/62
f 23/23/23 1/1/1 3/3/3
f 19/19/19 4/4/4 6/6/6
f 22/22/22 7/7/7 9/9/9
f 35/35/35 10/10/10 12/12/12
f 59/59/59 13/13/13 15/15/15
f 31/31/31 16/16/16 18/18/18
f 46/46/46 19/19/19 20/20/20
f 25/25/25 21/21/21 22/22/22
f 9/9/9 8/8/8 3/3/3
f 60/60/60 24/24/24 25/25/25
f 11/11/11 10/10/10 27/27/27
f 55/55/55 28/28/28 30/30/30
f 48/48/48 16/16/16 32/32/32
f 14/14/14 13/13/13 34/34/34
f 33/33/33 35/35/35 34/34/34
f 131/131/131 36/36/36 38/38/38
f 65/65/65 39/39/39 41/41/41
f 37/37/37 42/42/42 38/38/38
f 1/1/1 44/44/44 2/2/2
f 56/56/56 46/46/46 47/47/47
f 61/61/61 48/48/48 49/49/49
f 57/57/57 50/50/50 52/52/52
f 50/50/50 53/53/53 51/51/51
f 42/42/42 55/55/55 43/43/43
f 41/41/41 40/40/40 47/47/47
f 64/64/64 57/57/57 58/58/58
f 18/18/18 17/17/17 15/15/15
f 29/29/29 28/28/28 60/60/60
f 5/5/5 4/4/4 49/49/49
f 45/45/45 44/44/44 63/63/63
f 26/26/26 64/64/64 27/27/27
f 62/62/62 39/39/39 63/63/63
f 88/88/88 66/66/66 68/68/68
f 85/85/85 69/69/69 71/71/71
f 87/87/87 72/72/72 74/74/74
f 100/100/100 75/75/75 77/77/77
f 124/124/124 78/78/78 80/80/80
f 97/97/97 81/81/81 83/83/83
f 111/111/111 84/84/84 85/85/85
f 89/89/89 86/86/86 74/74/74
f 73/73/73 72/72/72 68/68/68
f 125/125/125 86/86/86 90/90/90
f 76/76/76 91/91/91 77/77/77
f 120/120/120 93/93/93 95/95/95
f 113/113/113 96/96/96 97/97/97
f 79/79/79 98/98/98 80/80/80
f 98/98/98 75/75/75 99/99/99
f 132/132/132 101/101/101 103/103/103
f 130/130/130 104/104/104 106/106/106
f 101/101/101 107/107/107 102/102/102
f 66/66/66 109/109/109 67/67/67
f 121/121/121 84/84/84 112/112/112
f 126/126/126 96/96/96 114/114/114
f 123/123/123 115/115/115 117/117/117
f 117/117/117 116/116/116 119/119/119
f 108/108/108 107/107/107 95/95/95
f 105/105/105 104/104/104 112/112/112
f 129/129/129 122/122/122 123/123/123
f 82/82/82 78/78/78 83/83/83
f 93/93/93 125/125/125 94/94/94
f 70/70/70 126/126/126 71/71/71
f 109/109/109 127/127/127 110/110/110
f 92/92/92 91/91/91 129/129/129
f 127/127/127 130/130/130 128/128/128
f 23/23/23 68/68/68 1/1/1
f 19/19/19 85/85/85 4/4/4
f 74/74/74 73/73/73 7/7/7
f 35/35/35 100/100/100 10/10/10
f 59/59/59 124/124/124 13/13/13
f 97/97/97 83/83/83 16/16/16
f 111/111/111 85/85/85 46/46/46
f 89/89/89 74/74/74 21/21/21
f 73/73/73 68/68/68 8/8/8
f 24/24/24 90/90/90 21/21/21
f 10/10/10 77/77/77 26/26/26
f 95/95/95 94/94/94 55/55/55
f 113/113/113 97/97/97 48/48/48
f 80/80/80 99/99/99 13/13/13
f 33/33/33 99/99/99 35/35/35
f 36/36/36 103/103/103 37/37/37
f 39/39/39 106/106/106 40/40/40
f 102/102/102 108/108/108 37/37/37
f 1/1/1 67/67/67 44/44/44
f 112/112/112 111/111/111 56/56/56
f 114/114/114 113/113/113 61/61/61
f 123/123/123 117/117/117 57/57/57
f 50/50/50 117/117/117 53/53/53
f 42/42/42 108/108/108 55/55/55
f 40/40/40 105/105/105 56/56/56
f 129/129/129 123/123/123 64/64/64
f 83/83/83 124/124/124 17/17/17
f 28/28/28 94/94/94 24/24/24
f 4/4/4 71/71/71 61/61/61
f 44/44/44 110/110/110 62/62/62
f 26/26/26 92/92/92 64/64/64
f 128/128/128 106/106/106 62/62/62
