v -1.167550 3.218418 -3.159751
v -1.167550 3.218418 -3.645437
v -1.160230 3.225738 -3.645437
v -1.167550 3.218418 -5.178236
v -1.160230 3.225738 -5.178236
v -1.160230 3.225738 -3.152431
vn 0.707100 -0.707100 0.000000
vn 0.707100 -0.707100 0.000000
vn 0.707100 -0.707100 0.000000
vn 0.707100 -0.707100 0.000000
vn 0.707100 -0.707100 0.000000
vn 0.707100 -0.707100 0.000000
vt 0.655440 0.943864
vt 0.638184 0.593952
vt 0.648612 0.593611
vt 0.622643 0.067722
vt 0.634358 0.067544
vt 0.665187 0.948974
f 1/1/1 2/2/2 3/3/3
f 4/4/4 5/5/5 3/3/3
f 6/6/6 1/1/1 3/3/3
f 2/2/2 4/4/4 3/3/3
