v -0.068437 4.615049 -2.246140
v -0.067544 4.617000 -2.243985
v -0.064305 4.617000 -2.244968
v -0.041332 4.615049 -2.228029
v -0.043664 4.617000 -2.228029
v -0.043996 4.617000 -2.224660
v -0.071826 4.615049 -2.211730
v -0.070530 4.617000 -2.213669
v -0.073148 4.617000 -2.215816
v -0.053433 4.615049 -2.246140
v -0.057111 4.615049 -2.247256
v -0.057566 4.617000 -2.244968
v -0.080162 4.615049 -2.224205
v -0.079046 4.615049 -2.220527
v -0.076892 4.617000 -2.221420
v -0.044636 4.615049 -2.217138
v -0.046575 4.617000 -2.218434
v -0.048722 4.617000 -2.215816
v -0.047074 4.615049 -2.241890
v -0.048722 4.617000 -2.240242
v -0.046575 4.617000 -2.237624
v -0.079046 4.615049 -2.235531
v -0.080162 4.615049 -2.231853
v -0.077874 4.617000 -2.231398
v -0.053433 4.615049 -2.209918
v -0.054326 4.617000 -2.212073
v -0.057566 4.617000 -2.211090
v -0.074797 4.615049 -2.241890
v -0.073148 4.617000 -2.240242
v -0.070530 4.617000 -2.242389
v -0.064759 4.615049 -2.208802
v -0.064304 4.617000 -2.211090
v -0.067544 4.617000 -2.212073
v -0.060935 4.615049 -2.247632
v -0.064759 4.615049 -2.247256
v -0.042824 4.615049 -2.220527
v -0.041709 4.615049 -2.224205
v -0.077234 4.615049 -2.217138
v -0.074797 4.615049 -2.214167
v -0.050044 4.615049 -2.244328
v -0.054326 4.617000 -2.243985
v -0.080538 4.615049 -2.228029
v -0.077874 4.617000 -2.224659
v -0.050044 4.615049 -2.211730
v -0.047074 4.615049 -2.214168
v -0.042824 4.615049 -2.235531
v -0.044636 4.615049 -2.238920
v -0.077234 4.615049 -2.238920
v -0.076892 4.617000 -2.234638
v -0.060935 4.615049 -2.208426
v -0.057111 4.615049 -2.208802
v -0.071826 4.615049 -2.244328
v -0.041709 4.615049 -2.231853
v -0.043996 4.617000 -2.231398
v -0.068437 4.615049 -2.209918
v -0.060935 4.617000 -2.245300
v -0.044979 4.617000 -2.221420
v -0.075295 4.617000 -2.218434
v -0.051340 4.617000 -2.242389
v -0.078206 4.617000 -2.228029
v -0.044979 4.617000 -2.234638
v -0.051340 4.617000 -2.213669
v -0.075296 4.617000 -2.237624
v -0.060935 4.617000 -2.210758
vn -0.245600 0.766900 -0.592900
vn -0.245600 0.766900 -0.592900
vn -0.125200 0.766900 -0.629400
vn 0.641700 0.766900 0.000000
vn 0.641700 0.766900 0.000000
vn 0.629400 0.766900 0.125200
vn -0.356500 0.766900 0.533600
vn -0.356500 0.766900 0.533600
vn -0.453700 0.766900 0.453800
vn 0.245600 0.767000 -0.592800
vn 0.125200 0.766900 -0.629400
vn 0.125200 0.766900 -0.629400
vn -0.629400 0.766900 0.125200
vn -0.592900 0.767000 0.245500
vn -0.592900 0.766900 0.245600
vn 0.533600 0.766900 0.356500
vn 0.533500 0.766900 0.356600
vn 0.453700 0.766900 0.453700
vn 0.453700 0.766900 -0.453800
vn 0.453700 0.766900 -0.453800
vn 0.533600 0.766900 -0.356600
vn -0.592900 0.766900 -0.245600
vn -0.629400 0.766900 -0.125200
vn -0.629400 0.766900 -0.125200
vn 0.245600 0.767000 0.592800
vn 0.245600 0.766900 0.592900
vn 0.125200 0.766900 0.629400
vn -0.453700 0.766900 -0.453700
vn -0.453700 0.767000 -0.453700
vn -0.356500 0.767000 -0.533500
vn -0.125200 0.766900 0.629400
vn -0.125200 0.766900 0.629400
vn -0.245600 0.766900 0.592900
vn 0.000000 0.766900 -0.641700
vn -0.125200 0.767000 -0.629300
vn 0.592900 0.766900 0.245500
vn 0.629400 0.766900 0.125100
vn -0.533600 0.766900 0.356500
vn -0.453700 0.766900 0.453800
vn 0.356500 0.766900 -0.533600
vn 0.245600 0.767000 -0.592700
vn -0.641700 0.766900 0.000000
vn -0.629400 0.766900 0.125300
vn 0.356500 0.767000 0.533500
vn 0.453800 0.766900 0.453700
vn 0.592900 0.766900 -0.245600
vn 0.533600 0.766900 -0.356500
vn -0.533600 0.766900 -0.356500
vn -0.592800 0.767000 -0.245500
vn 0.000000 0.766900 0.641700
vn 0.125200 0.767000 0.629300
vn -0.356500 0.767000 -0.533500
vn 0.629400 0.766900 -0.125200
vn 0.629400 0.766900 -0.125200
vn -0.245600 0.766900 0.592900
vn 0.000000 0.766900 -0.641700
vn 0.592800 0.767000 0.245600
vn -0.533500 0.766900 0.356500
vn 0.356400 0.766900 -0.533600
vn -0.641700 0.766900 0.000000
vn 0.592900 0.766900 -0.245600
vn 0.356500 0.767000 0.533500
vn -0.533600 0.766900 -0.356500
vn 0.000000 0.766900 0.641700
vt 0.000000 0.000000
vt 0.000000 0.000000
vt 0.000000 0.000000
vt 0.000000 0.000000
vt 0.000000 0.000000
vt 0.000000 0.000000
vt 0.000000 0.000000
vt 0.000000 0.000000
vt 0.000000 0.000000
vt 0.000000 0.000000
vt 0.000000 0.000000
vt 0.000000 0.000000
vt 0.000000 0.000000
vt 0.000000 0.000000
vt 0.000000 0.000000
vt 0.000000 0.000000
vt 0.000000 0.000000
vt 0.000000 0.000000
vt 0.000000 0.000000
vt 0.000000 0.000000
vt 0.000000 0.000000
vt 0.000000 0.000000
vt 0.000000 0.000000
vt 0.000000 0.000000
vt 0.000000 0.000000
vt 0.000000 0.000000
vt 0.000000 0.000000
vt 0.000000 0.000000
vt 0.000000 0.000000
vt 0.000000 0.000000
vt 0.000000 0.000000
vt 0.000000 0.000000
vt 0.000000 0.000000
vt 0.000000 0.000000
vt 0.000000 0.000000
vt 0.000000 0.000000
vt 0.000000 0.000000
vt 0.000000 0.000000
vt 0.000000 0.000000
vt 0.000000 0.000000
vt 0.000000 0.000000
vt 0.000000 0.000000
vt 0.000000 0.000000
vt 0.000000 0.000000
vt 0.000000 0.000000
vt 0.000000 0.000000
vt 0.000000 0.000000
vt 0.000000 0.000000
vt 0.000000 0.000000
vt 0.000000 0.000000
vt 0.000000 0.000000
vt 0.000000 0.000000
vt 0.000000 0.000000
vt 0.000000 0.000000
vt 0.000000 0.000000
vt 0.000000 0.000000
vt 0.000000 0.000000
vt 0.000000 0.000000
vt 0.000000 0.000000
vt 0.000000 0.000000
vt 0.000000 0.000000
vt 0.000000 0.000000
vt 0.000000 0.000000
vt 0.000000 0.000000
f 1/1/1 2/2/2 3/3/3
f 4/4/4 5/5/5 6/6/6
f 7/7/7 8/8/8 9/9/9
f 10/10/10 11/11/11 12/12/12
f 13/13/13 14/14/14 15/15/15
f 16/16/16 17/17/17 18/18/18
f 19/19/19 20/20/20 21/21/21
f 22/22/22 23/23/23 24/24/24
f 25/25/25 26/26/26 27/27/27
f 28/28/28 29/29/29 30/30/30
f 31/31/31 32/32/32 33/33/33
f 34/34/34 35/35/35 3/3/3
f 36/36/36 37/37/37 6/6/6
f 38/38/38 39/39/39 9/9/9
f 40/40/40 10/10/10 41/41/41
f 42/42/42 13/13/13 43/43/43
f 44/44/44 45/45/45 18/18/18
f 46/46/46 47/47/47 21/21/21
f 48/48/48 22/22/22 49/49/49
f 50/50/50 51/51/51 27/27/27
f 1/1/1 52/52/52 30/30/30
f 4/4/4 53/53/53 54/54/54
f 7/7/7 55/55/55 33/33/33
f 34/34/34 56/56/56 12/12/12
f 16/16/16 36/36/36 57/57/57
f 38/38/38 58/58/58 15/15/15
f 40/40/40 59/59/59 20/20/20
f 23/23/23 42/42/42 60/60/60
f 53/53/53 46/46/46 61/61/61
f 25/25/25 44/44/44 62/62/62
f 28/28/28 48/48/48 63/63/63
f 50/50/50 64/64/64 32/32/32
f 35/35/35 1/1/1 3/3/3
f 37/37/37 4/4/4 6/6/6
f 39/39/39 7/7/7 9/9/9
f 41/41/41 10/10/10 12/12/12
f 43/43/43 13/13/13 15/15/15
f 45/45/45 16/16/16 18/18/18
f 47/47/47 19/19/19 21/21/21
f 49/49/49 22/22/22 24/24/24
f 51/51/51 25/25/25 27/27/27
f 52/52/52 28/28/28 30/30/30
f 55/55/55 31/31/31 33/33/33
f 56/56/56 34/34/34 3/3/3
f 57/57/57 36/36/36 6/6/6
f 58/58/58 38/38/38 9/9/9
f 59/59/59 40/40/40 41/41/41
f 60/60/60 42/42/42 43/43/43
f 62/62/62 44/44/44 18/18/18
f 61/61/61 46/46/46 21/21/21
f 63/63/63 48/48/48 49/49/49
f 64/64/64 50/50/50 27/27/27
f 2/2/2 1/1/1 30/30/30
f 5/5/5 4/4/4 54/54/54
f 8/8/8 7/7/7 33/33/33
f 11/11/11 34/34/34 12/12/12
f 17/17/17 16/16/16 57/57/57
f 14/14/14 38/38/38 15/15/15
f 19/19/19 40/40/40 20/20/20
f 24/24/24 23/23/23 60/60/60
f 54/54/54 53/53/53 61/61/61
f 26/26/26 25/25/25 62/62/62
f 29/29/29 28/28/28 63/63/63
f 31/31/31 50/50/50 32/32/32
