v 0.517913 1.529881 -1.412467
v 0.519190 1.533945 -1.418888
v 0.511298 1.533945 -1.421282
v 0.527397 1.529881 -1.508767
v 0.517913 1.529881 -1.507833
v 0.519190 1.533945 -1.501412
v 0.479715 1.529881 -1.469635
v 0.486135 1.533945 -1.468358
v 0.488529 1.533945 -1.476250
v 0.561775 1.529881 -1.425773
v 0.557146 1.533945 -1.430402
v 0.550770 1.533945 -1.425170
v 0.527397 1.533945 -1.502220
v 0.535605 1.533945 -1.501412
v 0.576014 1.529881 -1.460150
v 0.575080 1.529881 -1.469635
v 0.568659 1.533945 -1.468358
v 0.569468 1.533945 -1.460150
v 0.568659 1.533945 -1.451943
v 0.554407 1.529881 -1.419727
v 0.543497 1.533945 -1.421282
v 0.482481 1.529881 -1.441545
v 0.486974 1.529881 -1.433140
v 0.492417 1.533945 -1.436777
v 0.561775 1.529881 -1.494527
v 0.557146 1.533945 -1.489898
v 0.562378 1.533945 -1.483523
v 0.567821 1.529881 -1.433140
v 0.562378 1.533945 -1.436777
v 0.572313 1.529881 -1.478755
v 0.566265 1.533945 -1.476250
v 0.493020 1.529881 -1.494527
v 0.486974 1.529881 -1.487160
v 0.492417 1.533945 -1.483523
v 0.479715 1.529881 -1.450665
v 0.486135 1.533945 -1.451943
v 0.485327 1.533945 -1.460150
v 0.500387 1.529881 -1.500573
v 0.497649 1.533945 -1.489898
v 0.508793 1.529881 -1.505066
v 0.504024 1.533945 -1.495130
v 0.554407 1.529881 -1.500573
v 0.546002 1.529881 -1.505066
v 0.543497 1.533945 -1.499018
v 0.572313 1.529881 -1.441545
v 0.566265 1.533945 -1.444050
v 0.500387 1.529881 -1.419727
v 0.508793 1.529881 -1.415234
v 0.550770 1.533945 -1.495130
v 0.493020 1.529881 -1.425773
v 0.504024 1.533945 -1.425170
v 0.536882 1.529881 -1.412467
v 0.546002 1.529881 -1.415234
v 0.575080 1.529881 -1.450665
v 0.497649 1.533945 -1.430402
v 0.482481 1.529881 -1.478755
v 0.536882 1.529881 -1.507833
v 0.478781 1.529881 -1.460150
v 0.567821 1.529881 -1.487160
v 0.517913 1.529881 -1.507833
v 0.511298 1.533945 -1.499018
v 0.527397 1.529881 -1.411533
v 0.535605 1.533945 -1.418888
v 0.517913 1.529881 -1.412467
v 0.527397 1.533945 -1.418080
v 0.488530 1.533945 -1.444051
v 0.519190 1.533945 -1.501412
v 0.519190 1.533945 -1.418888
vn -0.102900 0.849600 0.517300
vn -0.102900 0.849600 0.517300
vn -0.201800 0.849500 0.487300
vn 0.000000 0.849500 -0.527500
vn -0.102900 0.849500 -0.517300
vn -0.102900 0.849600 -0.517300
vn -0.517300 0.849600 -0.102900
vn -0.517300 0.849500 -0.102900
vn -0.487300 0.849600 -0.201800
vn 0.373000 0.849600 0.373000
vn 0.373000 0.849600 0.372900
vn 0.293000 0.849600 0.438600
vn 0.000000 0.849600 -0.527500
vn 0.102900 0.849500 -0.517300
vn 0.527500 0.849500 0.000000
vn 0.517300 0.849500 -0.102900
vn 0.517300 0.849500 -0.102900
vn 0.527500 0.849500 0.000000
vn 0.517300 0.849600 0.102900
vn 0.293000 0.849600 0.438600
vn 0.201800 0.849600 0.487300
vn -0.487300 0.849600 0.201800
vn -0.438600 0.849500 0.293000
vn -0.438600 0.849600 0.293000
vn 0.373000 0.849500 -0.373000
vn 0.373000 0.849600 -0.372900
vn 0.438600 0.849600 -0.293000
vn 0.438600 0.849600 0.293000
vn 0.438600 0.849600 0.293000
vn 0.487300 0.849500 -0.201800
vn 0.487300 0.849600 -0.201800
vn -0.373000 0.849500 -0.373000
vn -0.438600 0.849500 -0.293000
vn -0.438600 0.849600 -0.293000
vn -0.517300 0.849500 0.102900
vn -0.517300 0.849500 0.102900
vn -0.527500 0.849500 0.000000
vn -0.293000 0.849500 -0.438600
vn -0.373000 0.849600 -0.372900
vn -0.201800 0.849500 -0.487300
vn -0.293000 0.849600 -0.438600
vn 0.293000 0.849500 -0.438600
vn 0.201800 0.849500 -0.487300
vn 0.201800 0.849500 -0.487300
vn 0.487300 0.849500 0.201800
vn 0.487300 0.849600 0.201800
vn -0.293000 0.849500 0.438600
vn -0.201800 0.849500 0.487300
vn 0.293000 0.849500 -0.438600
vn -0.373000 0.849600 0.373000
vn -0.293000 0.849500 0.438600
vn 0.102900 0.849500 0.517300
vn 0.201800 0.849600 0.487300
vn 0.517300 0.849500 0.102900
vn -0.373000 0.849600 0.372900
vn -0.487300 0.849500 -0.201800
vn 0.102900 0.849500 -0.517300
vn -0.527500 0.849600 0.000000
vn 0.438600 0.849500 -0.293000
vn -0.102900 0.849500 -0.517300
vn -0.201800 0.849600 -0.487300
vn 0.000000 0.849500 0.527500
vn 0.102900 0.849600 0.517300
vn -0.102900 0.849600 0.517300
vn 0.000000 0.849600 0.527500
vn -0.487300 0.849600 0.201800
vn -0.102900 0.849600 -0.517300
vn -0.102900 0.849600 0.517300
vt 0.012478 0.735021
vt 0.009988 0.736331
vt 0.018979 0.736109
vt 0.711545 0.726094
vt 0.717530 0.726181
vt 0.716889 0.728681
vt 0.036733 0.729722
vt 0.032165 0.731745
vt 0.028881 0.731013
vt 0.673618 0.733788
vt 0.680026 0.735264
vt 0.685284 0.735749
vt 0.711545 0.728606
vt 0.706200 0.728681
vt 0.671721 0.730601
vt 0.674811 0.729722
vt 0.679379 0.731745
vt 0.676923 0.732506
vt 0.675503 0.733267
vt 0.679486 0.734348
vt 0.692566 0.736109
vt 0.042418 0.732326
vt 0.041256 0.733105
vt 0.034759 0.734673
vt 0.688450 0.727414
vt 0.691037 0.729748
vt 0.686599 0.730339
vt 0.670289 0.733105
vt 0.676786 0.734673
vt 0.678753 0.728877
vt 0.682664 0.731013
vt 0.023094 0.727414
vt 0.028193 0.728097
vt 0.024946 0.730339
vt 0.041819 0.731480
vt 0.036041 0.733267
vt 0.034622 0.732506
vt 0.017623 0.726854
vt 0.020507 0.729748
vt 0.011889 0.726437
vt 0.015691 0.729263
vt 0.693921 0.726854
vt 0.699656 0.726437
vt 0.700940 0.728903
vt 0.669127 0.732326
vt 0.675367 0.733998
vt 0.032058 0.734348
vt 0.023480 0.734765
vt 0.695854 0.729263
vt 0.037926 0.733788
vt 0.026261 0.735749
vt 0.699066 0.735021
vt 0.688065 0.734765
vt 0.669726 0.731480
vt 0.031518 0.735264
vt 0.032792 0.728877
vt 0.705559 0.726181
vt 0.039823 0.730601
vt 0.683351 0.728097
vt 0.005986 0.726181
vt 0.010605 0.728903
vt 0.711545 0.735108
vt 0.701557 0.736331
vt 0.724023 0.735021
vt 0.711545 0.736406
vt 0.036177 0.733998
vt 0.005345 0.728681
vt 0.721533 0.736331
f 1/1/1 2/2/2 3/3/3
f 4/4/4 5/5/5 6/6/6
f 7/7/7 8/8/8 9/9/9
f 10/10/10 11/11/11 12/12/12
f 4/4/4 13/13/13 14/14/14
f 15/15/15 16/16/16 17/17/17
f 15/15/15 18/18/18 19/19/19
f 20/20/20 12/12/12 21/21/21
f 22/22/22 23/23/23 24/24/24
f 25/25/25 26/26/26 27/27/27
f 28/28/28 29/29/29 11/11/11
f 30/30/30 31/31/31 17/17/17
f 32/32/32 33/33/33 34/34/34
f 35/35/35 36/36/36 37/37/37
f 38/38/38 32/32/32 39/39/39
f 40/40/40 38/38/38 41/41/41
f 42/42/42 43/43/43 44/44/44
f 28/28/28 45/45/45 46/46/46
f 47/47/47 48/48/48 3/3/3
f 25/25/25 42/42/42 49/49/49
f 50/50/50 47/47/47 51/51/51
f 52/52/52 53/53/53 21/21/21
f 54/54/54 19/19/19 46/46/46
f 50/50/50 55/55/55 24/24/24
f 33/33/33 56/56/56 9/9/9
f 43/43/43 57/57/57 14/14/14
f 58/58/58 37/37/37 8/8/8
f 59/59/59 27/27/27 31/31/31
f 60/60/60 40/40/40 61/61/61
f 62/62/62 52/52/52 63/63/63
f 64/64/64 62/62/62 65/65/65
f 35/35/35 22/22/22 66/66/66
f 48/48/48 1/1/1 3/3/3
f 13/13/13 4/4/4 6/6/6
f 56/56/56 7/7/7 9/9/9
f 20/20/20 10/10/10 12/12/12
f 57/57/57 4/4/4 14/14/14
f 18/18/18 15/15/15 17/17/17
f 54/54/54 15/15/15 19/19/19
f 53/53/53 20/20/20 21/21/21
f 66/66/66 22/22/22 24/24/24
f 59/59/59 25/25/25 27/27/27
f 10/10/10 28/28/28 11/11/11
f 16/16/16 30/30/30 17/17/17
f 39/39/39 32/32/32 34/34/34
f 58/58/58 35/35/35 37/37/37
f 41/41/41 38/38/38 39/39/39
f 61/61/61 40/40/40 41/41/41
f 49/49/49 42/42/42 44/44/44
f 29/29/29 28/28/28 46/46/46
f 51/51/51 47/47/47 3/3/3
f 26/26/26 25/25/25 49/49/49
f 55/55/55 50/50/50 51/51/51
f 63/63/63 52/52/52 21/21/21
f 45/45/45 54/54/54 46/46/46
f 23/23/23 50/50/50 24/24/24
f 34/34/34 33/33/33 9/9/9
f 44/44/44 43/43/43 14/14/14
f 7/7/7 58/58/58 8/8/8
f 30/30/30 59/59/59 31/31/31
f 67/67/67 60/60/60 61/61/61
f 65/65/65 62/62/62 63/63/63
f 68/68/68 64/64/64 65/65/65
f 36/36/36 35/35/35 66/66/66
