v -0.114607 3.484737 1.069195
v 2.495325 3.956427 1.069195
v -4.106981 3.956427 1.069195
v -4.106981 0.025437 1.069195
v -1.126417 0.025437 1.069195
v -1.126417 2.368377 1.069195
v 1.117106 2.368377 1.069195
v 1.117106 0.025438 1.069195
v 2.495325 0.025438 1.069195
v -1.121015 2.478329 1.069195
v -1.104863 2.587222 1.069195
v 1.111705 2.478328 1.069195
v -1.078114 2.694007 1.069195
v 1.095552 2.587221 1.069195
v -1.041028 2.797657 1.069195
v 1.068804 2.694006 1.069195
v -0.993961 2.897172 1.069195
v 1.031718 2.797655 1.069195
v -0.937366 2.991595 1.069195
v 0.984651 2.897170 1.069195
v -0.871789 3.080015 1.069195
v 0.928056 2.991593 1.069195
v -0.797861 3.161582 1.069195
v 0.862479 3.080014 1.069195
v 0.788551 3.161581 1.069195
v -0.716293 3.235511 1.069195
v 0.706984 3.235509 1.069195
v -0.627873 3.301088 1.069195
v 0.618564 3.301086 1.069195
v -0.533450 3.357682 1.069195
v 0.524142 3.357681 1.069195
v -0.433935 3.404750 1.069195
v 0.424627 3.404748 1.069195
v -0.330286 3.441836 1.069195
v 0.320978 3.441835 1.069195
v -0.223500 3.468584 1.069195
v 0.214193 3.468584 1.069195
v 0.105300 3.484736 1.069195
v -0.004655 3.490139 1.069195
vn 0.000000 0.000000 1.000000
vn 0.000000 0.000000 1.000000
vn 0.000000 0.000000 1.000000
vn 0.000000 0.000000 1.000000
vn 0.000000 0.000000 1.000000
vn 0.000000 0.000000 1.000000
vn 0.000000 0.000000 1.000000
vn 0.000000 0.000000 1.000000
vn 0.000000 0.000000 1.000000
vn 0.000000 0.000000 1.000000
vn 0.000000 0.000000 1.000000
vn 0.000000 0.000000 1.000000
vn 0.000000 0.000000 1.000000
vn 0.000000 0.000000 1.000000
vn 0.000000 0.000000 1.000000
vn 0.000000 0.000000 1.000000
vn 0.000000 0.000000 1.000000
vn 0.000000 0.000000 1.000000
vn 0.000000 0.000000 1.000000
vn 0.000000 0.000000 1.000000
vn 0.000000 0.000000 1.000000
vn 0.000000 0.000000 1.000000
vn 0.000000 0.000000 1.000000
vn 0.000000 0.000000 1.000000
vn 0.000000 0.000000 1.000000
vn 0.000000 0.000000 1.000000
vn 0.000000 0.000000 1.000000
vn 0.000000 0.000000 1.000000
vn 0.000000 0.000000 1.000000
vn 0.000000 0.000000 1.000000
vn 0.000000 0.000000 1.000000
vn 0.000000 0.000000 1.000000
vn 0.000000 0.000000 1.000000
vn 0.000000 0.000000 1.000000
vn 0.000000 0.000000 1.000000
vn 0.000000 0.000000 1.000000
vn 0.000000 0.000000 1.000000
vn 0.000000 0.000000 1.000000
vn 0.000000 0.000000 1.000000
vt 2.478564 4.884768
vt 10.180442 6.276721
vt -9.302878 6.276721
vt -9.302878 -5.323583
vt -0.507273 -5.323582
vt -0.507273 1.590405
vt 6.113335 1.590405
vt 6.113335 -5.323579
vt 10.180442 -5.323579
vt -0.491332 1.914872
vt -0.443667 2.236213
vt 6.097397 1.914872
vt -0.364732 2.551338
vt 6.049729 2.236211
vt -0.255291 2.857202
vt 5.970796 2.551331
vt -0.116396 3.150873
vt 5.861354 2.857200
vt 0.050614 3.429515
vt 5.722461 3.150866
vt 0.244132 3.690439
vt 5.555451 3.429506
vt 0.462292 3.931143
vt 5.361933 3.690435
vt 5.143774 3.931139
vt 0.702996 4.149304
vt 4.903072 4.149301
vt 0.963924 4.342823
vt 4.642144 4.342819
vt 1.242565 4.509833
vt 4.363504 4.509829
vt 1.536232 4.648731
vt 4.069838 4.648724
vt 1.842100 4.758169
vt 3.763972 4.758166
vt 2.157222 4.837101
vt 3.448850 4.837099
vt 3.127509 4.884768
vt 2.803031 4.900709
f 1/1/1 2/2/2 3/3/3
f 4/4/4 5/5/5 6/6/6
f 7/7/7 8/8/8 9/9/9
f 3/3/3 6/6/6 10/10/10
f 2/2/2 7/7/7 9/9/9
f 3/3/3 10/10/10 11/11/11
f 2/2/2 12/12/12 7/7/7
f 3/3/3 11/11/11 13/13/13
f 2/2/2 14/14/14 12/12/12
f 3/3/3 13/13/13 15/15/15
f 2/2/2 16/16/16 14/14/14
f 3/3/3 15/15/15 17/17/17
f 2/2/2 18/18/18 16/16/16
f 3/3/3 17/17/17 19/19/19
f 20/20/20 18/18/18 2/2/2
f 3/3/3 19/19/19 21/21/21
f 22/22/22 20/20/20 2/2/2
f 3/3/3 21/21/21 23/23/23
f 24/24/24 22/22/22 2/2/2
f 3/3/3 4/4/4 6/6/6
f 25/25/25 24/24/24 2/2/2
f 3/3/3 23/23/23 26/26/26
f 27/27/27 25/25/25 2/2/2
f 3/3/3 26/26/26 28/28/28
f 29/29/29 27/27/27 2/2/2
f 3/3/3 28/28/28 30/30/30
f 31/31/31 29/29/29 2/2/2
f 3/3/3 30/30/30 32/32/32
f 33/33/33 31/31/31 2/2/2
f 3/3/3 32/32/32 34/34/34
f 35/35/35 33/33/33 2/2/2
f 3/3/3 34/34/34 36/36/36
f 37/37/37 35/35/35 2/2/2
f 3/3/3 36/36/36 1/1/1
f 38/38/38 37/37/37 2/2/2
f 2/2/2 1/1/1 39/39/39
f 39/39/39 38/38/38 2/2/2
