v -1.722686 4.995769 -3.216110
v -1.721416 4.988490 -3.215857
v -1.722209 4.988490 -3.207801
v -1.715250 4.988490 -3.184861
v -1.710115 4.988490 -3.178603
v -1.711031 4.995769 -3.177687
v -1.723504 4.995769 -3.207801
v -1.721416 4.988490 -3.199745
v -1.720263 4.995769 -3.191504
v -1.719066 4.988490 -3.191999
v -1.703858 4.988490 -3.173468
v -1.704577 4.995769 -3.172391
v -1.696719 4.988490 -3.169652
v -1.688973 4.988490 -3.167303
v -1.689226 4.995769 -3.166032
v -1.680917 4.988490 -3.166509
v -1.672861 4.988490 -3.167303
v -1.672609 4.995769 -3.166032
v -1.664620 4.995769 -3.168456
v -1.665115 4.988490 -3.169652
v -1.657977 4.988490 -3.173468
v -1.657257 4.995769 -3.172391
v -1.651719 4.988490 -3.178603
v -1.646584 4.988490 -3.184860
v -1.645507 4.995769 -3.184141
v -1.641572 4.995769 -3.191504
v -1.642768 4.988490 -3.191999
v -1.640419 4.988490 -3.199745
v -1.639148 4.995769 -3.199493
v -1.639625 4.988490 -3.207801
v -1.640419 4.988490 -3.215857
v -1.639148 4.995769 -3.216110
v -1.641572 4.995769 -3.224099
v -1.642768 4.988490 -3.223603
v -1.646584 4.988490 -3.230742
v -1.651719 4.988490 -3.236999
v -1.650803 4.995769 -3.237915
v -1.657977 4.988490 -3.242134
v -1.665115 4.988490 -3.245950
v -1.672861 4.988490 -3.248300
v -1.672609 4.995769 -3.249570
v -1.680917 4.988490 -3.249093
v -1.688973 4.988490 -3.248300
v -1.689226 4.995769 -3.249570
v -1.697215 4.995769 -3.247147
v -1.696719 4.988490 -3.245950
v -1.703858 4.988490 -3.242134
v -1.710115 4.988490 -3.236999
v -1.711031 4.995769 -3.237915
v -1.715250 4.988490 -3.230742
v -1.716327 4.995769 -3.231461
v -1.719066 4.988490 -3.223603
v -1.720263 4.995769 -3.224099
v -1.722686 4.995769 -3.199493
v -1.697215 4.995769 -3.168456
v -1.664620 4.995769 -3.247147
v -1.657257 4.995769 -3.243211
v -1.716327 4.995769 -3.184141
v -1.680917 4.995769 -3.165214
v -1.650803 4.995769 -3.177687
v -1.638330 4.995769 -3.207801
v -1.645507 4.995769 -3.231461
v -1.680917 4.995769 -3.250388
v -1.704577 4.995769 -3.243211
vn -0.965600 -0.175200 -0.192100
vn -0.965600 -0.175200 -0.192100
vn -0.984500 -0.175200 0.000000
vn -0.818600 -0.175200 0.547000
vn -0.696200 -0.175200 0.696200
vn -0.696200 -0.175200 0.696100
vn -0.984500 -0.175200 0.000000
vn -0.965600 -0.175100 0.192100
vn -0.909600 -0.175200 0.376700
vn -0.909600 -0.175200 0.376800
vn -0.546900 -0.175200 0.818600
vn -0.547000 -0.175200 0.818600
vn -0.376700 -0.175200 0.909600
vn -0.192100 -0.175200 0.965600
vn -0.192100 -0.175200 0.965600
vn 0.000000 -0.175200 0.984500
vn 0.192100 -0.175200 0.965600
vn 0.192100 -0.175200 0.965600
vn 0.376700 -0.175200 0.909600
vn 0.376700 -0.175200 0.909600
vn 0.546900 -0.175200 0.818600
vn 0.547000 -0.175200 0.818600
vn 0.696200 -0.175200 0.696200
vn 0.818600 -0.175100 0.547000
vn 0.818600 -0.175200 0.547000
vn 0.909600 -0.175200 0.376800
vn 0.909600 -0.175200 0.376800
vn 0.965600 -0.175200 0.192100
vn 0.965600 -0.175200 0.192100
vn 0.984500 -0.175200 0.000000
vn 0.965600 -0.175200 -0.192100
vn 0.965600 -0.175200 -0.192100
vn 0.909600 -0.175200 -0.376800
vn 0.909600 -0.175200 -0.376800
vn 0.818600 -0.175200 -0.547000
vn 0.696200 -0.175100 -0.696200
vn 0.696200 -0.175200 -0.696200
vn 0.547000 -0.175200 -0.818600
vn 0.376700 -0.175200 -0.909600
vn 0.192000 -0.175100 -0.965600
vn 0.192100 -0.175200 -0.965600
vn 0.000000 -0.175200 -0.984500
vn -0.192100 -0.175200 -0.965600
vn -0.192100 -0.175200 -0.965600
vn -0.376800 -0.175200 -0.909600
vn -0.376700 -0.175200 -0.909600
vn -0.547000 -0.175200 -0.818600
vn -0.696100 -0.175200 -0.696200
vn -0.696200 -0.175200 -0.696100
vn -0.818600 -0.175200 -0.547000
vn -0.818600 -0.175200 -0.547000
vn -0.909600 -0.175200 -0.376800
vn -0.909600 -0.175200 -0.376800
vn -0.965600 -0.175200 0.192100
vn -0.376800 -0.175200 0.909600
vn 0.376800 -0.175200 -0.909600
vn 0.547000 -0.175200 -0.818600
vn -0.818600 -0.175200 0.546900
vn 0.000000 -0.175200 0.984500
vn 0.696200 -0.175200 0.696100
vn 0.984500 -0.175200 0.000000
vn 0.818600 -0.175200 -0.547000
vn 0.000000 -0.175200 -0.984500
vn -0.547000 -0.175200 -0.818600
vt 0.489645 0.908739
vt 0.489890 0.906146
vt 0.490712 0.904289
vt 0.494958 0.900009
vt 0.496787 0.899195
vt 0.496712 0.901570
vt 0.490489 0.906824
vt 0.491864 0.902605
vt 0.493139 0.903597
vt 0.493297 0.901160
vt 0.498722 0.898751
vt 0.498692 0.901113
vt 0.500698 0.898694
vt 0.502652 0.899025
vt 0.502714 0.901395
vt 0.504519 0.899733
vt 0.506235 0.900789
vt 0.506382 0.903213
vt 0.507925 0.904620
vt 0.507742 0.902153
vt 0.508982 0.903773
vt 0.509196 0.906291
vt 0.509905 0.905586
vt 0.510470 0.907523
vt 0.510726 0.910159
vt 0.510908 0.912208
vt 0.510645 0.909510
vt 0.510396 0.911508
vt 0.510669 0.914229
vt 0.509759 0.913327
vt 0.508708 0.915010
vt 0.508931 0.917881
vt 0.507477 0.919372
vt 0.507289 0.916456
vt 0.505553 0.917607
vt 0.503571 0.918420
vt 0.503664 0.921398
vt 0.501428 0.918864
vt 0.499220 0.918921
vt 0.497047 0.918590
vt 0.496970 0.921573
vt 0.495008 0.917883
vt 0.493192 0.916827
vt 0.493016 0.919755
vt 0.491460 0.918348
vt 0.491673 0.915463
vt 0.490509 0.913843
vt 0.489739 0.912029
vt 0.489482 0.914807
vt 0.489382 0.910092
vt 0.489119 0.912809
vt 0.489437 0.908106
vt 0.489178 0.910760
vt 0.491670 0.905087
vt 0.500715 0.901053
vt 0.499199 0.921915
vt 0.501465 0.921856
vt 0.494840 0.902409
vt 0.504625 0.902124
vt 0.510145 0.908161
vt 0.510006 0.916145
vt 0.505697 0.920559
vt 0.494878 0.920844
vt 0.490269 0.916677
f 1/1/1 2/2/2 3/3/3
f 4/4/4 5/5/5 6/6/6
f 7/7/7 3/3/3 8/8/8
f 9/9/9 10/10/10 4/4/4
f 5/5/5 11/11/11 12/12/12
f 13/13/13 14/14/14 15/15/15
f 15/15/15 14/14/14 16/16/16
f 16/16/16 17/17/17 18/18/18
f 19/19/19 20/20/20 21/21/21
f 22/22/22 21/21/21 23/23/23
f 23/23/23 24/24/24 25/25/25
f 26/26/26 27/27/27 28/28/28
f 29/29/29 28/28/28 30/30/30
f 30/30/30 31/31/31 32/32/32
f 33/33/33 34/34/34 35/35/35
f 35/35/35 36/36/36 37/37/37
f 37/37/37 36/36/36 38/38/38
f 39/39/39 40/40/40 41/41/41
f 41/41/41 40/40/40 42/42/42
f 42/42/42 43/43/43 44/44/44
f 45/45/45 46/46/46 47/47/47
f 47/47/47 48/48/48 49/49/49
f 48/48/48 50/50/50 51/51/51
f 51/51/51 50/50/50 52/52/52
f 53/53/53 52/52/52 2/2/2
f 10/10/10 9/9/9 54/54/54
f 55/55/55 12/12/12 11/11/11
f 20/20/20 19/19/19 18/18/18
f 27/27/27 26/26/26 25/25/25
f 34/34/34 33/33/33 32/32/32
f 56/56/56 57/57/57 38/38/38
f 45/45/45 44/44/44 43/43/43
f 7/7/7 1/1/1 3/3/3
f 58/58/58 4/4/4 6/6/6
f 54/54/54 7/7/7 8/8/8
f 58/58/58 9/9/9 4/4/4
f 6/6/6 5/5/5 12/12/12
f 55/55/55 13/13/13 15/15/15
f 59/59/59 15/15/15 16/16/16
f 59/59/59 16/16/16 18/18/18
f 22/22/22 19/19/19 21/21/21
f 60/60/60 22/22/22 23/23/23
f 60/60/60 23/23/23 25/25/25
f 29/29/29 26/26/26 28/28/28
f 61/61/61 29/29/29 30/30/30
f 61/61/61 30/30/30 32/32/32
f 62/62/62 33/33/33 35/35/35
f 62/62/62 35/35/35 37/37/37
f 57/57/57 37/37/37 38/38/38
f 56/56/56 39/39/39 41/41/41
f 63/63/63 41/41/41 42/42/42
f 63/63/63 42/42/42 44/44/44
f 64/64/64 45/45/45 47/47/47
f 64/64/64 47/47/47 49/49/49
f 49/49/49 48/48/48 51/51/51
f 53/53/53 51/51/51 52/52/52
f 1/1/1 53/53/53 2/2/2
f 8/8/8 10/10/10 54/54/54
f 13/13/13 55/55/55 11/11/11
f 17/17/17 20/20/20 18/18/18
f 24/24/24 27/27/27 25/25/25
f 31/31/31 34/34/34 32/32/32
f 39/39/39 56/56/56 38/38/38
f 46/46/46 45/45/45 43/43/43
