v -0.841452 2.651332 -3.149751
v -0.841452 2.651332 -3.209752
v -0.841452 2.650873 -3.209752
v -0.829453 2.630088 -3.161751
v -0.838237 2.638873 -3.152967
v -0.838237 2.638873 -3.209752
v -0.841452 2.650873 -3.149751
v -0.838237 2.663332 -3.152966
v -0.838237 2.663332 -3.209752
v -0.829453 2.672117 -3.161751
v -0.829453 2.630088 -3.209752
v -0.829453 2.672117 -3.209752
vn -0.992900 0.119100 0.000000
vn -0.991400 0.130500 0.000000
vn -0.991400 -0.130500 0.000000
vn -0.707100 -0.707100 0.000000
vn -0.904700 -0.426000 0.000000
vn -0.866000 -0.500000 0.000000
vn -0.992900 -0.119100 0.000000
vn -0.904700 0.426000 0.000000
vn -0.866000 0.500000 0.000000
vn -0.707100 0.707100 0.000000
vn -0.707100 -0.707100 0.000000
vn -0.707100 0.707100 0.000000
vt 0.651486 0.727693
vt 0.651469 0.483800
vt 0.655726 0.483841
vt 0.756737 0.678950
vt 0.706240 0.714661
vt 0.706224 0.483838
vt 0.655742 0.727735
vt 0.600985 0.714627
vt 0.600970 0.483803
vt 0.550484 0.678922
vt 0.756724 0.483835
vt 0.550470 0.483807
f 1/1/1 2/2/2 3/3/3
f 4/4/4 5/5/5 6/6/6
f 5/5/5 7/7/7 3/3/3
f 2/2/2 1/1/1 8/8/8
f 9/9/9 8/8/8 10/10/10
f 7/7/7 1/1/1 3/3/3
f 11/11/11 4/4/4 6/6/6
f 6/6/6 5/5/5 3/3/3
f 9/9/9 2/2/2 8/8/8
f 12/12/12 9/9/9 10/10/10
