v 2.495326 1.497602 -3.209340
v 0.526841 1.497602 -3.209340
v 0.526841 1.497602 -2.773242
v 0.526841 1.497602 -2.773242
v 0.526841 1.497602 -3.209340
v 0.486841 1.497602 -3.209340
v 2.495326 1.494922 -2.723242
v 2.495326 1.497602 -2.733242
v 0.486841 1.497602 -2.733242
v 0.526841 1.497602 -2.773242
v 0.476841 1.494922 -3.209340
v 0.476841 1.494922 -2.723242
v 0.486841 1.497602 -2.733242
v 2.495326 1.497602 -2.773242
v 0.476841 1.494922 -2.723242
v 2.495326 1.497602 -2.773242
vn 0.000000 1.000000 0.000000
vn 0.000000 1.000000 0.000000
vn 0.000000 1.000000 0.000000
vn 0.000000 1.000000 0.000000
vn 0.000000 1.000000 0.000000
vn -0.130500 0.991400 0.000000
vn 0.000000 0.965900 0.258800
vn 0.000000 0.991400 0.130500
vn -0.098400 0.990200 0.098400
vn 0.000000 1.000000 0.000000
vn -0.258800 0.965900 0.000000
vn -0.131600 0.982500 0.131600
vn -0.098400 0.990200 0.098400
vn 0.000000 1.000000 0.000000
vn -0.131600 0.982500 0.131600
vn 0.000000 1.000000 0.000000
vt 0.320914 0.939322
vt 0.320914 0.055118
vt 0.938653 0.055118
vt 0.573668 0.640321
vt 0.573668 0.326240
vt 0.631861 0.326240
vt 0.640329 0.951642
vt 0.602134 0.951723
vt 0.623675 0.092726
vt 0.562069 0.139582
vt 0.646920 0.326240
vt 0.646921 0.676331
vt 0.631861 0.669129
vt 0.938652 0.939322
vt 0.657255 0.079948
vt 0.557665 0.951690
f 1/1/1 2/2/2 3/3/3
f 4/4/4 5/5/5 6/6/6
f 7/7/7 8/8/8 9/9/9
f 10/10/10 9/9/9 8/8/8
f 11/11/11 12/12/12 13/13/13
f 14/14/14 1/1/1 3/3/3
f 13/13/13 4/4/4 6/6/6
f 15/15/15 7/7/7 9/9/9
f 16/16/16 10/10/10 8/8/8
f 6/6/6 11/11/11 13/13/13
