v 0.462545 1.920158 -1.433287
v 0.458550 1.920158 -1.446455
v 0.467368 1.916561 -1.448209
v 0.503975 1.916561 -1.403603
v 0.500534 1.920158 -1.395297
v 0.488398 1.920158 -1.401784
v 0.550820 1.916561 -1.403603
v 0.554260 1.920158 -1.395297
v 0.541092 1.920158 -1.391303
v 0.592250 1.920158 -1.433287
v 0.585763 1.920158 -1.421151
v 0.578288 1.916561 -1.426146
v 0.583944 1.916561 -1.483572
v 0.592250 1.920158 -1.487013
v 0.596245 1.920158 -1.473845
v 0.554260 1.920158 -1.525003
v 0.566396 1.920158 -1.518516
v 0.561402 1.916561 -1.511041
v 0.500534 1.920158 -1.525003
v 0.513703 1.920158 -1.528997
v 0.515457 1.916561 -1.520180
v 0.458550 1.920158 -1.473845
v 0.467367 1.916561 -1.472091
v 0.466191 1.916561 -1.460150
v 0.476507 1.916561 -1.426146
v 0.484118 1.916561 -1.416871
v 0.477761 1.920158 -1.410514
v 0.470850 1.916561 -1.436728
v 0.493393 1.916561 -1.409259
v 0.515457 1.916561 -1.400120
v 0.513703 1.920158 -1.391303
v 0.513703 1.920158 -1.391303
v 0.515457 1.916561 -1.400120
v 0.527397 1.916561 -1.398944
v 0.527397 1.920158 -1.389954
v 0.539338 1.916561 -1.400120
v 0.561402 1.916561 -1.409259
v 0.566396 1.920158 -1.401784
v 0.570677 1.916561 -1.416871
v 0.583944 1.916561 -1.436728
v 0.587427 1.916561 -1.448209
v 0.596245 1.920158 -1.446455
v 0.588603 1.916561 -1.460150
v 0.587427 1.916561 -1.472091
v 0.578288 1.916561 -1.494154
v 0.585763 1.920158 -1.499149
v 0.570677 1.916561 -1.503429
v 0.577034 1.920158 -1.509786
v 0.550820 1.916561 -1.516697
v 0.539338 1.916561 -1.520180
v 0.541092 1.920158 -1.528997
v 0.527397 1.916561 -1.521356
v 0.515457 1.916561 -1.520180
v 0.513703 1.920158 -1.528997
v 0.503975 1.916561 -1.516697
v 0.493393 1.916561 -1.511041
v 0.488398 1.920158 -1.518516
v 0.484118 1.916561 -1.503429
v 0.477761 1.920158 -1.509786
v 0.476507 1.916561 -1.494154
v 0.469031 1.920158 -1.499149
v 0.470850 1.916561 -1.483572
v 0.462544 1.920158 -1.487013
v 0.457201 1.920158 -1.460150
v 0.469031 1.920158 -1.421151
v 0.577034 1.920158 -1.410514
v 0.597594 1.920158 -1.460150
v 0.527397 1.920158 -1.530346
vn -0.343200 -0.928400 0.142100
vn -0.364300 -0.928400 0.072500
vn -0.364300 -0.928400 0.072500
vn -0.142200 -0.928400 0.343200
vn -0.142200 -0.928400 0.343200
vn -0.206400 -0.928400 0.308800
vn 0.142200 -0.928400 0.343200
vn 0.142100 -0.928400 0.343200
vn 0.072500 -0.928400 0.364300
vn 0.343200 -0.928400 0.142200
vn 0.308800 -0.928400 0.206400
vn 0.308800 -0.928400 0.206400
vn 0.343200 -0.928400 -0.142100
vn 0.343200 -0.928400 -0.142100
vn 0.364300 -0.928400 -0.072500
vn 0.142200 -0.928400 -0.343200
vn 0.206400 -0.928400 -0.308800
vn 0.206400 -0.928400 -0.308800
vn -0.142200 -0.928400 -0.343200
vn -0.072500 -0.928400 -0.364300
vn -0.072500 -0.928400 -0.364300
vn -0.364300 -0.928400 -0.072500
vn -0.364300 -0.928400 -0.072500
vn -0.371400 -0.928400 0.000000
vn -0.308800 -0.928400 0.206400
vn -0.262600 -0.928400 0.262700
vn -0.262600 -0.928400 0.262700
vn -0.343200 -0.928400 0.142200
vn -0.206400 -0.928400 0.308800
vn -0.072500 -0.928400 0.364300
vn -0.072500 -0.928400 0.364300
vn -0.072500 -0.928400 0.364300
vn -0.072500 -0.928400 0.364300
vn 0.000000 -0.928400 0.371500
vn 0.000000 -0.928400 0.371500
vn 0.072500 -0.928400 0.364300
vn 0.206400 -0.928400 0.308800
vn 0.206400 -0.928400 0.308800
vn 0.262600 -0.928400 0.262700
vn 0.343200 -0.928400 0.142200
vn 0.364300 -0.928400 0.072500
vn 0.364300 -0.928400 0.072500
vn 0.371500 -0.928400 0.000000
vn 0.364300 -0.928400 -0.072500
vn 0.308800 -0.928400 -0.206400
vn 0.308800 -0.928400 -0.206400
vn 0.262600 -0.928400 -0.262700
vn 0.262600 -0.928400 -0.262700
vn 0.142200 -0.928400 -0.343200
vn 0.072500 -0.928400 -0.364300
vn 0.072500 -0.928400 -0.364300
vn 0.000000 -0.928400 -0.371500
vn -0.072500 -0.928400 -0.364300
vn -0.072500 -0.928400 -0.364300
vn -0.142200 -0.928400 -0.343200
vn -0.206400 -0.928400 -0.308800
vn -0.206400 -0.928400 -0.308800
vn -0.262600 -0.928400 -0.262700
vn -0.262600 -0.928400 -0.262700
vn -0.308800 -0.928400 -0.206400
vn -0.308800 -0.928400 -0.206400
vn -0.343200 -0.928400 -0.142200
vn -0.343200 -0.928400 -0.142100
vn -0.371400 -0.928400 0.000000
vn -0.308800 -0.928400 0.206400
vn 0.262600 -0.928400 0.262700
vn 0.371500 -0.928400 0.000000
vn 0.000000 -0.928400 -0.371400
vt 0.038787 0.915990
vt 0.038472 0.914770
vt 0.033685 0.912921
vt 0.017307 0.917056
vt 0.020799 0.919512
vt 0.028626 0.918911
vt 0.694238 0.917056
vt 0.690746 0.919512
vt 0.700557 0.919882
vt 0.672757 0.915990
vt 0.674088 0.917115
vt 0.679354 0.914967
vt 0.684303 0.909643
vt 0.681000 0.911010
vt 0.677442 0.912231
vt 0.700391 0.907488
vt 0.695028 0.908090
vt 0.696674 0.907097
vt 0.011154 0.907488
vt 0.005619 0.907118
vt 0.005072 0.906250
vt 0.034103 0.912231
vt 0.030264 0.910708
vt 0.032477 0.911815
vt 0.032191 0.914967
vt 0.029036 0.915827
vt 0.034157 0.918101
vt 0.033668 0.913986
vt 0.024063 0.916532
vt 0.009077 0.917379
vt 0.010988 0.919882
vt 0.722533 0.919882
vt 0.720622 0.917379
vt 0.711545 0.917488
vt 0.711545 0.920007
vt 0.702467 0.917379
vt 0.687482 0.916532
vt 0.682919 0.918911
vt 0.682509 0.915827
vt 0.677876 0.913986
vt 0.677859 0.912921
vt 0.673073 0.914770
vt 0.679068 0.911815
vt 0.681280 0.910708
vt 0.687968 0.908662
vt 0.685215 0.909885
vt 0.692132 0.907802
vt 0.689933 0.908899
vt 0.701486 0.906573
vt 0.706473 0.906250
vt 0.705926 0.907118
vt 0.711545 0.906141
vt 0.716617 0.906250
vt 0.717164 0.907118
vt 0.010059 0.906573
vt 0.014871 0.907097
vt 0.016517 0.908090
vt 0.019413 0.907802
vt 0.021612 0.908899
vt 0.023577 0.908662
vt 0.026330 0.909885
vt 0.027242 0.909643
vt 0.030544 0.911010
vt 0.036820 0.913500
vt 0.037457 0.917115
vt 0.677388 0.918101
vt 0.674725 0.913500
vt 0.711545 0.906993
f 1/1/1 2/2/2 3/3/3
f 4/4/4 5/5/5 6/6/6
f 7/7/7 8/8/8 9/9/9
f 10/10/10 11/11/11 12/12/12
f 13/13/13 14/14/14 15/15/15
f 16/16/16 17/17/17 18/18/18
f 19/19/19 20/20/20 21/21/21
f 22/22/22 23/23/23 24/24/24
f 25/25/25 26/26/26 27/27/27
f 24/24/24 3/3/3 2/2/2
f 1/1/1 28/28/28 25/25/25
f 26/26/26 29/29/29 6/6/6
f 4/4/4 30/30/30 31/31/31
f 32/32/32 33/33/33 34/34/34
f 35/35/35 34/34/34 36/36/36
f 7/7/7 37/37/37 38/38/38
f 38/38/38 37/37/37 39/39/39
f 39/39/39 12/12/12 11/11/11
f 40/40/40 41/41/41 42/42/42
f 42/42/42 41/41/41 43/43/43
f 43/43/43 44/44/44 15/15/15
f 13/13/13 45/45/45 46/46/46
f 45/45/45 47/47/47 48/48/48
f 48/48/48 47/47/47 18/18/18
f 49/49/49 50/50/50 51/51/51
f 51/51/51 50/50/50 52/52/52
f 52/52/52 53/53/53 54/54/54
f 19/19/19 55/55/55 56/56/56
f 57/57/57 56/56/56 58/58/58
f 59/59/59 58/58/58 60/60/60
f 61/61/61 60/60/60 62/62/62
f 63/63/63 62/62/62 23/23/23
f 28/28/28 1/1/1 3/3/3
f 29/29/29 4/4/4 6/6/6
f 36/36/36 7/7/7 9/9/9
f 40/40/40 10/10/10 12/12/12
f 44/44/44 13/13/13 15/15/15
f 49/49/49 16/16/16 18/18/18
f 55/55/55 19/19/19 21/21/21
f 64/64/64 22/22/22 24/24/24
f 65/65/65 25/25/25 27/27/27
f 64/64/64 24/24/24 2/2/2
f 65/65/65 1/1/1 25/25/25
f 27/27/27 26/26/26 6/6/6
f 5/5/5 4/4/4 31/31/31
f 35/35/35 32/32/32 34/34/34
f 9/9/9 35/35/35 36/36/36
f 8/8/8 7/7/7 38/38/38
f 66/66/66 38/38/38 39/39/39
f 66/66/66 39/39/39 11/11/11
f 10/10/10 40/40/40 42/42/42
f 67/67/67 42/42/42 43/43/43
f 67/67/67 43/43/43 15/15/15
f 14/14/14 13/13/13 46/46/46
f 46/46/46 45/45/45 48/48/48
f 17/17/17 48/48/48 18/18/18
f 16/16/16 49/49/49 51/51/51
f 68/68/68 51/51/51 52/52/52
f 68/68/68 52/52/52 54/54/54
f 57/57/57 19/19/19 56/56/56
f 59/59/59 57/57/57 58/58/58
f 61/61/61 59/59/59 60/60/60
f 63/63/63 61/61/61 62/62/62
f 22/22/22 63/63/63 23/23/23
