v 2.461745 3.272379 -2.097397
v 2.464077 3.269943 -2.094961
v 2.464077 3.269944 -2.991416
v 2.462104 3.274814 -2.986546
v 2.462104 3.274814 -2.099832
v 2.467738 3.282116 -2.979244
v 2.467738 3.282115 -2.107134
v 2.470321 3.288328 -2.973032
v 2.470321 3.288328 -2.113346
v 2.470167 3.294741 -2.119759
v 2.467237 3.299103 -2.962257
v 2.467237 3.299103 -2.124121
v 2.466644 3.302188 -2.127206
v 2.468420 3.305273 -2.130291
v 2.466644 3.302188 -2.959172
v 2.472169 3.308011 -2.953349
v 2.472169 3.308011 -2.133029
v 2.472950 3.310704 -2.950657
v 2.472950 3.310703 -2.135721
v 2.470869 3.312351 -2.137369
v 2.470368 3.314973 -2.946387
v 2.470368 3.314973 -2.139991
v 2.472774 3.317714 -2.142732
v 2.478249 3.317923 -2.142941
v 2.472774 3.317714 -2.943646
v 2.461745 4.371787 -2.097397
v 2.464077 4.374222 -2.094961
v 2.462104 4.369351 -2.099832
v 2.467738 4.362050 -2.107134
v 2.470321 4.355837 -2.113346
v 2.470167 4.349424 -2.119759
v 2.467237 4.345062 -2.124121
v 2.466644 4.341977 -2.127206
v 2.468421 4.338892 -2.130291
v 2.472169 4.336154 -2.133029
v 2.472950 4.333462 -2.135721
v 2.470869 4.331814 -2.137369
v 2.470368 4.329193 -2.139991
v 2.472774 4.326452 -2.142732
v 2.478249 4.326243 -2.142941
v 2.461745 4.371787 -2.988981
v 2.464077 4.374222 -2.991416
v 2.462104 4.369351 -2.986546
v 2.467738 4.362050 -2.979244
v 2.470321 4.355837 -2.973032
v 2.470167 4.349424 -2.966619
v 2.467238 4.345062 -2.962257
v 2.466644 4.341978 -2.959172
v 2.468421 4.338892 -2.956087
v 2.472169 4.336154 -2.953349
v 2.472950 4.333462 -2.950657
v 2.470869 4.331815 -2.949009
v 2.470368 4.329193 -2.946387
v 2.472774 4.326452 -2.943646
v 2.478249 4.326243 -2.943438
v 2.461745 3.272379 -2.988981
v 2.464077 3.269944 -2.991416
v 2.464077 4.374222 -2.991416
v 2.462104 4.369351 -2.986546
v 2.462104 3.274814 -2.986546
v 2.467738 3.282116 -2.979244
v 2.470321 3.288328 -2.973032
v 2.467738 4.362050 -2.979244
v 2.470167 3.294742 -2.966619
v 2.470321 4.355837 -2.973032
v 2.467238 4.345062 -2.962257
v 2.467237 3.299103 -2.962257
v 2.466644 3.302188 -2.959172
v 2.468420 3.305274 -2.956087
v 2.466644 4.341978 -2.959172
v 2.472169 3.308011 -2.953349
v 2.468421 4.338892 -2.956087
v 2.472950 3.310704 -2.950657
v 2.472169 4.336154 -2.953349
v 2.470869 3.312351 -2.949009
v 2.472950 4.333462 -2.950657
v 2.470368 3.314973 -2.946387
v 2.470869 4.331815 -2.949009
v 2.472774 4.326452 -2.943646
v 2.472774 3.317714 -2.943646
v 2.478249 4.326243 -2.943438
v 2.478249 3.317923 -2.943438
v 2.461745 3.272379 -2.988981
v 2.470167 3.294742 -2.966619
v 2.468420 3.305274 -2.956087
v 2.470869 3.312351 -2.949009
v 2.478249 3.317923 -2.943438
v 2.461745 4.371787 -2.988981
v 2.470167 4.349424 -2.966619
v 2.470368 4.329193 -2.946387
vn 0.922200 0.273300 -0.273400
vn 0.398100 0.648600 -0.648700
vn 0.398100 0.648600 0.648600
vn 0.979000 -0.144000 -0.143900
vn 0.979100 -0.143800 0.143900
vn 0.905000 -0.300800 -0.300800
vn 0.905000 -0.300800 0.300800
vn 0.978500 -0.145600 -0.145600
vn 0.978500 -0.145600 0.145600
vn 0.992200 0.087800 -0.087800
vn 0.936200 0.248500 0.248500
vn 0.936200 0.248600 -0.248600
vn 1.000000 0.002600 -0.002600
vn 0.880000 -0.335800 0.335800
vn 1.000000 0.002600 0.002600
vn 0.828800 -0.395600 -0.395600
vn 0.828800 -0.395600 0.395600
vn 0.999400 0.025200 0.025200
vn 0.999400 0.025200 -0.025200
vn 0.853100 0.368900 -0.368800
vn 0.999200 -0.028400 -0.028400
vn 0.999200 -0.028400 0.028400
vn 0.631400 -0.548300 0.548300
vn 0.053800 -0.706100 0.706100
vn 0.631400 -0.548300 -0.548300
vn 0.922300 -0.273300 -0.273300
vn 0.398100 -0.648600 -0.648600
vn 0.979100 0.143800 0.143900
vn 0.905000 0.300800 0.300800
vn 0.978500 0.145600 0.145600
vn 0.992200 -0.087800 -0.087800
vn 0.936200 -0.248600 -0.248600
vn 1.000000 -0.002600 -0.002600
vn 0.880000 0.335800 0.335900
vn 0.828800 0.395600 0.395600
vn 0.999400 -0.025200 -0.025200
vn 0.853200 -0.368800 -0.368800
vn 0.999200 0.028400 0.028400
vn 0.631500 0.548300 0.548300
vn 0.053900 0.706100 0.706100
vn 0.922200 -0.273300 0.273400
vn 0.398100 -0.648600 0.648700
vn 0.979100 0.143900 -0.143900
vn 0.905000 0.300800 -0.300800
vn 0.978500 0.145600 -0.145600
vn 0.992200 -0.087800 0.087800
vn 0.936200 -0.248500 0.248500
vn 1.000000 -0.002600 0.002600
vn 0.880000 0.335800 -0.335800
vn 0.828800 0.395600 -0.395600
vn 0.999400 -0.025200 0.025300
vn 0.853100 -0.368900 0.368800
vn 0.999200 0.028400 -0.028400
vn 0.631400 0.548300 -0.548300
vn 0.053900 0.706100 -0.706000
vn 0.922200 0.273300 0.273300
vn 0.398100 0.648600 0.648600
vn 0.398100 -0.648600 0.648700
vn 0.979100 0.143900 -0.143900
vn 0.979000 -0.144000 -0.143900
vn 0.905000 -0.300800 -0.300800
vn 0.978500 -0.145600 -0.145600
vn 0.905000 0.300800 -0.300800
vn 0.992200 0.087800 0.087800
vn 0.978500 0.145600 -0.145600
vn 0.936200 -0.248500 0.248500
vn 0.936200 0.248500 0.248500
vn 1.000000 0.002600 0.002600
vn 0.880000 -0.335700 -0.335800
vn 1.000000 -0.002600 0.002600
vn 0.828800 -0.395600 -0.395600
vn 0.880000 0.335800 -0.335800
vn 0.999400 0.025200 0.025200
vn 0.828800 0.395600 -0.395600
vn 0.853100 0.368900 0.368800
vn 0.999400 -0.025200 0.025300
vn 0.999200 -0.028400 -0.028400
vn 0.853100 -0.368900 0.368800
vn 0.631400 0.548300 -0.548300
vn 0.631400 -0.548300 -0.548300
vn 0.053900 0.706100 -0.706000
vn 0.053800 -0.706100 -0.706100
vn 0.922200 0.273300 0.273300
vn 0.992200 0.087800 0.087800
vn 0.880000 -0.335700 -0.335800
vn 0.853100 0.368900 0.368800
vn 0.053800 -0.706100 -0.706100
vn 0.922200 -0.273300 0.273400
vn 0.992200 -0.087800 0.087800
vn 0.999200 0.028400 -0.028400
vt 0.000000 0.000000
vt 0.000000 0.000000
vt 0.000000 0.000000
vt 0.000000 0.000000
vt 0.000000 0.000000
vt 0.000000 0.000000
vt 0.000000 0.000000
vt 0.000000 0.000000
vt 0.000000 0.000000
vt 0.000000 0.000000
vt 0.000000 0.000000
vt 0.000000 0.000000
vt 0.000000 0.000000
vt 0.000000 0.000000
vt 0.000000 0.000000
vt 0.000000 0.000000
vt 0.000000 0.000000
vt 0.000000 0.000000
vt 0.000000 0.000000
vt 0.000000 0.000000
vt 0.000000 0.000000
vt 0.000000 0.000000
vt 0.000000 0.000000
vt 0.000000 0.000000
vt 0.000000 0.000000
vt 0.000000 0.000000
vt 0.000000 0.000000
vt 0.000000 0.000000
vt 0.000000 0.000000
vt 0.000000 0.000000
vt 0.000000 0.000000
vt 0.000000 0.000000
vt 0.000000 0.000000
vt 0.000000 0.000000
vt 0.000000 0.000000
vt 0.000000 0.000000
vt 0.000000 0.000000
vt 0.000000 0.000000
vt 0.000000 0.000000
vt 0.000000 0.000000
vt 0.000000 0.000000
vt 0.000000 0.000000
vt 0.000000 0.000000
vt 0.000000 0.000000
vt 0.000000 0.000000
vt 0.000000 0.000000
vt 0.000000 0.000000
vt 0.000000 0.000000
vt 0.000000 0.000000
vt 0.000000 0.000000
vt 0.000000 0.000000
vt 0.000000 0.000000
vt 0.000000 0.000000
vt 0.000000 0.000000
vt 0.000000 0.000000
vt 0.779741 -1.727065
vt 0.845908 -1.774848
vt 0.845919 2.024772
vt 0.716194 2.009467
vt 0.714552 -1.662552
vt 0.650914 -1.612126
vt 0.588518 -1.554446
vt 0.652964 1.985572
vt 0.527498 -1.493351
vt 0.591157 1.965646
vt 0.471588 1.931708
vt 0.467781 -1.443683
vt 0.409111 -1.385941
vt 0.351612 -1.335975
vt 0.413663 1.922406
vt 0.295106 -1.302528
vt 0.356772 1.913321
vt 0.239360 -1.248802
vt 0.300623 1.905335
vt 0.184602 -1.214661
vt 0.245550 1.897610
vt 0.130615 -1.161406
vt 0.191213 1.893197
vt 0.085359 1.878276
vt 0.077671 -1.121418
vt 0.033034 1.878203
vt 0.025334 -1.119289
vt 0.000000 0.000000
vt 0.000000 0.000000
vt 0.000000 0.000000
vt 0.000000 0.000000
vt 0.000000 0.000000
vt 0.780428 2.017129
vt 0.530759 1.945245
vt 0.137874 1.885889
f 1/1/1 2/2/2 3/3/3
f 4/4/4 5/5/5 1/1/1
f 6/6/6 7/7/7 5/5/5
f 8/8/8 9/9/9 7/7/7
f 10/10/10 9/9/9 8/8/8
f 11/11/11 12/12/12 10/10/10
f 13/13/13 12/12/12 11/11/11
f 14/14/14 13/13/13 15/15/15
f 16/16/16 17/17/17 14/14/14
f 18/18/18 19/19/19 17/17/17
f 20/20/20 19/19/19 18/18/18
f 21/21/21 22/22/22 20/20/20
f 23/23/23 22/22/22 21/21/21
f 24/24/24 23/23/23 25/25/25
f 1/1/1 26/26/26 27/27/27
f 28/28/28 26/26/26 1/1/1
f 29/29/29 28/28/28 5/5/5
f 9/9/9 30/30/30 29/29/29
f 31/31/31 30/30/30 9/9/9
f 32/32/32 31/31/31 10/10/10
f 33/33/33 32/32/32 12/12/12
f 14/14/14 34/34/34 33/33/33
f 35/35/35 34/34/34 14/14/14
f 19/19/19 36/36/36 35/35/35
f 37/37/37 36/36/36 19/19/19
f 22/22/22 38/38/38 37/37/37
f 39/39/39 38/38/38 22/22/22
f 40/40/40 39/39/39 23/23/23
f 41/41/41 42/42/42 27/27/27
f 43/43/43 41/41/41 26/26/26
f 29/29/29 44/44/44 43/43/43
f 45/45/45 44/44/44 29/29/29
f 31/31/31 46/46/46 45/45/45
f 47/47/47 46/46/46 31/31/31
f 48/48/48 47/47/47 32/32/32
f 34/34/34 49/49/49 48/48/48
f 50/50/50 49/49/49 34/34/34
f 51/51/51 50/50/50 35/35/35
f 52/52/52 51/51/51 36/36/36
f 38/38/38 53/53/53 52/52/52
f 39/39/39 54/54/54 53/53/53
f 55/55/55 54/54/54 39/39/39
f 56/56/56 57/57/57 58/58/58
f 59/59/59 60/60/60 56/56/56
f 61/61/61 60/60/60 59/59/59
f 62/62/62 61/61/61 63/63/63
f 64/64/64 62/62/62 65/65/65
f 66/66/66 67/67/67 64/64/64
f 68/68/68 67/67/67 66/66/66
f 69/69/69 68/68/68 70/70/70
f 71/71/71 69/69/69 72/72/72
f 73/73/73 71/71/71 74/74/74
f 75/75/75 73/73/73 76/76/76
f 77/77/77 75/75/75 78/78/78
f 79/79/79 80/80/80 77/77/77
f 81/81/81 82/82/82 80/80/80
f 83/83/83 1/1/1 3/3/3
f 83/83/83 4/4/4 1/1/1
f 4/4/4 6/6/6 5/5/5
f 6/6/6 8/8/8 7/7/7
f 84/84/84 10/10/10 8/8/8
f 84/84/84 11/11/11 10/10/10
f 15/15/15 13/13/13 11/11/11
f 85/85/85 14/14/14 15/15/15
f 85/85/85 16/16/16 14/14/14
f 16/16/16 18/18/18 17/17/17
f 86/86/86 20/20/20 18/18/18
f 86/86/86 21/21/21 20/20/20
f 25/25/25 23/23/23 21/21/21
f 87/87/87 24/24/24 25/25/25
f 2/2/2 1/1/1 27/27/27
f 5/5/5 28/28/28 1/1/1
f 7/7/7 29/29/29 5/5/5
f 7/7/7 9/9/9 29/29/29
f 10/10/10 31/31/31 9/9/9
f 12/12/12 32/32/32 10/10/10
f 13/13/13 33/33/33 12/12/12
f 13/13/13 14/14/14 33/33/33
f 17/17/17 35/35/35 14/14/14
f 17/17/17 19/19/19 35/35/35
f 20/20/20 37/37/37 19/19/19
f 20/20/20 22/22/22 37/37/37
f 23/23/23 39/39/39 22/22/22
f 24/24/24 40/40/40 23/23/23
f 26/26/26 41/41/41 27/27/27
f 28/28/28 43/43/43 26/26/26
f 28/28/28 29/29/29 43/43/43
f 30/30/30 45/45/45 29/29/29
f 30/30/30 31/31/31 45/45/45
f 32/32/32 47/47/47 31/31/31
f 33/33/33 48/48/48 32/32/32
f 33/33/33 34/34/34 48/48/48
f 35/35/35 50/50/50 34/34/34
f 36/36/36 51/51/51 35/35/35
f 37/37/37 52/52/52 36/36/36
f 37/37/37 38/38/38 52/52/52
f 38/38/38 39/39/39 53/53/53
f 40/40/40 55/55/55 39/39/39
f 88/88/88 56/56/56 58/58/58
f 88/88/88 59/59/59 56/56/56
f 63/63/63 61/61/61 59/59/59
f 65/65/65 62/62/62 63/63/63
f 89/89/89 64/64/64 65/65/65
f 89/89/89 66/66/66 64/64/64
f 70/70/70 68/68/68 66/66/66
f 72/72/72 69/69/69 70/70/70
f 74/74/74 71/71/71 72/72/72
f 76/76/76 73/73/73 74/74/74
f 78/78/78 75/75/75 76/76/76
f 90/90/90 77/77/77 78/78/78
f 90/90/90 79/79/79 77/77/77
f 79/79/79 81/81/81 80/80/80
