v 0.150743 2.360899 -3.149751
v 0.150743 2.352440 -3.149751
v 0.150743 2.352440 -3.645437
v 0.150743 2.360899 -3.645437
v 0.148063 2.370899 -3.645437
v 0.148063 2.370899 -3.152431
v 0.150743 2.352440 -5.178236
v 0.150743 2.360899 -5.178236
v 0.148064 2.370899 -5.178236
v 0.140743 2.378220 -5.178236
v 0.140743 2.378220 -3.645437
v 0.140743 2.378220 -3.159751
v 0.148063 2.342440 -3.645437
v 0.148063 2.342440 -3.152431
v 0.140743 2.335120 -3.159751
v 0.140743 2.335120 -5.178236
v 0.148064 2.342440 -5.178236
v 0.140743 2.335120 -3.645437
vn 0.992900 0.119100 0.000000
vn 0.992900 -0.119100 0.000000
vn 0.991400 -0.130500 0.000000
vn 0.991400 0.130500 0.000000
vn 0.866000 0.500000 0.000000
vn 0.904700 0.425900 0.000000
vn 0.991400 -0.130500 0.000000
vn 0.991400 0.130500 0.000000
vn 0.866000 0.500000 0.000000
vn 0.707100 0.707100 0.000000
vn 0.707100 0.707100 0.000000
vn 0.707100 0.707100 0.000000
vn 0.866000 -0.500000 0.000000
vn 0.904700 -0.425900 0.000000
vn 0.707100 -0.707100 0.000000
vn 0.707100 -0.707100 0.000000
vn 0.866000 -0.500000 0.000000
vn 0.707100 -0.707100 0.000000
vt 0.790975 0.934583
vt 0.783155 0.934746
vt 0.767358 0.577336
vt 0.776374 0.577165
vt 0.786801 0.576964
vt 0.800485 0.932442
vt 0.754352 0.051389
vt 0.766043 0.051312
vt 0.777753 0.051130
vt 0.789464 0.050947
vt 0.797227 0.576802
vt 0.809875 0.926936
vt 0.756929 0.577639
vt 0.773513 0.933002
vt 0.763767 0.927892
vt 0.730947 0.051748
vt 0.742662 0.051569
vt 0.746502 0.577980
f 1/1/1 2/2/2 3/3/3
f 4/4/4 5/5/5 6/6/6
f 4/4/4 3/3/3 7/7/7
f 8/8/8 9/9/9 5/5/5
f 9/9/9 10/10/10 11/11/11
f 5/5/5 11/11/11 12/12/12
f 13/13/13 14/14/14 15/15/15
f 3/3/3 2/2/2 14/14/14
f 16/16/16 17/17/17 13/13/13
f 17/17/17 7/7/7 3/3/3
f 4/4/4 1/1/1 3/3/3
f 1/1/1 4/4/4 6/6/6
f 8/8/8 4/4/4 7/7/7
f 4/4/4 8/8/8 5/5/5
f 5/5/5 9/9/9 11/11/11
f 6/6/6 5/5/5 12/12/12
f 18/18/18 13/13/13 15/15/15
f 13/13/13 3/3/3 14/14/14
f 18/18/18 16/16/16 13/13/13
f 13/13/13 17/17/17 3/3/3
