v -0.475855 3.761464 -2.031447
v -0.474285 3.759894 -2.031447
v -0.478946 3.759894 -2.054882
v -0.480396 3.761464 -2.008613
v -0.478946 3.759894 -2.008012
v -0.493331 3.761464 -1.989255
v -0.492221 3.759894 -1.988145
v -0.512689 3.761464 -1.976321
v -0.512088 3.759894 -1.974870
v -0.535523 3.761464 -1.971779
v -0.535523 3.759894 -1.970209
v -0.558357 3.761464 -1.976321
v -0.558958 3.759894 -1.974870
v -0.577715 3.761464 -1.989255
v -0.578825 3.759894 -1.988145
v -0.590650 3.761464 -2.008613
v -0.592100 3.759894 -2.008012
v -0.595192 3.761464 -2.031447
v -0.596761 3.759894 -2.031447
v -0.590650 3.761464 -2.054281
v -0.592100 3.759894 -2.054882
v -0.577715 3.761464 -2.073639
v -0.578825 3.759894 -2.074749
v -0.558357 3.761464 -2.086574
v -0.558958 3.759894 -2.088024
v -0.535523 3.761464 -2.091116
v -0.535523 3.759894 -2.092685
v -0.512689 3.761464 -2.086574
v -0.512088 3.759894 -2.088024
v -0.493331 3.761464 -2.073639
v -0.492221 3.759894 -2.074749
v -0.480397 3.761464 -2.054281
vn 0.707100 0.707100 0.000000
vn 0.707100 0.707100 0.000000
vn 0.653300 0.707100 -0.270500
vn 0.653300 0.707100 0.270600
vn 0.653300 0.707100 0.270600
vn 0.500000 0.707100 0.500000
vn 0.500000 0.707100 0.500000
vn 0.270600 0.707000 0.653400
vn 0.270600 0.707000 0.653400
vn 0.000000 0.707100 0.707100
vn 0.000000 0.707100 0.707100
vn -0.270600 0.707000 0.653400
vn -0.270600 0.707000 0.653300
vn -0.500000 0.707100 0.500000
vn -0.500000 0.707100 0.500000
vn -0.653300 0.707100 0.270700
vn -0.653300 0.707100 0.270700
vn -0.707100 0.707100 0.000000
vn -0.707100 0.707100 0.000000
vn -0.653300 0.707100 -0.270500
vn -0.653300 0.707100 -0.270500
vn -0.500000 0.707100 -0.500000
vn -0.500000 0.707100 -0.500000
vn -0.270600 0.707000 -0.653300
vn -0.270600 0.707000 -0.653300
vn 0.000000 0.707000 -0.707100
vn 0.000000 0.707000 -0.707100
vn 0.270600 0.707100 -0.653300
vn 0.270500 0.707100 -0.653300
vn 0.500000 0.707100 -0.500000
vn 0.500000 0.707100 -0.500000
vn 0.653300 0.707100 -0.270500
vt 0.000000 0.000000
vt 0.000000 0.000000
vt 0.000000 0.000000
vt 0.000000 0.000000
vt 0.000000 0.000000
vt 0.000000 0.000000
vt 0.000000 0.000000
vt 0.000000 0.000000
vt 0.000000 0.000000
vt 0.000000 0.000000
vt 0.000000 0.000000
vt 0.000000 0.000000
vt 0.000000 0.000000
vt 0.000000 0.000000
vt 0.000000 0.000000
vt 0.000000 0.000000
vt 0.000000 0.000000
vt 0.000000 0.000000
vt 0.000000 0.000000
vt 0.000000 0.000000
vt 0.000000 0.000000
vt 0.000000 0.000000
vt 0.000000 0.000000
vt 0.000000 0.000000
vt 0.000000 0.000000
vt 0.000000 0.000000
vt 0.000000 0.000000
vt 0.000000 0.000000
vt 0.000000 0.000000
vt 0.000000 0.000000
vt 0.000000 0.000000
vt 0.000000 0.000000
f 1/1/1 2/2/2 3/3/3
f 4/4/4 5/5/5 2/2/2
f 6/6/6 7/7/7 5/5/5
f 8/8/8 9/9/9 7/7/7
f 8/8/8 10/10/10 11/11/11
f 10/10/10 12/12/12 13/13/13
f 14/14/14 15/15/15 13/13/13
f 16/16/16 17/17/17 15/15/15
f 16/16/16 18/18/18 19/19/19
f 18/18/18 20/20/20 21/21/21
f 22/22/22 23/23/23 21/21/21
f 22/22/22 24/24/24 25/25/25
f 26/26/26 27/27/27 25/25/25
f 28/28/28 29/29/29 27/27/27
f 28/28/28 30/30/30 31/31/31
f 30/30/30 32/32/32 3/3/3
f 32/32/32 1/1/1 3/3/3
f 1/1/1 4/4/4 2/2/2
f 4/4/4 6/6/6 5/5/5
f 6/6/6 8/8/8 7/7/7
f 9/9/9 8/8/8 11/11/11
f 11/11/11 10/10/10 13/13/13
f 12/12/12 14/14/14 13/13/13
f 14/14/14 16/16/16 15/15/15
f 17/17/17 16/16/16 19/19/19
f 19/19/19 18/18/18 21/21/21
f 20/20/20 22/22/22 21/21/21
f 23/23/23 22/22/22 25/25/25
f 24/24/24 26/26/26 25/25/25
f 26/26/26 28/28/28 27/27/27
f 29/29/29 28/28/28 31/31/31
f 31/31/31 30/30/30 3/3/3
