v -1.690402 4.559574 -3.160119
v -1.689125 4.563638 -3.166539
v -1.697017 4.563638 -3.168933
v -1.680917 4.559574 -3.256418
v -1.690402 4.559574 -3.255484
v -1.689125 4.563638 -3.249063
v -1.725833 4.559574 -3.226406
v -1.728600 4.559574 -3.217286
v -1.722179 4.563638 -3.216009
v -1.646540 4.559574 -3.173424
v -1.651169 4.563638 -3.178053
v -1.657544 4.563638 -3.172821
v -1.680917 4.563638 -3.249871
v -1.672710 4.563638 -3.249063
v -1.633235 4.559574 -3.217286
v -1.639655 4.563638 -3.216009
v -1.638847 4.563638 -3.207801
v -1.632300 4.559574 -3.207801
v -1.639655 4.563638 -3.199594
v -1.662312 4.559574 -3.162885
v -1.653907 4.559574 -3.167378
v -1.721340 4.559574 -3.180791
v -1.715897 4.563638 -3.184428
v -1.719785 4.563638 -3.191702
v -1.646540 4.559574 -3.242178
v -1.651169 4.563638 -3.237550
v -1.645937 4.563638 -3.231174
v -1.640494 4.559574 -3.180791
v -1.645937 4.563638 -3.184428
v -1.636001 4.559574 -3.226406
v -1.642049 4.563638 -3.223901
v -1.715294 4.559574 -3.242178
v -1.721340 4.559574 -3.234811
v -1.715897 4.563638 -3.231174
v -1.728600 4.559574 -3.198317
v -1.722179 4.563638 -3.199594
v -1.722987 4.563638 -3.207801
v -1.710665 4.563638 -3.237550
v -1.704290 4.563638 -3.242781
v -1.699522 4.559574 -3.252717
v -1.707927 4.559574 -3.248225
v -1.662312 4.559574 -3.252717
v -1.664818 4.563638 -3.246669
v -1.657544 4.563638 -3.242781
v -1.636001 4.559574 -3.189197
v -1.642049 4.563638 -3.191702
v -1.707927 4.559574 -3.167378
v -1.699522 4.559574 -3.162885
v -1.653907 4.559574 -3.248224
v -1.715294 4.559574 -3.173424
v -1.704290 4.563638 -3.172821
v -1.664818 4.563638 -3.168933
v -1.672710 4.563638 -3.166539
v -1.633235 4.559574 -3.198317
v -1.710665 4.563638 -3.178053
v -1.719785 4.563638 -3.223901
v -1.671432 4.559574 -3.255484
v -1.729534 4.559574 -3.207801
v -1.640494 4.559574 -3.234811
v -1.697017 4.563638 -3.246669
v -1.680917 4.559574 -3.159185
v -1.671432 4.559574 -3.160119
v -1.680917 4.563638 -3.165731
v -1.725833 4.559574 -3.189197
vn -0.102900 0.849500 0.517300
vn -0.102900 0.849500 0.517300
vn -0.201800 0.849500 0.487300
vn 0.000000 0.849500 -0.527500
vn -0.102900 0.849500 -0.517300
vn -0.102900 0.849500 -0.517300
vn -0.487300 0.849500 -0.201800
vn -0.517300 0.849500 -0.102900
vn -0.517300 0.849500 -0.102900
vn 0.373000 0.849500 0.373000
vn 0.373000 0.849500 0.373000
vn 0.293000 0.849500 0.438600
vn 0.000000 0.849500 -0.527500
vn 0.102900 0.849500 -0.517300
vn 0.517300 0.849500 -0.102900
vn 0.517300 0.849500 -0.102900
vn 0.527500 0.849500 0.000000
vn 0.527500 0.849500 0.000000
vn 0.517300 0.849500 0.102900
vn 0.201800 0.849600 0.487300
vn 0.293000 0.849500 0.438600
vn -0.438600 0.849500 0.293000
vn -0.438600 0.849500 0.293000
vn -0.487300 0.849500 0.201800
vn 0.373000 0.849600 -0.372900
vn 0.373000 0.849500 -0.372900
vn 0.438600 0.849500 -0.293000
vn 0.438600 0.849500 0.293000
vn 0.438600 0.849500 0.293100
vn 0.487300 0.849500 -0.201800
vn 0.487300 0.849500 -0.201800
vn -0.373000 0.849500 -0.373000
vn -0.438600 0.849500 -0.293100
vn -0.438600 0.849500 -0.293100
vn -0.517300 0.849500 0.102900
vn -0.517300 0.849500 0.102900
vn -0.527500 0.849600 0.000000
vn -0.373000 0.849500 -0.373000
vn -0.293000 0.849500 -0.438600
vn -0.201800 0.849500 -0.487300
vn -0.293000 0.849500 -0.438600
vn 0.201800 0.849500 -0.487300
vn 0.201800 0.849500 -0.487300
vn 0.293000 0.849500 -0.438600
vn 0.487300 0.849500 0.201800
vn 0.487300 0.849500 0.201800
vn -0.293000 0.849500 0.438600
vn -0.201800 0.849500 0.487400
vn 0.293000 0.849500 -0.438600
vn -0.373000 0.849500 0.373000
vn -0.293000 0.849600 0.438500
vn 0.201800 0.849600 0.487300
vn 0.102900 0.849500 0.517300
vn 0.517300 0.849500 0.102900
vn -0.373000 0.849500 0.373000
vn -0.487300 0.849600 -0.201900
vn 0.102900 0.849500 -0.517300
vn -0.527500 0.849500 0.000000
vn 0.438600 0.849500 -0.293000
vn -0.201800 0.849600 -0.487300
vn 0.000000 0.849500 0.527500
vn 0.102900 0.849500 0.517300
vn 0.000000 0.849500 0.527500
vn -0.487300 0.849500 0.201800
vt 0.504856 0.739573
vt 0.504233 0.742618
vt 0.501114 0.742281
vt 0.489958 0.761775
vt 0.486398 0.760532
vt 0.488441 0.760755
vt 0.479900 0.750264
vt 0.480938 0.747957
vt 0.483519 0.749873
vt 0.518629 0.747297
vt 0.516117 0.749302
vt 0.514532 0.747455
vt 0.491484 0.761831
vt 0.494946 0.762552
vt 0.517201 0.758393
vt 0.514669 0.758904
vt 0.516326 0.757189
vt 0.519086 0.756411
vt 0.517288 0.755297
vt 0.514348 0.743255
vt 0.516759 0.745162
vt 0.490734 0.740730
vt 0.491932 0.743620
vt 0.489239 0.744793
vt 0.507209 0.762408
vt 0.506107 0.762378
vt 0.509461 0.761550
vt 0.519868 0.749578
vt 0.517146 0.751276
vt 0.514527 0.760095
vt 0.512355 0.760377
vt 0.480078 0.754884
vt 0.479594 0.752603
vt 0.482454 0.753894
vt 0.484893 0.743788
vt 0.486882 0.746265
vt 0.484949 0.747981
vt 0.482922 0.755867
vt 0.484090 0.757715
vt 0.483507 0.758926
vt 0.481384 0.757019
vt 0.498419 0.762998
vt 0.498662 0.762889
vt 0.502447 0.762831
vt 0.520396 0.751917
vt 0.517552 0.753300
vt 0.497662 0.739250
vt 0.501277 0.739183
vt 0.502891 0.762930
vt 0.494113 0.739773
vt 0.497961 0.742339
vt 0.512465 0.745804
vt 0.510000 0.744415
vt 0.520149 0.754224
vt 0.494870 0.742791
vt 0.482668 0.751870
vt 0.494031 0.762608
vt 0.482631 0.745770
vt 0.511150 0.761450
vt 0.485946 0.759365
vt 0.508296 0.740405
vt 0.511494 0.741649
vt 0.507226 0.743339
vt 0.487627 0.742086
f 1/1/1 2/2/2 3/3/3
f 4/4/4 5/5/5 6/6/6
f 7/7/7 8/8/8 9/9/9
f 10/10/10 11/11/11 12/12/12
f 4/4/4 13/13/13 14/14/14
f 15/15/15 16/16/16 17/17/17
f 18/18/18 17/17/17 19/19/19
f 20/20/20 21/21/21 12/12/12
f 22/22/22 23/23/23 24/24/24
f 25/25/25 26/26/26 27/27/27
f 10/10/10 28/28/28 29/29/29
f 30/30/30 31/31/31 16/16/16
f 32/32/32 33/33/33 34/34/34
f 35/35/35 36/36/36 37/37/37
f 32/32/32 38/38/38 39/39/39
f 40/40/40 41/41/41 39/39/39
f 42/42/42 43/43/43 44/44/44
f 28/28/28 45/45/45 46/46/46
f 47/47/47 48/48/48 3/3/3
f 49/49/49 44/44/44 26/26/26
f 50/50/50 47/47/47 51/51/51
f 20/20/20 52/52/52 53/53/53
f 45/45/45 54/54/54 19/19/19
f 50/50/50 55/55/55 23/23/23
f 7/7/7 56/56/56 34/34/34
f 42/42/42 57/57/57 14/14/14
f 58/58/58 37/37/37 9/9/9
f 59/59/59 27/27/27 31/31/31
f 5/5/5 40/40/40 60/60/60
f 61/61/61 62/62/62 53/53/53
f 1/1/1 61/61/61 63/63/63
f 64/64/64 24/24/24 36/36/36
f 48/48/48 1/1/1 3/3/3
f 13/13/13 4/4/4 6/6/6
f 56/56/56 7/7/7 9/9/9
f 21/21/21 10/10/10 12/12/12
f 57/57/57 4/4/4 14/14/14
f 18/18/18 15/15/15 17/17/17
f 54/54/54 18/18/18 19/19/19
f 52/52/52 20/20/20 12/12/12
f 64/64/64 22/22/22 24/24/24
f 59/59/59 25/25/25 27/27/27
f 11/11/11 10/10/10 29/29/29
f 15/15/15 30/30/30 16/16/16
f 38/38/38 32/32/32 34/34/34
f 58/58/58 35/35/35 37/37/37
f 41/41/41 32/32/32 39/39/39
f 60/60/60 40/40/40 39/39/39
f 49/49/49 42/42/42 44/44/44
f 29/29/29 28/28/28 46/46/46
f 51/51/51 47/47/47 3/3/3
f 25/25/25 49/49/49 26/26/26
f 55/55/55 50/50/50 51/51/51
f 62/62/62 20/20/20 53/53/53
f 46/46/46 45/45/45 19/19/19
f 22/22/22 50/50/50 23/23/23
f 33/33/33 7/7/7 34/34/34
f 43/43/43 42/42/42 14/14/14
f 8/8/8 58/58/58 9/9/9
f 30/30/30 59/59/59 31/31/31
f 6/6/6 5/5/5 60/60/60
f 63/63/63 61/61/61 53/53/53
f 2/2/2 1/1/1 63/63/63
f 35/35/35 64/64/64 36/36/36
