v 0.485751 3.570478 -3.216448
v 0.484951 3.570478 -3.208323
v 0.488333 3.576590 -3.208323
v 0.494783 3.576590 -3.187063
v 0.491970 3.570478 -3.185184
v 0.497150 3.570478 -3.178872
v 0.485751 3.570478 -3.200197
v 0.491246 3.576590 -3.193679
v 0.488121 3.570478 -3.192384
v 0.499542 3.576590 -3.181264
v 0.503461 3.570478 -3.173692
v 0.510662 3.570478 -3.169843
v 0.518475 3.570478 -3.167473
v 0.519135 3.576590 -3.170791
v 0.519135 3.576590 -3.170791
v 0.518475 3.570478 -3.167473
v 0.526600 3.570478 -3.166673
v 0.526600 3.576590 -3.170056
v 0.534726 3.570478 -3.167473
v 0.541245 3.576590 -3.172969
v 0.542539 3.570478 -3.169843
v 0.549740 3.570478 -3.173692
v 0.547860 3.576590 -3.176505
v 0.556051 3.570478 -3.178872
v 0.561231 3.570478 -3.185184
v 0.558418 3.576590 -3.187063
v 0.565080 3.570478 -3.192384
v 0.567450 3.570478 -3.200197
v 0.564132 3.576590 -3.200857
v 0.568250 3.570478 -3.208323
v 0.564867 3.576590 -3.208323
v 0.567450 3.570478 -3.216448
v 0.565080 3.570478 -3.224262
v 0.561231 3.570478 -3.231462
v 0.558418 3.576590 -3.229583
v 0.556051 3.570478 -3.237774
v 0.549740 3.570478 -3.242953
v 0.547860 3.576590 -3.240141
v 0.541245 3.576590 -3.243677
v 0.542539 3.570478 -3.246802
v 0.534726 3.570478 -3.249172
v 0.526600 3.570478 -3.249973
v 0.526600 3.576590 -3.246590
v 0.518475 3.570478 -3.249172
v 0.519135 3.576590 -3.245855
v 0.511956 3.576590 -3.243677
v 0.510662 3.570478 -3.246802
v 0.503461 3.570478 -3.242953
v 0.505340 3.576590 -3.240141
v 0.497150 3.570478 -3.237774
v 0.499542 3.576590 -3.235382
v 0.491970 3.570478 -3.231462
v 0.488121 3.570478 -3.224262
v 0.491246 3.576590 -3.222967
v 0.489069 3.576590 -3.200857
v 0.511956 3.576590 -3.172969
v 0.505340 3.576590 -3.176505
v 0.534066 3.576590 -3.170791
v 0.561954 3.576590 -3.193679
v 0.561954 3.576590 -3.222967
v 0.564132 3.576590 -3.215788
v 0.519135 3.576590 -3.245855
v 0.518475 3.570478 -3.249172
v 0.489069 3.576590 -3.215788
v 0.553659 3.576590 -3.181264
v 0.553659 3.576590 -3.235382
v 0.534066 3.576590 -3.245855
v 0.494783 3.576590 -3.229583
vn -0.858100 0.484300 -0.170700
vn -0.874900 0.484200 0.000000
vn -0.874900 0.484300 0.000000
vn -0.727500 0.484200 0.486100
vn -0.727400 0.484300 0.486100
vn -0.618700 0.484200 0.618600
vn -0.858100 0.484300 0.170700
vn -0.808300 0.484200 0.334800
vn -0.808300 0.484300 0.334800
vn -0.618600 0.484200 0.618600
vn -0.486100 0.484300 0.727400
vn -0.334800 0.484300 0.808300
vn -0.170700 0.484300 0.858100
vn -0.170700 0.484300 0.858100
vn -0.170700 0.484300 0.858100
vn -0.170700 0.484300 0.858100
vn 0.000000 0.484200 0.874900
vn 0.000000 0.484200 0.874900
vn 0.170700 0.484300 0.858100
vn 0.334800 0.484300 0.808300
vn 0.334800 0.484300 0.808300
vn 0.486100 0.484300 0.727400
vn 0.486100 0.484300 0.727400
vn 0.618600 0.484300 0.618600
vn 0.727500 0.484200 0.486100
vn 0.727500 0.484200 0.486100
vn 0.808300 0.484300 0.334800
vn 0.858100 0.484300 0.170700
vn 0.858100 0.484200 0.170700
vn 0.874900 0.484200 0.000000
vn 0.874900 0.484200 0.000000
vn 0.858100 0.484300 -0.170700
vn 0.808300 0.484300 -0.334800
vn 0.727400 0.484200 -0.486100
vn 0.727400 0.484300 -0.486100
vn 0.618600 0.484300 -0.618600
vn 0.486100 0.484300 -0.727400
vn 0.486100 0.484300 -0.727400
vn 0.334800 0.484200 -0.808300
vn 0.334800 0.484200 -0.808300
vn 0.170700 0.484200 -0.858100
vn 0.000000 0.484200 -0.874900
vn 0.000000 0.484300 -0.874900
vn -0.170700 0.484200 -0.858100
vn -0.170700 0.484200 -0.858100
vn -0.334800 0.484200 -0.808300
vn -0.334800 0.484200 -0.808300
vn -0.486100 0.484200 -0.727400
vn -0.486100 0.484200 -0.727400
vn -0.618700 0.484300 -0.618600
vn -0.618600 0.484300 -0.618600
vn -0.727400 0.484300 -0.486100
vn -0.808300 0.484200 -0.334800
vn -0.808300 0.484300 -0.334800
vn -0.858100 0.484300 0.170700
vn -0.334800 0.484300 0.808300
vn -0.486000 0.484300 0.727500
vn 0.170700 0.484300 0.858100
vn 0.808300 0.484200 0.334800
vn 0.808300 0.484300 -0.334800
vn 0.858100 0.484300 -0.170700
vn -0.170700 0.484200 -0.858100
vn -0.170700 0.484200 -0.858100
vn -0.858100 0.484300 -0.170700
vn 0.618600 0.484200 0.618600
vn 0.618600 0.484300 -0.618600
vn 0.170600 0.484200 -0.858100
vn -0.727400 0.484300 -0.486100
vt 0.021570 0.962393
vt 0.022732 0.962833
vt 0.020815 0.964508
vt 0.019054 0.965661
vt 0.021007 0.964088
vt 0.018455 0.964430
vt 0.023089 0.963274
vt 0.020512 0.965302
vt 0.022540 0.963697
vt 0.016685 0.965975
vt 0.014914 0.964711
vt 0.010499 0.964919
vt 0.005427 0.965048
vt 0.004873 0.966543
vt 0.800872 0.966543
vt 0.801426 0.965048
vt 0.795999 0.965091
vt 0.795999 0.966583
vt 0.790572 0.965048
vt 0.786557 0.966425
vt 0.785500 0.964919
vt 0.781085 0.964711
vt 0.782556 0.966233
vt 0.777544 0.964430
vt 0.774992 0.964088
vt 0.776945 0.965661
vt 0.773459 0.963697
vt 0.772910 0.963274
vt 0.774920 0.964913
vt 0.773267 0.962833
vt 0.775184 0.964508
vt 0.774429 0.962393
vt 0.776284 0.961969
vt 0.778720 0.961579
vt 0.780067 0.963356
vt 0.781628 0.961236
vt 0.784907 0.960956
vt 0.785742 0.962783
vt 0.789018 0.962591
vt 0.788456 0.960747
vt 0.792183 0.960618
vt 0.795999 0.960575
vt 0.795999 0.962434
vt 0.799815 0.960618
vt 0.799532 0.962473
vt 0.006981 0.962591
vt 0.007543 0.960747
vt 0.011093 0.960956
vt 0.010257 0.962783
vt 0.014371 0.961236
vt 0.013271 0.963041
vt 0.017279 0.961579
vt 0.019715 0.961969
vt 0.018143 0.963714
vt 0.021079 0.964913
vt 0.009442 0.966425
vt 0.013443 0.966233
vt 0.791126 0.966543
vt 0.775487 0.965302
vt 0.777856 0.963714
vt 0.776195 0.964103
vt 0.003533 0.962473
vt 0.003816 0.960618
vt 0.019804 0.964103
vt 0.779314 0.965975
vt 0.782728 0.963041
vt 0.792466 0.962473
vt 0.015932 0.963356
f 1/1/1 2/2/2 3/3/3
f 4/4/4 5/5/5 6/6/6
f 3/3/3 2/2/2 7/7/7
f 8/8/8 9/9/9 5/5/5
f 10/10/10 6/6/6 11/11/11
f 12/12/12 13/13/13 14/14/14
f 15/15/15 16/16/16 17/17/17
f 18/18/18 17/17/17 19/19/19
f 20/20/20 21/21/21 22/22/22
f 23/23/23 22/22/22 24/24/24
f 24/24/24 25/25/25 26/26/26
f 27/27/27 28/28/28 29/29/29
f 29/29/29 28/28/28 30/30/30
f 31/31/31 30/30/30 32/32/32
f 33/33/33 34/34/34 35/35/35
f 35/35/35 34/34/34 36/36/36
f 36/36/36 37/37/37 38/38/38
f 39/39/39 40/40/40 41/41/41
f 41/41/41 42/42/42 43/43/43
f 42/42/42 44/44/44 45/45/45
f 46/46/46 47/47/47 48/48/48
f 49/49/49 48/48/48 50/50/50
f 51/51/51 50/50/50 52/52/52
f 52/52/52 53/53/53 54/54/54
f 54/54/54 53/53/53 1/1/1
f 9/9/9 8/8/8 55/55/55
f 56/56/56 57/57/57 11/11/11
f 21/21/21 20/20/20 58/58/58
f 59/59/59 26/26/26 25/25/25
f 60/60/60 61/61/61 32/32/32
f 39/39/39 38/38/38 37/37/37
f 46/46/46 62/62/62 63/63/63
f 64/64/64 1/1/1 3/3/3
f 10/10/10 4/4/4 6/6/6
f 55/55/55 3/3/3 7/7/7
f 4/4/4 8/8/8 5/5/5
f 57/57/57 10/10/10 11/11/11
f 56/56/56 12/12/12 14/14/14
f 18/18/18 15/15/15 17/17/17
f 58/58/58 18/18/18 19/19/19
f 23/23/23 20/20/20 22/22/22
f 65/65/65 23/23/23 24/24/24
f 65/65/65 24/24/24 26/26/26
f 59/59/59 27/27/27 29/29/29
f 31/31/31 29/29/29 30/30/30
f 61/61/61 31/31/31 32/32/32
f 60/60/60 33/33/33 35/35/35
f 66/66/66 35/35/35 36/36/36
f 66/66/66 36/36/36 38/38/38
f 67/67/67 39/39/39 41/41/41
f 67/67/67 41/41/41 43/43/43
f 43/43/43 42/42/42 45/45/45
f 49/49/49 46/46/46 48/48/48
f 51/51/51 49/49/49 50/50/50
f 68/68/68 51/51/51 52/52/52
f 68/68/68 52/52/52 54/54/54
f 64/64/64 54/54/54 1/1/1
f 7/7/7 9/9/9 55/55/55
f 12/12/12 56/56/56 11/11/11
f 19/19/19 21/21/21 58/58/58
f 27/27/27 59/59/59 25/25/25
f 33/33/33 60/60/60 32/32/32
f 40/40/40 39/39/39 37/37/37
f 47/47/47 46/46/46 63/63/63
