v 0.582797 2.322288 -3.197145
v 0.583898 2.322288 -3.208323
v 0.573672 2.322950 -3.208323
v 0.558433 2.322288 -3.160682
v 0.552752 2.322950 -3.169184
v 0.544614 2.322950 -3.164834
v 0.478960 2.322288 -3.176490
v 0.487462 2.322950 -3.182171
v 0.483112 2.322950 -3.190309
v 0.567116 2.322288 -3.248838
v 0.559885 2.322950 -3.241608
v 0.565739 2.322950 -3.234475
v 0.574241 2.322288 -3.176490
v 0.565739 2.322950 -3.182171
v 0.559885 2.322950 -3.175038
v 0.582797 2.322288 -3.219501
v 0.579536 2.322288 -3.230250
v 0.570089 2.322950 -3.226336
v 0.486085 2.322288 -3.248838
v 0.478960 2.322288 -3.240156
v 0.487462 2.322950 -3.234475
v 0.469303 2.322288 -3.208323
v 0.470404 2.322288 -3.197145
v 0.480433 2.322950 -3.199140
v 0.493316 2.322950 -3.241608
v 0.500449 2.322950 -3.247462
v 0.494768 2.322288 -3.255964
v 0.508587 2.322950 -3.251812
v 0.558433 2.322288 -3.255964
v 0.548527 2.322288 -3.261259
v 0.544614 2.322950 -3.251812
v 0.579536 2.322288 -3.186396
v 0.570089 2.322950 -3.190309
v 0.504674 2.322288 -3.155387
v 0.508587 2.322950 -3.164834
v 0.500449 2.322950 -3.169184
v 0.552752 2.322950 -3.247462
v 0.494768 2.322288 -3.160682
v 0.493316 2.322950 -3.175038
v 0.548527 2.322288 -3.155387
v 0.535784 2.322950 -3.162156
v 0.572768 2.322950 -3.199140
v 0.486085 2.322288 -3.167808
v 0.473665 2.322288 -3.230250
v 0.483112 2.322950 -3.226336
v 0.537779 2.322288 -3.264519
v 0.535784 2.322950 -3.254490
v 0.470404 2.322288 -3.219501
v 0.479529 2.322950 -3.208323
v 0.574241 2.322288 -3.240156
v 0.504674 2.322288 -3.261259
v 0.517417 2.322950 -3.254490
v 0.537779 2.322288 -3.152127
v 0.526600 2.322950 -3.161251
v 0.515422 2.322288 -3.152127
v 0.526600 2.322288 -3.151026
v 0.473665 2.322288 -3.186396
v 0.517417 2.322950 -3.162156
v 0.526600 2.322288 -3.265620
v 0.515422 2.322288 -3.264519
v 0.480433 2.322950 -3.217506
v 0.567116 2.322288 -3.167808
v 0.526600 2.322288 -3.265620
v 0.526600 2.322950 -3.255395
v 0.572768 2.322950 -3.217506
v 0.587792 2.321608 -3.208323
v 0.560597 2.321608 -3.157444
v 0.470067 2.321608 -3.184906
v 0.475722 2.321608 -3.174327
v 0.569869 2.321608 -3.251592
v 0.577479 2.321608 -3.174327
v 0.586616 2.321608 -3.220261
v 0.583134 2.321608 -3.231740
v 0.483332 2.321608 -3.251592
v 0.475722 2.321608 -3.242319
v 0.466585 2.321608 -3.196385
v 0.492604 2.321608 -3.259202
v 0.503184 2.321608 -3.264856
v 0.560597 2.321608 -3.259202
v 0.550017 2.321608 -3.264856
v 0.583134 2.321608 -3.184906
v 0.503184 2.321608 -3.151789
v 0.492604 2.321608 -3.157444
v 0.538538 2.321608 -3.148307
v 0.550017 2.321608 -3.151789
v 0.586616 2.321608 -3.196385
v 0.483332 2.321608 -3.165054
v 0.470067 2.321608 -3.231740
v 0.538538 2.321608 -3.268339
v 0.465409 2.321608 -3.208323
v 0.577479 2.321608 -3.242319
v 0.526600 2.321608 -3.147132
v 0.514663 2.321608 -3.148307
v 0.514663 2.321608 -3.268339
v 0.466585 2.321608 -3.220261
v 0.569869 2.321608 -3.165054
v 0.526600 2.321608 -3.269514
v 0.526600 2.322950 -3.255395
v 0.526600 2.321608 -3.269514
vn 0.119400 0.992600 0.023700
vn 0.121800 0.992600 0.000000
vn 0.064600 0.997900 0.000000
vn 0.067700 0.992600 0.101300
vn 0.035900 0.997900 0.053700
vn 0.024700 0.997900 0.059700
vn -0.101300 0.992600 0.067700
vn -0.053700 0.997900 0.035900
vn -0.059700 0.997900 0.024700
vn 0.086100 0.992600 -0.086100
vn 0.045700 0.997900 -0.045700
vn 0.053700 0.997900 -0.035900
vn 0.101300 0.992600 0.067700
vn 0.053700 0.997900 0.035900
vn 0.045700 0.997900 0.045700
vn 0.119400 0.992600 -0.023700
vn 0.112500 0.992600 -0.046600
vn 0.059700 0.997900 -0.024700
vn -0.086100 0.992600 -0.086100
vn -0.101300 0.992600 -0.067600
vn -0.053700 0.997900 -0.035900
vn -0.121800 0.992600 0.000000
vn -0.119400 0.992600 0.023700
vn -0.063400 0.997900 0.012600
vn -0.045700 0.997900 -0.045700
vn -0.035900 0.997900 -0.053700
vn -0.067700 0.992600 -0.101300
vn -0.024700 0.997900 -0.059700
vn 0.067700 0.992600 -0.101300
vn 0.046600 0.992500 -0.112500
vn 0.024700 0.997900 -0.059700
vn 0.112500 0.992600 0.046600
vn 0.059700 0.997900 0.024700
vn -0.046600 0.992600 0.112500
vn -0.024700 0.997900 0.059700
vn -0.035900 0.997900 0.053700
vn 0.035900 0.997900 -0.053700
vn -0.067700 0.992600 0.101300
vn -0.045700 0.997900 0.045700
vn 0.046600 0.992600 0.112500
vn 0.012600 0.997900 0.063400
vn 0.063400 0.997900 0.012600
vn -0.086100 0.992600 0.086100
vn -0.112500 0.992600 -0.046600
vn -0.059700 0.997900 -0.024700
vn 0.023700 0.992600 -0.119400
vn 0.012600 0.997900 -0.063400
vn -0.119400 0.992600 -0.023700
vn -0.064600 0.997900 0.000000
vn 0.101300 0.992600 -0.067700
vn -0.046600 0.992500 -0.112500
vn -0.012600 0.997900 -0.063400
vn 0.023700 0.992600 0.119400
vn 0.000000 0.997900 0.064600
vn -0.023700 0.992600 0.119400
vn 0.000000 0.992500 0.121800
vn -0.112500 0.992600 0.046600
vn -0.012600 0.997900 0.063400
vn 0.000000 0.992600 -0.121800
vn -0.023700 0.992600 -0.119400
vn -0.063400 0.997900 -0.012600
vn 0.086100 0.992600 0.086100
vn 0.000000 0.992600 -0.121800
vn 0.000000 0.997900 -0.064600
vn 0.063400 0.997900 -0.012600
vn 0.171900 0.985100 0.000000
vn 0.095500 0.985100 0.143000
vn -0.158800 0.985100 0.065800
vn -0.142900 0.985100 0.095500
vn 0.121600 0.985100 -0.121600
vn 0.142900 0.985100 0.095500
vn 0.168600 0.985100 -0.033500
vn 0.158800 0.985100 -0.065800
vn -0.121600 0.985100 -0.121600
vn -0.142900 0.985100 -0.095500
vn -0.168600 0.985100 0.033500
vn -0.095500 0.985100 -0.143000
vn -0.065800 0.985100 -0.158800
vn 0.095500 0.985100 -0.143000
vn 0.065800 0.985100 -0.158900
vn 0.158800 0.985100 0.065800
vn -0.065800 0.985100 0.158800
vn -0.095500 0.985100 0.143000
vn 0.033500 0.985100 0.168600
vn 0.065800 0.985100 0.158800
vn 0.168600 0.985100 0.033500
vn -0.121600 0.985100 0.121500
vn -0.158800 0.985100 -0.065800
vn 0.033500 0.985100 -0.168600
vn -0.171900 0.985100 0.000000
vn 0.142900 0.985100 -0.095500
vn 0.000000 0.985100 0.171900
vn -0.033500 0.985100 0.168600
vn -0.033500 0.985100 -0.168600
vn -0.168600 0.985100 -0.033500
vn 0.121600 0.985100 0.121600
vn 0.000000 0.985100 -0.171900
vn 0.000000 0.997900 -0.064600
vn 0.000000 0.985100 -0.171900
vt 0.546724 0.621337
vt 0.569608 0.620731
vt 0.564225 0.620913
vt 0.460395 0.623314
vt 0.458176 0.623034
vt 0.438016 0.623270
vt 0.293200 0.622457
vt 0.296815 0.622330
vt 0.275755 0.621889
vt 0.671815 0.618535
vt 0.666090 0.619108
vt 0.638202 0.619495
vt 0.502799 0.622457
vt 0.499184 0.622330
vt 0.478534 0.622717
vt 0.593349 0.620125
vt 0.618159 0.619542
vt 0.612117 0.619936
vt 0.124184 0.618535
vt 0.151747 0.619005
vt 0.157797 0.619495
vt 0.226391 0.620731
vt 0.249275 0.621337
vt 0.254136 0.621410
vt 0.129909 0.619108
vt 0.100020 0.618791
vt 0.095052 0.618148
vt 0.068126 0.618555
vt 0.700947 0.618148
vt 0.731587 0.617861
vt 0.727873 0.618555
vt 0.524508 0.621920
vt 0.520244 0.621889
vt 0.356494 0.623601
vt 0.357983 0.623270
vt 0.337823 0.623034
vt 0.695980 0.618791
vt 0.335604 0.623314
vt 0.317465 0.622717
vt 0.439505 0.623601
vt 0.417979 0.623415
vt 0.541863 0.621410
vt 0.314535 0.622928
vt 0.177840 0.619542
vt 0.183882 0.619936
vt 0.763448 0.617684
vt 0.761448 0.618410
vt 0.202650 0.620125
vt 0.231774 0.620913
vt 0.644253 0.619005
vt 0.064412 0.617861
vt 0.034551 0.618410
vt 0.418726 0.623778
vt 0.397999 0.623498
vt 0.377273 0.623778
vt 0.397999 0.623837
vt 0.271491 0.621920
vt 0.378020 0.623415
vt 0.000000 0.617625
vt 0.032551 0.617684
vt 0.208444 0.620415
vt 0.481464 0.622928
vt 0.795999 0.617625
vt 0.795999 0.618361
vt 0.587555 0.620415
vt 0.571040 0.620545
vt 0.461003 0.623303
vt 0.270339 0.621814
vt 0.292217 0.622388
vt 0.673265 0.618199
vt 0.503782 0.622388
vt 0.594875 0.619897
vt 0.619732 0.619275
vt 0.122734 0.618199
vt 0.150192 0.618702
vt 0.247971 0.621192
vt 0.093812 0.617786
vt 0.063497 0.617480
vt 0.702187 0.617786
vt 0.732503 0.617480
vt 0.525660 0.621814
vt 0.356085 0.623610
vt 0.334996 0.623303
vt 0.418932 0.623798
vt 0.439914 0.623610
vt 0.548028 0.621192
vt 0.313735 0.622891
vt 0.176267 0.619275
vt 0.763936 0.617291
vt 0.224959 0.620545
vt 0.645807 0.618702
vt 0.397999 0.623862
vt 0.377067 0.623798
vt 0.032063 0.617291
vt 0.201124 0.619897
vt 0.482264 0.622891
vt 0.795999 0.617227
vt 0.000000 0.618361
vt 0.000000 0.617227
f 1/1/1 2/2/2 3/3/3
f 4/4/4 5/5/5 6/6/6
f 7/7/7 8/8/8 9/9/9
f 10/10/10 11/11/11 12/12/12
f 13/13/13 14/14/14 15/15/15
f 16/16/16 17/17/17 18/18/18
f 19/19/19 20/20/20 21/21/21
f 22/22/22 23/23/23 24/24/24
f 19/19/19 25/25/25 26/26/26
f 27/27/27 26/26/26 28/28/28
f 29/29/29 30/30/30 31/31/31
f 13/13/13 32/32/32 33/33/33
f 34/34/34 35/35/35 36/36/36
f 10/10/10 29/29/29 37/37/37
f 38/38/38 36/36/36 39/39/39
f 40/40/40 6/6/6 41/41/41
f 1/1/1 42/42/42 33/33/33
f 7/7/7 43/43/43 39/39/39
f 44/44/44 45/45/45 21/21/21
f 46/46/46 47/47/47 31/31/31
f 48/48/48 22/22/22 49/49/49
f 17/17/17 50/50/50 12/12/12
f 51/51/51 28/28/28 52/52/52
f 53/53/53 41/41/41 54/54/54
f 55/55/55 56/56/56 54/54/54
f 57/57/57 9/9/9 24/24/24
f 34/34/34 55/55/55 58/58/58
f 59/59/59 60/60/60 52/52/52
f 48/48/48 61/61/61 45/45/45
f 4/4/4 62/62/62 15/15/15
f 63/63/63 64/64/64 47/47/47
f 2/2/2 16/16/16 65/65/65
f 66/66/66 2/2/2 1/1/1
f 67/67/67 4/4/4 40/40/40
f 68/68/68 69/69/69 7/7/7
f 70/70/70 10/10/10 50/50/50
f 71/71/71 13/13/13 62/62/62
f 72/72/72 73/73/73 17/17/17
f 74/74/74 75/75/75 20/20/20
f 76/76/76 23/23/23 22/22/22
f 77/77/77 74/74/74 19/19/19
f 78/78/78 77/77/77 27/27/27
f 79/79/79 80/80/80 30/30/30
f 81/81/81 32/32/32 13/13/13
f 82/82/82 34/34/34 38/38/38
f 70/70/70 79/79/79 29/29/29
f 83/83/83 38/38/38 43/43/43
f 84/84/84 85/85/85 40/40/40
f 81/81/81 86/86/86 1/1/1
f 69/69/69 87/87/87 43/43/43
f 75/75/75 88/88/88 44/44/44
f 80/80/80 89/89/89 46/46/46
f 90/90/90 22/22/22 48/48/48
f 91/91/91 50/50/50 17/17/17
f 78/78/78 51/51/51 60/60/60
f 92/92/92 84/84/84 53/53/53
f 92/92/92 56/56/56 55/55/55
f 68/68/68 57/57/57 23/23/23
f 93/93/93 55/55/55 34/34/34
f 94/94/94 60/60/60 59/59/59
f 95/95/95 48/48/48 44/44/44
f 96/96/96 62/62/62 4/4/4
f 97/97/97 63/63/63 46/46/46
f 66/66/66 72/72/72 16/16/16
f 42/42/42 1/1/1 3/3/3
f 40/40/40 4/4/4 6/6/6
f 57/57/57 7/7/7 9/9/9
f 50/50/50 10/10/10 12/12/12
f 62/62/62 13/13/13 15/15/15
f 65/65/65 16/16/16 18/18/18
f 25/25/25 19/19/19 21/21/21
f 49/49/49 22/22/22 24/24/24
f 27/27/27 19/19/19 26/26/26
f 51/51/51 27/27/27 28/28/28
f 37/37/37 29/29/29 31/31/31
f 14/14/14 13/13/13 33/33/33
f 38/38/38 34/34/34 36/36/36
f 11/11/11 10/10/10 37/37/37
f 43/43/43 38/38/38 39/39/39
f 53/53/53 40/40/40 41/41/41
f 32/32/32 1/1/1 33/33/33
f 8/8/8 7/7/7 39/39/39
f 20/20/20 44/44/44 21/21/21
f 30/30/30 46/46/46 31/31/31
f 61/61/61 48/48/48 49/49/49
f 18/18/18 17/17/17 12/12/12
f 60/60/60 51/51/51 52/52/52
f 56/56/56 53/53/53 54/54/54
f 58/58/58 55/55/55 54/54/54
f 23/23/23 57/57/57 24/24/24
f 35/35/35 34/34/34 58/58/58
f 98/98/98 59/59/59 52/52/52
f 44/44/44 48/48/48 45/45/45
f 5/5/5 4/4/4 15/15/15
f 46/46/46 63/63/63 47/47/47
f 3/3/3 2/2/2 65/65/65
f 86/86/86 66/66/66 1/1/1
f 85/85/85 67/67/67 40/40/40
f 57/57/57 68/68/68 7/7/7
f 91/91/91 70/70/70 50/50/50
f 96/96/96 71/71/71 62/62/62
f 16/16/16 72/72/72 17/17/17
f 19/19/19 74/74/74 20/20/20
f 90/90/90 76/76/76 22/22/22
f 27/27/27 77/77/77 19/19/19
f 51/51/51 78/78/78 27/27/27
f 29/29/29 79/79/79 30/30/30
f 71/71/71 81/81/81 13/13/13
f 83/83/83 82/82/82 38/38/38
f 10/10/10 70/70/70 29/29/29
f 87/87/87 83/83/83 43/43/43
f 53/53/53 84/84/84 40/40/40
f 32/32/32 81/81/81 1/1/1
f 7/7/7 69/69/69 43/43/43
f 20/20/20 75/75/75 44/44/44
f 30/30/30 80/80/80 46/46/46
f 95/95/95 90/90/90 48/48/48
f 73/73/73 91/91/91 17/17/17
f 94/94/94 78/78/78 60/60/60
f 56/56/56 92/92/92 53/53/53
f 93/93/93 92/92/92 55/55/55
f 76/76/76 68/68/68 23/23/23
f 82/82/82 93/93/93 34/34/34
f 99/99/99 94/94/94 59/59/59
f 88/88/88 95/95/95 44/44/44
f 67/67/67 96/96/96 4/4/4
f 89/89/89 97/97/97 46/46/46
f 2/2/2 66/66/66 16/16/16
