v -1.047622 4.188066 -1.807401
v -1.044189 4.196855 -1.796092
v -1.035702 4.186248 -1.798943
v -1.051428 4.181680 -1.794974
v -1.036918 4.184208 -1.794973
v -1.045405 4.194814 -1.792122
v -1.045405 4.194814 -1.792122
v -1.036918 4.184208 -1.794973
v -1.035702 4.186248 -1.798943
v -1.047622 4.188066 -1.807401
v -1.035702 4.186248 -1.798943
v -1.040430 4.175287 -1.806024
v -1.051428 4.181680 -1.794974
v -1.041646 4.173246 -1.802053
v -1.036918 4.184208 -1.794973
v -1.036918 4.184208 -1.794973
v -1.041646 4.173246 -1.802053
v -1.040430 4.175287 -1.806024
v -1.047622 4.188066 -1.807401
v -1.040430 4.175287 -1.806024
v -1.053645 4.174931 -1.810254
v -1.051428 4.181680 -1.794974
v -1.054861 4.172891 -1.806283
v -1.041646 4.173246 -1.802053
v -1.040430 4.175287 -1.806024
v -1.041646 4.173246 -1.802053
v -1.054861 4.172891 -1.806283
v -1.047622 4.188066 -1.807401
v -1.053645 4.174931 -1.810254
v -1.062132 4.185537 -1.807403
v -1.051428 4.181680 -1.794974
v -1.063348 4.183497 -1.803433
v -1.054861 4.172891 -1.806283
v -1.054861 4.172891 -1.806283
v -1.063348 4.183497 -1.803433
v -1.062132 4.185537 -1.807403
v -1.047622 4.188066 -1.807401
v -1.062132 4.185537 -1.807403
v -1.057404 4.196499 -1.800322
v -1.051428 4.181680 -1.794974
v -1.058620 4.194459 -1.796352
v -1.063348 4.183497 -1.803433
v -1.063348 4.183497 -1.803433
v -1.058620 4.194459 -1.796352
v -1.057404 4.196499 -1.800322
v -1.047622 4.188066 -1.807401
v -1.057404 4.196499 -1.800322
v -1.044189 4.196855 -1.796092
v -1.051428 4.181680 -1.794974
v -1.045405 4.194814 -1.792122
v -1.058620 4.194459 -1.796352
v -1.058620 4.194459 -1.796352
v -1.045405 4.194814 -1.792122
v -1.044189 4.196855 -1.796092
v -1.044189 4.196855 -1.796092
v -1.045405 4.194814 -1.792122
v -1.035702 4.186248 -1.798943
v -1.035702 4.186248 -1.798943
v -1.036918 4.184208 -1.794973
v -1.040430 4.175287 -1.806024
v -1.053645 4.174931 -1.810254
v -1.053645 4.174931 -1.810254
v -1.054861 4.172891 -1.806283
v -1.062132 4.185537 -1.807403
v -1.062132 4.185537 -1.807403
v -1.063348 4.183497 -1.803433
v -1.057404 4.196499 -1.800322
v -1.057404 4.196499 -1.800322
v -1.058620 4.194459 -1.796352
v -1.044189 4.196855 -1.796092
vn 0.526300 0.586600 -0.615600
vn 0.526300 0.586600 -0.615600
vn 0.526300 0.586600 -0.615600
vn 0.039900 -0.229500 0.972500
vn 0.039900 -0.229500 0.972500
vn 0.039900 -0.229500 0.972500
vn 0.746300 0.470800 0.470400
vn 0.746300 0.470800 0.470400
vn 0.746300 0.470800 0.470400
vn 0.585600 0.246300 -0.772300
vn 0.585600 0.246300 -0.772300
vn 0.585600 0.246300 -0.772300
vn 0.099100 -0.569800 0.815800
vn 0.099100 -0.569800 0.815800
vn 0.099100 -0.569800 0.815800
vn 0.902700 -0.426400 0.057300
vn 0.902700 -0.426400 0.057300
vn 0.902700 -0.426400 0.057300
vn 0.302500 0.067800 -0.950700
vn 0.302500 0.067800 -0.950700
vn 0.302500 0.067800 -0.950700
vn -0.183900 -0.748400 0.637300
vn -0.183900 -0.748400 0.637300
vn -0.183900 -0.748400 0.637300
vn 0.156400 -0.897200 -0.413100
vn 0.156400 -0.897200 -0.413100
vn 0.156400 -0.897200 -0.413100
vn -0.039900 0.229500 -0.972500
vn -0.039900 0.229500 -0.972500
vn -0.039900 0.229500 -0.972500
vn -0.526300 -0.586600 0.615600
vn -0.526300 -0.586600 0.615600
vn -0.526300 -0.586600 0.615600
vn -0.746300 -0.470700 -0.470600
vn -0.746300 -0.470700 -0.470600
vn -0.746300 -0.470700 -0.470600
vn -0.099200 0.569700 -0.815800
vn -0.099200 0.569700 -0.815800
vn -0.099200 0.569700 -0.815800
vn -0.585600 -0.246300 0.772300
vn -0.585600 -0.246300 0.772300
vn -0.585600 -0.246300 0.772300
vn -0.902700 0.426400 -0.057300
vn -0.902700 0.426400 -0.057300
vn -0.902700 0.426400 -0.057300
vn 0.183900 0.748300 -0.637300
vn 0.183900 0.748300 -0.637300
vn 0.183900 0.748300 -0.637300
vn -0.302500 -0.067800 0.950700
vn -0.302500 -0.067800 0.950700
vn -0.302500 -0.067800 0.950700
vn -0.156400 0.897100 0.413200
vn -0.156400 0.897100 0.413200
vn -0.156400 0.897100 0.413200
vn 0.746400 0.470700 0.470500
vn 0.746400 0.470700 0.470500
vn 0.746400 0.470700 0.470500
vn 0.902700 -0.426400 0.057400
vn 0.902700 -0.426400 0.057400
vn 0.902700 -0.426400 0.057400
vn 0.156400 -0.897200 -0.413100
vn -0.746400 -0.470800 -0.470300
vn -0.746400 -0.470800 -0.470300
vn -0.746400 -0.470800 -0.470300
vn -0.902700 0.426400 -0.057400
vn -0.902700 0.426400 -0.057400
vn -0.902700 0.426400 -0.057400
vn -0.156400 0.897000 0.413300
vn -0.156400 0.897000 0.413300
vn -0.156400 0.897000 0.413300
vt 0.000000 0.000000
vt 0.000000 0.000000
vt 0.000000 0.000000
vt 0.000000 0.000000
vt 0.000000 0.000000
vt 0.000000 0.000000
vt 0.000000 0.000000
vt 0.000000 0.000000
vt 0.000000 0.000000
vt 0.000000 0.000000
vt 0.000000 0.000000
vt 0.000000 0.000000
vt 0.000000 0.000000
vt 0.000000 0.000000
vt 0.000000 0.000000
vt 0.000000 0.000000
vt 0.000000 0.000000
vt 0.000000 0.000000
vt 0.000000 0.000000
vt 0.000000 0.000000
vt 0.000000 0.000000
vt 0.000000 0.000000
vt 0.000000 0.000000
vt 0.000000 0.000000
vt 0.000000 0.000000
vt 0.000000 0.000000
vt 0.000000 0.000000
vt 0.000000 0.000000
vt 0.000000 0.000000
vt 0.000000 0.000000
vt 0.000000 0.000000
vt 0.000000 0.000000
vt 0.000000 0.000000
vt 0.000000 0.000000
vt 0.000000 0.000000
vt 0.000000 0.000000
vt 0.000000 0.000000
vt 0.000000 0.000000
vt 0.000000 0.000000
vt 0.000000 0.000000
vt 0.000000 0.000000
vt 0.000000 0.000000
vt 0.000000 0.000000
vt 0.000000 0.000000
vt 0.000000 0.000000
vt 0.000000 0.000000
vt 0.000000 0.000000
vt 0.000000 0.000000
vt 0.000000 0.000000
vt 0.000000 0.000000
vt 0.000000 0.000000
vt 0.000000 0.000000
vt 0.000000 0.000000
vt 0.000000 0.000000
vt 0.000000 0.000000
vt 0.000000 0.000000
vt 0.000000 0.000000
vt 0.000000 0.000000
vt 0.000000 0.000000
vt 0.000000 0.000000
vt 0.000000 0.000000
vt 0.000000 0.000000
vt 0.000000 0.000000
vt 0.000000 0.000000
vt 0.000000 0.000000
vt 0.000000 0.000000
vt 0.000000 0.000000
vt 0.000000 0.000000
vt 0.000000 0.000000
vt 0.000000 0.000000
f 1/1/1 2/2/2 3/3/3
f 4/4/4 5/5/5 6/6/6
f 7/7/7 8/8/8 9/9/9
f 10/10/10 11/11/11 12/12/12
f 13/13/13 14/14/14 15/15/15
f 16/16/16 17/17/17 18/18/18
f 19/19/19 20/20/20 21/21/21
f 22/22/22 23/23/23 24/24/24
f 25/25/25 26/26/26 27/27/27
f 28/28/28 29/29/29 30/30/30
f 31/31/31 32/32/32 33/33/33
f 34/34/34 35/35/35 36/36/36
f 37/37/37 38/38/38 39/39/39
f 40/40/40 41/41/41 42/42/42
f 43/43/43 44/44/44 45/45/45
f 46/46/46 47/47/47 48/48/48
f 49/49/49 50/50/50 51/51/51
f 52/52/52 53/53/53 54/54/54
f 55/55/55 56/56/56 57/57/57
f 58/58/58 59/59/59 60/60/60
f 61/61/61 25/25/25 27/27/27
f 62/62/62 63/63/63 64/64/64
f 65/65/65 66/66/66 67/67/67
f 68/68/68 69/69/69 70/70/70
