v 0.526600 2.315399 -3.268283
v 0.514903 2.315399 -3.267130
v 0.514462 2.316573 -3.269345
v 0.503655 2.315399 -3.152928
v 0.502791 2.316573 -3.150842
v 0.492034 2.316573 -3.156591
v 0.471205 2.315399 -3.231268
v 0.467793 2.315399 -3.220021
v 0.465579 2.316573 -3.220461
v 0.568998 2.315399 -3.165925
v 0.570595 2.316573 -3.164329
v 0.561167 2.316573 -3.156591
v 0.559912 2.315399 -3.258178
v 0.561167 2.316573 -3.260055
v 0.570595 2.316573 -3.252317
v 0.538298 2.315399 -3.267130
v 0.526600 2.315399 -3.268283
v 0.526600 2.316573 -3.270540
v 0.576455 2.315399 -3.241635
v 0.568998 2.315399 -3.250721
v 0.586560 2.315399 -3.208323
v 0.585408 2.315399 -3.220021
v 0.587622 2.316573 -3.220461
v 0.549546 2.315399 -3.263718
v 0.550410 2.316573 -3.265804
v 0.471205 2.315399 -3.185377
v 0.469119 2.316573 -3.184513
v 0.465579 2.316573 -3.196185
v 0.585408 2.315399 -3.196625
v 0.588818 2.316573 -3.208323
v 0.549546 2.315399 -3.152928
v 0.550410 2.316573 -3.150842
v 0.538738 2.316573 -3.147301
v 0.581996 2.315399 -3.185377
v 0.584082 2.316573 -3.184513
v 0.578332 2.316573 -3.173757
v 0.514903 2.315399 -3.149516
v 0.514462 2.316573 -3.147301
v 0.581996 2.315399 -3.231268
v 0.584082 2.316573 -3.232132
v 0.476746 2.315399 -3.241635
v 0.474869 2.316573 -3.242889
v 0.482606 2.316573 -3.252317
v 0.526600 2.315399 -3.148363
v 0.538298 2.315399 -3.149515
v 0.467793 2.315399 -3.196625
v 0.464383 2.316573 -3.208323
v 0.493289 2.315399 -3.258178
v 0.484203 2.315399 -3.250721
v 0.526600 2.316573 -3.146106
v 0.492034 2.316573 -3.260055
v 0.502791 2.316573 -3.265804
v 0.503655 2.315399 -3.263718
v 0.559912 2.315399 -3.158468
v 0.587622 2.316573 -3.196185
v 0.484203 2.315399 -3.165925
v 0.482606 2.316573 -3.164329
v 0.474869 2.316573 -3.173757
v 0.469119 2.316573 -3.232132
v 0.476746 2.315399 -3.175011
v 0.538738 2.316573 -3.269345
v 0.466641 2.315399 -3.208323
v 0.493289 2.315399 -3.158468
v 0.578332 2.316573 -3.242889
v 0.576455 2.315399 -3.175011
v 0.514983 2.314838 -3.266728
v 0.493517 2.314838 -3.158810
v 0.503812 2.314838 -3.153307
v 0.468196 2.314838 -3.219940
v 0.568708 2.314838 -3.166215
v 0.559684 2.314838 -3.257836
v 0.538218 2.314838 -3.266728
v 0.526600 2.314838 -3.267872
v 0.576114 2.314838 -3.241407
v 0.568708 2.314838 -3.250430
v 0.585005 2.314838 -3.219940
v 0.549389 2.314838 -3.263339
v 0.468196 2.314838 -3.196706
v 0.471584 2.314838 -3.185534
v 0.585005 2.314838 -3.196706
v 0.586149 2.314838 -3.208323
v 0.538218 2.314838 -3.149918
v 0.549389 2.314838 -3.153307
v 0.576114 2.314838 -3.175239
v 0.581617 2.314838 -3.185534
v 0.514983 2.314838 -3.149918
v 0.581617 2.314838 -3.231111
v 0.477087 2.314838 -3.241407
v 0.526600 2.314838 -3.148774
v 0.467051 2.314838 -3.208323
v 0.493517 2.314838 -3.257836
v 0.484493 2.314838 -3.250430
v 0.503812 2.314838 -3.263339
v 0.559684 2.314838 -3.158810
v 0.477087 2.314838 -3.175239
v 0.484493 2.314838 -3.166215
v 0.471584 2.314838 -3.231111
v 0.514236 2.318288 -3.270486
v 0.526600 2.318288 -3.271703
v 0.502346 2.318288 -3.149767
v 0.491388 2.318288 -3.155624
v 0.464438 2.318288 -3.220688
v 0.571417 2.318288 -3.163506
v 0.561813 2.318288 -3.155624
v 0.561813 2.318288 -3.261022
v 0.571417 2.318288 -3.253140
v 0.526600 2.318288 -3.271703
v 0.579299 2.318288 -3.243535
v 0.588763 2.318288 -3.220688
v 0.589981 2.318288 -3.208323
v 0.550855 2.318288 -3.266879
v 0.468045 2.318288 -3.184068
v 0.550855 2.318288 -3.149767
v 0.538965 2.318288 -3.146160
v 0.585156 2.318288 -3.184068
v 0.579299 2.318288 -3.173111
v 0.514236 2.318288 -3.146160
v 0.585156 2.318288 -3.232578
v 0.473902 2.318288 -3.243535
v 0.464438 2.318288 -3.195958
v 0.481784 2.318288 -3.253140
v 0.491388 2.318288 -3.261022
v 0.526600 2.318288 -3.144943
v 0.502346 2.318288 -3.266879
v 0.588763 2.318288 -3.195958
v 0.481784 2.318288 -3.163506
v 0.468045 2.318288 -3.232578
v 0.473902 2.318288 -3.173111
v 0.538965 2.318288 -3.270485
v 0.463220 2.318288 -3.208323
v 0.526600 2.316573 -3.270540
v 0.526600 2.314838 -3.267872
vn 0.000000 -0.766100 -0.642700
vn -0.125400 -0.766100 -0.630400
vn -0.131300 -0.739600 -0.660100
vn -0.245900 -0.766000 0.593900
vn -0.257600 -0.739500 0.621800
vn -0.373900 -0.739500 0.559600
vn -0.593900 -0.766000 -0.245900
vn -0.630400 -0.766000 -0.125400
vn -0.660100 -0.739500 -0.131300
vn 0.454500 -0.766000 0.454500
vn 0.475900 -0.739500 0.476000
vn 0.373900 -0.739500 0.559600
vn 0.357100 -0.766000 -0.534400
vn 0.373900 -0.739500 -0.559700
vn 0.475900 -0.739600 -0.475900
vn 0.125400 -0.766100 -0.630400
vn 0.000000 -0.766100 -0.642700
vn 0.000000 -0.739500 -0.673100
vn 0.534500 -0.766000 -0.357100
vn 0.454500 -0.766000 -0.454500
vn 0.642800 -0.766000 0.000000
vn 0.630400 -0.766000 -0.125400
vn 0.660200 -0.739500 -0.131300
vn 0.245900 -0.766000 -0.593900
vn 0.257600 -0.739500 -0.621800
vn -0.593800 -0.766100 0.245900
vn -0.621900 -0.739500 0.257500
vn -0.660100 -0.739500 0.131300
vn 0.630400 -0.766000 0.125300
vn 0.673100 -0.739500 0.000000
vn 0.245900 -0.766000 0.593900
vn 0.257600 -0.739500 0.621800
vn 0.131300 -0.739500 0.660100
vn 0.593800 -0.766000 0.246000
vn 0.621800 -0.739600 0.257500
vn 0.559600 -0.739500 0.373900
vn -0.125400 -0.766100 0.630400
vn -0.131300 -0.739600 0.660100
vn 0.593800 -0.766100 -0.245900
vn 0.621800 -0.739500 -0.257500
vn -0.534500 -0.766000 -0.357100
vn -0.559600 -0.739500 -0.373900
vn -0.475900 -0.739500 -0.476000
vn 0.000000 -0.766000 0.642800
vn 0.125400 -0.766100 0.630300
vn -0.630400 -0.766000 0.125400
vn -0.673100 -0.739500 0.000000
vn -0.357100 -0.766000 -0.534500
vn -0.454500 -0.766000 -0.454500
vn 0.000000 -0.739500 0.673100
vn -0.373900 -0.739500 -0.559700
vn -0.257600 -0.739500 -0.621800
vn -0.245900 -0.766000 -0.593900
vn 0.357100 -0.766100 0.534400
vn 0.660200 -0.739500 0.131300
vn -0.454500 -0.766000 0.454500
vn -0.475900 -0.739600 0.475900
vn -0.559600 -0.739500 0.374000
vn -0.621800 -0.739600 -0.257500
vn -0.534400 -0.766000 0.357100
vn 0.131300 -0.739500 -0.660200
vn -0.642800 -0.766000 0.000000
vn -0.357100 -0.766000 0.534400
vn 0.559600 -0.739600 -0.373900
vn 0.534400 -0.766000 0.357100
vn -0.157400 -0.590800 -0.791300
vn -0.448300 -0.590800 0.670700
vn -0.308700 -0.590700 0.745500
vn -0.791300 -0.590700 -0.157400
vn 0.570500 -0.590800 0.570500
vn 0.448200 -0.590800 -0.670800
vn 0.157400 -0.590800 -0.791300
vn 0.000000 -0.590900 -0.806700
vn 0.670900 -0.590700 -0.448200
vn 0.570500 -0.590800 -0.570500
vn 0.791300 -0.590800 -0.157400
vn 0.308700 -0.590700 -0.745500
vn -0.791300 -0.590700 0.157400
vn -0.745400 -0.590800 0.308700
vn 0.791300 -0.590800 0.157300
vn 0.806800 -0.590800 0.000000
vn 0.157400 -0.591000 0.791100
vn 0.308700 -0.590700 0.745500
vn 0.670800 -0.590800 0.448300
vn 0.745400 -0.590700 0.308800
vn -0.157400 -0.590800 0.791300
vn 0.745400 -0.590800 -0.308600
vn -0.670900 -0.590700 -0.448200
vn 0.000000 -0.590700 0.806900
vn -0.806800 -0.590700 0.000000
vn -0.448300 -0.590800 -0.670800
vn -0.570500 -0.590800 -0.570500
vn -0.308700 -0.590600 -0.745500
vn 0.448300 -0.590900 0.670700
vn -0.670900 -0.590800 0.448200
vn -0.570500 -0.590700 0.570700
vn -0.745400 -0.590700 -0.308700
vn -0.161500 -0.561300 -0.811700
vn 0.000000 -0.561200 -0.827600
vn -0.316700 -0.561200 0.764600
vn -0.459800 -0.561200 0.688200
vn -0.811700 -0.561200 -0.161400
vn 0.585200 -0.561200 0.585300
vn 0.459800 -0.561200 0.688100
vn 0.459800 -0.561200 -0.688100
vn 0.585200 -0.561300 -0.585200
vn 0.000000 -0.561200 -0.827600
vn 0.688100 -0.561300 -0.459800
vn 0.811800 -0.561200 -0.161400
vn 0.827600 -0.561200 0.000000
vn 0.316700 -0.561200 -0.764600
vn -0.764700 -0.561200 0.316700
vn 0.316700 -0.561200 0.764600
vn 0.161400 -0.561200 0.811700
vn 0.764600 -0.561200 0.316700
vn 0.688200 -0.561200 0.459800
vn -0.161500 -0.561300 0.811700
vn 0.764600 -0.561200 -0.316700
vn -0.688200 -0.561200 -0.459800
vn -0.811800 -0.561200 0.161400
vn -0.585200 -0.561200 -0.585300
vn -0.459800 -0.561200 -0.688100
vn 0.000000 -0.561200 0.827700
vn -0.316700 -0.561200 -0.764600
vn 0.811800 -0.561200 0.161400
vn -0.585200 -0.561200 0.585300
vn -0.764600 -0.561200 -0.316700
vn -0.688200 -0.561200 0.459800
vn 0.161500 -0.561200 -0.811800
vn -0.827700 -0.561200 0.000000
vn 0.000000 -0.739500 -0.673100
vn 0.000000 -0.590900 -0.806700
vt 0.000000 0.615592
vt 0.033086 0.615655
vt 0.032570 0.615856
vt 0.356920 0.621846
vt 0.356510 0.622281
vt 0.335628 0.621969
vt 0.179516 0.617599
vt 0.204268 0.618209
vt 0.202709 0.618507
vt 0.480629 0.621142
vt 0.481433 0.621550
vt 0.460371 0.621969
vt 0.699602 0.616140
vt 0.700899 0.616360
vt 0.671759 0.616780
vt 0.762913 0.615655
vt 0.795999 0.615592
vt 0.795999 0.615792
vt 0.642587 0.617037
vt 0.670252 0.616544
vt 0.568096 0.618843
vt 0.591731 0.618209
vt 0.593290 0.618507
vt 0.730589 0.615840
vt 0.731551 0.616048
vt 0.272699 0.620087
vt 0.271535 0.620456
vt 0.249325 0.619823
vt 0.545352 0.619477
vt 0.569553 0.619165
vt 0.439079 0.621846
vt 0.439490 0.622281
vt 0.418718 0.622473
vt 0.523300 0.620087
vt 0.524464 0.620456
vt 0.502762 0.621039
vt 0.377487 0.622031
vt 0.377281 0.622473
vt 0.616483 0.617599
vt 0.618098 0.617874
vt 0.153412 0.617037
vt 0.151807 0.617291
vt 0.124240 0.616780
vt 0.397999 0.622094
vt 0.418512 0.622031
vt 0.250647 0.619477
vt 0.226446 0.619165
vt 0.096397 0.616140
vt 0.125747 0.616544
vt 0.397999 0.622538
vt 0.095100 0.616360
vt 0.064448 0.616048
vt 0.065410 0.615840
vt 0.459761 0.621546
vt 0.546674 0.619823
vt 0.315370 0.621142
vt 0.314566 0.621550
vt 0.293237 0.621039
vt 0.177901 0.617874
vt 0.294227 0.620649
vt 0.763429 0.615856
vt 0.227903 0.618843
vt 0.336238 0.621546
vt 0.644192 0.617291
vt 0.501772 0.620649
vt 0.033235 0.615523
vt 0.336409 0.621374
vt 0.357034 0.621672
vt 0.204710 0.618059
vt 0.480403 0.620972
vt 0.699229 0.616005
vt 0.762764 0.615523
vt 0.795999 0.615461
vt 0.642129 0.616896
vt 0.669821 0.616407
vt 0.591289 0.618059
vt 0.730312 0.615707
vt 0.251020 0.619319
vt 0.273027 0.619925
vt 0.544979 0.619319
vt 0.567684 0.618689
vt 0.418455 0.621856
vt 0.438965 0.621672
vt 0.501493 0.620483
vt 0.522972 0.619925
vt 0.377544 0.621856
vt 0.616024 0.617454
vt 0.153870 0.616896
vt 0.397999 0.621918
vt 0.228315 0.618689
vt 0.096770 0.616005
vt 0.126179 0.616407
vt 0.065687 0.615707
vt 0.459590 0.621374
vt 0.294506 0.620483
vt 0.315596 0.620972
vt 0.179975 0.617454
vt 0.032185 0.616265
vt 0.000000 0.616199
vt 0.356189 0.622809
vt 0.335151 0.622492
vt 0.201509 0.618964
vt 0.482061 0.622065
vt 0.460848 0.622492
vt 0.701876 0.616778
vt 0.672901 0.617205
vt 0.795999 0.616199
vt 0.645416 0.617726
vt 0.594490 0.618964
vt 0.570677 0.619635
vt 0.732274 0.616460
vt 0.270631 0.620950
vt 0.439810 0.622809
vt 0.418879 0.623005
vt 0.525368 0.620950
vt 0.503532 0.621544
vt 0.377120 0.623005
vt 0.619335 0.618320
vt 0.150583 0.617726
vt 0.248302 0.620305
vt 0.123098 0.617205
vt 0.094123 0.616778
vt 0.397999 0.623071
vt 0.063726 0.616460
vt 0.547698 0.620305
vt 0.313938 0.622065
vt 0.176664 0.618320
vt 0.292467 0.621544
vt 0.763814 0.616265
vt 0.225322 0.619635
vt 0.000000 0.615792
vt 0.000000 0.615461
f 1/1/1 2/2/2 3/3/3
f 4/4/4 5/5/5 6/6/6
f 7/7/7 8/8/8 9/9/9
f 10/10/10 11/11/11 12/12/12
f 13/13/13 14/14/14 15/15/15
f 16/16/16 17/17/17 18/18/18
f 19/19/19 20/20/20 15/15/15
f 21/21/21 22/22/22 23/23/23
f 24/24/24 25/25/25 14/14/14
f 26/26/26 27/27/27 28/28/28
f 29/29/29 21/21/21 30/30/30
f 31/31/31 32/32/32 33/33/33
f 34/34/34 35/35/35 36/36/36
f 4/4/4 37/37/37 38/38/38
f 22/22/22 39/39/39 40/40/40
f 41/41/41 42/42/42 43/43/43
f 44/44/44 45/45/45 33/33/33
f 46/46/46 28/28/28 47/47/47
f 48/48/48 49/49/49 43/43/43
f 44/44/44 50/50/50 38/38/38
f 48/48/48 51/51/51 52/52/52
f 53/53/53 52/52/52 3/3/3
f 31/31/31 54/54/54 12/12/12
f 34/34/34 29/29/29 55/55/55
f 56/56/56 57/57/57 58/58/58
f 41/41/41 7/7/7 59/59/59
f 26/26/26 60/60/60 58/58/58
f 24/24/24 16/16/16 61/61/61
f 62/62/62 47/47/47 9/9/9
f 63/63/63 6/6/6 57/57/57
f 39/39/39 19/19/19 64/64/64
f 10/10/10 65/65/65 36/36/36
f 66/66/66 2/2/2 1/1/1
f 67/67/67 68/68/68 4/4/4
f 69/69/69 8/8/8 7/7/7
f 70/70/70 10/10/10 54/54/54
f 71/71/71 13/13/13 20/20/20
f 72/72/72 73/73/73 17/17/17
f 74/74/74 75/75/75 20/20/20
f 76/76/76 22/22/22 21/21/21
f 71/71/71 77/77/77 24/24/24
f 78/78/78 79/79/79 26/26/26
f 80/80/80 81/81/81 21/21/21
f 82/82/82 83/83/83 31/31/31
f 84/84/84 85/85/85 34/34/34
f 86/86/86 37/37/37 4/4/4
f 87/87/87 39/39/39 22/22/22
f 88/88/88 41/41/41 49/49/49
f 89/89/89 82/82/82 45/45/45
f 90/90/90 78/78/78 46/46/46
f 91/91/91 92/92/92 49/49/49
f 86/86/86 89/89/89 44/44/44
f 93/93/93 91/91/91 48/48/48
f 66/66/66 93/93/93 53/53/53
f 83/83/83 94/94/94 54/54/54
f 85/85/85 80/80/80 29/29/29
f 95/95/95 96/96/96 56/56/56
f 97/97/97 7/7/7 41/41/41
f 79/79/79 95/95/95 60/60/60
f 72/72/72 16/16/16 24/24/24
f 69/69/69 90/90/90 62/62/62
f 96/96/96 67/67/67 63/63/63
f 87/87/87 74/74/74 19/19/19
f 70/70/70 84/84/84 65/65/65
f 3/3/3 98/98/98 99/99/99
f 5/5/5 100/100/100 101/101/101
f 59/59/59 9/9/9 102/102/102
f 11/11/11 103/103/103 104/104/104
f 14/14/14 105/105/105 106/106/106
f 61/61/61 18/18/18 107/107/107
f 15/15/15 106/106/106 108/108/108
f 23/23/23 109/109/109 110/110/110
f 25/25/25 111/111/111 105/105/105
f 28/28/28 27/27/27 112/112/112
f 55/55/55 30/30/30 110/110/110
f 32/32/32 113/113/113 114/114/114
f 35/35/35 115/115/115 116/116/116
f 38/38/38 117/117/117 100/100/100
f 40/40/40 118/118/118 109/109/109
f 43/43/43 42/42/42 119/119/119
f 50/50/50 33/33/33 114/114/114
f 47/47/47 28/28/28 120/120/120
f 43/43/43 121/121/121 122/122/122
f 50/50/50 123/123/123 117/117/117
f 52/52/52 51/51/51 122/122/122
f 3/3/3 52/52/52 124/124/124
f 32/32/32 12/12/12 104/104/104
f 35/35/35 55/55/55 125/125/125
f 58/58/58 57/57/57 126/126/126
f 59/59/59 127/127/127 119/119/119
f 27/27/27 58/58/58 128/128/128
f 61/61/61 129/129/129 111/111/111
f 9/9/9 47/47/47 130/130/130
f 57/57/57 6/6/6 101/101/101
f 40/40/40 64/64/64 108/108/108
f 36/36/36 116/116/116 103/103/103
f 131/131/131 1/1/1 3/3/3
f 63/63/63 4/4/4 6/6/6
f 59/59/59 7/7/7 9/9/9
f 54/54/54 10/10/10 12/12/12
f 20/20/20 13/13/13 15/15/15
f 61/61/61 16/16/16 18/18/18
f 64/64/64 19/19/19 15/15/15
f 30/30/30 21/21/21 23/23/23
f 13/13/13 24/24/24 14/14/14
f 46/46/46 26/26/26 28/28/28
f 55/55/55 29/29/29 30/30/30
f 45/45/45 31/31/31 33/33/33
f 65/65/65 34/34/34 36/36/36
f 5/5/5 4/4/4 38/38/38
f 23/23/23 22/22/22 40/40/40
f 49/49/49 41/41/41 43/43/43
f 50/50/50 44/44/44 33/33/33
f 62/62/62 46/46/46 47/47/47
f 51/51/51 48/48/48 43/43/43
f 37/37/37 44/44/44 38/38/38
f 53/53/53 48/48/48 52/52/52
f 2/2/2 53/53/53 3/3/3
f 32/32/32 31/31/31 12/12/12
f 35/35/35 34/34/34 55/55/55
f 60/60/60 56/56/56 58/58/58
f 42/42/42 41/41/41 59/59/59
f 27/27/27 26/26/26 58/58/58
f 25/25/25 24/24/24 61/61/61
f 8/8/8 62/62/62 9/9/9
f 56/56/56 63/63/63 57/57/57
f 40/40/40 39/39/39 64/64/64
f 11/11/11 10/10/10 36/36/36
f 132/132/132 66/66/66 1/1/1
f 63/63/63 67/67/67 4/4/4
f 97/97/97 69/69/69 7/7/7
f 94/94/94 70/70/70 54/54/54
f 75/75/75 71/71/71 20/20/20
f 16/16/16 72/72/72 17/17/17
f 19/19/19 74/74/74 20/20/20
f 81/81/81 76/76/76 21/21/21
f 13/13/13 71/71/71 24/24/24
f 46/46/46 78/78/78 26/26/26
f 29/29/29 80/80/80 21/21/21
f 45/45/45 82/82/82 31/31/31
f 65/65/65 84/84/84 34/34/34
f 68/68/68 86/86/86 4/4/4
f 76/76/76 87/87/87 22/22/22
f 92/92/92 88/88/88 49/49/49
f 44/44/44 89/89/89 45/45/45
f 62/62/62 90/90/90 46/46/46
f 48/48/48 91/91/91 49/49/49
f 37/37/37 86/86/86 44/44/44
f 53/53/53 93/93/93 48/48/48
f 2/2/2 66/66/66 53/53/53
f 31/31/31 83/83/83 54/54/54
f 34/34/34 85/85/85 29/29/29
f 60/60/60 95/95/95 56/56/56
f 88/88/88 97/97/97 41/41/41
f 26/26/26 79/79/79 60/60/60
f 77/77/77 72/72/72 24/24/24
f 8/8/8 69/69/69 62/62/62
f 56/56/56 96/96/96 63/63/63
f 39/39/39 87/87/87 19/19/19
f 10/10/10 70/70/70 65/65/65
f 131/131/131 3/3/3 99/99/99
f 6/6/6 5/5/5 101/101/101
f 127/127/127 59/59/59 102/102/102
f 12/12/12 11/11/11 104/104/104
f 15/15/15 14/14/14 106/106/106
f 129/129/129 61/61/61 107/107/107
f 64/64/64 15/15/15 108/108/108
f 30/30/30 23/23/23 110/110/110
f 14/14/14 25/25/25 105/105/105
f 120/120/120 28/28/28 112/112/112
f 125/125/125 55/55/55 110/110/110
f 33/33/33 32/32/32 114/114/114
f 36/36/36 35/35/35 116/116/116
f 5/5/5 38/38/38 100/100/100
f 23/23/23 40/40/40 109/109/109
f 121/121/121 43/43/43 119/119/119
f 123/123/123 50/50/50 114/114/114
f 130/130/130 47/47/47 120/120/120
f 51/51/51 43/43/43 122/122/122
f 38/38/38 50/50/50 117/117/117
f 124/124/124 52/52/52 122/122/122
f 98/98/98 3/3/3 124/124/124
f 113/113/113 32/32/32 104/104/104
f 115/115/115 35/35/35 125/125/125
f 128/128/128 58/58/58 126/126/126
f 42/42/42 59/59/59 119/119/119
f 112/112/112 27/27/27 128/128/128
f 25/25/25 61/61/61 111/111/111
f 102/102/102 9/9/9 130/130/130
f 126/126/126 57/57/57 101/101/101
f 118/118/118 40/40/40 108/108/108
f 11/11/11 36/36/36 103/103/103
