v 0.481438 0.876459 -1.469292
v 0.492658 0.882603 -1.467060
v 0.494674 0.882603 -1.473705
v 0.553431 0.876459 -1.421188
v 0.560532 0.876459 -1.427015
v 0.552443 0.882603 -1.435105
v 0.527397 0.876459 -1.507010
v 0.527397 0.882603 -1.495570
v 0.534307 0.882603 -1.494889
v 0.573357 0.876459 -1.469292
v 0.562136 0.882603 -1.467060
v 0.562817 0.882603 -1.460150
v 0.573357 0.876459 -1.451008
v 0.574257 0.876459 -1.460150
v 0.545330 0.876459 -1.416857
v 0.547075 0.882603 -1.430700
v 0.484105 0.876459 -1.442218
v 0.488435 0.876459 -1.434116
v 0.497947 0.882603 -1.440472
v 0.560532 0.876459 -1.493285
v 0.552443 0.882603 -1.485195
v 0.556848 0.882603 -1.479828
v 0.566360 0.876459 -1.434116
v 0.556848 0.882603 -1.440472
v 0.570690 0.876459 -1.478082
v 0.560121 0.882603 -1.473704
v 0.494263 0.876459 -1.493285
v 0.488435 0.876459 -1.486184
v 0.497947 0.882603 -1.479828
v 0.480538 0.876459 -1.460150
v 0.481438 0.876459 -1.451008
v 0.492659 0.882603 -1.453240
v 0.502352 0.882603 -1.485195
v 0.507719 0.882603 -1.489600
v 0.501364 0.876459 -1.499112
v 0.513843 0.882603 -1.492873
v 0.553431 0.876459 -1.499112
v 0.545330 0.876459 -1.503443
v 0.540952 0.882603 -1.492873
v 0.570690 0.876459 -1.442218
v 0.560121 0.882603 -1.446596
v 0.501364 0.876459 -1.421188
v 0.509465 0.876459 -1.416857
v 0.513843 0.882603 -1.427427
v 0.547075 0.882603 -1.489600
v 0.507719 0.882603 -1.430700
v 0.502352 0.882603 -1.435105
v 0.536539 0.876459 -1.414191
v 0.540952 0.882603 -1.427427
v 0.562136 0.882603 -1.453240
v 0.494263 0.876459 -1.427015
v 0.484105 0.876459 -1.478083
v 0.536539 0.876459 -1.506109
v 0.491978 0.882603 -1.460150
v 0.566360 0.876459 -1.486184
v 0.509465 0.876459 -1.503443
v 0.520487 0.882603 -1.494889
v 0.534307 0.882603 -1.425411
v 0.527397 0.882603 -1.424731
v 0.527397 0.876459 -1.413291
v 0.520487 0.882603 -1.425411
v 0.494674 0.882603 -1.446596
v 0.518256 0.876459 -1.414191
v 0.518256 0.876459 -1.506109
v 0.527397 0.882603 -1.495570
v 0.527397 0.876459 -1.507010
vn -0.464100 0.880900 -0.092300
vn -0.464100 0.880900 -0.092300
vn -0.437100 0.880900 -0.181100
vn 0.262900 0.880900 0.393400
vn 0.334600 0.880900 0.334600
vn 0.334600 0.880900 0.334600
vn 0.000000 0.880900 -0.473200
vn 0.000000 0.880900 -0.473200
vn 0.092300 0.880900 -0.464100
vn 0.464100 0.880900 -0.092300
vn 0.464100 0.880900 -0.092300
vn 0.473200 0.880900 0.000000
vn 0.464100 0.880900 0.092300
vn 0.473200 0.880900 0.000000
vn 0.181100 0.880900 0.437100
vn 0.262900 0.880900 0.393400
vn -0.437100 0.880900 0.181100
vn -0.393400 0.880900 0.262900
vn -0.393400 0.880900 0.262900
vn 0.334600 0.880900 -0.334600
vn 0.334600 0.880900 -0.334600
vn 0.393400 0.880900 -0.262900
vn 0.393400 0.880900 0.262900
vn 0.393400 0.880900 0.262900
vn 0.437100 0.880900 -0.181100
vn 0.437100 0.880900 -0.181100
vn -0.334600 0.880900 -0.334600
vn -0.393400 0.880900 -0.262900
vn -0.393400 0.880900 -0.262900
vn -0.473200 0.880900 0.000000
vn -0.464100 0.880900 0.092300
vn -0.464100 0.880900 0.092300
vn -0.334600 0.880900 -0.334600
vn -0.262900 0.880900 -0.393400
vn -0.262900 0.880900 -0.393400
vn -0.181100 0.880900 -0.437100
vn 0.262900 0.880900 -0.393400
vn 0.181100 0.880900 -0.437100
vn 0.181100 0.880900 -0.437100
vn 0.437100 0.880900 0.181100
vn 0.437100 0.880900 0.181100
vn -0.262900 0.880900 0.393400
vn -0.181100 0.880900 0.437100
vn -0.181100 0.880900 0.437100
vn 0.262900 0.880900 -0.393400
vn -0.262900 0.880900 0.393400
vn -0.334600 0.880900 0.334600
vn 0.092300 0.880900 0.464100
vn 0.181100 0.880900 0.437100
vn 0.464100 0.880900 0.092300
vn -0.334600 0.880900 0.334600
vn -0.437100 0.880900 -0.181100
vn 0.092300 0.880900 -0.464100
vn -0.473200 0.880900 0.000000
vn 0.393400 0.880900 -0.262900
vn -0.181100 0.880900 -0.437100
vn -0.092300 0.880900 -0.464100
vn 0.092300 0.880900 0.464100
vn 0.000000 0.880900 0.473200
vn 0.000000 0.880900 0.473200
vn -0.092300 0.880900 0.464100
vn -0.437100 0.880900 0.181100
vn -0.092300 0.880900 0.464100
vn -0.092300 0.880900 -0.464100
vn 0.000000 0.880900 -0.473200
vn 0.000000 0.880900 -0.473200
vt 0.142879 0.423535
vt 0.135401 0.426621
vt 0.115260 0.426005
vt 0.432235 0.427994
vt 0.456650 0.427454
vt 0.464086 0.429584
vt 0.711545 0.420038
vt 0.711545 0.423979
vt 0.692627 0.424042
vt 0.568665 0.423535
vt 0.576144 0.426621
vt 0.555453 0.427262
vt 0.525643 0.425230
vt 0.547389 0.424382
vt 0.407170 0.428396
vt 0.438442 0.429992
vt 0.208220 0.426045
vt 0.231199 0.426796
vt 0.223024 0.429086
vt 0.630651 0.421311
vt 0.635422 0.424940
vt 0.616008 0.425438
vt 0.480345 0.426796
vt 0.488521 0.429086
vt 0.589574 0.422720
vt 0.596285 0.426005
vt 0.080894 0.421311
vt 0.101335 0.421969
vt 0.095537 0.425438
vt 0.164156 0.424382
vt 0.185902 0.425230
vt 0.177484 0.427903
vt 0.076122 0.424940
vt 0.056926 0.424532
vt 0.060582 0.420770
vt 0.037877 0.424228
vt 0.650962 0.420770
vt 0.671193 0.420369
vt 0.673668 0.424228
vt 0.503324 0.426045
vt 0.511803 0.428518
vt 0.279310 0.427994
vt 0.304375 0.428396
vt 0.299886 0.430295
vt 0.654619 0.424532
vt 0.273103 0.429992
vt 0.247459 0.429584
vt 0.381607 0.428643
vt 0.411659 0.430295
vt 0.534060 0.427903
vt 0.254895 0.427454
vt 0.121970 0.422720
vt 0.691379 0.420122
vt 0.156092 0.427262
vt 0.610209 0.421969
vt 0.040351 0.420369
vt 0.018917 0.424042
vt 0.383969 0.430482
vt 0.355772 0.430545
vt 0.355772 0.428726
vt 0.327576 0.430482
vt 0.199742 0.428518
vt 0.329938 0.428643
vt 0.020166 0.420122
vt 0.000000 0.423979
vt 0.000000 0.420038
f 1/1/1 2/2/2 3/3/3
f 4/4/4 5/5/5 6/6/6
f 7/7/7 8/8/8 9/9/9
f 10/10/10 11/11/11 12/12/12
f 13/13/13 14/14/14 12/12/12
f 15/15/15 4/4/4 16/16/16
f 17/17/17 18/18/18 19/19/19
f 20/20/20 21/21/21 22/22/22
f 23/23/23 24/24/24 6/6/6
f 25/25/25 26/26/26 11/11/11
f 27/27/27 28/28/28 29/29/29
f 30/30/30 31/31/31 32/32/32
f 27/27/27 33/33/33 34/34/34
f 35/35/35 34/34/34 36/36/36
f 37/37/37 38/38/38 39/39/39
f 40/40/40 41/41/41 24/24/24
f 42/42/42 43/43/43 44/44/44
f 20/20/20 37/37/37 45/45/45
f 42/42/42 46/46/46 47/47/47
f 48/48/48 15/15/15 49/49/49
f 40/40/40 13/13/13 50/50/50
f 18/18/18 51/51/51 47/47/47
f 52/52/52 3/3/3 29/29/29
f 38/38/38 53/53/53 9/9/9
f 30/30/30 54/54/54 2/2/2
f 55/55/55 22/22/22 26/26/26
f 56/56/56 36/36/36 57/57/57
f 48/48/48 58/58/58 59/59/59
f 60/60/60 59/59/59 61/61/61
f 31/31/31 17/17/17 62/62/62
f 43/43/43 63/63/63 61/61/61
f 64/64/64 57/57/57 65/65/65
f 52/52/52 1/1/1 3/3/3
f 16/16/16 4/4/4 6/6/6
f 53/53/53 7/7/7 9/9/9
f 14/14/14 10/10/10 12/12/12
f 50/50/50 13/13/13 12/12/12
f 49/49/49 15/15/15 16/16/16
f 62/62/62 17/17/17 19/19/19
f 55/55/55 20/20/20 22/22/22
f 5/5/5 23/23/23 6/6/6
f 10/10/10 25/25/25 11/11/11
f 33/33/33 27/27/27 29/29/29
f 54/54/54 30/30/30 32/32/32
f 35/35/35 27/27/27 34/34/34
f 56/56/56 35/35/35 36/36/36
f 45/45/45 37/37/37 39/39/39
f 23/23/23 40/40/40 24/24/24
f 46/46/46 42/42/42 44/44/44
f 21/21/21 20/20/20 45/45/45
f 51/51/51 42/42/42 47/47/47
f 58/58/58 48/48/48 49/49/49
f 41/41/41 40/40/40 50/50/50
f 19/19/19 18/18/18 47/47/47
f 28/28/28 52/52/52 29/29/29
f 39/39/39 38/38/38 9/9/9
f 1/1/1 30/30/30 2/2/2
f 25/25/25 55/55/55 26/26/26
f 64/64/64 56/56/56 57/57/57
f 60/60/60 48/48/48 59/59/59
f 63/63/63 60/60/60 61/61/61
f 32/32/32 31/31/31 62/62/62
f 44/44/44 43/43/43 61/61/61
f 66/66/66 64/64/64 65/65/65
