v -1.726876 3.906151 -3.216943
v -1.715656 3.912296 -3.214711
v -1.713640 3.912296 -3.221356
v -1.647782 3.906151 -3.174666
v -1.655872 3.912296 -3.182756
v -1.661239 3.912296 -3.178351
v -1.680917 3.906151 -3.254661
v -1.680917 3.912296 -3.243221
v -1.674007 3.912296 -3.242540
v -1.634958 3.906151 -3.216943
v -1.646178 3.912296 -3.214711
v -1.645498 3.912296 -3.207801
v -1.634058 3.906151 -3.207801
v -1.646178 3.912296 -3.200891
v -1.654883 3.906151 -3.168839
v -1.667363 3.912296 -3.175078
v -1.719880 3.906151 -3.181767
v -1.710367 3.912296 -3.188123
v -1.713640 3.912296 -3.194247
v -1.641955 3.906151 -3.233835
v -1.647782 3.906151 -3.240936
v -1.655872 3.912296 -3.232847
v -1.641955 3.906151 -3.181767
v -1.651467 3.912296 -3.188123
v -1.637625 3.906151 -3.225734
v -1.648194 3.912296 -3.221356
v -1.719880 3.906151 -3.233835
v -1.710367 3.912296 -3.227479
v -1.705963 3.912296 -3.232847
v -1.727777 3.906151 -3.207801
v -1.726876 3.906151 -3.198659
v -1.715656 3.912296 -3.200891
v -1.706951 3.906151 -3.246764
v -1.714052 3.906151 -3.240936
v -1.698850 3.906151 -3.251094
v -1.700595 3.912296 -3.237252
v -1.662985 3.906151 -3.251094
v -1.667363 3.912296 -3.240525
v -1.661239 3.912296 -3.237252
v -1.637625 3.906151 -3.189869
v -1.648194 3.912296 -3.194247
v -1.698850 3.906151 -3.164509
v -1.694472 3.912296 -3.175078
v -1.700595 3.912296 -3.178351
v -1.654883 3.906151 -3.246764
v -1.714052 3.906151 -3.174667
v -1.706951 3.906151 -3.168839
v -1.671775 3.906151 -3.161842
v -1.662985 3.906151 -3.164509
v -1.634958 3.906151 -3.198659
v -1.705963 3.912296 -3.182756
v -1.724210 3.906151 -3.225734
v -1.671775 3.906151 -3.253761
v -1.667363 3.912296 -3.240525
v -1.716337 3.912296 -3.207801
v -1.651467 3.912296 -3.227479
v -1.694472 3.912296 -3.240525
v -1.687827 3.912296 -3.242540
v -1.680917 3.906151 -3.160942
v -1.674007 3.912296 -3.173062
v -1.680917 3.912296 -3.172382
v -1.687827 3.912296 -3.173062
v -1.724210 3.906151 -3.189869
v -1.690059 3.906151 -3.161842
v -1.690059 3.906151 -3.253761
v -1.662985 3.906151 -3.251094
vn -0.464100 0.880900 -0.092300
vn -0.464100 0.880900 -0.092300
vn -0.437100 0.880900 -0.181100
vn 0.334600 0.880900 0.334600
vn 0.334500 0.880900 0.334600
vn 0.262900 0.880900 0.393400
vn 0.000000 0.880900 -0.473200
vn 0.000000 0.880900 -0.473200
vn 0.092300 0.880900 -0.464100
vn 0.464100 0.880900 -0.092300
vn 0.464100 0.880900 -0.092300
vn 0.473200 0.880900 0.000000
vn 0.473200 0.880900 0.000000
vn 0.464100 0.880900 0.092300
vn 0.262900 0.880900 0.393400
vn 0.181100 0.880900 0.437100
vn -0.393400 0.880900 0.262900
vn -0.393400 0.880900 0.262900
vn -0.437100 0.880900 0.181100
vn 0.393400 0.880900 -0.262900
vn 0.334600 0.880900 -0.334600
vn 0.334600 0.880900 -0.334600
vn 0.393400 0.880900 0.262900
vn 0.393400 0.880900 0.262900
vn 0.437100 0.880900 -0.181100
vn 0.437100 0.880900 -0.181100
vn -0.393400 0.880900 -0.262900
vn -0.393400 0.880900 -0.262900
vn -0.334600 0.880900 -0.334600
vn -0.473200 0.880900 0.000000
vn -0.464100 0.880900 0.092300
vn -0.464100 0.880900 0.092300
vn -0.262900 0.880900 -0.393400
vn -0.334600 0.880900 -0.334600
vn -0.181100 0.880900 -0.437100
vn -0.262900 0.880900 -0.393400
vn 0.181100 0.880900 -0.437100
vn 0.181100 0.880900 -0.437200
vn 0.262900 0.880900 -0.393400
vn 0.437100 0.880900 0.181000
vn 0.437100 0.880900 0.181000
vn -0.181100 0.880900 0.437200
vn -0.181100 0.880900 0.437200
vn -0.262900 0.880900 0.393400
vn 0.262900 0.880900 -0.393400
vn -0.334600 0.880900 0.334600
vn -0.262900 0.880900 0.393400
vn 0.092300 0.880900 0.464100
vn 0.181100 0.880900 0.437100
vn 0.464100 0.880900 0.092300
vn -0.334600 0.880900 0.334600
vn -0.437100 0.880900 -0.181000
vn 0.092300 0.880900 -0.464100
vn 0.181100 0.880900 -0.437200
vn -0.473200 0.880900 0.000000
vn 0.393400 0.880900 -0.262900
vn -0.181100 0.880900 -0.437200
vn -0.092300 0.880900 -0.464100
vn 0.000000 0.880900 0.473200
vn 0.092300 0.880900 0.464100
vn 0.000000 0.880900 0.473200
vn -0.092300 0.880900 0.464100
vn -0.437100 0.880900 0.181100
vn -0.092300 0.880900 0.464100
vn -0.092300 0.881000 -0.464000
vn 0.181100 0.880900 -0.437100
vt 0.334554 0.507799
vt 0.357792 0.510796
vt 0.337949 0.512477
vt 0.658662 0.507163
vt 0.636332 0.510315
vt 0.616117 0.508760
vt 0.134434 0.521118
vt 0.186826 0.520863
vt 0.130542 0.521470
vt 0.781793 0.517858
vt 0.740192 0.518399
vt 0.717237 0.516955
vt 0.753916 0.515947
vt 0.696187 0.515362
vt 0.635359 0.505105
vt 0.595433 0.507370
vt 0.430864 0.500834
vt 0.441069 0.505531
vt 0.419487 0.506519
vt 0.852552 0.520805
vt 0.900426 0.521728
vt 0.850010 0.521324
vt 0.681680 0.509362
vt 0.656227 0.511977
vt 0.813902 0.519498
vt 0.766849 0.519639
vt 0.288280 0.512277
vt 0.318081 0.514181
vt 0.297751 0.515842
vt 0.357739 0.505691
vt 0.381415 0.503780
vt 0.398430 0.507758
vt 0.238216 0.516533
vt 0.264126 0.514475
vt 0.209293 0.518372
vt 0.276269 0.517398
vt 1.022756 0.522297
vt 1.039669 0.521754
vt 0.929556 0.521705
vt 0.704816 0.511616
vt 0.676051 0.513681
vt 0.509342 0.499342
vt 0.507937 0.504404
vt 0.485455 0.504453
vt 0.958617 0.522232
vt 0.456631 0.499911
vt 0.482884 0.499407
vt 0.586926 0.501719
vt 0.611497 0.503267
vt 0.728632 0.513840
vt 0.463104 0.504834
vt 0.311550 0.510023
vt 0.083472 0.521921
vt 0.039669 0.521754
vt 0.377894 0.509203
vt 0.800820 0.520627
vt 0.252465 0.518787
vt 0.224159 0.519957
vt 0.561621 0.500521
vt 0.574219 0.506200
vt 0.552493 0.505294
vt 0.530348 0.504688
vt 0.405770 0.502140
vt 0.535687 0.499718
vt 0.175530 0.519920
vt 0.022756 0.522297
f 1/1/1 2/2/2 3/3/3
f 4/4/4 5/5/5 6/6/6
f 7/7/7 8/8/8 9/9/9
f 10/10/10 11/11/11 12/12/12
f 13/13/13 12/12/12 14/14/14
f 15/15/15 6/6/6 16/16/16
f 17/17/17 18/18/18 19/19/19
f 20/20/20 21/21/21 22/22/22
f 4/4/4 23/23/23 24/24/24
f 10/10/10 25/25/25 26/26/26
f 27/27/27 28/28/28 29/29/29
f 30/30/30 31/31/31 32/32/32
f 33/33/33 34/34/34 29/29/29
f 35/35/35 33/33/33 36/36/36
f 37/37/37 38/38/38 39/39/39
f 23/23/23 40/40/40 41/41/41
f 42/42/42 43/43/43 44/44/44
f 45/45/45 39/39/39 22/22/22
f 46/46/46 47/47/47 44/44/44
f 48/48/48 49/49/49 16/16/16
f 40/40/40 50/50/50 14/14/14
f 46/46/46 51/51/51 18/18/18
f 52/52/52 3/3/3 28/28/28
f 53/53/53 9/9/9 54/54/54
f 30/30/30 55/55/55 2/2/2
f 25/25/25 20/20/20 56/56/56
f 35/35/35 57/57/57 58/58/58
f 59/59/59 48/48/48 60/60/60
f 59/59/59 61/61/61 62/62/62
f 63/63/63 19/19/19 32/32/32
f 42/42/42 64/64/64 62/62/62
f 7/7/7 65/65/65 58/58/58
f 52/52/52 1/1/1 3/3/3
f 15/15/15 4/4/4 6/6/6
f 53/53/53 7/7/7 9/9/9
f 13/13/13 10/10/10 12/12/12
f 50/50/50 13/13/13 14/14/14
f 49/49/49 15/15/15 16/16/16
f 63/63/63 17/17/17 19/19/19
f 56/56/56 20/20/20 22/22/22
f 5/5/5 4/4/4 24/24/24
f 11/11/11 10/10/10 26/26/26
f 34/34/34 27/27/27 29/29/29
f 55/55/55 30/30/30 32/32/32
f 36/36/36 33/33/33 29/29/29
f 57/57/57 35/35/35 36/36/36
f 45/45/45 37/37/37 39/39/39
f 24/24/24 23/23/23 41/41/41
f 47/47/47 42/42/42 44/44/44
f 21/21/21 45/45/45 22/22/22
f 51/51/51 46/46/46 44/44/44
f 60/60/60 48/48/48 16/16/16
f 41/41/41 40/40/40 14/14/14
f 17/17/17 46/46/46 18/18/18
f 27/27/27 52/52/52 28/28/28
f 66/66/66 53/53/53 54/54/54
f 1/1/1 30/30/30 2/2/2
f 26/26/26 25/25/25 56/56/56
f 65/65/65 35/35/35 58/58/58
f 61/61/61 59/59/59 60/60/60
f 64/64/64 59/59/59 62/62/62
f 31/31/31 63/63/63 32/32/32
f 43/43/43 42/42/42 62/62/62
f 8/8/8 7/7/7 58/58/58
