v 0.526841 1.497602 -3.209340
v 2.495326 1.497602 -3.209340
v 2.495326 1.743575 -3.209340
v -0.781453 2.675332 -3.209751
v 0.526841 1.497602 -3.209751
v 0.526841 1.497602 -3.209340
v 0.526841 1.743575 -3.209340
v 0.526841 1.743575 -3.209340
v 0.526841 1.792034 -3.209340
v -2.089746 3.264197 -3.209751
v 0.526841 1.792034 -3.209751
v -1.653648 3.510171 -3.209751
v -1.653648 3.558630 -3.209751
v -2.089746 3.558630 -3.209751
v 0.090743 2.086467 -3.209751
v 0.526841 2.038008 -3.209751
v 0.526841 2.086467 -3.209751
v -1.653648 3.264197 -3.209751
v -1.217550 3.215738 -3.209751
v -1.217550 3.264197 -3.209751
v -0.345355 2.380899 -3.209751
v 0.090743 2.332440 -3.209751
v 0.090743 2.380899 -3.209751
v -1.217550 2.969765 -3.209751
v -0.781453 2.917531 -3.209751
v -0.781453 2.969765 -3.209751
v -0.345355 2.626873 -3.209751
v -0.345355 2.675332 -3.209751
v 0.526841 1.497602 -3.209340
v -0.781453 2.675332 -3.209751
v 0.526841 1.497602 -3.209751
v 0.526841 1.497602 -3.209340
v 0.526841 1.792034 -3.209340
v 0.526841 1.792034 -3.209751
v 0.526841 1.497602 -3.209340
v 0.526841 1.792034 -3.209751
v 0.526841 1.497602 -3.209340
v -0.781453 2.675332 -3.209751
v -0.781453 2.675332 -3.209751
v -0.781453 2.675332 -3.209751
v -0.781453 2.675332 -3.209751
v 0.526841 1.497602 -3.209340
v -0.781453 2.675332 -3.209751
vn 0.000268 0.000397 1.000000
vn 0.000000 0.000000 1.000000
vn 0.000000 0.000000 1.000000
vn -0.669048 -0.743219 0.000000
vn -0.669048 -0.743219 0.000000
vn -0.669048 -0.743219 0.000000
vn 0.000000 0.000000 1.000000
vn 0.000000 1.000000 0.000000
vn 0.000000 1.000000 0.000000
vn 0.000000 0.000000 1.000000
vn -1.000000 0.000000 0.000000
vn 0.000000 0.000000 1.000000
vn 0.000000 0.000000 1.000000
vn 0.000000 0.000000 1.000000
vn 0.000491 0.000728 1.000000
vn 0.000000 0.000000 1.000000
vn 0.000000 0.000000 1.000000
vn 0.000000 0.000000 1.000000
vn 0.000000 0.000000 1.000000
vn 0.000000 0.000000 1.000000
vn 0.000491 0.000728 1.000000
vn 0.000000 0.000000 1.000000
vn 0.000000 0.000000 1.000000
vn 0.000000 0.000000 1.000000
vn 0.000000 0.000000 1.000000
vn 0.000000 0.000000 1.000000
vn 0.000000 0.000000 1.000000
vn 0.000000 0.000000 1.000000
vn 0.000000 1.000000 0.000000
vn 0.000000 0.000000 1.000000
vn 0.000000 0.000000 1.000000
vn -1.000000 0.000000 0.000000
vn -1.000000 0.000000 0.000000
vn 0.000000 -0.000000 1.000000
vn 0.000942 0.001395 0.999999
vn 0.000942 0.001395 0.999999
vn 0.000942 0.001395 0.999999
vn -0.000000 0.000000 1.000000
vn 0.000000 -0.000000 1.000000
vn 0.000000 -0.000000 1.000000
vn 0.000000 0.000000 1.000000
vn 0.000942 0.001395 0.999999
vn 0.000942 0.001395 0.999999
vt 0.813917 0.061221
vt 0.813917 0.945026
vt 0.672687 0.945026
vt 0.543470 0.548801
vt 0.313216 0.085254
vt 0.316021 0.084136
vt 0.672688 0.061222
vt 0.432025 0.106083
vt 0.548029 0.128031
vt 0.309708 0.924555
vt 0.545224 0.129150
vt 0.658304 0.850515
vt 0.774308 0.872462
vt 0.541715 0.968450
vt 0.544640 0.269033
vt 0.661228 0.151097
vt 0.777231 0.173045
vt 0.542300 0.828567
vt 0.658890 0.710631
vt 0.774894 0.732578
vt 0.544055 0.408917
vt 0.660644 0.290981
vt 0.776647 0.312928
vt 0.542885 0.688683
vt 0.659472 0.570749
vt 0.775474 0.592696
vt 0.660060 0.430865
vt 0.776065 0.452813
vt 0.316021 0.084136
vt 0.543470 0.548801
vt 0.313216 0.085254
vt 0.316021 0.084136
vt 0.548029 0.128031
vt 0.545224 0.129150
vt 0.316021 0.084136
vt 0.545224 0.129150
vt 0.316021 0.084136
vt 0.543470 0.548801
vt 0.543470 0.548801
vt 0.543470 0.548801
vt 0.543470 0.548801
vt 0.316021 0.084136
vt 0.543470 0.548801
f 1/1/1 2/2/2 3/3/3
f 4/4/4 5/5/5 6/6/6
f 7/7/7 1/1/1 3/3/3
f 29/29/29 8/8/8 9/9/9
f 30/30/30 10/10/10 31/31/31
f 32/32/32 33/33/33 11/11/11
f 12/12/12 13/13/13 14/14/14
f 15/15/15 16/16/16 17/17/17
f 10/10/10 12/12/12 14/14/14
f 34/34/34 16/16/16 15/15/15
f 18/18/18 12/12/12 10/10/10
f 35/35/35 36/36/36 15/15/15
f 19/19/19 20/20/20 18/18/18
f 21/21/21 22/22/22 23/23/23
f 24/24/24 19/19/19 18/18/18
f 15/15/15 22/22/22 21/21/21
f 24/24/24 18/18/18 10/10/10
f 37/37/37 15/15/15 21/21/21
f 25/25/25 26/26/26 24/24/24
f 38/38/38 27/27/27 28/28/28
f 39/39/39 25/25/25 24/24/24
f 21/21/21 27/27/27 40/40/40
f 41/41/41 24/24/24 10/10/10
f 42/42/42 21/21/21 43/43/43
