v 0.526600 3.205830 -3.159000
v 0.536223 3.205830 -3.159948
v 0.535433 3.211171 -3.163918
v 0.526600 3.211171 -3.163048
v 0.517768 3.211171 -3.163918
v 0.478226 3.205830 -3.198701
v 0.481032 3.205830 -3.189448
v 0.484772 3.211171 -3.190997
v 0.516978 3.205830 -3.159948
v 0.517768 3.211171 -3.163918
v 0.509275 3.211171 -3.166494
v 0.526600 3.205830 -3.257646
v 0.516978 3.205830 -3.256698
v 0.517768 3.211171 -3.252728
v 0.478226 3.205830 -3.217945
v 0.482196 3.211171 -3.217156
v 0.484772 3.211171 -3.225649
v 0.554003 3.205830 -3.167313
v 0.561477 3.205830 -3.173447
v 0.558615 3.211171 -3.176309
v 0.526600 3.211171 -3.253598
v 0.535433 3.211171 -3.252728
v 0.574975 3.205830 -3.217945
v 0.571005 3.211171 -3.217156
v 0.571875 3.211171 -3.208323
v 0.574975 3.205830 -3.198701
v 0.575923 3.205830 -3.208323
v 0.545475 3.205830 -3.162755
v 0.551754 3.211171 -3.170678
v 0.485590 3.205830 -3.180921
v 0.488956 3.211171 -3.183170
v 0.561477 3.205830 -3.243199
v 0.558615 3.211171 -3.240337
v 0.564245 3.211171 -3.233476
v 0.567611 3.205830 -3.180921
v 0.564245 3.211171 -3.183170
v 0.572169 3.205830 -3.227198
v 0.568429 3.211171 -3.225649
v 0.491724 3.205830 -3.243199
v 0.485590 3.205830 -3.235725
v 0.488956 3.211171 -3.233476
v 0.477278 3.205830 -3.208323
v 0.482196 3.211171 -3.199490
v 0.494586 3.211171 -3.240337
v 0.501447 3.211171 -3.245968
v 0.507726 3.205830 -3.253891
v 0.499198 3.205830 -3.249333
v 0.545475 3.205830 -3.253891
v 0.543926 3.211171 -3.250151
v 0.551754 3.211171 -3.245968
v 0.572169 3.205830 -3.189448
v 0.568429 3.211171 -3.190997
v 0.499198 3.205830 -3.167313
v 0.507726 3.205830 -3.162755
v 0.554003 3.205830 -3.249333
v 0.491724 3.205830 -3.173447
v 0.501447 3.211171 -3.170678
v 0.543926 3.211171 -3.166494
v 0.571005 3.211171 -3.199490
v 0.494586 3.211171 -3.176309
v 0.481032 3.205830 -3.227198
v 0.536223 3.205830 -3.256698
v 0.481326 3.211171 -3.208323
v 0.567611 3.205830 -3.235725
v 0.509275 3.211171 -3.250151
v 0.517768 3.211171 -3.252728
v 0.509430 3.214092 -3.249777
v 0.517847 3.214092 -3.252331
v 0.535354 3.214092 -3.164315
v 0.526600 3.214092 -3.163453
v 0.485146 3.214092 -3.191152
v 0.482593 3.214092 -3.199569
v 0.517847 3.214092 -3.164315
v 0.517847 3.214092 -3.252331
v 0.526600 3.214092 -3.253193
v 0.482593 3.214092 -3.217077
v 0.558328 3.214092 -3.176595
v 0.551529 3.214092 -3.171015
v 0.570608 3.214092 -3.217077
v 0.571470 3.214092 -3.208323
v 0.489293 3.214092 -3.183395
v 0.558328 3.214092 -3.240051
v 0.563908 3.214092 -3.233251
v 0.563908 3.214092 -3.183395
v 0.568055 3.214092 -3.225494
v 0.489293 3.214092 -3.233251
v 0.481731 3.214092 -3.208323
v 0.494873 3.214092 -3.240051
v 0.501672 3.214092 -3.245631
v 0.543771 3.214092 -3.249777
v 0.551529 3.214092 -3.245631
v 0.568055 3.214092 -3.191152
v 0.509430 3.214092 -3.166869
v 0.501672 3.214092 -3.171015
v 0.543771 3.214092 -3.166869
v 0.570608 3.214092 -3.199569
v 0.494873 3.214092 -3.176595
v 0.485146 3.214092 -3.225494
v 0.535354 3.214092 -3.252331
v 0.516978 3.205830 -3.159948
v 0.516978 3.205830 -3.256698
v 0.517847 3.214092 -3.164315
vn 0.000000 0.603900 0.797000
vn 0.155500 0.603900 0.781700
vn 0.179700 0.388800 0.903600
vn 0.000000 0.388800 0.921300
vn -0.179700 0.388800 0.903600
vn -0.781700 0.604000 0.155500
vn -0.736400 0.603900 0.305000
vn -0.851200 0.388700 0.352600
vn -0.155500 0.604000 0.781700
vn -0.179700 0.388800 0.903600
vn -0.352600 0.388800 0.851200
vn 0.000000 0.603900 -0.797000
vn -0.155500 0.603900 -0.781700
vn -0.179700 0.388800 -0.903600
vn -0.781700 0.603900 -0.155500
vn -0.903600 0.388800 -0.179700
vn -0.851200 0.388700 -0.352600
vn 0.442800 0.603900 0.662700
vn 0.563600 0.603900 0.563600
vn 0.651500 0.388700 0.651500
vn 0.000000 0.388700 -0.921300
vn 0.179700 0.388800 -0.903600
vn 0.781700 0.603900 -0.155500
vn 0.903600 0.388800 -0.179800
vn 0.921300 0.388700 0.000000
vn 0.781700 0.603900 0.155500
vn 0.797000 0.603900 0.000000
vn 0.305000 0.603900 0.736400
vn 0.511800 0.388800 0.766000
vn -0.662700 0.603900 0.442800
vn -0.766000 0.388700 0.511900
vn 0.563600 0.603900 -0.563600
vn 0.651500 0.388800 -0.651400
vn 0.766000 0.388700 -0.511800
vn 0.662700 0.603900 0.442800
vn 0.766000 0.388800 0.511800
vn 0.736400 0.603900 -0.305000
vn 0.851200 0.388700 -0.352600
vn -0.563600 0.603900 -0.563600
vn -0.662700 0.603900 -0.442800
vn -0.766000 0.388700 -0.511900
vn -0.797000 0.603900 0.000000
vn -0.903600 0.388700 0.179700
vn -0.651400 0.388800 -0.651500
vn -0.511900 0.388800 -0.766000
vn -0.305000 0.603900 -0.736300
vn -0.442800 0.604000 -0.662600
vn 0.305000 0.603900 -0.736300
vn 0.352600 0.388800 -0.851200
vn 0.511900 0.388800 -0.766000
vn 0.736400 0.603900 0.305000
vn 0.851200 0.388800 0.352600
vn -0.442800 0.604000 0.662700
vn -0.305000 0.603900 0.736300
vn 0.442800 0.604000 -0.662600
vn -0.563600 0.603900 0.563600
vn -0.511900 0.388800 0.766000
vn 0.352600 0.388800 0.851200
vn 0.903600 0.388700 0.179700
vn -0.651400 0.388700 0.651500
vn -0.736400 0.603900 -0.305000
vn 0.155500 0.604000 -0.781700
vn -0.921300 0.388700 0.000000
vn 0.662700 0.603900 -0.442800
vn -0.352500 0.388800 -0.851200
vn -0.179700 0.388800 -0.903600
vn -0.379000 0.137400 -0.915100
vn -0.193200 0.137400 -0.971500
vn 0.193200 0.137400 0.971500
vn 0.000000 0.137400 0.990500
vn -0.915100 0.137400 0.379100
vn -0.971500 0.137300 0.193200
vn -0.193200 0.137400 0.971500
vn -0.193200 0.137400 -0.971500
vn 0.000000 0.137400 -0.990500
vn -0.971500 0.137400 -0.193200
vn 0.700400 0.137300 0.700400
vn 0.550300 0.137400 0.823600
vn 0.971500 0.137400 -0.193200
vn 0.990500 0.137400 0.000000
vn -0.823600 0.137400 0.550300
vn 0.700400 0.137400 -0.700400
vn 0.823600 0.137400 -0.550300
vn 0.823600 0.137400 0.550300
vn 0.915100 0.137300 -0.379100
vn -0.823600 0.137400 -0.550300
vn -0.990500 0.137400 0.000000
vn -0.700400 0.137400 -0.700400
vn -0.550300 0.137400 -0.823600
vn 0.379000 0.137400 -0.915100
vn 0.550300 0.137400 -0.823600
vn 0.915100 0.137400 0.379100
vn -0.379000 0.137400 0.915100
vn -0.550300 0.137400 0.823600
vn 0.379000 0.137400 0.915100
vn 0.971500 0.137400 0.193200
vn -0.700300 0.137300 0.700500
vn -0.915100 0.137300 -0.379000
vn 0.193200 0.137400 -0.971500
vn -0.155500 0.604000 0.781700
vn -0.155500 0.603900 -0.781700
vn -0.193200 0.137400 0.971500
vt 0.795999 0.865565
vt 0.785084 0.865513
vt 0.786399 0.866762
vt 0.795999 0.866809
vt 0.805599 0.866762
vt 0.039665 0.863412
vt 0.039772 0.863914
vt 0.036074 0.865294
vt 0.010915 0.865513
vt 0.009600 0.866762
vt 0.018337 0.866623
vt 0.795999 0.860217
vt 0.801903 0.860268
vt 0.801495 0.861947
vt 0.035457 0.862369
vt 0.032632 0.863876
vt 0.029416 0.863415
vt 0.767241 0.865114
vt 0.761437 0.864782
vt 0.765065 0.866090
vt 0.795999 0.861900
vt 0.790503 0.861947
vt 0.760542 0.862369
vt 0.763368 0.863876
vt 0.761043 0.864355
vt 0.756334 0.863412
vt 0.757862 0.862891
vt 0.775241 0.865361
vt 0.770438 0.866396
vt 0.038166 0.864376
vt 0.034397 0.865719
vt 0.773359 0.861000
vt 0.774993 0.862619
vt 0.770511 0.862991
vt 0.757833 0.864376
vt 0.761602 0.865719
vt 0.764143 0.861867
vt 0.766583 0.863415
vt 0.022640 0.861000
vt 0.027529 0.861405
vt 0.025488 0.862991
vt 0.038137 0.862891
vt 0.036180 0.864834
vt 0.021006 0.862619
vt 0.016102 0.862314
vt 0.011713 0.860420
vt 0.017328 0.860667
vt 0.784286 0.860420
vt 0.785102 0.862087
vt 0.779897 0.862314
vt 0.756227 0.863914
vt 0.759925 0.865294
vt 0.028758 0.865114
vt 0.020758 0.865361
vt 0.778672 0.860667
vt 0.034562 0.864782
vt 0.025561 0.866396
vt 0.777662 0.866623
vt 0.759819 0.864834
vt 0.030934 0.866090
vt 0.031856 0.861867
vt 0.790095 0.860268
vt 0.034956 0.864355
vt 0.768470 0.861405
vt 0.010897 0.862087
vt 0.005496 0.861947
vt 0.010789 0.862908
vt 0.005442 0.862770
vt 0.786562 0.867541
vt 0.795999 0.867588
vt 0.035598 0.866086
vt 0.035729 0.865630
vt 0.009437 0.867541
vt 0.801442 0.862770
vt 0.795999 0.862723
vt 0.032263 0.864681
vt 0.765525 0.866876
vt 0.770840 0.867178
vt 0.763737 0.864681
vt 0.761457 0.865155
vt 0.033915 0.866507
vt 0.775208 0.863435
vt 0.770779 0.863804
vt 0.762084 0.866507
vt 0.766903 0.864225
vt 0.025220 0.863804
vt 0.034542 0.865155
vt 0.020791 0.863435
vt 0.015941 0.863133
vt 0.785210 0.862908
vt 0.780058 0.863133
vt 0.760401 0.866086
vt 0.018035 0.867403
vt 0.025159 0.867178
vt 0.777964 0.867403
vt 0.760270 0.865630
vt 0.030474 0.866876
vt 0.029096 0.864225
vt 0.790557 0.862770
vt 0.806914 0.865513
vt 0.005904 0.860268
vt 0.805436 0.867541
f 1/1/1 2/2/2 3/3/3
f 1/1/1 4/4/4 5/5/5
f 6/6/6 7/7/7 8/8/8
f 9/9/9 10/10/10 11/11/11
f 12/12/12 13/13/13 14/14/14
f 15/15/15 16/16/16 17/17/17
f 18/18/18 19/19/19 20/20/20
f 12/12/12 21/21/21 22/22/22
f 23/23/23 24/24/24 25/25/25
f 26/26/26 27/27/27 25/25/25
f 28/28/28 18/18/18 29/29/29
f 30/30/30 31/31/31 8/8/8
f 32/32/32 33/33/33 34/34/34
f 19/19/19 35/35/35 36/36/36
f 23/23/23 37/37/37 38/38/38
f 39/39/39 40/40/40 41/41/41
f 42/42/42 6/6/6 43/43/43
f 39/39/39 44/44/44 45/45/45
f 46/46/46 47/47/47 45/45/45
f 48/48/48 49/49/49 50/50/50
f 35/35/35 51/51/51 52/52/52
f 53/53/53 54/54/54 11/11/11
f 32/32/32 55/55/55 50/50/50
f 56/56/56 53/53/53 57/57/57
f 28/28/28 58/58/58 3/3/3
f 51/51/51 26/26/26 59/59/59
f 56/56/56 60/60/60 31/31/31
f 61/61/61 17/17/17 41/41/41
f 48/48/48 62/62/62 22/22/22
f 42/42/42 63/63/63 16/16/16
f 37/37/37 64/64/64 34/34/34
f 46/46/46 65/65/65 66/66/66
f 65/65/65 67/67/67 68/68/68
f 3/3/3 69/69/69 70/70/70
f 5/5/5 4/4/4 70/70/70
f 8/8/8 71/71/71 72/72/72
f 11/11/11 10/10/10 73/73/73
f 14/14/14 74/74/74 75/75/75
f 17/17/17 16/16/16 76/76/76
f 20/20/20 77/77/77 78/78/78
f 22/22/22 21/21/21 75/75/75
f 24/24/24 79/79/79 80/80/80
f 59/59/59 25/25/25 80/80/80
f 58/58/58 29/29/29 78/78/78
f 31/31/31 81/81/81 71/71/71
f 33/33/33 82/82/82 83/83/83
f 36/36/36 84/84/84 77/77/77
f 38/38/38 85/85/85 79/79/79
f 44/44/44 41/41/41 86/86/86
f 43/43/43 72/72/72 87/87/87
f 44/44/44 88/88/88 89/89/89
f 65/65/65 45/45/45 89/89/89
f 49/49/49 90/90/90 91/91/91
f 52/52/52 92/92/92 84/84/84
f 11/11/11 93/93/93 94/94/94
f 50/50/50 91/91/91 82/82/82
f 60/60/60 57/57/57 94/94/94
f 58/58/58 95/95/95 69/69/69
f 52/52/52 59/59/59 96/96/96
f 60/60/60 97/97/97 81/81/81
f 17/17/17 98/98/98 86/86/86
f 22/22/22 99/99/99 90/90/90
f 16/16/16 63/63/63 87/87/87
f 38/38/38 34/34/34 83/83/83
f 4/4/4 1/1/1 3/3/3
f 100/100/100 1/1/1 5/5/5
f 43/43/43 6/6/6 8/8/8
f 54/54/54 9/9/9 11/11/11
f 21/21/21 12/12/12 14/14/14
f 61/61/61 15/15/15 17/17/17
f 29/29/29 18/18/18 20/20/20
f 62/62/62 12/12/12 22/22/22
f 27/27/27 23/23/23 25/25/25
f 59/59/59 26/26/26 25/25/25
f 58/58/58 28/28/28 29/29/29
f 7/7/7 30/30/30 8/8/8
f 64/64/64 32/32/32 34/34/34
f 20/20/20 19/19/19 36/36/36
f 24/24/24 23/23/23 38/38/38
f 44/44/44 39/39/39 41/41/41
f 63/63/63 42/42/42 43/43/43
f 47/47/47 39/39/39 45/45/45
f 65/65/65 46/46/46 45/45/45
f 55/55/55 48/48/48 50/50/50
f 36/36/36 35/35/35 52/52/52
f 57/57/57 53/53/53 11/11/11
f 33/33/33 32/32/32 50/50/50
f 60/60/60 56/56/56 57/57/57
f 2/2/2 28/28/28 3/3/3
f 52/52/52 51/51/51 59/59/59
f 30/30/30 56/56/56 31/31/31
f 40/40/40 61/61/61 41/41/41
f 49/49/49 48/48/48 22/22/22
f 15/15/15 42/42/42 16/16/16
f 38/38/38 37/37/37 34/34/34
f 101/101/101 46/46/46 66/66/66
f 66/66/66 65/65/65 68/68/68
f 4/4/4 3/3/3 70/70/70
f 102/102/102 5/5/5 70/70/70
f 43/43/43 8/8/8 72/72/72
f 93/93/93 11/11/11 73/73/73
f 21/21/21 14/14/14 75/75/75
f 98/98/98 17/17/17 76/76/76
f 29/29/29 20/20/20 78/78/78
f 99/99/99 22/22/22 75/75/75
f 25/25/25 24/24/24 80/80/80
f 96/96/96 59/59/59 80/80/80
f 95/95/95 58/58/58 78/78/78
f 8/8/8 31/31/31 71/71/71
f 34/34/34 33/33/33 83/83/83
f 20/20/20 36/36/36 77/77/77
f 24/24/24 38/38/38 79/79/79
f 88/88/88 44/44/44 86/86/86
f 63/63/63 43/43/43 87/87/87
f 45/45/45 44/44/44 89/89/89
f 67/67/67 65/65/65 89/89/89
f 50/50/50 49/49/49 91/91/91
f 36/36/36 52/52/52 84/84/84
f 57/57/57 11/11/11 94/94/94
f 33/33/33 50/50/50 82/82/82
f 97/97/97 60/60/60 94/94/94
f 3/3/3 58/58/58 69/69/69
f 92/92/92 52/52/52 96/96/96
f 31/31/31 60/60/60 81/81/81
f 41/41/41 17/17/17 86/86/86
f 49/49/49 22/22/22 90/90/90
f 76/76/76 16/16/16 87/87/87
f 85/85/85 38/38/38 83/83/83
