v 0.275955 0.473445 -2.690891
v 0.023658 0.473444 -2.212860
v 0.029785 0.472066 -2.209626
v 0.029785 0.472066 -2.209626
v 0.034980 0.468141 -2.206884
v 0.287277 0.468142 -2.684915
v 0.038451 0.462268 -2.205052
v 0.290748 0.462268 -2.683084
v 0.039670 0.455339 -2.204409
v 0.291967 0.455340 -2.682440
v 0.038451 0.448410 -2.205052
v 0.034980 0.442537 -2.206884
v 0.287277 0.442537 -2.684916
v 0.029785 0.438612 -2.209626
v 0.282082 0.438612 -2.687657
v 0.023658 0.437234 -2.212860
v 0.017530 0.438612 -2.216094
v 0.269827 0.438612 -2.694125
v 0.012336 0.442537 -2.218836
v 0.264633 0.442537 -2.696867
v 0.008865 0.448410 -2.220668
v 0.261162 0.448411 -2.698699
v 0.007646 0.455339 -2.221311
v 0.008865 0.462268 -2.220668
v 0.261162 0.462268 -2.698699
v 0.012336 0.468141 -2.218836
v 0.264633 0.468142 -2.696867
v 0.017530 0.472066 -2.216094
v 0.282082 0.472067 -2.687657
v 0.282082 0.472067 -2.687657
v 0.290748 0.448411 -2.683084
v 0.275955 0.437234 -2.690891
v 0.259943 0.455340 -2.699342
v 0.269827 0.472067 -2.694125
vn 0.000000 1.000000 0.000000
vn 0.000000 1.000000 0.000000
vn 0.338400 0.923900 0.178600
vn 0.338400 0.923900 0.178600
vn 0.625300 0.707100 0.330000
vn 0.625300 0.707100 0.330000
vn 0.817000 0.382700 0.431200
vn 0.817000 0.382700 0.431200
vn 0.884400 0.000000 0.466800
vn 0.884400 0.000000 0.466800
vn 0.817000 -0.382700 0.431200
vn 0.625300 -0.707100 0.330000
vn 0.625300 -0.707100 0.330000
vn 0.338400 -0.923900 0.178600
vn 0.338400 -0.923900 0.178600
vn 0.000000 -1.000000 0.000000
vn -0.338400 -0.923900 -0.178600
vn -0.338400 -0.923900 -0.178600
vn -0.625300 -0.707100 -0.330000
vn -0.625300 -0.707100 -0.330000
vn -0.817000 -0.382700 -0.431200
vn -0.817000 -0.382700 -0.431200
vn -0.884400 0.000000 -0.466800
vn -0.817000 0.382700 -0.431200
vn -0.817000 0.382700 -0.431200
vn -0.625300 0.707100 -0.330000
vn -0.625300 0.707100 -0.330000
vn -0.338400 0.923900 -0.178600
vn 0.338400 0.923900 0.178600
vn 0.338400 0.923900 0.178600
vn 0.817000 -0.382700 0.431200
vn 0.000000 -1.000000 0.000000
vn -0.884400 0.000000 -0.466800
vn -0.338400 0.923900 -0.178600
vt -0.005692 0.866852
vt 0.999202 0.867576
vt 0.999257 0.904273
vt 0.998385 0.317129
vt 0.998439 0.353826
vt -0.006446 0.353106
vt 0.998493 0.390522
vt -0.006392 0.389802
vt 0.998547 0.427219
vt -0.006337 0.426498
vt 0.998602 0.463915
vt 0.998656 0.500611
vt -0.006229 0.499891
vt 0.998710 0.537308
vt -0.006175 0.536587
vt 0.998765 0.574004
vt 0.998819 0.610700
vt -0.006068 0.609979
vt 0.998874 0.647397
vt -0.006014 0.646675
vt 0.998928 0.684093
vt -0.005960 0.683371
vt 0.998983 0.720790
vt 0.999038 0.757486
vt -0.005853 0.756763
vt 0.999092 0.794183
vt -0.005799 0.793459
vt 0.999147 0.830879
vt -0.005638 0.903548
vt -0.006500 0.316409
vt -0.006284 0.463194
vt -0.006122 0.573283
vt -0.005906 0.720067
vt -0.005745 0.830156
f 1/1/1 2/2/2 3/3/3
f 4/4/4 5/5/5 6/6/6
f 6/6/6 5/5/5 7/7/7
f 8/8/8 7/7/7 9/9/9
f 10/10/10 9/9/9 11/11/11
f 11/11/11 12/12/12 13/13/13
f 13/13/13 12/12/12 14/14/14
f 15/15/15 14/14/14 16/16/16
f 16/16/16 17/17/17 18/18/18
f 17/17/17 19/19/19 20/20/20
f 19/19/19 21/21/21 22/22/22
f 22/22/22 21/21/21 23/23/23
f 23/23/23 24/24/24 25/25/25
f 25/25/25 24/24/24 26/26/26
f 27/27/27 26/26/26 28/28/28
f 28/28/28 2/2/2 1/1/1
f 29/29/29 1/1/1 3/3/3
f 30/30/30 4/4/4 6/6/6
f 8/8/8 6/6/6 7/7/7
f 10/10/10 8/8/8 9/9/9
f 31/31/31 10/10/10 11/11/11
f 31/31/31 11/11/11 13/13/13
f 15/15/15 13/13/13 14/14/14
f 32/32/32 15/15/15 16/16/16
f 32/32/32 16/16/16 18/18/18
f 18/18/18 17/17/17 20/20/20
f 20/20/20 19/19/19 22/22/22
f 33/33/33 22/22/22 23/23/23
f 33/33/33 23/23/23 25/25/25
f 27/27/27 25/25/25 26/26/26
f 34/34/34 27/27/27 28/28/28
f 34/34/34 28/28/28 1/1/1
