v -1.724169 0.025438 -3.132020
v -1.724169 3.780105 -3.132020
v -1.731552 3.777247 -3.132020
v -1.695991 3.785817 -3.132020
v -1.695991 0.025438 -3.132020
v -1.680917 0.025438 -3.132020
v -1.712307 3.783198 -3.132020
v -1.712307 0.025438 -3.132020
v -1.724169 3.780105 -3.132020
v -1.724169 0.025438 -3.132020
v -1.750247 3.767508 -3.132020
v -1.750247 0.025438 -3.132020
v -1.731552 0.025438 -3.132020
v -1.756698 3.762348 -3.132020
v -1.756698 0.025438 -3.132020
v -1.611588 0.025438 -3.132020
v -1.605136 0.025438 -3.132020
v -1.605136 3.762348 -3.132020
v -1.630282 0.025438 -3.132020
v -1.611588 3.767508 -3.132020
v -1.637666 0.025438 -3.132020
v -1.630282 3.777247 -3.132020
v -1.649528 0.025438 -3.132020
v -1.637666 3.780105 -3.132020
v -1.665843 0.025438 -3.132020
v -1.649528 3.783198 -3.132020
v -1.665843 3.785817 -3.132020
v -1.680917 3.786634 -3.132020
vn 0.000000 0.000000 1.000000
vn 0.000000 0.000000 1.000000
vn 0.000000 0.000000 1.000000
vn 0.000000 0.000000 1.000000
vn 0.000000 0.000000 1.000000
vn 0.000000 0.000000 1.000000
vn 0.000000 0.000000 1.000000
vn 0.000000 0.000000 1.000000
vn 0.000000 0.000000 1.000000
vn 0.000000 0.000000 1.000000
vn 0.000000 0.000000 1.000000
vn 0.000000 0.000000 1.000000
vn 0.000000 0.000000 1.000000
vn 0.000000 0.000000 1.000000
vn 0.000000 0.000000 1.000000
vn 0.000000 0.000000 1.000000
vn 0.000000 0.000000 1.000000
vn 0.000000 0.000000 1.000000
vn 0.000000 0.000000 1.000000
vn 0.000000 0.000000 1.000000
vn 0.000000 0.000000 1.000000
vn 0.000000 0.000000 1.000000
vn 0.000000 0.000000 1.000000
vn 0.000000 0.000000 1.000000
vn 0.000000 0.000000 1.000000
vn 0.000000 0.000000 1.000000
vn 0.000000 0.000000 1.000000
vn 0.000000 0.000000 1.000000
vt 0.000383 0.000993
vt 0.459108 0.443082
vt 0.416474 0.441223
vt 0.667782 0.448266
vt 0.998434 0.004076
vt 0.997399 0.005726
vt 0.553926 0.445518
vt 0.999560 0.002291
vt 1.459108 0.443082
vt 1.000383 0.000993
vt 0.353336 0.435596
vt 0.002205 -0.001861
vt 0.000898 0.000185
vt 0.337920 0.432993
vt 0.002659 -0.002567
vt 0.992715 0.013313
vt 0.992285 0.014019
vt 0.803059 0.449579
vt 0.993966 0.011267
vt 0.798179 0.450771
vt 0.994462 0.010459
vt 0.784832 0.452306
vt 0.995263 0.009161
vt 0.778814 0.452549
vt 0.996370 0.007376
vt 0.768324 0.452388
vt 0.748831 0.451566
vt 0.720250 0.450217
f 1/1/1 2/2/2 3/3/3
f 4/4/4 5/5/5 6/6/6
f 7/7/7 8/8/8 5/5/5
f 9/9/9 10/10/10 8/8/8
f 11/11/11 12/12/12 13/13/13
f 14/14/14 15/15/15 12/12/12
f 16/16/16 17/17/17 18/18/18
f 19/19/19 16/16/16 20/20/20
f 21/21/21 19/19/19 22/22/22
f 23/23/23 21/21/21 24/24/24
f 25/25/25 23/23/23 26/26/26
f 6/6/6 25/25/25 27/27/27
f 13/13/13 1/1/1 3/3/3
f 28/28/28 4/4/4 6/6/6
f 4/4/4 7/7/7 5/5/5
f 7/7/7 9/9/9 8/8/8
f 3/3/3 11/11/11 13/13/13
f 11/11/11 14/14/14 12/12/12
f 20/20/20 16/16/16 18/18/18
f 22/22/22 19/19/19 20/20/20
f 24/24/24 21/21/21 22/22/22
f 26/26/26 23/23/23 24/24/24
f 27/27/27 25/25/25 26/26/26
f 28/28/28 6/6/6 27/27/27
