v 0.575158 2.324916 -3.198664
v 0.576110 2.324916 -3.208323
v 0.575258 2.326099 -3.208323
v 0.554106 2.324916 -3.167158
v 0.553633 2.326099 -3.167866
v 0.545221 2.326099 -3.163369
v 0.485435 2.324916 -3.180817
v 0.486143 2.326099 -3.181290
v 0.481647 2.326099 -3.189703
v 0.561609 2.324916 -3.243331
v 0.561006 2.326099 -3.242729
v 0.567057 2.326099 -3.235355
v 0.561609 2.324916 -3.173315
v 0.567766 2.324916 -3.180817
v 0.567057 2.326099 -3.181290
v 0.572341 2.324916 -3.227269
v 0.571554 2.326099 -3.226943
v 0.574323 2.326099 -3.217815
v 0.491592 2.324916 -3.243331
v 0.485435 2.324916 -3.235829
v 0.486143 2.326099 -3.235355
v 0.478043 2.324916 -3.198664
v 0.478878 2.326099 -3.198830
v 0.477943 2.326099 -3.208323
v 0.492195 2.326099 -3.242729
v 0.499568 2.326099 -3.248780
v 0.507654 2.324916 -3.254063
v 0.499095 2.324916 -3.249488
v 0.554106 2.324916 -3.249488
v 0.545547 2.324916 -3.254063
v 0.545221 2.326099 -3.253276
v 0.572341 2.324916 -3.189377
v 0.571554 2.326099 -3.189703
v 0.507654 2.324916 -3.162583
v 0.507980 2.326099 -3.163370
v 0.499568 2.326099 -3.167866
v 0.553633 2.326099 -3.248780
v 0.499095 2.324916 -3.167158
v 0.492195 2.326099 -3.173917
v 0.545547 2.324916 -3.162582
v 0.536093 2.326099 -3.160601
v 0.574323 2.326099 -3.198830
v 0.491592 2.324916 -3.173315
v 0.480860 2.324916 -3.227269
v 0.481647 2.326099 -3.226943
v 0.536259 2.324916 -3.256881
v 0.536093 2.326099 -3.256045
v 0.477091 2.324916 -3.208323
v 0.478878 2.326099 -3.217815
v 0.567766 2.324916 -3.235829
v 0.516942 2.324916 -3.256881
v 0.507980 2.326099 -3.253276
v 0.526600 2.324916 -3.158814
v 0.536259 2.324916 -3.159765
v 0.526600 2.326099 -3.159666
v 0.517108 2.326099 -3.160601
v 0.480860 2.324916 -3.189377
v 0.516942 2.324916 -3.159765
v 0.526600 2.324916 -3.257832
v 0.517108 2.326099 -3.256045
v 0.478043 2.324916 -3.217982
v 0.561006 2.326099 -3.173917
v 0.526600 2.324916 -3.257832
v 0.526600 2.326099 -3.256980
v 0.575158 2.324916 -3.217982
v 0.526600 2.326099 -3.256980
vn 0.796000 0.584100 0.158300
vn 0.811600 0.584200 0.000000
vn 0.811600 0.584200 0.000000
vn 0.450900 0.584200 0.674800
vn 0.450900 0.584200 0.674800
vn 0.310600 0.584100 0.749900
vn -0.674800 0.584200 0.450900
vn -0.674800 0.584200 0.450900
vn -0.749800 0.584200 0.310600
vn 0.573900 0.584200 -0.573900
vn 0.573900 0.584200 -0.573900
vn 0.674800 0.584200 -0.450900
vn 0.573900 0.584100 0.574000
vn 0.674800 0.584200 0.450800
vn 0.674800 0.584200 0.450800
vn 0.749900 0.584100 -0.310600
vn 0.749900 0.584100 -0.310600
vn 0.796000 0.584200 -0.158400
vn -0.573900 0.584200 -0.573900
vn -0.674900 0.584200 -0.450900
vn -0.674900 0.584200 -0.450900
vn -0.796000 0.584200 0.158300
vn -0.796000 0.584200 0.158300
vn -0.811600 0.584200 0.000000
vn -0.573900 0.584200 -0.573900
vn -0.450800 0.584100 -0.674900
vn -0.310600 0.584200 -0.749800
vn -0.450800 0.584100 -0.674900
vn 0.450800 0.584100 -0.674900
vn 0.310600 0.584100 -0.749800
vn 0.310600 0.584100 -0.749800
vn 0.749800 0.584200 0.310600
vn 0.749800 0.584200 0.310600
vn -0.310600 0.584200 0.749800
vn -0.310600 0.584200 0.749800
vn -0.450900 0.584200 0.674800
vn 0.450800 0.584100 -0.674900
vn -0.450900 0.584200 0.674800
vn -0.573900 0.584200 0.573800
vn 0.310600 0.584100 0.749900
vn 0.158300 0.584100 0.796000
vn 0.796000 0.584100 0.158300
vn -0.574000 0.584200 0.573800
vn -0.749800 0.584200 -0.310600
vn -0.749800 0.584200 -0.310600
vn 0.158300 0.584200 -0.796000
vn 0.158300 0.584200 -0.796000
vn -0.811600 0.584200 0.000000
vn -0.796000 0.584200 -0.158300
vn 0.674800 0.584200 -0.450900
vn -0.158300 0.584100 -0.796100
vn -0.310600 0.584200 -0.749800
vn 0.000000 0.584200 0.811600
vn 0.158300 0.584100 0.796000
vn 0.000000 0.584100 0.811600
vn -0.158300 0.584100 0.796100
vn -0.749800 0.584200 0.310600
vn -0.158300 0.584100 0.796100
vn 0.000000 0.584200 -0.811600
vn -0.158300 0.584100 -0.796100
vn -0.796000 0.584200 -0.158300
vn 0.573900 0.584100 0.574000
vn 0.000000 0.584200 -0.811600
vn 0.000000 0.584200 -0.811600
vn 0.796000 0.584200 -0.158400
vn 0.000000 0.584200 -0.811600
vt 0.544083 0.621975
vt 0.566692 0.621451
vt 0.566746 0.621776
vt 0.459180 0.623683
vt 0.459202 0.623969
vt 0.438704 0.624213
vt 0.295173 0.622943
vt 0.295137 0.623241
vt 0.273771 0.622785
vt 0.668770 0.619553
vt 0.668827 0.619910
vt 0.641077 0.620310
vt 0.479862 0.623349
vt 0.500826 0.622943
vt 0.500862 0.623241
vt 0.614912 0.620424
vt 0.614973 0.620766
vt 0.590280 0.621261
vt 0.127229 0.619553
vt 0.154982 0.619960
vt 0.154922 0.620310
vt 0.251916 0.621975
vt 0.251868 0.622290
vt 0.229253 0.621776
vt 0.127172 0.619910
vt 0.097630 0.619582
vt 0.066367 0.618971
vt 0.097680 0.619220
vt 0.698319 0.619220
vt 0.729632 0.618971
vt 0.729669 0.619339
vt 0.522186 0.622478
vt 0.522228 0.622785
vt 0.357310 0.623931
vt 0.357295 0.624213
vt 0.336797 0.623969
vt 0.698369 0.619582
vt 0.336819 0.623683
vt 0.316108 0.623641
vt 0.438689 0.623931
vt 0.418324 0.624363
vt 0.544131 0.622290
vt 0.316137 0.623349
vt 0.181087 0.620424
vt 0.181027 0.620766
vt 0.762399 0.618819
vt 0.762419 0.619188
vt 0.229307 0.621451
vt 0.205719 0.621261
vt 0.641017 0.619960
vt 0.033600 0.618819
vt 0.066330 0.619339
vt 0.397999 0.624135
vt 0.418317 0.624084
vt 0.397999 0.624414
vt 0.377675 0.624363
vt 0.273814 0.622478
vt 0.377683 0.624084
vt 0.000000 0.618767
vt 0.033580 0.619188
vt 0.205777 0.620928
vt 0.479891 0.623641
vt 0.795999 0.618767
vt 0.795999 0.619138
vt 0.590222 0.620928
vt 0.000000 0.619138
f 1/1/1 2/2/2 3/3/3
f 4/4/4 5/5/5 6/6/6
f 7/7/7 8/8/8 9/9/9
f 10/10/10 11/11/11 12/12/12
f 13/13/13 14/14/14 15/15/15
f 16/16/16 17/17/17 18/18/18
f 19/19/19 20/20/20 21/21/21
f 22/22/22 23/23/23 24/24/24
f 19/19/19 25/25/25 26/26/26
f 27/27/27 28/28/28 26/26/26
f 29/29/29 30/30/30 31/31/31
f 32/32/32 33/33/33 15/15/15
f 34/34/34 35/35/35 36/36/36
f 10/10/10 29/29/29 37/37/37
f 38/38/38 36/36/36 39/39/39
f 40/40/40 6/6/6 41/41/41
f 32/32/32 1/1/1 42/42/42
f 43/43/43 39/39/39 8/8/8
f 20/20/20 44/44/44 45/45/45
f 30/30/30 46/46/46 47/47/47
f 48/48/48 24/24/24 49/49/49
f 16/16/16 50/50/50 12/12/12
f 51/51/51 27/27/27 52/52/52
f 53/53/53 54/54/54 41/41/41
f 53/53/53 55/55/55 56/56/56
f 57/57/57 9/9/9 23/23/23
f 58/58/58 56/56/56 35/35/35
f 59/59/59 51/51/51 60/60/60
f 44/44/44 61/61/61 49/49/49
f 13/13/13 62/62/62 5/5/5
f 63/63/63 64/64/64 47/47/47
f 65/65/65 18/18/18 3/3/3
f 42/42/42 1/1/1 3/3/3
f 40/40/40 4/4/4 6/6/6
f 57/57/57 7/7/7 9/9/9
f 50/50/50 10/10/10 12/12/12
f 62/62/62 13/13/13 15/15/15
f 65/65/65 16/16/16 18/18/18
f 25/25/25 19/19/19 21/21/21
f 48/48/48 22/22/22 24/24/24
f 28/28/28 19/19/19 26/26/26
f 52/52/52 27/27/27 26/26/26
f 37/37/37 29/29/29 31/31/31
f 14/14/14 32/32/32 15/15/15
f 38/38/38 34/34/34 36/36/36
f 11/11/11 10/10/10 37/37/37
f 43/43/43 38/38/38 39/39/39
f 54/54/54 40/40/40 41/41/41
f 33/33/33 32/32/32 42/42/42
f 7/7/7 43/43/43 8/8/8
f 21/21/21 20/20/20 45/45/45
f 31/31/31 30/30/30 47/47/47
f 61/61/61 48/48/48 49/49/49
f 17/17/17 16/16/16 12/12/12
f 60/60/60 51/51/51 52/52/52
f 55/55/55 53/53/53 41/41/41
f 58/58/58 53/53/53 56/56/56
f 22/22/22 57/57/57 23/23/23
f 34/34/34 58/58/58 35/35/35
f 66/66/66 59/59/59 60/60/60
f 45/45/45 44/44/44 49/49/49
f 4/4/4 13/13/13 5/5/5
f 46/46/46 63/63/63 47/47/47
f 2/2/2 65/65/65 3/3/3
