v -0.355244 4.615049 -2.516927
v -0.357056 4.615049 -2.513538
v -0.354901 4.617000 -2.512646
v -0.325083 4.615049 -2.519898
v -0.326732 4.617000 -2.518249
v -0.324584 4.617000 -2.515632
v -0.335120 4.615049 -2.486810
v -0.335575 4.617000 -2.489097
v -0.338944 4.617000 -2.488765
v -0.346446 4.615049 -2.524148
v -0.349836 4.615049 -2.522336
v -0.348540 4.617000 -2.520397
v -0.349835 4.615049 -2.489737
v -0.346446 4.615049 -2.487926
v -0.345554 4.617000 -2.490080
v -0.319341 4.615049 -2.506037
v -0.319718 4.615049 -2.509861
v -0.322005 4.617000 -2.509406
v -0.335120 4.615049 -2.525263
v -0.338944 4.615049 -2.525640
v -0.338945 4.617000 -2.523308
v -0.357055 4.615049 -2.498535
v -0.355244 4.615049 -2.495146
v -0.353305 4.617000 -2.496441
v -0.320834 4.615049 -2.498535
v -0.322988 4.617000 -2.499427
v -0.324584 4.617000 -2.496441
v -0.358548 4.615049 -2.506037
v -0.356216 4.617000 -2.506037
v -0.355884 4.617000 -2.509406
v -0.328054 4.615049 -2.489737
v -0.329349 4.617000 -2.491676
v -0.332335 4.617000 -2.490080
v -0.353305 4.617000 -2.515632
v -0.351157 4.617000 -2.518249
v -0.322645 4.615049 -2.516927
v -0.322988 4.617000 -2.512646
v -0.338944 4.615049 -2.486434
v -0.342314 4.617000 -2.489097
v -0.345554 4.617000 -2.521993
v -0.342314 4.617000 -2.522976
v -0.352806 4.615049 -2.492175
v -0.348540 4.617000 -2.491676
v -0.321673 4.617000 -2.506037
v -0.322005 4.617000 -2.502667
v -0.331443 4.615049 -2.524148
v -0.335575 4.617000 -2.522976
v -0.358171 4.615049 -2.502212
v -0.354901 4.617000 -2.499427
v -0.325083 4.615049 -2.492175
v -0.322645 4.615049 -2.495146
v -0.358171 4.615049 -2.509861
v -0.328054 4.615049 -2.522336
v -0.329349 4.617000 -2.520397
v -0.331443 4.615049 -2.487926
v -0.352806 4.615049 -2.519898
v -0.320834 4.615049 -2.513539
v -0.342769 4.615049 -2.486810
v -0.342769 4.615049 -2.525263
v -0.351157 4.617000 -2.493824
v -0.332335 4.617000 -2.521993
v -0.319718 4.615049 -2.502212
v -0.355884 4.617000 -2.502667
v -0.326732 4.617000 -2.493824
vn -0.533600 0.766900 -0.356500
vn -0.592900 0.766900 -0.245600
vn -0.592900 0.766900 -0.245600
vn 0.453700 0.766900 -0.453800
vn 0.453800 0.766900 -0.453800
vn 0.533600 0.766900 -0.356500
vn 0.125200 0.767000 0.629300
vn 0.125200 0.767000 0.629300
vn 0.000000 0.766900 0.641700
vn -0.245600 0.767000 -0.592800
vn -0.356500 0.767000 -0.533500
vn -0.356500 0.766900 -0.533600
vn -0.356500 0.766900 0.533600
vn -0.245600 0.767000 0.592800
vn -0.245600 0.766900 0.592900
vn 0.641700 0.766900 0.000000
vn 0.629400 0.766900 -0.125200
vn 0.629400 0.766900 -0.125200
vn 0.125200 0.766900 -0.629400
vn 0.000000 0.766900 -0.641700
vn 0.000000 0.766900 -0.641700
vn -0.592900 0.766900 0.245600
vn -0.533600 0.767000 0.356500
vn -0.533500 0.767000 0.356500
vn 0.592900 0.766900 0.245500
vn 0.592900 0.766900 0.245500
vn 0.533500 0.766900 0.356500
vn -0.641700 0.766900 0.000000
vn -0.641700 0.766900 0.000000
vn -0.629400 0.766900 -0.125200
vn 0.356500 0.767000 0.533500
vn 0.356500 0.767000 0.533500
vn 0.245600 0.766900 0.592800
vn -0.533600 0.766900 -0.356500
vn -0.453700 0.766900 -0.453700
vn 0.533600 0.766900 -0.356500
vn 0.592900 0.766900 -0.245600
vn 0.000000 0.766900 0.641700
vn -0.125200 0.766900 0.629400
vn -0.245500 0.766900 -0.592900
vn -0.125200 0.767000 -0.629300
vn -0.453800 0.766900 0.453700
vn -0.356500 0.766900 0.533600
vn 0.641700 0.766900 0.000000
vn 0.629400 0.766900 0.125200
vn 0.245600 0.766900 -0.592900
vn 0.125200 0.766900 -0.629400
vn -0.629400 0.766900 0.125200
vn -0.592800 0.766900 0.245700
vn 0.453700 0.766900 0.453700
vn 0.533500 0.766900 0.356500
vn -0.629400 0.766900 -0.125200
vn 0.356500 0.766900 -0.533600
vn 0.356500 0.766900 -0.533600
vn 0.245600 0.766900 0.592900
vn -0.453700 0.766900 -0.453700
vn 0.592800 0.767000 -0.245600
vn -0.125200 0.766900 0.629400
vn -0.125200 0.767000 -0.629300
vn -0.453700 0.767000 0.453600
vn 0.245600 0.766900 -0.592900
vn 0.629400 0.766900 0.125200
vn -0.629400 0.766900 0.125100
vn 0.453700 0.766900 0.453700
vt 0.000000 0.000000
vt 0.000000 0.000000
vt 0.000000 0.000000
vt 0.000000 0.000000
vt 0.000000 0.000000
vt 0.000000 0.000000
vt 0.000000 0.000000
vt 0.000000 0.000000
vt 0.000000 0.000000
vt 0.000000 0.000000
vt 0.000000 0.000000
vt 0.000000 0.000000
vt 0.000000 0.000000
vt 0.000000 0.000000
vt 0.000000 0.000000
vt 0.000000 0.000000
vt 0.000000 0.000000
vt 0.000000 0.000000
vt 0.000000 0.000000
vt 0.000000 0.000000
vt 0.000000 0.000000
vt 0.000000 0.000000
vt 0.000000 0.000000
vt 0.000000 0.000000
vt 0.000000 0.000000
vt 0.000000 0.000000
vt 0.000000 0.000000
vt 0.000000 0.000000
vt 0.000000 0.000000
vt 0.000000 0.000000
vt 0.000000 0.000000
vt 0.000000 0.000000
vt 0.000000 0.000000
vt 0.000000 0.000000
vt 0.000000 0.000000
vt 0.000000 0.000000
vt 0.000000 0.000000
vt 0.000000 0.000000
vt 0.000000 0.000000
vt 0.000000 0.000000
vt 0.000000 0.000000
vt 0.000000 0.000000
vt 0.000000 0.000000
vt 0.000000 0.000000
vt 0.000000 0.000000
vt 0.000000 0.000000
vt 0.000000 0.000000
vt 0.000000 0.000000
vt 0.000000 0.000000
vt 0.000000 0.000000
vt 0.000000 0.000000
vt 0.000000 0.000000
vt 0.000000 0.000000
vt 0.000000 0.000000
vt 0.000000 0.000000
vt 0.000000 0.000000
vt 0.000000 0.000000
vt 0.000000 0.000000
vt 0.000000 0.000000
vt 0.000000 0.000000
vt 0.000000 0.000000
vt 0.000000 0.000000
vt 0.000000 0.000000
vt 0.000000 0.000000
f 1/1/1 2/2/2 3/3/3
f 4/4/4 5/5/5 6/6/6
f 7/7/7 8/8/8 9/9/9
f 10/10/10 11/11/11 12/12/12
f 13/13/13 14/14/14 15/15/15
f 16/16/16 17/17/17 18/18/18
f 19/19/19 20/20/20 21/21/21
f 22/22/22 23/23/23 24/24/24
f 25/25/25 26/26/26 27/27/27
f 28/28/28 29/29/29 30/30/30
f 31/31/31 32/32/32 33/33/33
f 1/1/1 34/34/34 35/35/35
f 36/36/36 6/6/6 37/37/37
f 38/38/38 9/9/9 39/39/39
f 10/10/10 40/40/40 41/41/41
f 42/42/42 13/13/13 43/43/43
f 16/16/16 44/44/44 45/45/45
f 46/46/46 19/19/19 47/47/47
f 48/48/48 22/22/22 49/49/49
f 50/50/50 51/51/51 27/27/27
f 52/52/52 30/30/30 3/3/3
f 4/4/4 53/53/53 54/54/54
f 55/55/55 33/33/33 8/8/8
f 11/11/11 56/56/56 35/35/35
f 17/17/17 57/57/57 37/37/37
f 58/58/58 39/39/39 15/15/15
f 20/20/20 59/59/59 41/41/41
f 23/23/23 42/42/42 60/60/60
f 53/53/53 46/46/46 61/61/61
f 62/62/62 45/45/45 26/26/26
f 28/28/28 48/48/48 63/63/63
f 31/31/31 50/50/50 64/64/64
f 34/34/34 1/1/1 3/3/3
f 36/36/36 4/4/4 6/6/6
f 38/38/38 7/7/7 9/9/9
f 40/40/40 10/10/10 12/12/12
f 43/43/43 13/13/13 15/15/15
f 44/44/44 16/16/16 18/18/18
f 47/47/47 19/19/19 21/21/21
f 49/49/49 22/22/22 24/24/24
f 51/51/51 25/25/25 27/27/27
f 52/52/52 28/28/28 30/30/30
f 55/55/55 31/31/31 33/33/33
f 56/56/56 1/1/1 35/35/35
f 57/57/57 36/36/36 37/37/37
f 58/58/58 38/38/38 39/39/39
f 59/59/59 10/10/10 41/41/41
f 60/60/60 42/42/42 43/43/43
f 62/62/62 16/16/16 45/45/45
f 61/61/61 46/46/46 47/47/47
f 63/63/63 48/48/48 49/49/49
f 64/64/64 50/50/50 27/27/27
f 2/2/2 52/52/52 3/3/3
f 5/5/5 4/4/4 54/54/54
f 7/7/7 55/55/55 8/8/8
f 12/12/12 11/11/11 35/35/35
f 18/18/18 17/17/17 37/37/37
f 14/14/14 58/58/58 15/15/15
f 21/21/21 20/20/20 41/41/41
f 24/24/24 23/23/23 60/60/60
f 54/54/54 53/53/53 61/61/61
f 25/25/25 62/62/62 26/26/26
f 29/29/29 28/28/28 63/63/63
f 32/32/32 31/31/31 64/64/64
