v 0.077753 0.752488 -3.868456
v 0.086020 0.752488 -3.907565
v 0.085400 0.759089 -3.906297
v 0.039010 0.752488 -4.386626
v 0.046915 0.752488 -4.417021
v 0.046295 0.759089 -4.415753
v 0.035075 0.752488 -3.719774
v 0.043029 0.752488 -3.757952
v 0.042409 0.759089 -3.756684
v 0.087959 0.752488 -3.969644
v 0.087958 0.752488 -3.994004
v 0.087338 0.759089 -3.992736
v 0.077753 0.752488 -4.122017
v 0.066540 0.752490 -4.158336
v 0.065920 0.759091 -4.157067
v 0.054107 0.752489 -4.195065
v 0.053486 0.759090 -4.193797
v 0.066541 0.752490 -3.832138
v 0.077133 0.759089 -3.867188
v 0.035074 0.752488 -4.270699
v 0.031469 0.752488 -4.309409
v 0.030848 0.759089 -4.308141
v 0.087958 0.752488 -3.996469
v 0.087958 0.752488 -4.020829
v 0.087338 0.759089 -4.019561
v 0.031470 0.752488 -3.681064
v 0.034454 0.759089 -3.718506
v 0.046917 0.752488 -3.573452
v 0.039011 0.752488 -3.603848
v 0.038391 0.759089 -3.602579
v 0.087959 0.752488 -3.947576
v 0.087338 0.759089 -3.968376
v 0.032810 0.752488 -4.348246
v 0.032189 0.759089 -4.346978
v 0.054107 0.752489 -3.795408
v 0.065920 0.759091 -3.830870
v 0.087958 0.752488 -4.042897
v 0.087338 0.759089 -4.041629
v 0.086020 0.752488 -4.082908
v 0.077133 0.759089 -4.120749
v 0.087338 0.759089 -3.995201
v 0.085400 0.759089 -4.081640
v 0.032811 0.752488 -3.642227
v 0.030849 0.759089 -3.679796
v 0.087338 0.759089 -3.946308
v 0.043029 0.752488 -4.232521
v 0.042408 0.759089 -4.231253
v 0.053487 0.759090 -3.794140
v 0.038390 0.759089 -4.385357
v 0.034453 0.759089 -4.269431
v 0.032190 0.759089 -3.640959
v 0.046296 0.759089 -3.572184
vn 0.968500 0.043900 0.245100
vn 0.990500 0.070500 0.117700
vn 0.988200 0.066400 0.137800
vn 0.976000 0.051100 0.211600
vn 0.966900 0.042600 0.251500
vn 0.966900 0.042600 0.251500
vn 0.985800 0.062800 0.155400
vn 0.967500 0.043100 0.249000
vn 0.970100 0.045400 0.238500
vn 0.995600 0.093600 0.000000
vn 0.995600 0.093600 0.000000
vn 0.995600 0.093600 0.000000
vn 0.957400 0.138600 -0.253100
vn 0.940700 0.147200 -0.305700
vn 0.941500 0.146800 -0.303300
vn 0.943600 0.145800 -0.297200
vn 0.942400 0.146300 -0.300700
vn 0.951500 0.030700 0.306000
vn 0.965600 0.041400 0.256700
vn 0.982700 0.119500 -0.141400
vn 0.995000 0.097700 -0.021500
vn 0.994300 0.100500 -0.036500
vn 0.995600 0.093600 0.000000
vn 0.995600 0.093600 0.000000
vn 0.995600 0.093600 0.000000
vn 0.995500 0.086500 0.036800
vn 0.987800 0.065700 0.141200
vn 0.958500 0.138000 -0.249300
vn 0.971300 0.129600 -0.199200
vn 0.969100 0.131200 -0.208800
vn 0.995800 0.089500 0.021100
vn 0.995600 0.093600 0.000000
vn 0.991800 0.073100 0.104800
vn 0.993100 0.076200 0.089100
vn 0.952000 0.031000 0.304500
vn 0.950400 0.029900 0.309400
vn 0.994800 0.098700 -0.026900
vn 0.995000 0.097600 -0.021200
vn 0.983600 0.118500 -0.135800
vn 0.959900 0.137200 -0.244300
vn 0.995600 0.093600 0.000000
vn 0.986200 0.115400 -0.118300
vn 0.989900 0.110200 -0.089400
vn 0.995700 0.089500 0.021300
vn 0.995700 0.088400 0.027000
vn 0.961800 0.136100 -0.237700
vn 0.959500 0.137400 -0.245700
vn 0.953500 0.032100 0.299600
vn 0.978400 0.053600 0.199500
vn 0.980600 0.121600 -0.153500
vn 0.988200 0.112800 -0.103600
vn 0.958500 0.138000 -0.249300
vt 0.000000 0.000000
vt 0.000000 0.000000
vt 0.000000 0.000000
vt 0.000000 0.000000
vt 0.000000 0.000000
vt 0.000000 0.000000
vt 0.000000 0.000000
vt 0.000000 0.000000
vt 0.000000 0.000000
vt 0.000000 0.000000
vt 0.000000 0.000000
vt 0.000000 0.000000
vt 0.000000 0.000000
vt 0.000000 0.000000
vt 0.000000 0.000000
vt 0.000000 0.000000
vt 0.000000 0.000000
vt 0.000000 0.000000
vt 0.000000 0.000000
vt 0.000000 0.000000
vt 0.000000 0.000000
vt 0.000000 0.000000
vt 0.000000 0.000000
vt 0.000000 0.000000
vt 0.000000 0.000000
vt 0.000000 0.000000
vt 0.000000 0.000000
vt 0.000000 0.000000
vt 0.000000 0.000000
vt 0.000000 0.000000
vt 0.000000 0.000000
vt 0.000000 0.000000
vt 0.000000 0.000000
vt 0.000000 0.000000
vt 0.000000 0.000000
vt 0.000000 0.000000
vt 0.000000 0.000000
vt 0.000000 0.000000
vt 0.000000 0.000000
vt 0.000000 0.000000
vt 0.000000 0.000000
vt 0.000000 0.000000
vt 0.000000 0.000000
vt 0.000000 0.000000
vt 0.000000 0.000000
vt 0.000000 0.000000
vt 0.000000 0.000000
vt 0.000000 0.000000
vt 0.000000 0.000000
vt 0.000000 0.000000
vt 0.000000 0.000000
vt 0.000000 0.000000
f 1/1/1 2/2/2 3/3/3
f 4/4/4 5/5/5 6/6/6
f 7/7/7 8/8/8 9/9/9
f 10/10/10 11/11/11 12/12/12
f 13/13/13 14/14/14 15/15/15
f 14/14/14 16/16/16 17/17/17
f 18/18/18 1/1/1 19/19/19
f 20/20/20 21/21/21 22/22/22
f 23/23/23 24/24/24 25/25/25
f 26/26/26 7/7/7 27/27/27
f 28/28/28 29/29/29 30/30/30
f 31/31/31 10/10/10 32/32/32
f 21/21/21 33/33/33 34/34/34
f 35/35/35 18/18/18 36/36/36
f 24/24/24 37/37/37 38/38/38
f 39/39/39 13/13/13 40/40/40
f 11/11/11 23/23/23 41/41/41
f 37/37/37 39/39/39 42/42/42
f 43/43/43 26/26/26 44/44/44
f 2/2/2 31/31/31 45/45/45
f 16/16/16 46/46/46 47/47/47
f 8/8/8 35/35/35 48/48/48
f 33/33/33 4/4/4 49/49/49
f 46/46/46 20/20/20 50/50/50
f 29/29/29 43/43/43 51/51/51
f 19/19/19 1/1/1 3/3/3
f 49/49/49 4/4/4 6/6/6
f 27/27/27 7/7/7 9/9/9
f 32/32/32 10/10/10 12/12/12
f 40/40/40 13/13/13 15/15/15
f 15/15/15 14/14/14 17/17/17
f 36/36/36 18/18/18 19/19/19
f 50/50/50 20/20/20 22/22/22
f 41/41/41 23/23/23 25/25/25
f 44/44/44 26/26/26 27/27/27
f 52/52/52 28/28/28 30/30/30
f 45/45/45 31/31/31 32/32/32
f 22/22/22 21/21/21 34/34/34
f 48/48/48 35/35/35 36/36/36
f 25/25/25 24/24/24 38/38/38
f 42/42/42 39/39/39 40/40/40
f 12/12/12 11/11/11 41/41/41
f 38/38/38 37/37/37 42/42/42
f 51/51/51 43/43/43 44/44/44
f 3/3/3 2/2/2 45/45/45
f 17/17/17 16/16/16 47/47/47
f 9/9/9 8/8/8 48/48/48
f 34/34/34 33/33/33 49/49/49
f 47/47/47 46/46/46 50/50/50
f 30/30/30 29/29/29 51/51/51
