v -0.053432 4.615049 -1.852980
v -0.054324 4.617000 -1.850826
v -0.051338 4.617000 -1.849230
v -0.050042 4.615049 -1.818570
v -0.047072 4.615049 -1.821008
v -0.048721 4.617000 -1.822657
v -0.080160 4.615049 -1.831045
v -0.077872 4.617000 -1.831500
v -0.078204 4.617000 -1.834869
v -0.044634 4.615049 -1.845760
v -0.046573 4.617000 -1.844465
v -0.044977 4.617000 -1.841479
v -0.077233 4.615049 -1.845760
v -0.079044 4.615049 -1.842371
v -0.076890 4.617000 -1.841479
v -0.060933 4.615049 -1.815266
v -0.057109 4.615049 -1.815643
v -0.057564 4.617000 -1.817930
v -0.041707 4.615049 -1.831045
v -0.041330 4.615049 -1.834869
v -0.043662 4.617000 -1.834869
v -0.068435 4.615049 -1.852980
v -0.071824 4.615049 -1.851169
v -0.070529 4.617000 -1.849230
v -0.071824 4.615049 -1.818570
v -0.068435 4.615049 -1.816758
v -0.067543 4.617000 -1.818913
v -0.057109 4.615049 -1.854096
v -0.060933 4.615049 -1.854472
v -0.060933 4.617000 -1.852140
v -0.077233 4.615049 -1.823978
v -0.075294 4.617000 -1.825274
v -0.076890 4.617000 -1.828260
v -0.047072 4.615049 -1.848731
v -0.050042 4.615049 -1.851169
v -0.051338 4.617000 -1.820509
v -0.054324 4.617000 -1.818913
v -0.080160 4.615049 -1.838694
v -0.080536 4.615049 -1.834869
v -0.042822 4.615049 -1.842371
v -0.043994 4.617000 -1.838239
v -0.075294 4.617000 -1.844465
v -0.073146 4.617000 -1.847082
v -0.064757 4.615049 -1.815643
v -0.060933 4.617000 -1.817598
v -0.043994 4.617000 -1.831500
v -0.044977 4.617000 -1.828260
v -0.064758 4.615049 -1.854096
v -0.067543 4.617000 -1.850826
v -0.074795 4.615049 -1.821008
v -0.070528 4.617000 -1.820509
v -0.057564 4.617000 -1.851809
v -0.044634 4.615049 -1.823979
v -0.046573 4.617000 -1.825274
v -0.079044 4.615049 -1.827367
v -0.048721 4.617000 -1.847082
v -0.053431 4.615049 -1.816758
v -0.077873 4.617000 -1.838239
v -0.041707 4.615049 -1.838694
v -0.074795 4.615049 -1.848731
v -0.042822 4.615049 -1.827368
v -0.064303 4.617000 -1.817930
v -0.064303 4.617000 -1.851809
v -0.073146 4.617000 -1.822657
vn 0.245600 0.766900 -0.592900
vn 0.245600 0.767000 -0.592800
vn 0.356500 0.766900 -0.533600
vn 0.356500 0.766900 0.533500
vn 0.453700 0.766900 0.453700
vn 0.453700 0.766900 0.453800
vn -0.629400 0.766900 0.125200
vn -0.629400 0.766900 0.125200
vn -0.641700 0.766900 0.000000
vn 0.533600 0.766900 -0.356500
vn 0.533600 0.766900 -0.356500
vn 0.592900 0.766900 -0.245500
vn -0.533600 0.766900 -0.356500
vn -0.592900 0.766900 -0.245600
vn -0.592900 0.766900 -0.245500
vn 0.000000 0.766900 0.641700
vn 0.125200 0.766900 0.629400
vn 0.125200 0.766900 0.629400
vn 0.629400 0.766900 0.125200
vn 0.641700 0.766900 0.000000
vn 0.641700 0.766900 0.000000
vn -0.245600 0.766900 -0.592900
vn -0.356500 0.766900 -0.533500
vn -0.356500 0.766900 -0.533500
vn -0.356500 0.766900 0.533600
vn -0.245600 0.767000 0.592800
vn -0.245600 0.766900 0.592900
vn 0.125200 0.766900 -0.629400
vn 0.000000 0.767000 -0.641700
vn 0.000000 0.766900 -0.641700
vn -0.533600 0.766900 0.356500
vn -0.533500 0.766900 0.356500
vn -0.592900 0.766900 0.245600
vn 0.453700 0.766900 -0.453800
vn 0.356500 0.766900 -0.533600
vn 0.356500 0.766900 0.533500
vn 0.245600 0.767000 0.592800
vn -0.629400 0.766900 -0.125200
vn -0.641700 0.766900 0.000000
vn 0.592900 0.766900 -0.245600
vn 0.629400 0.766900 -0.125200
vn -0.533600 0.767000 -0.356400
vn -0.453700 0.766900 -0.453700
vn -0.125200 0.766900 0.629400
vn 0.000000 0.766900 0.641700
vn 0.629400 0.766900 0.125200
vn 0.592900 0.766900 0.245600
vn -0.125200 0.767000 -0.629300
vn -0.245600 0.766900 -0.592900
vn -0.453700 0.766900 0.453800
vn -0.356500 0.766900 0.533600
vn 0.125200 0.766900 -0.629400
vn 0.533600 0.766900 0.356400
vn 0.533600 0.766900 0.356500
vn -0.592800 0.766900 0.245600
vn 0.453700 0.766900 -0.453800
vn 0.245600 0.767000 0.592800
vn -0.629400 0.766900 -0.125100
vn 0.629400 0.766900 -0.125200
vn -0.453700 0.766900 -0.453800
vn 0.592900 0.766900 0.245500
vn -0.125200 0.766900 0.629400
vn -0.125200 0.766900 -0.629400
vn -0.453700 0.766900 0.453800
vt 0.000000 0.000000
vt 0.000000 0.000000
vt 0.000000 0.000000
vt 0.000000 0.000000
vt 0.000000 0.000000
vt 0.000000 0.000000
vt 0.000000 0.000000
vt 0.000000 0.000000
vt 0.000000 0.000000
vt 0.000000 0.000000
vt 0.000000 0.000000
vt 0.000000 0.000000
vt 0.000000 0.000000
vt 0.000000 0.000000
vt 0.000000 0.000000
vt 0.000000 0.000000
vt 0.000000 0.000000
vt 0.000000 0.000000
vt 0.000000 0.000000
vt 0.000000 0.000000
vt 0.000000 0.000000
vt 0.000000 0.000000
vt 0.000000 0.000000
vt 0.000000 0.000000
vt 0.000000 0.000000
vt 0.000000 0.000000
vt 0.000000 0.000000
vt 0.000000 0.000000
vt 0.000000 0.000000
vt 0.000000 0.000000
vt 0.000000 0.000000
vt 0.000000 0.000000
vt 0.000000 0.000000
vt 0.000000 0.000000
vt 0.000000 0.000000
vt 0.000000 0.000000
vt 0.000000 0.000000
vt 0.000000 0.000000
vt 0.000000 0.000000
vt 0.000000 0.000000
vt 0.000000 0.000000
vt 0.000000 0.000000
vt 0.000000 0.000000
vt 0.000000 0.000000
vt 0.000000 0.000000
vt 0.000000 0.000000
vt 0.000000 0.000000
vt 0.000000 0.000000
vt 0.000000 0.000000
vt 0.000000 0.000000
vt 0.000000 0.000000
vt 0.000000 0.000000
vt 0.000000 0.000000
vt 0.000000 0.000000
vt 0.000000 0.000000
vt 0.000000 0.000000
vt 0.000000 0.000000
vt 0.000000 0.000000
vt 0.000000 0.000000
vt 0.000000 0.000000
vt 0.000000 0.000000
vt 0.000000 0.000000
vt 0.000000 0.000000
vt 0.000000 0.000000
f 1/1/1 2/2/2 3/3/3
f 4/4/4 5/5/5 6/6/6
f 7/7/7 8/8/8 9/9/9
f 10/10/10 11/11/11 12/12/12
f 13/13/13 14/14/14 15/15/15
f 16/16/16 17/17/17 18/18/18
f 19/19/19 20/20/20 21/21/21
f 22/22/22 23/23/23 24/24/24
f 25/25/25 26/26/26 27/27/27
f 28/28/28 29/29/29 30/30/30
f 31/31/31 32/32/32 33/33/33
f 34/34/34 35/35/35 3/3/3
f 4/4/4 36/36/36 37/37/37
f 38/38/38 39/39/39 9/9/9
f 40/40/40 12/12/12 41/41/41
f 13/13/13 42/42/42 43/43/43
f 44/44/44 16/16/16 45/45/45
f 19/19/19 46/46/46 47/47/47
f 48/48/48 22/22/22 49/49/49
f 50/50/50 25/25/25 51/51/51
f 28/28/28 52/52/52 2/2/2
f 53/53/53 54/54/54 6/6/6
f 7/7/7 55/55/55 33/33/33
f 10/10/10 34/34/34 56/56/56
f 17/17/17 57/57/57 37/37/37
f 14/14/14 38/38/38 58/58/58
f 59/59/59 41/41/41 21/21/21
f 23/23/23 60/60/60 43/43/43
f 61/61/61 47/47/47 54/54/54
f 26/26/26 44/44/44 62/62/62
f 29/29/29 48/48/48 63/63/63
f 50/50/50 64/64/64 32/32/32
f 35/35/35 1/1/1 3/3/3
f 36/36/36 4/4/4 6/6/6
f 39/39/39 7/7/7 9/9/9
f 40/40/40 10/10/10 12/12/12
f 42/42/42 13/13/13 15/15/15
f 45/45/45 16/16/16 18/18/18
f 46/46/46 19/19/19 21/21/21
f 49/49/49 22/22/22 24/24/24
f 51/51/51 25/25/25 27/27/27
f 52/52/52 28/28/28 30/30/30
f 55/55/55 31/31/31 33/33/33
f 56/56/56 34/34/34 3/3/3
f 57/57/57 4/4/4 37/37/37
f 58/58/58 38/38/38 9/9/9
f 59/59/59 40/40/40 41/41/41
f 60/60/60 13/13/13 43/43/43
f 62/62/62 44/44/44 45/45/45
f 61/61/61 19/19/19 47/47/47
f 63/63/63 48/48/48 49/49/49
f 64/64/64 50/50/50 51/51/51
f 1/1/1 28/28/28 2/2/2
f 5/5/5 53/53/53 6/6/6
f 8/8/8 7/7/7 33/33/33
f 11/11/11 10/10/10 56/56/56
f 18/18/18 17/17/17 37/37/37
f 15/15/15 14/14/14 58/58/58
f 20/20/20 59/59/59 21/21/21
f 24/24/24 23/23/23 43/43/43
f 53/53/53 61/61/61 54/54/54
f 27/27/27 26/26/26 62/62/62
f 30/30/30 29/29/29 63/63/63
f 31/31/31 50/50/50 32/32/32
