v -0.746465 4.617000 -2.496440
v -0.744317 4.617000 -2.493823
v -0.732104 4.617000 -2.506036
v -0.735474 4.617000 -2.522975
v -0.738714 4.617000 -2.521992
v -0.716148 4.617000 -2.499426
v -0.715165 4.617000 -2.502666
v -0.741699 4.617000 -2.520396
v -0.741700 4.617000 -2.491675
v -0.738714 4.617000 -2.490079
v -0.714833 4.617000 -2.506036
v -0.715165 4.617000 -2.509405
v -0.744317 4.617000 -2.518248
v -0.746465 4.617000 -2.515631
v -0.735474 4.617000 -2.489096
v -0.732104 4.617000 -2.488765
v -0.716148 4.617000 -2.512645
v -0.717744 4.617000 -2.515631
v -0.748061 4.617000 -2.512645
v -0.749043 4.617000 -2.509405
v -0.728735 4.617000 -2.489096
v -0.725495 4.617000 -2.490079
v -0.719892 4.617000 -2.518248
v -0.722509 4.617000 -2.520396
v -0.749375 4.617000 -2.506036
v -0.749043 4.617000 -2.502666
v -0.725495 4.617000 -2.521992
v -0.728735 4.617000 -2.522975
v -0.722509 4.617000 -2.491675
v -0.719892 4.617000 -2.493823
v -0.748061 4.617000 -2.499426
v -0.732104 4.617000 -2.523307
v -0.717744 4.617000 -2.496440
vn 0.000000 1.000000 0.000000
vn 0.000000 1.000000 0.000000
vn 0.000000 1.000000 0.000000
vn 0.000000 1.000000 0.000000
vn 0.000000 1.000000 -0.000100
vn 0.000000 1.000000 0.000000
vn 0.000000 1.000000 -0.000100
vn 0.000000 1.000000 -0.000100
vn 0.000000 1.000000 0.000000
vn 0.000000 1.000000 0.000000
vn 0.000000 1.000000 0.000000
vn 0.000000 1.000000 0.000100
vn 0.000000 1.000000 0.000000
vn 0.000000 1.000000 0.000000
vn 0.000000 1.000000 0.000000
vn 0.000000 1.000000 0.000000
vn 0.000000 1.000000 0.000000
vn 0.000000 1.000000 0.000000
vn 0.000000 1.000000 0.000000
vn 0.000000 1.000000 0.000100
vn 0.000000 1.000000 0.000000
vn 0.000000 1.000000 0.000000
vn 0.000000 1.000000 0.000000
vn 0.000000 1.000000 0.000000
vn 0.000000 1.000000 0.000000
vn 0.000000 1.000000 -0.000100
vn 0.000000 1.000000 0.000000
vn 0.000000 1.000000 0.000000
vn 0.000000 1.000000 0.000000
vn 0.000000 1.000000 0.000000
vn 0.000000 1.000000 0.000000
vn 0.000000 1.000000 0.000000
vn 0.000000 1.000000 0.000000
vt 0.000000 0.000000
vt 0.000000 0.000000
vt 0.000000 0.000000
vt 0.000000 0.000000
vt 0.000000 0.000000
vt 0.000000 0.000000
vt 0.000000 0.000000
vt 0.000000 0.000000
vt 0.000000 0.000000
vt 0.000000 0.000000
vt 0.000000 0.000000
vt 0.000000 0.000000
vt 0.000000 0.000000
vt 0.000000 0.000000
vt 0.000000 0.000000
vt 0.000000 0.000000
vt 0.000000 0.000000
vt 0.000000 0.000000
vt 0.000000 0.000000
vt 0.000000 0.000000
vt 0.000000 0.000000
vt 0.000000 0.000000
vt 0.000000 0.000000
vt 0.000000 0.000000
vt 0.000000 0.000000
vt 0.000000 0.000000
vt 0.000000 0.000000
vt 0.000000 0.000000
vt 0.000000 0.000000
vt 0.000000 0.000000
vt 0.000000 0.000000
vt 0.000000 0.000000
vt 0.000000 0.000000
f 1/1/1 2/2/2 3/3/3
f 4/4/4 5/5/5 3/3/3
f 6/6/6 7/7/7 3/3/3
f 5/5/5 8/8/8 3/3/3
f 9/9/9 10/10/10 3/3/3
f 11/11/11 12/12/12 3/3/3
f 13/13/13 14/14/14 3/3/3
f 15/15/15 16/16/16 3/3/3
f 17/17/17 18/18/18 3/3/3
f 19/19/19 20/20/20 3/3/3
f 21/21/21 22/22/22 3/3/3
f 23/23/23 24/24/24 3/3/3
f 25/25/25 26/26/26 3/3/3
f 27/27/27 28/28/28 3/3/3
f 29/29/29 30/30/30 3/3/3
f 31/31/31 1/1/1 3/3/3
f 32/32/32 4/4/4 3/3/3
f 33/33/33 6/6/6 3/3/3
f 2/2/2 9/9/9 3/3/3
f 7/7/7 11/11/11 3/3/3
f 8/8/8 13/13/13 3/3/3
f 10/10/10 15/15/15 3/3/3
f 12/12/12 17/17/17 3/3/3
f 14/14/14 19/19/19 3/3/3
f 16/16/16 21/21/21 3/3/3
f 18/18/18 23/23/23 3/3/3
f 20/20/20 25/25/25 3/3/3
f 24/24/24 27/27/27 3/3/3
f 22/22/22 29/29/29 3/3/3
f 26/26/26 31/31/31 3/3/3
f 28/28/28 32/32/32 3/3/3
f 30/30/30 33/33/33 3/3/3
