v -0.751331 4.615049 -2.502211
v -0.750215 4.615049 -2.498534
v -0.748061 4.617000 -2.499426
v -0.728280 4.615049 -2.525262
v -0.732104 4.615049 -2.525639
v -0.732104 4.617000 -2.523307
v -0.718243 4.615049 -2.492174
v -0.715805 4.615049 -2.495145
v -0.717744 4.617000 -2.496440
v -0.751331 4.615049 -2.509860
v -0.749043 4.617000 -2.509405
v -0.748061 4.617000 -2.512645
v -0.724602 4.615049 -2.487925
v -0.725495 4.617000 -2.490079
v -0.728735 4.617000 -2.489096
v -0.718243 4.615049 -2.519897
v -0.721213 4.615049 -2.522335
v -0.722509 4.617000 -2.520396
v -0.745966 4.615049 -2.519897
v -0.744317 4.617000 -2.518248
v -0.741699 4.617000 -2.520396
v -0.735929 4.615049 -2.486809
v -0.735474 4.617000 -2.489096
v -0.738714 4.617000 -2.490079
v -0.713993 4.615049 -2.513537
v -0.716148 4.617000 -2.512645
v -0.715165 4.617000 -2.509405
v -0.748404 4.615049 -2.495145
v -0.745966 4.615049 -2.492174
v -0.744317 4.617000 -2.493823
v -0.712878 4.615049 -2.502211
v -0.715165 4.617000 -2.502666
v -0.716148 4.617000 -2.499426
v -0.751707 4.615049 -2.506036
v -0.749043 4.617000 -2.502666
v -0.728735 4.617000 -2.522975
v -0.725495 4.617000 -2.521992
v -0.721213 4.615049 -2.489736
v -0.719892 4.617000 -2.493823
v -0.748404 4.615049 -2.516927
v -0.750215 4.615049 -2.513537
v -0.728280 4.615049 -2.486809
v -0.732104 4.617000 -2.488765
v -0.719892 4.617000 -2.518248
v -0.717744 4.617000 -2.515631
v -0.742995 4.615049 -2.522335
v -0.738714 4.617000 -2.521992
v -0.742995 4.615049 -2.489736
v -0.739606 4.615049 -2.487925
v -0.712501 4.615049 -2.506036
v -0.712878 4.615049 -2.509860
v -0.746465 4.617000 -2.496440
v -0.735929 4.615049 -2.525262
v -0.735474 4.617000 -2.522975
v -0.713993 4.615049 -2.498534
v -0.749375 4.617000 -2.506036
v -0.724602 4.615049 -2.524147
v -0.722509 4.617000 -2.491675
v -0.746465 4.617000 -2.515631
v -0.732104 4.615049 -2.486433
v -0.739606 4.615049 -2.524147
v -0.715805 4.615049 -2.516927
v -0.741700 4.617000 -2.491675
v -0.714833 4.617000 -2.506036
vn -0.629400 0.766900 0.125000
vn -0.592900 0.766900 0.245500
vn -0.592900 0.766900 0.245500
vn 0.125200 0.767000 -0.629300
vn 0.000000 0.766900 -0.641700
vn 0.000000 0.767000 -0.641600
vn 0.453700 0.766900 0.453800
vn 0.533600 0.766900 0.356500
vn 0.533500 0.766900 0.356500
vn -0.629400 0.766900 -0.125100
vn -0.629400 0.766900 -0.125200
vn -0.592900 0.766900 -0.245600
vn 0.245600 0.766900 0.592900
vn 0.245600 0.766900 0.592900
vn 0.125200 0.767000 0.629400
vn 0.453700 0.766900 -0.453800
vn 0.356500 0.766900 -0.533600
vn 0.356500 0.766900 -0.533600
vn -0.453700 0.766900 -0.453700
vn -0.453700 0.767000 -0.453700
vn -0.356500 0.766900 -0.533600
vn -0.125200 0.766900 0.629400
vn -0.125200 0.767000 0.629300
vn -0.245600 0.766900 0.592900
vn 0.592900 0.766900 -0.245600
vn 0.592900 0.766900 -0.245600
vn 0.629400 0.766900 -0.125200
vn -0.533500 0.766900 0.356600
vn -0.453700 0.766900 0.453700
vn -0.453700 0.767000 0.453700
vn 0.629400 0.766900 0.125200
vn 0.629300 0.767000 0.125100
vn 0.592900 0.766900 0.245500
vn -0.641700 0.766900 0.000000
vn -0.629400 0.766900 0.125100
vn 0.125200 0.767000 -0.629300
vn 0.245600 0.766900 -0.592900
vn 0.356500 0.766900 0.533600
vn 0.453700 0.766900 0.453800
vn -0.533600 0.766900 -0.356500
vn -0.592900 0.766900 -0.245600
vn 0.125200 0.767000 0.629300
vn 0.000000 0.767000 0.641700
vn 0.453700 0.766900 -0.453800
vn 0.533600 0.766900 -0.356500
vn -0.356500 0.766900 -0.533600
vn -0.245600 0.767000 -0.592800
vn -0.356500 0.766900 0.533600
vn -0.245500 0.766900 0.592900
vn 0.641700 0.766900 0.000000
vn 0.629400 0.766900 -0.125100
vn -0.533500 0.766900 0.356500
vn -0.125200 0.766900 -0.629400
vn -0.125200 0.766900 -0.629400
vn 0.592900 0.766900 0.245500
vn -0.641700 0.766900 0.000000
vn 0.245500 0.766900 -0.592900
vn 0.356500 0.766900 0.533600
vn -0.533500 0.766900 -0.356500
vn 0.000000 0.766900 0.641700
vn -0.245600 0.766900 -0.592800
vn 0.533600 0.766900 -0.356500
vn -0.356500 0.766900 0.533600
vn 0.641700 0.766900 0.000000
vt 0.000000 0.000000
vt 0.000000 0.000000
vt 0.000000 0.000000
vt 0.000000 0.000000
vt 0.000000 0.000000
vt 0.000000 0.000000
vt 0.000000 0.000000
vt 0.000000 0.000000
vt 0.000000 0.000000
vt 0.000000 0.000000
vt 0.000000 0.000000
vt 0.000000 0.000000
vt 0.000000 0.000000
vt 0.000000 0.000000
vt 0.000000 0.000000
vt 0.000000 0.000000
vt 0.000000 0.000000
vt 0.000000 0.000000
vt 0.000000 0.000000
vt 0.000000 0.000000
vt 0.000000 0.000000
vt 0.000000 0.000000
vt 0.000000 0.000000
vt 0.000000 0.000000
vt 0.000000 0.000000
vt 0.000000 0.000000
vt 0.000000 0.000000
vt 0.000000 0.000000
vt 0.000000 0.000000
vt 0.000000 0.000000
vt 0.000000 0.000000
vt 0.000000 0.000000
vt 0.000000 0.000000
vt 0.000000 0.000000
vt 0.000000 0.000000
vt 0.000000 0.000000
vt 0.000000 0.000000
vt 0.000000 0.000000
vt 0.000000 0.000000
vt 0.000000 0.000000
vt 0.000000 0.000000
vt 0.000000 0.000000
vt 0.000000 0.000000
vt 0.000000 0.000000
vt 0.000000 0.000000
vt 0.000000 0.000000
vt 0.000000 0.000000
vt 0.000000 0.000000
vt 0.000000 0.000000
vt 0.000000 0.000000
vt 0.000000 0.000000
vt 0.000000 0.000000
vt 0.000000 0.000000
vt 0.000000 0.000000
vt 0.000000 0.000000
vt 0.000000 0.000000
vt 0.000000 0.000000
vt 0.000000 0.000000
vt 0.000000 0.000000
vt 0.000000 0.000000
vt 0.000000 0.000000
vt 0.000000 0.000000
vt 0.000000 0.000000
vt 0.000000 0.000000
f 1/1/1 2/2/2 3/3/3
f 4/4/4 5/5/5 6/6/6
f 7/7/7 8/8/8 9/9/9
f 10/10/10 11/11/11 12/12/12
f 13/13/13 14/14/14 15/15/15
f 16/16/16 17/17/17 18/18/18
f 19/19/19 20/20/20 21/21/21
f 22/22/22 23/23/23 24/24/24
f 25/25/25 26/26/26 27/27/27
f 28/28/28 29/29/29 30/30/30
f 31/31/31 32/32/32 33/33/33
f 34/34/34 1/1/1 35/35/35
f 4/4/4 36/36/36 37/37/37
f 38/38/38 7/7/7 39/39/39
f 40/40/40 41/41/41 12/12/12
f 42/42/42 15/15/15 43/43/43
f 16/16/16 44/44/44 45/45/45
f 46/46/46 21/21/21 47/47/47
f 48/48/48 49/49/49 24/24/24
f 50/50/50 51/51/51 27/27/27
f 28/28/28 52/52/52 3/3/3
f 53/53/53 54/54/54 6/6/6
f 8/8/8 55/55/55 33/33/33
f 34/34/34 56/56/56 11/11/11
f 57/57/57 37/37/37 18/18/18
f 13/13/13 38/38/38 58/58/58
f 19/19/19 40/40/40 59/59/59
f 22/22/22 60/60/60 43/43/43
f 61/61/61 47/47/47 54/54/54
f 62/62/62 45/45/45 26/26/26
f 29/29/29 48/48/48 63/63/63
f 31/31/31 50/50/50 64/64/64
f 35/35/35 1/1/1 3/3/3
f 36/36/36 4/4/4 6/6/6
f 39/39/39 7/7/7 9/9/9
f 41/41/41 10/10/10 12/12/12
f 42/42/42 13/13/13 15/15/15
f 44/44/44 16/16/16 18/18/18
f 46/46/46 19/19/19 21/21/21
f 49/49/49 22/22/22 24/24/24
f 51/51/51 25/25/25 27/27/27
f 52/52/52 28/28/28 30/30/30
f 55/55/55 31/31/31 33/33/33
f 56/56/56 34/34/34 35/35/35
f 57/57/57 4/4/4 37/37/37
f 58/58/58 38/38/38 39/39/39
f 59/59/59 40/40/40 12/12/12
f 60/60/60 42/42/42 43/43/43
f 62/62/62 16/16/16 45/45/45
f 61/61/61 46/46/46 47/47/47
f 63/63/63 48/48/48 24/24/24
f 64/64/64 50/50/50 27/27/27
f 2/2/2 28/28/28 3/3/3
f 5/5/5 53/53/53 6/6/6
f 9/9/9 8/8/8 33/33/33
f 10/10/10 34/34/34 11/11/11
f 17/17/17 57/57/57 18/18/18
f 14/14/14 13/13/13 58/58/58
f 20/20/20 19/19/19 59/59/59
f 23/23/23 22/22/22 43/43/43
f 53/53/53 61/61/61 54/54/54
f 25/25/25 62/62/62 26/26/26
f 30/30/30 29/29/29 63/63/63
f 32/32/32 31/31/31 64/64/64
