v -0.779349 4.188066 -1.538204
v -0.773902 4.196855 -1.527716
v -0.766081 4.186248 -1.532074
v -0.780813 4.181680 -1.525290
v -0.766549 4.184208 -1.527948
v -0.774369 4.194815 -1.523590
v -0.773902 4.196855 -1.527716
v -0.774369 4.194815 -1.523590
v -0.766549 4.184208 -1.527948
v -0.779349 4.188066 -1.538204
v -0.766081 4.186248 -1.532074
v -0.772026 4.175287 -1.538168
v -0.780813 4.181680 -1.525290
v -0.772494 4.173246 -1.534042
v -0.766549 4.184208 -1.527948
v -0.766081 4.186248 -1.532074
v -0.766549 4.184208 -1.527948
v -0.772494 4.173246 -1.534042
v -0.779349 4.188066 -1.538204
v -0.772026 4.175287 -1.538168
v -0.785792 4.174932 -1.539905
v -0.780813 4.181680 -1.525290
v -0.786260 4.172891 -1.535779
v -0.772494 4.173246 -1.534042
v -0.772494 4.173246 -1.534042
v -0.786260 4.172891 -1.535779
v -0.785792 4.174932 -1.539905
v -0.779349 4.188066 -1.538204
v -0.785792 4.174932 -1.539905
v -0.793613 4.185538 -1.535547
v -0.780813 4.181680 -1.525290
v -0.794081 4.183497 -1.531421
v -0.786260 4.172891 -1.535779
v -0.785792 4.174932 -1.539905
v -0.786260 4.172891 -1.535779
v -0.794081 4.183497 -1.531421
v -0.779349 4.188066 -1.538204
v -0.793613 4.185538 -1.535547
v -0.787668 4.196499 -1.529452
v -0.780813 4.181680 -1.525290
v -0.788136 4.194459 -1.525326
v -0.794081 4.183497 -1.531421
v -0.794081 4.183497 -1.531421
v -0.788136 4.194459 -1.525326
v -0.787668 4.196499 -1.529452
v -0.779349 4.188066 -1.538204
v -0.787668 4.196499 -1.529452
v -0.773902 4.196855 -1.527716
v -0.780813 4.181680 -1.525290
v -0.774369 4.194815 -1.523590
v -0.788136 4.194459 -1.525326
v -0.787668 4.196499 -1.529452
v -0.788136 4.194459 -1.525326
v -0.774369 4.194815 -1.523590
v -0.766081 4.186248 -1.532074
v -0.773902 4.196855 -1.527716
v -0.766549 4.184208 -1.527948
v -0.772026 4.175287 -1.538168
v -0.766081 4.186248 -1.532074
v -0.772494 4.173246 -1.534042
v -0.772026 4.175287 -1.538168
v -0.772494 4.173246 -1.534042
v -0.785792 4.174932 -1.539905
v -0.793613 4.185538 -1.535547
v -0.785792 4.174932 -1.539905
v -0.794081 4.183497 -1.531421
v -0.793613 4.185538 -1.535547
v -0.794081 4.183497 -1.531421
v -0.787668 4.196499 -1.529452
v -0.773902 4.196855 -1.527716
v -0.787668 4.196499 -1.529452
v -0.774369 4.194815 -1.523590
vn 0.404600 0.586600 -0.701600
vn 0.404600 0.586600 -0.701600
vn 0.404600 0.586600 -0.701600
vn 0.217400 -0.229500 0.948700
vn 0.217400 -0.229500 0.948700
vn 0.217400 -0.229500 0.948700
vn 0.819900 0.470700 0.325800
vn 0.819900 0.470700 0.325800
vn 0.819900 0.470700 0.325800
vn 0.434100 0.246300 -0.866500
vn 0.434100 0.246300 -0.866500
vn 0.434100 0.246300 -0.866500
vn 0.247000 -0.569700 0.783800
vn 0.247000 -0.569700 0.783800
vn 0.247000 -0.569700 0.783800
vn 0.897900 -0.426400 -0.109100
vn 0.897900 -0.426400 -0.109100
vn 0.897900 -0.426400 -0.109100
vn 0.123100 0.067800 -0.990100
vn 0.123100 0.067800 -0.990100
vn 0.123100 0.067800 -0.990100
vn -0.064000 -0.748300 0.660300
vn -0.064000 -0.748300 0.660300
vn -0.064000 -0.748300 0.660300
vn 0.078000 -0.897200 -0.434800
vn 0.078000 -0.897200 -0.434800
vn 0.078000 -0.897200 -0.434800
vn -0.217400 0.229500 -0.948700
vn -0.217400 0.229500 -0.948700
vn -0.217400 0.229500 -0.948700
vn -0.404600 -0.586600 0.701600
vn -0.404600 -0.586600 0.701600
vn -0.404600 -0.586600 0.701600
vn -0.819900 -0.470700 -0.325900
vn -0.819900 -0.470700 -0.325900
vn -0.819900 -0.470700 -0.325900
vn -0.247000 0.569800 -0.783800
vn -0.247000 0.569800 -0.783800
vn -0.247000 0.569800 -0.783800
vn -0.434100 -0.246300 0.866500
vn -0.434100 -0.246300 0.866500
vn -0.434100 -0.246300 0.866500
vn -0.897900 0.426400 0.109100
vn -0.897900 0.426400 0.109100
vn -0.897900 0.426400 0.109100
vn 0.064000 0.748300 -0.660300
vn 0.064000 0.748300 -0.660300
vn 0.064000 0.748300 -0.660300
vn -0.123200 -0.067800 0.990100
vn -0.123200 -0.067800 0.990100
vn -0.123200 -0.067800 0.990100
vn -0.078000 0.897200 0.434700
vn -0.078000 0.897200 0.434700
vn -0.078000 0.897200 0.434700
vn 0.819900 0.470700 0.325700
vn 0.819900 0.470700 0.325700
vn 0.819900 0.470700 0.325700
vn 0.897900 -0.426400 -0.109000
vn 0.897900 -0.426400 -0.109000
vn 0.897900 -0.426400 -0.109000
vn 0.078000 -0.897200 -0.434700
vn 0.078000 -0.897200 -0.434700
vn 0.078000 -0.897200 -0.434700
vn -0.819900 -0.470700 -0.325800
vn -0.819900 -0.470700 -0.325800
vn -0.819900 -0.470700 -0.325800
vn -0.898000 0.426400 0.109000
vn -0.898000 0.426400 0.109000
vn -0.898000 0.426400 0.109000
vn -0.078000 0.897100 0.434800
vn -0.078000 0.897100 0.434800
vn -0.078000 0.897100 0.434800
vt 0.000000 0.000000
vt 0.000000 0.000000
vt 0.000000 0.000000
vt 0.000000 0.000000
vt 0.000000 0.000000
vt 0.000000 0.000000
vt 0.000000 0.000000
vt 0.000000 0.000000
vt 0.000000 0.000000
vt 0.000000 0.000000
vt 0.000000 0.000000
vt 0.000000 0.000000
vt 0.000000 0.000000
vt 0.000000 0.000000
vt 0.000000 0.000000
vt 0.000000 0.000000
vt 0.000000 0.000000
vt 0.000000 0.000000
vt 0.000000 0.000000
vt 0.000000 0.000000
vt 0.000000 0.000000
vt 0.000000 0.000000
vt 0.000000 0.000000
vt 0.000000 0.000000
vt 0.000000 0.000000
vt 0.000000 0.000000
vt 0.000000 0.000000
vt 0.000000 0.000000
vt 0.000000 0.000000
vt 0.000000 0.000000
vt 0.000000 0.000000
vt 0.000000 0.000000
vt 0.000000 0.000000
vt 0.000000 0.000000
vt 0.000000 0.000000
vt 0.000000 0.000000
vt 0.000000 0.000000
vt 0.000000 0.000000
vt 0.000000 0.000000
vt 0.000000 0.000000
vt 0.000000 0.000000
vt 0.000000 0.000000
vt 0.000000 0.000000
vt 0.000000 0.000000
vt 0.000000 0.000000
vt 0.000000 0.000000
vt 0.000000 0.000000
vt 0.000000 0.000000
vt 0.000000 0.000000
vt 0.000000 0.000000
vt 0.000000 0.000000
vt 0.000000 0.000000
vt 0.000000 0.000000
vt 0.000000 0.000000
vt 0.000000 0.000000
vt 0.000000 0.000000
vt 0.000000 0.000000
vt 0.000000 0.000000
vt 0.000000 0.000000
vt 0.000000 0.000000
vt 0.000000 0.000000
vt 0.000000 0.000000
vt 0.000000 0.000000
vt 0.000000 0.000000
vt 0.000000 0.000000
vt 0.000000 0.000000
vt 0.000000 0.000000
vt 0.000000 0.000000
vt 0.000000 0.000000
vt 0.000000 0.000000
vt 0.000000 0.000000
vt 0.000000 0.000000
f 1/1/1 2/2/2 3/3/3
f 4/4/4 5/5/5 6/6/6
f 7/7/7 8/8/8 9/9/9
f 10/10/10 11/11/11 12/12/12
f 13/13/13 14/14/14 15/15/15
f 16/16/16 17/17/17 18/18/18
f 19/19/19 20/20/20 21/21/21
f 22/22/22 23/23/23 24/24/24
f 25/25/25 26/26/26 27/27/27
f 28/28/28 29/29/29 30/30/30
f 31/31/31 32/32/32 33/33/33
f 34/34/34 35/35/35 36/36/36
f 37/37/37 38/38/38 39/39/39
f 40/40/40 41/41/41 42/42/42
f 43/43/43 44/44/44 45/45/45
f 46/46/46 47/47/47 48/48/48
f 49/49/49 50/50/50 51/51/51
f 52/52/52 53/53/53 54/54/54
f 55/55/55 56/56/56 57/57/57
f 58/58/58 59/59/59 60/60/60
f 61/61/61 62/62/62 63/63/63
f 64/64/64 65/65/65 66/66/66
f 67/67/67 68/68/68 69/69/69
f 70/70/70 71/71/71 72/72/72
