v -1.026619 4.188066 -2.273147
v -1.037092 4.196855 -2.267670
v -1.032712 4.186249 -2.259861
v -1.039538 4.181680 -2.274574
v -1.036839 4.184208 -2.260317
v -1.041220 4.194815 -2.268125
v -1.041220 4.194815 -2.268125
v -1.036839 4.184208 -2.260317
v -1.032712 4.186249 -2.259861
v -1.026619 4.188066 -2.273147
v -1.032712 4.186249 -2.259861
v -1.026634 4.175287 -2.265825
v -1.039538 4.181680 -2.274574
v -1.030762 4.173246 -2.266280
v -1.036839 4.184208 -2.260317
v -1.032712 4.186249 -2.259861
v -1.036839 4.184208 -2.260317
v -1.030762 4.173246 -2.266280
v -1.026619 4.188066 -2.273147
v -1.026634 4.175287 -2.265825
v -1.024938 4.174932 -2.279596
v -1.039538 4.181680 -2.274574
v -1.029065 4.172891 -2.280052
v -1.030762 4.173246 -2.266280
v -1.030762 4.173246 -2.266280
v -1.029065 4.172891 -2.280052
v -1.024938 4.174932 -2.279596
v -1.026619 4.188066 -2.273147
v -1.024938 4.174932 -2.279596
v -1.029319 4.185538 -2.287404
v -1.039538 4.181680 -2.274574
v -1.033446 4.183497 -2.287860
v -1.029065 4.172891 -2.280052
v -1.024938 4.174932 -2.279596
v -1.029065 4.172891 -2.280052
v -1.033446 4.183497 -2.287860
v -1.026619 4.188066 -2.273147
v -1.029319 4.185538 -2.287404
v -1.035396 4.196499 -2.281441
v -1.039538 4.181680 -2.274574
v -1.039523 4.194459 -2.281897
v -1.033446 4.183497 -2.287860
v -1.033446 4.183497 -2.287860
v -1.039523 4.194459 -2.281897
v -1.035396 4.196499 -2.281441
v -1.026619 4.188066 -2.273147
v -1.035396 4.196499 -2.281441
v -1.037092 4.196855 -2.267670
v -1.039538 4.181680 -2.274574
v -1.041220 4.194815 -2.268125
v -1.039523 4.194459 -2.281897
v -1.039523 4.194459 -2.281897
v -1.041220 4.194815 -2.268125
v -1.037092 4.196855 -2.267670
v -1.037092 4.196855 -2.267670
v -1.026634 4.175287 -2.265825
v -1.032712 4.186249 -2.259861
v -1.030762 4.173246 -2.266280
v -1.026634 4.175287 -2.265825
v -1.030762 4.173246 -2.266280
v -1.024938 4.174932 -2.279596
v -1.029319 4.185538 -2.287404
v -1.024938 4.174932 -2.279596
v -1.033446 4.183497 -2.287860
v -1.029319 4.185538 -2.287404
v -1.033446 4.183497 -2.287860
v -1.035396 4.196499 -2.281441
v -1.035396 4.196499 -2.281441
v -1.039523 4.194459 -2.281897
v -1.037092 4.196855 -2.267670
vn 0.702800 0.586600 0.402500
vn 0.702800 0.586600 0.402500
vn 0.702800 0.586600 0.402500
vn -0.948100 -0.229500 0.220100
vn -0.948100 -0.229500 0.220100
vn -0.948100 -0.229500 0.220100
vn -0.323300 0.470700 0.820900
vn -0.323300 0.470700 0.820900
vn -0.323300 0.470700 0.820900
vn 0.867800 0.246300 0.431600
vn 0.867800 0.246300 0.431600
vn 0.867800 0.246300 0.431600
vn -0.783100 -0.569800 0.249200
vn -0.783100 -0.569800 0.249200
vn -0.783100 -0.569800 0.249200
vn 0.111700 -0.426400 0.897600
vn 0.111700 -0.426400 0.897600
vn 0.111700 -0.426400 0.897600
vn 0.990400 0.067700 0.120300
vn 0.990400 0.067700 0.120300
vn 0.990400 0.067700 0.120300
vn -0.660400 -0.748300 -0.062000
vn -0.660400 -0.748300 -0.062000
vn -0.660400 -0.748300 -0.062000
vn 0.435000 -0.897100 0.076700
vn 0.435000 -0.897100 0.076700
vn 0.435000 -0.897100 0.076700
vn 0.948100 0.229500 -0.220200
vn 0.948100 0.229500 -0.220200
vn 0.948100 0.229500 -0.220200
vn -0.702800 -0.586600 -0.402500
vn -0.702800 -0.586600 -0.402500
vn -0.702800 -0.586600 -0.402500
vn 0.323300 -0.470700 -0.820900
vn 0.323300 -0.470700 -0.820900
vn 0.323300 -0.470700 -0.820900
vn 0.783100 0.569800 -0.249300
vn 0.783100 0.569800 -0.249300
vn 0.783100 0.569800 -0.249300
vn -0.867800 -0.246300 -0.431600
vn -0.867800 -0.246300 -0.431600
vn -0.867800 -0.246300 -0.431600
vn -0.111600 0.426400 -0.897600
vn -0.111600 0.426400 -0.897600
vn -0.111600 0.426400 -0.897600
vn 0.660400 0.748300 0.062100
vn 0.660400 0.748300 0.062100
vn 0.660400 0.748300 0.062100
vn -0.990400 -0.067800 -0.120300
vn -0.990400 -0.067800 -0.120300
vn -0.990400 -0.067800 -0.120300
vn -0.435000 0.897100 -0.076800
vn -0.435000 0.897100 -0.076800
vn -0.435000 0.897100 -0.076800
vn -0.323300 0.470700 0.820900
vn 0.111600 -0.426400 0.897600
vn 0.111600 -0.426400 0.897600
vn 0.111600 -0.426400 0.897600
vn 0.435000 -0.897100 0.076800
vn 0.435000 -0.897100 0.076800
vn 0.435000 -0.897100 0.076800
vn 0.323400 -0.470800 -0.820900
vn 0.323400 -0.470800 -0.820900
vn 0.323400 -0.470800 -0.820900
vn -0.111700 0.426400 -0.897600
vn -0.111700 0.426400 -0.897600
vn -0.111700 0.426400 -0.897600
vn -0.435000 0.897200 -0.076800
vn -0.435000 0.897200 -0.076800
vn -0.435000 0.897200 -0.076800
vt 0.000000 0.000000
vt 0.000000 0.000000
vt 0.000000 0.000000
vt 0.000000 0.000000
vt 0.000000 0.000000
vt 0.000000 0.000000
vt 0.000000 0.000000
vt 0.000000 0.000000
vt 0.000000 0.000000
vt 0.000000 0.000000
vt 0.000000 0.000000
vt 0.000000 0.000000
vt 0.000000 0.000000
vt 0.000000 0.000000
vt 0.000000 0.000000
vt 0.000000 0.000000
vt 0.000000 0.000000
vt 0.000000 0.000000
vt 0.000000 0.000000
vt 0.000000 0.000000
vt 0.000000 0.000000
vt 0.000000 0.000000
vt 0.000000 0.000000
vt 0.000000 0.000000
vt 0.000000 0.000000
vt 0.000000 0.000000
vt 0.000000 0.000000
vt 0.000000 0.000000
vt 0.000000 0.000000
vt 0.000000 0.000000
vt 0.000000 0.000000
vt 0.000000 0.000000
vt 0.000000 0.000000
vt 0.000000 0.000000
vt 0.000000 0.000000
vt 0.000000 0.000000
vt 0.000000 0.000000
vt 0.000000 0.000000
vt 0.000000 0.000000
vt 0.000000 0.000000
vt 0.000000 0.000000
vt 0.000000 0.000000
vt 0.000000 0.000000
vt 0.000000 0.000000
vt 0.000000 0.000000
vt 0.000000 0.000000
vt 0.000000 0.000000
vt 0.000000 0.000000
vt 0.000000 0.000000
vt 0.000000 0.000000
vt 0.000000 0.000000
vt 0.000000 0.000000
vt 0.000000 0.000000
vt 0.000000 0.000000
vt 0.000000 0.000000
vt 0.000000 0.000000
vt 0.000000 0.000000
vt 0.000000 0.000000
vt 0.000000 0.000000
vt 0.000000 0.000000
vt 0.000000 0.000000
vt 0.000000 0.000000
vt 0.000000 0.000000
vt 0.000000 0.000000
vt 0.000000 0.000000
vt 0.000000 0.000000
vt 0.000000 0.000000
vt 0.000000 0.000000
vt 0.000000 0.000000
vt 0.000000 0.000000
f 1/1/1 2/2/2 3/3/3
f 4/4/4 5/5/5 6/6/6
f 7/7/7 8/8/8 9/9/9
f 10/10/10 11/11/11 12/12/12
f 13/13/13 14/14/14 15/15/15
f 16/16/16 17/17/17 18/18/18
f 19/19/19 20/20/20 21/21/21
f 22/22/22 23/23/23 24/24/24
f 25/25/25 26/26/26 27/27/27
f 28/28/28 29/29/29 30/30/30
f 31/31/31 32/32/32 33/33/33
f 34/34/34 35/35/35 36/36/36
f 37/37/37 38/38/38 39/39/39
f 40/40/40 41/41/41 42/42/42
f 43/43/43 44/44/44 45/45/45
f 46/46/46 47/47/47 48/48/48
f 49/49/49 50/50/50 51/51/51
f 52/52/52 53/53/53 54/54/54
f 55/55/55 7/7/7 9/9/9
f 56/56/56 57/57/57 58/58/58
f 59/59/59 60/60/60 61/61/61
f 62/62/62 63/63/63 64/64/64
f 65/65/65 66/66/66 67/67/67
f 68/68/68 69/69/69 70/70/70
