v -0.015867 4.188066 -1.840443
v -0.012258 4.196855 -1.851698
v -0.020860 4.186248 -1.854180
v -0.005668 4.181680 -1.848500
v -0.017602 4.184208 -1.856754
v -0.009000 4.194815 -1.854272
v -0.012258 4.196855 -1.851698
v -0.009000 4.194815 -1.854272
v -0.017602 4.184208 -1.856754
v -0.015867 4.188066 -1.840443
v -0.020860 4.186248 -1.854180
v -0.020999 4.175287 -1.845667
v -0.005668 4.181680 -1.848500
v -0.017741 4.173246 -1.848241
v -0.017602 4.184208 -1.856754
v -0.020860 4.186248 -1.854180
v -0.017602 4.184208 -1.856754
v -0.017741 4.173246 -1.848241
v -0.015867 4.188066 -1.840443
v -0.020999 4.175287 -1.845667
v -0.012535 4.174931 -1.834672
v -0.005668 4.181680 -1.848500
v -0.009277 4.172891 -1.837246
v -0.017741 4.173246 -1.848241
v -0.020999 4.175287 -1.845667
v -0.017741 4.173246 -1.848241
v -0.009277 4.172891 -1.837246
v -0.015867 4.188066 -1.840443
v -0.012535 4.174931 -1.834672
v -0.003933 4.185538 -1.832190
v -0.005668 4.181680 -1.848500
v -0.000675 4.183497 -1.834764
v -0.009277 4.172891 -1.837246
v -0.012535 4.174931 -1.834672
v -0.009277 4.172891 -1.837246
v -0.000675 4.183497 -1.834764
v -0.015867 4.188066 -1.840443
v -0.003933 4.185538 -1.832190
v -0.003795 4.196499 -1.840703
v -0.005668 4.181680 -1.848500
v -0.000536 4.194459 -1.843277
v -0.000675 4.183497 -1.834764
v -0.003933 4.185538 -1.832190
v -0.000675 4.183497 -1.834764
v -0.000536 4.194459 -1.843277
v -0.015867 4.188066 -1.840443
v -0.003795 4.196499 -1.840703
v -0.012258 4.196855 -1.851698
v -0.005668 4.181680 -1.848500
v -0.009000 4.194815 -1.854272
v -0.000536 4.194459 -1.843277
v -0.000536 4.194459 -1.843277
v -0.009000 4.194815 -1.854272
v -0.012258 4.196855 -1.851698
v -0.020860 4.186248 -1.854180
v -0.012258 4.196855 -1.851698
v -0.017602 4.184208 -1.856754
v -0.020999 4.175287 -1.845667
v -0.012535 4.174931 -1.834672
v -0.020999 4.175287 -1.845667
v -0.009277 4.172891 -1.837246
v -0.003933 4.185538 -1.832190
v -0.003795 4.196499 -1.840703
v -0.003795 4.196499 -1.840703
v -0.000536 4.194459 -1.843277
v -0.012258 4.196855 -1.851698
vn -0.783000 0.586600 0.207000
vn -0.783000 0.586600 0.207000
vn -0.783000 0.586600 0.207000
vn 0.520300 -0.229500 -0.822600
vn 0.520300 -0.229500 -0.822600
vn 0.520300 -0.229500 -0.822600
vn -0.346400 0.470700 -0.811400
vn -0.346400 0.470700 -0.811400
vn -0.346400 0.470700 -0.811400
vn -0.920900 0.246300 0.302200
vn -0.920900 0.246300 0.302200
vn -0.920900 0.246300 0.302200
vn 0.382400 -0.569700 -0.727500
vn 0.382400 -0.569700 -0.727500
vn 0.382400 -0.569700 -0.727500
vn -0.709900 -0.426400 -0.560600
vn -0.709900 -0.426400 -0.560600
vn -0.709900 -0.426400 -0.560600
vn -0.789500 0.067800 0.609900
vn -0.789500 0.067800 0.609900
vn -0.789500 0.067800 0.609900
vn 0.513700 -0.748300 -0.419600
vn 0.513700 -0.748300 -0.419600
vn 0.513700 -0.748300 -0.419600
vn -0.363600 -0.897100 0.250800
vn -0.363600 -0.897100 0.250800
vn -0.363600 -0.897100 0.250800
vn -0.520300 0.229500 0.822600
vn -0.520300 0.229500 0.822600
vn -0.520300 0.229500 0.822600
vn 0.783000 -0.586600 -0.207100
vn 0.783000 -0.586600 -0.207100
vn 0.783000 -0.586600 -0.207100
vn 0.346300 -0.470700 0.811500
vn 0.346300 -0.470700 0.811500
vn 0.346300 -0.470700 0.811500
vn -0.382400 0.569800 0.727400
vn -0.382400 0.569800 0.727400
vn -0.382400 0.569800 0.727400
vn 0.920900 -0.246300 -0.302200
vn 0.920900 -0.246300 -0.302200
vn 0.920900 -0.246300 -0.302200
vn 0.709900 0.426400 0.560600
vn 0.709900 0.426400 0.560600
vn 0.709900 0.426400 0.560600
vn -0.513700 0.748300 0.419600
vn -0.513700 0.748300 0.419600
vn -0.513700 0.748300 0.419600
vn 0.789500 -0.067800 -0.610000
vn 0.789500 -0.067800 -0.610000
vn 0.789500 -0.067800 -0.610000
vn 0.363500 0.897200 -0.250800
vn 0.363500 0.897200 -0.250800
vn 0.363500 0.897200 -0.250800
vn -0.346400 0.470800 -0.811400
vn -0.346400 0.470800 -0.811400
vn -0.346400 0.470800 -0.811400
vn -0.709900 -0.426400 -0.560600
vn -0.363500 -0.897200 0.250800
vn -0.363500 -0.897200 0.250800
vn -0.363500 -0.897200 0.250800
vn 0.346300 -0.470700 0.811500
vn 0.709900 0.426400 0.560600
vn 0.363600 0.897100 -0.250900
vn 0.363600 0.897100 -0.250900
vn 0.363600 0.897100 -0.250900
vt 0.000000 0.000000
vt 0.000000 0.000000
vt 0.000000 0.000000
vt 0.000000 0.000000
vt 0.000000 0.000000
vt 0.000000 0.000000
vt 0.000000 0.000000
vt 0.000000 0.000000
vt 0.000000 0.000000
vt 0.000000 0.000000
vt 0.000000 0.000000
vt 0.000000 0.000000
vt 0.000000 0.000000
vt 0.000000 0.000000
vt 0.000000 0.000000
vt 0.000000 0.000000
vt 0.000000 0.000000
vt 0.000000 0.000000
vt 0.000000 0.000000
vt 0.000000 0.000000
vt 0.000000 0.000000
vt 0.000000 0.000000
vt 0.000000 0.000000
vt 0.000000 0.000000
vt 0.000000 0.000000
vt 0.000000 0.000000
vt 0.000000 0.000000
vt 0.000000 0.000000
vt 0.000000 0.000000
vt 0.000000 0.000000
vt 0.000000 0.000000
vt 0.000000 0.000000
vt 0.000000 0.000000
vt 0.000000 0.000000
vt 0.000000 0.000000
vt 0.000000 0.000000
vt 0.000000 0.000000
vt 0.000000 0.000000
vt 0.000000 0.000000
vt 0.000000 0.000000
vt 0.000000 0.000000
vt 0.000000 0.000000
vt 0.000000 0.000000
vt 0.000000 0.000000
vt 0.000000 0.000000
vt 0.000000 0.000000
vt 0.000000 0.000000
vt 0.000000 0.000000
vt 0.000000 0.000000
vt 0.000000 0.000000
vt 0.000000 0.000000
vt 0.000000 0.000000
vt 0.000000 0.000000
vt 0.000000 0.000000
vt 0.000000 0.000000
vt 0.000000 0.000000
vt 0.000000 0.000000
vt 0.000000 0.000000
vt 0.000000 0.000000
vt 0.000000 0.000000
vt 0.000000 0.000000
vt 0.000000 0.000000
vt 0.000000 0.000000
vt 0.000000 0.000000
vt 0.000000 0.000000
vt 0.000000 0.000000
f 1/1/1 2/2/2 3/3/3
f 4/4/4 5/5/5 6/6/6
f 7/7/7 8/8/8 9/9/9
f 10/10/10 11/11/11 12/12/12
f 13/13/13 14/14/14 15/15/15
f 16/16/16 17/17/17 18/18/18
f 19/19/19 20/20/20 21/21/21
f 22/22/22 23/23/23 24/24/24
f 25/25/25 26/26/26 27/27/27
f 28/28/28 29/29/29 30/30/30
f 31/31/31 32/32/32 33/33/33
f 34/34/34 35/35/35 36/36/36
f 37/37/37 38/38/38 39/39/39
f 40/40/40 41/41/41 42/42/42
f 43/43/43 44/44/44 45/45/45
f 46/46/46 47/47/47 48/48/48
f 49/49/49 50/50/50 51/51/51
f 52/52/52 53/53/53 54/54/54
f 55/55/55 56/56/56 57/57/57
f 58/58/58 16/16/16 18/18/18
f 59/59/59 60/60/60 61/61/61
f 62/62/62 34/34/34 36/36/36
f 63/63/63 43/43/43 45/45/45
f 64/64/64 65/65/65 66/66/66
