v 0.484301 3.271517 -3.134210
v 0.495902 3.268492 -3.134210
v 0.495902 3.511871 -3.134210
v 0.452488 3.491480 -3.134210
v 0.452488 3.288883 -3.134210
v 0.458797 3.283837 -3.134210
v 0.557299 3.511871 -3.134210
v 0.557299 3.268492 -3.134210
v 0.568900 3.271517 -3.134210
v 0.576121 3.274312 -3.134210
v 0.576121 3.506052 -3.134210
v 0.477080 3.274312 -3.134210
v 0.477080 3.506052 -3.134210
v 0.526600 3.515232 -3.134210
v 0.526600 3.265131 -3.134210
v 0.541342 3.265930 -3.134210
v 0.594404 3.283837 -3.134210
v 0.594404 3.496527 -3.134210
v 0.511858 3.265930 -3.134210
v 0.484301 3.508847 -3.134210
v 0.511858 3.265930 -3.134210
v 0.600713 3.288883 -3.134210
v 0.600713 3.491480 -3.134210
v 0.458797 3.496527 -3.134210
v 0.568900 3.508847 -3.134210
v 0.541342 3.514433 -3.134210
v 0.511858 3.514433 -3.134210
v 0.511858 3.514433 -3.134210
vn 0.000000 0.000000 1.000000
vn 0.000000 0.000000 1.000000
vn 0.000000 0.000000 1.000000
vn 0.000000 0.000000 1.000000
vn 0.000100 0.000000 1.000000
vn 0.000000 0.000000 1.000000
vn 0.000000 0.000000 1.000000
vn 0.000000 0.000000 1.000000
vn 0.000000 0.000000 1.000000
vn 0.000000 0.000000 1.000000
vn 0.000000 0.000000 1.000000
vn 0.000000 0.000000 1.000000
vn 0.000000 0.000000 1.000000
vn 0.000000 0.000000 1.000000
vn 0.000000 0.000000 1.000000
vn 0.000000 0.000000 1.000000
vn 0.000000 0.000000 1.000000
vn 0.000000 0.000000 1.000000
vn 0.000000 0.000000 1.000000
vn 0.000000 0.000000 1.000000
vn 0.000000 0.000000 1.000000
vn -0.000100 0.000000 1.000000
vn 0.000000 0.000000 1.000000
vn 0.000000 0.000000 1.000000
vn 0.000000 0.000000 1.000000
vn 0.000000 0.000000 1.000000
vn 0.000000 0.000000 1.000000
vn 0.000000 0.000000 1.000000
vt 0.051198 0.884912
vt 0.038341 0.884083
vt 0.026335 0.950788
vt 0.061091 0.945199
vt 0.079441 0.889672
vt 0.074727 0.888289
vt 0.769664 0.950788
vt 0.757658 0.884083
vt 0.744801 0.884912
vt 0.737469 0.885678
vt 0.754150 0.949193
vt 0.058530 0.885678
vt 0.041849 0.949193
vt 0.795999 0.951709
vt 0.795999 0.883162
vt 0.777050 0.883381
vt 0.721272 0.888289
vt 0.739760 0.946583
vt 0.814948 0.883381
vt 0.035969 0.949959
vt 0.018949 0.883381
vt 0.716558 0.889672
vt 0.734908 0.945199
vt 0.056239 0.946583
vt 0.760030 0.949959
vt 0.783254 0.951490
vt 0.808744 0.951490
vt 0.012745 0.951490
f 1/1/1 2/2/2 3/3/3
f 4/4/4 5/5/5 6/6/6
f 7/7/7 8/8/8 9/9/9
f 9/9/9 10/10/10 11/11/11
f 6/6/6 12/12/12 13/13/13
f 14/14/14 15/15/15 16/16/16
f 17/17/17 18/18/18 11/11/11
f 19/19/19 15/15/15 14/14/14
f 20/20/20 13/13/13 12/12/12
f 3/3/3 2/2/2 21/21/21
f 16/16/16 8/8/8 7/7/7
f 17/17/17 22/22/22 23/23/23
f 20/20/20 1/1/1 3/3/3
f 24/24/24 4/4/4 6/6/6
f 25/25/25 7/7/7 9/9/9
f 25/25/25 9/9/9 11/11/11
f 24/24/24 6/6/6 13/13/13
f 26/26/26 14/14/14 16/16/16
f 10/10/10 17/17/17 11/11/11
f 27/27/27 19/19/19 14/14/14
f 1/1/1 20/20/20 12/12/12
f 28/28/28 3/3/3 21/21/21
f 26/26/26 16/16/16 7/7/7
f 18/18/18 17/17/17 23/23/23
