v 0.477080 2.792557 -3.282436
v 0.477080 3.013981 -3.282436
v 0.484301 3.016776 -3.282436
v 0.568900 3.016776 -3.282436
v 0.576121 3.013981 -3.282436
v 0.576121 2.792557 -3.282436
v 0.594404 3.004456 -3.282436
v 0.541342 3.022362 -3.282436
v 0.557299 3.019801 -3.282436
v 0.557299 2.786737 -3.282436
v 0.458797 2.802082 -3.282436
v 0.452488 2.807128 -3.282436
v 0.452488 2.999410 -3.282436
v 0.495902 2.786737 -3.282436
v 0.484301 2.789762 -3.282436
v 0.495902 3.019801 -3.282436
v 0.511858 3.022362 -3.282436
v 0.511859 2.784175 -3.282436
v 0.526600 3.023162 -3.282436
v 0.526600 2.783376 -3.282436
v 0.526600 2.783376 -3.282436
v 0.526600 3.023162 -3.282436
v 0.458797 3.004456 -3.282436
v 0.568900 2.789762 -3.282436
v 0.600713 2.999410 -3.282436
v 0.600713 2.807128 -3.282436
v 0.594404 2.802082 -3.282436
v 0.541342 2.784175 -3.282436
vn 0.000000 0.000000 -1.000000
vn 0.000000 0.000000 -1.000000
vn 0.000000 0.000000 -1.000000
vn 0.000000 0.000000 -1.000000
vn 0.000000 0.000000 -1.000000
vn 0.000000 0.000000 -1.000000
vn 0.000000 0.000000 -1.000000
vn 0.000000 0.000000 -1.000000
vn 0.000000 0.000000 -1.000000
vn 0.000000 0.000000 -1.000000
vn 0.000000 0.000000 -1.000000
vn -0.000100 0.000000 -1.000000
vn 0.000000 0.000000 -1.000000
vn 0.000000 0.000000 -1.000000
vn 0.000000 0.000000 -1.000000
vn 0.000000 0.000000 -1.000000
vn 0.000000 0.000000 -1.000000
vn 0.000000 0.000000 -1.000000
vn 0.000000 0.000000 -1.000000
vn 0.000000 0.000000 -1.000000
vn 0.000000 0.000000 -1.000000
vn 0.000000 0.000000 -1.000000
vn 0.000000 0.000000 -1.000000
vn 0.000000 0.000000 -1.000000
vn 0.000100 0.000000 -1.000000
vn 0.000000 0.000000 -1.000000
vn 0.000000 0.000000 -1.000000
vn 0.000000 0.000000 -1.000000
vt 0.040054 0.745604
vt 0.031609 0.806291
vt 0.027077 0.807057
vt 0.768922 0.807057
vt 0.764390 0.806291
vt 0.755945 0.745604
vt 0.753094 0.803681
vt 0.786487 0.808588
vt 0.776264 0.807886
vt 0.770465 0.744009
vt 0.052780 0.748214
vt 0.056759 0.749597
vt 0.046778 0.802297
vt 0.025534 0.744009
vt 0.034639 0.744838
vt 0.019735 0.807886
vt 0.009512 0.808588
vt 0.012432 0.743306
vt 0.000000 0.808807
vt 0.000000 0.743087
vt 0.795999 0.743087
vt 0.795999 0.808807
vt 0.042905 0.803681
vt 0.761360 0.744838
vt 0.749221 0.802297
vt 0.739240 0.749597
vt 0.743219 0.748214
vt 0.783567 0.743306
f 1/1/1 2/2/2 3/3/3
f 4/4/4 5/5/5 6/6/6
f 6/6/6 5/5/5 7/7/7
f 8/8/8 9/9/9 10/10/10
f 11/11/11 12/12/12 13/13/13
f 14/14/14 15/15/15 3/3/3
f 16/16/16 17/17/17 18/18/18
f 17/17/17 19/19/19 20/20/20
f 21/21/21 22/22/22 8/8/8
f 23/23/23 2/2/2 1/1/1
f 9/9/9 4/4/4 24/24/24
f 7/7/7 25/25/25 26/26/26
f 15/15/15 1/1/1 3/3/3
f 24/24/24 4/4/4 6/6/6
f 27/27/27 6/6/6 7/7/7
f 28/28/28 8/8/8 10/10/10
f 23/23/23 11/11/11 13/13/13
f 16/16/16 14/14/14 3/3/3
f 14/14/14 16/16/16 18/18/18
f 18/18/18 17/17/17 20/20/20
f 28/28/28 21/21/21 8/8/8
f 11/11/11 23/23/23 1/1/1
f 10/10/10 9/9/9 24/24/24
f 27/27/27 7/7/7 26/26/26
