v 0.508405 2.642644 -3.164396
v 0.517325 2.642644 -3.161690
v 0.518574 2.646619 -3.167969
v 0.517325 2.642644 -3.254956
v 0.518574 2.646619 -3.248677
v 0.526600 2.646619 -3.249467
v 0.482673 2.642644 -3.226518
v 0.479968 2.642644 -3.217599
v 0.486247 2.646619 -3.216350
v 0.560221 2.642644 -3.174702
v 0.555694 2.646619 -3.179230
v 0.549459 2.646619 -3.174113
v 0.535876 2.642644 -3.254956
v 0.526600 2.642644 -3.255869
v 0.526600 2.646619 -3.249467
v 0.573233 2.642644 -3.217599
v 0.566954 2.646619 -3.216350
v 0.567745 2.646619 -3.208323
v 0.574147 2.642644 -3.208323
v 0.566954 2.646619 -3.200296
v 0.544796 2.642644 -3.164396
v 0.553016 2.642644 -3.168790
v 0.482673 2.642644 -3.190128
v 0.487067 2.642644 -3.181908
v 0.492390 2.646619 -3.185465
v 0.566134 2.642644 -3.234738
v 0.560221 2.642644 -3.241943
v 0.555694 2.646619 -3.237416
v 0.566134 2.642644 -3.181908
v 0.560811 2.646619 -3.185464
v 0.570528 2.642644 -3.226518
v 0.564613 2.646619 -3.224068
v 0.487067 2.642644 -3.234738
v 0.492390 2.646619 -3.231181
v 0.497507 2.646619 -3.237416
v 0.479968 2.642644 -3.199047
v 0.486247 2.646619 -3.200296
v 0.485456 2.646619 -3.208323
v 0.492980 2.642644 -3.241943
v 0.503742 2.646619 -3.242533
v 0.500185 2.642644 -3.247856
v 0.510855 2.646619 -3.246335
v 0.553016 2.642644 -3.247856
v 0.544796 2.642644 -3.252250
v 0.542346 2.646619 -3.246335
v 0.570528 2.642644 -3.190128
v 0.564613 2.646619 -3.192578
v 0.510855 2.646619 -3.170311
v 0.503742 2.646619 -3.174113
v 0.549459 2.646619 -3.242533
v 0.500185 2.642644 -3.168790
v 0.497507 2.646619 -3.179230
v 0.535876 2.642644 -3.161690
v 0.542346 2.646619 -3.170311
v 0.573233 2.642644 -3.199047
v 0.492980 2.642644 -3.174703
v 0.488588 2.646619 -3.224068
v 0.534627 2.646619 -3.248677
v 0.479054 2.642644 -3.208323
v 0.560811 2.646619 -3.231181
v 0.508405 2.642644 -3.252250
v 0.526600 2.642644 -3.160777
v 0.534627 2.646619 -3.167969
v 0.526600 2.646619 -3.167179
v 0.518574 2.646619 -3.167969
v 0.488588 2.646619 -3.192578
v 0.526600 2.642644 -3.255869
v 0.517325 2.642644 -3.161690
vn -0.201800 0.849500 0.487300
vn -0.102900 0.849600 0.517300
vn -0.102900 0.849500 0.517300
vn -0.102900 0.849500 -0.517300
vn -0.102900 0.849500 -0.517300
vn 0.000000 0.849600 -0.527500
vn -0.487300 0.849600 -0.201800
vn -0.517300 0.849500 -0.102900
vn -0.517300 0.849600 -0.102900
vn 0.373000 0.849600 0.372900
vn 0.372900 0.849600 0.373000
vn 0.293000 0.849600 0.438600
vn 0.102900 0.849500 -0.517300
vn 0.000000 0.849600 -0.527400
vn 0.000000 0.849600 -0.527500
vn 0.517300 0.849500 -0.102900
vn 0.517300 0.849600 -0.102900
vn 0.527500 0.849500 0.000000
vn 0.527500 0.849600 0.000000
vn 0.517300 0.849600 0.102900
vn 0.201800 0.849600 0.487300
vn 0.293000 0.849600 0.438600
vn -0.487300 0.849600 0.201800
vn -0.438600 0.849600 0.293000
vn -0.438600 0.849500 0.293000
vn 0.438600 0.849600 -0.293000
vn 0.373000 0.849600 -0.373000
vn 0.373000 0.849600 -0.372900
vn 0.438600 0.849500 0.293000
vn 0.438600 0.849600 0.293000
vn 0.487300 0.849600 -0.201800
vn 0.487300 0.849600 -0.201800
vn -0.438600 0.849600 -0.293000
vn -0.438600 0.849500 -0.293000
vn -0.373000 0.849500 -0.373000
vn -0.517300 0.849600 0.102900
vn -0.517300 0.849600 0.102900
vn -0.527500 0.849600 0.000000
vn -0.373000 0.849600 -0.373000
vn -0.293000 0.849600 -0.438600
vn -0.293000 0.849600 -0.438600
vn -0.201800 0.849500 -0.487300
vn 0.293000 0.849500 -0.438600
vn 0.201800 0.849500 -0.487300
vn 0.201800 0.849600 -0.487300
vn 0.487300 0.849600 0.201800
vn 0.487300 0.849600 0.201800
vn -0.201800 0.849600 0.487300
vn -0.293000 0.849600 0.438600
vn 0.293000 0.849600 -0.438500
vn -0.293000 0.849500 0.438600
vn -0.373000 0.849500 0.373000
vn 0.102900 0.849600 0.517300
vn 0.201800 0.849600 0.487300
vn 0.517300 0.849600 0.102900
vn -0.373000 0.849600 0.373000
vn -0.487300 0.849600 -0.201800
vn 0.102900 0.849500 -0.517300
vn -0.527500 0.849600 0.000000
vn 0.438600 0.849600 -0.293000
vn -0.201800 0.849500 -0.487300
vn 0.000000 0.849600 0.527500
vn 0.102900 0.849600 0.517300
vn 0.000000 0.849500 0.527500
vn -0.102900 0.849500 0.517300
vn -0.487300 0.849500 0.201800
vn 0.000000 0.849600 -0.527400
vn -0.102900 0.849600 0.517300
vt 0.155612 0.710915
vt 0.149358 0.711062
vt 0.081174 0.711811
vt 0.012289 0.706006
vt 0.011277 0.707435
vt 0.000000 0.707393
vt 0.073149 0.707547
vt 0.085072 0.708031
vt 0.076779 0.709188
vt 0.655096 0.710357
vt 0.678496 0.711201
vt 0.677261 0.711478
vt 0.783710 0.706006
vt 0.795999 0.705956
vt 0.795999 0.707393
vt 0.710927 0.708031
vt 0.719220 0.709188
vt 0.709204 0.709623
vt 0.699150 0.708534
vt 0.699745 0.710058
vt 0.640387 0.710915
vt 0.646158 0.710677
vt 0.119750 0.709520
vt 0.130663 0.709966
vt 0.112267 0.710863
vt 0.734884 0.707102
vt 0.747007 0.706711
vt 0.751240 0.708046
vt 0.665336 0.709966
vt 0.683732 0.710863
vt 0.722850 0.707547
vt 0.729630 0.708770
vt 0.061115 0.707102
vt 0.055670 0.708384
vt 0.044759 0.708046
vt 0.108433 0.709037
vt 0.096254 0.710058
vt 0.086795 0.709623
vt 0.048992 0.706711
vt 0.033694 0.707769
vt 0.036801 0.706391
vt 0.022520 0.707562
vt 0.759198 0.706391
vt 0.771438 0.706152
vt 0.773479 0.707562
vt 0.676249 0.709520
vt 0.691104 0.710477
vt 0.111271 0.711684
vt 0.118738 0.711478
vt 0.762305 0.707769
vt 0.149841 0.710677
vt 0.117503 0.711201
vt 0.646641 0.711062
vt 0.684728 0.711684
vt 0.687566 0.709037
vt 0.140903 0.710357
vt 0.066369 0.708770
vt 0.784722 0.707435
vt 0.096849 0.708534
vt 0.740329 0.708384
vt 0.024561 0.706152
vt 0.795999 0.711112
vt 0.714825 0.711811
vt 0.795999 0.711854
vt 0.877173 0.711811
vt 0.104895 0.710477
vt 0.000000 0.705956
vt 0.945357 0.711062
f 1/1/1 2/2/2 3/3/3
f 4/4/4 5/5/5 6/6/6
f 7/7/7 8/8/8 9/9/9
f 10/10/10 11/11/11 12/12/12
f 13/13/13 14/14/14 15/15/15
f 16/16/16 17/17/17 18/18/18
f 19/19/19 18/18/18 20/20/20
f 21/21/21 22/22/22 12/12/12
f 23/23/23 24/24/24 25/25/25
f 26/26/26 27/27/27 28/28/28
f 10/10/10 29/29/29 30/30/30
f 31/31/31 32/32/32 17/17/17
f 33/33/33 34/34/34 35/35/35
f 36/36/36 37/37/37 38/38/38
f 39/39/39 35/35/35 40/40/40
f 41/41/41 40/40/40 42/42/42
f 43/43/43 44/44/44 45/45/45
f 46/46/46 47/47/47 30/30/30
f 1/1/1 48/48/48 49/49/49
f 27/27/27 43/43/43 50/50/50
f 51/51/51 49/49/49 52/52/52
f 53/53/53 21/21/21 54/54/54
f 55/55/55 20/20/20 47/47/47
f 24/24/24 56/56/56 52/52/52
f 33/33/33 7/7/7 57/57/57
f 13/13/13 58/58/58 45/45/45
f 59/59/59 38/38/38 9/9/9
f 26/26/26 60/60/60 32/32/32
f 4/4/4 61/61/61 42/42/42
f 62/62/62 53/53/53 63/63/63
f 62/62/62 64/64/64 65/65/65
f 36/36/36 23/23/23 66/66/66
f 48/48/48 1/1/1 3/3/3
f 67/67/67 4/4/4 6/6/6
f 57/57/57 7/7/7 9/9/9
f 22/22/22 10/10/10 12/12/12
f 58/58/58 13/13/13 15/15/15
f 19/19/19 16/16/16 18/18/18
f 55/55/55 19/19/19 20/20/20
f 54/54/54 21/21/21 12/12/12
f 66/66/66 23/23/23 25/25/25
f 60/60/60 26/26/26 28/28/28
f 11/11/11 10/10/10 30/30/30
f 16/16/16 31/31/31 17/17/17
f 39/39/39 33/33/33 35/35/35
f 59/59/59 36/36/36 38/38/38
f 41/41/41 39/39/39 40/40/40
f 61/61/61 41/41/41 42/42/42
f 50/50/50 43/43/43 45/45/45
f 29/29/29 46/46/46 30/30/30
f 51/51/51 1/1/1 49/49/49
f 28/28/28 27/27/27 50/50/50
f 56/56/56 51/51/51 52/52/52
f 63/63/63 53/53/53 54/54/54
f 46/46/46 55/55/55 47/47/47
f 25/25/25 24/24/24 52/52/52
f 34/34/34 33/33/33 57/57/57
f 44/44/44 13/13/13 45/45/45
f 8/8/8 59/59/59 9/9/9
f 31/31/31 26/26/26 32/32/32
f 5/5/5 4/4/4 42/42/42
f 64/64/64 62/62/62 63/63/63
f 68/68/68 62/62/62 65/65/65
f 37/37/37 36/36/36 66/66/66
