v -1.017614 4.615049 -2.209916
v -1.016721 4.617000 -2.212070
v -1.019707 4.617000 -2.213666
v -1.023974 4.615049 -2.241888
v -1.022325 4.617000 -2.240239
v -1.019708 4.617000 -2.242387
v -0.990886 4.615049 -2.231851
v -0.993173 4.617000 -2.231396
v -0.992841 4.617000 -2.228027
v -1.026412 4.615049 -2.217136
v -1.024473 4.617000 -2.218431
v -1.026069 4.617000 -2.221417
v -0.993813 4.615049 -2.217136
v -0.992001 4.615049 -2.220525
v -0.994156 4.617000 -2.221417
v -1.013937 4.615049 -2.247253
v -1.013482 4.617000 -2.244966
v -1.010112 4.617000 -2.245298
v -1.029715 4.615049 -2.228027
v -1.027383 4.617000 -2.228027
v -1.027051 4.617000 -2.231396
v -1.002610 4.615049 -2.209916
v -0.999221 4.615049 -2.211727
v -1.000517 4.617000 -2.213666
v -1.002610 4.615049 -2.246138
v -1.003503 4.617000 -2.243983
v -1.000517 4.617000 -2.242387
v -1.013937 4.615049 -2.208800
v -1.010112 4.615049 -2.208424
v -1.010112 4.617000 -2.210756
v -0.992001 4.615049 -2.235528
v -0.993813 4.615049 -2.238918
v -0.995752 4.617000 -2.237622
v -1.023974 4.615049 -2.214165
v -1.021003 4.615049 -2.211727
v -1.021003 4.615049 -2.244326
v -1.016722 4.617000 -2.243983
v -0.990509 4.615049 -2.228027
v -0.993173 4.617000 -2.224657
v -1.029339 4.615049 -2.224202
v -1.028223 4.615049 -2.220525
v -0.995752 4.617000 -2.218431
v -0.997900 4.617000 -2.215814
v -1.006288 4.615049 -2.247253
v -1.010112 4.615049 -2.247630
v -1.029339 4.615049 -2.231851
v -1.026069 4.617000 -2.234636
v -1.006288 4.615049 -2.208800
v -1.003503 4.617000 -2.212070
v -0.996251 4.615049 -2.241888
v -0.999221 4.615049 -2.244326
v -1.013482 4.617000 -2.211087
v -1.026412 4.615049 -2.238918
v -1.024473 4.617000 -2.237622
v -0.994156 4.617000 -2.234636
v -1.022325 4.617000 -2.215814
v -1.017614 4.615049 -2.246138
v -0.990886 4.615049 -2.224202
v -1.027051 4.617000 -2.224657
v -0.996251 4.615049 -2.214165
v -1.028223 4.615049 -2.235528
v -1.006743 4.617000 -2.244966
v -1.006743 4.617000 -2.211087
v -0.997900 4.617000 -2.240239
vn -0.245600 0.766900 0.592900
vn -0.245600 0.767000 0.592800
vn -0.356500 0.766900 0.533500
vn -0.453700 0.767000 -0.453700
vn -0.453700 0.767000 -0.453700
vn -0.356500 0.767000 -0.533500
vn 0.629400 0.766900 -0.125200
vn 0.629400 0.766900 -0.125200
vn 0.641700 0.767000 0.000000
vn -0.533600 0.766900 0.356500
vn -0.533600 0.766900 0.356500
vn -0.592900 0.766900 0.245600
vn 0.533600 0.766900 0.356500
vn 0.592800 0.767000 0.245500
vn 0.592900 0.766900 0.245600
vn -0.125200 0.766900 -0.629400
vn -0.125200 0.766900 -0.629400
vn 0.000000 0.767000 -0.641700
vn -0.641700 0.766900 0.000000
vn -0.641700 0.767000 -0.000000
vn -0.629400 0.766900 -0.125200
vn 0.245600 0.766900 0.592800
vn 0.356500 0.766900 0.533600
vn 0.356500 0.767000 0.533500
vn 0.245600 0.767000 -0.592800
vn 0.245600 0.767000 -0.592800
vn 0.356500 0.766900 -0.533500
vn -0.125200 0.766900 0.629400
vn 0.000000 0.767000 0.641700
vn 0.000000 0.766900 0.641700
vn 0.592900 0.766900 -0.245500
vn 0.533600 0.766900 -0.356500
vn 0.533600 0.766900 -0.356500
vn -0.453700 0.766900 0.453700
vn -0.356500 0.766900 0.533600
vn -0.356500 0.766900 -0.533500
vn -0.245600 0.766900 -0.592900
vn 0.641700 0.767000 0.000000
vn 0.629400 0.766900 0.125200
vn -0.629400 0.766900 0.125200
vn -0.592900 0.767000 0.245500
vn 0.533600 0.766900 0.356500
vn 0.453700 0.767000 0.453700
vn 0.125200 0.767000 -0.629300
vn 0.000000 0.766900 -0.641700
vn -0.629400 0.766900 -0.125100
vn -0.592900 0.766900 -0.245500
vn 0.125200 0.766900 0.629400
vn 0.245600 0.767000 0.592800
vn 0.453700 0.766900 -0.453700
vn 0.356500 0.766900 -0.533500
vn -0.125200 0.766900 0.629400
vn -0.533600 0.766900 -0.356500
vn -0.533600 0.766900 -0.356500
vn 0.592800 0.767000 -0.245600
vn -0.453700 0.766900 0.453800
vn -0.245600 0.766900 -0.592900
vn 0.629400 0.766900 0.125100
vn -0.629400 0.766900 0.125300
vn 0.453700 0.766900 0.453800
vn -0.592900 0.767000 -0.245500
vn 0.125200 0.767000 -0.629300
vn 0.125200 0.766900 0.629400
vn 0.453800 0.766900 -0.453800
vt 0.000000 0.000000
vt 0.000000 0.000000
vt 0.000000 0.000000
vt 0.000000 0.000000
vt 0.000000 0.000000
vt 0.000000 0.000000
vt 0.000000 0.000000
vt 0.000000 0.000000
vt 0.000000 0.000000
vt 0.000000 0.000000
vt 0.000000 0.000000
vt 0.000000 0.000000
vt 0.000000 0.000000
vt 0.000000 0.000000
vt 0.000000 0.000000
vt 0.000000 0.000000
vt 0.000000 0.000000
vt 0.000000 0.000000
vt 0.000000 0.000000
vt 0.000000 0.000000
vt 0.000000 0.000000
vt 0.000000 0.000000
vt 0.000000 0.000000
vt 0.000000 0.000000
vt 0.000000 0.000000
vt 0.000000 0.000000
vt 0.000000 0.000000
vt 0.000000 0.000000
vt 0.000000 0.000000
vt 0.000000 0.000000
vt 0.000000 0.000000
vt 0.000000 0.000000
vt 0.000000 0.000000
vt 0.000000 0.000000
vt 0.000000 0.000000
vt 0.000000 0.000000
vt 0.000000 0.000000
vt 0.000000 0.000000
vt 0.000000 0.000000
vt 0.000000 0.000000
vt 0.000000 0.000000
vt 0.000000 0.000000
vt 0.000000 0.000000
vt 0.000000 0.000000
vt 0.000000 0.000000
vt 0.000000 0.000000
vt 0.000000 0.000000
vt 0.000000 0.000000
vt 0.000000 0.000000
vt 0.000000 0.000000
vt 0.000000 0.000000
vt 0.000000 0.000000
vt 0.000000 0.000000
vt 0.000000 0.000000
vt 0.000000 0.000000
vt 0.000000 0.000000
vt 0.000000 0.000000
vt 0.000000 0.000000
vt 0.000000 0.000000
vt 0.000000 0.000000
vt 0.000000 0.000000
vt 0.000000 0.000000
vt 0.000000 0.000000
vt 0.000000 0.000000
f 1/1/1 2/2/2 3/3/3
f 4/4/4 5/5/5 6/6/6
f 7/7/7 8/8/8 9/9/9
f 10/10/10 11/11/11 12/12/12
f 13/13/13 14/14/14 15/15/15
f 16/16/16 17/17/17 18/18/18
f 19/19/19 20/20/20 21/21/21
f 22/22/22 23/23/23 24/24/24
f 25/25/25 26/26/26 27/27/27
f 28/28/28 29/29/29 30/30/30
f 31/31/31 32/32/32 33/33/33
f 34/34/34 35/35/35 3/3/3
f 36/36/36 6/6/6 37/37/37
f 38/38/38 9/9/9 39/39/39
f 40/40/40 41/41/41 12/12/12
f 13/13/13 42/42/42 43/43/43
f 44/44/44 45/45/45 18/18/18
f 46/46/46 21/21/21 47/47/47
f 48/48/48 22/22/22 49/49/49
f 50/50/50 51/51/51 27/27/27
f 1/1/1 28/28/28 52/52/52
f 53/53/53 54/54/54 5/5/5
f 31/31/31 55/55/55 8/8/8
f 34/34/34 56/56/56 11/11/11
f 57/57/57 37/37/37 17/17/17
f 58/58/58 39/39/39 15/15/15
f 40/40/40 59/59/59 20/20/20
f 23/23/23 60/60/60 43/43/43
f 53/53/53 61/61/61 47/47/47
f 25/25/25 44/44/44 62/62/62
f 48/48/48 63/63/63 30/30/30
f 50/50/50 64/64/64 33/33/33
f 35/35/35 1/1/1 3/3/3
f 36/36/36 4/4/4 6/6/6
f 38/38/38 7/7/7 9/9/9
f 41/41/41 10/10/10 12/12/12
f 42/42/42 13/13/13 15/15/15
f 45/45/45 16/16/16 18/18/18
f 46/46/46 19/19/19 21/21/21
f 49/49/49 22/22/22 24/24/24
f 51/51/51 25/25/25 27/27/27
f 52/52/52 28/28/28 30/30/30
f 55/55/55 31/31/31 33/33/33
f 56/56/56 34/34/34 3/3/3
f 57/57/57 36/36/36 37/37/37
f 58/58/58 38/38/38 39/39/39
f 59/59/59 40/40/40 12/12/12
f 60/60/60 13/13/13 43/43/43
f 62/62/62 44/44/44 18/18/18
f 61/61/61 46/46/46 47/47/47
f 63/63/63 48/48/48 49/49/49
f 64/64/64 50/50/50 27/27/27
f 2/2/2 1/1/1 52/52/52
f 4/4/4 53/53/53 5/5/5
f 7/7/7 31/31/31 8/8/8
f 10/10/10 34/34/34 11/11/11
f 16/16/16 57/57/57 17/17/17
f 14/14/14 58/58/58 15/15/15
f 19/19/19 40/40/40 20/20/20
f 24/24/24 23/23/23 43/43/43
f 54/54/54 53/53/53 47/47/47
f 26/26/26 25/25/25 62/62/62
f 29/29/29 48/48/48 30/30/30
f 32/32/32 50/50/50 33/33/33
