v 0.260898 0.934998 -2.732744
v 0.271062 0.932439 -2.752002
v -0.128890 0.932439 -2.963090
v -0.130316 0.854884 -2.960388
v 0.269636 0.854884 -2.749300
v 0.253895 0.858846 -2.719476
v 0.260898 0.934998 -2.732744
v -0.139054 0.934998 -2.943832
v -0.140492 0.934548 -2.941108
v 0.259460 0.934548 -2.730020
v -0.140492 0.934548 -2.941108
v -0.141633 0.932619 -2.938947
v 0.258320 0.932619 -2.727859
v -0.141633 0.932619 -2.938947
v -0.142170 0.929726 -2.937929
v -0.142170 0.929726 -2.937929
v -0.146057 0.858846 -2.930564
v 0.253895 0.858846 -2.719476
v -0.128890 0.932439 -2.963090
v 0.271062 0.932439 -2.752002
v 0.272413 0.931288 -2.754561
v -0.127540 0.931288 -2.965649
v 0.272413 0.931288 -2.754561
v 0.273313 0.928845 -2.756267
v -0.126639 0.928845 -2.967355
v 0.273313 0.928845 -2.756267
v 0.273523 0.925764 -2.756665
v 0.273523 0.925764 -2.756665
v 0.269636 0.854884 -2.749300
v -0.130316 0.854884 -2.960388
v -0.139054 0.934998 -2.943832
v -0.146057 0.858846 -2.930564
v 0.259460 0.934548 -2.730020
v 0.260898 0.934998 -2.732744
v -0.140492 0.934548 -2.941108
v 0.258320 0.932619 -2.727859
v 0.257782 0.929726 -2.726840
v 0.257782 0.929726 -2.726840
v -0.127540 0.931288 -2.965649
v -0.126639 0.928845 -2.967355
v -0.127540 0.931288 -2.965649
v 0.273313 0.928845 -2.756267
v -0.126429 0.925764 -2.967753
v -0.126429 0.925764 -2.967753
vn 0.054500 0.993200 -0.103200
vn 0.054500 0.993200 -0.103200
vn 0.054500 0.993200 -0.103200
vn -0.054500 -0.993200 0.103200
vn -0.054500 -0.993200 0.103200
vn -0.054500 -0.993200 0.103200
vn -0.067400 0.989500 0.127700
vn -0.067400 0.989500 0.127700
vn -0.067400 0.989500 0.127700
vn -0.289300 0.784800 0.548100
vn -0.289300 0.784800 0.548100
vn -0.289300 0.784800 0.548100
vn -0.433700 0.369700 0.821700
vn -0.433700 0.369700 0.821700
vn -0.433700 0.369700 0.821700
vn -0.463600 0.116700 0.878300
vn -0.463600 0.116700 0.878300
vn -0.463600 0.116700 0.878300
vn 0.172600 0.929100 -0.327000
vn 0.172600 0.929100 -0.327000
vn 0.172600 0.929100 -0.327000
vn 0.366300 0.619800 -0.694000
vn 0.366300 0.619800 -0.694000
vn 0.366300 0.619800 -0.694000
vn 0.461900 0.144300 -0.875100
vn 0.461900 0.144300 -0.875100
vn 0.461900 0.144300 -0.875100
vn 0.463600 -0.116700 -0.878300
vn 0.463600 -0.116700 -0.878300
vn 0.463600 -0.116700 -0.878300
vn 0.054500 0.993200 -0.103200
vn -0.054500 -0.993200 0.103200
vn -0.067400 0.989500 0.127600
vn -0.067400 0.989500 0.127600
vn -0.067400 0.989500 0.127600
vn -0.289300 0.784800 0.548100
vn -0.433700 0.369700 0.821700
vn -0.463600 0.116700 0.878300
vn 0.172600 0.929100 -0.327000
vn 0.366300 0.619800 -0.694100
vn 0.366300 0.619800 -0.694100
vn 0.366300 0.619800 -0.694100
vn 0.461900 0.144300 -0.875100
vn 0.463600 -0.116700 -0.878300
vt 0.999545 0.217261
vt 0.999545 0.267914
vt 0.000454 0.267915
vt 0.000833 0.485102
vt 0.999925 0.485101
vt 0.999925 0.563545
vt 0.999545 0.217261
vt 0.000454 0.217262
vt 0.000327 0.199825
vt 0.999419 0.199824
vt 0.000327 0.199825
vt 0.000201 0.182388
vt 0.999292 0.182387
vt 0.000201 0.182388
vt 0.000075 0.164950
vt 0.000075 0.164950
vt 0.000075 0.000075
vt 0.999165 0.000075
vt 0.000454 0.267915
vt 0.999545 0.267914
vt 0.999672 0.285351
vt 0.000580 0.285353
vt 0.999672 0.285351
vt 0.999798 0.302788
vt 0.000706 0.302790
vt 0.999798 0.302788
vt 0.999925 0.320225
vt 0.999925 0.320225
vt 0.999925 0.485101
vt 0.000833 0.485102
vt 0.000454 0.217262
vt 0.000833 0.563546
vt 0.999419 0.199824
vt 0.999545 0.217261
vt 0.000327 0.199825
vt 0.999292 0.182387
vt 0.999166 0.164950
vt 0.999166 0.164950
vt 0.000580 0.285353
vt 0.000706 0.302790
vt 0.000580 0.285353
vt 0.999798 0.302788
vt 0.000833 0.320227
vt 0.000833 0.320227
f 1/1/1 2/2/2 3/3/3
f 4/4/4 5/5/5 6/6/6
f 7/7/7 8/8/8 9/9/9
f 10/10/10 11/11/11 12/12/12
f 13/13/13 14/14/14 15/15/15
f 16/16/16 17/17/17 18/18/18
f 19/19/19 20/20/20 21/21/21
f 22/22/22 23/23/23 24/24/24
f 25/25/25 26/26/26 27/27/27
f 28/28/28 29/29/29 30/30/30
f 31/31/31 1/1/1 3/3/3
f 32/32/32 4/4/4 6/6/6
f 33/33/33 34/34/34 35/35/35
f 36/36/36 10/10/10 12/12/12
f 37/37/37 13/13/13 15/15/15
f 38/38/38 16/16/16 18/18/18
f 39/39/39 19/19/19 21/21/21
f 40/40/40 41/41/41 42/42/42
f 43/43/43 25/25/25 27/27/27
f 44/44/44 28/28/28 30/30/30
