v 0.535971 2.718733 -3.161212
v 0.536223 2.724074 -3.159948
v 0.526600 2.724074 -3.159000
v 0.526600 2.718733 -3.160289
v 0.516978 2.724074 -3.159948
v 0.479490 2.718733 -3.198952
v 0.482223 2.718733 -3.189941
v 0.481032 2.724074 -3.189448
v 0.508219 2.718733 -3.163946
v 0.517230 2.718733 -3.161212
v 0.516978 2.724074 -3.159948
v 0.517230 2.718733 -3.255434
v 0.516978 2.724074 -3.256698
v 0.526600 2.724074 -3.257646
v 0.479490 2.718733 -3.217694
v 0.478226 2.724074 -3.217945
v 0.481032 2.724074 -3.227198
v 0.560565 2.718733 -3.174358
v 0.561477 2.724074 -3.173447
v 0.554003 2.724074 -3.167313
v 0.535971 2.718733 -3.255434
v 0.526600 2.718733 -3.256356
v 0.526600 2.724074 -3.257646
v 0.574634 2.718733 -3.208323
v 0.573711 2.718733 -3.217694
v 0.574975 2.724074 -3.217945
v 0.575923 2.724074 -3.208323
v 0.574975 2.724074 -3.198701
v 0.544982 2.718733 -3.163946
v 0.553286 2.718733 -3.168385
v 0.486662 2.718733 -3.181637
v 0.485590 2.724074 -3.180921
v 0.566539 2.718733 -3.235009
v 0.560565 2.718733 -3.242288
v 0.561477 2.724074 -3.243199
v 0.566539 2.718733 -3.181637
v 0.567611 2.724074 -3.180921
v 0.570978 2.718733 -3.226705
v 0.572169 2.724074 -3.227198
v 0.492636 2.718733 -3.242288
v 0.486662 2.718733 -3.235009
v 0.485590 2.724074 -3.235725
v 0.478226 2.724074 -3.198701
v 0.477278 2.724074 -3.208323
v 0.499914 2.718733 -3.248261
v 0.491724 2.724074 -3.243199
v 0.508219 2.718733 -3.252700
v 0.499198 2.724074 -3.249333
v 0.544982 2.718733 -3.252700
v 0.545475 2.724074 -3.253891
v 0.554003 2.724074 -3.249333
v 0.570978 2.718733 -3.189941
v 0.572169 2.724074 -3.189448
v 0.499914 2.718733 -3.168385
v 0.507726 2.724074 -3.162755
v 0.553286 2.718733 -3.248261
v 0.499198 2.724074 -3.167313
v 0.491724 2.724074 -3.173447
v 0.545475 2.724074 -3.162755
v 0.573711 2.718733 -3.198952
v 0.492636 2.718733 -3.174358
v 0.482223 2.718733 -3.226705
v 0.536223 2.724074 -3.256698
v 0.478567 2.718733 -3.208323
v 0.567611 2.724074 -3.235725
v 0.507726 2.724074 -3.253891
v 0.517230 2.718733 -3.161212
v 0.526600 2.718733 -3.256356
vn 0.189600 -0.234600 0.953400
vn 0.189600 -0.234600 0.953400
vn 0.000000 -0.234500 0.972100
vn 0.000000 -0.234600 0.972100
vn -0.189600 -0.234600 0.953400
vn -0.953400 -0.234600 0.189600
vn -0.898100 -0.234600 0.372000
vn -0.898100 -0.234600 0.372000
vn -0.372000 -0.234600 0.898100
vn -0.189600 -0.234600 0.953400
vn -0.189600 -0.234600 0.953400
vn -0.189600 -0.234600 -0.953400
vn -0.189600 -0.234600 -0.953400
vn 0.000000 -0.234600 -0.972100
vn -0.953400 -0.234600 -0.189600
vn -0.953400 -0.234600 -0.189600
vn -0.898100 -0.234600 -0.372000
vn 0.687400 -0.234600 0.687300
vn 0.687400 -0.234600 0.687400
vn 0.540100 -0.234600 0.808300
vn 0.189600 -0.234600 -0.953400
vn 0.000000 -0.234600 -0.972100
vn 0.000000 -0.234600 -0.972100
vn 0.972100 -0.234600 0.000000
vn 0.953400 -0.234600 -0.189600
vn 0.953400 -0.234600 -0.189600
vn 0.972100 -0.234600 0.000000
vn 0.953400 -0.234600 0.189600
vn 0.372000 -0.234600 0.898100
vn 0.540100 -0.234600 0.808300
vn -0.808300 -0.234600 0.540100
vn -0.808300 -0.234600 0.540100
vn 0.808300 -0.234600 -0.540100
vn 0.687400 -0.234600 -0.687400
vn 0.687400 -0.234600 -0.687300
vn 0.808300 -0.234600 0.540100
vn 0.808300 -0.234600 0.540100
vn 0.898100 -0.234600 -0.372000
vn 0.898100 -0.234600 -0.372000
vn -0.687400 -0.234600 -0.687300
vn -0.808300 -0.234600 -0.540100
vn -0.808300 -0.234600 -0.540100
vn -0.953400 -0.234600 0.189600
vn -0.972100 -0.234600 0.000000
vn -0.540000 -0.234600 -0.808300
vn -0.687400 -0.234600 -0.687400
vn -0.372000 -0.234600 -0.898100
vn -0.540100 -0.234600 -0.808300
vn 0.372000 -0.234600 -0.898100
vn 0.372000 -0.234600 -0.898100
vn 0.540100 -0.234600 -0.808300
vn 0.898100 -0.234600 0.372000
vn 0.898100 -0.234600 0.372000
vn -0.540100 -0.234600 0.808300
vn -0.372000 -0.234600 0.898100
vn 0.540000 -0.234600 -0.808300
vn -0.540100 -0.234600 0.808300
vn -0.687400 -0.234600 0.687400
vn 0.372000 -0.234600 0.898100
vn 0.953400 -0.234600 0.189600
vn -0.687400 -0.234600 0.687400
vn -0.898100 -0.234600 -0.372000
vn 0.189600 -0.234600 -0.953400
vn -0.972100 -0.234600 0.000000
vn 0.808300 -0.234600 -0.540100
vn -0.372000 -0.234600 -0.898100
vn -0.189600 -0.234600 0.953400
vn 0.000000 -0.234600 -0.972100
vt 0.735560 0.731942
vt 0.733586 0.733475
vt 0.795999 0.733526
vt 0.795999 0.731992
vt 0.858412 0.733475
vt 0.089559 0.729896
vt 0.096798 0.730385
vt 0.097723 0.731875
vt 0.091659 0.731794
vt 0.060439 0.731942
vt 0.062413 0.733475
vt 0.010712 0.726834
vt 0.010777 0.728229
vt 0.000000 0.728178
vt 0.072182 0.728880
vt 0.072711 0.730330
vt 0.063035 0.729829
vt 0.690772 0.731229
vt 0.689392 0.732743
vt 0.691073 0.733075
vt 0.785287 0.726834
vt 0.795999 0.726784
vt 0.795999 0.728178
vt 0.714759 0.729388
vt 0.723817 0.728880
vt 0.723288 0.730330
vt 0.714121 0.730852
vt 0.705672 0.731374
vt 0.704340 0.731794
vt 0.692784 0.731553
vt 0.102375 0.730835
vt 0.103499 0.732338
vt 0.743359 0.727941
vt 0.753598 0.727547
vt 0.753326 0.728961
vt 0.693624 0.730835
vt 0.692500 0.732338
vt 0.733398 0.728392
vt 0.732964 0.729829
vt 0.042401 0.727547
vt 0.052640 0.727941
vt 0.052989 0.729366
vt 0.090327 0.731374
vt 0.081879 0.730852
vt 0.031961 0.727223
vt 0.042673 0.728961
vt 0.021381 0.726982
vt 0.032161 0.728629
vt 0.774618 0.726982
vt 0.774486 0.728382
vt 0.763838 0.728629
vt 0.699201 0.730385
vt 0.698276 0.731875
vt 0.103215 0.731553
vt 0.093726 0.733323
vt 0.764038 0.727223
vt 0.104926 0.733075
vt 0.106607 0.732743
vt 0.702273 0.733323
vt 0.706440 0.729896
vt 0.105227 0.731229
vt 0.062601 0.728392
vt 0.785222 0.728229
vt 0.081240 0.729388
vt 0.743010 0.729366
vt 0.021513 0.728382
vt 0.856438 0.731942
vt 0.000000 0.726784
f 1/1/1 2/2/2 3/3/3
f 4/4/4 3/3/3 5/5/5
f 6/6/6 7/7/7 8/8/8
f 9/9/9 10/10/10 11/11/11
f 12/12/12 13/13/13 14/14/14
f 15/15/15 16/16/16 17/17/17
f 18/18/18 19/19/19 20/20/20
f 21/21/21 22/22/22 23/23/23
f 24/24/24 25/25/25 26/26/26
f 24/24/24 27/27/27 28/28/28
f 29/29/29 30/30/30 20/20/20
f 31/31/31 32/32/32 8/8/8
f 33/33/33 34/34/34 35/35/35
f 18/18/18 36/36/36 37/37/37
f 38/38/38 39/39/39 26/26/26
f 40/40/40 41/41/41 42/42/42
f 6/6/6 43/43/43 44/44/44
f 45/45/45 40/40/40 46/46/46
f 47/47/47 45/45/45 48/48/48
f 49/49/49 50/50/50 51/51/51
f 52/52/52 53/53/53 37/37/37
f 54/54/54 9/9/9 55/55/55
f 34/34/34 56/56/56 51/51/51
f 54/54/54 57/57/57 58/58/58
f 29/29/29 59/59/59 2/2/2
f 60/60/60 28/28/28 53/53/53
f 61/61/61 58/58/58 32/32/32
f 41/41/41 62/62/62 17/17/17
f 21/21/21 63/63/63 50/50/50
f 15/15/15 64/64/64 44/44/44
f 33/33/33 65/65/65 39/39/39
f 12/12/12 47/47/47 66/66/66
f 4/4/4 1/1/1 3/3/3
f 67/67/67 4/4/4 5/5/5
f 43/43/43 6/6/6 8/8/8
f 55/55/55 9/9/9 11/11/11
f 68/68/68 12/12/12 14/14/14
f 62/62/62 15/15/15 17/17/17
f 30/30/30 18/18/18 20/20/20
f 63/63/63 21/21/21 23/23/23
f 27/27/27 24/24/24 26/26/26
f 60/60/60 24/24/24 28/28/28
f 59/59/59 29/29/29 20/20/20
f 7/7/7 31/31/31 8/8/8
f 65/65/65 33/33/33 35/35/35
f 19/19/19 18/18/18 37/37/37
f 25/25/25 38/38/38 26/26/26
f 46/46/46 40/40/40 42/42/42
f 64/64/64 6/6/6 44/44/44
f 48/48/48 45/45/45 46/46/46
f 66/66/66 47/47/47 48/48/48
f 56/56/56 49/49/49 51/51/51
f 36/36/36 52/52/52 37/37/37
f 57/57/57 54/54/54 55/55/55
f 35/35/35 34/34/34 51/51/51
f 61/61/61 54/54/54 58/58/58
f 1/1/1 29/29/29 2/2/2
f 52/52/52 60/60/60 53/53/53
f 31/31/31 61/61/61 32/32/32
f 42/42/42 41/41/41 17/17/17
f 49/49/49 21/21/21 50/50/50
f 16/16/16 15/15/15 44/44/44
f 38/38/38 33/33/33 39/39/39
f 13/13/13 12/12/12 66/66/66
