v -1.740947 4.946254 -3.219742
v -1.741241 4.945538 -3.219800
v -1.742422 4.945538 -3.207801
v -1.731808 4.946254 -3.173797
v -1.732057 4.945538 -3.173631
v -1.724408 4.945538 -3.164311
v -1.741240 4.945538 -3.195802
v -1.740947 4.946254 -3.195861
v -1.737464 4.946254 -3.184379
v -1.737740 4.945538 -3.184264
v -1.715088 4.945538 -3.156662
v -1.714921 4.946254 -3.156910
v -1.704454 4.945538 -3.150978
v -1.692916 4.945538 -3.147478
v -1.692858 4.946254 -3.147771
v -1.680917 4.945538 -3.146296
v -1.680917 4.946254 -3.146595
v -1.668918 4.945538 -3.147478
v -1.668977 4.946254 -3.147771
v -1.657380 4.945538 -3.150978
v -1.646747 4.945538 -3.156662
v -1.646913 4.946254 -3.156910
v -1.637426 4.945538 -3.164310
v -1.637638 4.946254 -3.164522
v -1.629778 4.945538 -3.173631
v -1.624094 4.945538 -3.184264
v -1.620594 4.945538 -3.195802
v -1.620887 4.946254 -3.195860
v -1.619412 4.945538 -3.207801
v -1.619711 4.946254 -3.207801
v -1.620594 4.945538 -3.219800
v -1.620887 4.946254 -3.219742
v -1.624094 4.945538 -3.231338
v -1.629778 4.945538 -3.241971
v -1.630026 4.946254 -3.241805
v -1.637426 4.945538 -3.251292
v -1.637638 4.946254 -3.251080
v -1.646747 4.945538 -3.258941
v -1.646913 4.946254 -3.258692
v -1.657495 4.946254 -3.264348
v -1.657380 4.945538 -3.264625
v -1.668918 4.945538 -3.268125
v -1.680917 4.945538 -3.269306
v -1.680917 4.946254 -3.269007
v -1.692916 4.945538 -3.268125
v -1.704340 4.946254 -3.264348
v -1.704454 4.945538 -3.264625
v -1.715088 4.945538 -3.258941
v -1.714921 4.946254 -3.258692
v -1.724408 4.945538 -3.251292
v -1.724196 4.946254 -3.251080
v -1.732057 4.945538 -3.241971
v -1.731808 4.946254 -3.241805
v -1.737741 4.945538 -3.231338
v -1.737464 4.946254 -3.231224
v -1.704340 4.946254 -3.151254
v -1.657495 4.946254 -3.151254
v -1.624370 4.946254 -3.184379
v -1.630026 4.946254 -3.173797
v -1.624370 4.946254 -3.231224
v -1.692858 4.946254 -3.267831
v -1.742123 4.946254 -3.207801
v -1.724196 4.946254 -3.164522
v -1.668976 4.946254 -3.267831
vn -0.905000 0.385400 -0.180000
vn -0.905000 0.385400 -0.180000
vn -0.922600 0.385700 0.000000
vn -0.767000 0.385500 0.513000
vn -0.767000 0.385400 0.513000
vn -0.652500 0.385800 0.652100
vn -0.905000 0.385500 0.180000
vn -0.905000 0.385500 0.179900
vn -0.852400 0.385400 0.353200
vn -0.852400 0.385400 0.353200
vn -0.512500 0.385600 0.767200
vn -0.512500 0.385600 0.767200
vn -0.353100 0.385900 0.852300
vn -0.180000 0.385800 0.904800
vn -0.180000 0.385800 0.904800
vn 0.000100 0.385400 0.922700
vn 0.000100 0.385400 0.922700
vn 0.179900 0.385500 0.905000
vn 0.179900 0.385500 0.905000
vn 0.353200 0.386000 0.852200
vn 0.512400 0.385700 0.767200
vn 0.512500 0.385700 0.767200
vn 0.652500 0.385900 0.652200
vn 0.652500 0.385900 0.652200
vn 0.767100 0.385500 0.512700
vn 0.852500 0.385300 0.353100
vn 0.904900 0.385700 0.179900
vn 0.904900 0.385700 0.179900
vn 0.922500 0.385900 0.000100
vn 0.922500 0.385900 0.000100
vn 0.904900 0.385500 -0.180100
vn 0.904900 0.385500 -0.180100
vn 0.852400 0.385800 -0.352900
vn 0.767200 0.385600 -0.512500
vn 0.767300 0.385600 -0.512400
vn 0.652300 0.385400 -0.652600
vn 0.652300 0.385400 -0.652500
vn 0.512300 0.385400 -0.767400
vn 0.512300 0.385400 -0.767400
vn 0.353200 0.385900 -0.852200
vn 0.353100 0.385900 -0.852200
vn 0.180000 0.385900 -0.904800
vn 0.000000 0.385000 -0.922900
vn 0.000000 0.385100 -0.922900
vn -0.179900 0.385800 -0.904900
vn -0.353100 0.385900 -0.852300
vn -0.353100 0.385900 -0.852300
vn -0.512500 0.385600 -0.767200
vn -0.512500 0.385600 -0.767200
vn -0.652300 0.385700 -0.652400
vn -0.652400 0.385700 -0.652400
vn -0.767400 0.385500 -0.512300
vn -0.767400 0.385500 -0.512300
vn -0.852300 0.385900 -0.353000
vn -0.852300 0.385900 -0.353000
vn -0.353100 0.385900 0.852300
vn 0.353200 0.386000 0.852200
vn 0.852500 0.385300 0.353100
vn 0.767100 0.385500 0.512700
vn 0.852400 0.385800 -0.352900
vn -0.180000 0.385800 -0.904800
vn -0.922600 0.385700 0.000000
vn -0.652600 0.385900 0.652100
vn 0.180000 0.385900 -0.904800
vt 0.484570 0.889332
vt 0.484487 0.889049
vt 0.485820 0.886283
vt 0.492424 0.880234
vt 0.492384 0.879907
vt 0.495156 0.878696
vt 0.487632 0.883775
vt 0.487697 0.884083
vt 0.489900 0.881941
vt 0.489848 0.881622
vt 0.498075 0.878035
vt 0.498085 0.878371
vt 0.501052 0.877950
vt 0.503997 0.878443
vt 0.503976 0.878777
vt 0.506821 0.879496
vt 0.506786 0.879825
vt 0.509436 0.881069
vt 0.509387 0.881391
vt 0.511755 0.883101
vt 0.513694 0.885514
vt 0.513622 0.885814
vt 0.515175 0.888215
vt 0.515094 0.888502
vt 0.516128 0.891101
vt 0.516493 0.894060
vt 0.516227 0.896978
vt 0.516136 0.897222
vt 0.515307 0.899745
vt 0.515219 0.899975
vt 0.513738 0.902253
vt 0.513659 0.902471
vt 0.511560 0.904405
vt 0.508845 0.906120
vt 0.508792 0.906320
vt 0.505706 0.907332
vt 0.505671 0.907525
vt 0.502285 0.907993
vt 0.502271 0.908183
vt 0.498758 0.908268
vt 0.498751 0.908078
vt 0.495279 0.907585
vt 0.492040 0.906531
vt 0.492088 0.906729
vt 0.489188 0.904959
vt 0.486919 0.903142
vt 0.486842 0.902927
vt 0.485088 0.900514
vt 0.485174 0.900741
vt 0.483976 0.897813
vt 0.484066 0.898053
vt 0.483518 0.894927
vt 0.483610 0.895181
vt 0.483701 0.891968
vt 0.483790 0.892237
vt 0.501046 0.878286
vt 0.511693 0.883413
vt 0.516402 0.894318
vt 0.516041 0.891373
vt 0.511492 0.904613
vt 0.489252 0.905164
vt 0.485895 0.886579
vt 0.495181 0.879029
vt 0.495307 0.907777
f 1/1/1 2/2/2 3/3/3
f 4/4/4 5/5/5 6/6/6
f 3/3/3 7/7/7 8/8/8
f 9/9/9 10/10/10 5/5/5
f 6/6/6 11/11/11 12/12/12
f 13/13/13 14/14/14 15/15/15
f 14/14/14 16/16/16 17/17/17
f 16/16/16 18/18/18 19/19/19
f 20/20/20 21/21/21 22/22/22
f 22/22/22 21/21/21 23/23/23
f 24/24/24 23/23/23 25/25/25
f 26/26/26 27/27/27 28/28/28
f 27/27/27 29/29/29 30/30/30
f 29/29/29 31/31/31 32/32/32
f 33/33/33 34/34/34 35/35/35
f 34/34/34 36/36/36 37/37/37
f 36/36/36 38/38/38 39/39/39
f 40/40/40 41/41/41 42/42/42
f 42/42/42 43/43/43 44/44/44
f 44/44/44 43/43/43 45/45/45
f 46/46/46 47/47/47 48/48/48
f 49/49/49 48/48/48 50/50/50
f 51/51/51 50/50/50 52/52/52
f 53/53/53 52/52/52 54/54/54
f 55/55/55 54/54/54 2/2/2
f 10/10/10 9/9/9 8/8/8
f 56/56/56 12/12/12 11/11/11
f 20/20/20 57/57/57 19/19/19
f 26/26/26 58/58/58 59/59/59
f 60/60/60 32/32/32 31/31/31
f 41/41/41 40/40/40 39/39/39
f 47/47/47 46/46/46 61/61/61
f 62/62/62 1/1/1 3/3/3
f 63/63/63 4/4/4 6/6/6
f 62/62/62 3/3/3 8/8/8
f 4/4/4 9/9/9 5/5/5
f 63/63/63 6/6/6 12/12/12
f 56/56/56 13/13/13 15/15/15
f 15/15/15 14/14/14 17/17/17
f 17/17/17 16/16/16 19/19/19
f 57/57/57 20/20/20 22/22/22
f 24/24/24 22/22/22 23/23/23
f 59/59/59 24/24/24 25/25/25
f 58/58/58 26/26/26 28/28/28
f 28/28/28 27/27/27 30/30/30
f 30/30/30 29/29/29 32/32/32
f 60/60/60 33/33/33 35/35/35
f 35/35/35 34/34/34 37/37/37
f 37/37/37 36/36/36 39/39/39
f 64/64/64 40/40/40 42/42/42
f 64/64/64 42/42/42 44/44/44
f 61/61/61 44/44/44 45/45/45
f 49/49/49 46/46/46 48/48/48
f 51/51/51 49/49/49 50/50/50
f 53/53/53 51/51/51 52/52/52
f 55/55/55 53/53/53 54/54/54
f 1/1/1 55/55/55 2/2/2
f 7/7/7 10/10/10 8/8/8
f 13/13/13 56/56/56 11/11/11
f 18/18/18 20/20/20 19/19/19
f 25/25/25 26/26/26 59/59/59
f 33/33/33 60/60/60 31/31/31
f 38/38/38 41/41/41 39/39/39
f 45/45/45 47/47/47 61/61/61
