v -1.055190 4.188066 -1.871770
v -1.058765 4.196855 -1.860505
v -1.050156 4.186249 -1.858049
v -1.065364 4.181680 -1.863683
v -1.053406 4.184209 -1.855465
v -1.062016 4.194815 -1.857921
v -1.058765 4.196855 -1.860505
v -1.062016 4.194815 -1.857921
v -1.053406 4.184209 -1.855465
v -1.055190 4.188066 -1.871770
v -1.050156 4.186249 -1.858049
v -1.050043 4.175287 -1.866562
v -1.065364 4.181680 -1.863683
v -1.053293 4.173247 -1.863978
v -1.053406 4.184209 -1.855465
v -1.050156 4.186249 -1.858049
v -1.053406 4.184209 -1.855465
v -1.053293 4.173247 -1.863978
v -1.055190 4.188066 -1.871770
v -1.050043 4.175287 -1.866562
v -1.058539 4.174932 -1.877532
v -1.065364 4.181680 -1.863683
v -1.061790 4.172892 -1.874948
v -1.053293 4.173247 -1.863978
v -1.053293 4.173247 -1.863978
v -1.061790 4.172892 -1.874948
v -1.058539 4.174932 -1.877532
v -1.055190 4.188066 -1.871770
v -1.058539 4.174932 -1.877532
v -1.067148 4.185538 -1.879988
v -1.065364 4.181680 -1.863683
v -1.070399 4.183498 -1.877404
v -1.061790 4.172892 -1.874948
v -1.061790 4.172892 -1.874948
v -1.070399 4.183498 -1.877404
v -1.067148 4.185538 -1.879988
v -1.055190 4.188066 -1.871770
v -1.067148 4.185538 -1.879988
v -1.067261 4.196500 -1.871475
v -1.065364 4.181680 -1.863683
v -1.070512 4.194459 -1.868891
v -1.070399 4.183498 -1.877404
v -1.067148 4.185538 -1.879988
v -1.070399 4.183498 -1.877404
v -1.070512 4.194459 -1.868891
v -1.055190 4.188066 -1.871770
v -1.067261 4.196500 -1.871475
v -1.058765 4.196855 -1.860505
v -1.065364 4.181680 -1.863683
v -1.062016 4.194815 -1.857921
v -1.070512 4.194459 -1.868891
v -1.067261 4.196500 -1.871475
v -1.070512 4.194459 -1.868891
v -1.062016 4.194815 -1.857921
v -1.050156 4.186249 -1.858049
v -1.058765 4.196855 -1.860505
v -1.053406 4.184209 -1.855465
v -1.050043 4.175287 -1.866562
v -1.050043 4.175287 -1.866562
v -1.053293 4.173247 -1.863978
v -1.058539 4.174932 -1.877532
v -1.058539 4.174932 -1.877532
v -1.067261 4.196500 -1.871475
v -1.067148 4.185538 -1.879988
v -1.070512 4.194459 -1.868891
v -1.058765 4.196855 -1.860505
v -1.067261 4.196500 -1.871475
v -1.062016 4.194815 -1.857921
vn 0.782400 0.586600 -0.209400
vn 0.782400 0.586600 -0.209400
vn 0.782400 0.586600 -0.209400
vn -0.517800 -0.229500 0.824100
vn -0.517800 -0.229500 0.824100
vn -0.517800 -0.229500 0.824100
vn 0.348800 0.470800 0.810300
vn 0.348800 0.470800 0.810300
vn 0.348800 0.470800 0.810300
vn 0.920000 0.246300 -0.304900
vn 0.920000 0.246300 -0.304900
vn 0.920000 0.246300 -0.304900
vn -0.380200 -0.569800 0.728600
vn -0.380200 -0.569800 0.728600
vn -0.380200 -0.569800 0.728600
vn 0.711500 -0.426400 0.558500
vn 0.711500 -0.426400 0.558500
vn 0.711500 -0.426400 0.558500
vn 0.787700 0.067800 -0.612300
vn 0.787700 0.067800 -0.612300
vn 0.787700 0.067800 -0.612300
vn -0.512500 -0.748300 0.421200
vn -0.512500 -0.748300 0.421200
vn -0.512500 -0.748300 0.421200
vn 0.362800 -0.897100 -0.252100
vn 0.362800 -0.897100 -0.252100
vn 0.362800 -0.897100 -0.252100
vn 0.517800 0.229500 -0.824100
vn 0.517800 0.229500 -0.824100
vn 0.517800 0.229500 -0.824100
vn -0.782400 -0.586600 0.209400
vn -0.782400 -0.586600 0.209400
vn -0.782400 -0.586600 0.209400
vn -0.348800 -0.470800 -0.810400
vn -0.348800 -0.470800 -0.810400
vn -0.348800 -0.470800 -0.810400
vn 0.380200 0.569800 -0.728600
vn 0.380200 0.569800 -0.728600
vn 0.380200 0.569800 -0.728600
vn -0.920000 -0.246300 0.304900
vn -0.920000 -0.246300 0.304900
vn -0.920000 -0.246300 0.304900
vn -0.711500 0.426400 -0.558500
vn -0.711500 0.426400 -0.558500
vn -0.711500 0.426400 -0.558500
vn 0.512500 0.748300 -0.421200
vn 0.512500 0.748300 -0.421200
vn 0.512500 0.748300 -0.421200
vn -0.787700 -0.067800 0.612300
vn -0.787700 -0.067800 0.612300
vn -0.787700 -0.067800 0.612300
vn -0.362900 0.897100 0.252000
vn -0.362900 0.897100 0.252000
vn -0.362900 0.897100 0.252000
vn 0.348700 0.470700 0.810500
vn 0.348700 0.470700 0.810500
vn 0.348700 0.470700 0.810500
vn 0.711500 -0.426400 0.558500
vn 0.362900 -0.897200 -0.251900
vn 0.362900 -0.897200 -0.251900
vn 0.362900 -0.897200 -0.251900
vn -0.348800 -0.470800 -0.810400
vn -0.711600 0.426400 -0.558400
vn -0.711600 0.426400 -0.558400
vn -0.711600 0.426400 -0.558400
vn -0.362800 0.897200 0.251800
vn -0.362800 0.897200 0.251800
vn -0.362800 0.897200 0.251800
vt 0.000000 0.000000
vt 0.000000 0.000000
vt 0.000000 0.000000
vt 0.000000 0.000000
vt 0.000000 0.000000
vt 0.000000 0.000000
vt 0.000000 0.000000
vt 0.000000 0.000000
vt 0.000000 0.000000
vt 0.000000 0.000000
vt 0.000000 0.000000
vt 0.000000 0.000000
vt 0.000000 0.000000
vt 0.000000 0.000000
vt 0.000000 0.000000
vt 0.000000 0.000000
vt 0.000000 0.000000
vt 0.000000 0.000000
vt 0.000000 0.000000
vt 0.000000 0.000000
vt 0.000000 0.000000
vt 0.000000 0.000000
vt 0.000000 0.000000
vt 0.000000 0.000000
vt 0.000000 0.000000
vt 0.000000 0.000000
vt 0.000000 0.000000
vt 0.000000 0.000000
vt 0.000000 0.000000
vt 0.000000 0.000000
vt 0.000000 0.000000
vt 0.000000 0.000000
vt 0.000000 0.000000
vt 0.000000 0.000000
vt 0.000000 0.000000
vt 0.000000 0.000000
vt 0.000000 0.000000
vt 0.000000 0.000000
vt 0.000000 0.000000
vt 0.000000 0.000000
vt 0.000000 0.000000
vt 0.000000 0.000000
vt 0.000000 0.000000
vt 0.000000 0.000000
vt 0.000000 0.000000
vt 0.000000 0.000000
vt 0.000000 0.000000
vt 0.000000 0.000000
vt 0.000000 0.000000
vt 0.000000 0.000000
vt 0.000000 0.000000
vt 0.000000 0.000000
vt 0.000000 0.000000
vt 0.000000 0.000000
vt 0.000000 0.000000
vt 0.000000 0.000000
vt 0.000000 0.000000
vt 0.000000 0.000000
vt 0.000000 0.000000
vt 0.000000 0.000000
vt 0.000000 0.000000
vt 0.000000 0.000000
vt 0.000000 0.000000
vt 0.000000 0.000000
vt 0.000000 0.000000
vt 0.000000 0.000000
vt 0.000000 0.000000
vt 0.000000 0.000000
f 1/1/1 2/2/2 3/3/3
f 4/4/4 5/5/5 6/6/6
f 7/7/7 8/8/8 9/9/9
f 10/10/10 11/11/11 12/12/12
f 13/13/13 14/14/14 15/15/15
f 16/16/16 17/17/17 18/18/18
f 19/19/19 20/20/20 21/21/21
f 22/22/22 23/23/23 24/24/24
f 25/25/25 26/26/26 27/27/27
f 28/28/28 29/29/29 30/30/30
f 31/31/31 32/32/32 33/33/33
f 34/34/34 35/35/35 36/36/36
f 37/37/37 38/38/38 39/39/39
f 40/40/40 41/41/41 42/42/42
f 43/43/43 44/44/44 45/45/45
f 46/46/46 47/47/47 48/48/48
f 49/49/49 50/50/50 51/51/51
f 52/52/52 53/53/53 54/54/54
f 55/55/55 56/56/56 57/57/57
f 58/58/58 16/16/16 18/18/18
f 59/59/59 60/60/60 61/61/61
f 62/62/62 34/34/34 36/36/36
f 63/63/63 64/64/64 65/65/65
f 66/66/66 67/67/67 68/68/68
