v -1.257428 2.886799 -3.209751
v -1.246443 2.868048 -3.209751
v -1.246443 2.868048 -3.193897
v -0.831431 2.669228 -3.209751
v -0.781431 2.669228 -3.209751
v -0.781431 2.669228 -3.193897
v -1.143921 2.842423 -3.209751
v -1.125613 2.835768 -3.209751
v -1.125613 2.835768 -3.193897
v -1.107306 2.822077 -3.193897
v -1.107306 2.822077 -3.209751
v -1.088998 2.808385 -3.209751
v -1.180536 2.840209 -3.209751
v -1.162228 2.843257 -3.209751
v -1.162228 2.843257 -3.193897
v -1.217151 2.848520 -3.209751
v -1.198843 2.840865 -3.209751
v -1.198843 2.840865 -3.193897
v -1.235459 2.858292 -3.209751
v -1.235459 2.858292 -3.193897
v -1.070691 2.800249 -3.209751
v -1.070691 2.800249 -3.193897
v -1.052383 2.796346 -3.209751
v -1.034075 2.795128 -3.209751
v -1.034075 2.795128 -3.193897
v -1.015768 2.794969 -3.209751
v -0.997460 2.791686 -3.209751
v -0.997460 2.791686 -3.193897
v -0.979153 2.786286 -3.209751
v -0.960845 2.779892 -3.209751
v -0.960845 2.779892 -3.193897
v -0.942538 2.768207 -3.209751
v -0.924230 2.756120 -3.209751
v -0.924230 2.756120 -3.193897
v -0.905923 2.739272 -3.209751
v -0.887615 2.713745 -3.209751
v -0.887615 2.713745 -3.193897
v -0.869307 2.688218 -3.209751
v -0.850369 2.675283 -3.209751
v -0.850369 2.675283 -3.193897
v -0.831431 2.669228 -3.193897
v -0.869307 2.688218 -3.193897
v -0.905923 2.739272 -3.193897
v -0.942538 2.768207 -3.193897
v -0.979153 2.786286 -3.193897
v -1.015768 2.794969 -3.193897
v -1.052383 2.796346 -3.193897
v -1.143921 2.842423 -3.193897
v -1.180536 2.840209 -3.193897
v -1.217151 2.848520 -3.193897
v -1.253428 2.915202 -3.189897
v -1.257428 2.915202 -3.193897
v -1.257428 2.886799 -3.193897
v -0.781431 2.669228 -3.193897
v -0.781431 2.673351 -3.189897
v -0.831431 2.673351 -3.189897
v -1.125613 2.835768 -3.193897
v -1.107306 2.822077 -3.193897
v -1.107306 2.826199 -3.189897
v -1.162228 2.843257 -3.193897
v -1.143921 2.842423 -3.193897
v -1.143921 2.846545 -3.189897
v -1.198843 2.840865 -3.193897
v -1.180536 2.840209 -3.193897
v -1.180536 2.844332 -3.189897
v -1.235459 2.858292 -3.193897
v -1.235459 2.862414 -3.189897
v -1.217151 2.848520 -3.193897
v -1.198843 2.844987 -3.189897
v -1.162228 2.847380 -3.189897
v -1.125613 2.839891 -3.189897
v -1.088998 2.808385 -3.193897
v -1.088998 2.812507 -3.189897
v -1.070691 2.800249 -3.193897
v -1.052383 2.796346 -3.193897
v -1.052383 2.800468 -3.189897
v -1.034075 2.795128 -3.193897
v -1.015768 2.794969 -3.193897
v -1.015768 2.799091 -3.189897
v -0.997460 2.791686 -3.193897
v -0.979153 2.786286 -3.193897
v -0.979153 2.790409 -3.189897
v -0.960845 2.779892 -3.193897
v -0.942538 2.768207 -3.193897
v -0.942538 2.772329 -3.189897
v -0.924230 2.756120 -3.193897
v -0.905923 2.739272 -3.193897
v -0.905923 2.743394 -3.189897
v -0.887615 2.713745 -3.193897
v -0.869307 2.688218 -3.193897
v -0.869307 2.692340 -3.189897
v -0.850369 2.675283 -3.193897
v -0.831431 2.669228 -3.193897
v -1.217151 2.852642 -3.189897
v -1.246443 2.872170 -3.189897
v -1.253428 2.884093 -3.189897
v -1.070691 2.804371 -3.189897
v -1.034075 2.799251 -3.189897
v -0.850369 2.679406 -3.189897
v -0.887615 2.717867 -3.189897
v -0.924230 2.760243 -3.189897
v -0.997460 2.795808 -3.189897
v -0.960845 2.784015 -3.189897
v -1.088998 2.808385 -3.193897
vn -0.862800 -0.505400 0.000000
vn -0.773000 -0.634400 0.000000
vn -0.724800 -0.624300 0.291300
vn -0.154100 -0.988000 0.000000
vn 0.000000 -1.000000 0.000000
vn 0.000000 -1.000000 0.000000
vn -0.195800 -0.980600 0.000000
vn -0.475400 -0.879800 0.000000
vn -0.475400 -0.879800 0.000000
vn -0.598900 -0.800800 0.000000
vn -0.598900 -0.800800 0.000000
vn -0.505700 -0.862700 0.000000
vn 0.064500 -0.997900 0.000000
vn 0.059700 -0.998200 0.000000
vn 0.059700 -0.998200 0.000000
vn -0.428800 -0.903400 0.000000
vn -0.214200 -0.976800 0.000000
vn -0.214200 -0.976800 0.000000
vn -0.571400 -0.820600 0.000000
vn -0.571400 -0.820600 0.000000
vn -0.309000 -0.951000 0.000000
vn -0.309000 -0.951000 0.000000
vn -0.137800 -0.990400 0.000000
vn -0.037500 -0.999300 0.000000
vn -0.037500 -0.999300 0.000000
vn -0.092900 -0.995700 0.000000
vn -0.230000 -0.973200 0.000000
vn -0.230000 -0.973200 0.000000
vn -0.306400 -0.951900 0.000000
vn -0.436800 -0.899500 0.000000
vn -0.436800 -0.899500 0.000000
vn -0.544500 -0.838700 0.000000
vn -0.616000 -0.787700 0.000000
vn -0.616000 -0.787700 0.000000
vn -0.748800 -0.662800 0.000000
vn -0.812600 -0.582800 0.000000
vn -0.812600 -0.582800 0.000000
vn -0.698900 -0.715200 0.000000
vn -0.438900 -0.898500 0.000000
vn -0.438900 -0.898500 0.000000
vn -0.154100 -0.988000 0.000000
vn -0.698900 -0.715200 0.000000
vn -0.748800 -0.662800 0.000000
vn -0.544500 -0.838700 0.000000
vn -0.306400 -0.951900 0.000000
vn -0.092900 -0.995700 0.000000
vn -0.137800 -0.990400 0.000000
vn -0.195800 -0.980600 0.000000
vn 0.064500 -0.997900 0.000000
vn -0.428800 -0.903400 0.000000
vn -0.707100 0.000000 0.707100
vn -0.707100 0.000000 0.707100
vn -0.846500 -0.287600 0.448000
vn 0.000000 -0.696400 0.717600
vn 0.000000 -0.696400 0.717600
vn -0.116500 -0.691600 0.712800
vn -0.378500 -0.644500 0.664300
vn -0.461900 -0.617700 0.636500
vn -0.461900 -0.617600 0.636500
vn 0.043700 -0.695700 0.716900
vn -0.148300 -0.688700 0.709700
vn -0.129100 -0.690500 0.711600
vn -0.139900 -0.689500 0.710600
vn 0.043100 -0.695800 0.717000
vn 0.047200 -0.695600 0.716800
vn -0.414100 -0.633800 0.653200
vn -0.462000 -0.617600 0.636500
vn -0.307200 -0.662700 0.682900
vn -0.165100 -0.686800 0.707800
vn 0.039700 -0.695900 0.717100
vn -0.330300 -0.657200 0.677400
vn -0.359600 -0.649800 0.669600
vn -0.399000 -0.638500 0.658000
vn -0.210800 -0.680700 0.701500
vn -0.093400 -0.693300 0.714600
vn -0.099700 -0.692900 0.714100
vn -0.025800 -0.696100 0.717400
vn -0.067500 -0.694800 0.716000
vn -0.062500 -0.695000 0.716200
vn -0.166600 -0.686700 0.707600
vn -0.221200 -0.679100 0.699900
vn -0.216300 -0.679900 0.700700
vn -0.338900 -0.655100 0.675200
vn -0.413400 -0.634100 0.653500
vn -0.410400 -0.635000 0.654400
vn -0.496900 -0.604300 0.622800
vn -0.648200 -0.530300 0.546400
vn -0.591300 -0.561600 0.578700
vn -0.696600 -0.499600 0.514800
vn -0.521800 -0.594000 0.612200
vn -0.611900 -0.550800 0.567600
vn -0.302300 -0.663800 0.684100
vn -0.101100 -0.692800 0.714000
vn -0.320900 -0.659600 0.679700
vn -0.695300 -0.500400 0.515800
vn -0.769000 -0.311900 0.558000
vn -0.232000 -0.677400 0.698000
vn -0.026500 -0.696100 0.717400
vn -0.345800 -0.653400 0.673400
vn -0.696600 -0.499600 0.514900
vn -0.461300 -0.617800 0.636700
vn -0.158500 -0.687600 0.708500
vn -0.304300 -0.663300 0.683600
vn -0.505700 -0.862700 0.000000
vt 0.597259 0.076534
vt 0.626214 0.097695
vt 0.608294 0.116669
vt 0.914539 0.772433
vt 0.887987 0.866076
vt 0.869691 0.842410
vt 0.675552 0.262028
vt 0.684221 0.289102
vt 0.660564 0.301182
vt 0.677346 0.332876
vt 0.699612 0.319667
vt 0.715120 0.351297
vt 0.671145 0.204673
vt 0.672625 0.234457
vt 0.647369 0.239026
vt 0.656745 0.145979
vt 0.666519 0.175923
vt 0.644132 0.183698
vt 0.641379 0.116530
vt 0.620968 0.132249
vt 0.725092 0.381463
vt 0.701870 0.389705
vt 0.730617 0.410895
vt 0.733467 0.439747
vt 0.709615 0.444439
vt 0.735877 0.467792
vt 0.740331 0.495609
vt 0.716280 0.503186
vt 0.747213 0.523187
vt 0.756759 0.549873
vt 0.733876 0.562308
vt 0.771527 0.577989
vt 0.789086 0.604551
vt 0.768875 0.621653
vt 0.813473 0.631700
vt 0.849956 0.662319
vt 0.831882 0.683117
vt 0.887087 0.697084
vt 0.907361 0.733504
vt 0.880918 0.744701
vt 0.885939 0.775132
vt 0.865260 0.714447
vt 0.794932 0.651695
vt 0.750331 0.592445
vt 0.723900 0.532695
vt 0.711440 0.473471
vt 0.706963 0.416729
vt 0.651061 0.269743
vt 0.647238 0.209627
vt 0.634368 0.157863
vt 0.540769 0.104177
vt 0.542769 0.094485
vt 0.585021 0.100130
vt 0.869691 0.842410
vt 0.860923 0.840794
vt 0.876981 0.775029
vt 0.660564 0.301182
vt 0.677346 0.332876
vt 0.668555 0.334027
vt 0.647369 0.239026
vt 0.651061 0.269743
vt 0.641478 0.271382
vt 0.644132 0.183698
vt 0.647238 0.209627
vt 0.638838 0.211314
vt 0.620968 0.132249
vt 0.612898 0.134308
vt 0.634368 0.157863
vt 0.636093 0.185135
vt 0.638150 0.240829
vt 0.651133 0.302556
vt 0.692692 0.362416
vt 0.684322 0.363457
vt 0.701870 0.389705
vt 0.706963 0.416729
vt 0.698427 0.417894
vt 0.709615 0.444439
vt 0.711440 0.473471
vt 0.702290 0.474823
vt 0.716280 0.503186
vt 0.723900 0.532695
vt 0.714764 0.534182
vt 0.733876 0.562308
vt 0.750331 0.592445
vt 0.741263 0.594383
vt 0.768875 0.621653
vt 0.794932 0.651695
vt 0.785685 0.654439
vt 0.831882 0.683117
vt 0.865260 0.714447
vt 0.856773 0.716324
vt 0.880918 0.744701
vt 0.885939 0.775132
vt 0.626125 0.159567
vt 0.600552 0.119224
vt 0.586276 0.108833
vt 0.693475 0.390773
vt 0.700846 0.445735
vt 0.872116 0.745698
vt 0.823027 0.685654
vt 0.759579 0.624078
vt 0.707139 0.504483
vt 0.724519 0.564072
vt 0.692692 0.362416
f 1/1/1 2/2/2 3/3/3
f 4/4/4 5/5/5 6/6/6
f 7/7/7 8/8/8 9/9/9
f 10/10/10 11/11/11 12/12/12
f 13/13/13 14/14/14 15/15/15
f 16/16/16 17/17/17 18/18/18
f 2/2/2 19/19/19 20/20/20
f 12/12/12 21/21/21 22/22/22
f 23/23/23 24/24/24 25/25/25
f 26/26/26 27/27/27 28/28/28
f 29/29/29 30/30/30 31/31/31
f 32/32/32 33/33/33 34/34/34
f 35/35/35 36/36/36 37/37/37
f 38/38/38 39/39/39 40/40/40
f 39/39/39 4/4/4 41/41/41
f 36/36/36 38/38/38 42/42/42
f 33/33/33 35/35/35 43/43/43
f 30/30/30 32/32/32 44/44/44
f 27/27/27 29/29/29 45/45/45
f 24/24/24 26/26/26 46/46/46
f 21/21/21 23/23/23 47/47/47
f 8/8/8 11/11/11 10/10/10
f 14/14/14 7/7/7 48/48/48
f 17/17/17 13/13/13 49/49/49
f 19/19/19 16/16/16 50/50/50
f 51/51/51 52/52/52 53/53/53
f 54/54/54 55/55/55 56/56/56
f 57/57/57 58/58/58 59/59/59
f 60/60/60 61/61/61 62/62/62
f 63/63/63 64/64/64 65/65/65
f 3/3/3 66/66/66 67/67/67
f 68/68/68 63/63/63 69/69/69
f 60/60/60 70/70/70 65/65/65
f 61/61/61 57/57/57 71/71/71
f 58/58/58 72/72/72 73/73/73
f 74/74/74 75/75/75 76/76/76
f 77/77/77 78/78/78 79/79/79
f 80/80/80 81/81/81 82/82/82
f 83/83/83 84/84/84 85/85/85
f 86/86/86 87/87/87 88/88/88
f 89/89/89 90/90/90 91/91/91
f 92/92/92 93/93/93 56/56/56
f 66/66/66 68/68/68 94/94/94
f 3/3/3 95/95/95 96/96/96
f 72/72/72 74/74/74 97/97/97
f 75/75/75 77/77/77 98/98/98
f 90/90/90 92/92/92 99/99/99
f 87/87/87 89/89/89 100/100/100
f 84/84/84 86/86/86 101/101/101
f 78/78/78 80/80/80 102/102/102
f 81/81/81 83/83/83 103/103/103
f 53/53/53 1/1/1 3/3/3
f 41/41/41 4/4/4 6/6/6
f 48/48/48 7/7/7 9/9/9
f 104/104/104 10/10/10 12/12/12
f 49/49/49 13/13/13 15/15/15
f 50/50/50 16/16/16 18/18/18
f 3/3/3 2/2/2 20/20/20
f 104/104/104 12/12/12 22/22/22
f 47/47/47 23/23/23 25/25/25
f 46/46/46 26/26/26 28/28/28
f 45/45/45 29/29/29 31/31/31
f 44/44/44 32/32/32 34/34/34
f 43/43/43 35/35/35 37/37/37
f 42/42/42 38/38/38 40/40/40
f 40/40/40 39/39/39 41/41/41
f 37/37/37 36/36/36 42/42/42
f 34/34/34 33/33/33 43/43/43
f 31/31/31 30/30/30 44/44/44
f 28/28/28 27/27/27 45/45/45
f 25/25/25 24/24/24 46/46/46
f 22/22/22 21/21/21 47/47/47
f 9/9/9 8/8/8 10/10/10
f 15/15/15 14/14/14 48/48/48
f 18/18/18 17/17/17 49/49/49
f 20/20/20 19/19/19 50/50/50
f 96/96/96 51/51/51 53/53/53
f 93/93/93 54/54/54 56/56/56
f 71/71/71 57/57/57 59/59/59
f 70/70/70 60/60/60 62/62/62
f 69/69/69 63/63/63 65/65/65
f 95/95/95 3/3/3 67/67/67
f 94/94/94 68/68/68 69/69/69
f 64/64/64 60/60/60 65/65/65
f 62/62/62 61/61/61 71/71/71
f 59/59/59 58/58/58 73/73/73
f 97/97/97 74/74/74 76/76/76
f 98/98/98 77/77/77 79/79/79
f 102/102/102 80/80/80 82/82/82
f 103/103/103 83/83/83 85/85/85
f 101/101/101 86/86/86 88/88/88
f 100/100/100 89/89/89 91/91/91
f 99/99/99 92/92/92 56/56/56
f 67/67/67 66/66/66 94/94/94
f 53/53/53 3/3/3 96/96/96
f 73/73/73 72/72/72 97/97/97
f 76/76/76 75/75/75 98/98/98
f 91/91/91 90/90/90 99/99/99
f 88/88/88 87/87/87 100/100/100
f 85/85/85 84/84/84 101/101/101
f 79/79/79 78/78/78 102/102/102
f 82/82/82 81/81/81 103/103/103
