v -0.506546 4.814262 -2.019445
v -0.509620 4.812884 -2.020718
v -0.507486 4.812884 -2.031447
v -0.528117 4.812884 -2.028380
v -0.513345 4.814262 -2.009269
v -0.515698 4.812884 -2.011622
v -0.529855 4.812884 -2.025779
v -0.523520 4.814262 -2.002470
v -0.524794 4.812884 -2.005544
v -0.532456 4.812884 -2.024042
v -0.535523 4.814262 -2.000083
v -0.535523 4.812884 -2.003410
v -0.535523 4.812884 -2.023431
v -0.547526 4.814262 -2.002470
v -0.546252 4.812884 -2.005544
v -0.538590 4.812884 -2.024041
v -0.557701 4.814262 -2.009269
v -0.555348 4.812884 -2.011622
v -0.541191 4.812884 -2.025779
v -0.564500 4.814262 -2.019444
v -0.561426 4.812884 -2.020718
v -0.542929 4.812884 -2.028379
v -0.566887 4.814262 -2.031447
v -0.563560 4.812884 -2.031447
v -0.543539 4.812884 -2.031447
v -0.564500 4.814262 -2.043449
v -0.561426 4.812884 -2.042176
v -0.542929 4.812884 -2.034514
v -0.557701 4.814262 -2.053625
v -0.555349 4.812884 -2.051272
v -0.541191 4.812884 -2.037115
v -0.547526 4.814262 -2.060424
v -0.546253 4.812884 -2.057350
v -0.538591 4.812884 -2.038853
v -0.535523 4.814261 -2.062811
v -0.535523 4.812884 -2.059484
v -0.535523 4.812884 -2.039463
v -0.523521 4.814261 -2.060424
v -0.524794 4.812883 -2.057350
v -0.532456 4.812884 -2.038853
v -0.513345 4.814261 -2.053625
v -0.515698 4.812883 -2.051272
v -0.529855 4.812884 -2.037115
v -0.506546 4.814261 -2.043450
v -0.509620 4.812883 -2.042176
v -0.528118 4.812884 -2.034515
v -0.504159 4.814262 -2.031447
v -0.527507 4.812884 -2.031447
vn 0.353600 -0.923900 0.146500
vn 0.201700 -0.975900 0.083600
vn 0.218300 -0.975900 0.000000
vn 0.000000 -1.000000 0.000000
vn 0.270600 -0.923900 0.270600
vn 0.154400 -0.975900 0.154400
vn 0.000000 -1.000000 0.000000
vn 0.146400 -0.923900 0.353500
vn 0.083500 -0.975900 0.201600
vn 0.000000 -1.000000 0.000000
vn 0.000000 -0.923900 0.382600
vn 0.000000 -0.975900 0.218300
vn 0.000000 -1.000000 0.000000
vn -0.146500 -0.923900 0.353600
vn -0.083500 -0.975900 0.201700
vn 0.000000 -1.000000 0.000000
vn -0.270600 -0.923900 0.270600
vn -0.154400 -0.975900 0.154400
vn 0.000000 -1.000000 -0.000100
vn -0.353600 -0.923900 0.146500
vn -0.201700 -0.975900 0.083600
vn 0.000000 -1.000000 0.000000
vn -0.382700 -0.923900 0.000000
vn -0.218300 -0.975900 0.000000
vn 0.000000 -1.000000 0.000000
vn -0.353600 -0.923900 -0.146500
vn -0.201700 -0.975900 -0.083600
vn 0.000000 -1.000000 0.000000
vn -0.270600 -0.923900 -0.270600
vn -0.154400 -0.975900 -0.154400
vn 0.000000 -1.000000 0.000000
vn -0.146500 -0.923900 -0.353400
vn -0.083500 -0.975900 -0.201600
vn 0.000000 -1.000000 0.000000
vn 0.000000 -0.923900 -0.382500
vn 0.000000 -0.975900 -0.218200
vn 0.000000 -1.000000 0.000000
vn 0.146400 -0.923900 -0.353500
vn 0.083500 -0.975900 -0.201700
vn 0.000000 -1.000000 0.000000
vn 0.270600 -0.923800 -0.270600
vn 0.154400 -0.975900 -0.154400
vn 0.000000 -1.000000 0.000000
vn 0.353600 -0.923900 -0.146400
vn 0.201700 -0.975900 -0.083500
vn 0.000000 -1.000000 0.000000
vn 0.382700 -0.923900 0.000100
vn 0.000000 -1.000000 0.000000
vt 0.000000 0.000000
vt 0.000000 0.000000
vt 0.000000 0.000000
vt 0.000000 0.000000
vt 0.000000 0.000000
vt 0.000000 0.000000
vt 0.000000 0.000000
vt 0.000000 0.000000
vt 0.000000 0.000000
vt 0.000000 0.000000
vt 0.000000 0.000000
vt 0.000000 0.000000
vt 0.000000 0.000000
vt 0.000000 0.000000
vt 0.000000 0.000000
vt 0.000000 0.000000
vt 0.000000 0.000000
vt 0.000000 0.000000
vt 0.000000 0.000000
vt 0.000000 0.000000
vt 0.000000 0.000000
vt 0.000000 0.000000
vt 0.000000 0.000000
vt 0.000000 0.000000
vt 0.000000 0.000000
vt 0.000000 0.000000
vt 0.000000 0.000000
vt 0.000000 0.000000
vt 0.000000 0.000000
vt 0.000000 0.000000
vt 0.000000 0.000000
vt 0.000000 0.000000
vt 0.000000 0.000000
vt 0.000000 0.000000
vt 0.000000 0.000000
vt 0.000000 0.000000
vt 0.000000 0.000000
vt 0.000000 0.000000
vt 0.000000 0.000000
vt 0.000000 0.000000
vt 0.000000 0.000000
vt 0.000000 0.000000
vt 0.000000 0.000000
vt 0.000000 0.000000
vt 0.000000 0.000000
vt 0.000000 0.000000
vt 0.000000 0.000000
vt 0.000000 0.000000
f 1/1/1 2/2/2 3/3/3
f 3/3/3 2/2/2 4/4/4
f 5/5/5 6/6/6 2/2/2
f 6/6/6 7/7/7 4/4/4
f 5/5/5 8/8/8 9/9/9
f 6/6/6 9/9/9 10/10/10
f 8/8/8 11/11/11 12/12/12
f 9/9/9 12/12/12 13/13/13
f 11/11/11 14/14/14 15/15/15
f 12/12/12 15/15/15 16/16/16
f 17/17/17 18/18/18 15/15/15
f 15/15/15 18/18/18 19/19/19
f 20/20/20 21/21/21 18/18/18
f 18/18/18 21/21/21 22/22/22
f 20/20/20 23/23/23 24/24/24
f 21/21/21 24/24/24 25/25/25
f 23/23/23 26/26/26 27/27/27
f 24/24/24 27/27/27 28/28/28
f 29/29/29 30/30/30 27/27/27
f 27/27/27 30/30/30 31/31/31
f 32/32/32 33/33/33 30/30/30
f 30/30/30 33/33/33 34/34/34
f 35/35/35 36/36/36 33/33/33
f 36/36/36 37/37/37 34/34/34
f 38/38/38 39/39/39 36/36/36
f 36/36/36 39/39/39 40/40/40
f 41/41/41 42/42/42 39/39/39
f 39/39/39 42/42/42 43/43/43
f 44/44/44 45/45/45 42/42/42
f 42/42/42 45/45/45 46/46/46
f 44/44/44 47/47/47 3/3/3
f 45/45/45 3/3/3 48/48/48
f 47/47/47 1/1/1 3/3/3
f 48/48/48 3/3/3 4/4/4
f 1/1/1 5/5/5 2/2/2
f 2/2/2 6/6/6 4/4/4
f 6/6/6 5/5/5 9/9/9
f 7/7/7 6/6/6 10/10/10
f 9/9/9 8/8/8 12/12/12
f 10/10/10 9/9/9 13/13/13
f 12/12/12 11/11/11 15/15/15
f 13/13/13 12/12/12 16/16/16
f 14/14/14 17/17/17 15/15/15
f 16/16/16 15/15/15 19/19/19
f 17/17/17 20/20/20 18/18/18
f 19/19/19 18/18/18 22/22/22
f 21/21/21 20/20/20 24/24/24
f 22/22/22 21/21/21 25/25/25
f 24/24/24 23/23/23 27/27/27
f 25/25/25 24/24/24 28/28/28
f 26/26/26 29/29/29 27/27/27
f 28/28/28 27/27/27 31/31/31
f 29/29/29 32/32/32 30/30/30
f 31/31/31 30/30/30 34/34/34
f 32/32/32 35/35/35 33/33/33
f 33/33/33 36/36/36 34/34/34
f 35/35/35 38/38/38 36/36/36
f 37/37/37 36/36/36 40/40/40
f 38/38/38 41/41/41 39/39/39
f 40/40/40 39/39/39 43/43/43
f 41/41/41 44/44/44 42/42/42
f 43/43/43 42/42/42 46/46/46
f 45/45/45 44/44/44 3/3/3
f 46/46/46 45/45/45 48/48/48
