v 0.526841 1.763575 -3.149340
v 2.495326 1.763575 -3.149340
v 2.495326 1.772034 -3.149340
v 2.495326 1.772034 -3.149340
v 2.495326 1.782034 -3.152019
v 0.526841 1.782034 -3.152020
v 2.495326 1.753575 -3.152019
v 2.495326 1.763575 -3.149340
v 0.526841 1.763575 -3.149340
v 0.526841 1.772034 -3.149340
v 0.526841 1.772034 -3.149340
v 0.526841 1.753575 -3.152020
vn -0.000000 -0.143658 0.989627
vn 0.000000 -0.143633 0.989631
vn -0.000000 0.143658 0.989627
vn -0.000000 0.143658 0.989627
vn -0.000000 0.258785 0.965935
vn -0.000000 0.258828 0.965923
vn -0.000000 -0.258828 0.965923
vn 0.000000 -0.143633 0.989631
vn -0.000000 -0.143658 0.989627
vn 0.000000 0.143683 0.989624
vn 0.000000 0.143683 0.989624
vn -0.000000 -0.258871 0.965912
vt 0.475292 0.056720
vt 0.475292 0.940802
vt 0.460532 0.940802
vt 0.878195 0.945106
vt 0.862796 0.945202
vt 0.862796 0.255219
vt 0.610269 0.945271
vt 0.590544 0.945393
vt 0.590546 0.061589
vt 0.460532 0.056720
vt 0.878195 0.255124
vt 0.610272 0.061466
f 1/1/1 2/2/2 3/3/3
f 4/4/4 5/5/5 6/6/6
f 7/7/7 8/8/8 9/9/9
f 10/10/10 1/1/1 3/3/3
f 11/11/11 4/4/4 6/6/6
f 12/12/12 7/7/7 9/9/9
