v -1.720231 4.967019 -3.191517
v -1.722653 4.967019 -3.199500
v -1.723503 4.965947 -3.199330
v -1.697533 4.965947 -3.167686
v -1.697201 4.967019 -3.168487
v -1.704558 4.967019 -3.172420
v -1.664633 4.967019 -3.168487
v -1.672616 4.967019 -3.166066
v -1.672446 4.965947 -3.165216
v -1.640803 4.965947 -3.191185
v -1.641603 4.967019 -3.191517
v -1.645536 4.967019 -3.184160
v -1.640803 4.965947 -3.224417
v -1.641603 4.967019 -3.224086
v -1.639182 4.967019 -3.216103
v -1.664301 4.965947 -3.247916
v -1.664633 4.967019 -3.247115
v -1.657276 4.967019 -3.243183
v -1.697533 4.965947 -3.247916
v -1.697201 4.967019 -3.247115
v -1.689219 4.967019 -3.249537
v -1.722653 4.967019 -3.216103
v -1.723470 4.967019 -3.207801
v -1.707295 4.981211 -3.207801
v -1.716299 4.967019 -3.184160
v -1.711007 4.967019 -3.177712
v -1.699569 4.981211 -3.189149
v -1.702850 4.981211 -3.193146
v -1.689219 4.967019 -3.166066
v -1.686063 4.981211 -3.181930
v -1.680917 4.967019 -3.165248
v -1.680917 4.981211 -3.181423
v -1.657276 4.967019 -3.172420
v -1.666262 4.981211 -3.185869
v -1.650828 4.967019 -3.177712
v -1.662265 4.981211 -3.189149
v -1.658984 4.981211 -3.193146
v -1.656547 4.981211 -3.197707
v -1.639182 4.967019 -3.199499
v -1.655046 4.981211 -3.202655
v -1.638364 4.967019 -3.207801
v -1.654539 4.981211 -3.207801
v -1.656547 4.981211 -3.217896
v -1.645536 4.967019 -3.231442
v -1.658984 4.981211 -3.222456
v -1.650828 4.967019 -3.237891
v -1.666262 4.981211 -3.229734
v -1.672616 4.967019 -3.249537
v -1.675771 4.981211 -3.233673
v -1.680917 4.967019 -3.250354
v -1.680917 4.981211 -3.234179
v -1.691012 4.981211 -3.232172
v -1.704558 4.967019 -3.243183
v -1.695572 4.981211 -3.229734
v -1.711007 4.967019 -3.237891
v -1.716299 4.967019 -3.231442
v -1.702850 4.981211 -3.222456
v -1.720231 4.967019 -3.224086
v -1.705288 4.981211 -3.217896
v -1.705287 4.981211 -3.197707
v -1.706789 4.981211 -3.202655
v -1.691012 4.981211 -3.183431
v -1.695572 4.981211 -3.185869
v -1.670823 4.981211 -3.183431
v -1.675771 4.981211 -3.181930
v -1.655046 4.981211 -3.212947
v -1.670823 4.981211 -3.232172
v -1.686063 4.981211 -3.233673
v -1.723503 4.965947 -3.216272
v -1.724337 4.965947 -3.207801
v -1.717019 4.965947 -3.183678
v -1.711620 4.965947 -3.177099
v -1.721032 4.965947 -3.191185
v -1.705040 4.965947 -3.171699
v -1.689388 4.965947 -3.165216
v -1.680917 4.965947 -3.164382
v -1.664301 4.965947 -3.167686
v -1.656794 4.965947 -3.171699
v -1.650215 4.965947 -3.177099
v -1.644815 4.965947 -3.183678
v -1.638332 4.965947 -3.199330
v -1.637497 4.965947 -3.207801
v -1.638332 4.965947 -3.216272
v -1.644815 4.965947 -3.231924
v -1.650215 4.965947 -3.238504
v -1.656794 4.965947 -3.243903
v -1.672446 4.965947 -3.250387
v -1.680917 4.965947 -3.251221
v -1.689388 4.965947 -3.250387
v -1.705040 4.965947 -3.243903
v -1.711620 4.965947 -3.238504
v -1.717019 4.965947 -3.231924
v -1.721032 4.965947 -3.224417
v -1.706789 4.981211 -3.212947
v -1.662265 4.981211 -3.226453
v -1.699569 4.981211 -3.226454
vn -0.668500 0.690100 0.276900
vn -0.709700 0.690200 0.141200
vn -0.762500 0.629000 0.151700
vn -0.297500 0.629000 0.718200
vn -0.276900 0.690200 0.668400
vn -0.402100 0.690100 0.601700
vn 0.276900 0.690200 0.668500
vn 0.141100 0.690200 0.709700
vn 0.151600 0.629000 0.762500
vn 0.718300 0.629000 0.297400
vn 0.668600 0.690200 0.276800
vn 0.601600 0.690200 0.402000
vn 0.718300 0.628900 -0.297400
vn 0.668500 0.690200 -0.276900
vn 0.709700 0.690200 -0.141100
vn 0.297600 0.629000 -0.718200
vn 0.277000 0.690200 -0.668500
vn 0.402000 0.690100 -0.601700
vn -0.297500 0.628900 -0.718300
vn -0.276900 0.690200 -0.668500
vn -0.141100 0.690100 -0.709800
vn -0.709700 0.690200 -0.141100
vn -0.723600 0.690200 0.000000
vn -0.659500 0.751700 0.000000
vn -0.601700 0.690200 0.402000
vn -0.511700 0.690100 0.511800
vn -0.466400 0.751700 0.466300
vn -0.548400 0.751700 0.366400
vn -0.141100 0.690100 0.709700
vn -0.128700 0.751600 0.646900
vn 0.000000 0.690200 0.723600
vn 0.000000 0.751600 0.659500
vn 0.402100 0.690100 0.601700
vn 0.366400 0.751700 0.548400
vn 0.511700 0.690200 0.511700
vn 0.466400 0.751600 0.466300
vn 0.548400 0.751600 0.366400
vn 0.609300 0.751700 0.252400
vn 0.709700 0.690200 0.141100
vn 0.646800 0.751700 0.128600
vn 0.723700 0.690100 0.000000
vn 0.659500 0.751700 0.000000
vn 0.609300 0.751700 -0.252400
vn 0.601700 0.690100 -0.402000
vn 0.548400 0.751700 -0.366400
vn 0.511700 0.690100 -0.511600
vn 0.366400 0.751700 -0.548400
vn 0.141100 0.690100 -0.709700
vn 0.128700 0.751600 -0.646900
vn 0.000000 0.690200 -0.723600
vn 0.000000 0.751600 -0.659500
vn -0.252400 0.751700 -0.609300
vn -0.402100 0.690100 -0.601600
vn -0.366400 0.751700 -0.548400
vn -0.511600 0.690100 -0.511700
vn -0.601700 0.690200 -0.402000
vn -0.548400 0.751700 -0.366400
vn -0.668600 0.690100 -0.277000
vn -0.609300 0.751700 -0.252300
vn -0.609300 0.751700 0.252400
vn -0.646800 0.751700 0.128700
vn -0.252400 0.751600 0.609400
vn -0.366400 0.751600 0.548400
vn 0.252400 0.751600 0.609300
vn 0.128700 0.751600 0.646900
vn 0.646800 0.751700 -0.128700
vn 0.252400 0.751600 -0.609300
vn -0.128700 0.751600 -0.646900
vn -0.762500 0.629000 -0.151600
vn -0.777400 0.628900 0.000000
vn -0.646400 0.629000 0.431900
vn -0.549700 0.628800 0.549900
vn -0.718200 0.628900 0.297600
vn -0.432000 0.628800 0.646500
vn -0.151600 0.628900 0.762600
vn 0.000000 0.628900 0.777500
vn 0.297500 0.629000 0.718300
vn 0.432000 0.628900 0.646400
vn 0.549700 0.628900 0.549700
vn 0.646300 0.629000 0.432000
vn 0.762500 0.629000 0.151700
vn 0.777500 0.628900 0.000000
vn 0.762500 0.629000 -0.151600
vn 0.646400 0.628900 -0.431900
vn 0.549800 0.628900 -0.549700
vn 0.431900 0.628900 -0.646500
vn 0.151600 0.628900 -0.762600
vn 0.000000 0.628900 -0.777500
vn -0.151600 0.628800 -0.762600
vn -0.431900 0.628900 -0.646400
vn -0.549600 0.628900 -0.549900
vn -0.646400 0.628900 -0.431900
vn -0.718300 0.628800 -0.297600
vn -0.646800 0.751700 -0.128600
vn 0.466300 0.751700 -0.466400
vn -0.466300 0.751700 -0.466300
vt 0.492972 0.893031
vt 0.491465 0.894521
vt 0.491290 0.893996
vt 0.500747 0.889884
vt 0.500732 0.890490
vt 0.498660 0.890549
vt 0.508120 0.894054
vt 0.506538 0.892649
vt 0.506671 0.892086
vt 0.511426 0.901257
vt 0.511186 0.901636
vt 0.510997 0.899589
vt 0.507848 0.908560
vt 0.507676 0.908794
vt 0.509167 0.907304
vt 0.499159 0.911153
vt 0.499178 0.911335
vt 0.501505 0.911276
vt 0.491039 0.907516
vt 0.491234 0.907771
vt 0.492829 0.909177
vt 0.489385 0.898170
vt 0.490253 0.896256
vt 0.493972 0.903244
vt 0.494714 0.891845
vt 0.496632 0.891007
vt 0.497896 0.899991
vt 0.496703 0.900510
vt 0.502780 0.890831
vt 0.501737 0.899882
vt 0.504737 0.891560
vt 0.502956 0.900334
vt 0.509424 0.895724
vt 0.505835 0.902915
vt 0.510398 0.897592
vt 0.506414 0.904073
vt 0.506755 0.905311
vt 0.506842 0.906580
vt 0.510945 0.903655
vt 0.506664 0.907832
vt 0.510267 0.905569
vt 0.506224 0.909018
vt 0.504617 0.911017
vt 0.505850 0.909980
vt 0.503508 0.911752
vt 0.503763 0.910818
vt 0.500899 0.912555
vt 0.496888 0.910994
vt 0.498139 0.912380
vt 0.494741 0.910265
vt 0.496848 0.911929
vt 0.494714 0.910383
vt 0.490014 0.906101
vt 0.493954 0.909348
vt 0.489209 0.904233
vt 0.488839 0.902236
vt 0.493183 0.906952
vt 0.488904 0.900189
vt 0.493192 0.905683
vt 0.495626 0.901246
vt 0.494703 0.902169
vt 0.500458 0.899670
vt 0.499162 0.899707
vt 0.505044 0.901880
vt 0.504072 0.901008
vt 0.505534 0.910094
vt 0.499509 0.912592
vt 0.495691 0.911254
vt 0.489162 0.897720
vt 0.490051 0.895767
vt 0.494607 0.891266
vt 0.496564 0.890411
vt 0.492828 0.892477
vt 0.498633 0.889944
vt 0.502836 0.890232
vt 0.504833 0.890976
vt 0.508287 0.893520
vt 0.509619 0.895224
vt 0.510616 0.897131
vt 0.511230 0.899168
vt 0.511182 0.903317
vt 0.510492 0.905270
vt 0.509369 0.907041
vt 0.505982 0.909771
vt 0.503848 0.910626
vt 0.501539 0.911093
vt 0.496818 0.910805
vt 0.494622 0.910061
vt 0.492669 0.908951
vt 0.489794 0.905813
vt 0.488975 0.903906
vt 0.488600 0.901869
vt 0.488668 0.899780
vt 0.493460 0.904431
vt 0.502252 0.912272
vt 0.493439 0.908189
f 1/1/1 2/2/2 3/3/3
f 4/4/4 5/5/5 6/6/6
f 7/7/7 8/8/8 9/9/9
f 10/10/10 11/11/11 12/12/12
f 13/13/13 14/14/14 15/15/15
f 16/16/16 17/17/17 18/18/18
f 19/19/19 20/20/20 21/21/21
f 22/22/22 23/23/23 24/24/24
f 25/25/25 26/26/26 27/27/27
f 24/24/24 23/23/23 2/2/2
f 1/1/1 25/25/25 28/28/28
f 27/27/27 26/26/26 6/6/6
f 5/5/5 29/29/29 30/30/30
f 30/30/30 29/29/29 31/31/31
f 32/32/32 31/31/31 8/8/8
f 7/7/7 33/33/33 34/34/34
f 33/33/33 35/35/35 36/36/36
f 35/35/35 12/12/12 37/37/37
f 38/38/38 11/11/11 39/39/39
f 40/40/40 39/39/39 41/41/41
f 42/42/42 41/41/41 15/15/15
f 43/43/43 14/14/14 44/44/44
f 45/45/45 44/44/44 46/46/46
f 46/46/46 18/18/18 47/47/47
f 17/17/17 48/48/48 49/49/49
f 48/48/48 50/50/50 51/51/51
f 51/51/51 50/50/50 21/21/21
f 52/52/52 20/20/20 53/53/53
f 54/54/54 53/53/53 55/55/55
f 55/55/55 56/56/56 57/57/57
f 56/56/56 58/58/58 59/59/59
f 59/59/59 58/58/58 22/22/22
f 1/1/1 60/60/60 61/61/61
f 5/5/5 62/62/62 63/63/63
f 64/64/64 65/65/65 8/8/8
f 38/38/38 37/37/37 12/12/12
f 43/43/43 66/66/66 15/15/15
f 67/67/67 47/47/47 18/18/18
f 20/20/20 52/52/52 68/68/68
f 69/69/69 70/70/70 23/23/23
f 71/71/71 72/72/72 26/26/26
f 70/70/70 3/3/3 2/2/2
f 1/1/1 73/73/73 71/71/71
f 26/26/26 72/72/72 74/74/74
f 4/4/4 75/75/75 29/29/29
f 75/75/75 76/76/76 31/31/31
f 31/31/31 76/76/76 9/9/9
f 7/7/7 77/77/77 78/78/78
f 78/78/78 79/79/79 35/35/35
f 79/79/79 80/80/80 12/12/12
f 10/10/10 81/81/81 39/39/39
f 39/39/39 81/81/81 82/82/82
f 41/41/41 82/82/82 83/83/83
f 14/14/14 13/13/13 84/84/84
f 44/44/44 84/84/84 85/85/85
f 85/85/85 86/86/86 18/18/18
f 16/16/16 87/87/87 48/48/48
f 87/87/87 88/88/88 50/50/50
f 50/50/50 88/88/88 89/89/89
f 20/20/20 19/19/19 90/90/90
f 90/90/90 91/91/91 55/55/55
f 91/91/91 92/92/92 56/56/56
f 92/92/92 93/93/93 58/58/58
f 58/58/58 93/93/93 69/69/69
f 73/73/73 1/1/1 3/3/3
f 74/74/74 4/4/4 6/6/6
f 77/77/77 7/7/7 9/9/9
f 80/80/80 10/10/10 12/12/12
f 83/83/83 13/13/13 15/15/15
f 86/86/86 16/16/16 18/18/18
f 89/89/89 19/19/19 21/21/21
f 94/94/94 22/22/22 24/24/24
f 28/28/28 25/25/25 27/27/27
f 61/61/61 24/24/24 2/2/2
f 60/60/60 1/1/1 28/28/28
f 63/63/63 27/27/27 6/6/6
f 62/62/62 5/5/5 30/30/30
f 32/32/32 30/30/30 31/31/31
f 65/65/65 32/32/32 8/8/8
f 64/64/64 7/7/7 34/34/34
f 34/34/34 33/33/33 36/36/36
f 36/36/36 35/35/35 37/37/37
f 40/40/40 38/38/38 39/39/39
f 42/42/42 40/40/40 41/41/41
f 66/66/66 42/42/42 15/15/15
f 45/45/45 43/43/43 44/44/44
f 95/95/95 45/45/45 46/46/46
f 95/95/95 46/46/46 47/47/47
f 67/67/67 17/17/17 49/49/49
f 49/49/49 48/48/48 51/51/51
f 68/68/68 51/51/51 21/21/21
f 54/54/54 52/52/52 53/53/53
f 96/96/96 54/54/54 55/55/55
f 96/96/96 55/55/55 57/57/57
f 57/57/57 56/56/56 59/59/59
f 94/94/94 59/59/59 22/22/22
f 2/2/2 1/1/1 61/61/61
f 6/6/6 5/5/5 63/63/63
f 7/7/7 64/64/64 8/8/8
f 11/11/11 38/38/38 12/12/12
f 14/14/14 43/43/43 15/15/15
f 17/17/17 67/67/67 18/18/18
f 21/21/21 20/20/20 68/68/68
f 22/22/22 69/69/69 23/23/23
f 25/25/25 71/71/71 26/26/26
f 23/23/23 70/70/70 2/2/2
f 25/25/25 1/1/1 71/71/71
f 6/6/6 26/26/26 74/74/74
f 5/5/5 4/4/4 29/29/29
f 29/29/29 75/75/75 31/31/31
f 8/8/8 31/31/31 9/9/9
f 33/33/33 7/7/7 78/78/78
f 33/33/33 78/78/78 35/35/35
f 35/35/35 79/79/79 12/12/12
f 11/11/11 10/10/10 39/39/39
f 41/41/41 39/39/39 82/82/82
f 15/15/15 41/41/41 83/83/83
f 44/44/44 14/14/14 84/84/84
f 46/46/46 44/44/44 85/85/85
f 46/46/46 85/85/85 18/18/18
f 17/17/17 16/16/16 48/48/48
f 48/48/48 87/87/87 50/50/50
f 21/21/21 50/50/50 89/89/89
f 53/53/53 20/20/20 90/90/90
f 53/53/53 90/90/90 55/55/55
f 55/55/55 91/91/91 56/56/56
f 56/56/56 92/92/92 58/58/58
f 22/22/22 58/58/58 69/69/69
