v -1.314340 0.752488 -4.541327
v -1.316527 0.752488 -4.552321
v -1.317148 0.759089 -4.551053
v -1.496539 0.752488 -4.432042
v -1.497159 0.759089 -4.430773
v -1.521085 0.759089 -4.466580
v -1.520464 0.752488 -4.467848
v -1.529486 0.759089 -4.508817
v -1.528865 0.752488 -4.510085
v -1.521085 0.759089 -4.551053
v -1.340452 0.752488 -4.588128
v -1.341073 0.759089 -4.586860
v -1.520464 0.752488 -4.552321
v -1.497159 0.759089 -4.586860
v -1.474056 0.752488 -4.417019
v -1.474676 0.759089 -4.415751
v -1.496539 0.752488 -4.588128
v -1.461353 0.759089 -4.610785
v -1.460732 0.752488 -4.612053
v -1.419116 0.759089 -4.619186
v -1.418496 0.752488 -4.620454
v -1.376880 0.759089 -4.610785
v -1.376259 0.752488 -4.612053
v -1.314961 0.759089 -4.540059
vn 0.972600 0.128600 -0.193500
vn 0.905400 0.160600 -0.392900
vn 0.919100 0.155900 -0.361700
vn -0.699200 -0.197700 0.687000
vn -0.687300 -0.198800 0.698600
vn -0.905400 -0.160600 0.392900
vn -0.919100 -0.155900 0.361700
vn -0.994900 -0.097900 0.022900
vn -0.995700 -0.089000 -0.023800
vn -0.933300 -0.018800 -0.358400
vn 0.687300 0.198800 -0.698600
vn 0.699200 0.197700 -0.687000
vn -0.913500 -0.007700 -0.406700
vn -0.723100 0.064100 -0.687700
vn -0.543500 -0.207400 0.813400
vn -0.543400 -0.207400 0.813400
vn -0.687700 0.074100 -0.722200
vn -0.397400 0.136900 -0.907400
vn -0.361200 0.143000 -0.921400
vn -0.011600 0.187500 -0.982200
vn 0.010800 0.189600 -0.981800
vn 0.372700 0.208700 -0.904100
vn 0.375700 0.208700 -0.902900
vn 0.972600 0.128500 -0.193500
vt 0.000000 0.000000
vt 0.000000 0.000000
vt 0.000000 0.000000
vt 0.000000 0.000000
vt 0.000000 0.000000
vt 0.000000 0.000000
vt 0.000000 0.000000
vt 0.000000 0.000000
vt 0.000000 0.000000
vt 0.000000 0.000000
vt 0.000000 0.000000
vt 0.000000 0.000000
vt 0.000000 0.000000
vt 0.000000 0.000000
vt 0.000000 0.000000
vt 0.000000 0.000000
vt 0.000000 0.000000
vt 0.000000 0.000000
vt 0.000000 0.000000
vt 0.000000 0.000000
vt 0.000000 0.000000
vt 0.000000 0.000000
vt 0.000000 0.000000
vt 0.000000 0.000000
f 1/1/1 2/2/2 3/3/3
f 4/4/4 5/5/5 6/6/6
f 7/7/7 6/6/6 8/8/8
f 9/9/9 8/8/8 10/10/10
f 2/2/2 11/11/11 12/12/12
f 13/13/13 10/10/10 14/14/14
f 15/15/15 16/16/16 5/5/5
f 17/17/17 14/14/14 18/18/18
f 19/19/19 18/18/18 20/20/20
f 21/21/21 20/20/20 22/22/22
f 11/11/11 23/23/23 22/22/22
f 24/24/24 1/1/1 3/3/3
f 7/7/7 4/4/4 6/6/6
f 9/9/9 7/7/7 8/8/8
f 13/13/13 9/9/9 10/10/10
f 3/3/3 2/2/2 12/12/12
f 17/17/17 13/13/13 14/14/14
f 4/4/4 15/15/15 5/5/5
f 19/19/19 17/17/17 18/18/18
f 21/21/21 19/19/19 20/20/20
f 23/23/23 21/21/21 22/22/22
f 12/12/12 11/11/11 22/22/22
