v 0.467605 3.521354 -3.220058
v 0.466449 3.521354 -3.208323
v 0.466742 3.522054 -3.208323
v 0.476830 3.522054 -3.175067
v 0.476587 3.521354 -3.174905
v 0.484067 3.521354 -3.165790
v 0.467605 3.521354 -3.196588
v 0.471298 3.522054 -3.185416
v 0.471028 3.521354 -3.185304
v 0.484274 3.522054 -3.165997
v 0.493182 3.521354 -3.158309
v 0.503694 3.522054 -3.153021
v 0.503582 3.521354 -3.152750
v 0.514866 3.521354 -3.149328
v 0.514923 3.522054 -3.149615
v 0.514866 3.521354 -3.149328
v 0.526600 3.521354 -3.148172
v 0.526600 3.522054 -3.148464
v 0.538335 3.521354 -3.149328
v 0.549507 3.522054 -3.153021
v 0.549619 3.521354 -3.152750
v 0.560019 3.521354 -3.158309
v 0.559856 3.522054 -3.158552
v 0.569134 3.521354 -3.165790
v 0.576614 3.521354 -3.174905
v 0.576371 3.522054 -3.175067
v 0.581903 3.522054 -3.185416
v 0.582173 3.521354 -3.185304
v 0.585596 3.521354 -3.196588
v 0.586752 3.521354 -3.208323
v 0.586459 3.522054 -3.208323
v 0.585596 3.521354 -3.220058
v 0.581903 3.522054 -3.231230
v 0.582173 3.521354 -3.231342
v 0.576614 3.521354 -3.241741
v 0.576371 3.522054 -3.241579
v 0.569134 3.521354 -3.250856
v 0.560019 3.521354 -3.258337
v 0.559856 3.522054 -3.258093
v 0.549619 3.521354 -3.263895
v 0.538335 3.521354 -3.267318
v 0.538278 3.522054 -3.267031
v 0.526600 3.521354 -3.268474
v 0.526600 3.522054 -3.268181
v 0.514866 3.521354 -3.267318
v 0.503694 3.522054 -3.263625
v 0.503582 3.521354 -3.263895
v 0.493182 3.521354 -3.258337
v 0.493345 3.522054 -3.258093
v 0.484067 3.521354 -3.250856
v 0.476587 3.521354 -3.241741
v 0.476830 3.522054 -3.241579
v 0.471028 3.521354 -3.231342
v 0.471298 3.522054 -3.231230
v 0.467892 3.522054 -3.220001
v 0.467892 3.522054 -3.196645
v 0.493345 3.522054 -3.158552
v 0.538278 3.522054 -3.149615
v 0.585309 3.522054 -3.220001
v 0.549507 3.522054 -3.263625
v 0.514923 3.522054 -3.267031
v 0.514923 3.522054 -3.149615
v 0.568927 3.522054 -3.165997
v 0.585309 3.522054 -3.196645
v 0.568927 3.522054 -3.250649
v 0.514923 3.522054 -3.267031
v 0.484274 3.522054 -3.250649
v 0.514866 3.521354 -3.267318
vn -0.905100 0.385300 -0.180000
vn -0.922800 0.385400 0.000000
vn -0.922800 0.385400 0.000000
vn -0.767300 0.385300 0.512600
vn -0.767300 0.385300 0.512600
vn -0.652400 0.385400 0.652500
vn -0.905000 0.385400 0.180000
vn -0.852500 0.385300 0.353300
vn -0.852500 0.385300 0.353300
vn -0.652400 0.385400 0.652500
vn -0.512600 0.385500 0.767200
vn -0.353100 0.385500 0.852400
vn -0.353100 0.385500 0.852400
vn -0.180000 0.385500 0.905000
vn -0.180000 0.385500 0.905000
vn -0.180000 0.385500 0.905000
vn -0.000100 0.385400 0.922700
vn -0.000100 0.385400 0.922700
vn 0.180000 0.385600 0.904900
vn 0.353100 0.385500 0.852400
vn 0.353100 0.385500 0.852400
vn 0.512600 0.385600 0.767200
vn 0.512600 0.385600 0.767100
vn 0.652600 0.385500 0.652200
vn 0.767200 0.385500 0.512500
vn 0.767300 0.385500 0.512500
vn 0.852400 0.385400 0.353300
vn 0.852400 0.385400 0.353300
vn 0.905000 0.385400 0.180000
vn 0.922800 0.385400 0.000000
vn 0.922800 0.385400 0.000000
vn 0.905000 0.385300 -0.180000
vn 0.852400 0.385300 -0.353300
vn 0.852400 0.385300 -0.353300
vn 0.767300 0.385300 -0.512600
vn 0.767300 0.385300 -0.512600
vn 0.652600 0.385600 -0.652200
vn 0.512600 0.385500 -0.767200
vn 0.512600 0.385500 -0.767200
vn 0.353000 0.385400 -0.852500
vn 0.180000 0.385700 -0.904900
vn 0.180000 0.385700 -0.904900
vn 0.000000 0.385400 -0.922700
vn 0.000000 0.385400 -0.922700
vn -0.180100 0.385700 -0.904900
vn -0.353000 0.385400 -0.852500
vn -0.353000 0.385400 -0.852500
vn -0.512600 0.385500 -0.767200
vn -0.512600 0.385500 -0.767200
vn -0.652600 0.385600 -0.652200
vn -0.767200 0.385200 -0.512800
vn -0.767200 0.385200 -0.512800
vn -0.852600 0.385300 -0.353000
vn -0.852600 0.385300 -0.353100
vn -0.905100 0.385300 -0.180000
vn -0.905000 0.385400 0.180000
vn -0.512600 0.385500 0.767200
vn 0.180000 0.385600 0.904900
vn 0.905000 0.385300 -0.180000
vn 0.353000 0.385400 -0.852500
vn -0.180100 0.385600 -0.904900
vn -0.180000 0.385500 0.905000
vn 0.652700 0.385600 0.652200
vn 0.905000 0.385400 0.180000
vn 0.652600 0.385600 -0.652200
vn -0.180100 0.385600 -0.904900
vn -0.652600 0.385600 -0.652200
vn -0.180100 0.385700 -0.904900
vt 0.031598 0.948733
vt 0.033798 0.949369
vt 0.033622 0.949561
vt 0.032853 0.951364
vt 0.033056 0.951181
vt 0.029656 0.951675
vt 0.034920 0.950005
vt 0.034545 0.950803
vt 0.034747 0.950617
vt 0.029463 0.951856
vt 0.024446 0.952081
vt 0.017375 0.952559
vt 0.017500 0.952382
vt 0.009149 0.952568
vt 0.805080 0.952744
vt 0.805148 0.952568
vt 0.795999 0.952630
vt 0.795999 0.952806
vt 0.786850 0.952568
vt 0.778624 0.952559
vt 0.778499 0.952382
vt 0.771553 0.952081
vt 0.771721 0.952259
vt 0.766343 0.951675
vt 0.762943 0.951181
vt 0.763146 0.951364
vt 0.761454 0.950803
vt 0.761252 0.950617
vt 0.761079 0.950005
vt 0.762201 0.949369
vt 0.762377 0.949561
vt 0.764401 0.948733
vt 0.767616 0.948319
vt 0.767479 0.948121
vt 0.771262 0.947557
vt 0.771377 0.947758
vt 0.775596 0.947063
vt 0.780350 0.946658
vt 0.780419 0.946863
vt 0.785404 0.946356
vt 0.790654 0.946171
vt 0.790677 0.946378
vt 0.795999 0.946108
vt 0.795999 0.946316
vt 0.801344 0.946171
vt 0.010548 0.946563
vt 0.010595 0.946356
vt 0.015649 0.946658
vt 0.015580 0.946863
vt 0.020403 0.947063
vt 0.024737 0.947557
vt 0.024622 0.947758
vt 0.028520 0.948121
vt 0.028383 0.948319
vt 0.031441 0.948928
vt 0.034729 0.950194
vt 0.024278 0.952259
vt 0.786918 0.952744
vt 0.764558 0.948928
vt 0.785451 0.946563
vt 0.005322 0.946378
vt 0.009081 0.952744
vt 0.766536 0.951856
vt 0.761270 0.950194
vt 0.775689 0.947266
vt 0.801321 0.946378
vt 0.020310 0.947266
vt 0.005345 0.946171
f 1/1/1 2/2/2 3/3/3
f 4/4/4 5/5/5 6/6/6
f 3/3/3 2/2/2 7/7/7
f 8/8/8 9/9/9 5/5/5
f 10/10/10 6/6/6 11/11/11
f 12/12/12 13/13/13 14/14/14
f 15/15/15 16/16/16 17/17/17
f 18/18/18 17/17/17 19/19/19
f 20/20/20 21/21/21 22/22/22
f 23/23/23 22/22/22 24/24/24
f 24/24/24 25/25/25 26/26/26
f 27/27/27 28/28/28 29/29/29
f 29/29/29 30/30/30 31/31/31
f 31/31/31 30/30/30 32/32/32
f 33/33/33 34/34/34 35/35/35
f 36/36/36 35/35/35 37/37/37
f 37/37/37 38/38/38 39/39/39
f 40/40/40 41/41/41 42/42/42
f 42/42/42 41/41/41 43/43/43
f 44/44/44 43/43/43 45/45/45
f 46/46/46 47/47/47 48/48/48
f 49/49/49 48/48/48 50/50/50
f 50/50/50 51/51/51 52/52/52
f 51/51/51 53/53/53 54/54/54
f 53/53/53 1/1/1 55/55/55
f 9/9/9 8/8/8 56/56/56
f 12/12/12 57/57/57 11/11/11
f 21/21/21 20/20/20 58/58/58
f 27/27/27 26/26/26 25/25/25
f 33/33/33 59/59/59 32/32/32
f 60/60/60 39/39/39 38/38/38
f 47/47/47 46/46/46 61/61/61
f 55/55/55 1/1/1 3/3/3
f 10/10/10 4/4/4 6/6/6
f 56/56/56 3/3/3 7/7/7
f 4/4/4 8/8/8 5/5/5
f 57/57/57 10/10/10 11/11/11
f 62/62/62 12/12/12 14/14/14
f 18/18/18 15/15/15 17/17/17
f 58/58/58 18/18/18 19/19/19
f 23/23/23 20/20/20 22/22/22
f 63/63/63 23/23/23 24/24/24
f 63/63/63 24/24/24 26/26/26
f 64/64/64 27/27/27 29/29/29
f 64/64/64 29/29/29 31/31/31
f 59/59/59 31/31/31 32/32/32
f 36/36/36 33/33/33 35/35/35
f 65/65/65 36/36/36 37/37/37
f 65/65/65 37/37/37 39/39/39
f 60/60/60 40/40/40 42/42/42
f 44/44/44 42/42/42 43/43/43
f 66/66/66 44/44/44 45/45/45
f 49/49/49 46/46/46 48/48/48
f 67/67/67 49/49/49 50/50/50
f 67/67/67 50/50/50 52/52/52
f 52/52/52 51/51/51 54/54/54
f 54/54/54 53/53/53 55/55/55
f 7/7/7 9/9/9 56/56/56
f 13/13/13 12/12/12 11/11/11
f 19/19/19 21/21/21 58/58/58
f 28/28/28 27/27/27 25/25/25
f 34/34/34 33/33/33 32/32/32
f 40/40/40 60/60/60 38/38/38
f 68/68/68 47/47/47 61/61/61
