v -1.748455 3.790443 -3.221236
v -1.756698 3.785817 -3.222875
v -1.756698 3.786635 -3.207801
v -1.744537 3.790443 -3.234153
v -1.738173 3.790443 -3.246058
v -1.753790 3.780105 -3.256494
v -1.756698 3.780105 -3.251053
v -1.756698 3.783198 -3.239191
v -1.756698 3.777247 -3.258437
v -1.729609 3.790443 -3.256494
v -1.742891 3.780105 -3.269775
v -1.756698 3.767508 -3.277131
v -1.753790 3.767508 -3.280674
v -1.756698 3.762348 -3.283582
v -1.756698 3.762348 -3.283582
v -1.750247 3.767508 -3.283582
v -1.719174 3.790443 -3.265057
v -1.729609 3.780105 -3.280674
v -1.731552 3.777247 -3.283582
v -1.712307 3.783198 -3.283582
v -1.724169 3.780105 -3.283582
v -1.707269 3.790443 -3.271421
v -1.694351 3.790443 -3.275339
v -1.695991 3.785817 -3.283582
v -1.680917 3.790443 -3.276663
v -1.680917 3.786635 -3.283582
v -1.667483 3.790443 -3.275339
v -1.665843 3.785817 -3.283582
v -1.654565 3.790443 -3.271421
v -1.642660 3.790443 -3.265057
v -1.632225 3.780105 -3.280674
v -1.637666 3.780105 -3.283582
v -1.649528 3.783198 -3.283582
v -1.654565 3.790443 -3.271421
v -1.630282 3.777247 -3.283582
v -1.632225 3.790443 -3.256494
v -1.618944 3.780105 -3.269775
v -1.611588 3.767508 -3.283582
v -1.608044 3.767508 -3.280674
v -1.605136 3.762348 -3.283582
v -1.605136 3.762348 -3.283582
v -1.605136 3.767508 -3.277131
v -1.623661 3.790443 -3.246058
v -1.608044 3.780105 -3.256494
v -1.605136 3.777247 -3.258437
v -1.605136 3.780105 -3.251053
v -1.605136 3.783198 -3.239191
v -1.617298 3.790443 -3.234153
v -1.613379 3.790443 -3.221236
v -1.605136 3.785817 -3.222875
v -1.612056 3.790443 -3.207801
v -1.605136 3.786635 -3.207801
v -1.613379 3.790443 -3.194367
v -1.605136 3.785817 -3.192728
v -1.617298 3.790443 -3.181449
v -1.623661 3.790443 -3.169544
v -1.608044 3.780105 -3.159109
v -1.605136 3.780105 -3.164550
v -1.605136 3.783198 -3.176412
v -1.605136 3.777247 -3.157166
v -1.632225 3.790443 -3.159109
v -1.618944 3.780105 -3.145828
v -1.605136 3.767508 -3.138472
v -1.608044 3.767508 -3.134928
v -1.605136 3.762348 -3.132020
v -1.611588 3.767508 -3.132020
v -1.642660 3.790443 -3.150545
v -1.632225 3.780105 -3.134928
v -1.630282 3.777247 -3.132020
v -1.637666 3.780105 -3.132020
v -1.649528 3.783198 -3.132020
v -1.654565 3.790443 -3.144182
v -1.667483 3.790443 -3.140263
v -1.665843 3.785817 -3.132020
v -1.680917 3.790443 -3.138940
v -1.680917 3.786634 -3.132020
v -1.694351 3.790443 -3.140263
v -1.695991 3.785817 -3.132020
v -1.707269 3.790443 -3.144182
v -1.719174 3.790443 -3.150545
v -1.729609 3.780105 -3.134928
v -1.724169 3.780105 -3.132020
v -1.712307 3.783198 -3.132020
v -1.731552 3.777247 -3.132020
v -1.729609 3.790443 -3.159109
v -1.742891 3.780105 -3.145828
v -1.750247 3.767508 -3.132020
v -1.753790 3.767508 -3.134928
v -1.756698 3.762348 -3.132020
v -1.756698 3.767508 -3.138472
v -1.738173 3.790443 -3.169544
v -1.753790 3.780105 -3.159109
v -1.756698 3.777247 -3.157166
v -1.756698 3.780105 -3.164550
v -1.756698 3.783198 -3.176412
v -1.744537 3.790443 -3.181449
v -1.748455 3.790443 -3.194367
v -1.756698 3.785817 -3.192728
v -1.749778 3.790443 -3.207801
v -1.693978 3.792621 -3.273465
v -1.680917 3.792621 -3.274751
v -1.706538 3.792621 -3.269655
v -1.680917 3.792621 -3.140851
v -1.625250 3.792621 -3.244997
v -1.615254 3.792621 -3.194740
v -1.619063 3.792621 -3.182181
v -1.746581 3.792621 -3.220863
v -1.619063 3.792621 -3.233422
v -1.615254 3.792621 -3.220863
v -1.643722 3.792621 -3.152134
v -1.667856 3.792621 -3.142138
v -1.625250 3.792621 -3.170606
v -1.667856 3.792621 -3.273465
v -1.655297 3.792621 -3.269655
v -1.746581 3.792621 -3.194740
v -1.633576 3.792621 -3.160460
v -1.643722 3.792621 -3.263468
v -1.736584 3.792621 -3.170606
v -1.742771 3.792621 -3.233422
v -1.747867 3.792621 -3.207801
v -1.718112 3.792621 -3.152134
v -1.728258 3.792621 -3.160461
v -1.736584 3.792621 -3.244997
v -1.728258 3.792621 -3.255142
v -1.693978 3.792621 -3.142138
v -1.706538 3.792621 -3.145948
v -1.633576 3.792621 -3.255142
v -1.718112 3.792621 -3.263468
v -1.655297 3.792621 -3.269655
v -1.655297 3.792621 -3.145948
v -1.742771 3.792621 -3.182181
v -1.613967 3.792621 -3.207801
v -1.649528 3.783198 -3.283582
vn -0.607700 0.784800 -0.120900
vn -0.471600 0.876000 -0.100600
vn -0.482200 0.876000 0.000000
vn -0.572500 0.784800 -0.237100
vn -0.515300 0.784800 -0.344200
vn -0.468700 0.826000 -0.313200
vn -0.453100 0.857900 -0.242200
vn -0.440400 0.876000 -0.196600
vn -0.510600 0.774000 -0.374400
vn -0.438200 0.784800 -0.438200
vn -0.398600 0.826000 -0.398600
vn -0.525700 0.733200 -0.431400
vn -0.505400 0.699400 -0.505400
vn -0.789600 0.115800 -0.602500
vn -0.739900 0.369200 -0.562300
vn -0.431400 0.733100 -0.525700
vn -0.344200 0.784800 -0.515300
vn -0.313200 0.826000 -0.468700
vn -0.374400 0.774000 -0.510600
vn -0.196700 0.876000 -0.440400
vn -0.242200 0.857900 -0.453100
vn -0.237100 0.784800 -0.572500
vn -0.120900 0.784900 -0.607700
vn -0.100600 0.876000 -0.471600
vn 0.000000 0.784800 -0.619700
vn 0.000000 0.876100 -0.482200
vn 0.120900 0.784900 -0.607700
vn 0.100600 0.876000 -0.471600
vn 0.237100 0.784800 -0.572500
vn 0.344200 0.784800 -0.515300
vn 0.313200 0.826000 -0.468700
vn 0.242200 0.857900 -0.453100
vn 0.196600 0.876000 -0.440400
vn 0.237100 0.784800 -0.572500
vn 0.374400 0.774000 -0.510600
vn 0.438200 0.784800 -0.438200
vn 0.398600 0.826000 -0.398600
vn 0.431400 0.733100 -0.525700
vn 0.505400 0.699500 -0.505300
vn 0.258200 0.264900 0.929000
vn 0.224100 0.280100 0.933400
vn 0.525700 0.733200 -0.431400
vn 0.515200 0.784800 -0.344200
vn 0.468700 0.826000 -0.313200
vn 0.510600 0.774000 -0.374400
vn 0.453100 0.857900 -0.242200
vn 0.440400 0.876000 -0.196600
vn 0.572500 0.784800 -0.237100
vn 0.607700 0.784800 -0.120900
vn 0.471600 0.876000 -0.100600
vn 0.619700 0.784800 0.000000
vn 0.482200 0.876100 0.000000
vn 0.607800 0.784800 0.120900
vn 0.471600 0.876000 0.100600
vn 0.572500 0.784800 0.237100
vn 0.515200 0.784800 0.344200
vn 0.468700 0.826000 0.313200
vn 0.453100 0.857900 0.242200
vn 0.440400 0.876000 0.196600
vn 0.510600 0.774000 0.374400
vn 0.438200 0.784800 0.438200
vn 0.398600 0.826000 0.398600
vn 0.525600 0.733200 0.431400
vn 0.505300 0.699400 0.505400
vn 0.552900 0.623200 0.553000
vn 0.431400 0.733100 0.525700
vn 0.344200 0.784800 0.515300
vn 0.313200 0.825900 0.468700
vn 0.374400 0.773900 0.510600
vn 0.242200 0.857900 0.453100
vn 0.196600 0.876000 0.440400
vn 0.237100 0.784800 0.572500
vn 0.120900 0.784800 0.607800
vn 0.100600 0.876000 0.471600
vn 0.000000 0.784800 0.619700
vn 0.000000 0.876000 0.482200
vn -0.120900 0.784800 0.607700
vn -0.100600 0.876000 0.471600
vn -0.237100 0.784800 0.572500
vn -0.344200 0.784800 0.515300
vn -0.313200 0.826000 0.468700
vn -0.242200 0.857900 0.453100
vn -0.196600 0.876000 0.440400
vn -0.374400 0.774000 0.510600
vn -0.438200 0.784800 0.438200
vn -0.398600 0.826000 0.398600
vn -0.431400 0.733100 0.525700
vn -0.505400 0.699400 0.505400
vn -0.553000 0.623200 0.553000
vn -0.525700 0.733200 0.431400
vn -0.515200 0.784800 0.344200
vn -0.468700 0.826000 0.313200
vn -0.510600 0.774000 0.374400
vn -0.453100 0.857900 0.242200
vn -0.440400 0.876000 0.196600
vn -0.572500 0.784800 0.237200
vn -0.607700 0.784800 0.120900
vn -0.471600 0.876000 0.100600
vn -0.619700 0.784800 0.000000
vn -0.146600 0.659700 -0.737100
vn 0.000000 0.659500 -0.751600
vn -0.287600 0.659600 -0.694400
vn 0.000000 0.659600 0.751600
vn 0.624900 0.659600 -0.417500
vn 0.737200 0.659600 0.146600
vn 0.694400 0.659600 0.287600
vn -0.737100 0.659600 -0.146600
vn 0.694400 0.659600 -0.287500
vn 0.737100 0.659600 -0.146600
vn 0.417600 0.659500 0.625000
vn 0.146600 0.659500 0.737200
vn 0.625000 0.659600 0.417500
vn 0.146600 0.659700 -0.737100
vn 0.287600 0.659600 -0.694400
vn -0.737100 0.659600 0.146600
vn 0.531400 0.659600 0.531500
vn 0.417500 0.659500 -0.625000
vn -0.624900 0.659600 0.417600
vn -0.694400 0.659600 -0.287600
vn -0.751600 0.659600 0.000000
vn -0.417600 0.659500 0.625000
vn -0.531400 0.659600 0.531400
vn -0.625000 0.659600 -0.417500
vn -0.531400 0.659600 -0.531400
vn -0.146600 0.659600 0.737100
vn -0.287600 0.659600 0.694400
vn 0.531400 0.659600 -0.531400
vn -0.417500 0.659600 -0.625000
vn 0.287600 0.659600 -0.694400
vn 0.287600 0.659700 0.694300
vn -0.694400 0.659600 0.287600
vn 0.751600 0.659600 0.000000
vn 0.196600 0.876000 -0.440400
vt 0.176871 0.463834
vt 0.182592 0.461591
vt 0.200225 0.458578
vt 0.159421 0.467102
vt 0.141870 0.470414
vt 0.150329 0.467197
vt 0.156817 0.465683
vt 0.166712 0.464213
vt 0.150971 0.466255
vt 0.124006 0.473645
vt 0.131250 0.471309
vt 0.137651 0.466783
vt 0.133421 0.467880
vt 0.133036 0.466303
vt 0.133036 0.466303
vt 0.128804 0.468907
vt 0.105700 0.476669
vt 0.111808 0.475158
vt 0.112275 0.474533
vt 0.090584 0.478828
vt 0.104527 0.476393
vt 0.086888 0.479371
vt 0.067561 0.481645
vt 0.069484 0.481577
vt 0.047768 0.483406
vt 0.048906 0.483527
vt 0.027608 0.484586
vt 0.028396 0.484876
vt 0.007220 0.485138
vt 0.986770 0.485043
vt 0.986004 0.485815
vt 0.993770 0.485859
vt 1.007528 0.485698
vt 1.007220 0.485138
vt 0.985945 0.485616
vt 0.966432 0.484303
vt 0.964493 0.484873
vt 0.968874 0.484081
vt 0.963902 0.483830
vt 0.964007 0.482890
vt 0.964007 0.482890
vt 0.959048 0.483369
vt 0.946367 0.482946
vt 0.943276 0.483147
vt 0.943038 0.482842
vt 0.935886 0.482270
vt 0.923587 0.480800
vt 0.926703 0.481026
vt 0.907525 0.478616
vt 0.904888 0.478177
vt 0.888865 0.475808
vt 0.886195 0.475165
vt 0.870699 0.472711
vt 0.866928 0.471552
vt 0.852944 0.469443
vt 0.835449 0.466130
vt 0.825176 0.461744
vt 0.832302 0.463258
vt 0.846388 0.467002
vt 0.824401 0.460584
vt 0.817971 0.462899
vt 0.805968 0.457632
vt 0.807241 0.452895
vt 0.802435 0.451798
vt 0.803059 0.449579
vt 0.798179 0.450771
vt 0.800120 0.459875
vt 0.785893 0.453784
vt 0.784832 0.452306
vt 0.778814 0.452549
vt 0.768324 0.452388
vt 0.781209 0.457174
vt 0.759859 0.454899
vt 0.748831 0.451566
vt 0.732687 0.453138
vt 0.720250 0.450217
vt 0.688565 0.451959
vt 0.667782 0.448266
vt 0.575973 0.451406
vt 0.376527 0.451502
vt 0.414517 0.443126
vt 0.459108 0.443082
vt 0.553926 0.445518
vt 0.416474 0.441223
vt 0.295197 0.452242
vt 0.330636 0.444068
vt 0.353336 0.435596
vt 0.339419 0.435848
vt 0.337920 0.432993
vt 0.325814 0.436308
vt 0.258337 0.453598
vt 0.284583 0.445794
vt 0.286435 0.443998
vt 0.271623 0.446672
vt 0.248594 0.450416
vt 0.233474 0.455518
vt 0.213058 0.457929
vt 0.221236 0.454965
vt 0.194558 0.460736
vt 0.067482 0.482075
vt 0.047712 0.483787
vt 0.086785 0.479863
vt 0.733323 0.454359
vt 0.946430 0.483340
vt 0.870855 0.473388
vt 0.853126 0.470211
vt 0.176633 0.464758
vt 0.926789 0.481473
vt 0.907634 0.479130
vt 0.800418 0.460909
vt 0.760325 0.456071
vt 0.835662 0.466990
vt 0.027575 0.484934
vt 0.007211 0.485471
vt 0.212715 0.459017
vt 0.818221 0.463849
vt 0.986785 0.485378
vt 0.257762 0.454806
vt 0.159217 0.467935
vt 0.194276 0.461746
vt 0.375411 0.452768
vt 0.294366 0.453488
vt 0.141695 0.471156
vt 0.123857 0.474297
vt 0.689503 0.453212
vt 0.576855 0.452675
vt 0.966472 0.484658
vt 0.105575 0.477237
vt 1.007211 0.485471
vt 0.781574 0.458283
vt 0.233042 0.456673
vt 0.888997 0.476400
vt 0.007528 0.485698
f 1/1/1 2/2/2 3/3/3
f 2/2/2 1/1/1 4/4/4
f 5/5/5 6/6/6 7/7/7
f 8/8/8 4/4/4 5/5/5
f 7/7/7 6/6/6 9/9/9
f 5/5/5 10/10/10 11/11/11
f 11/11/11 12/12/12 9/9/9
f 11/11/11 13/13/13 12/12/12
f 13/13/13 14/14/14 15/15/15
f 14/14/14 13/13/13 16/16/16
f 10/10/10 17/17/17 18/18/18
f 11/11/11 18/18/18 19/19/19
f 16/16/16 13/13/13 11/11/11
f 17/17/17 20/20/20 21/21/21
f 17/17/17 22/22/22 20/20/20
f 19/19/19 18/18/18 21/21/21
f 22/22/22 23/23/23 24/24/24
f 23/23/23 25/25/25 26/26/26
f 26/26/26 25/25/25 27/27/27
f 28/28/28 27/27/27 29/29/29
f 30/30/30 31/31/31 32/32/32
f 33/33/33 34/34/34 30/30/30
f 32/32/32 31/31/31 35/35/35
f 30/30/30 36/36/36 37/37/37
f 37/37/37 38/38/38 35/35/35
f 37/37/37 39/39/39 38/38/38
f 39/39/39 40/40/40 41/41/41
f 40/40/40 39/39/39 42/42/42
f 36/36/36 43/43/43 44/44/44
f 37/37/37 44/44/44 45/45/45
f 42/42/42 39/39/39 37/37/37
f 45/45/45 44/44/44 46/46/46
f 43/43/43 47/47/47 46/46/46
f 43/43/43 48/48/48 47/47/47
f 48/48/48 49/49/49 50/50/50
f 49/49/49 51/51/51 52/52/52
f 52/52/52 51/51/51 53/53/53
f 54/54/54 53/53/53 55/55/55
f 56/56/56 57/57/57 58/58/58
f 59/59/59 55/55/55 56/56/56
f 58/58/58 57/57/57 60/60/60
f 56/56/56 61/61/61 62/62/62
f 62/62/62 63/63/63 60/60/60
f 62/62/62 64/64/64 63/63/63
f 63/63/63 64/64/64 65/65/65
f 65/65/65 64/64/64 66/66/66
f 61/61/61 67/67/67 68/68/68
f 62/62/62 68/68/68 69/69/69
f 66/66/66 64/64/64 62/62/62
f 69/69/69 68/68/68 70/70/70
f 67/67/67 71/71/71 70/70/70
f 67/67/67 72/72/72 71/71/71
f 72/72/72 73/73/73 74/74/74
f 73/73/73 75/75/75 76/76/76
f 76/76/76 75/75/75 77/77/77
f 78/78/78 77/77/77 79/79/79
f 80/80/80 81/81/81 82/82/82
f 83/83/83 79/79/79 80/80/80
f 82/82/82 81/81/81 84/84/84
f 80/80/80 85/85/85 86/86/86
f 86/86/86 87/87/87 84/84/84
f 86/86/86 88/88/88 87/87/87
f 87/87/87 88/88/88 89/89/89
f 89/89/89 88/88/88 90/90/90
f 85/85/85 91/91/91 92/92/92
f 86/86/86 92/92/92 93/93/93
f 90/90/90 88/88/88 86/86/86
f 93/93/93 92/92/92 94/94/94
f 91/91/91 95/95/95 94/94/94
f 91/91/91 96/96/96 95/95/95
f 96/96/96 97/97/97 98/98/98
f 97/97/97 99/99/99 3/3/3
f 23/23/23 100/100/100 101/101/101
f 23/23/23 22/22/22 102/102/102
f 77/77/77 75/75/75 103/103/103
f 48/48/48 43/43/43 104/104/104
f 53/53/53 105/105/105 106/106/106
f 4/4/4 1/1/1 107/107/107
f 48/48/48 108/108/108 109/109/109
f 72/72/72 67/67/67 110/110/110
f 75/75/75 73/73/73 111/111/111
f 55/55/55 106/106/106 112/112/112
f 27/27/27 113/113/113 114/114/114
f 99/99/99 97/97/97 115/115/115
f 56/56/56 112/112/112 116/116/116
f 36/36/36 30/30/30 117/117/117
f 96/96/96 91/91/91 118/118/118
f 67/67/67 61/61/61 116/116/116
f 5/5/5 4/4/4 119/119/119
f 1/1/1 99/99/99 120/120/120
f 80/80/80 121/121/121 122/122/122
f 5/5/5 123/123/123 124/124/124
f 77/77/77 125/125/125 126/126/126
f 43/43/43 36/36/36 127/127/127
f 79/79/79 126/126/126 121/121/121
f 22/22/22 17/17/17 128/128/128
f 27/27/27 25/25/25 101/101/101
f 34/34/34 129/129/129 117/117/117
f 72/72/72 130/130/130 111/111/111
f 97/97/97 96/96/96 131/131/131
f 51/51/51 49/49/49 109/109/109
f 85/85/85 122/122/122 118/118/118
f 51/51/51 132/132/132 105/105/105
f 10/10/10 124/124/124 128/128/128
f 99/99/99 1/1/1 3/3/3
f 8/8/8 2/2/2 4/4/4
f 8/8/8 5/5/5 7/7/7
f 6/6/6 5/5/5 11/11/11
f 6/6/6 11/11/11 9/9/9
f 12/12/12 13/13/13 15/15/15
f 11/11/11 10/10/10 18/18/18
f 16/16/16 11/11/11 19/19/19
f 18/18/18 17/17/17 21/21/21
f 20/20/20 22/22/22 24/24/24
f 24/24/24 23/23/23 26/26/26
f 28/28/28 26/26/26 27/27/27
f 133/133/133 28/28/28 29/29/29
f 33/33/33 30/30/30 32/32/32
f 31/31/31 30/30/30 37/37/37
f 31/31/31 37/37/37 35/35/35
f 38/38/38 39/39/39 41/41/41
f 37/37/37 36/36/36 44/44/44
f 42/42/42 37/37/37 45/45/45
f 44/44/44 43/43/43 46/46/46
f 47/47/47 48/48/48 50/50/50
f 50/50/50 49/49/49 52/52/52
f 54/54/54 52/52/52 53/53/53
f 59/59/59 54/54/54 55/55/55
f 59/59/59 56/56/56 58/58/58
f 57/57/57 56/56/56 62/62/62
f 57/57/57 62/62/62 60/60/60
f 62/62/62 61/61/61 68/68/68
f 66/66/66 62/62/62 69/69/69
f 68/68/68 67/67/67 70/70/70
f 71/71/71 72/72/72 74/74/74
f 74/74/74 73/73/73 76/76/76
f 78/78/78 76/76/76 77/77/77
f 83/83/83 78/78/78 79/79/79
f 83/83/83 80/80/80 82/82/82
f 81/81/81 80/80/80 86/86/86
f 81/81/81 86/86/86 84/84/84
f 86/86/86 85/85/85 92/92/92
f 90/90/90 86/86/86 93/93/93
f 92/92/92 91/91/91 94/94/94
f 95/95/95 96/96/96 98/98/98
f 98/98/98 97/97/97 3/3/3
f 25/25/25 23/23/23 101/101/101
f 100/100/100 23/23/23 102/102/102
f 125/125/125 77/77/77 103/103/103
f 108/108/108 48/48/48 104/104/104
f 55/55/55 53/53/53 106/106/106
f 119/119/119 4/4/4 107/107/107
f 49/49/49 48/48/48 109/109/109
f 130/130/130 72/72/72 110/110/110
f 103/103/103 75/75/75 111/111/111
f 56/56/56 55/55/55 112/112/112
f 29/29/29 27/27/27 114/114/114
f 120/120/120 99/99/99 115/115/115
f 61/61/61 56/56/56 116/116/116
f 127/127/127 36/36/36 117/117/117
f 131/131/131 96/96/96 118/118/118
f 110/110/110 67/67/67 116/116/116
f 123/123/123 5/5/5 119/119/119
f 107/107/107 1/1/1 120/120/120
f 85/85/85 80/80/80 122/122/122
f 10/10/10 5/5/5 124/124/124
f 79/79/79 77/77/77 126/126/126
f 104/104/104 43/43/43 127/127/127
f 80/80/80 79/79/79 121/121/121
f 102/102/102 22/22/22 128/128/128
f 113/113/113 27/27/27 101/101/101
f 30/30/30 34/34/34 117/117/117
f 73/73/73 72/72/72 111/111/111
f 115/115/115 97/97/97 131/131/131
f 132/132/132 51/51/51 109/109/109
f 91/91/91 85/85/85 118/118/118
f 53/53/53 51/51/51 105/105/105
f 17/17/17 10/10/10 128/128/128
