v -0.519852 4.188066 -2.548970
v -0.531118 4.196855 -2.552545
v -0.533574 4.186248 -2.543936
v -0.527940 4.181680 -2.559144
v -0.536158 4.184208 -2.547186
v -0.533702 4.194815 -2.555796
v -0.531118 4.196855 -2.552545
v -0.533702 4.194815 -2.555796
v -0.536158 4.184208 -2.547186
v -0.519852 4.188066 -2.548970
v -0.533574 4.186248 -2.543936
v -0.525061 4.175287 -2.543823
v -0.527940 4.181680 -2.559144
v -0.527644 4.173246 -2.547073
v -0.536158 4.184208 -2.547186
v -0.533574 4.186248 -2.543936
v -0.536158 4.184208 -2.547186
v -0.527644 4.173246 -2.547073
v -0.519852 4.188066 -2.548970
v -0.525061 4.175287 -2.543823
v -0.514091 4.174931 -2.552319
v -0.527940 4.181680 -2.559144
v -0.516675 4.172891 -2.555570
v -0.527644 4.173246 -2.547073
v -0.525061 4.175287 -2.543823
v -0.527644 4.173246 -2.547073
v -0.516675 4.172891 -2.555570
v -0.519852 4.188066 -2.548970
v -0.514091 4.174931 -2.552319
v -0.511634 4.185538 -2.560929
v -0.527940 4.181680 -2.559144
v -0.514218 4.183497 -2.564179
v -0.516675 4.172891 -2.555570
v -0.516675 4.172891 -2.555570
v -0.514218 4.183497 -2.564179
v -0.511634 4.185538 -2.560929
v -0.519852 4.188066 -2.548970
v -0.511634 4.185538 -2.560929
v -0.520148 4.196499 -2.561042
v -0.527940 4.181680 -2.559144
v -0.522732 4.194459 -2.564292
v -0.514218 4.183497 -2.564179
v -0.511634 4.185538 -2.560929
v -0.514218 4.183497 -2.564179
v -0.522732 4.194459 -2.564292
v -0.519852 4.188066 -2.548970
v -0.520148 4.196499 -2.561042
v -0.531118 4.196855 -2.552545
v -0.527940 4.181680 -2.559144
v -0.533702 4.194815 -2.555796
v -0.522732 4.194459 -2.564292
v -0.522732 4.194459 -2.564292
v -0.533702 4.194815 -2.555796
v -0.531118 4.196855 -2.552545
v -0.533574 4.186248 -2.543936
v -0.531118 4.196855 -2.552545
v -0.536158 4.184208 -2.547186
v -0.525061 4.175287 -2.543823
v -0.533574 4.186248 -2.543936
v -0.527644 4.173246 -2.547073
v -0.514091 4.174931 -2.552319
v -0.525061 4.175287 -2.543823
v -0.516675 4.172891 -2.555570
v -0.514091 4.174931 -2.552319
v -0.516675 4.172891 -2.555570
v -0.511634 4.185538 -2.560929
v -0.520148 4.196499 -2.561042
v -0.511634 4.185538 -2.560929
v -0.522732 4.194459 -2.564292
v -0.520148 4.196499 -2.561042
v -0.522732 4.194459 -2.564292
v -0.531118 4.196855 -2.552545
vn 0.209400 0.586600 0.782300
vn 0.209400 0.586600 0.782300
vn 0.209400 0.586600 0.782300
vn -0.824100 -0.229500 -0.517800
vn -0.824100 -0.229500 -0.517800
vn -0.824100 -0.229500 -0.517800
vn -0.810400 0.470800 0.348700
vn -0.810400 0.470800 0.348700
vn -0.810400 0.470800 0.348700
vn 0.304900 0.246300 0.920000
vn 0.304900 0.246300 0.920000
vn 0.304900 0.246300 0.920000
vn -0.728600 -0.569700 -0.380300
vn -0.728600 -0.569700 -0.380300
vn -0.728600 -0.569700 -0.380300
vn -0.558500 -0.426300 0.711600
vn -0.558500 -0.426300 0.711600
vn -0.558500 -0.426300 0.711600
vn 0.612300 0.067800 0.787700
vn 0.612300 0.067800 0.787700
vn 0.612300 0.067800 0.787700
vn -0.421200 -0.748300 -0.512400
vn -0.421200 -0.748300 -0.512400
vn -0.421200 -0.748300 -0.512400
vn 0.252000 -0.897200 0.362800
vn 0.252000 -0.897200 0.362800
vn 0.252000 -0.897200 0.362800
vn 0.824100 0.229500 0.517800
vn 0.824100 0.229500 0.517800
vn 0.824100 0.229500 0.517800
vn -0.209400 -0.586600 -0.782400
vn -0.209400 -0.586600 -0.782400
vn -0.209400 -0.586600 -0.782400
vn 0.810400 -0.470700 -0.348700
vn 0.810400 -0.470700 -0.348700
vn 0.810400 -0.470700 -0.348700
vn 0.728600 0.569800 0.380200
vn 0.728600 0.569800 0.380200
vn 0.728600 0.569800 0.380200
vn -0.304900 -0.246300 -0.920000
vn -0.304900 -0.246300 -0.920000
vn -0.304900 -0.246300 -0.920000
vn 0.558400 0.426400 -0.711600
vn 0.558400 0.426400 -0.711600
vn 0.558400 0.426400 -0.711600
vn 0.421200 0.748300 0.512500
vn 0.421200 0.748300 0.512500
vn 0.421200 0.748300 0.512500
vn -0.612300 -0.067800 -0.787700
vn -0.612300 -0.067800 -0.787700
vn -0.612300 -0.067800 -0.787700
vn -0.251900 0.897200 -0.362700
vn -0.251900 0.897200 -0.362700
vn -0.251900 0.897200 -0.362700
vn -0.810500 0.470700 0.348700
vn -0.810500 0.470700 0.348700
vn -0.810500 0.470700 0.348700
vn -0.558500 -0.426500 0.711500
vn -0.558500 -0.426500 0.711500
vn -0.558500 -0.426500 0.711500
vn 0.251900 -0.897200 0.362700
vn 0.251900 -0.897200 0.362700
vn 0.251900 -0.897200 0.362700
vn 0.810400 -0.470800 -0.348800
vn 0.810400 -0.470800 -0.348800
vn 0.810400 -0.470800 -0.348800
vn 0.558500 0.426400 -0.711600
vn 0.558500 0.426400 -0.711600
vn 0.558500 0.426400 -0.711600
vn -0.251900 0.897100 -0.363000
vn -0.251900 0.897100 -0.363000
vn -0.251900 0.897100 -0.363000
vt 0.000000 0.000000
vt 0.000000 0.000000
vt 0.000000 0.000000
vt 0.000000 0.000000
vt 0.000000 0.000000
vt 0.000000 0.000000
vt 0.000000 0.000000
vt 0.000000 0.000000
vt 0.000000 0.000000
vt 0.000000 0.000000
vt 0.000000 0.000000
vt 0.000000 0.000000
vt 0.000000 0.000000
vt 0.000000 0.000000
vt 0.000000 0.000000
vt 0.000000 0.000000
vt 0.000000 0.000000
vt 0.000000 0.000000
vt 0.000000 0.000000
vt 0.000000 0.000000
vt 0.000000 0.000000
vt 0.000000 0.000000
vt 0.000000 0.000000
vt 0.000000 0.000000
vt 0.000000 0.000000
vt 0.000000 0.000000
vt 0.000000 0.000000
vt 0.000000 0.000000
vt 0.000000 0.000000
vt 0.000000 0.000000
vt 0.000000 0.000000
vt 0.000000 0.000000
vt 0.000000 0.000000
vt 0.000000 0.000000
vt 0.000000 0.000000
vt 0.000000 0.000000
vt 0.000000 0.000000
vt 0.000000 0.000000
vt 0.000000 0.000000
vt 0.000000 0.000000
vt 0.000000 0.000000
vt 0.000000 0.000000
vt 0.000000 0.000000
vt 0.000000 0.000000
vt 0.000000 0.000000
vt 0.000000 0.000000
vt 0.000000 0.000000
vt 0.000000 0.000000
vt 0.000000 0.000000
vt 0.000000 0.000000
vt 0.000000 0.000000
vt 0.000000 0.000000
vt 0.000000 0.000000
vt 0.000000 0.000000
vt 0.000000 0.000000
vt 0.000000 0.000000
vt 0.000000 0.000000
vt 0.000000 0.000000
vt 0.000000 0.000000
vt 0.000000 0.000000
vt 0.000000 0.000000
vt 0.000000 0.000000
vt 0.000000 0.000000
vt 0.000000 0.000000
vt 0.000000 0.000000
vt 0.000000 0.000000
vt 0.000000 0.000000
vt 0.000000 0.000000
vt 0.000000 0.000000
vt 0.000000 0.000000
vt 0.000000 0.000000
vt 0.000000 0.000000
f 1/1/1 2/2/2 3/3/3
f 4/4/4 5/5/5 6/6/6
f 7/7/7 8/8/8 9/9/9
f 10/10/10 11/11/11 12/12/12
f 13/13/13 14/14/14 15/15/15
f 16/16/16 17/17/17 18/18/18
f 19/19/19 20/20/20 21/21/21
f 22/22/22 23/23/23 24/24/24
f 25/25/25 26/26/26 27/27/27
f 28/28/28 29/29/29 30/30/30
f 31/31/31 32/32/32 33/33/33
f 34/34/34 35/35/35 36/36/36
f 37/37/37 38/38/38 39/39/39
f 40/40/40 41/41/41 42/42/42
f 43/43/43 44/44/44 45/45/45
f 46/46/46 47/47/47 48/48/48
f 49/49/49 50/50/50 51/51/51
f 52/52/52 53/53/53 54/54/54
f 55/55/55 56/56/56 57/57/57
f 58/58/58 59/59/59 60/60/60
f 61/61/61 62/62/62 63/63/63
f 64/64/64 65/65/65 66/66/66
f 67/67/67 68/68/68 69/69/69
f 70/70/70 71/71/71 72/72/72
