v -0.930489 5.741287 -5.119058
v -0.928222 5.739020 -5.121229
v -1.762751 5.739020 -5.121229
v -0.932756 5.743554 -5.119392
v -1.760484 5.741287 -5.119058
v -1.751420 5.750351 -5.124637
v -0.939553 5.750351 -5.124637
v -0.945337 5.756135 -5.127041
v -1.739666 5.762105 -5.126898
v -0.951307 5.762105 -5.126898
v -1.735605 5.766166 -5.124171
v -0.955367 5.766166 -5.124171
v -0.958239 5.769037 -5.123618
v -1.729862 5.771910 -5.125272
v -0.961111 5.771909 -5.125272
v -1.727313 5.774458 -5.128762
v -0.963660 5.774458 -5.128762
v -0.966166 5.776964 -5.129488
v -0.967700 5.778498 -5.127551
v -1.724807 5.776965 -5.129488
v -0.970141 5.780939 -5.127085
v -1.723273 5.778499 -5.127551
v -0.972692 5.783490 -5.129325
v -1.720832 5.780939 -5.127085
v -1.718086 5.783685 -5.134422
v -0.972887 5.783685 -5.134422
v -0.930489 6.764750 -5.119058
v -0.928222 6.767016 -5.121229
v -0.932756 6.762482 -5.119392
v -0.939553 6.755685 -5.124637
v -0.945337 6.749902 -5.127041
v -0.951307 6.743932 -5.126898
v -0.955367 6.739871 -5.124171
v -0.958239 6.736999 -5.123618
v -0.961111 6.734127 -5.125272
v -0.963660 6.731579 -5.128762
v -0.966166 6.729072 -5.129488
v -0.967700 6.727538 -5.127552
v -0.970141 6.725098 -5.127085
v -0.972692 6.722546 -5.129325
v -0.972887 6.722352 -5.134422
v -1.760484 6.764750 -5.119058
v -1.762751 6.767016 -5.121229
v -1.758217 6.762483 -5.119392
v -1.751420 6.755685 -5.124637
v -1.745636 6.749902 -5.127041
v -1.739666 6.743932 -5.126898
v -1.735605 6.739871 -5.124171
v -1.732734 6.737000 -5.123618
v -1.729862 6.734128 -5.125272
v -1.727313 6.731579 -5.128762
v -1.724807 6.729073 -5.129488
v -1.723273 6.727539 -5.127552
v -1.720832 6.725098 -5.127085
v -1.718281 6.722547 -5.129325
v -1.718086 6.722352 -5.134422
v -1.760484 5.741287 -5.119058
v -1.762751 5.739020 -5.121229
v -1.762751 6.767016 -5.121229
v -1.758217 5.743555 -5.119392
v -1.760484 6.764750 -5.119058
v -1.751420 6.755685 -5.124637
v -1.751420 5.750351 -5.124637
v -1.745636 5.756135 -5.127041
v -1.739666 5.762105 -5.126898
v -1.745636 6.749902 -5.127041
v -1.735605 5.766166 -5.124171
v -1.739666 6.743932 -5.126898
v -1.732734 5.769038 -5.123618
v -1.735605 6.739871 -5.124171
v -1.729862 5.771910 -5.125272
v -1.732734 6.737000 -5.123618
v -1.727313 6.731579 -5.128762
v -1.727313 5.774458 -5.128762
v -1.724807 5.776965 -5.129488
v -1.723273 5.778499 -5.127551
v -1.724807 6.729073 -5.129488
v -1.720832 6.725098 -5.127085
v -1.720832 5.780939 -5.127085
v -1.718281 5.783491 -5.129325
v -1.718086 5.783685 -5.134422
v -1.718281 6.722547 -5.129325
v -1.758217 5.743555 -5.119392
v -1.745636 5.756135 -5.127041
v -1.732734 5.769038 -5.123618
v -1.718281 5.783491 -5.129325
v -1.758217 6.762483 -5.119392
v -1.729862 6.734128 -5.125272
v -1.723273 6.727539 -5.127552
v -1.718086 6.722352 -5.134422
vn -0.273300 0.273300 -0.922200
vn -0.648700 0.648600 -0.398100
vn 0.648700 0.648600 -0.398100
vn 0.144000 -0.143900 -0.979000
vn 0.273400 0.273300 -0.922200
vn -0.300800 -0.300700 -0.905000
vn 0.300800 -0.300800 -0.905000
vn 0.145600 -0.145600 -0.978500
vn 0.087700 0.087800 -0.992200
vn -0.087700 0.087800 -0.992200
vn 0.248500 0.248600 -0.936200
vn -0.248600 0.248600 -0.936100
vn -0.002700 0.002600 -1.000000
vn -0.335900 -0.335800 -0.880000
vn 0.335900 -0.335800 -0.880000
vn -0.395600 -0.395700 -0.828800
vn 0.395700 -0.395700 -0.828700
vn -0.025200 0.025300 -0.999400
vn -0.368800 0.368900 -0.853100
vn 0.025200 0.025200 -0.999400
vn 0.028700 -0.028400 -0.999200
vn 0.368900 0.368600 -0.853200
vn 0.548300 -0.548300 -0.631400
vn -0.028300 -0.028400 -0.999200
vn -0.706100 -0.706000 -0.053900
vn 0.706100 -0.706000 -0.054000
vn -0.273400 -0.273400 -0.922200
vn -0.648600 -0.648700 -0.398000
vn 0.143800 0.143900 -0.979100
vn 0.300800 0.300800 -0.905000
vn 0.145600 0.145600 -0.978500
vn -0.087800 -0.087800 -0.992200
vn -0.248600 -0.248600 -0.936200
vn -0.002600 -0.002600 -1.000000
vn 0.335800 0.335800 -0.880000
vn 0.395600 0.395600 -0.828800
vn -0.025200 -0.025200 -0.999400
vn -0.369000 -0.368800 -0.853100
vn 0.028300 0.028400 -0.999200
vn 0.548300 0.548200 -0.631400
vn 0.706100 0.706000 -0.054000
vn 0.273300 -0.273400 -0.922200
vn 0.648700 -0.648700 -0.398000
vn -0.144000 0.143900 -0.979000
vn -0.300800 0.300800 -0.905000
vn -0.145600 0.145600 -0.978500
vn 0.087800 -0.087800 -0.992200
vn 0.248600 -0.248600 -0.936100
vn 0.002700 -0.002600 -1.000000
vn -0.335900 0.335900 -0.880000
vn -0.395700 0.395600 -0.828800
vn 0.025200 -0.025200 -0.999400
vn 0.368800 -0.368800 -0.853200
vn -0.028700 0.028400 -0.999200
vn -0.548300 0.548400 -0.631300
vn -0.706100 0.706000 -0.053800
vn 0.273400 0.273300 -0.922200
vn 0.648700 0.648600 -0.398100
vn 0.648700 -0.648700 -0.398000
vn -0.143800 -0.143900 -0.979100
vn 0.273300 -0.273400 -0.922200
vn -0.300800 0.300800 -0.905000
vn -0.300800 -0.300700 -0.905000
vn -0.145600 -0.145600 -0.978500
vn 0.087700 0.087800 -0.992200
vn -0.145600 0.145600 -0.978500
vn 0.248500 0.248600 -0.936200
vn 0.087800 -0.087800 -0.992200
vn 0.002600 0.002600 -1.000000
vn 0.248600 -0.248600 -0.936100
vn -0.335900 -0.335800 -0.880000
vn 0.002700 -0.002600 -1.000000
vn -0.395700 0.395600 -0.828800
vn -0.395600 -0.395700 -0.828800
vn 0.025200 0.025200 -0.999400
vn 0.368900 0.368600 -0.853200
vn 0.025200 -0.025200 -0.999400
vn -0.028700 0.028400 -0.999200
vn -0.028300 -0.028400 -0.999200
vn -0.548400 -0.548400 -0.631300
vn -0.706100 -0.706000 -0.053900
vn -0.548300 0.548400 -0.631300
vn -0.143800 -0.143900 -0.979100
vn -0.145600 -0.145600 -0.978500
vn 0.002600 0.002600 -1.000000
vn -0.548400 -0.548400 -0.631300
vn -0.144000 0.143900 -0.979000
vn -0.335900 0.335900 -0.880000
vn 0.368800 -0.368800 -0.853200
vn -0.706100 0.706000 -0.053800
vt 0.000000 0.000000
vt 0.000000 0.000000
vt 0.000000 0.000000
vt 0.000000 0.000000
vt 0.000000 0.000000
vt 0.000000 0.000000
vt 0.000000 0.000000
vt 0.000000 0.000000
vt 0.000000 0.000000
vt 0.000000 0.000000
vt 0.000000 0.000000
vt 0.000000 0.000000
vt 0.000000 0.000000
vt 0.000000 0.000000
vt 0.000000 0.000000
vt 0.000000 0.000000
vt 0.000000 0.000000
vt 0.000000 0.000000
vt 0.000000 0.000000
vt 0.000000 0.000000
vt 0.000000 0.000000
vt 0.000000 0.000000
vt 0.000000 0.000000
vt 0.000000 0.000000
vt 0.000000 0.000000
vt 0.000000 0.000000
vt 0.000000 0.000000
vt 0.000000 0.000000
vt 0.000000 0.000000
vt 0.000000 0.000000
vt 0.000000 0.000000
vt 0.000000 0.000000
vt 0.000000 0.000000
vt 0.000000 0.000000
vt 0.000000 0.000000
vt 0.000000 0.000000
vt 0.000000 0.000000
vt 0.000000 0.000000
vt 0.000000 0.000000
vt 0.000000 0.000000
vt 0.000000 0.000000
vt 0.000000 0.000000
vt 0.000000 0.000000
vt 0.000000 0.000000
vt 0.000000 0.000000
vt 0.000000 0.000000
vt 0.000000 0.000000
vt 0.000000 0.000000
vt 0.000000 0.000000
vt 0.000000 0.000000
vt 0.000000 0.000000
vt 0.000000 0.000000
vt 0.000000 0.000000
vt 0.000000 0.000000
vt 0.000000 0.000000
vt 0.000000 0.000000
vt 0.779741 -1.727065
vt 0.845908 -1.774848
vt 0.845919 2.024772
vt 0.714552 -1.662552
vt 0.780428 2.017129
vt 0.652964 1.985572
vt 0.650914 -1.612126
vt 0.588518 -1.554446
vt 0.527498 -1.493351
vt 0.591157 1.965646
vt 0.467781 -1.443683
vt 0.530759 1.945245
vt 0.409111 -1.385941
vt 0.471588 1.931708
vt 0.351612 -1.335975
vt 0.413663 1.922406
vt 0.300623 1.905335
vt 0.295106 -1.302528
vt 0.239360 -1.248802
vt 0.184602 -1.214661
vt 0.245550 1.897610
vt 0.137874 1.885889
vt 0.130615 -1.161406
vt 0.077671 -1.121418
vt 0.025334 -1.119289
vt 0.085359 1.878276
vt 0.000000 0.000000
vt 0.000000 0.000000
vt 0.000000 0.000000
vt 0.000000 0.000000
vt 0.716194 2.009467
vt 0.356772 1.913321
vt 0.191213 1.893197
vt 0.033034 1.878203
f 1/1/1 2/2/2 3/3/3
f 4/4/4 1/1/1 5/5/5
f 6/6/6 7/7/7 4/4/4
f 8/8/8 7/7/7 6/6/6
f 9/9/9 10/10/10 8/8/8
f 11/11/11 12/12/12 10/10/10
f 13/13/13 12/12/12 11/11/11
f 14/14/14 15/15/15 13/13/13
f 16/16/16 17/17/17 15/15/15
f 18/18/18 17/17/17 16/16/16
f 19/19/19 18/18/18 20/20/20
f 21/21/21 19/19/19 22/22/22
f 23/23/23 21/21/21 24/24/24
f 25/25/25 26/26/26 23/23/23
f 27/27/27 28/28/28 2/2/2
f 29/29/29 27/27/27 1/1/1
f 7/7/7 30/30/30 29/29/29
f 31/31/31 30/30/30 7/7/7
f 10/10/10 32/32/32 31/31/31
f 33/33/33 32/32/32 10/10/10
f 34/34/34 33/33/33 12/12/12
f 15/15/15 35/35/35 34/34/34
f 17/17/17 36/36/36 35/35/35
f 37/37/37 36/36/36 17/17/17
f 38/38/38 37/37/37 18/18/18
f 21/21/21 39/39/39 38/38/38
f 40/40/40 39/39/39 21/21/21
f 41/41/41 40/40/40 23/23/23
f 27/27/27 42/42/42 43/43/43
f 44/44/44 42/42/42 27/27/27
f 30/30/30 45/45/45 44/44/44
f 46/46/46 45/45/45 30/30/30
f 47/47/47 46/46/46 31/31/31
f 48/48/48 47/47/47 32/32/32
f 49/49/49 48/48/48 33/33/33
f 50/50/50 49/49/49 34/34/34
f 36/36/36 51/51/51 50/50/50
f 52/52/52 51/51/51 36/36/36
f 53/53/53 52/52/52 37/37/37
f 54/54/54 53/53/53 38/38/38
f 40/40/40 55/55/55 54/54/54
f 56/56/56 55/55/55 40/40/40
f 57/57/57 58/58/58 59/59/59
f 60/60/60 57/57/57 61/61/61
f 62/62/62 63/63/63 60/60/60
f 64/64/64 63/63/63 62/62/62
f 65/65/65 64/64/64 66/66/66
f 67/67/67 65/65/65 68/68/68
f 69/69/69 67/67/67 70/70/70
f 71/71/71 69/69/69 72/72/72
f 73/73/73 74/74/74 71/71/71
f 75/75/75 74/74/74 73/73/73
f 76/76/76 75/75/75 77/77/77
f 78/78/78 79/79/79 76/76/76
f 80/80/80 79/79/79 78/78/78
f 81/81/81 80/80/80 82/82/82
f 5/5/5 1/1/1 3/3/3
f 83/83/83 4/4/4 5/5/5
f 83/83/83 6/6/6 4/4/4
f 84/84/84 8/8/8 6/6/6
f 84/84/84 9/9/9 8/8/8
f 9/9/9 11/11/11 10/10/10
f 85/85/85 13/13/13 11/11/11
f 85/85/85 14/14/14 13/13/13
f 14/14/14 16/16/16 15/15/15
f 20/20/20 18/18/18 16/16/16
f 22/22/22 19/19/19 20/20/20
f 24/24/24 21/21/21 22/22/22
f 86/86/86 23/23/23 24/24/24
f 86/86/86 25/25/25 23/23/23
f 1/1/1 27/27/27 2/2/2
f 4/4/4 29/29/29 1/1/1
f 4/4/4 7/7/7 29/29/29
f 8/8/8 31/31/31 7/7/7
f 8/8/8 10/10/10 31/31/31
f 12/12/12 33/33/33 10/10/10
f 13/13/13 34/34/34 12/12/12
f 13/13/13 15/15/15 34/34/34
f 15/15/15 17/17/17 35/35/35
f 18/18/18 37/37/37 17/17/17
f 19/19/19 38/38/38 18/18/18
f 19/19/19 21/21/21 38/38/38
f 23/23/23 40/40/40 21/21/21
f 26/26/26 41/41/41 23/23/23
f 28/28/28 27/27/27 43/43/43
f 29/29/29 44/44/44 27/27/27
f 29/29/29 30/30/30 44/44/44
f 31/31/31 46/46/46 30/30/30
f 32/32/32 47/47/47 31/31/31
f 33/33/33 48/48/48 32/32/32
f 34/34/34 49/49/49 33/33/33
f 35/35/35 50/50/50 34/34/34
f 35/35/35 36/36/36 50/50/50
f 37/37/37 52/52/52 36/36/36
f 38/38/38 53/53/53 37/37/37
f 39/39/39 54/54/54 38/38/38
f 39/39/39 40/40/40 54/54/54
f 41/41/41 56/56/56 40/40/40
f 61/61/61 57/57/57 59/59/59
f 87/87/87 60/60/60 61/61/61
f 87/87/87 62/62/62 60/60/60
f 66/66/66 64/64/64 62/62/62
f 68/68/68 65/65/65 66/66/66
f 70/70/70 67/67/67 68/68/68
f 72/72/72 69/69/69 70/70/70
f 88/88/88 71/71/71 72/72/72
f 88/88/88 73/73/73 71/71/71
f 77/77/77 75/75/75 73/73/73
f 89/89/89 76/76/76 77/77/77
f 89/89/89 78/78/78 76/76/76
f 82/82/82 80/80/80 78/78/78
f 90/90/90 81/81/81 82/82/82
