v 0.526841 1.792034 -3.645437
v 0.526841 1.792034 -5.178236
v 0.526841 2.038008 -5.178236
v 0.526841 1.792034 -3.209751
v 0.526841 2.038008 -3.645437
v 0.526841 2.038008 -3.209751
vn 1.000000 0.000000 0.000000
vn 1.000000 0.000000 0.000000
vn 1.000000 0.000000 0.000000
vn 1.000000 0.000000 0.000000
vn 1.000000 0.000000 0.000000
vn 1.000000 0.000000 0.000000
vt 0.545451 0.588999
vt 0.572494 0.006432
vt 0.819895 0.008072
vt 0.537523 0.921644
vt 0.850129 0.591775
vt 0.853958 0.938333
f 1/1/1 2/2/2 3/3/3
f 4/4/4 1/1/1 5/5/5
f 5/5/5 1/1/1 3/3/3
f 6/6/6 4/4/4 5/5/5
