v 0.487369 3.541314 -3.192073
v 0.488152 3.542361 -3.192397
v 0.485784 3.542361 -3.200204
v 0.510675 3.542361 -3.169874
v 0.503480 3.542361 -3.173720
v 0.503009 3.541314 -3.173015
v 0.542851 3.541314 -3.169091
v 0.542526 3.542361 -3.169874
v 0.534719 3.542361 -3.167506
v 0.565049 3.542361 -3.192397
v 0.561203 3.542361 -3.185202
v 0.561908 3.541314 -3.184731
v 0.565049 3.542361 -3.224249
v 0.567417 3.542361 -3.216442
v 0.568248 3.541314 -3.216607
v 0.542851 3.541314 -3.247554
v 0.542526 3.542361 -3.246771
v 0.549721 3.542361 -3.242925
v 0.510675 3.542361 -3.246771
v 0.518482 3.542361 -3.249140
v 0.518316 3.541314 -3.249971
v 0.485784 3.542361 -3.216442
v 0.484984 3.542361 -3.208323
v 0.500803 3.556242 -3.208323
v 0.491998 3.542361 -3.185202
v 0.497173 3.542361 -3.178896
v 0.508359 3.556242 -3.190081
v 0.501299 3.556242 -3.203290
v 0.505151 3.556242 -3.193990
v 0.518482 3.542361 -3.167506
v 0.521568 3.556242 -3.183021
v 0.521568 3.556242 -3.183021
v 0.518482 3.542361 -3.167506
v 0.526600 3.542361 -3.166707
v 0.531633 3.556242 -3.183021
v 0.549721 3.542361 -3.173720
v 0.540933 3.556242 -3.186873
v 0.556028 3.542361 -3.178896
v 0.544842 3.556242 -3.190081
v 0.567417 3.542361 -3.200204
v 0.551902 3.556242 -3.203290
v 0.568217 3.542361 -3.208323
v 0.552398 3.556242 -3.208323
v 0.550434 3.556242 -3.218195
v 0.561203 3.542361 -3.231444
v 0.548050 3.556242 -3.222655
v 0.556028 3.542361 -3.237750
v 0.544842 3.556242 -3.226564
v 0.536473 3.556242 -3.232157
v 0.534719 3.542361 -3.249140
v 0.526600 3.542361 -3.249939
v 0.526600 3.556242 -3.234120
v 0.518482 3.542361 -3.249140
v 0.521568 3.556242 -3.233625
v 0.516728 3.556242 -3.232157
v 0.503480 3.542361 -3.242925
v 0.512268 3.556242 -3.229773
v 0.497173 3.542361 -3.237750
v 0.491998 3.542361 -3.231444
v 0.505151 3.556242 -3.222655
v 0.488152 3.542361 -3.224249
v 0.501299 3.556242 -3.213356
v 0.502767 3.556242 -3.198451
v 0.516728 3.556242 -3.184489
v 0.512268 3.556242 -3.186873
v 0.536473 3.556242 -3.184489
v 0.550434 3.556242 -3.198451
v 0.548050 3.556242 -3.193990
v 0.551902 3.556242 -3.213356
v 0.540933 3.556242 -3.229773
v 0.521568 3.556242 -3.233625
v 0.484952 3.541314 -3.216607
v 0.484137 3.541314 -3.208323
v 0.491293 3.541314 -3.184731
v 0.496574 3.541314 -3.178296
v 0.484952 3.541314 -3.200039
v 0.510350 3.541314 -3.169091
v 0.518316 3.541314 -3.166675
v 0.518316 3.541314 -3.166675
v 0.526600 3.541314 -3.165859
v 0.534885 3.541314 -3.166675
v 0.550192 3.541314 -3.173015
v 0.556627 3.541314 -3.178296
v 0.565832 3.541314 -3.192073
v 0.568248 3.541314 -3.200038
v 0.569064 3.541314 -3.208323
v 0.565832 3.541314 -3.224573
v 0.561908 3.541314 -3.231915
v 0.556627 3.541314 -3.238349
v 0.550192 3.541314 -3.243630
v 0.534885 3.541314 -3.249971
v 0.526600 3.541314 -3.250787
v 0.518316 3.541314 -3.249971
v 0.510350 3.541314 -3.247554
v 0.503009 3.541314 -3.243630
v 0.496574 3.541314 -3.238349
v 0.491293 3.541314 -3.231915
v 0.487369 3.541314 -3.224573
v 0.526600 3.556242 -3.182525
v 0.531633 3.556242 -3.233625
v 0.508359 3.556242 -3.226564
v 0.502767 3.556242 -3.218195
vn -0.718300 0.629000 0.297400
vn -0.668600 0.690200 0.276800
vn -0.709700 0.690200 0.141100
vn -0.276900 0.690100 0.668500
vn -0.402000 0.690100 0.601700
vn -0.431900 0.628900 0.646400
vn 0.297500 0.628900 0.718300
vn 0.276900 0.690200 0.668500
vn 0.141100 0.690200 0.709700
vn 0.668500 0.690100 0.277000
vn 0.601700 0.690100 0.402000
vn 0.646500 0.628900 0.431800
vn 0.668500 0.690100 -0.276900
vn 0.709700 0.690100 -0.141100
vn 0.762500 0.628900 -0.151600
vn 0.297600 0.628900 -0.718300
vn 0.277000 0.690100 -0.668500
vn 0.402000 0.690100 -0.601800
vn -0.276900 0.690100 -0.668600
vn -0.141100 0.690200 -0.709700
vn -0.151600 0.629000 -0.762500
vn -0.709700 0.690100 -0.141200
vn -0.723700 0.690100 0.000000
vn -0.659500 0.751600 0.000000
vn -0.601700 0.690100 0.402000
vn -0.511700 0.690100 0.511700
vn -0.466400 0.751600 0.466400
vn -0.646900 0.751600 0.128600
vn -0.548400 0.751700 0.366400
vn -0.141100 0.690200 0.709700
vn -0.128700 0.751700 0.646800
vn -0.128700 0.751700 0.646800
vn -0.141100 0.690200 0.709700
vn 0.000000 0.690100 0.723700
vn 0.128600 0.751600 0.646900
vn 0.402000 0.690100 0.601700
vn 0.366400 0.751600 0.548400
vn 0.511700 0.690100 0.511700
vn 0.466400 0.751600 0.466400
vn 0.709700 0.690200 0.141100
vn 0.646900 0.751600 0.128600
vn 0.723600 0.690200 0.000000
vn 0.659500 0.751700 0.000000
vn 0.609300 0.751600 -0.252400
vn 0.601700 0.690100 -0.402000
vn 0.548400 0.751700 -0.366400
vn 0.511700 0.690200 -0.511600
vn 0.466400 0.751600 -0.466400
vn 0.252400 0.751700 -0.609300
vn 0.141100 0.690100 -0.709700
vn 0.000000 0.690100 -0.723700
vn 0.000000 0.751700 -0.659500
vn -0.141100 0.690200 -0.709700
vn -0.128600 0.751700 -0.646800
vn -0.252400 0.751700 -0.609300
vn -0.402000 0.690200 -0.601600
vn -0.366400 0.751700 -0.548300
vn -0.511700 0.690200 -0.511600
vn -0.601700 0.690200 -0.402000
vn -0.548400 0.751600 -0.366400
vn -0.668500 0.690200 -0.276900
vn -0.646800 0.751700 -0.128700
vn -0.609300 0.751700 0.252400
vn -0.252400 0.751700 0.609300
vn -0.366400 0.751600 0.548400
vn 0.252400 0.751600 0.609300
vn 0.609400 0.751600 0.252400
vn 0.548400 0.751700 0.366400
vn 0.646900 0.751600 -0.128600
vn 0.366400 0.751700 -0.548400
vn -0.128600 0.751700 -0.646800
vn -0.762500 0.628900 -0.151700
vn -0.777500 0.628900 0.000000
vn -0.646400 0.628900 0.431900
vn -0.549700 0.628900 0.549800
vn -0.762500 0.628900 0.151600
vn -0.297500 0.628900 0.718300
vn -0.151600 0.628900 0.762500
vn -0.151600 0.628900 0.762500
vn 0.000000 0.628700 0.777600
vn 0.151600 0.628900 0.762500
vn 0.431900 0.628900 0.646400
vn 0.549700 0.628900 0.549800
vn 0.718200 0.628900 0.297600
vn 0.762500 0.629000 0.151700
vn 0.777400 0.629000 0.000000
vn 0.718300 0.628900 -0.297500
vn 0.646400 0.628900 -0.432000
vn 0.549800 0.629000 -0.549600
vn 0.431800 0.628800 -0.646600
vn 0.151600 0.628900 -0.762500
vn 0.000000 0.628900 -0.777500
vn -0.151600 0.629000 -0.762500
vn -0.297500 0.628800 -0.718300
vn -0.431900 0.629000 -0.646400
vn -0.549700 0.629000 -0.549700
vn -0.646400 0.628900 -0.431900
vn -0.718300 0.628900 -0.297500
vn 0.000000 0.751700 0.659500
vn 0.128600 0.751700 -0.646800
vn -0.466400 0.751700 -0.466400
vn -0.609300 0.751600 -0.252400
vt 0.023615 0.955721
vt 0.023097 0.955990
vt 0.023639 0.955567
vt 0.010795 0.957211
vt 0.015323 0.957003
vt 0.015705 0.956754
vt 0.784928 0.956967
vt 0.785204 0.957211
vt 0.790417 0.957340
vt 0.772902 0.955990
vt 0.774452 0.956380
vt 0.773951 0.956119
vt 0.775857 0.954263
vt 0.773949 0.954687
vt 0.773505 0.954390
vt 0.788165 0.952713
vt 0.788304 0.953042
vt 0.784681 0.953251
vt 0.007695 0.953042
vt 0.003892 0.952914
vt 0.003962 0.952582
vt 0.022050 0.954687
vt 0.023254 0.955127
vt 0.014345 0.958931
vt 0.021547 0.956380
vt 0.018946 0.956722
vt 0.011031 0.959920
vt 0.014382 0.959204
vt 0.012727 0.959708
vt 0.005583 0.957340
vt 0.003155 0.960303
vt 0.799154 0.960303
vt 0.801582 0.957340
vt 0.795999 0.957383
vt 0.792844 0.960303
vt 0.780676 0.957003
vt 0.787191 0.960094
vt 0.777053 0.956722
vt 0.784968 0.959920
vt 0.772360 0.955567
vt 0.781617 0.959204
vt 0.772745 0.955127
vt 0.781654 0.958931
vt 0.783277 0.958396
vt 0.778355 0.953873
vt 0.784749 0.958154
vt 0.781332 0.953532
vt 0.786574 0.957942
vt 0.791004 0.957639
vt 0.792107 0.952914
vt 0.795999 0.952871
vt 0.795999 0.957532
vt 0.799891 0.952914
vt 0.798532 0.957559
vt 0.004995 0.957639
vt 0.011318 0.953251
vt 0.007316 0.957768
vt 0.014667 0.953532
vt 0.017644 0.953873
vt 0.011250 0.958154
vt 0.020142 0.954263
vt 0.013774 0.958658
vt 0.013848 0.959466
vt 0.006142 0.960223
vt 0.008808 0.960094
vt 0.789857 0.960223
vt 0.782151 0.959466
vt 0.783272 0.959708
vt 0.782225 0.958658
vt 0.788683 0.957768
vt 0.002533 0.957559
vt 0.022494 0.954390
vt 0.023738 0.954840
vt 0.022048 0.956119
vt 0.019404 0.956468
vt 0.024149 0.955289
vt 0.011071 0.956967
vt 0.005728 0.957098
vt 0.801727 0.957098
vt 0.795999 0.957089
vt 0.790271 0.957098
vt 0.780294 0.956754
vt 0.776595 0.956468
vt 0.772384 0.955721
vt 0.771850 0.955289
vt 0.772261 0.954840
vt 0.775464 0.953959
vt 0.778019 0.953561
vt 0.781058 0.953212
vt 0.784474 0.952926
vt 0.792037 0.952582
vt 0.795999 0.952537
vt 0.799961 0.952582
vt 0.007834 0.952713
vt 0.011526 0.952926
vt 0.014941 0.953212
vt 0.017980 0.953561
vt 0.020535 0.953959
vt 0.795999 0.960330
vt 0.793466 0.957559
vt 0.009425 0.957942
vt 0.012722 0.958396
f 1/1/1 2/2/2 3/3/3
f 4/4/4 5/5/5 6/6/6
f 7/7/7 8/8/8 9/9/9
f 10/10/10 11/11/11 12/12/12
f 13/13/13 14/14/14 15/15/15
f 16/16/16 17/17/17 18/18/18
f 19/19/19 20/20/20 21/21/21
f 22/22/22 23/23/23 24/24/24
f 25/25/25 26/26/26 27/27/27
f 23/23/23 3/3/3 28/28/28
f 2/2/2 25/25/25 29/29/29
f 27/27/27 26/26/26 5/5/5
f 4/4/4 30/30/30 31/31/31
f 32/32/32 33/33/33 34/34/34
f 34/34/34 9/9/9 35/35/35
f 8/8/8 36/36/36 37/37/37
f 36/36/36 38/38/38 39/39/39
f 39/39/39 38/38/38 11/11/11
f 10/10/10 40/40/40 41/41/41
f 41/41/41 40/40/40 42/42/42
f 43/43/43 42/42/42 14/14/14
f 44/44/44 13/13/13 45/45/45
f 46/46/46 45/45/45 47/47/47
f 48/48/48 47/47/47 18/18/18
f 49/49/49 17/17/17 50/50/50
f 50/50/50 51/51/51 52/52/52
f 51/51/51 53/53/53 54/54/54
f 55/55/55 19/19/19 56/56/56
f 57/57/57 56/56/56 58/58/58
f 58/58/58 59/59/59 60/60/60
f 60/60/60 59/59/59 61/61/61
f 61/61/61 22/22/22 62/62/62
f 2/2/2 63/63/63 28/28/28
f 4/4/4 64/64/64 65/65/65
f 8/8/8 66/66/66 35/35/35
f 67/67/67 68/68/68 11/11/11
f 44/44/44 69/69/69 14/14/14
f 17/17/17 49/49/49 70/70/70
f 55/55/55 71/71/71 20/20/20
f 72/72/72 73/73/73 23/23/23
f 74/74/74 75/75/75 26/26/26
f 23/23/23 73/73/73 76/76/76
f 1/1/1 74/74/74 25/25/25
f 26/26/26 75/75/75 6/6/6
f 77/77/77 78/78/78 30/30/30
f 79/79/79 80/80/80 34/34/34
f 34/34/34 80/80/80 81/81/81
f 8/8/8 7/7/7 82/82/82
f 82/82/82 83/83/83 38/38/38
f 38/38/38 83/83/83 12/12/12
f 10/10/10 84/84/84 85/85/85
f 40/40/40 85/85/85 86/86/86
f 42/42/42 86/86/86 15/15/15
f 13/13/13 87/87/87 88/88/88
f 45/45/45 88/88/88 89/89/89
f 89/89/89 90/90/90 18/18/18
f 16/16/16 91/91/91 50/50/50
f 91/91/91 92/92/92 51/51/51
f 51/51/51 92/92/92 93/93/93
f 19/19/19 94/94/94 95/95/95
f 56/56/56 95/95/95 96/96/96
f 96/96/96 97/97/97 59/59/59
f 97/97/97 98/98/98 61/61/61
f 98/98/98 72/72/72 22/22/22
f 76/76/76 1/1/1 3/3/3
f 77/77/77 4/4/4 6/6/6
f 81/81/81 7/7/7 9/9/9
f 84/84/84 10/10/10 12/12/12
f 87/87/87 13/13/13 15/15/15
f 90/90/90 16/16/16 18/18/18
f 94/94/94 19/19/19 21/21/21
f 62/62/62 22/22/22 24/24/24
f 29/29/29 25/25/25 27/27/27
f 24/24/24 23/23/23 28/28/28
f 63/63/63 2/2/2 29/29/29
f 65/65/65 27/27/27 5/5/5
f 64/64/64 4/4/4 31/31/31
f 99/99/99 32/32/32 34/34/34
f 99/99/99 34/34/34 35/35/35
f 66/66/66 8/8/8 37/37/37
f 37/37/37 36/36/36 39/39/39
f 68/68/68 39/39/39 11/11/11
f 67/67/67 10/10/10 41/41/41
f 43/43/43 41/41/41 42/42/42
f 69/69/69 43/43/43 14/14/14
f 46/46/46 44/44/44 45/45/45
f 48/48/48 46/46/46 47/47/47
f 70/70/70 48/48/48 18/18/18
f 100/100/100 49/49/49 50/50/50
f 100/100/100 50/50/50 52/52/52
f 52/52/52 51/51/51 54/54/54
f 57/57/57 55/55/55 56/56/56
f 101/101/101 57/57/57 58/58/58
f 101/101/101 58/58/58 60/60/60
f 102/102/102 60/60/60 61/61/61
f 102/102/102 61/61/61 62/62/62
f 3/3/3 2/2/2 28/28/28
f 5/5/5 4/4/4 65/65/65
f 9/9/9 8/8/8 35/35/35
f 10/10/10 67/67/67 11/11/11
f 13/13/13 44/44/44 14/14/14
f 18/18/18 17/17/17 70/70/70
f 19/19/19 55/55/55 20/20/20
f 22/22/22 72/72/72 23/23/23
f 25/25/25 74/74/74 26/26/26
f 3/3/3 23/23/23 76/76/76
f 2/2/2 1/1/1 25/25/25
f 5/5/5 26/26/26 6/6/6
f 4/4/4 77/77/77 30/30/30
f 33/33/33 79/79/79 34/34/34
f 9/9/9 34/34/34 81/81/81
f 36/36/36 8/8/8 82/82/82
f 36/36/36 82/82/82 38/38/38
f 11/11/11 38/38/38 12/12/12
f 40/40/40 10/10/10 85/85/85
f 42/42/42 40/40/40 86/86/86
f 14/14/14 42/42/42 15/15/15
f 45/45/45 13/13/13 88/88/88
f 47/47/47 45/45/45 89/89/89
f 47/47/47 89/89/89 18/18/18
f 17/17/17 16/16/16 50/50/50
f 50/50/50 91/91/91 51/51/51
f 53/53/53 51/51/51 93/93/93
f 56/56/56 19/19/19 95/95/95
f 58/58/58 56/56/56 96/96/96
f 58/58/58 96/96/96 59/59/59
f 59/59/59 97/97/97 61/61/61
f 61/61/61 98/98/98 22/22/22
