v 0.603179 1.698068 -1.384369
v 0.603179 1.692907 -1.390820
v 0.603179 1.836119 -1.390820
v 0.603179 1.885299 -1.535931
v 0.603179 1.890460 -1.529480
v 0.603179 1.836119 -1.529480
v 0.603179 1.900198 -1.510785
v 0.603179 1.836119 -1.510785
v 0.603179 1.903057 -1.503402
v 0.603179 1.836119 -1.503402
v 0.603179 1.836119 -1.491539
v 0.603179 1.677217 -1.491540
v 0.603179 1.680310 -1.503402
v 0.603179 1.906149 -1.491539
v 0.603179 1.908769 -1.475224
v 0.603179 1.836119 -1.475224
v 0.603179 1.909586 -1.460150
v 0.603179 1.836119 -1.460150
v 0.603179 1.683168 -1.409515
v 0.603179 1.836119 -1.409515
v 0.603179 1.680310 -1.416898
v 0.603179 1.836119 -1.416898
v 0.603179 1.836119 -1.428760
v 0.603179 1.906149 -1.428760
v 0.603179 1.903057 -1.416898
v 0.603179 1.677217 -1.428760
v 0.603179 1.674598 -1.445076
v 0.603179 1.836119 -1.445076
v 0.603179 1.673781 -1.460150
v 0.603179 1.885299 -1.384369
v 0.603179 1.836119 -1.384369
v 0.603179 1.698068 -1.535931
v 0.603179 1.836119 -1.535931
v 0.603179 1.692907 -1.529480
v 0.603179 1.683168 -1.510785
v 0.603179 1.674598 -1.475224
v 0.603179 1.890460 -1.390820
v 0.603179 1.900198 -1.409515
v 0.603179 1.908769 -1.445076
vn 1.000000 0.000000 0.000000
vn 1.000000 0.000000 0.000000
vn 1.000000 0.000000 0.000000
vn 1.000000 0.000000 0.000000
vn 1.000000 0.000000 0.000000
vn 1.000000 0.000000 0.000000
vn 1.000000 0.000000 0.000000
vn 1.000000 0.000000 0.000000
vn 1.000000 0.000000 0.000000
vn 1.000000 0.000000 0.000000
vn 1.000000 0.000000 0.000000
vn 1.000000 0.000000 0.000000
vn 1.000000 0.000000 0.000000
vn 1.000000 0.000000 0.000000
vn 1.000000 0.000000 0.000000
vn 1.000000 0.000000 0.000000
vn 1.000000 0.000000 0.000000
vn 1.000000 0.000000 0.000000
vn 1.000000 0.000000 0.000000
vn 1.000000 0.000000 0.000000
vn 1.000000 0.000000 0.000000
vn 1.000000 0.000000 0.000000
vn 1.000000 0.000000 0.000000
vn 1.000000 0.000000 0.000000
vn 1.000000 0.000000 0.000000
vn 1.000000 0.000000 0.000000
vn 1.000000 0.000000 0.000000
vn 1.000000 0.000000 0.000000
vn 1.000000 0.000000 0.000000
vn 1.000000 0.000000 0.000000
vn 1.000000 0.000000 0.000000
vn 1.000000 0.000000 0.000000
vn 1.000000 0.000000 0.000000
vn 1.000000 0.000000 0.000000
vn 1.000000 0.000000 0.000000
vn 1.000000 0.000000 0.000000
vn 1.000000 0.000000 0.000000
vn 1.000000 0.000000 0.000000
vn 1.000000 0.000000 0.000000
vt 0.632785 0.816445
vt 0.635943 0.813428
vt 0.649388 0.880543
vt 0.681179 0.890139
vt 0.680610 0.893155
vt 0.679420 0.867689
vt 0.678714 0.899452
vt 0.677125 0.869422
vt 0.677877 0.901476
vt 0.676128 0.870107
vt 0.674404 0.871206
vt 0.668950 0.796739
vt 0.671288 0.797089
vt 0.676402 0.904025
vt 0.674106 0.906765
vt 0.671752 0.872719
vt 0.671658 0.908546
vt 0.668959 0.874116
vt 0.644449 0.807132
vt 0.656114 0.878810
vt 0.647443 0.805108
vt 0.658415 0.878126
vt 0.661762 0.877026
vt 0.665201 0.909845
vt 0.662126 0.909495
vt 0.651891 0.802559
vt 0.657262 0.799818
vt 0.665766 0.875513
vt 0.661570 0.798038
vt 0.650671 0.904189
vt 0.646715 0.881141
vt 0.676838 0.802395
vt 0.680145 0.867091
vt 0.675813 0.800575
vt 0.672654 0.797744
vt 0.665354 0.797024
vt 0.653425 0.906009
vt 0.659959 0.908840
vt 0.668819 0.909560
f 1/1/1 2/2/2 3/3/3
f 4/4/4 5/5/5 6/6/6
f 5/5/5 7/7/7 8/8/8
f 7/7/7 9/9/9 10/10/10
f 11/11/11 12/12/12 13/13/13
f 14/14/14 15/15/15 16/16/16
f 15/15/15 17/17/17 18/18/18
f 2/2/2 19/19/19 20/20/20
f 19/19/19 21/21/21 22/22/22
f 23/23/23 24/24/24 25/25/25
f 26/26/26 27/27/27 28/28/28
f 27/27/27 29/29/29 18/18/18
f 30/30/30 31/31/31 3/3/3
f 32/32/32 33/33/33 6/6/6
f 34/34/34 6/6/6 8/8/8
f 35/35/35 8/8/8 10/10/10
f 11/11/11 10/10/10 9/9/9
f 12/12/12 11/11/11 16/16/16
f 36/36/36 16/16/16 18/18/18
f 37/37/37 3/3/3 20/20/20
f 38/38/38 20/20/20 22/22/22
f 23/23/23 22/22/22 21/21/21
f 24/24/24 23/23/23 28/28/28
f 39/39/39 28/28/28 18/18/18
f 31/31/31 1/1/1 3/3/3
f 33/33/33 4/4/4 6/6/6
f 6/6/6 5/5/5 8/8/8
f 8/8/8 7/7/7 10/10/10
f 10/10/10 11/11/11 13/13/13
f 11/11/11 14/14/14 16/16/16
f 16/16/16 15/15/15 18/18/18
f 3/3/3 2/2/2 20/20/20
f 20/20/20 19/19/19 22/22/22
f 22/22/22 23/23/23 25/25/25
f 23/23/23 26/26/26 28/28/28
f 28/28/28 27/27/27 18/18/18
f 37/37/37 30/30/30 3/3/3
f 34/34/34 32/32/32 6/6/6
f 35/35/35 34/34/34 8/8/8
f 13/13/13 35/35/35 10/10/10
f 14/14/14 11/11/11 9/9/9
f 36/36/36 12/12/12 16/16/16
f 29/29/29 36/36/36 18/18/18
f 38/38/38 37/37/37 20/20/20
f 25/25/25 38/38/38 22/22/22
f 26/26/26 23/23/23 21/21/21
f 39/39/39 24/24/24 28/28/28
f 17/17/17 39/39/39 18/18/18
