v -0.345355 2.380899 -3.645437
v -0.345355 2.380899 -5.178236
v -0.345355 2.626873 -5.178236
v -0.345355 2.380899 -3.209751
v -0.345355 2.626873 -3.645437
v -0.345355 2.626873 -3.209751
vn 1.000000 0.000000 0.000000
vn 1.000000 0.000000 0.000000
vn 1.000000 0.000000 0.000000
vn 1.000000 0.000000 0.000000
vn 1.000000 0.000000 0.000000
vn 1.000000 0.000000 0.000000
vt 0.384031 0.626874
vt 0.384031 0.069442
vt 0.673921 0.070816
vt 0.384031 0.900390
vt 0.687062 0.627959
vt 0.689754 0.912540
f 1/1/1 2/2/2 3/3/3
f 4/4/4 1/1/1 5/5/5
f 5/5/5 1/1/1 3/3/3
f 6/6/6 4/4/4 5/5/5
