v 0.489291 3.563360 -3.192869
v 0.486993 3.563360 -3.200444
v 0.501134 3.557408 -3.203257
v 0.511147 3.563360 -3.171014
v 0.504165 3.563360 -3.174746
v 0.512175 3.557408 -3.186734
v 0.536537 3.557408 -3.184334
v 0.542054 3.563360 -3.171014
v 0.534479 3.563360 -3.168716
v 0.550589 3.557408 -3.198386
v 0.563909 3.563360 -3.192869
v 0.560178 3.563360 -3.185887
v 0.563909 3.563360 -3.223777
v 0.566207 3.563360 -3.216201
v 0.552067 3.557408 -3.213388
v 0.536537 3.557408 -3.232311
v 0.542054 3.563360 -3.245632
v 0.549036 3.563360 -3.241900
v 0.511147 3.563360 -3.245632
v 0.518722 3.563360 -3.247930
v 0.521535 3.557408 -3.233789
v 0.486993 3.563360 -3.216201
v 0.501134 3.557408 -3.213388
v 0.500635 3.557408 -3.208323
v 0.505011 3.557408 -3.193897
v 0.508240 3.557408 -3.189963
v 0.498045 3.563360 -3.179768
v 0.486217 3.563360 -3.208323
v 0.502612 3.557408 -3.198386
v 0.493023 3.563360 -3.185887
v 0.516664 3.557408 -3.184334
v 0.521535 3.557408 -3.182857
v 0.518722 3.563360 -3.168716
v 0.521535 3.557408 -3.182857
v 0.526600 3.557408 -3.182358
v 0.531666 3.557408 -3.182857
v 0.541026 3.557408 -3.186734
v 0.544960 3.557408 -3.189963
v 0.555156 3.563360 -3.179768
v 0.548190 3.557408 -3.193897
v 0.552067 3.557408 -3.203257
v 0.566207 3.563360 -3.200444
v 0.552566 3.557408 -3.208323
v 0.566983 3.563360 -3.208323
v 0.550589 3.557408 -3.218259
v 0.548190 3.557408 -3.222748
v 0.544960 3.557408 -3.226683
v 0.555156 3.563360 -3.236878
v 0.541026 3.557408 -3.229912
v 0.531666 3.557408 -3.233789
v 0.526600 3.557408 -3.234288
v 0.526600 3.563360 -3.248706
v 0.521535 3.557408 -3.233789
v 0.518722 3.563360 -3.247930
v 0.516664 3.557408 -3.232311
v 0.512175 3.557408 -3.229912
v 0.504165 3.563360 -3.241900
v 0.508240 3.557408 -3.226683
v 0.498045 3.563360 -3.236878
v 0.505011 3.557408 -3.222748
v 0.493023 3.563360 -3.230758
v 0.502612 3.557408 -3.218259
v 0.489291 3.563360 -3.223777
v 0.518722 3.563360 -3.168716
v 0.526600 3.563360 -3.167940
v 0.549036 3.563360 -3.174746
v 0.560178 3.563360 -3.230758
v 0.534479 3.563360 -3.247930
vn -0.352500 -0.924300 0.146000
vn -0.374200 -0.924300 0.074400
vn -0.374200 -0.924300 0.074500
vn -0.146000 -0.924300 0.352500
vn -0.212000 -0.924300 0.317200
vn -0.212000 -0.924300 0.317200
vn 0.146000 -0.924300 0.352500
vn 0.146000 -0.924300 0.352500
vn 0.074400 -0.924300 0.374200
vn 0.352500 -0.924300 0.146000
vn 0.352500 -0.924300 0.146000
vn 0.317200 -0.924300 0.212000
vn 0.352500 -0.924300 -0.146000
vn 0.374200 -0.924300 -0.074400
vn 0.374200 -0.924300 -0.074400
vn 0.146000 -0.924300 -0.352500
vn 0.146000 -0.924300 -0.352500
vn 0.212000 -0.924300 -0.317200
vn -0.146000 -0.924300 -0.352500
vn -0.074500 -0.924300 -0.374200
vn -0.074400 -0.924300 -0.374200
vn -0.374200 -0.924300 -0.074400
vn -0.374200 -0.924300 -0.074400
vn -0.381500 -0.924300 0.000000
vn -0.317200 -0.924300 0.212000
vn -0.269800 -0.924300 0.269800
vn -0.269800 -0.924300 0.269800
vn -0.381500 -0.924300 0.000000
vn -0.352500 -0.924300 0.146000
vn -0.317200 -0.924300 0.212000
vn -0.146000 -0.924300 0.352500
vn -0.074500 -0.924300 0.374200
vn -0.074400 -0.924300 0.374200
vn -0.074500 -0.924300 0.374200
vn 0.000000 -0.924300 0.381600
vn 0.074500 -0.924300 0.374200
vn 0.212000 -0.924300 0.317200
vn 0.269800 -0.924300 0.269800
vn 0.269800 -0.924300 0.269800
vn 0.317200 -0.924300 0.212000
vn 0.374200 -0.924300 0.074500
vn 0.374200 -0.924300 0.074400
vn 0.381500 -0.924300 0.000000
vn 0.381500 -0.924300 0.000000
vn 0.352500 -0.924300 -0.146000
vn 0.317300 -0.924300 -0.212000
vn 0.269800 -0.924300 -0.269800
vn 0.269800 -0.924300 -0.269800
vn 0.212000 -0.924300 -0.317200
vn 0.074400 -0.924300 -0.374200
vn 0.000000 -0.924300 -0.381600
vn 0.000000 -0.924300 -0.381500
vn -0.074400 -0.924300 -0.374200
vn -0.074500 -0.924300 -0.374200
vn -0.146000 -0.924300 -0.352500
vn -0.212000 -0.924300 -0.317200
vn -0.212000 -0.924300 -0.317300
vn -0.269800 -0.924300 -0.269800
vn -0.269800 -0.924300 -0.269800
vn -0.317300 -0.924300 -0.212000
vn -0.317300 -0.924300 -0.212000
vn -0.352500 -0.924300 -0.146000
vn -0.352500 -0.924300 -0.146000
vn -0.074400 -0.924300 0.374200
vn 0.000000 -0.924300 0.381600
vn 0.212000 -0.924300 0.317200
vn 0.317300 -0.924300 -0.212000
vn 0.074400 -0.924300 -0.374200
vt 0.021959 0.961720
vt 0.022514 0.961309
vt 0.014462 0.959526
vt 0.010194 0.962905
vt 0.014490 0.962703
vt 0.008861 0.960421
vt 0.789820 0.960551
vt 0.785805 0.962905
vt 0.790732 0.963029
vt 0.782072 0.959790
vt 0.774040 0.961720
vt 0.775552 0.962098
vt 0.776730 0.960044
vt 0.774931 0.960455
vt 0.782152 0.958976
vt 0.790979 0.957950
vt 0.788615 0.958859
vt 0.785143 0.959062
vt 0.007384 0.958859
vt 0.003736 0.958735
vt 0.002545 0.957870
vt 0.021068 0.960455
vt 0.013847 0.958976
vt 0.014423 0.959251
vt 0.012801 0.960033
vt 0.011097 0.960246
vt 0.017946 0.962430
vt 0.022185 0.960882
vt 0.013926 0.959790
vt 0.020447 0.962098
vt 0.006179 0.960551
vt 0.003175 0.960631
vt 0.801266 0.963029
vt 0.799174 0.960631
vt 0.795999 0.960658
vt 0.792824 0.960631
vt 0.787138 0.960421
vt 0.784903 0.960246
vt 0.778053 0.962430
vt 0.783198 0.960033
vt 0.781537 0.959526
vt 0.773485 0.961309
vt 0.781576 0.959251
vt 0.773814 0.960882
vt 0.783211 0.958712
vt 0.784692 0.958469
vt 0.786527 0.958255
vt 0.781940 0.959334
vt 0.788646 0.958080
vt 0.793454 0.957870
vt 0.795999 0.957843
vt 0.795999 0.958693
vt 0.798545 0.957870
vt 0.799735 0.958735
vt 0.005020 0.957950
vt 0.007353 0.958080
vt 0.010856 0.959062
vt 0.009472 0.958255
vt 0.014059 0.959334
vt 0.011307 0.958469
vt 0.016897 0.959666
vt 0.012788 0.958712
vt 0.019269 0.960044
vt 0.005267 0.963029
vt 0.795999 0.963071
vt 0.781509 0.962703
vt 0.779102 0.959666
vt 0.792263 0.958735
f 1/1/1 2/2/2 3/3/3
f 4/4/4 5/5/5 6/6/6
f 7/7/7 8/8/8 9/9/9
f 10/10/10 11/11/11 12/12/12
f 13/13/13 14/14/14 15/15/15
f 16/16/16 17/17/17 18/18/18
f 19/19/19 20/20/20 21/21/21
f 22/22/22 23/23/23 24/24/24
f 25/25/25 26/26/26 27/27/27
f 28/28/28 24/24/24 3/3/3
f 29/29/29 25/25/25 30/30/30
f 26/26/26 6/6/6 5/5/5
f 4/4/4 31/31/31 32/32/32
f 33/33/33 34/34/34 35/35/35
f 35/35/35 36/36/36 9/9/9
f 8/8/8 7/7/7 37/37/37
f 37/37/37 38/38/38 39/39/39
f 39/39/39 38/38/38 40/40/40
f 11/11/11 10/10/10 41/41/41
f 42/42/42 41/41/41 43/43/43
f 44/44/44 43/43/43 15/15/15
f 13/13/13 45/45/45 46/46/46
f 46/46/46 47/47/47 48/48/48
f 48/48/48 47/47/47 49/49/49
f 17/17/17 16/16/16 50/50/50
f 50/50/50 51/51/51 52/52/52
f 51/51/51 53/53/53 54/54/54
f 55/55/55 56/56/56 57/57/57
f 56/56/56 58/58/58 59/59/59
f 58/58/58 60/60/60 61/61/61
f 60/60/60 62/62/62 63/63/63
f 63/63/63 62/62/62 23/23/23
f 29/29/29 1/1/1 3/3/3
f 31/31/31 4/4/4 6/6/6
f 36/36/36 7/7/7 9/9/9
f 40/40/40 10/10/10 12/12/12
f 45/45/45 13/13/13 15/15/15
f 49/49/49 16/16/16 18/18/18
f 55/55/55 19/19/19 21/21/21
f 28/28/28 22/22/22 24/24/24
f 30/30/30 25/25/25 27/27/27
f 2/2/2 28/28/28 3/3/3
f 1/1/1 29/29/29 30/30/30
f 27/27/27 26/26/26 5/5/5
f 64/64/64 4/4/4 32/32/32
f 65/65/65 33/33/33 35/35/35
f 65/65/65 35/35/35 9/9/9
f 66/66/66 8/8/8 37/37/37
f 66/66/66 37/37/37 39/39/39
f 12/12/12 39/39/39 40/40/40
f 42/42/42 11/11/11 41/41/41
f 44/44/44 42/42/42 43/43/43
f 14/14/14 44/44/44 15/15/15
f 67/67/67 13/13/13 46/46/46
f 67/67/67 46/46/46 48/48/48
f 18/18/18 48/48/48 49/49/49
f 68/68/68 17/17/17 50/50/50
f 68/68/68 50/50/50 52/52/52
f 52/52/52 51/51/51 54/54/54
f 19/19/19 55/55/55 57/57/57
f 57/57/57 56/56/56 59/59/59
f 59/59/59 58/58/58 61/61/61
f 61/61/61 60/60/60 63/63/63
f 22/22/22 63/63/63 23/23/23
