v 2.495326 1.743575 -3.209340
v 2.495326 1.743575 -3.169340
v 0.526841 1.743575 -3.169340
v 2.495326 1.746255 -3.159340
v 0.526841 1.746255 -3.159340
v 2.495326 1.753575 -3.152019
v 0.526841 1.753575 -3.152020
v 0.526841 1.743575 -3.209340
vn 0.000000 -1.000000 0.000000
vn 0.000000 -0.996033 0.088981
vn 0.000000 -0.999557 0.029765
vn -0.000000 -0.818117 0.575051
vn 0.000000 -0.907062 0.420997
vn -0.000000 -0.707153 0.707061
vn -0.000000 -0.707130 0.707084
vn 0.000000 -1.000000 0.000000
vt 0.672687 0.945026
vt 0.649720 0.945026
vt 0.649723 0.061222
vt 0.629995 0.945148
vt 0.629997 0.061344
vt 0.610269 0.945271
vt 0.610272 0.061466
vt 0.672688 0.061222
f 1/1/1 2/2/2 3/3/3
f 2/2/2 4/4/4 5/5/5
f 4/4/4 6/6/6 7/7/7
f 8/8/8 1/1/1 3/3/3
f 3/3/3 2/2/2 5/5/5
f 5/5/5 4/4/4 7/7/7
