v -0.956658 4.398927 -1.846323
v -0.957987 4.396337 -1.845985
v -0.933456 4.382425 -1.856146
v -0.959415 4.393846 -1.846022
v -0.960887 4.391551 -1.846434
v -0.936356 4.377639 -1.856595
v -0.962347 4.389539 -1.847203
v -0.937815 4.375627 -1.857365
v -0.963738 4.387888 -1.848302
v -0.965008 4.386661 -1.849687
v -0.940476 4.372749 -1.859848
v -0.966106 4.385905 -1.851305
v -0.966992 4.385650 -1.853094
v -0.942461 4.371738 -1.863256
v -0.967631 4.385905 -1.854986
v -0.943099 4.371994 -1.865147
v -0.967998 4.386661 -1.856907
v -0.943467 4.372749 -1.867068
v -0.968080 4.387887 -1.858784
v -0.967873 4.389539 -1.860544
v -0.943341 4.375627 -1.870706
v -0.967385 4.391551 -1.862121
v -0.942854 4.377639 -1.872282
v -0.966635 4.393846 -1.863453
v -0.942104 4.379934 -1.873614
v -0.965652 4.396337 -1.864489
v -0.964473 4.398927 -1.865190
v -0.939942 4.385015 -1.875351
v -0.963145 4.401517 -1.865528
v -0.938613 4.387605 -1.875689
v -0.961717 4.404007 -1.865490
v -0.937185 4.390096 -1.875652
v -0.960244 4.406302 -1.865079
v -0.935713 4.392391 -1.875240
v -0.958785 4.408314 -1.864309
v -0.934253 4.394403 -1.874470
v -0.957393 4.409966 -1.863210
v -0.956124 4.411192 -1.861825
v -0.931592 4.397281 -1.871987
v -0.955025 4.411948 -1.860207
v -0.930494 4.398036 -1.870369
v -0.954139 4.412203 -1.858418
v -0.929608 4.398291 -1.868579
v -0.953501 4.411948 -1.856527
v -0.953133 4.411192 -1.854605
v -0.928602 4.397281 -1.864767
v -0.953052 4.409966 -1.852728
v -0.928520 4.396054 -1.862890
v -0.953259 4.408314 -1.850968
v -0.928727 4.394403 -1.861129
v -0.953747 4.406302 -1.849391
v -0.954497 4.404007 -1.848059
v -0.929965 4.390096 -1.858221
v -0.955480 4.401517 -1.847023
v -0.930948 4.387605 -1.857185
v -0.932127 4.385015 -1.856484
v -0.934883 4.379934 -1.856183
v -0.939207 4.373976 -1.858463
v -0.941575 4.371994 -1.861466
v -0.943548 4.373976 -1.868945
v -0.941120 4.382425 -1.874650
v -0.932862 4.396054 -1.873372
v -0.928969 4.398036 -1.866688
v -0.929215 4.392391 -1.859553
vn 0.382700 0.000000 0.923800
vn 0.321300 -0.119600 0.939400
vn 0.321300 -0.119500 0.939400
vn 0.251100 -0.241900 0.937200
vn 0.169400 -0.368800 0.913900
vn 0.169300 -0.368800 0.913900
vn 0.072900 -0.501200 0.862200
vn 0.073000 -0.501000 0.862300
vn -0.040500 -0.635000 0.771400
vn -0.169800 -0.758800 0.628800
vn -0.169900 -0.758700 0.628900
vn -0.305700 -0.851000 0.427000
vn -0.428800 -0.885800 0.177400
vn -0.428700 -0.885800 0.177800
vn -0.518100 -0.850900 -0.085800
vn -0.518100 -0.851000 -0.085700
vn -0.564700 -0.758800 -0.324500
vn -0.564700 -0.758800 -0.324600
vn -0.574200 -0.635000 -0.516800
vn -0.558100 -0.501100 -0.661300
vn -0.558100 -0.501100 -0.661400
vn -0.526500 -0.368800 -0.766000
vn -0.526400 -0.368800 -0.766100
vn -0.485300 -0.241800 -0.840200
vn -0.485100 -0.241700 -0.840300
vn -0.437100 -0.119600 -0.891400
vn -0.382700 0.000000 -0.923900
vn -0.382600 0.000000 -0.923900
vn -0.321300 0.119500 -0.939400
vn -0.321300 0.119500 -0.939400
vn -0.251000 0.241800 -0.937300
vn -0.251000 0.241800 -0.937300
vn -0.169300 0.368900 -0.913900
vn -0.169300 0.368800 -0.913900
vn -0.073000 0.501100 -0.862300
vn -0.073000 0.501100 -0.862300
vn 0.040400 0.634800 -0.771600
vn 0.169800 0.758800 -0.628800
vn 0.169900 0.758800 -0.628800
vn 0.305700 0.851000 -0.426900
vn 0.305700 0.850900 -0.427000
vn 0.428800 0.885800 -0.177600
vn 0.428700 0.885800 -0.177600
vn 0.518100 0.851000 0.085700
vn 0.564700 0.758800 0.324600
vn 0.564700 0.758800 0.324500
vn 0.574100 0.634900 0.517000
vn 0.574200 0.634900 0.516900
vn 0.558100 0.501100 0.661400
vn 0.558100 0.501100 0.661400
vn 0.526400 0.368800 0.766000
vn 0.485200 0.241800 0.840300
vn 0.485200 0.241900 0.840200
vn 0.437000 0.119500 0.891400
vn 0.437000 0.119500 0.891400
vn 0.382600 0.000000 0.923900
vn 0.251000 -0.241700 0.937300
vn -0.040500 -0.634900 0.771500
vn -0.305700 -0.850900 0.427200
vn -0.574200 -0.634900 -0.516800
vn -0.437000 -0.119500 -0.891400
vn 0.040500 0.634900 -0.771500
vn 0.518100 0.851000 0.085600
vn 0.526500 0.368800 0.766000
vt 0.000000 0.000000
vt 0.000000 0.000000
vt 0.000000 0.000000
vt 0.000000 0.000000
vt 0.000000 0.000000
vt 0.000000 0.000000
vt 0.000000 0.000000
vt 0.000000 0.000000
vt 0.000000 0.000000
vt 0.000000 0.000000
vt 0.000000 0.000000
vt 0.000000 0.000000
vt 0.000000 0.000000
vt 0.000000 0.000000
vt 0.000000 0.000000
vt 0.000000 0.000000
vt 0.000000 0.000000
vt 0.000000 0.000000
vt 0.000000 0.000000
vt 0.000000 0.000000
vt 0.000000 0.000000
vt 0.000000 0.000000
vt 0.000000 0.000000
vt 0.000000 0.000000
vt 0.000000 0.000000
vt 0.000000 0.000000
vt 0.000000 0.000000
vt 0.000000 0.000000
vt 0.000000 0.000000
vt 0.000000 0.000000
vt 0.000000 0.000000
vt 0.000000 0.000000
vt 0.000000 0.000000
vt 0.000000 0.000000
vt 0.000000 0.000000
vt 0.000000 0.000000
vt 0.000000 0.000000
vt 0.000000 0.000000
vt 0.000000 0.000000
vt 0.000000 0.000000
vt 0.000000 0.000000
vt 0.000000 0.000000
vt 0.000000 0.000000
vt 0.000000 0.000000
vt 0.000000 0.000000
vt 0.000000 0.000000
vt 0.000000 0.000000
vt 0.000000 0.000000
vt 0.000000 0.000000
vt 0.000000 0.000000
vt 0.000000 0.000000
vt 0.000000 0.000000
vt 0.000000 0.000000
vt 0.000000 0.000000
vt 0.000000 0.000000
vt 0.000000 0.000000
vt 0.000000 0.000000
vt 0.000000 0.000000
vt 0.000000 0.000000
vt 0.000000 0.000000
vt 0.000000 0.000000
vt 0.000000 0.000000
vt 0.000000 0.000000
vt 0.000000 0.000000
f 1/1/1 2/2/2 3/3/3
f 3/3/3 2/2/2 4/4/4
f 4/4/4 5/5/5 6/6/6
f 5/5/5 7/7/7 8/8/8
f 8/8/8 7/7/7 9/9/9
f 9/9/9 10/10/10 11/11/11
f 11/11/11 10/10/10 12/12/12
f 12/12/12 13/13/13 14/14/14
f 13/13/13 15/15/15 16/16/16
f 15/15/15 17/17/17 18/18/18
f 18/18/18 17/17/17 19/19/19
f 19/19/19 20/20/20 21/21/21
f 20/20/20 22/22/22 23/23/23
f 23/23/23 22/22/22 24/24/24
f 25/25/25 24/24/24 26/26/26
f 26/26/26 27/27/27 28/28/28
f 27/27/27 29/29/29 30/30/30
f 30/30/30 29/29/29 31/31/31
f 32/32/32 31/31/31 33/33/33
f 34/34/34 33/33/33 35/35/35
f 36/36/36 35/35/35 37/37/37
f 37/37/37 38/38/38 39/39/39
f 38/38/38 40/40/40 41/41/41
f 41/41/41 40/40/40 42/42/42
f 43/43/43 42/42/42 44/44/44
f 44/44/44 45/45/45 46/46/46
f 46/46/46 45/45/45 47/47/47
f 48/48/48 47/47/47 49/49/49
f 50/50/50 49/49/49 51/51/51
f 51/51/51 52/52/52 53/53/53
f 52/52/52 54/54/54 55/55/55
f 55/55/55 54/54/54 1/1/1
f 56/56/56 1/1/1 3/3/3
f 57/57/57 3/3/3 4/4/4
f 57/57/57 4/4/4 6/6/6
f 6/6/6 5/5/5 8/8/8
f 58/58/58 8/8/8 9/9/9
f 58/58/58 9/9/9 11/11/11
f 59/59/59 11/11/11 12/12/12
f 59/59/59 12/12/12 14/14/14
f 14/14/14 13/13/13 16/16/16
f 16/16/16 15/15/15 18/18/18
f 60/60/60 18/18/18 19/19/19
f 60/60/60 19/19/19 21/21/21
f 21/21/21 20/20/20 23/23/23
f 25/25/25 23/23/23 24/24/24
f 61/61/61 25/25/25 26/26/26
f 61/61/61 26/26/26 28/28/28
f 28/28/28 27/27/27 30/30/30
f 32/32/32 30/30/30 31/31/31
f 34/34/34 32/32/32 33/33/33
f 36/36/36 34/34/34 35/35/35
f 62/62/62 36/36/36 37/37/37
f 62/62/62 37/37/37 39/39/39
f 39/39/39 38/38/38 41/41/41
f 43/43/43 41/41/41 42/42/42
f 63/63/63 43/43/43 44/44/44
f 63/63/63 44/44/44 46/46/46
f 48/48/48 46/46/46 47/47/47
f 50/50/50 48/48/48 49/49/49
f 64/64/64 50/50/50 51/51/51
f 64/64/64 51/51/51 53/53/53
f 53/53/53 52/52/52 55/55/55
f 56/56/56 55/55/55 1/1/1
