v -0.264875 4.188066 -1.565031
v -0.254381 4.196855 -1.570468
v -0.258732 4.186248 -1.578293
v -0.251962 4.181680 -1.563555
v -0.254607 4.184208 -1.577822
v -0.250256 4.194815 -1.569997
v -0.254381 4.196855 -1.570468
v -0.250256 4.194815 -1.569997
v -0.254607 4.184208 -1.577822
v -0.264875 4.188066 -1.565031
v -0.258732 4.186248 -1.578293
v -0.264832 4.175287 -1.572353
v -0.251962 4.181680 -1.563555
v -0.260707 4.173246 -1.571882
v -0.254607 4.184208 -1.577822
v -0.258732 4.186248 -1.578293
v -0.254607 4.184208 -1.577822
v -0.260707 4.173246 -1.571882
v -0.264875 4.188066 -1.565031
v -0.264832 4.175287 -1.572353
v -0.266581 4.174932 -1.558588
v -0.251962 4.181680 -1.563555
v -0.262455 4.172891 -1.558117
v -0.260707 4.173246 -1.571882
v -0.264832 4.175287 -1.572353
v -0.260707 4.173246 -1.571882
v -0.262455 4.172891 -1.558117
v -0.264875 4.188066 -1.565031
v -0.266581 4.174932 -1.558588
v -0.262230 4.185538 -1.550764
v -0.251962 4.181680 -1.563555
v -0.258104 4.183497 -1.550292
v -0.262455 4.172891 -1.558117
v -0.266581 4.174932 -1.558588
v -0.262455 4.172891 -1.558117
v -0.258104 4.183497 -1.550292
v -0.264875 4.188066 -1.565031
v -0.262230 4.185538 -1.550764
v -0.256130 4.196499 -1.556704
v -0.251962 4.181680 -1.563555
v -0.252005 4.194459 -1.556232
v -0.258104 4.183497 -1.550292
v -0.262230 4.185538 -1.550764
v -0.258104 4.183497 -1.550292
v -0.252005 4.194459 -1.556232
v -0.264875 4.188066 -1.565031
v -0.256130 4.196499 -1.556704
v -0.254381 4.196855 -1.570468
v -0.251962 4.181680 -1.563555
v -0.250256 4.194815 -1.569997
v -0.252005 4.194459 -1.556232
v -0.252005 4.194459 -1.556232
v -0.250256 4.194815 -1.569997
v -0.254381 4.196855 -1.570468
v -0.258732 4.186248 -1.578293
v -0.264832 4.175287 -1.572353
v -0.258732 4.186248 -1.578293
v -0.260707 4.173246 -1.571882
v -0.266581 4.174932 -1.558588
v -0.262230 4.185538 -1.550764
v -0.266581 4.174932 -1.558588
v -0.258104 4.183497 -1.550292
v -0.256130 4.196499 -1.556704
v -0.262230 4.185538 -1.550764
v -0.252005 4.194459 -1.556232
v -0.256130 4.196499 -1.556704
v -0.252005 4.194459 -1.556232
v -0.254381 4.196855 -1.570468
vn -0.701200 0.586600 -0.405200
vn -0.701200 0.586600 -0.405200
vn -0.701200 0.586600 -0.405200
vn 0.948900 -0.229500 -0.216600
vn 0.948900 -0.229500 -0.216600
vn 0.948900 -0.229500 -0.216600
vn 0.326400 0.470800 -0.819700
vn 0.326400 0.470800 -0.819700
vn 0.326400 0.470800 -0.819700
vn -0.866100 0.246300 -0.434900
vn -0.866100 0.246300 -0.434900
vn -0.866100 0.246300 -0.434900
vn 0.784000 -0.569800 -0.246300
vn 0.784000 -0.569800 -0.246300
vn 0.784000 -0.569800 -0.246300
vn -0.108200 -0.426400 -0.898000
vn -0.108200 -0.426400 -0.898000
vn -0.108200 -0.426400 -0.898000
vn -0.990000 0.067800 -0.124000
vn -0.990000 0.067800 -0.124000
vn -0.990000 0.067800 -0.124000
vn 0.660200 -0.748300 0.064600
vn 0.660200 -0.748300 0.064600
vn 0.660200 -0.748300 0.064600
vn -0.434700 -0.897100 -0.078400
vn -0.434700 -0.897100 -0.078400
vn -0.434700 -0.897100 -0.078400
vn -0.948900 0.229500 0.216600
vn -0.948900 0.229500 0.216600
vn -0.948900 0.229500 0.216600
vn 0.701300 -0.586600 0.405200
vn 0.701300 -0.586600 0.405200
vn 0.701300 -0.586600 0.405200
vn -0.326500 -0.470700 0.819700
vn -0.326500 -0.470700 0.819700
vn -0.326500 -0.470700 0.819700
vn -0.784000 0.569800 0.246300
vn -0.784000 0.569800 0.246300
vn -0.784000 0.569800 0.246300
vn 0.866100 -0.246300 0.434900
vn 0.866100 -0.246300 0.434900
vn 0.866100 -0.246300 0.434900
vn 0.108200 0.426400 0.898000
vn 0.108200 0.426400 0.898000
vn 0.108200 0.426400 0.898000
vn -0.660200 0.748300 -0.064600
vn -0.660200 0.748300 -0.064600
vn -0.660200 0.748300 -0.064600
vn 0.990000 -0.067800 0.124000
vn 0.990000 -0.067800 0.124000
vn 0.990000 -0.067800 0.124000
vn 0.434700 0.897200 0.078400
vn 0.434700 0.897200 0.078400
vn 0.434700 0.897200 0.078400
vn 0.326400 0.470800 -0.819700
vn -0.108300 -0.426400 -0.898000
vn -0.108300 -0.426400 -0.898000
vn -0.108300 -0.426400 -0.898000
vn -0.434700 -0.897100 -0.078400
vn -0.326500 -0.470700 0.819600
vn -0.326500 -0.470700 0.819600
vn -0.326500 -0.470700 0.819600
vn 0.108300 0.426400 0.898000
vn 0.108300 0.426400 0.898000
vn 0.108300 0.426400 0.898000
vn 0.434700 0.897100 0.078400
vn 0.434700 0.897100 0.078400
vn 0.434700 0.897100 0.078400
vt 0.000000 0.000000
vt 0.000000 0.000000
vt 0.000000 0.000000
vt 0.000000 0.000000
vt 0.000000 0.000000
vt 0.000000 0.000000
vt 0.000000 0.000000
vt 0.000000 0.000000
vt 0.000000 0.000000
vt 0.000000 0.000000
vt 0.000000 0.000000
vt 0.000000 0.000000
vt 0.000000 0.000000
vt 0.000000 0.000000
vt 0.000000 0.000000
vt 0.000000 0.000000
vt 0.000000 0.000000
vt 0.000000 0.000000
vt 0.000000 0.000000
vt 0.000000 0.000000
vt 0.000000 0.000000
vt 0.000000 0.000000
vt 0.000000 0.000000
vt 0.000000 0.000000
vt 0.000000 0.000000
vt 0.000000 0.000000
vt 0.000000 0.000000
vt 0.000000 0.000000
vt 0.000000 0.000000
vt 0.000000 0.000000
vt 0.000000 0.000000
vt 0.000000 0.000000
vt 0.000000 0.000000
vt 0.000000 0.000000
vt 0.000000 0.000000
vt 0.000000 0.000000
vt 0.000000 0.000000
vt 0.000000 0.000000
vt 0.000000 0.000000
vt 0.000000 0.000000
vt 0.000000 0.000000
vt 0.000000 0.000000
vt 0.000000 0.000000
vt 0.000000 0.000000
vt 0.000000 0.000000
vt 0.000000 0.000000
vt 0.000000 0.000000
vt 0.000000 0.000000
vt 0.000000 0.000000
vt 0.000000 0.000000
vt 0.000000 0.000000
vt 0.000000 0.000000
vt 0.000000 0.000000
vt 0.000000 0.000000
vt 0.000000 0.000000
vt 0.000000 0.000000
vt 0.000000 0.000000
vt 0.000000 0.000000
vt 0.000000 0.000000
vt 0.000000 0.000000
vt 0.000000 0.000000
vt 0.000000 0.000000
vt 0.000000 0.000000
vt 0.000000 0.000000
vt 0.000000 0.000000
vt 0.000000 0.000000
vt 0.000000 0.000000
vt 0.000000 0.000000
f 1/1/1 2/2/2 3/3/3
f 4/4/4 5/5/5 6/6/6
f 7/7/7 8/8/8 9/9/9
f 10/10/10 11/11/11 12/12/12
f 13/13/13 14/14/14 15/15/15
f 16/16/16 17/17/17 18/18/18
f 19/19/19 20/20/20 21/21/21
f 22/22/22 23/23/23 24/24/24
f 25/25/25 26/26/26 27/27/27
f 28/28/28 29/29/29 30/30/30
f 31/31/31 32/32/32 33/33/33
f 34/34/34 35/35/35 36/36/36
f 37/37/37 38/38/38 39/39/39
f 40/40/40 41/41/41 42/42/42
f 43/43/43 44/44/44 45/45/45
f 46/46/46 47/47/47 48/48/48
f 49/49/49 50/50/50 51/51/51
f 52/52/52 53/53/53 54/54/54
f 55/55/55 7/7/7 9/9/9
f 56/56/56 57/57/57 58/58/58
f 59/59/59 25/25/25 27/27/27
f 60/60/60 61/61/61 62/62/62
f 63/63/63 64/64/64 65/65/65
f 66/66/66 67/67/67 68/68/68
