v 0.561692 0.870655 -1.425856
v 0.560532 0.876459 -1.427015
v 0.553431 0.876459 -1.421188
v 0.536859 0.870655 -1.507718
v 0.527397 0.870655 -1.508649
v 0.527397 0.876459 -1.507010
v 0.575897 0.870655 -1.460150
v 0.574965 0.870655 -1.469612
v 0.573357 0.876459 -1.469292
v 0.574257 0.876459 -1.460150
v 0.573357 0.876459 -1.451008
v 0.545957 0.870655 -1.415342
v 0.554342 0.870655 -1.419824
v 0.487072 0.870655 -1.433205
v 0.488435 0.876459 -1.434116
v 0.484105 0.876459 -1.442218
v 0.567723 0.870655 -1.487095
v 0.561692 0.870655 -1.494444
v 0.560532 0.876459 -1.493285
v 0.567723 0.870655 -1.433205
v 0.566360 0.876459 -1.434116
v 0.572205 0.870655 -1.478710
v 0.570690 0.876459 -1.478082
v 0.493103 0.870655 -1.494444
v 0.487072 0.870655 -1.487095
v 0.488435 0.876459 -1.486184
v 0.479830 0.870655 -1.450688
v 0.481438 0.876459 -1.451008
v 0.480538 0.876459 -1.460150
v 0.494263 0.876459 -1.493285
v 0.501364 0.876459 -1.499112
v 0.500453 0.870655 -1.500476
v 0.509465 0.876459 -1.503443
v 0.554342 0.870655 -1.500476
v 0.545957 0.870655 -1.504958
v 0.545330 0.876459 -1.503443
v 0.572205 0.870655 -1.441590
v 0.570690 0.876459 -1.442218
v 0.500453 0.870655 -1.419824
v 0.508837 0.870655 -1.415342
v 0.509465 0.876459 -1.416857
v 0.553431 0.876459 -1.499112
v 0.501364 0.876459 -1.421188
v 0.494263 0.876459 -1.427015
v 0.545330 0.876459 -1.416857
v 0.536539 0.876459 -1.414191
v 0.574965 0.870655 -1.450688
v 0.493103 0.870655 -1.425856
v 0.482590 0.870655 -1.478710
v 0.484105 0.876459 -1.478083
v 0.536539 0.876459 -1.506109
v 0.478898 0.870655 -1.460150
v 0.481438 0.876459 -1.469292
v 0.566360 0.876459 -1.486184
v 0.508837 0.870655 -1.504958
v 0.518256 0.876459 -1.506109
v 0.536859 0.870655 -1.412583
v 0.527397 0.876459 -1.413291
v 0.527397 0.870655 -1.411651
v 0.518256 0.876459 -1.414191
v 0.482590 0.870655 -1.441590
v 0.517936 0.870655 -1.412583
v 0.517936 0.870655 -1.507718
v 0.527397 0.876459 -1.507010
v 0.479830 0.870655 -1.469612
v 0.527397 0.870655 -1.508649
vn 0.680500 0.271900 0.680400
vn 0.680400 0.271900 0.680400
vn 0.534600 0.271900 0.800100
vn 0.187700 0.271900 -0.943800
vn 0.000000 0.271900 -0.962300
vn 0.000000 0.271900 -0.962300
vn 0.962300 0.271900 0.000000
vn 0.943800 0.271900 -0.187700
vn 0.943800 0.271900 -0.187700
vn 0.962300 0.271900 0.000000
vn 0.943800 0.271900 0.187700
vn 0.368200 0.271900 0.889100
vn 0.534600 0.271900 0.800100
vn -0.800100 0.271900 0.534600
vn -0.800100 0.271900 0.534600
vn -0.889100 0.271900 0.368200
vn 0.800100 0.271900 -0.534600
vn 0.680500 0.271900 -0.680400
vn 0.680500 0.271900 -0.680400
vn 0.800100 0.271900 0.534600
vn 0.800100 0.271900 0.534600
vn 0.889100 0.271900 -0.368200
vn 0.889100 0.271900 -0.368200
vn -0.680400 0.271900 -0.680400
vn -0.800100 0.271900 -0.534600
vn -0.800100 0.271900 -0.534600
vn -0.943800 0.271900 0.187700
vn -0.943800 0.271900 0.187700
vn -0.962300 0.271900 0.000000
vn -0.680400 0.271900 -0.680400
vn -0.534600 0.271900 -0.800100
vn -0.534600 0.271900 -0.800100
vn -0.368200 0.271900 -0.889100
vn 0.534600 0.271900 -0.800100
vn 0.368200 0.271900 -0.889100
vn 0.368200 0.271900 -0.889100
vn 0.889100 0.271900 0.368300
vn 0.889100 0.271900 0.368300
vn -0.534600 0.271900 0.800100
vn -0.368200 0.271900 0.889100
vn -0.368200 0.271900 0.889100
vn 0.534600 0.271900 -0.800100
vn -0.534600 0.271900 0.800100
vn -0.680400 0.271900 0.680400
vn 0.368200 0.271900 0.889100
vn 0.187700 0.271900 0.943800
vn 0.943800 0.271900 0.187700
vn -0.680400 0.271900 0.680400
vn -0.889100 0.271900 -0.368200
vn -0.889100 0.271900 -0.368200
vn 0.187700 0.271900 -0.943800
vn -0.962300 0.271900 0.000000
vn -0.943800 0.271900 -0.187700
vn 0.800100 0.271900 -0.534600
vn -0.368200 0.271900 -0.889100
vn -0.187700 0.271900 -0.943800
vn 0.187700 0.271900 0.943800
vn 0.000000 0.271900 0.962300
vn 0.000000 0.271900 0.962300
vn -0.187700 0.271900 0.943800
vn -0.889100 0.271900 0.368200
vn -0.187700 0.271900 0.943800
vn -0.187700 0.271900 -0.943800
vn 0.000000 0.271900 -0.962300
vn -0.943800 0.271900 -0.187700
vn 0.000000 0.271900 -0.962300
vt 0.454052 0.424842
vt 0.456650 0.427454
vt 0.432235 0.427994
vt 0.690869 0.417253
vt 0.711545 0.417167
vt 0.711545 0.420038
vt 0.544329 0.421663
vt 0.565778 0.420786
vt 0.568665 0.423535
vt 0.547389 0.424382
vt 0.525643 0.425230
vt 0.405657 0.425816
vt 0.430109 0.425401
vt 0.234117 0.424160
vt 0.231199 0.426796
vt 0.208220 0.426045
vt 0.607907 0.419165
vt 0.628735 0.418484
vt 0.630651 0.421311
vt 0.477427 0.424160
vt 0.480345 0.426796
vt 0.586944 0.419942
vt 0.589574 0.422720
vt 0.082810 0.418484
vt 0.103638 0.419165
vt 0.101335 0.421969
vt 0.189036 0.422540
vt 0.185902 0.425230
vt 0.164156 0.424382
vt 0.080894 0.421311
vt 0.060582 0.420770
vt 0.062063 0.417924
vt 0.040351 0.420369
vt 0.649482 0.417924
vt 0.670186 0.417509
vt 0.671193 0.420369
vt 0.500232 0.423383
vt 0.503324 0.426045
vt 0.281436 0.425401
vt 0.305887 0.425816
vt 0.304375 0.428396
vt 0.650962 0.420770
vt 0.279310 0.427994
vt 0.254895 0.427454
vt 0.407170 0.428396
vt 0.381607 0.428643
vt 0.522509 0.422540
vt 0.257492 0.424842
vt 0.124601 0.419942
vt 0.121970 0.422720
vt 0.691379 0.420122
vt 0.167216 0.421663
vt 0.142879 0.423535
vt 0.610209 0.421969
vt 0.041359 0.417509
vt 0.020166 0.420122
vt 0.380819 0.426072
vt 0.355772 0.428726
vt 0.355772 0.426159
vt 0.329938 0.428643
vt 0.211313 0.423383
vt 0.330725 0.426072
vt 0.020676 0.417253
vt 0.000000 0.420038
vt 0.145766 0.420786
vt 0.000000 0.417167
f 1/1/1 2/2/2 3/3/3
f 4/4/4 5/5/5 6/6/6
f 7/7/7 8/8/8 9/9/9
f 7/7/7 10/10/10 11/11/11
f 12/12/12 13/13/13 3/3/3
f 14/14/14 15/15/15 16/16/16
f 17/17/17 18/18/18 19/19/19
f 20/20/20 21/21/21 2/2/2
f 8/8/8 22/22/22 23/23/23
f 24/24/24 25/25/25 26/26/26
f 27/27/27 28/28/28 29/29/29
f 24/24/24 30/30/30 31/31/31
f 32/32/32 31/31/31 33/33/33
f 34/34/34 35/35/35 36/36/36
f 20/20/20 37/37/37 38/38/38
f 39/39/39 40/40/40 41/41/41
f 18/18/18 34/34/34 42/42/42
f 39/39/39 43/43/43 44/44/44
f 12/12/12 45/45/45 46/46/46
f 47/47/47 11/11/11 38/38/38
f 48/48/48 44/44/44 15/15/15
f 25/25/25 49/49/49 50/50/50
f 35/35/35 4/4/4 51/51/51
f 52/52/52 29/29/29 53/53/53
f 17/17/17 54/54/54 23/23/23
f 55/55/55 33/33/33 56/56/56
f 57/57/57 46/46/46 58/58/58
f 59/59/59 58/58/58 60/60/60
f 61/61/61 16/16/16 28/28/28
f 40/40/40 62/62/62 60/60/60
f 63/63/63 56/56/56 64/64/64
f 65/65/65 53/53/53 50/50/50
f 13/13/13 1/1/1 3/3/3
f 51/51/51 4/4/4 6/6/6
f 10/10/10 7/7/7 9/9/9
f 47/47/47 7/7/7 11/11/11
f 45/45/45 12/12/12 3/3/3
f 61/61/61 14/14/14 16/16/16
f 54/54/54 17/17/17 19/19/19
f 1/1/1 20/20/20 2/2/2
f 9/9/9 8/8/8 23/23/23
f 30/30/30 24/24/24 26/26/26
f 52/52/52 27/27/27 29/29/29
f 32/32/32 24/24/24 31/31/31
f 55/55/55 32/32/32 33/33/33
f 42/42/42 34/34/34 36/36/36
f 21/21/21 20/20/20 38/38/38
f 43/43/43 39/39/39 41/41/41
f 19/19/19 18/18/18 42/42/42
f 48/48/48 39/39/39 44/44/44
f 57/57/57 12/12/12 46/46/46
f 37/37/37 47/47/47 38/38/38
f 14/14/14 48/48/48 15/15/15
f 26/26/26 25/25/25 50/50/50
f 36/36/36 35/35/35 51/51/51
f 65/65/65 52/52/52 53/53/53
f 22/22/22 17/17/17 23/23/23
f 63/63/63 55/55/55 56/56/56
f 59/59/59 57/57/57 58/58/58
f 62/62/62 59/59/59 60/60/60
f 27/27/27 61/61/61 28/28/28
f 41/41/41 40/40/40 60/60/60
f 66/66/66 63/63/63 64/64/64
f 49/49/49 65/65/65 50/50/50
