v 0.460549 2.307352 -3.221461
v 0.452488 2.306266 -3.223065
v 0.452488 2.306452 -3.208323
v 0.464382 2.307352 -3.234095
v 0.470605 2.307352 -3.245738
v 0.455332 2.305044 -3.255943
v 0.452488 2.305032 -3.250622
v 0.452488 2.305690 -3.239022
v 0.452488 2.304378 -3.257844
v 0.478980 2.307352 -3.255943
v 0.465991 2.305044 -3.268932
v 0.452488 2.302207 -3.276126
v 0.455332 2.302227 -3.279592
v 0.489185 2.307352 -3.264318
v 0.478980 2.305044 -3.279592
v 0.477080 2.304378 -3.282436
v 0.458797 2.302207 -3.282436
v 0.495902 2.305690 -3.282436
v 0.484301 2.305032 -3.282436
v 0.500829 2.307352 -3.270542
v 0.513462 2.307352 -3.274374
v 0.511859 2.306266 -3.282436
v 0.526600 2.307352 -3.275668
v 0.526600 2.306452 -3.282436
v 0.526600 2.306452 -3.282436
v 0.526600 2.307352 -3.275668
v 0.539739 2.307352 -3.274374
v 0.541342 2.306266 -3.282436
v 0.552372 2.307352 -3.270542
v 0.564016 2.307352 -3.264318
v 0.574221 2.305044 -3.279592
v 0.568900 2.305032 -3.282436
v 0.557299 2.305690 -3.282436
v 0.576121 2.304378 -3.282436
v 0.574221 2.307352 -3.255943
v 0.587210 2.305044 -3.268932
v 0.594404 2.302207 -3.282436
v 0.597869 2.302227 -3.279592
v 0.600713 2.300988 -3.282436
v 0.600713 2.302207 -3.276126
v 0.582596 2.307352 -3.245738
v 0.597869 2.305044 -3.255943
v 0.600713 2.304378 -3.257843
v 0.600713 2.305032 -3.250623
v 0.600713 2.305690 -3.239022
v 0.588819 2.307352 -3.234095
v 0.592652 2.307352 -3.221461
v 0.600713 2.306266 -3.223065
v 0.593946 2.307352 -3.208323
v 0.600713 2.306452 -3.208323
v 0.592652 2.307352 -3.195184
v 0.600713 2.306266 -3.193581
v 0.588819 2.307352 -3.182551
v 0.582596 2.307352 -3.170908
v 0.597869 2.305044 -3.160703
v 0.600713 2.305032 -3.166023
v 0.600713 2.305690 -3.177624
v 0.600713 2.304378 -3.158802
v 0.574221 2.307352 -3.160703
v 0.587210 2.305044 -3.147714
v 0.600713 2.302207 -3.140520
v 0.597869 2.302227 -3.137054
v 0.600713 2.300988 -3.134210
v 0.594404 2.302207 -3.134210
v 0.564016 2.307352 -3.152327
v 0.574221 2.305044 -3.137054
v 0.576121 2.304378 -3.134210
v 0.568900 2.305032 -3.134210
v 0.557299 2.305690 -3.134210
v 0.552372 2.307352 -3.146104
v 0.539739 2.307352 -3.142272
v 0.541342 2.306266 -3.134210
v 0.526600 2.307352 -3.140978
v 0.526600 2.306452 -3.134210
v 0.513462 2.307352 -3.142272
v 0.511858 2.306266 -3.134210
v 0.500829 2.307352 -3.146104
v 0.489185 2.307352 -3.152328
v 0.478980 2.305044 -3.137054
v 0.484301 2.305032 -3.134210
v 0.495902 2.305690 -3.134210
v 0.477080 2.304379 -3.134210
v 0.478980 2.307352 -3.160703
v 0.465991 2.305044 -3.147714
v 0.458797 2.302207 -3.134210
v 0.455332 2.302227 -3.137054
v 0.452488 2.300988 -3.134210
v 0.452488 2.302207 -3.140520
v 0.470605 2.307352 -3.170908
v 0.455332 2.305044 -3.160703
v 0.452488 2.304379 -3.158802
v 0.452488 2.305032 -3.166024
v 0.452488 2.305690 -3.177624
v 0.464382 2.307352 -3.182551
v 0.460549 2.307352 -3.195184
v 0.452488 2.306266 -3.193581
v 0.459255 2.307352 -3.208323
v 0.513827 2.307956 -3.272541
v 0.501544 2.307956 -3.268815
v 0.526600 2.307956 -3.142847
v 0.513827 2.307956 -3.144105
v 0.581042 2.307956 -3.244699
v 0.587092 2.307956 -3.233380
v 0.590818 2.307956 -3.195549
v 0.587092 2.307956 -3.183266
v 0.462382 2.307956 -3.221097
v 0.590818 2.307956 -3.221097
v 0.562977 2.307956 -3.153882
v 0.539374 2.307956 -3.144105
v 0.581042 2.307956 -3.171946
v 0.539374 2.307956 -3.272541
v 0.551657 2.307956 -3.268815
v 0.462383 2.307956 -3.195549
v 0.562977 2.307956 -3.262764
v 0.472159 2.307956 -3.171947
v 0.466109 2.307956 -3.183266
v 0.572899 2.307956 -3.162024
v 0.466108 2.307956 -3.233380
v 0.461124 2.307956 -3.208323
v 0.490224 2.307956 -3.153882
v 0.480302 2.307956 -3.162024
v 0.472159 2.307956 -3.244699
v 0.480302 2.307956 -3.254622
v 0.501544 2.307956 -3.147831
v 0.572899 2.307956 -3.254622
v 0.490224 2.307956 -3.262764
v 0.526600 2.307956 -3.273799
v 0.551657 2.307956 -3.147831
v 0.592077 2.307956 -3.208323
v 0.452488 2.300988 -3.282436
v 0.526600 2.307956 -3.273799
vn -0.210800 0.976600 -0.041800
vn -0.127500 0.991500 -0.026300
vn -0.131500 0.991300 0.000000
vn -0.197400 0.976900 -0.081400
vn -0.176400 0.977300 -0.117300
vn -0.133600 0.987100 -0.088000
vn -0.121000 0.990700 -0.061900
vn -0.116700 0.991900 -0.049600
vn -0.154100 0.981900 -0.110100
vn -0.149600 0.977400 -0.149600
vn -0.110900 0.987600 -0.110900
vn -0.164900 0.977600 -0.130900
vn -0.171700 0.970100 -0.171600
vn -0.117300 0.977300 -0.176400
vn -0.088100 0.987100 -0.133600
vn -0.110100 0.981900 -0.154100
vn -0.130800 0.977600 -0.164800
vn -0.049600 0.991900 -0.116700
vn -0.061900 0.990700 -0.121000
vn -0.081400 0.976900 -0.197400
vn -0.041800 0.976600 -0.210800
vn -0.026300 0.991500 -0.127500
vn 0.000000 0.976500 -0.215300
vn 0.000000 0.991300 -0.131500
vn 0.000000 0.991300 -0.131500
vn 0.000000 0.976500 -0.215300
vn 0.041800 0.976600 -0.210800
vn 0.026300 0.991500 -0.127500
vn 0.081400 0.976900 -0.197400
vn 0.117300 0.977300 -0.176400
vn 0.088100 0.987100 -0.133600
vn 0.061900 0.990700 -0.121000
vn 0.049600 0.991900 -0.116700
vn 0.110100 0.981900 -0.154100
vn 0.149600 0.977400 -0.149600
vn 0.110900 0.987600 -0.110900
vn 0.130800 0.977600 -0.164800
vn 0.171700 0.970100 -0.171700
vn 0.208200 0.955700 -0.208200
vn 0.164800 0.977600 -0.130900
vn 0.176400 0.977300 -0.117300
vn 0.133600 0.987100 -0.088000
vn 0.154100 0.981900 -0.110100
vn 0.121000 0.990700 -0.061900
vn 0.116700 0.991900 -0.049600
vn 0.197400 0.976900 -0.081400
vn 0.210800 0.976600 -0.041800
vn 0.127500 0.991500 -0.026300
vn 0.215300 0.976500 0.000000
vn 0.131500 0.991300 0.000000
vn 0.210800 0.976600 0.041800
vn 0.127500 0.991500 0.026300
vn 0.197400 0.976900 0.081400
vn 0.176400 0.977300 0.117300
vn 0.133500 0.987100 0.088000
vn 0.121000 0.990700 0.061900
vn 0.116700 0.991900 0.049600
vn 0.154100 0.981900 0.110100
vn 0.149600 0.977400 0.149500
vn 0.110900 0.987600 0.110900
vn 0.164900 0.977600 0.130900
vn 0.171700 0.970100 0.171700
vn 0.208200 0.955600 0.208200
vn 0.130800 0.977600 0.164800
vn 0.117300 0.977300 0.176500
vn 0.088000 0.987100 0.133600
vn 0.110100 0.981900 0.154100
vn 0.061900 0.990700 0.121100
vn 0.049600 0.991900 0.116700
vn 0.081400 0.976900 0.197400
vn 0.041800 0.976600 0.210800
vn 0.026300 0.991500 0.127500
vn 0.000000 0.976500 0.215300
vn 0.000000 0.991300 0.131500
vn -0.041800 0.976600 0.210800
vn -0.026300 0.991500 0.127500
vn -0.081400 0.976900 0.197400
vn -0.117300 0.977300 0.176400
vn -0.088000 0.987100 0.133500
vn -0.061900 0.990700 0.121000
vn -0.049600 0.991900 0.116700
vn -0.110100 0.981900 0.154000
vn -0.149600 0.977400 0.149600
vn -0.110900 0.987600 0.110900
vn -0.130800 0.977600 0.164800
vn -0.171700 0.970100 0.171600
vn -0.208200 0.955700 0.208200
vn -0.164900 0.977600 0.130900
vn -0.176400 0.977300 0.117300
vn -0.133500 0.987100 0.088000
vn -0.154000 0.981900 0.110100
vn -0.121000 0.990700 0.061900
vn -0.116700 0.991900 0.049600
vn -0.197400 0.976900 0.081400
vn -0.210800 0.976600 0.041800
vn -0.127500 0.991500 0.026300
vn -0.215300 0.976500 0.000000
vn -0.060000 0.951400 -0.301900
vn -0.117800 0.951400 -0.284300
vn 0.000000 0.951400 0.307800
vn -0.060000 0.951400 0.301900
vn 0.255900 0.951400 -0.170900
vn 0.284300 0.951400 -0.117800
vn 0.301800 0.951400 0.060000
vn 0.284300 0.951400 0.117700
vn -0.301800 0.951400 -0.060000
vn 0.301800 0.951400 -0.060000
vn 0.171000 0.951400 0.255900
vn 0.060000 0.951400 0.301900
vn 0.255900 0.951400 0.171000
vn 0.060000 0.951400 -0.301800
vn 0.117800 0.951400 -0.284300
vn -0.301800 0.951400 0.060000
vn 0.171000 0.951400 -0.255900
vn -0.255900 0.951400 0.170900
vn -0.284300 0.951400 0.117800
vn 0.217600 0.951500 0.217500
vn -0.284300 0.951400 -0.117800
vn -0.307700 0.951400 0.000000
vn -0.171000 0.951400 0.255900
vn -0.217600 0.951400 0.217600
vn -0.255900 0.951400 -0.170900
vn -0.217600 0.951400 -0.217600
vn -0.117800 0.951400 0.284300
vn 0.217600 0.951400 -0.217600
vn -0.171000 0.951500 -0.255800
vn 0.000000 0.951400 -0.307700
vn 0.117800 0.951500 0.284300
vn 0.307700 0.951400 0.000000
vn -0.208200 0.955700 -0.208200
vn 0.000000 0.951400 -0.307700
vt 0.203974 0.615925
vt 0.201106 0.615541
vt 0.225378 0.616391
vt 0.179211 0.615240
vt 0.153109 0.614609
vt 0.147345 0.613423
vt 0.156924 0.613708
vt 0.174838 0.614518
vt 0.146617 0.613138
vt 0.125461 0.614056
vt 0.120100 0.612719
vt 0.123772 0.611551
vt 0.117494 0.611369
vt 0.096151 0.613602
vt 0.091577 0.612141
vt 0.091013 0.611804
vt 0.111295 0.611209
vt 0.062682 0.612164
vt 0.081125 0.611984
vt 0.065227 0.613264
vt 0.032987 0.613056
vt 0.032057 0.612322
vt 0.000000 0.612986
vt 0.000000 0.612373
vt 0.795999 0.612373
vt 0.795999 0.612986
vt 0.763012 0.613056
vt 0.763942 0.612322
vt 0.730773 0.613264
vt 0.699849 0.613602
vt 0.704422 0.612141
vt 0.714874 0.611984
vt 0.733318 0.612164
vt 0.704986 0.611804
vt 0.670538 0.614056
vt 0.675900 0.612719
vt 0.684704 0.611209
vt 0.678505 0.611369
vt 0.678960 0.610875
vt 0.672227 0.611551
vt 0.642891 0.614609
vt 0.648654 0.613423
vt 0.649382 0.613138
vt 0.639076 0.613708
vt 0.621161 0.614518
vt 0.616788 0.615240
vt 0.592025 0.615925
vt 0.594893 0.615541
vt 0.568370 0.616637
vt 0.570621 0.616391
vt 0.545600 0.617350
vt 0.548043 0.617139
vt 0.523518 0.618035
vt 0.501957 0.618666
vt 0.505645 0.618587
vt 0.513482 0.618295
vt 0.526724 0.617846
vt 0.506135 0.618507
vt 0.480779 0.619219
vt 0.483786 0.619291
vt 0.490344 0.618903
vt 0.485384 0.619097
vt 0.485674 0.618911
vt 0.480350 0.619245
vt 0.459875 0.619673
vt 0.462162 0.619869
vt 0.462468 0.619841
vt 0.454408 0.620020
vt 0.440294 0.620200
vt 0.439156 0.620011
vt 0.418551 0.620218
vt 0.418934 0.620358
vt 0.397999 0.620288
vt 0.397999 0.620409
vt 0.377448 0.620218
vt 0.377065 0.620358
vt 0.356843 0.620011
vt 0.336124 0.619673
vt 0.333837 0.619869
vt 0.341591 0.620020
vt 0.355705 0.620200
vt 0.333531 0.619841
vt 0.315220 0.619219
vt 0.312213 0.619291
vt 0.315650 0.619245
vt 0.310615 0.619097
vt 0.310325 0.618911
vt 0.305655 0.618903
vt 0.294042 0.618666
vt 0.290354 0.618587
vt 0.289864 0.618507
vt 0.282517 0.618295
vt 0.269275 0.617846
vt 0.272481 0.618035
vt 0.250399 0.617350
vt 0.247956 0.617139
vt 0.227629 0.616637
vt 0.033194 0.613321
vt 0.065612 0.613523
vt 0.397999 0.620409
vt 0.377529 0.620285
vt 0.642254 0.614831
vt 0.616149 0.615445
vt 0.545081 0.617496
vt 0.523061 0.618161
vt 0.204590 0.616111
vt 0.591409 0.616111
vt 0.459636 0.619755
vt 0.418470 0.620285
vt 0.501569 0.618775
vt 0.762805 0.613321
vt 0.730387 0.613523
vt 0.250918 0.617496
vt 0.699331 0.613851
vt 0.294430 0.618775
vt 0.272938 0.618161
vt 0.480465 0.619313
vt 0.179850 0.615445
vt 0.228203 0.616803
vt 0.336363 0.619755
vt 0.315535 0.619313
vt 0.153746 0.614831
vt 0.126061 0.614293
vt 0.357003 0.620083
vt 0.669938 0.614293
vt 0.096668 0.613851
vt 0.795999 0.613253
vt 0.438996 0.620083
vt 0.567796 0.616803
vt 0.117039 0.610875
vt 0.000000 0.613253
f 1/1/1 2/2/2 3/3/3
f 2/2/2 1/1/1 4/4/4
f 5/5/5 6/6/6 7/7/7
f 8/8/8 4/4/4 5/5/5
f 7/7/7 6/6/6 9/9/9
f 5/5/5 10/10/10 11/11/11
f 11/11/11 12/12/12 9/9/9
f 11/11/11 13/13/13 12/12/12
f 10/10/10 14/14/14 15/15/15
f 11/11/11 15/15/15 16/16/16
f 17/17/17 13/13/13 11/11/11
f 14/14/14 18/18/18 19/19/19
f 14/14/14 20/20/20 18/18/18
f 16/16/16 15/15/15 19/19/19
f 20/20/20 21/21/21 22/22/22
f 21/21/21 23/23/23 24/24/24
f 25/25/25 26/26/26 27/27/27
f 28/28/28 27/27/27 29/29/29
f 30/30/30 31/31/31 32/32/32
f 33/33/33 29/29/29 30/30/30
f 32/32/32 31/31/31 34/34/34
f 35/35/35 36/36/36 31/31/31
f 36/36/36 37/37/37 34/34/34
f 36/36/36 38/38/38 37/37/37
f 39/39/39 38/38/38 40/40/40
f 41/41/41 42/42/42 36/36/36
f 36/36/36 42/42/42 43/43/43
f 40/40/40 38/38/38 36/36/36
f 43/43/43 42/42/42 44/44/44
f 41/41/41 45/45/45 44/44/44
f 41/41/41 46/46/46 45/45/45
f 46/46/46 47/47/47 48/48/48
f 47/47/47 49/49/49 50/50/50
f 50/50/50 49/49/49 51/51/51
f 52/52/52 51/51/51 53/53/53
f 54/54/54 55/55/55 56/56/56
f 57/57/57 53/53/53 54/54/54
f 56/56/56 55/55/55 58/58/58
f 59/59/59 60/60/60 55/55/55
f 60/60/60 61/61/61 58/58/58
f 60/60/60 62/62/62 61/61/61
f 61/61/61 62/62/62 63/63/63
f 63/63/63 62/62/62 64/64/64
f 65/65/65 66/66/66 60/60/60
f 60/60/60 66/66/66 67/67/67
f 64/64/64 62/62/62 60/60/60
f 67/67/67 66/66/66 68/68/68
f 65/65/65 69/69/69 68/68/68
f 65/65/65 70/70/70 69/69/69
f 70/70/70 71/71/71 72/72/72
f 71/71/71 73/73/73 74/74/74
f 74/74/74 73/73/73 75/75/75
f 76/76/76 75/75/75 77/77/77
f 78/78/78 79/79/79 80/80/80
f 81/81/81 77/77/77 78/78/78
f 80/80/80 79/79/79 82/82/82
f 83/83/83 84/84/84 79/79/79
f 84/84/84 85/85/85 82/82/82
f 84/84/84 86/86/86 85/85/85
f 85/85/85 86/86/86 87/87/87
f 87/87/87 86/86/86 88/88/88
f 83/83/83 89/89/89 90/90/90
f 84/84/84 90/90/90 91/91/91
f 88/88/88 86/86/86 84/84/84
f 91/91/91 90/90/90 92/92/92
f 89/89/89 93/93/93 92/92/92
f 89/89/89 94/94/94 93/93/93
f 94/94/94 95/95/95 96/96/96
f 95/95/95 97/97/97 3/3/3
f 23/23/23 21/21/21 98/98/98
f 21/21/21 20/20/20 99/99/99
f 73/73/73 100/100/100 101/101/101
f 41/41/41 102/102/102 103/103/103
f 51/51/51 104/104/104 105/105/105
f 4/4/4 1/1/1 106/106/106
f 46/46/46 103/103/103 107/107/107
f 70/70/70 65/65/65 108/108/108
f 73/73/73 71/71/71 109/109/109
f 53/53/53 105/105/105 110/110/110
f 27/27/27 111/111/111 112/112/112
f 97/97/97 95/95/95 113/113/113
f 59/59/59 54/54/54 110/110/110
f 35/35/35 30/30/30 114/114/114
f 89/89/89 115/115/115 116/116/116
f 59/59/59 117/117/117 108/108/108
f 5/5/5 4/4/4 118/118/118
f 1/1/1 97/97/97 119/119/119
f 78/78/78 120/120/120 121/121/121
f 5/5/5 122/122/122 123/123/123
f 75/75/75 101/101/101 124/124/124
f 41/41/41 35/35/35 125/125/125
f 77/77/77 124/124/124 120/120/120
f 14/14/14 126/126/126 99/99/99
f 26/26/26 127/127/127 111/111/111
f 30/30/30 29/29/29 112/112/112
f 71/71/71 70/70/70 128/128/128
f 94/94/94 116/116/116 113/113/113
f 47/47/47 107/107/107 129/129/129
f 89/89/89 83/83/83 121/121/121
f 51/51/51 49/49/49 129/129/129
f 14/14/14 10/10/10 123/123/123
f 130/130/130 13/13/13 17/17/17
f 13/13/13 130/130/130 12/12/12
f 38/38/38 39/39/39 37/37/37
f 97/97/97 1/1/1 3/3/3
f 8/8/8 2/2/2 4/4/4
f 8/8/8 5/5/5 7/7/7
f 6/6/6 5/5/5 11/11/11
f 6/6/6 11/11/11 9/9/9
f 11/11/11 10/10/10 15/15/15
f 17/17/17 11/11/11 16/16/16
f 15/15/15 14/14/14 19/19/19
f 18/18/18 20/20/20 22/22/22
f 22/22/22 21/21/21 24/24/24
f 28/28/28 25/25/25 27/27/27
f 33/33/33 28/28/28 29/29/29
f 33/33/33 30/30/30 32/32/32
f 30/30/30 35/35/35 31/31/31
f 31/31/31 36/36/36 34/34/34
f 35/35/35 41/41/41 36/36/36
f 40/40/40 36/36/36 43/43/43
f 42/42/42 41/41/41 44/44/44
f 45/45/45 46/46/46 48/48/48
f 48/48/48 47/47/47 50/50/50
f 52/52/52 50/50/50 51/51/51
f 57/57/57 52/52/52 53/53/53
f 57/57/57 54/54/54 56/56/56
f 54/54/54 59/59/59 55/55/55
f 55/55/55 60/60/60 58/58/58
f 59/59/59 65/65/65 60/60/60
f 64/64/64 60/60/60 67/67/67
f 66/66/66 65/65/65 68/68/68
f 69/69/69 70/70/70 72/72/72
f 72/72/72 71/71/71 74/74/74
f 76/76/76 74/74/74 75/75/75
f 81/81/81 76/76/76 77/77/77
f 81/81/81 78/78/78 80/80/80
f 78/78/78 83/83/83 79/79/79
f 79/79/79 84/84/84 82/82/82
f 84/84/84 83/83/83 90/90/90
f 88/88/88 84/84/84 91/91/91
f 90/90/90 89/89/89 92/92/92
f 93/93/93 94/94/94 96/96/96
f 96/96/96 95/95/95 3/3/3
f 131/131/131 23/23/23 98/98/98
f 98/98/98 21/21/21 99/99/99
f 75/75/75 73/73/73 101/101/101
f 46/46/46 41/41/41 103/103/103
f 53/53/53 51/51/51 105/105/105
f 118/118/118 4/4/4 106/106/106
f 47/47/47 46/46/46 107/107/107
f 128/128/128 70/70/70 108/108/108
f 100/100/100 73/73/73 109/109/109
f 54/54/54 53/53/53 110/110/110
f 29/29/29 27/27/27 112/112/112
f 119/119/119 97/97/97 113/113/113
f 117/117/117 59/59/59 110/110/110
f 125/125/125 35/35/35 114/114/114
f 94/94/94 89/89/89 116/116/116
f 65/65/65 59/59/59 108/108/108
f 122/122/122 5/5/5 118/118/118
f 106/106/106 1/1/1 119/119/119
f 83/83/83 78/78/78 121/121/121
f 10/10/10 5/5/5 123/123/123
f 77/77/77 75/75/75 124/124/124
f 102/102/102 41/41/41 125/125/125
f 78/78/78 77/77/77 120/120/120
f 20/20/20 14/14/14 99/99/99
f 27/27/27 26/26/26 111/111/111
f 114/114/114 30/30/30 112/112/112
f 109/109/109 71/71/71 128/128/128
f 95/95/95 94/94/94 113/113/113
f 49/49/49 47/47/47 129/129/129
f 115/115/115 89/89/89 121/121/121
f 104/104/104 51/51/51 129/129/129
f 126/126/126 14/14/14 123/123/123
