v -1.593648 3.538630 -3.645438
v -1.593648 3.530171 -3.645437
v -1.593648 3.530171 -5.178236
v -1.593648 3.538630 -3.209751
v -1.593648 3.530171 -3.209751
v -1.593648 3.538630 -5.178236
v -1.596328 3.548630 -5.178236
v -1.596328 3.548630 -3.645438
v -1.603648 3.555951 -5.178236
v -1.603648 3.555951 -3.645438
v -1.596328 3.548630 -3.209751
v -1.603648 3.555951 -3.209751
v -1.603648 3.512850 -3.645437
v -1.596328 3.520171 -3.645437
v -1.596328 3.520171 -3.209751
v -1.603648 3.512850 -5.178236
v -1.596328 3.520171 -5.178236
v -1.593648 3.538630 -3.209751
v -1.593648 3.538630 1.043221
v -1.593648 3.530171 1.043221
v -1.593648 3.530171 -3.209751
v -1.596328 3.520171 1.043221
v -1.596328 3.520171 -3.209751
v -1.603648 3.512850 1.043221
v -1.603648 3.555951 -3.209751
v -1.603648 3.555951 1.043221
v -1.596328 3.548630 1.043221
v -1.596328 3.548630 -3.209751
v -1.603648 3.512850 -3.209751
v -1.603648 3.512850 -3.209751
vn 0.991400 0.130500 0.000000
vn 0.991400 -0.130500 0.000000
vn 0.991400 -0.130500 0.000000
vn 0.991400 0.130500 0.000000
vn 0.991400 -0.130500 0.000000
vn 0.991400 0.130500 0.000000
vn 0.866000 0.500000 0.000000
vn 0.866000 0.500000 0.000000
vn 0.707100 0.707100 0.000000
vn 0.707100 0.707100 0.000000
vn 0.866000 0.500000 0.000000
vn 0.707100 0.707100 0.000000
vn 0.707100 -0.707100 0.000000
vn 0.866000 -0.500000 0.000000
vn 0.866000 -0.500000 0.000000
vn 0.707100 -0.707100 0.000000
vn 0.866000 -0.500000 0.000000
vn 0.991400 0.130500 0.000000
vn 0.991400 0.130500 0.000000
vn 0.991400 -0.130500 0.000000
vn 0.991400 -0.130500 0.000000
vn 0.866000 -0.500000 0.000000
vn 0.866000 -0.500000 0.000000
vn 0.707100 -0.707100 0.000000
vn 0.707100 0.707100 0.000000
vn 0.707100 0.707100 0.000000
vn 0.866000 0.500000 0.000000
vn 0.866000 0.500000 0.000000
vn 0.707100 -0.707100 0.000000
vn 0.707100 -0.707100 0.000000
vt 0.826766 0.634550
vt 0.817314 0.634922
vt 0.785246 0.083653
vt 0.851588 0.963953
vt 0.843413 0.964321
vt 0.797503 0.083321
vt 0.809777 0.082880
vt 0.837697 0.634116
vt 0.822052 0.082437
vt 0.848627 0.633722
vt 0.861595 0.963503
vt 0.871581 0.963050
vt 0.795458 0.636044
vt 0.806385 0.635464
vt 0.833425 0.964748
vt 0.760715 0.084531
vt 0.772994 0.084093
vt 0.763047 0.941964
vt 0.763048 0.058880
vt 0.743338 0.059013
vt 0.743338 0.942097
vt 0.723629 0.059145
vt 0.723629 0.942229
vt 0.703920 0.059276
vt 0.802466 0.941700
vt 0.802466 0.058616
vt 0.782757 0.058748
vt 0.782757 0.941832
vt 0.823439 0.965170
vt 0.703919 0.942360
f 1/1/1 2/2/2 3/3/3
f 4/4/4 5/5/5 2/2/2
f 6/6/6 7/7/7 8/8/8
f 7/7/7 9/9/9 10/10/10
f 1/1/1 8/8/8 11/11/11
f 8/8/8 10/10/10 12/12/12
f 13/13/13 14/14/14 15/15/15
f 14/14/14 2/2/2 5/5/5
f 16/16/16 17/17/17 14/14/14
f 17/17/17 3/3/3 2/2/2
f 18/18/18 19/19/19 20/20/20
f 21/21/21 20/20/20 22/22/22
f 23/23/23 22/22/22 24/24/24
f 25/25/25 26/26/26 27/27/27
f 28/28/28 27/27/27 19/19/19
f 6/6/6 1/1/1 3/3/3
f 1/1/1 4/4/4 2/2/2
f 1/1/1 6/6/6 8/8/8
f 8/8/8 7/7/7 10/10/10
f 4/4/4 1/1/1 11/11/11
f 11/11/11 8/8/8 12/12/12
f 29/29/29 13/13/13 15/15/15
f 15/15/15 14/14/14 5/5/5
f 13/13/13 16/16/16 14/14/14
f 14/14/14 17/17/17 2/2/2
f 21/21/21 18/18/18 20/20/20
f 23/23/23 21/21/21 22/22/22
f 30/30/30 23/23/23 24/24/24
f 28/28/28 25/25/25 27/27/27
f 18/18/18 28/28/28 19/19/19
