v 0.556059 2.330446 -3.202463
v 0.556636 2.330446 -3.208323
v 0.556639 2.333123 -3.208323
v 0.543287 2.330446 -3.183350
v 0.543289 2.333123 -3.183347
v 0.538096 2.333123 -3.180571
v 0.501627 2.330446 -3.191636
v 0.501624 2.333123 -3.191634
v 0.498848 2.333123 -3.196828
v 0.547839 2.330446 -3.229561
v 0.547841 2.333123 -3.229563
v 0.551577 2.333123 -3.225012
v 0.551574 2.330446 -3.191636
v 0.551577 2.333123 -3.191634
v 0.547841 2.333123 -3.187083
v 0.554349 2.330446 -3.219817
v 0.554353 2.333123 -3.219818
v 0.556062 2.333123 -3.214183
v 0.505362 2.330446 -3.229561
v 0.501627 2.330446 -3.225010
v 0.501624 2.333123 -3.225012
v 0.497142 2.330446 -3.202463
v 0.497139 2.333123 -3.202463
v 0.496562 2.333123 -3.208323
v 0.505360 2.333123 -3.229563
v 0.509912 2.333123 -3.233299
v 0.509914 2.330446 -3.233296
v 0.515105 2.333123 -3.236075
v 0.543287 2.330446 -3.233296
v 0.538094 2.330446 -3.236072
v 0.538096 2.333123 -3.236075
v 0.554349 2.330446 -3.196829
v 0.554353 2.333123 -3.196828
v 0.509914 2.330446 -3.183350
v 0.515106 2.330446 -3.180574
v 0.515105 2.333123 -3.180571
v 0.543289 2.333123 -3.233299
v 0.505362 2.330446 -3.187085
v 0.509912 2.333123 -3.183347
v 0.538094 2.330446 -3.180574
v 0.532461 2.333123 -3.178861
v 0.556062 2.333123 -3.202463
v 0.505360 2.333123 -3.187083
v 0.498852 2.330446 -3.219817
v 0.498848 2.333123 -3.219818
v 0.532460 2.330446 -3.237781
v 0.532461 2.333123 -3.237784
v 0.496565 2.330446 -3.208323
v 0.497139 2.333123 -3.214183
v 0.551574 2.330446 -3.225010
v 0.520741 2.330446 -3.237781
v 0.515106 2.330446 -3.236072
v 0.526600 2.330446 -3.178288
v 0.532460 2.330446 -3.178865
v 0.520741 2.330446 -3.178865
v 0.526600 2.333123 -3.178284
v 0.498852 2.330446 -3.196829
v 0.520740 2.333123 -3.178862
v 0.526600 2.330446 -3.238358
v 0.520740 2.333123 -3.237784
v 0.497142 2.330446 -3.214183
v 0.547839 2.330446 -3.187085
v 0.526600 2.330446 -3.238358
v 0.526600 2.333123 -3.238362
v 0.556059 2.330446 -3.214183
v 0.526600 2.333123 -3.238362
vn 0.980800 -0.001300 0.195100
vn 1.000000 -0.001300 0.000000
vn 1.000000 -0.001300 0.000000
vn 0.555600 -0.001300 0.831400
vn 0.555600 -0.001300 0.831400
vn 0.382700 -0.001300 0.923900
vn -0.831400 -0.001300 0.555500
vn -0.831400 -0.001300 0.555600
vn -0.923900 -0.001300 0.382700
vn 0.707100 -0.001300 -0.707100
vn 0.707100 -0.001200 -0.707100
vn 0.831500 -0.001300 -0.555500
vn 0.831400 -0.001300 0.555600
vn 0.831400 -0.001300 0.555600
vn 0.707100 -0.001300 0.707100
vn 0.923900 -0.001300 -0.382700
vn 0.923900 -0.001300 -0.382700
vn 0.980800 -0.001300 -0.195100
vn -0.707100 -0.001300 -0.707100
vn -0.831500 -0.001300 -0.555500
vn -0.831500 -0.001300 -0.555500
vn -0.980800 -0.001300 0.195100
vn -0.980800 -0.001300 0.195100
vn -1.000000 -0.001300 0.000000
vn -0.707100 -0.001200 -0.707100
vn -0.555600 -0.001300 -0.831400
vn -0.555600 -0.001300 -0.831400
vn -0.382600 -0.001300 -0.923900
vn 0.555600 -0.001300 -0.831400
vn 0.382600 -0.001300 -0.923900
vn 0.382600 -0.001300 -0.923900
vn 0.923900 -0.001300 0.382700
vn 0.923900 -0.001300 0.382700
vn -0.555500 -0.001300 0.831500
vn -0.382700 -0.001300 0.923900
vn -0.382700 -0.001300 0.923900
vn 0.555600 -0.001300 -0.831400
vn -0.707100 -0.001300 0.707100
vn -0.555600 -0.001300 0.831400
vn 0.382700 -0.001300 0.923900
vn 0.195000 -0.001300 0.980800
vn 0.980800 -0.001300 0.195100
vn -0.707100 -0.001200 0.707100
vn -0.923900 -0.001300 -0.382700
vn -0.923900 -0.001300 -0.382700
vn 0.195100 -0.001300 -0.980800
vn 0.195100 -0.001300 -0.980800
vn -1.000000 -0.001300 0.000000
vn -0.980800 -0.001300 -0.195100
vn 0.831400 -0.001300 -0.555600
vn -0.195100 -0.001300 -0.980800
vn -0.382600 -0.001300 -0.923900
vn 0.000000 -0.001200 1.000000
vn 0.195000 -0.001300 0.980800
vn -0.195100 -0.001200 0.980800
vn 0.000000 -0.001200 1.000000
vn -0.923900 -0.001300 0.382700
vn -0.195100 -0.001200 0.980800
vn 0.000000 -0.001300 -1.000000
vn -0.195100 -0.001300 -0.980800
vn -0.980800 -0.001300 -0.195100
vn 0.707100 -0.001300 0.707100
vn 0.000000 -0.001300 -1.000000
vn 0.000000 -0.001200 -1.000000
vn 0.980800 -0.001200 -0.195100
vn 0.000000 -0.001200 -1.000000
vt 0.531499 0.623285
vt 0.552515 0.622967
vt 0.554463 0.623701
vt 0.453665 0.624321
vt 0.454389 0.625055
vt 0.435487 0.625205
vt 0.304300 0.623872
vt 0.303087 0.624606
vt 0.283240 0.624324
vt 0.651927 0.621816
vt 0.654462 0.622549
vt 0.626333 0.622796
vt 0.491699 0.623872
vt 0.492912 0.624606
vt 0.473497 0.624852
vt 0.598247 0.622344
vt 0.600624 0.623078
vt 0.576816 0.623383
vt 0.144072 0.621816
vt 0.172180 0.622062
vt 0.169666 0.622796
vt 0.264500 0.623285
vt 0.262795 0.624019
vt 0.241536 0.623701
vt 0.141538 0.622549
vt 0.110486 0.622347
vt 0.112841 0.621613
vt 0.076226 0.622196
vt 0.683158 0.621613
vt 0.717894 0.621463
vt 0.719773 0.622196
vt 0.511300 0.623590
vt 0.512759 0.624324
vt 0.342334 0.624321
vt 0.360994 0.624471
vt 0.360512 0.625205
vt 0.685513 0.622347
vt 0.323469 0.624118
vt 0.341610 0.625055
vt 0.435005 0.624471
vt 0.416713 0.625298
vt 0.533204 0.624019
vt 0.322502 0.624852
vt 0.197752 0.622344
vt 0.195375 0.623078
vt 0.755912 0.621370
vt 0.756975 0.622104
vt 0.243484 0.622967
vt 0.219183 0.623383
vt 0.623819 0.622062
vt 0.040087 0.621370
vt 0.078105 0.621463
vt 0.397999 0.624595
vt 0.416472 0.624564
vt 0.379527 0.624564
vt 0.397999 0.625329
vt 0.284699 0.623590
vt 0.379286 0.625298
vt 0.000000 0.621339
vt 0.039025 0.622104
vt 0.221360 0.622649
vt 0.472530 0.624118
vt 0.795999 0.621339
vt 0.795999 0.622072
vt 0.574639 0.622649
vt 0.000000 0.622072
f 1/1/1 2/2/2 3/3/3
f 4/4/4 5/5/5 6/6/6
f 7/7/7 8/8/8 9/9/9
f 10/10/10 11/11/11 12/12/12
f 13/13/13 14/14/14 15/15/15
f 16/16/16 17/17/17 18/18/18
f 19/19/19 20/20/20 21/21/21
f 22/22/22 23/23/23 24/24/24
f 19/19/19 25/25/25 26/26/26
f 27/27/27 26/26/26 28/28/28
f 29/29/29 30/30/30 31/31/31
f 32/32/32 33/33/33 14/14/14
f 34/34/34 35/35/35 36/36/36
f 10/10/10 29/29/29 37/37/37
f 38/38/38 34/34/34 39/39/39
f 40/40/40 6/6/6 41/41/41
f 1/1/1 42/42/42 33/33/33
f 38/38/38 43/43/43 8/8/8
f 20/20/20 44/44/44 45/45/45
f 46/46/46 47/47/47 31/31/31
f 48/48/48 24/24/24 49/49/49
f 50/50/50 12/12/12 17/17/17
f 51/51/51 52/52/52 28/28/28
f 53/53/53 54/54/54 41/41/41
f 55/55/55 53/53/53 56/56/56
f 22/22/22 57/57/57 9/9/9
f 35/35/35 55/55/55 58/58/58
f 59/59/59 51/51/51 60/60/60
f 61/61/61 49/49/49 45/45/45
f 62/62/62 15/15/15 5/5/5
f 63/63/63 64/64/64 47/47/47
f 2/2/2 65/65/65 18/18/18
f 42/42/42 1/1/1 3/3/3
f 40/40/40 4/4/4 6/6/6
f 57/57/57 7/7/7 9/9/9
f 50/50/50 10/10/10 12/12/12
f 62/62/62 13/13/13 15/15/15
f 65/65/65 16/16/16 18/18/18
f 25/25/25 19/19/19 21/21/21
f 48/48/48 22/22/22 24/24/24
f 27/27/27 19/19/19 26/26/26
f 52/52/52 27/27/27 28/28/28
f 37/37/37 29/29/29 31/31/31
f 13/13/13 32/32/32 14/14/14
f 39/39/39 34/34/34 36/36/36
f 11/11/11 10/10/10 37/37/37
f 43/43/43 38/38/38 39/39/39
f 54/54/54 40/40/40 41/41/41
f 32/32/32 1/1/1 33/33/33
f 7/7/7 38/38/38 8/8/8
f 21/21/21 20/20/20 45/45/45
f 30/30/30 46/46/46 31/31/31
f 61/61/61 48/48/48 49/49/49
f 16/16/16 50/50/50 17/17/17
f 60/60/60 51/51/51 28/28/28
f 56/56/56 53/53/53 41/41/41
f 58/58/58 55/55/55 56/56/56
f 23/23/23 22/22/22 9/9/9
f 36/36/36 35/35/35 58/58/58
f 66/66/66 59/59/59 60/60/60
f 44/44/44 61/61/61 45/45/45
f 4/4/4 62/62/62 5/5/5
f 46/46/46 63/63/63 47/47/47
f 3/3/3 2/2/2 18/18/18
