v 0.536979 1.607682 -1.411979
v 0.537236 1.613144 -1.410686
v 0.527397 1.613144 -1.409717
v 0.517816 1.607682 -1.411979
v 0.527397 1.607682 -1.411035
v 0.482021 1.607682 -1.441355
v 0.480804 1.613144 -1.440850
v 0.477934 1.613144 -1.450311
v 0.508602 1.607682 -1.414774
v 0.517816 1.607682 -1.411979
v 0.517558 1.613144 -1.410686
v 0.527397 1.607682 -1.509265
v 0.517816 1.607682 -1.508321
v 0.517558 1.613144 -1.509614
v 0.479226 1.607682 -1.469732
v 0.477934 1.613144 -1.469989
v 0.480803 1.613144 -1.479450
v 0.562127 1.607682 -1.425421
v 0.563059 1.613144 -1.424489
v 0.555416 1.613144 -1.418217
v 0.536979 1.607682 -1.508321
v 0.527397 1.613144 -1.510583
v 0.575568 1.607682 -1.469732
v 0.576861 1.613144 -1.469989
v 0.577830 1.613144 -1.460150
v 0.575568 1.607682 -1.450568
v 0.576512 1.607682 -1.460150
v 0.546193 1.607682 -1.414774
v 0.554684 1.607682 -1.419313
v 0.486560 1.607682 -1.432863
v 0.485464 1.613144 -1.432131
v 0.568235 1.607682 -1.487437
v 0.562127 1.607682 -1.494879
v 0.563059 1.613144 -1.495811
v 0.568235 1.607682 -1.432863
v 0.569331 1.613144 -1.432131
v 0.572774 1.607682 -1.478945
v 0.573991 1.613144 -1.479450
v 0.486560 1.607682 -1.487437
v 0.485464 1.613144 -1.488169
v 0.491736 1.613144 -1.495811
v 0.479226 1.607682 -1.450568
v 0.476964 1.613144 -1.460150
v 0.500111 1.607682 -1.500988
v 0.492668 1.607682 -1.494879
v 0.508602 1.607682 -1.505526
v 0.499378 1.613144 -1.502084
v 0.546193 1.607682 -1.505526
v 0.546697 1.613144 -1.506744
v 0.555416 1.613144 -1.502083
v 0.572774 1.607682 -1.441355
v 0.573991 1.613144 -1.440850
v 0.500111 1.607682 -1.419313
v 0.508098 1.613144 -1.413556
v 0.554684 1.607682 -1.500988
v 0.499378 1.613144 -1.418217
v 0.491736 1.613144 -1.424489
v 0.546697 1.613144 -1.413556
v 0.576861 1.613144 -1.450311
v 0.492668 1.607682 -1.425421
v 0.482021 1.607682 -1.478945
v 0.537236 1.613144 -1.509614
v 0.478283 1.607682 -1.460150
v 0.569331 1.613144 -1.488169
v 0.517816 1.607682 -1.508321
v 0.508098 1.613144 -1.506744
v 0.517558 1.613144 -1.410686
v 0.517558 1.613144 -1.509614
v 0.451616 1.698068 -1.535931
v 0.458068 1.692907 -1.535931
v 0.451616 1.698068 -1.535931
v 0.603179 1.698068 -1.535931
v 0.603179 1.698068 -1.535931
vn 0.189600 -0.234600 0.953400
vn 0.189600 -0.234600 0.953400
vn 0.000000 -0.234600 0.972100
vn -0.189600 -0.234600 0.953400
vn 0.000000 -0.234600 0.972100
vn -0.898100 -0.234600 0.372000
vn -0.898100 -0.234600 0.372000
vn -0.953400 -0.234600 0.189600
vn -0.372000 -0.234600 0.898100
vn -0.189600 -0.234600 0.953400
vn -0.189600 -0.234600 0.953400
vn 0.000000 -0.234600 -0.972100
vn -0.189600 -0.234600 -0.953400
vn -0.189600 -0.234600 -0.953400
vn -0.953400 -0.234600 -0.189600
vn -0.953400 -0.234600 -0.189600
vn -0.898100 -0.234600 -0.372000
vn 0.687400 -0.234600 0.687400
vn 0.687400 -0.234600 0.687400
vn 0.540100 -0.234600 0.808300
vn 0.189600 -0.234600 -0.953400
vn 0.000000 -0.234600 -0.972100
vn 0.953400 -0.234600 -0.189600
vn 0.953400 -0.234600 -0.189600
vn 0.972100 -0.234600 0.000000
vn 0.953400 -0.234600 0.189600
vn 0.972100 -0.234600 0.000000
vn 0.372000 -0.234600 0.898100
vn 0.540100 -0.234600 0.808300
vn -0.808300 -0.234600 0.540100
vn -0.808300 -0.234600 0.540100
vn 0.808300 -0.234600 -0.540100
vn 0.687300 -0.234600 -0.687400
vn 0.687400 -0.234600 -0.687400
vn 0.808300 -0.234600 0.540100
vn 0.808300 -0.234600 0.540100
vn 0.898100 -0.234600 -0.372000
vn 0.898100 -0.234600 -0.372000
vn -0.808300 -0.234600 -0.540100
vn -0.808300 -0.234600 -0.540000
vn -0.687400 -0.234600 -0.687400
vn -0.953400 -0.234600 0.189600
vn -0.972100 -0.234600 0.000000
vn -0.540100 -0.234600 -0.808300
vn -0.687300 -0.234600 -0.687400
vn -0.372000 -0.234600 -0.898100
vn -0.540100 -0.234600 -0.808300
vn 0.372000 -0.234600 -0.898100
vn 0.372000 -0.234600 -0.898100
vn 0.540100 -0.234600 -0.808300
vn 0.898100 -0.234600 0.372000
vn 0.898100 -0.234600 0.372000
vn -0.540100 -0.234600 0.808300
vn -0.372000 -0.234600 0.898100
vn 0.540100 -0.234600 -0.808300
vn -0.540100 -0.234600 0.808300
vn -0.687400 -0.234600 0.687400
vn 0.372000 -0.234600 0.898100
vn 0.953400 -0.234600 0.189600
vn -0.687400 -0.234600 0.687400
vn -0.898100 -0.234600 -0.372000
vn 0.189600 -0.234600 -0.953400
vn -0.972100 -0.234600 0.000000
vn 0.808300 -0.234600 -0.540000
vn -0.189600 -0.234600 -0.953400
vn -0.372000 -0.234600 -0.898100
vn -0.189600 -0.234600 0.953400
vn -0.189600 -0.234600 -0.953400
vn 0.000000 1.000000 0.000000
vn 0.000000 1.000000 0.000000
vn 0.000000 1.000000 0.000000
vn 0.000000 1.000000 0.000000
vn 0.000000 1.000000 0.000000
vt 0.700764 0.771527
vt 0.700453 0.774207
vt 0.711545 0.774297
vt 0.722326 0.771527
vt 0.711545 0.771615
vt 0.038259 0.768804
vt 0.039049 0.771411
vt 0.038714 0.770534
vt 0.020423 0.771268
vt 0.010781 0.771527
vt 0.011091 0.774207
vt 0.711545 0.762509
vt 0.717109 0.762596
vt 0.717191 0.765036
vt 0.033713 0.766174
vt 0.034294 0.768710
vt 0.030708 0.767833
vt 0.677927 0.770281
vt 0.677120 0.772927
vt 0.682677 0.773509
vt 0.705980 0.762596
vt 0.711545 0.764946
vt 0.677831 0.766174
vt 0.677250 0.768710
vt 0.674506 0.769622
vt 0.673564 0.767950
vt 0.675167 0.767062
vt 0.691122 0.771268
vt 0.683404 0.770847
vt 0.036908 0.769591
vt 0.037728 0.772219
vt 0.685492 0.764532
vt 0.690154 0.763842
vt 0.689824 0.766316
vt 0.674637 0.769591
vt 0.673816 0.772219
vt 0.681334 0.765320
vt 0.680836 0.767833
vt 0.026053 0.764532
vt 0.026466 0.767024
vt 0.021720 0.766316
vt 0.037981 0.767950
vt 0.037038 0.769622
vt 0.016352 0.763276
vt 0.021391 0.763842
vt 0.011044 0.762855
vt 0.016598 0.765734
vt 0.700500 0.762855
vt 0.700337 0.765302
vt 0.694947 0.765734
vt 0.673286 0.768804
vt 0.672496 0.771411
vt 0.028140 0.770847
vt 0.020986 0.773941
vt 0.695193 0.763276
vt 0.028868 0.773509
vt 0.034425 0.772927
vt 0.690559 0.773941
vt 0.672831 0.770534
vt 0.033618 0.770281
vt 0.030211 0.765320
vt 0.705899 0.765036
vt 0.036378 0.767062
vt 0.685078 0.767024
vt 0.005564 0.762596
vt 0.011208 0.765302
vt 0.722636 0.774207
vt 0.005646 0.765036
vt 0.000000 0.000000
vt 0.000000 0.000000
vt 0.000000 0.000000
vt 0.000000 0.000000
vt 0.000000 0.000000
f 1/1/1 2/2/2 3/3/3
f 4/4/4 5/5/5 3/3/3
f 6/6/6 7/7/7 8/8/8
f 9/9/9 10/10/10 11/11/11
f 12/12/12 13/13/13 14/14/14
f 15/15/15 16/16/16 17/17/17
f 18/18/18 19/19/19 20/20/20
f 21/21/21 12/12/12 22/22/22
f 23/23/23 24/24/24 25/25/25
f 26/26/26 27/27/27 25/25/25
f 28/28/28 29/29/29 20/20/20
f 6/6/6 30/30/30 31/31/31
f 32/32/32 33/33/33 34/34/34
f 18/18/18 35/35/35 36/36/36
f 23/23/23 37/37/37 38/38/38
f 39/39/39 40/40/40 41/41/41
f 42/42/42 8/8/8 43/43/43
f 44/44/44 45/45/45 41/41/41
f 46/46/46 44/44/44 47/47/47
f 48/48/48 49/49/49 50/50/50
f 51/51/51 52/52/52 36/36/36
f 53/53/53 9/9/9 54/54/54
f 33/33/33 55/55/55 50/50/50
f 53/53/53 56/56/56 57/57/57
f 28/28/28 58/58/58 2/2/2
f 26/26/26 59/59/59 52/52/52
f 60/60/60 57/57/57 31/31/31
f 39/39/39 61/61/61 17/17/17
f 48/48/48 21/21/21 62/62/62
f 63/63/63 43/43/43 16/16/16
f 32/32/32 64/64/64 38/38/38
f 65/65/65 46/46/46 66/66/66
f 5/5/5 1/1/1 3/3/3
f 67/67/67 4/4/4 3/3/3
f 42/42/42 6/6/6 8/8/8
f 54/54/54 9/9/9 11/11/11
f 22/22/22 12/12/12 14/14/14
f 61/61/61 15/15/15 17/17/17
f 29/29/29 18/18/18 20/20/20
f 62/62/62 21/21/21 22/22/22
f 27/27/27 23/23/23 25/25/25
f 59/59/59 26/26/26 25/25/25
f 58/58/58 28/28/28 20/20/20
f 7/7/7 6/6/6 31/31/31
f 64/64/64 32/32/32 34/34/34
f 19/19/19 18/18/18 36/36/36
f 24/24/24 23/23/23 38/38/38
f 45/45/45 39/39/39 41/41/41
f 63/63/63 42/42/42 43/43/43
f 47/47/47 44/44/44 41/41/41
f 66/66/66 46/46/46 47/47/47
f 55/55/55 48/48/48 50/50/50
f 35/35/35 51/51/51 36/36/36
f 56/56/56 53/53/53 54/54/54
f 34/34/34 33/33/33 50/50/50
f 60/60/60 53/53/53 57/57/57
f 1/1/1 28/28/28 2/2/2
f 51/51/51 26/26/26 52/52/52
f 30/30/30 60/60/60 31/31/31
f 40/40/40 39/39/39 17/17/17
f 49/49/49 48/48/48 62/62/62
f 15/15/15 63/63/63 16/16/16
f 37/37/37 32/32/32 38/38/38
f 68/68/68 65/65/65 66/66/66
