v -0.478946 3.746450 -2.054882
v -0.474285 3.746450 -2.031447
v -0.475853 3.744818 -2.031447
v -0.478946 3.746450 -2.008012
v -0.480395 3.744818 -2.008613
v -0.492221 3.746450 -1.988145
v -0.493330 3.744818 -1.989254
v -0.512088 3.746450 -1.974870
v -0.535523 3.746450 -1.970209
v -0.535523 3.744818 -1.971777
v -0.558958 3.746450 -1.974870
v -0.578825 3.746450 -1.988145
v -0.577716 3.744818 -1.989254
v -0.592100 3.746450 -2.008012
v -0.590651 3.744818 -2.008612
v -0.596761 3.746450 -2.031447
v -0.595193 3.744818 -2.031447
v -0.592100 3.746450 -2.054882
v -0.578825 3.746450 -2.074749
v -0.577716 3.744818 -2.073640
v -0.558958 3.746450 -2.088024
v -0.558358 3.744818 -2.086575
v -0.535523 3.746450 -2.092685
v -0.535523 3.744818 -2.091117
v -0.512088 3.746450 -2.088024
v -0.492221 3.746450 -2.074749
v -0.493330 3.744818 -2.073640
v -0.480395 3.744818 -2.054282
v -0.512688 3.744818 -1.976320
v -0.558358 3.744818 -1.976319
v -0.590651 3.744818 -2.054282
v -0.512689 3.744818 -2.086575
vn 0.666000 -0.693000 -0.275900
vn 0.720900 -0.693000 0.000000
vn 0.720900 -0.693000 0.000000
vn 0.666000 -0.693000 0.275900
vn 0.666000 -0.693000 0.275900
vn 0.509800 -0.693000 0.509800
vn 0.509800 -0.693000 0.509800
vn 0.275900 -0.693000 0.666000
vn 0.000000 -0.693000 0.720900
vn 0.000000 -0.693000 0.720900
vn -0.275900 -0.693000 0.666000
vn -0.509700 -0.693000 0.509800
vn -0.509700 -0.693000 0.509800
vn -0.666000 -0.693000 0.275800
vn -0.666000 -0.693000 0.275800
vn -0.720900 -0.693000 0.000000
vn -0.720900 -0.693000 0.000000
vn -0.666000 -0.693000 -0.275900
vn -0.509800 -0.693100 -0.509700
vn -0.509800 -0.693100 -0.509600
vn -0.275900 -0.692900 -0.666200
vn -0.275900 -0.692900 -0.666200
vn 0.000000 -0.693000 -0.720900
vn 0.000000 -0.693000 -0.720900
vn 0.275900 -0.693000 -0.666000
vn 0.509700 -0.693000 -0.509800
vn 0.509700 -0.693000 -0.509800
vn 0.666000 -0.693000 -0.275900
vn 0.275900 -0.693000 0.666000
vn -0.275900 -0.693000 0.666000
vn -0.666000 -0.693000 -0.275900
vn 0.275900 -0.693100 -0.666000
vt 0.000000 0.000000
vt 0.000000 0.000000
vt 0.000000 0.000000
vt 0.000000 0.000000
vt 0.000000 0.000000
vt 0.000000 0.000000
vt 0.000000 0.000000
vt 0.000000 0.000000
vt 0.000000 0.000000
vt 0.000000 0.000000
vt 0.000000 0.000000
vt 0.000000 0.000000
vt 0.000000 0.000000
vt 0.000000 0.000000
vt 0.000000 0.000000
vt 0.000000 0.000000
vt 0.000000 0.000000
vt 0.000000 0.000000
vt 0.000000 0.000000
vt 0.000000 0.000000
vt 0.000000 0.000000
vt 0.000000 0.000000
vt 0.000000 0.000000
vt 0.000000 0.000000
vt 0.000000 0.000000
vt 0.000000 0.000000
vt 0.000000 0.000000
vt 0.000000 0.000000
vt 0.000000 0.000000
vt 0.000000 0.000000
vt 0.000000 0.000000
vt 0.000000 0.000000
f 1/1/1 2/2/2 3/3/3
f 2/2/2 4/4/4 5/5/5
f 4/4/4 6/6/6 7/7/7
f 7/7/7 6/6/6 8/8/8
f 8/8/8 9/9/9 10/10/10
f 10/10/10 9/9/9 11/11/11
f 11/11/11 12/12/12 13/13/13
f 13/13/13 12/12/12 14/14/14
f 15/15/15 14/14/14 16/16/16
f 17/17/17 16/16/16 18/18/18
f 18/18/18 19/19/19 20/20/20
f 19/19/19 21/21/21 22/22/22
f 21/21/21 23/23/23 24/24/24
f 24/24/24 23/23/23 25/25/25
f 25/25/25 26/26/26 27/27/27
f 26/26/26 1/1/1 28/28/28
f 28/28/28 1/1/1 3/3/3
f 3/3/3 2/2/2 5/5/5
f 5/5/5 4/4/4 7/7/7
f 29/29/29 7/7/7 8/8/8
f 29/29/29 8/8/8 10/10/10
f 30/30/30 10/10/10 11/11/11
f 30/30/30 11/11/11 13/13/13
f 15/15/15 13/13/13 14/14/14
f 17/17/17 15/15/15 16/16/16
f 31/31/31 17/17/17 18/18/18
f 31/31/31 18/18/18 20/20/20
f 20/20/20 19/19/19 22/22/22
f 22/22/22 21/21/21 24/24/24
f 32/32/32 24/24/24 25/25/25
f 32/32/32 25/25/25 27/27/27
f 27/27/27 26/26/26 28/28/28
