v 0.491841 0.560142 -1.429949
v 0.491841 0.560142 -1.936047
v 0.526841 0.560142 -1.901047
v 2.495326 0.560142 -1.429949
v 0.491841 0.560142 -1.429949
v 0.526841 0.560142 -1.464949
v 0.526841 0.560142 -1.901047
v 0.491841 0.560142 -1.936047
v 0.526841 0.560142 -1.936047
v 0.479341 0.563492 -1.948547
v 0.526841 0.563492 -1.948547
v 0.470190 0.572642 -1.957697
v 0.526841 0.572642 -1.957697
v 2.495326 0.572642 -1.408298
v 0.470190 0.572642 -1.408298
v 0.479341 0.563492 -1.417449
v 2.495326 0.563492 -1.417449
v 0.470190 0.572642 -1.957697
v 0.479341 0.563492 -1.948547
v 0.479341 0.563492 -1.417449
v 0.526841 0.560142 -1.464949
v 2.495326 0.560142 -1.464949
v 0.526841 0.560142 -1.901047
v 0.470190 0.572642 -1.408298
vn -0.098400 -0.990200 0.098400
vn -0.098400 -0.990200 -0.098400
vn 0.000000 -0.894400 0.447200
vn 0.000000 -0.991400 0.130500
vn -0.098400 -0.990200 0.098400
vn 0.000000 -1.000000 0.000000
vn 0.000000 -0.894400 0.447200
vn -0.098400 -0.990200 -0.098400
vn 0.000000 -0.991500 -0.130400
vn -0.333200 -0.882000 -0.333200
vn 0.000000 -0.866000 -0.500000
vn 0.000000 -0.707100 -0.707100
vn 0.000000 -0.707100 -0.707100
vn 0.000000 -0.707100 0.707100
vn 0.000000 -0.707100 0.707100
vn -0.333200 -0.882000 0.333200
vn 0.000000 -0.866000 0.500000
vn -0.707100 -0.707100 0.000000
vn -0.333200 -0.882000 -0.333200
vn -0.333200 -0.882000 0.333200
vn 0.000000 -1.000000 0.000000
vn 0.000000 -1.000000 0.000000
vn 0.000000 0.000000 1.000000
vn -0.707100 -0.707100 0.000000
vt 0.699779 0.771911
vt 0.699782 0.254516
vt 0.762556 0.290297
vt 0.491312 0.948107
vt 0.491475 0.076964
vt 0.510880 0.092616
vt 0.238286 0.564666
vt 0.335757 0.488446
vt 0.335757 0.564666
vt 0.371797 0.461225
vt 0.371797 0.564666
vt 0.407837 0.441298
vt 0.407837 0.564666
vt 0.452423 0.946906
vt 0.452585 0.066456
vt 0.472090 0.070991
vt 0.471928 0.947509
vt 0.653362 0.232381
vt 0.676572 0.241737
vt 0.676571 0.784689
vt 0.762554 0.736130
vt 0.510724 0.948538
vt 0.238301 0.565996
vt 0.653361 0.794044
f 1/1/1 2/2/2 3/3/3
f 4/4/4 5/5/5 6/6/6
f 7/7/7 8/8/8 9/9/9
f 8/8/8 10/10/10 11/11/11
f 10/10/10 12/12/12 13/13/13
f 14/14/14 15/15/15 16/16/16
f 17/17/17 16/16/16 5/5/5
f 18/18/18 19/19/19 20/20/20
f 19/19/19 2/2/2 1/1/1
f 21/21/21 1/1/1 3/3/3
f 22/22/22 4/4/4 6/6/6
f 23/23/23 7/7/7 9/9/9
f 9/9/9 8/8/8 11/11/11
f 11/11/11 10/10/10 13/13/13
f 17/17/17 14/14/14 16/16/16
f 4/4/4 17/17/17 5/5/5
f 24/24/24 18/18/18 20/20/20
f 20/20/20 19/19/19 1/1/1
