v 0.594404 2.802082 -3.134210
v 0.600713 2.807128 -3.134210
v 0.600713 2.999409 -3.134210
v 0.576121 2.792557 -3.134210
v 0.594404 3.004456 -3.134210
v 0.557299 2.786737 -3.134210
v 0.568900 2.789762 -3.134210
v 0.568900 3.016776 -3.134210
v 0.484301 2.789762 -3.134210
v 0.495902 2.786737 -3.134210
v 0.495902 3.019801 -3.134210
v 0.484301 3.016776 -3.134210
v 0.477080 3.013981 -3.134210
v 0.477080 2.792557 -3.134210
v 0.511858 2.784175 -3.134210
v 0.526600 2.783376 -3.134210
v 0.526600 3.023162 -3.134210
v 0.458797 3.004456 -3.134210
v 0.458797 2.802082 -3.134210
v 0.541342 2.784175 -3.134210
v 0.541342 3.022362 -3.134210
v 0.557299 3.019801 -3.134210
v 0.511858 2.784175 -3.134210
v 0.511859 3.022362 -3.134210
v 0.452488 2.999410 -3.134210
v 0.452488 2.807128 -3.134210
v 0.576121 3.013981 -3.134210
v 0.511859 3.022362 -3.134210
vn 0.000000 0.000000 1.000000
vn -0.000100 0.000000 1.000000
vn 0.000100 0.000000 1.000000
vn 0.000000 0.000000 1.000000
vn 0.000000 0.000000 1.000000
vn 0.000000 0.000000 1.000000
vn 0.000000 0.000000 1.000000
vn 0.000000 0.000000 1.000000
vn 0.000000 0.000000 1.000000
vn 0.000000 0.000000 1.000000
vn 0.000000 0.000000 1.000000
vn 0.000000 0.000000 1.000000
vn 0.000000 0.000000 1.000000
vn 0.000000 0.000000 1.000000
vn 0.000000 0.000000 1.000000
vn 0.000000 0.000000 1.000000
vn 0.000000 0.000000 1.000000
vn 0.000000 0.000000 1.000000
vn 0.000000 0.000000 1.000000
vn 0.000000 0.000000 1.000000
vn 0.000000 0.000000 1.000000
vn 0.000000 0.000000 1.000000
vn 0.000000 0.000000 1.000000
vn 0.000000 0.000000 1.000000
vn 0.000100 0.000000 1.000000
vn -0.000100 0.000000 1.000000
vn 0.000000 0.000000 1.000000
vn 0.000000 0.000000 1.000000
vt 0.611535 0.756250
vt 0.611960 0.757633
vt 0.667501 0.810334
vt 0.612188 0.753640
vt 0.673895 0.811717
vt 0.616794 0.752045
vt 0.613153 0.752874
vt 0.706384 0.815093
vt 0.182846 0.752874
vt 0.179205 0.752045
vt 0.069688 0.815922
vt 0.089615 0.815093
vt 0.100257 0.814327
vt 0.183812 0.753640
vt 0.958735 0.751342
vt 0.795999 0.751123
vt 0.795999 0.816844
vt 0.122104 0.811717
vt 0.184464 0.756250
vt 0.633263 0.751342
vt 0.760056 0.816624
vt 0.726311 0.815922
vt 0.162736 0.751342
vt 0.035943 0.816624
vt 0.128498 0.810334
vt 0.184039 0.757633
vt 0.695742 0.814327
vt 0.831942 0.816624
f 1/1/1 2/2/2 3/3/3
f 4/4/4 1/1/1 5/5/5
f 6/6/6 7/7/7 8/8/8
f 9/9/9 10/10/10 11/11/11
f 12/12/12 13/13/13 14/14/14
f 15/15/15 16/16/16 17/17/17
f 18/18/18 19/19/19 14/14/14
f 16/16/16 20/20/20 21/21/21
f 8/8/8 7/7/7 4/4/4
f 20/20/20 6/6/6 22/22/22
f 10/10/10 23/23/23 24/24/24
f 18/18/18 25/25/25 26/26/26
f 5/5/5 1/1/1 3/3/3
f 27/27/27 4/4/4 5/5/5
f 22/22/22 6/6/6 8/8/8
f 12/12/12 9/9/9 11/11/11
f 9/9/9 12/12/12 14/14/14
f 28/28/28 15/15/15 17/17/17
f 13/13/13 18/18/18 14/14/14
f 17/17/17 16/16/16 21/21/21
f 27/27/27 8/8/8 4/4/4
f 21/21/21 20/20/20 22/22/22
f 11/11/11 10/10/10 24/24/24
f 19/19/19 18/18/18 26/26/26
