v 0.796841 0.025438 -1.028851
v 2.495326 0.025438 -1.028851
v 2.495326 0.274070 -1.028851
v 0.526841 0.025438 -1.298851
v 0.532029 0.025438 -1.246177
v 0.532029 0.274070 -1.246177
v 0.547393 0.025438 -1.195527
v 0.547393 0.274070 -1.195527
v 0.572344 0.025438 -1.148847
v 0.572344 0.274070 -1.148847
v 0.605922 0.025438 -1.107932
v 0.605922 0.274070 -1.107932
v 0.646837 0.025438 -1.074354
v 0.646837 0.274070 -1.074354
v 0.693516 0.025438 -1.049404
v 0.693516 0.274070 -1.049404
v 0.744166 0.025438 -1.034039
v 0.744166 0.274070 -1.034039
v 0.796841 0.274070 -1.028851
v 0.526841 0.274070 -1.298851
v 0.526841 0.274070 -1.464949
v 0.526841 0.025438 -1.464949
v 0.526841 1.497602 -3.645437
v 0.526841 0.908736 -2.337144
v 0.526841 1.203169 -2.773242
v 0.526841 0.614304 -1.901047
v 0.526841 0.274070 -1.464949
v 0.526841 0.319871 -1.464949
v 0.526841 0.025438 -1.464949
v 0.526841 1.497602 -3.209340
v 0.526841 1.497602 -3.209751
v 0.526841 1.449142 -2.773242
v 0.526841 1.497602 -2.773242
v 0.526841 1.154710 -2.337144
v 0.526841 1.203169 -2.337144
v 0.526841 0.860277 -1.901047
v 0.526841 0.908736 -1.901047
v 0.526841 0.560142 -1.464949
v 0.526841 0.614304 -1.464949
vn -0.049000 0.000000 0.998800
vn 0.000000 0.000000 1.000000
vn 0.000000 0.000000 1.000000
vn -0.998800 0.000000 0.049000
vn -0.980800 0.000000 0.195100
vn -0.980800 0.000000 0.195100
vn -0.923900 0.000000 0.382700
vn -0.923900 0.000000 0.382700
vn -0.831400 0.000000 0.555600
vn -0.831400 0.000000 0.555600
vn -0.707100 0.000000 0.707100
vn -0.707100 0.000000 0.707100
vn -0.555600 0.000000 0.831400
vn -0.555600 0.000000 0.831400
vn -0.382700 0.000000 0.923900
vn -0.382700 0.000000 0.923900
vn -0.195100 0.000000 0.980800
vn -0.195100 0.000000 0.980800
vn -0.049000 0.000000 0.998800
vn -0.998800 0.000000 0.049000
vn -1.000000 0.000000 0.000000
vn -1.000000 0.000000 0.000000
vn -1.000000 0.000000 0.000000
vn -1.000000 0.000000 0.000000
vn -1.000000 0.000000 0.000000
vn -1.000000 0.000000 0.000000
vn -1.000000 0.000000 0.000000
vn -1.000000 0.000000 0.000000
vn -1.000000 0.000000 0.000000
vn -1.000000 0.000000 -0.000100
vn -1.000000 0.000000 0.000000
vn -1.000000 0.000000 0.000000
vn -1.000000 0.000000 0.000000
vn -1.000000 0.000000 0.000000
vn -1.000000 0.000000 0.000000
vn -1.000000 0.000000 0.000000
vn -1.000000 0.000000 0.000000
vn -1.000000 0.000000 0.000000
vn -1.000000 0.000000 0.000000
vt 0.489051 0.594565
vt 0.540331 0.046424
vt 0.829963 0.053932
vt 0.328093 0.815216
vt 0.350487 0.787696
vt 0.841384 0.826943
vt 0.372059 0.760006
vt 0.865163 0.797386
vt 0.392758 0.732191
vt 0.889002 0.767517
vt 0.412443 0.704322
vt 0.909960 0.737209
vt 0.431174 0.676490
vt 0.925062 0.706004
vt 0.449316 0.648830
vt 0.935578 0.673732
vt 0.467637 0.621577
vt 0.938113 0.640062
vt 0.931774 0.604833
vt 0.813920 0.855606
vt 0.729378 0.941668
vt 0.254709 0.901191
vt 0.962926 0.970160
vt 0.653902 0.528379
vt 0.657678 0.712453
vt 0.650127 0.344305
vt 0.795199 0.105010
vt 0.646350 0.160231
vt 0.944047 0.049790
vt 0.661454 0.896527
vt 0.661738 0.896596
vt 0.508830 0.767673
vt 0.359982 0.822893
vt 0.505055 0.583599
vt 0.356206 0.638819
vt 0.501279 0.399525
vt 0.352430 0.454745
vt 0.497502 0.215451
vt 0.348655 0.270671
f 1/1/1 2/2/2 3/3/3
f 4/4/4 5/5/5 6/6/6
f 5/5/5 7/7/7 8/8/8
f 7/7/7 9/9/9 10/10/10
f 9/9/9 11/11/11 12/12/12
f 11/11/11 13/13/13 14/14/14
f 13/13/13 15/15/15 16/16/16
f 15/15/15 17/17/17 18/18/18
f 17/17/17 1/1/1 19/19/19
f 20/20/20 21/21/21 22/22/22
f 23/23/23 24/24/24 25/25/25
f 19/19/19 1/1/1 3/3/3
f 20/20/20 4/4/4 6/6/6
f 6/6/6 5/5/5 8/8/8
f 8/8/8 7/7/7 10/10/10
f 10/10/10 9/9/9 12/12/12
f 12/12/12 11/11/11 14/14/14
f 14/14/14 13/13/13 16/16/16
f 16/16/16 15/15/15 18/18/18
f 18/18/18 17/17/17 19/19/19
f 4/4/4 20/20/20 22/22/22
f 26/26/26 27/27/27 28/28/28
f 24/24/24 23/23/23 29/29/29
f 25/25/25 30/30/30 31/31/31
f 30/30/30 32/32/32 33/33/33
f 34/34/34 35/35/35 25/25/25
f 36/36/36 37/37/37 24/24/24
f 24/24/24 34/34/34 25/25/25
f 25/25/25 32/32/32 30/30/30
f 26/26/26 29/29/29 27/27/27
f 26/26/26 38/38/38 39/39/39
f 26/26/26 36/36/36 24/24/24
f 28/28/28 38/38/38 26/26/26
f 23/23/23 25/25/25 31/31/31
f 24/24/24 29/29/29 26/26/26
