v -0.880194 0.549779 -4.488750
v -0.856479 0.544007 -4.493396
v -0.856686 0.549550 -4.493254
v -0.880439 0.555335 -4.488606
v -0.904689 0.562008 -4.483370
v -0.904427 0.556446 -4.483515
v -0.904165 0.550883 -4.483660
v -0.879949 0.544223 -4.488894
v -0.856272 0.538463 -4.493537
v -0.295557 0.580159 -4.451751
v -0.266130 0.576315 -4.450653
v -0.266293 0.581825 -4.450511
v -0.295658 0.585658 -4.451613
v -0.324961 0.587600 -4.453876
v -0.324931 0.582106 -4.454011
v -0.324900 0.576612 -4.454146
v -0.295456 0.574660 -4.451889
v -0.265968 0.570804 -4.450795
v -1.039516 0.581028 -4.457376
v -1.010958 0.578073 -4.461658
v -1.011063 0.583588 -4.461522
v -1.039557 0.586529 -4.457242
v -1.068563 0.587600 -4.453875
v -1.068593 0.582106 -4.454009
v -1.068624 0.576612 -4.454144
v -1.039475 0.575526 -4.457511
v -1.010853 0.572558 -4.461794
v -0.125129 0.542549 -4.462589
v -0.102182 0.536133 -4.467124
v -0.102413 0.541688 -4.466980
v -0.125390 0.548110 -4.462443
v -0.151705 0.555914 -4.458056
v -0.151419 0.550353 -4.458206
v -0.151134 0.544791 -4.458356
v -0.124869 0.536988 -4.462735
v -0.101950 0.530578 -4.467268
v -0.983142 0.574389 -4.466660
v -0.956080 0.569601 -4.472144
v -0.956275 0.575139 -4.472004
v -0.983296 0.579915 -4.466522
v -0.982988 0.568862 -4.466797
v -0.955885 0.564063 -4.472282
v -0.179211 0.558454 -4.454648
v -0.179483 0.564002 -4.454499
v -0.208143 0.571422 -4.451961
v -0.207904 0.565891 -4.452107
v -0.207666 0.560359 -4.452254
v -0.178940 0.552905 -4.454798
v -1.127393 0.576315 -4.450651
v -1.127231 0.581825 -4.450509
v -1.156424 0.577222 -4.450627
v -1.156629 0.571701 -4.450771
v -1.185381 0.571422 -4.451958
v -1.185620 0.565891 -4.452105
v -1.185858 0.560359 -4.452251
v -1.156834 0.566181 -4.450915
v -1.127555 0.570804 -4.450792
v -0.067359 0.529222 -4.475606
v -0.065476 0.528953 -4.476320
v -0.066193 0.532797 -4.475986
v -0.067658 0.534460 -4.475416
v -0.072827 0.535566 -4.473965
v -0.072564 0.530099 -4.474132
v -0.072302 0.524631 -4.474298
v -0.067059 0.523983 -4.475796
v -0.065701 0.525243 -4.476298
v -1.097866 0.585658 -4.451611
v -1.097967 0.580159 -4.451748
v -1.098068 0.574660 -4.451886
v -0.659814 0.530054 -4.503533
v -0.659737 0.535569 -4.503398
v -0.677714 0.535289 -4.503677
v -0.677755 0.529774 -4.503810
v -0.696762 0.535197 -4.503816
v -0.696762 0.529682 -4.503946
v -0.696762 0.524168 -4.504077
v -0.677797 0.524259 -4.503942
v -0.659891 0.524539 -4.503669
v -1.242105 0.550353 -4.458203
v -1.241819 0.555914 -4.458053
v -1.268134 0.548110 -4.462440
v -1.268394 0.542549 -4.462586
v -1.291110 0.541688 -4.466977
v -1.291342 0.536133 -4.467121
v -1.291574 0.530578 -4.467265
v -1.268655 0.536988 -4.462732
v -1.242390 0.544791 -4.458353
v -1.320960 0.530099 -4.474129
v -1.320697 0.535566 -4.473962
v -1.325866 0.534460 -4.475412
v -1.326165 0.529222 -4.475603
v -1.327331 0.532797 -4.475982
v -1.328048 0.528953 -4.476317
v -1.327823 0.525243 -4.476295
v -1.326465 0.523983 -4.475792
v -1.321222 0.524631 -4.474295
v -1.214041 0.564002 -4.454496
v -1.214313 0.558454 -4.454646
v -1.214584 0.552905 -4.454795
v -0.627373 0.531612 -4.502761
v -0.627261 0.537130 -4.502622
v -0.643905 0.536042 -4.503113
v -0.644003 0.530526 -4.503251
v -0.644102 0.525010 -4.503388
v -0.627484 0.526095 -4.502901
v -0.084416 0.532193 -4.471138
v -0.084652 0.537741 -4.470987
v -0.084180 0.526644 -4.471290
v -0.715769 0.529774 -4.503809
v -0.715810 0.535289 -4.503677
v -0.733787 0.535569 -4.503397
v -0.733710 0.530054 -4.503533
v -0.733633 0.524539 -4.503668
v -0.715727 0.524259 -4.503942
v -0.537045 0.544007 -4.493397
v -0.536838 0.549550 -4.493255
v -0.560675 0.545332 -4.497131
v -0.560844 0.539798 -4.497272
v -0.584158 0.542095 -4.500025
v -0.584296 0.536569 -4.500166
v -0.584435 0.531043 -4.500307
v -0.561013 0.534265 -4.497414
v -0.537252 0.538463 -4.493538
v -0.606849 0.539254 -4.501724
v -0.606971 0.533733 -4.501864
v -0.607094 0.528213 -4.502005
v -0.749521 0.530526 -4.503251
v -0.749619 0.536042 -4.503113
v -0.766263 0.537130 -4.502622
v -0.766152 0.531612 -4.502761
v -0.766040 0.526095 -4.502900
v -0.749423 0.525010 -4.503388
v -0.437444 0.569601 -4.472145
v -0.437249 0.575139 -4.472006
v -0.463504 0.568890 -4.477729
v -0.463742 0.563337 -4.477872
v -0.488835 0.562008 -4.483371
v -0.489097 0.556446 -4.483516
v -0.489359 0.550883 -4.483662
v -0.463980 0.557784 -4.478014
v -0.437639 0.564063 -4.472284
v -1.308872 0.537741 -4.470984
v -1.309108 0.532193 -4.471135
v -1.309344 0.526644 -4.471286
v -0.513085 0.555335 -4.488607
v -0.513330 0.549779 -4.488751
v -0.513575 0.544223 -4.488895
v -0.832680 0.539798 -4.497272
v -0.809228 0.536569 -4.500165
v -0.809366 0.542095 -4.500024
v -0.832849 0.545332 -4.497130
v -0.832511 0.534265 -4.497413
v -0.809090 0.531043 -4.500306
v -0.353967 0.586529 -4.457243
v -0.354008 0.581028 -4.457378
v -0.382461 0.583588 -4.461523
v -0.382566 0.578073 -4.461659
v -0.382671 0.572558 -4.461796
v -0.354049 0.575526 -4.457513
v -0.786553 0.533733 -4.501864
v -0.786675 0.539254 -4.501724
v -0.786431 0.528213 -4.502004
v -0.410228 0.579915 -4.466524
v -0.410382 0.574389 -4.466661
v -0.410536 0.568863 -4.466799
v -0.929782 0.563337 -4.477871
v -0.930021 0.568890 -4.477728
v -0.929544 0.557784 -4.478014
v -0.236895 0.571701 -4.450774
v -0.237100 0.577222 -4.450629
v -0.236690 0.566181 -4.450918
vn 0.197500 -0.016800 0.980200
vn 0.172700 -0.018700 0.984800
vn 0.174900 -0.018600 0.984400
vn 0.199200 -0.016600 0.979800
vn 0.210700 -0.015700 0.977400
vn 0.210000 -0.015700 0.977500
vn 0.209400 -0.015700 0.977700
vn 0.195700 -0.016900 0.980500
vn 0.170300 -0.018900 0.985200
vn -0.059500 -0.026100 0.997900
vn -0.020300 -0.026200 0.999400
vn -0.022600 -0.026300 0.999400
vn -0.061100 -0.026000 0.997800
vn -0.096700 -0.024900 0.995000
vn -0.096300 -0.024900 0.995000
vn -0.096000 -0.025000 0.995100
vn -0.058000 -0.026100 0.998000
vn -0.018000 -0.026200 0.999500
vn 0.130000 -0.023300 0.991200
vn 0.160100 -0.021300 0.986800
vn 0.159000 -0.021400 0.987000
vn 0.129300 -0.023400 0.991300
vn 0.096700 -0.024900 0.995000
vn 0.096300 -0.024900 0.995000
vn 0.096000 -0.025000 0.995100
vn 0.130600 -0.023200 0.991100
vn 0.161300 -0.021200 0.986700
vn 0.174100 -0.017700 0.984600
vn 0.202900 -0.017000 0.979000
vn 0.200400 -0.017100 0.979600
vn 0.171000 -0.017900 0.985100
vn 0.136000 -0.019800 0.990500
vn 0.140000 -0.019500 0.989900
vn 0.144200 -0.019200 0.989300
vn 0.177300 -0.017500 0.984000
vn 0.205600 -0.017000 0.978500
vn 0.184900 -0.019300 0.982500
vn 0.202200 -0.017400 0.979200
vn 0.201300 -0.017600 0.979400
vn 0.183800 -0.019400 0.982800
vn 0.185900 -0.019100 0.982400
vn 0.203100 -0.017300 0.979000
vn 0.101700 -0.021800 0.994600
vn 0.097800 -0.022000 0.995000
vn 0.058000 -0.023900 0.998000
vn 0.061600 -0.023800 0.997800
vn 0.065200 -0.023700 0.997600
vn 0.105600 -0.021500 0.994200
vn 0.020300 -0.026200 0.999400
vn 0.022600 -0.026300 0.999400
vn -0.017600 -0.025400 0.999500
vn -0.020500 -0.025300 0.999500
vn -0.058000 -0.024000 0.998000
vn -0.061700 -0.023800 0.997800
vn -0.065200 -0.023600 0.997600
vn -0.023300 -0.025300 0.999400
vn 0.018000 -0.026200 0.999500
vn 0.311700 -0.016900 0.950000
vn 0.352500 -0.015700 0.935700
vn 0.349200 -0.014400 0.936900
vn 0.290200 -0.017000 0.956800
vn 0.252400 -0.017100 0.967500
vn 0.255600 -0.017500 0.966600
vn 0.258700 -0.017800 0.965800
vn 0.306600 -0.017000 0.951700
vn 0.356200 -0.013900 0.934300
vn 0.061000 -0.025900 0.997800
vn 0.059500 -0.026000 0.997900
vn 0.058000 -0.026100 0.998000
vn -0.016100 -0.024300 0.999600
vn -0.016100 -0.024300 0.999600
vn -0.011100 -0.024000 0.999600
vn -0.011000 -0.023900 0.999600
vn 0.000000 -0.023700 0.999700
vn 0.000000 -0.023700 0.999700
vn 0.000000 -0.023700 0.999700
vn -0.010900 -0.023800 0.999600
vn -0.016000 -0.024300 0.999600
vn -0.140000 -0.019500 0.989900
vn -0.136000 -0.019800 0.990500
vn -0.171000 -0.017800 0.985100
vn -0.174100 -0.017700 0.984600
vn -0.200400 -0.017000 0.979600
vn -0.203000 -0.017000 0.979000
vn -0.205700 -0.017000 0.978500
vn -0.177300 -0.017500 0.984000
vn -0.144200 -0.019200 0.989300
vn -0.255600 -0.017500 0.966600
vn -0.252400 -0.017100 0.967400
vn -0.290300 -0.017000 0.956800
vn -0.311900 -0.016900 0.949900
vn -0.349500 -0.014400 0.936800
vn -0.353000 -0.015700 0.935500
vn -0.356600 -0.013900 0.934100
vn -0.306600 -0.016900 0.951700
vn -0.258700 -0.017800 0.965800
vn -0.097700 -0.022000 0.995000
vn -0.101700 -0.021800 0.994600
vn -0.105600 -0.021500 0.994200
vn -0.034600 -0.024500 0.999100
vn -0.035100 -0.024500 0.999100
vn -0.022700 -0.024500 0.999400
vn -0.022500 -0.024500 0.999400
vn -0.022200 -0.024500 0.999500
vn -0.034100 -0.024500 0.999100
vn 0.229300 -0.016900 0.973200
vn 0.227100 -0.016800 0.973700
vn 0.231600 -0.017000 0.972700
vn 0.011000 -0.023900 0.999600
vn 0.011100 -0.023900 0.999600
vn 0.016200 -0.024400 0.999500
vn 0.016100 -0.024300 0.999600
vn 0.016000 -0.024300 0.999600
vn 0.010900 -0.023900 0.999600
vn -0.172700 -0.018700 0.984800
vn -0.174900 -0.018600 0.984400
vn -0.140500 -0.020900 0.989800
vn -0.138400 -0.021000 0.990100
vn -0.097900 -0.022800 0.994900
vn -0.095600 -0.022900 0.995100
vn -0.093300 -0.023100 0.995400
vn -0.136200 -0.021100 0.990400
vn -0.170400 -0.018900 0.985200
vn -0.057900 -0.024000 0.998000
vn -0.056600 -0.024100 0.998100
vn -0.055200 -0.024100 0.998200
vn 0.022500 -0.024500 0.999400
vn 0.022700 -0.024600 0.999400
vn 0.035100 -0.024500 0.999100
vn 0.034600 -0.024500 0.999100
vn 0.034100 -0.024500 0.999100
vn 0.022200 -0.024400 0.999500
vn -0.202200 -0.017400 0.979200
vn -0.201200 -0.017600 0.979400
vn -0.210700 -0.016100 0.977400
vn -0.211000 -0.016000 0.977300
vn -0.210700 -0.015700 0.977400
vn -0.210000 -0.015700 0.977500
vn -0.209400 -0.015700 0.977700
vn -0.211400 -0.016000 0.977300
vn -0.203100 -0.017300 0.979000
vn -0.227100 -0.016800 0.973700
vn -0.229300 -0.016900 0.973200
vn -0.231600 -0.017000 0.972700
vn -0.199200 -0.016600 0.979800
vn -0.197500 -0.016800 0.980200
vn -0.195700 -0.016900 0.980500
vn 0.138400 -0.021000 0.990100
vn 0.095600 -0.022900 0.995100
vn 0.098000 -0.022900 0.994900
vn 0.140500 -0.020900 0.989800
vn 0.136200 -0.021100 0.990400
vn 0.093300 -0.023000 0.995400
vn -0.129300 -0.023400 0.991300
vn -0.130000 -0.023300 0.991200
vn -0.159000 -0.021500 0.987000
vn -0.160100 -0.021300 0.986800
vn -0.161200 -0.021200 0.986700
vn -0.130600 -0.023200 0.991100
vn 0.056600 -0.024100 0.998100
vn 0.057900 -0.024000 0.998000
vn 0.055200 -0.024100 0.998200
vn -0.183800 -0.019500 0.982800
vn -0.184900 -0.019300 0.982500
vn -0.186000 -0.019100 0.982400
vn 0.211100 -0.016000 0.977300
vn 0.210800 -0.016100 0.977400
vn 0.211400 -0.016000 0.977300
vn 0.020500 -0.025300 0.999500
vn 0.017600 -0.025500 0.999500
vn 0.023300 -0.025200 0.999400
vt 0.000000 0.000000
vt 0.000000 0.000000
vt 0.000000 0.000000
vt 0.000000 0.000000
vt 0.000000 0.000000
vt 0.000000 0.000000
vt 0.000000 0.000000
vt 0.000000 0.000000
vt 0.000000 0.000000
vt 0.000000 0.000000
vt 0.000000 0.000000
vt 0.000000 0.000000
vt 0.000000 0.000000
vt 0.000000 0.000000
vt 0.000000 0.000000
vt 0.000000 0.000000
vt 0.000000 0.000000
vt 0.000000 0.000000
vt 0.000000 0.000000
vt 0.000000 0.000000
vt 0.000000 0.000000
vt 0.000000 0.000000
vt 0.000000 0.000000
vt 0.000000 0.000000
vt 0.000000 0.000000
vt 0.000000 0.000000
vt 0.000000 0.000000
vt 0.000000 0.000000
vt 0.000000 0.000000
vt 0.000000 0.000000
vt 0.000000 0.000000
vt 0.000000 0.000000
vt 0.000000 0.000000
vt 0.000000 0.000000
vt 0.000000 0.000000
vt 0.000000 0.000000
vt 0.000000 0.000000
vt 0.000000 0.000000
vt 0.000000 0.000000
vt 0.000000 0.000000
vt 0.000000 0.000000
vt 0.000000 0.000000
vt 0.000000 0.000000
vt 0.000000 0.000000
vt 0.000000 0.000000
vt 0.000000 0.000000
vt 0.000000 0.000000
vt 0.000000 0.000000
vt 0.000000 0.000000
vt 0.000000 0.000000
vt 0.000000 0.000000
vt 0.000000 0.000000
vt 0.000000 0.000000
vt 0.000000 0.000000
vt 0.000000 0.000000
vt 0.000000 0.000000
vt 0.000000 0.000000
vt 0.000000 0.000000
vt 0.000000 0.000000
vt 0.000000 0.000000
vt 0.000000 0.000000
vt 0.000000 0.000000
vt 0.000000 0.000000
vt 0.000000 0.000000
vt 0.000000 0.000000
vt 0.000000 0.000000
vt 0.000000 0.000000
vt 0.000000 0.000000
vt 0.000000 0.000000
vt 0.000000 0.000000
vt 0.000000 0.000000
vt 0.000000 0.000000
vt 0.000000 0.000000
vt 0.000000 0.000000
vt 0.000000 0.000000
vt 0.000000 0.000000
vt 0.000000 0.000000
vt 0.000000 0.000000
vt 0.000000 0.000000
vt 0.000000 0.000000
vt 0.000000 0.000000
vt 0.000000 0.000000
vt 0.000000 0.000000
vt 0.000000 0.000000
vt 0.000000 0.000000
vt 0.000000 0.000000
vt 0.000000 0.000000
vt 0.000000 0.000000
vt 0.000000 0.000000
vt 0.000000 0.000000
vt 0.000000 0.000000
vt 0.000000 0.000000
vt 0.000000 0.000000
vt 0.000000 0.000000
vt 0.000000 0.000000
vt 0.000000 0.000000
vt 0.000000 0.000000
vt 0.000000 0.000000
vt 0.000000 0.000000
vt 0.000000 0.000000
vt 0.000000 0.000000
vt 0.000000 0.000000
vt 0.000000 0.000000
vt 0.000000 0.000000
vt 0.000000 0.000000
vt 0.000000 0.000000
vt 0.000000 0.000000
vt 0.000000 0.000000
vt 0.000000 0.000000
vt 0.000000 0.000000
vt 0.000000 0.000000
vt 0.000000 0.000000
vt 0.000000 0.000000
vt 0.000000 0.000000
vt 0.000000 0.000000
vt 0.000000 0.000000
vt 0.000000 0.000000
vt 0.000000 0.000000
vt 0.000000 0.000000
vt 0.000000 0.000000
vt 0.000000 0.000000
vt 0.000000 0.000000
vt 0.000000 0.000000
vt 0.000000 0.000000
vt 0.000000 0.000000
vt 0.000000 0.000000
vt 0.000000 0.000000
vt 0.000000 0.000000
vt 0.000000 0.000000
vt 0.000000 0.000000
vt 0.000000 0.000000
vt 0.000000 0.000000
vt 0.000000 0.000000
vt 0.000000 0.000000
vt 0.000000 0.000000
vt 0.000000 0.000000
vt 0.000000 0.000000
vt 0.000000 0.000000
vt 0.000000 0.000000
vt 0.000000 0.000000
vt 0.000000 0.000000
vt 0.000000 0.000000
vt 0.000000 0.000000
vt 0.000000 0.000000
vt 0.000000 0.000000
vt 0.000000 0.000000
vt 0.000000 0.000000
vt 0.000000 0.000000
vt 0.000000 0.000000
vt 0.000000 0.000000
vt 0.000000 0.000000
vt 0.000000 0.000000
vt 0.000000 0.000000
vt 0.000000 0.000000
vt 0.000000 0.000000
vt 0.000000 0.000000
vt 0.000000 0.000000
vt 0.000000 0.000000
vt 0.000000 0.000000
vt 0.000000 0.000000
vt 0.000000 0.000000
vt 0.000000 0.000000
vt 0.000000 0.000000
vt 0.000000 0.000000
vt 0.000000 0.000000
vt 0.000000 0.000000
vt 0.000000 0.000000
vt 0.000000 0.000000
vt 0.000000 0.000000
vt 0.000000 0.000000
vt 0.000000 0.000000
f 1/1/1 2/2/2 3/3/3
f 4/4/4 5/5/5 6/6/6
f 1/1/1 6/6/6 7/7/7
f 8/8/8 9/9/9 2/2/2
f 10/10/10 11/11/11 12/12/12
f 13/13/13 14/14/14 15/15/15
f 10/10/10 15/15/15 16/16/16
f 17/17/17 18/18/18 11/11/11
f 19/19/19 20/20/20 21/21/21
f 22/22/22 23/23/23 24/24/24
f 19/19/19 24/24/24 25/25/25
f 26/26/26 27/27/27 20/20/20
f 28/28/28 29/29/29 30/30/30
f 31/31/31 32/32/32 33/33/33
f 28/28/28 33/33/33 34/34/34
f 35/35/35 36/36/36 29/29/29
f 37/37/37 38/38/38 39/39/39
f 40/40/40 21/21/21 20/20/20
f 37/37/37 20/20/20 27/27/27
f 41/41/41 42/42/42 38/38/38
f 43/43/43 33/33/33 32/32/32
f 44/44/44 45/45/45 46/46/46
f 43/43/43 46/46/46 47/47/47
f 48/48/48 34/34/34 33/33/33
f 49/49/49 50/50/50 51/51/51
f 52/52/52 51/51/51 53/53/53
f 54/54/54 55/55/55 56/56/56
f 52/52/52 56/56/56 57/57/57
f 58/58/58 59/59/59 60/60/60
f 61/61/61 62/62/62 63/63/63
f 58/58/58 63/63/63 64/64/64
f 58/58/58 65/65/65 66/66/66
f 24/24/24 23/23/23 67/67/67
f 68/68/68 67/67/67 50/50/50
f 49/49/49 57/57/57 69/69/69
f 68/68/68 69/69/69 25/25/25
f 70/70/70 71/71/71 72/72/72
f 73/73/73 72/72/72 74/74/74
f 75/75/75 76/76/76 77/77/77
f 73/73/73 77/77/77 78/78/78
f 79/79/79 80/80/80 81/81/81
f 82/82/82 81/81/81 83/83/83
f 84/84/84 85/85/85 86/86/86
f 82/82/82 86/86/86 87/87/87
f 88/88/88 89/89/89 90/90/90
f 91/91/91 90/90/90 92/92/92
f 91/91/91 93/93/93 94/94/94
f 91/91/91 95/95/95 96/96/96
f 54/54/54 53/53/53 97/97/97
f 98/98/98 97/97/97 80/80/80
f 79/79/79 87/87/87 99/99/99
f 98/98/98 99/99/99 55/55/55
f 100/100/100 101/101/101 102/102/102
f 103/103/103 102/102/102 71/71/71
f 70/70/70 78/78/78 104/104/104
f 103/103/103 104/104/104 105/105/105
f 106/106/106 63/63/63 62/62/62
f 107/107/107 30/30/30 29/29/29
f 106/106/106 29/29/29 36/36/36
f 108/108/108 64/64/64 63/63/63
f 109/109/109 75/75/75 74/74/74
f 110/110/110 111/111/111 112/112/112
f 109/109/109 112/112/112 113/113/113
f 114/114/114 76/76/76 75/75/75
f 115/115/115 116/116/116 117/117/117
f 118/118/118 117/117/117 119/119/119
f 120/120/120 121/121/121 122/122/122
f 118/118/118 122/122/122 123/123/123
f 120/120/120 119/119/119 124/124/124
f 125/125/125 124/124/124 101/101/101
f 100/100/100 105/105/105 126/126/126
f 125/125/125 126/126/126 121/121/121
f 127/127/127 112/112/112 111/111/111
f 128/128/128 129/129/129 130/130/130
f 127/127/127 130/130/130 131/131/131
f 132/132/132 113/113/113 112/112/112
f 133/133/133 134/134/134 135/135/135
f 136/136/136 135/135/135 137/137/137
f 138/138/138 139/139/139 140/140/140
f 136/136/136 140/140/140 141/141/141
f 84/84/84 83/83/83 142/142/142
f 143/143/143 142/142/142 89/89/89
f 88/88/88 96/96/96 144/144/144
f 143/143/143 144/144/144 85/85/85
f 138/138/138 137/137/137 145/145/145
f 146/146/146 145/145/145 116/116/116
f 115/115/115 123/123/123 147/147/147
f 146/146/146 147/147/147 139/139/139
f 148/148/148 149/149/149 150/150/150
f 151/151/151 3/3/3 2/2/2
f 148/148/148 2/2/2 9/9/9
f 152/152/152 153/153/153 149/149/149
f 15/15/15 14/14/14 154/154/154
f 155/155/155 154/154/154 156/156/156
f 157/157/157 158/158/158 159/159/159
f 155/155/155 159/159/159 16/16/16
f 160/160/160 130/130/130 129/129/129
f 161/161/161 150/150/150 149/149/149
f 160/160/160 149/149/149 153/153/153
f 162/162/162 131/131/131 130/130/130
f 157/157/157 156/156/156 163/163/163
f 164/164/164 163/163/163 134/134/134
f 133/133/133 141/141/141 165/165/165
f 164/164/164 165/165/165 158/158/158
f 166/166/166 6/6/6 5/5/5
f 167/167/167 39/39/39 38/38/38
f 166/166/166 38/38/38 42/42/42
f 168/168/168 7/7/7 6/6/6
f 169/169/169 46/46/46 45/45/45
f 170/170/170 12/12/12 11/11/11
f 169/169/169 11/11/11 18/18/18
f 171/171/171 47/47/47 46/46/46
f 4/4/4 1/1/1 3/3/3
f 1/1/1 4/4/4 6/6/6
f 8/8/8 1/1/1 7/7/7
f 1/1/1 8/8/8 2/2/2
f 13/13/13 10/10/10 12/12/12
f 10/10/10 13/13/13 15/15/15
f 17/17/17 10/10/10 16/16/16
f 10/10/10 17/17/17 11/11/11
f 22/22/22 19/19/19 21/21/21
f 19/19/19 22/22/22 24/24/24
f 26/26/26 19/19/19 25/25/25
f 19/19/19 26/26/26 20/20/20
f 31/31/31 28/28/28 30/30/30
f 28/28/28 31/31/31 33/33/33
f 35/35/35 28/28/28 34/34/34
f 28/28/28 35/35/35 29/29/29
f 40/40/40 37/37/37 39/39/39
f 37/37/37 40/40/40 20/20/20
f 41/41/41 37/37/37 27/27/27
f 37/37/37 41/41/41 38/38/38
f 44/44/44 43/43/43 32/32/32
f 43/43/43 44/44/44 46/46/46
f 48/48/48 43/43/43 47/47/47
f 43/43/43 48/48/48 33/33/33
f 52/52/52 49/49/49 51/51/51
f 54/54/54 52/52/52 53/53/53
f 52/52/52 54/54/54 56/56/56
f 49/49/49 52/52/52 57/57/57
f 61/61/61 58/58/58 60/60/60
f 58/58/58 61/61/61 63/63/63
f 65/65/65 58/58/58 64/64/64
f 59/59/59 58/58/58 66/66/66
f 68/68/68 24/24/24 67/67/67
f 49/49/49 68/68/68 50/50/50
f 68/68/68 49/49/49 69/69/69
f 24/24/24 68/68/68 25/25/25
f 73/73/73 70/70/70 72/72/72
f 75/75/75 73/73/73 74/74/74
f 73/73/73 75/75/75 77/77/77
f 70/70/70 73/73/73 78/78/78
f 82/82/82 79/79/79 81/81/81
f 84/84/84 82/82/82 83/83/83
f 82/82/82 84/84/84 86/86/86
f 79/79/79 82/82/82 87/87/87
f 91/91/91 88/88/88 90/90/90
f 93/93/93 91/91/91 92/92/92
f 95/95/95 91/91/91 94/94/94
f 88/88/88 91/91/91 96/96/96
f 98/98/98 54/54/54 97/97/97
f 79/79/79 98/98/98 80/80/80
f 98/98/98 79/79/79 99/99/99
f 54/54/54 98/98/98 55/55/55
f 103/103/103 100/100/100 102/102/102
f 70/70/70 103/103/103 71/71/71
f 103/103/103 70/70/70 104/104/104
f 100/100/100 103/103/103 105/105/105
f 107/107/107 106/106/106 62/62/62
f 106/106/106 107/107/107 29/29/29
f 108/108/108 106/106/106 36/36/36
f 106/106/106 108/108/108 63/63/63
f 110/110/110 109/109/109 74/74/74
f 109/109/109 110/110/110 112/112/112
f 114/114/114 109/109/109 113/113/113
f 109/109/109 114/114/114 75/75/75
f 118/118/118 115/115/115 117/117/117
f 120/120/120 118/118/118 119/119/119
f 118/118/118 120/120/120 122/122/122
f 115/115/115 118/118/118 123/123/123
f 125/125/125 120/120/120 124/124/124
f 100/100/100 125/125/125 101/101/101
f 125/125/125 100/100/100 126/126/126
f 120/120/120 125/125/125 121/121/121
f 128/128/128 127/127/127 111/111/111
f 127/127/127 128/128/128 130/130/130
f 132/132/132 127/127/127 131/131/131
f 127/127/127 132/132/132 112/112/112
f 136/136/136 133/133/133 135/135/135
f 138/138/138 136/136/136 137/137/137
f 136/136/136 138/138/138 140/140/140
f 133/133/133 136/136/136 141/141/141
f 143/143/143 84/84/84 142/142/142
f 88/88/88 143/143/143 89/89/89
f 143/143/143 88/88/88 144/144/144
f 84/84/84 143/143/143 85/85/85
f 146/146/146 138/138/138 145/145/145
f 115/115/115 146/146/146 116/116/116
f 146/146/146 115/115/115 147/147/147
f 138/138/138 146/146/146 139/139/139
f 151/151/151 148/148/148 150/150/150
f 148/148/148 151/151/151 2/2/2
f 152/152/152 148/148/148 9/9/9
f 148/148/148 152/152/152 149/149/149
f 155/155/155 15/15/15 154/154/154
f 157/157/157 155/155/155 156/156/156
f 155/155/155 157/157/157 159/159/159
f 15/15/15 155/155/155 16/16/16
f 161/161/161 160/160/160 129/129/129
f 160/160/160 161/161/161 149/149/149
f 162/162/162 160/160/160 153/153/153
f 160/160/160 162/162/162 130/130/130
f 164/164/164 157/157/157 163/163/163
f 133/133/133 164/164/164 134/134/134
f 164/164/164 133/133/133 165/165/165
f 157/157/157 164/164/164 158/158/158
f 167/167/167 166/166/166 5/5/5
f 166/166/166 167/167/167 38/38/38
f 168/168/168 166/166/166 42/42/42
f 166/166/166 168/168/168 6/6/6
f 170/170/170 169/169/169 45/45/45
f 169/169/169 170/170/170 11/11/11
f 171/171/171 169/169/169 18/18/18
f 169/169/169 171/171/171 46/46/46
