v -1.705446 4.982404 -3.197641
v -1.719066 4.988490 -3.191999
v -1.721416 4.988490 -3.199745
v -1.696719 4.988490 -3.169652
v -1.703858 4.988490 -3.173468
v -1.695667 4.982404 -3.185726
v -1.665115 4.988490 -3.169652
v -1.672861 4.988490 -3.167303
v -1.675738 4.982404 -3.181762
v -1.656389 4.982404 -3.197641
v -1.642768 4.988490 -3.191999
v -1.646584 4.988490 -3.184860
v -1.656389 4.982404 -3.217961
v -1.642768 4.988490 -3.223603
v -1.640419 4.988490 -3.215857
v -1.665115 4.988490 -3.245950
v -1.657977 4.988490 -3.242134
v -1.666167 4.982404 -3.229876
v -1.691077 4.982404 -3.232330
v -1.696719 4.988490 -3.245950
v -1.688973 4.988490 -3.248300
v -1.721416 4.988490 -3.215857
v -1.706957 4.982404 -3.212981
v -1.707467 4.982404 -3.207801
v -1.715250 4.988490 -3.184861
v -1.702992 4.982404 -3.193051
v -1.699690 4.982404 -3.189028
v -1.706957 4.982404 -3.202622
v -1.710115 4.988490 -3.178603
v -1.691077 4.982404 -3.183273
v -1.686097 4.982404 -3.181762
v -1.680917 4.982404 -3.181252
v -1.680917 4.988490 -3.166509
v -1.670757 4.982404 -3.183273
v -1.666167 4.982404 -3.185726
v -1.657977 4.988490 -3.173468
v -1.662144 4.982404 -3.189028
v -1.651719 4.988490 -3.178603
v -1.658842 4.982404 -3.193051
v -1.654878 4.982404 -3.202622
v -1.640419 4.988490 -3.199745
v -1.654368 4.982404 -3.207801
v -1.654878 4.982404 -3.212981
v -1.658842 4.982404 -3.222551
v -1.662144 4.982404 -3.226574
v -1.651719 4.988490 -3.236999
v -1.670757 4.982404 -3.232330
v -1.675738 4.982404 -3.233840
v -1.672861 4.988490 -3.248300
v -1.680917 4.982404 -3.234351
v -1.686097 4.982404 -3.233840
v -1.695667 4.982404 -3.229876
v -1.699690 4.982404 -3.226574
v -1.710115 4.988490 -3.236999
v -1.702992 4.982404 -3.222551
v -1.715250 4.988490 -3.230742
v -1.705446 4.982404 -3.217961
v -1.719066 4.988490 -3.223603
v -1.722209 4.988490 -3.207801
v -1.688973 4.988490 -3.167303
v -1.639625 4.988490 -3.207801
v -1.646584 4.988490 -3.230742
v -1.680917 4.988490 -3.249093
v -1.703858 4.988490 -3.242134
vn -0.352500 -0.924300 0.146000
vn -0.352500 -0.924300 0.146000
vn -0.374200 -0.924300 0.074400
vn -0.146000 -0.924300 0.352500
vn -0.212000 -0.924300 0.317200
vn -0.212000 -0.924300 0.317300
vn 0.146000 -0.924300 0.352500
vn 0.074400 -0.924300 0.374200
vn 0.074400 -0.924300 0.374200
vn 0.352500 -0.924300 0.146000
vn 0.352500 -0.924300 0.146000
vn 0.317200 -0.924300 0.212000
vn 0.352500 -0.924300 -0.146000
vn 0.352500 -0.924300 -0.146000
vn 0.374200 -0.924300 -0.074400
vn 0.146000 -0.924300 -0.352500
vn 0.212000 -0.924300 -0.317200
vn 0.212000 -0.924300 -0.317300
vn -0.146000 -0.924300 -0.352500
vn -0.146000 -0.924300 -0.352500
vn -0.074400 -0.924300 -0.374200
vn -0.374200 -0.924300 -0.074400
vn -0.374200 -0.924300 -0.074400
vn -0.381600 -0.924300 0.000000
vn -0.317300 -0.924300 0.212000
vn -0.317200 -0.924300 0.212000
vn -0.269800 -0.924300 0.269900
vn -0.374200 -0.924300 0.074400
vn -0.269800 -0.924300 0.269800
vn -0.146000 -0.924300 0.352500
vn -0.074400 -0.924300 0.374200
vn 0.000000 -0.924300 0.381600
vn 0.000000 -0.924300 0.381600
vn 0.146000 -0.924300 0.352500
vn 0.212000 -0.924300 0.317300
vn 0.212000 -0.924300 0.317200
vn 0.269800 -0.924300 0.269800
vn 0.269800 -0.924300 0.269800
vn 0.317300 -0.924300 0.212000
vn 0.374200 -0.924300 0.074400
vn 0.374200 -0.924300 0.074400
vn 0.381600 -0.924300 0.000000
vn 0.374200 -0.924300 -0.074400
vn 0.317200 -0.924300 -0.212000
vn 0.269800 -0.924300 -0.269800
vn 0.269800 -0.924300 -0.269800
vn 0.146000 -0.924300 -0.352500
vn 0.074400 -0.924300 -0.374200
vn 0.074400 -0.924300 -0.374200
vn 0.000000 -0.924300 -0.381600
vn -0.074400 -0.924300 -0.374200
vn -0.212000 -0.924300 -0.317300
vn -0.269800 -0.924300 -0.269900
vn -0.269800 -0.924300 -0.269800
vn -0.317200 -0.924300 -0.212000
vn -0.317300 -0.924300 -0.212000
vn -0.352500 -0.924300 -0.146100
vn -0.352500 -0.924300 -0.146000
vn -0.381600 -0.924300 0.000000
vn -0.074400 -0.924300 0.374200
vn 0.381600 -0.924300 0.000000
vn 0.317200 -0.924300 -0.212000
vn 0.000000 -0.924300 -0.381500
vn -0.212000 -0.924300 -0.317200
vt 0.495603 0.901653
vt 0.493297 0.901160
vt 0.491864 0.902605
vt 0.500698 0.898694
vt 0.498722 0.898751
vt 0.499158 0.900104
vt 0.507742 0.902153
vt 0.506235 0.900789
vt 0.504093 0.901414
vt 0.506879 0.907021
vt 0.510645 0.909510
vt 0.510470 0.907523
vt 0.504643 0.911487
vt 0.507289 0.916456
vt 0.508708 0.915010
vt 0.499220 0.918921
vt 0.501428 0.918864
vt 0.500904 0.913036
vt 0.494685 0.910849
vt 0.491673 0.915463
vt 0.493192 0.916827
vt 0.489890 0.906146
vt 0.493425 0.904859
vt 0.493940 0.903664
vt 0.494958 0.900009
vt 0.496686 0.900912
vt 0.497885 0.900389
vt 0.494675 0.902582
vt 0.496787 0.899195
vt 0.500460 0.900067
vt 0.501746 0.900280
vt 0.502972 0.900735
vt 0.504519 0.899733
vt 0.505070 0.902291
vt 0.505866 0.903332
vt 0.508982 0.903773
vt 0.506448 0.904498
vt 0.509905 0.905586
vt 0.506792 0.905744
vt 0.506700 0.908281
vt 0.510396 0.911508
vt 0.506258 0.909475
vt 0.505564 0.910558
vt 0.503528 0.912228
vt 0.502264 0.912750
vt 0.503571 0.918420
vt 0.499506 0.913073
vt 0.498128 0.912860
vt 0.497047 0.918590
vt 0.496831 0.912405
vt 0.495667 0.911726
vt 0.493921 0.909807
vt 0.493403 0.908641
vt 0.489739 0.912029
vt 0.493146 0.907396
vt 0.489382 0.910092
vt 0.493156 0.906119
vt 0.489437 0.908106
vt 0.490712 0.904289
vt 0.502652 0.899025
vt 0.509759 0.913327
vt 0.505553 0.917607
vt 0.495008 0.917883
vt 0.490509 0.913843
f 1/1/1 2/2/2 3/3/3
f 4/4/4 5/5/5 6/6/6
f 7/7/7 8/8/8 9/9/9
f 10/10/10 11/11/11 12/12/12
f 13/13/13 14/14/14 15/15/15
f 16/16/16 17/17/17 18/18/18
f 19/19/19 20/20/20 21/21/21
f 22/22/22 23/23/23 24/24/24
f 25/25/25 26/26/26 27/27/27
f 24/24/24 28/28/28 3/3/3
f 1/1/1 26/26/26 25/25/25
f 29/29/29 27/27/27 6/6/6
f 4/4/4 30/30/30 31/31/31
f 31/31/31 32/32/32 33/33/33
f 33/33/33 32/32/32 9/9/9
f 34/34/34 35/35/35 36/36/36
f 36/36/36 35/35/35 37/37/37
f 38/38/38 37/37/37 39/39/39
f 10/10/10 40/40/40 41/41/41
f 41/41/41 40/40/40 42/42/42
f 42/42/42 43/43/43 15/15/15
f 14/14/14 13/13/13 44/44/44
f 44/44/44 45/45/45 46/46/46
f 46/46/46 45/45/45 18/18/18
f 16/16/16 47/47/47 48/48/48
f 49/49/49 48/48/48 50/50/50
f 50/50/50 51/51/51 21/21/21
f 20/20/20 19/19/19 52/52/52
f 52/52/52 53/53/53 54/54/54
f 54/54/54 53/53/53 55/55/55
f 56/56/56 55/55/55 57/57/57
f 58/58/58 57/57/57 23/23/23
f 28/28/28 1/1/1 3/3/3
f 30/30/30 4/4/4 6/6/6
f 34/34/34 7/7/7 9/9/9
f 39/39/39 10/10/10 12/12/12
f 43/43/43 13/13/13 15/15/15
f 47/47/47 16/16/16 18/18/18
f 51/51/51 19/19/19 21/21/21
f 59/59/59 22/22/22 24/24/24
f 29/29/29 25/25/25 27/27/27
f 59/59/59 24/24/24 3/3/3
f 2/2/2 1/1/1 25/25/25
f 5/5/5 29/29/29 6/6/6
f 60/60/60 4/4/4 31/31/31
f 60/60/60 31/31/31 33/33/33
f 8/8/8 33/33/33 9/9/9
f 7/7/7 34/34/34 36/36/36
f 38/38/38 36/36/36 37/37/37
f 12/12/12 38/38/38 39/39/39
f 11/11/11 10/10/10 41/41/41
f 61/61/61 41/41/41 42/42/42
f 61/61/61 42/42/42 15/15/15
f 62/62/62 14/14/14 44/44/44
f 62/62/62 44/44/44 46/46/46
f 17/17/17 46/46/46 18/18/18
f 49/49/49 16/16/16 48/48/48
f 63/63/63 49/49/49 50/50/50
f 63/63/63 50/50/50 21/21/21
f 64/64/64 20/20/20 52/52/52
f 64/64/64 52/52/52 54/54/54
f 56/56/56 54/54/54 55/55/55
f 58/58/58 56/56/56 57/57/57
f 22/22/22 58/58/58 23/23/23
