v 0.501134 3.557408 -3.213388
v 0.501299 3.556242 -3.213356
v 0.500803 3.556242 -3.208323
v 0.505151 3.556242 -3.193990
v 0.508359 3.556242 -3.190081
v 0.508240 3.557408 -3.189963
v 0.501299 3.556242 -3.203290
v 0.501134 3.557408 -3.203257
v 0.502767 3.556242 -3.198451
v 0.505011 3.557408 -3.193897
v 0.512268 3.556242 -3.186873
v 0.512175 3.557408 -3.186734
v 0.516728 3.556242 -3.184489
v 0.521568 3.556242 -3.183021
v 0.521535 3.557408 -3.182857
v 0.521568 3.556242 -3.183021
v 0.526600 3.556242 -3.182525
v 0.526600 3.557408 -3.182358
v 0.531633 3.556242 -3.183021
v 0.536537 3.557408 -3.184334
v 0.536473 3.556242 -3.184489
v 0.540933 3.556242 -3.186873
v 0.541026 3.557408 -3.186734
v 0.544842 3.556242 -3.190081
v 0.544960 3.557408 -3.189963
v 0.548050 3.556242 -3.193990
v 0.550434 3.556242 -3.198451
v 0.551902 3.556242 -3.203290
v 0.552067 3.557408 -3.203257
v 0.552398 3.556242 -3.208323
v 0.552566 3.557408 -3.208323
v 0.551902 3.556242 -3.213356
v 0.552067 3.557408 -3.213388
v 0.550434 3.556242 -3.218195
v 0.548050 3.556242 -3.222655
v 0.548190 3.557408 -3.222748
v 0.544842 3.556242 -3.226564
v 0.544960 3.557408 -3.226683
v 0.540933 3.556242 -3.229773
v 0.536473 3.556242 -3.232157
v 0.531633 3.556242 -3.233625
v 0.531666 3.557408 -3.233789
v 0.526600 3.556242 -3.234120
v 0.526600 3.557408 -3.234288
v 0.521568 3.556242 -3.233625
v 0.516728 3.556242 -3.232157
v 0.512268 3.556242 -3.229773
v 0.512175 3.557408 -3.229912
v 0.508359 3.556242 -3.226564
v 0.508240 3.557408 -3.226683
v 0.505151 3.556242 -3.222655
v 0.505011 3.557408 -3.222748
v 0.502767 3.556242 -3.218195
v 0.502612 3.557408 -3.218259
v 0.502612 3.557408 -3.198386
v 0.516664 3.557408 -3.184334
v 0.531666 3.557408 -3.182857
v 0.550589 3.557408 -3.198386
v 0.548190 3.557408 -3.193897
v 0.550589 3.557408 -3.218259
v 0.536537 3.557408 -3.232311
v 0.541026 3.557408 -3.229912
v 0.516664 3.557408 -3.232311
v 0.521535 3.557408 -3.233789
v 0.521568 3.556242 -3.233625
v 0.500635 3.557408 -3.208323
v 0.521535 3.557408 -3.182857
v 0.521535 3.557408 -3.233789
vn -0.970800 -0.142100 -0.193100
vn -0.970800 -0.142100 -0.193100
vn -0.989800 -0.142000 0.000000
vn -0.823100 -0.142000 0.549900
vn -0.699900 -0.142000 0.700000
vn -0.699900 -0.142000 0.700000
vn -0.970800 -0.142100 0.193000
vn -0.970800 -0.142100 0.193000
vn -0.914500 -0.142100 0.378800
vn -0.823000 -0.142100 0.549900
vn -0.550000 -0.142100 0.823000
vn -0.550000 -0.142100 0.823000
vn -0.378700 -0.142100 0.914500
vn -0.193200 -0.142100 0.970800
vn -0.193200 -0.142100 0.970800
vn -0.193200 -0.142100 0.970800
vn 0.000000 -0.142000 0.989800
vn 0.000000 -0.142000 0.989800
vn 0.193200 -0.142100 0.970800
vn 0.378700 -0.142100 0.914500
vn 0.378700 -0.142100 0.914500
vn 0.549900 -0.142100 0.823000
vn 0.549900 -0.142100 0.823000
vn 0.699900 -0.142000 0.699900
vn 0.699900 -0.142000 0.700000
vn 0.823000 -0.142000 0.549900
vn 0.914500 -0.142100 0.378800
vn 0.970800 -0.142100 0.193100
vn 0.970800 -0.142100 0.193100
vn 0.989800 -0.142100 -0.000000
vn 0.989800 -0.142100 -0.000000
vn 0.970800 -0.142100 -0.193100
vn 0.970800 -0.142100 -0.193100
vn 0.914400 -0.142100 -0.378900
vn 0.823100 -0.142100 -0.549900
vn 0.823000 -0.142100 -0.549900
vn 0.700100 -0.142200 -0.699700
vn 0.700000 -0.142200 -0.699800
vn 0.549900 -0.142000 -0.823100
vn 0.378800 -0.142100 -0.914500
vn 0.193100 -0.142100 -0.970800
vn 0.193100 -0.142100 -0.970800
vn 0.000000 -0.142200 -0.989800
vn 0.000000 -0.142200 -0.989800
vn -0.193000 -0.142100 -0.970900
vn -0.378900 -0.142200 -0.914400
vn -0.549900 -0.142100 -0.823000
vn -0.549900 -0.142100 -0.823100
vn -0.700000 -0.142200 -0.699800
vn -0.700000 -0.142200 -0.699900
vn -0.823100 -0.142000 -0.549800
vn -0.823100 -0.142100 -0.549900
vn -0.914500 -0.142100 -0.378800
vn -0.914500 -0.142100 -0.378800
vn -0.914500 -0.142100 0.378900
vn -0.378600 -0.142100 0.914500
vn 0.193200 -0.142100 0.970800
vn 0.914500 -0.142100 0.378900
vn 0.823000 -0.142000 0.549900
vn 0.914400 -0.142100 -0.378900
vn 0.378800 -0.142100 -0.914500
vn 0.549800 -0.142000 -0.823100
vn -0.378900 -0.142200 -0.914500
vn -0.193000 -0.142000 -0.970900
vn -0.193000 -0.142100 -0.970900
vn -0.989800 -0.142000 0.000000
vn -0.193200 -0.142100 0.970800
vn -0.193000 -0.142000 -0.970900
vt 0.013847 0.958976
vt 0.013774 0.958658
vt 0.014345 0.958931
vt 0.012727 0.959708
vt 0.011031 0.959920
vt 0.011097 0.960246
vt 0.014382 0.959204
vt 0.014462 0.959526
vt 0.013848 0.959466
vt 0.012801 0.960033
vt 0.008808 0.960094
vt 0.008861 0.960421
vt 0.006142 0.960223
vt 0.003155 0.960303
vt 0.003175 0.960631
vt 0.799154 0.960303
vt 0.795999 0.960330
vt 0.795999 0.960658
vt 0.792844 0.960303
vt 0.789820 0.960551
vt 0.789857 0.960223
vt 0.787191 0.960094
vt 0.787138 0.960421
vt 0.784968 0.959920
vt 0.784903 0.960246
vt 0.783272 0.959708
vt 0.782151 0.959466
vt 0.781617 0.959204
vt 0.781537 0.959526
vt 0.781654 0.958931
vt 0.781576 0.959251
vt 0.782225 0.958658
vt 0.782152 0.958976
vt 0.783277 0.958396
vt 0.784749 0.958154
vt 0.784692 0.958469
vt 0.786574 0.957942
vt 0.786527 0.958255
vt 0.788683 0.957768
vt 0.791004 0.957639
vt 0.793466 0.957559
vt 0.793454 0.957870
vt 0.795999 0.957532
vt 0.795999 0.957843
vt 0.798532 0.957559
vt 0.004995 0.957639
vt 0.007316 0.957768
vt 0.007353 0.958080
vt 0.009425 0.957942
vt 0.009472 0.958255
vt 0.011250 0.958154
vt 0.011307 0.958469
vt 0.012722 0.958396
vt 0.012788 0.958712
vt 0.013926 0.959790
vt 0.006179 0.960551
vt 0.792824 0.960631
vt 0.782072 0.959790
vt 0.783198 0.960033
vt 0.783211 0.958712
vt 0.790979 0.957950
vt 0.788646 0.958080
vt 0.005020 0.957950
vt 0.002545 0.957870
vt 0.002533 0.957559
vt 0.014423 0.959251
vt 0.799174 0.960631
vt 0.798545 0.957870
f 1/1/1 2/2/2 3/3/3
f 4/4/4 5/5/5 6/6/6
f 3/3/3 7/7/7 8/8/8
f 9/9/9 4/4/4 10/10/10
f 5/5/5 11/11/11 12/12/12
f 13/13/13 14/14/14 15/15/15
f 16/16/16 17/17/17 18/18/18
f 18/18/18 17/17/17 19/19/19
f 20/20/20 21/21/21 22/22/22
f 23/23/23 22/22/22 24/24/24
f 25/25/25 24/24/24 26/26/26
f 27/27/27 28/28/28 29/29/29
f 28/28/28 30/30/30 31/31/31
f 30/30/30 32/32/32 33/33/33
f 34/34/34 35/35/35 36/36/36
f 35/35/35 37/37/37 38/38/38
f 38/38/38 37/37/37 39/39/39
f 40/40/40 41/41/41 42/42/42
f 42/42/42 41/41/41 43/43/43
f 44/44/44 43/43/43 45/45/45
f 46/46/46 47/47/47 48/48/48
f 47/47/47 49/49/49 50/50/50
f 49/49/49 51/51/51 52/52/52
f 52/52/52 51/51/51 53/53/53
f 54/54/54 53/53/53 2/2/2
f 9/9/9 55/55/55 8/8/8
f 56/56/56 12/12/12 11/11/11
f 21/21/21 20/20/20 57/57/57
f 27/27/27 58/58/58 59/59/59
f 60/60/60 33/33/33 32/32/32
f 40/40/40 61/61/61 62/62/62
f 63/63/63 64/64/64 65/65/65
f 66/66/66 1/1/1 3/3/3
f 10/10/10 4/4/4 6/6/6
f 66/66/66 3/3/3 8/8/8
f 55/55/55 9/9/9 10/10/10
f 6/6/6 5/5/5 12/12/12
f 56/56/56 13/13/13 15/15/15
f 67/67/67 16/16/16 18/18/18
f 57/57/57 18/18/18 19/19/19
f 23/23/23 20/20/20 22/22/22
f 25/25/25 23/23/23 24/24/24
f 59/59/59 25/25/25 26/26/26
f 58/58/58 27/27/27 29/29/29
f 29/29/29 28/28/28 31/31/31
f 31/31/31 30/30/30 33/33/33
f 60/60/60 34/34/34 36/36/36
f 36/36/36 35/35/35 38/38/38
f 62/62/62 38/38/38 39/39/39
f 61/61/61 40/40/40 42/42/42
f 44/44/44 42/42/42 43/43/43
f 68/68/68 44/44/44 45/45/45
f 63/63/63 46/46/46 48/48/48
f 48/48/48 47/47/47 50/50/50
f 50/50/50 49/49/49 52/52/52
f 54/54/54 52/52/52 53/53/53
f 1/1/1 54/54/54 2/2/2
f 7/7/7 9/9/9 8/8/8
f 13/13/13 56/56/56 11/11/11
f 19/19/19 21/21/21 57/57/57
f 26/26/26 27/27/27 59/59/59
f 34/34/34 60/60/60 32/32/32
f 39/39/39 40/40/40 62/62/62
f 46/46/46 63/63/63 65/65/65
