v -0.346687 4.188066 -2.548941
v -0.357925 4.196855 -2.552599
v -0.360445 4.186249 -2.544008
v -0.354699 4.181680 -2.559175
v -0.363005 4.184208 -2.547278
v -0.360485 4.194815 -2.555869
v -0.360485 4.194815 -2.555869
v -0.363005 4.184208 -2.547278
v -0.360445 4.186249 -2.544008
v -0.346687 4.188066 -2.548941
v -0.360445 4.186249 -2.544008
v -0.351933 4.175287 -2.543832
v -0.354699 4.181680 -2.559175
v -0.354492 4.173246 -2.547102
v -0.363005 4.184208 -2.547278
v -0.363005 4.184208 -2.547278
v -0.354492 4.173246 -2.547102
v -0.351933 4.175287 -2.543832
v -0.346687 4.188066 -2.548941
v -0.351933 4.175287 -2.543832
v -0.340900 4.174932 -2.552248
v -0.354699 4.181680 -2.559175
v -0.343460 4.172891 -2.555517
v -0.354492 4.173246 -2.547102
v -0.351933 4.175287 -2.543832
v -0.354492 4.173246 -2.547102
v -0.343460 4.172891 -2.555517
v -0.346687 4.188066 -2.548941
v -0.340900 4.174932 -2.552248
v -0.338381 4.185538 -2.560839
v -0.354699 4.181680 -2.559175
v -0.340940 4.183497 -2.564108
v -0.343460 4.172891 -2.555517
v -0.340900 4.174932 -2.552248
v -0.343460 4.172891 -2.555517
v -0.340940 4.183497 -2.564108
v -0.346687 4.188066 -2.548941
v -0.338381 4.185538 -2.560839
v -0.346893 4.196499 -2.561014
v -0.354699 4.181680 -2.559175
v -0.349453 4.194459 -2.564284
v -0.340940 4.183497 -2.564108
v -0.338381 4.185538 -2.560839
v -0.340940 4.183497 -2.564108
v -0.349453 4.194459 -2.564284
v -0.346687 4.188066 -2.548941
v -0.346893 4.196499 -2.561014
v -0.357925 4.196855 -2.552599
v -0.354699 4.181680 -2.559175
v -0.360485 4.194815 -2.555869
v -0.349453 4.194459 -2.564284
v -0.346893 4.196499 -2.561014
v -0.349453 4.194459 -2.564284
v -0.360485 4.194815 -2.555869
v -0.357925 4.196855 -2.552599
v -0.360485 4.194815 -2.555869
v -0.360445 4.186249 -2.544008
v -0.360445 4.186249 -2.544008
v -0.363005 4.184208 -2.547278
v -0.351933 4.175287 -2.543832
v -0.340900 4.174932 -2.552248
v -0.351933 4.175287 -2.543832
v -0.343460 4.172891 -2.555517
v -0.338381 4.185538 -2.560839
v -0.340900 4.174932 -2.552248
v -0.340940 4.183497 -2.564108
v -0.346893 4.196499 -2.561014
v -0.338381 4.185538 -2.560839
v -0.349453 4.194459 -2.564284
v -0.357925 4.196855 -2.552599
v -0.346893 4.196499 -2.561014
v -0.360485 4.194815 -2.555869
vn 0.203600 0.586600 0.783900
vn 0.203600 0.586600 0.783900
vn 0.203600 0.586600 0.783900
vn -0.820300 -0.229500 -0.523900
vn -0.820300 -0.229500 -0.523900
vn -0.820300 -0.229500 -0.523900
vn -0.813000 0.470800 0.342700
vn -0.813000 0.470800 0.342700
vn -0.813000 0.470800 0.342700
vn 0.298100 0.246300 0.922200
vn 0.298100 0.246300 0.922200
vn 0.298100 0.246300 0.922200
vn -0.725700 -0.569800 -0.385600
vn -0.725700 -0.569800 -0.385600
vn -0.725700 -0.569800 -0.385600
vn -0.563600 -0.426300 0.707500
vn -0.563600 -0.426300 0.707500
vn -0.563600 -0.426300 0.707500
vn 0.606500 0.067700 0.792200
vn 0.606500 0.067700 0.792200
vn 0.606500 0.067700 0.792200
vn -0.417400 -0.748300 -0.515600
vn -0.417400 -0.748300 -0.515600
vn -0.417400 -0.748300 -0.515600
vn 0.249300 -0.897100 0.364700
vn 0.249300 -0.897100 0.364700
vn 0.249300 -0.897100 0.364700
vn 0.820300 0.229500 0.523900
vn 0.820300 0.229500 0.523900
vn 0.820300 0.229500 0.523900
vn -0.203600 -0.586600 -0.783900
vn -0.203600 -0.586600 -0.783900
vn -0.203600 -0.586600 -0.783900
vn 0.813000 -0.470800 -0.342700
vn 0.813000 -0.470800 -0.342700
vn 0.813000 -0.470800 -0.342700
vn 0.725700 0.569800 0.385600
vn 0.725700 0.569800 0.385600
vn 0.725700 0.569800 0.385600
vn -0.298100 -0.246300 -0.922200
vn -0.298100 -0.246300 -0.922200
vn -0.298100 -0.246300 -0.922200
vn 0.563600 0.426400 -0.707500
vn 0.563600 0.426400 -0.707500
vn 0.563600 0.426400 -0.707500
vn 0.417400 0.748300 0.515600
vn 0.417400 0.748300 0.515600
vn 0.417400 0.748300 0.515600
vn -0.606500 -0.067800 -0.792200
vn -0.606500 -0.067800 -0.792200
vn -0.606500 -0.067800 -0.792200
vn -0.249300 0.897200 -0.364500
vn -0.249300 0.897200 -0.364500
vn -0.249300 0.897200 -0.364500
vn -0.813000 0.470700 0.342700
vn -0.813000 0.470700 0.342700
vn -0.813000 0.470700 0.342700
vn -0.563700 -0.426400 0.707400
vn -0.563700 -0.426400 0.707400
vn -0.563700 -0.426400 0.707400
vn 0.249300 -0.897200 0.364600
vn 0.249300 -0.897200 0.364600
vn 0.249300 -0.897200 0.364600
vn 0.813000 -0.470700 -0.342700
vn 0.813000 -0.470700 -0.342700
vn 0.813000 -0.470700 -0.342700
vn 0.563800 0.426400 -0.707300
vn 0.563800 0.426400 -0.707300
vn 0.563800 0.426400 -0.707300
vn -0.249200 0.897100 -0.364900
vn -0.249200 0.897100 -0.364900
vn -0.249200 0.897100 -0.364900
vt 0.000000 0.000000
vt 0.000000 0.000000
vt 0.000000 0.000000
vt 0.000000 0.000000
vt 0.000000 0.000000
vt 0.000000 0.000000
vt 0.000000 0.000000
vt 0.000000 0.000000
vt 0.000000 0.000000
vt 0.000000 0.000000
vt 0.000000 0.000000
vt 0.000000 0.000000
vt 0.000000 0.000000
vt 0.000000 0.000000
vt 0.000000 0.000000
vt 0.000000 0.000000
vt 0.000000 0.000000
vt 0.000000 0.000000
vt 0.000000 0.000000
vt 0.000000 0.000000
vt 0.000000 0.000000
vt 0.000000 0.000000
vt 0.000000 0.000000
vt 0.000000 0.000000
vt 0.000000 0.000000
vt 0.000000 0.000000
vt 0.000000 0.000000
vt 0.000000 0.000000
vt 0.000000 0.000000
vt 0.000000 0.000000
vt 0.000000 0.000000
vt 0.000000 0.000000
vt 0.000000 0.000000
vt 0.000000 0.000000
vt 0.000000 0.000000
vt 0.000000 0.000000
vt 0.000000 0.000000
vt 0.000000 0.000000
vt 0.000000 0.000000
vt 0.000000 0.000000
vt 0.000000 0.000000
vt 0.000000 0.000000
vt 0.000000 0.000000
vt 0.000000 0.000000
vt 0.000000 0.000000
vt 0.000000 0.000000
vt 0.000000 0.000000
vt 0.000000 0.000000
vt 0.000000 0.000000
vt 0.000000 0.000000
vt 0.000000 0.000000
vt 0.000000 0.000000
vt 0.000000 0.000000
vt 0.000000 0.000000
vt 0.000000 0.000000
vt 0.000000 0.000000
vt 0.000000 0.000000
vt 0.000000 0.000000
vt 0.000000 0.000000
vt 0.000000 0.000000
vt 0.000000 0.000000
vt 0.000000 0.000000
vt 0.000000 0.000000
vt 0.000000 0.000000
vt 0.000000 0.000000
vt 0.000000 0.000000
vt 0.000000 0.000000
vt 0.000000 0.000000
vt 0.000000 0.000000
vt 0.000000 0.000000
vt 0.000000 0.000000
vt 0.000000 0.000000
f 1/1/1 2/2/2 3/3/3
f 4/4/4 5/5/5 6/6/6
f 7/7/7 8/8/8 9/9/9
f 10/10/10 11/11/11 12/12/12
f 13/13/13 14/14/14 15/15/15
f 16/16/16 17/17/17 18/18/18
f 19/19/19 20/20/20 21/21/21
f 22/22/22 23/23/23 24/24/24
f 25/25/25 26/26/26 27/27/27
f 28/28/28 29/29/29 30/30/30
f 31/31/31 32/32/32 33/33/33
f 34/34/34 35/35/35 36/36/36
f 37/37/37 38/38/38 39/39/39
f 40/40/40 41/41/41 42/42/42
f 43/43/43 44/44/44 45/45/45
f 46/46/46 47/47/47 48/48/48
f 49/49/49 50/50/50 51/51/51
f 52/52/52 53/53/53 54/54/54
f 55/55/55 56/56/56 57/57/57
f 58/58/58 59/59/59 60/60/60
f 61/61/61 62/62/62 63/63/63
f 64/64/64 65/65/65 66/66/66
f 67/67/67 68/68/68 69/69/69
f 70/70/70 71/71/71 72/72/72
