v -0.529549 3.718630 -2.031447
v -0.530004 3.718630 -2.029161
v -0.523716 3.713755 -2.026557
v -0.531299 3.718630 -2.027223
v -0.526486 3.713755 -2.022411
v -0.533237 3.718630 -2.025928
v -0.530632 3.713755 -2.019640
v -0.535523 3.718630 -2.025473
v -0.535523 3.713755 -2.018667
v -0.537809 3.718630 -2.025928
v -0.540414 3.713755 -2.019640
v -0.539747 3.718630 -2.027223
v -0.544560 3.713755 -2.022410
v -0.541042 3.718630 -2.029161
v -0.547330 3.713755 -2.026556
v -0.541497 3.718630 -2.031447
v -0.548303 3.713755 -2.031447
v -0.541043 3.718630 -2.033733
v -0.547330 3.713755 -2.036338
v -0.539748 3.718630 -2.035671
v -0.544560 3.713755 -2.040484
v -0.537809 3.718630 -2.036966
v -0.540414 3.713755 -2.043254
v -0.535523 3.718630 -2.037421
v -0.535523 3.713755 -2.044227
v -0.533237 3.718630 -2.036967
v -0.530633 3.713755 -2.043254
v -0.531299 3.718630 -2.035671
v -0.526486 3.713755 -2.040484
v -0.530004 3.718630 -2.033733
v -0.523716 3.713755 -2.036338
v -0.522743 3.713755 -2.031447
vn 0.582300 0.813000 0.000000
vn 0.538000 0.813000 0.222800
vn 0.537900 0.813000 0.222800
vn 0.411800 0.813000 0.411700
vn 0.411700 0.813000 0.411700
vn 0.222800 0.813000 0.537900
vn 0.222800 0.813000 0.537900
vn 0.000000 0.813000 0.582300
vn 0.000000 0.813000 0.582200
vn -0.222800 0.813000 0.537900
vn -0.222800 0.813000 0.537900
vn -0.411700 0.813000 0.411700
vn -0.411700 0.813000 0.411700
vn -0.537900 0.813000 0.222800
vn -0.537900 0.813000 0.222800
vn -0.582300 0.813000 0.000000
vn -0.582300 0.813000 0.000000
vn -0.537900 0.813000 -0.222800
vn -0.537900 0.813000 -0.222800
vn -0.411700 0.813000 -0.411700
vn -0.411700 0.813000 -0.411700
vn -0.222800 0.813000 -0.537900
vn -0.222800 0.813000 -0.537900
vn -0.000100 0.813000 -0.582200
vn 0.000000 0.813000 -0.582200
vn 0.222800 0.813000 -0.538000
vn 0.222800 0.813000 -0.537900
vn 0.411700 0.812900 -0.411800
vn 0.411800 0.813000 -0.411700
vn 0.537900 0.813000 -0.222900
vn 0.537900 0.813000 -0.222800
vn 0.582300 0.813000 0.000000
vt 0.000000 0.000000
vt 0.000000 0.000000
vt 0.000000 0.000000
vt 0.000000 0.000000
vt 0.000000 0.000000
vt 0.000000 0.000000
vt 0.000000 0.000000
vt 0.000000 0.000000
vt 0.000000 0.000000
vt 0.000000 0.000000
vt 0.000000 0.000000
vt 0.000000 0.000000
vt 0.000000 0.000000
vt 0.000000 0.000000
vt 0.000000 0.000000
vt 0.000000 0.000000
vt 0.000000 0.000000
vt 0.000000 0.000000
vt 0.000000 0.000000
vt 0.000000 0.000000
vt 0.000000 0.000000
vt 0.000000 0.000000
vt 0.000000 0.000000
vt 0.000000 0.000000
vt 0.000000 0.000000
vt 0.000000 0.000000
vt 0.000000 0.000000
vt 0.000000 0.000000
vt 0.000000 0.000000
vt 0.000000 0.000000
vt 0.000000 0.000000
vt 0.000000 0.000000
f 1/1/1 2/2/2 3/3/3
f 4/4/4 5/5/5 3/3/3
f 4/4/4 6/6/6 7/7/7
f 8/8/8 9/9/9 7/7/7
f 10/10/10 11/11/11 9/9/9
f 12/12/12 13/13/13 11/11/11
f 14/14/14 15/15/15 13/13/13
f 16/16/16 17/17/17 15/15/15
f 18/18/18 19/19/19 17/17/17
f 18/18/18 20/20/20 21/21/21
f 20/20/20 22/22/22 23/23/23
f 24/24/24 25/25/25 23/23/23
f 26/26/26 27/27/27 25/25/25
f 26/26/26 28/28/28 29/29/29
f 28/28/28 30/30/30 31/31/31
f 1/1/1 32/32/32 31/31/31
f 32/32/32 1/1/1 3/3/3
f 2/2/2 4/4/4 3/3/3
f 5/5/5 4/4/4 7/7/7
f 6/6/6 8/8/8 7/7/7
f 8/8/8 10/10/10 9/9/9
f 10/10/10 12/12/12 11/11/11
f 12/12/12 14/14/14 13/13/13
f 14/14/14 16/16/16 15/15/15
f 16/16/16 18/18/18 17/17/17
f 19/19/19 18/18/18 21/21/21
f 21/21/21 20/20/20 23/23/23
f 22/22/22 24/24/24 23/23/23
f 24/24/24 26/26/26 25/25/25
f 27/27/27 26/26/26 29/29/29
f 29/29/29 28/28/28 31/31/31
f 30/30/30 1/1/1 31/31/31
