v -0.095746 4.188066 -2.324446
v -0.101183 4.196855 -2.334939
v -0.109008 4.186248 -2.330588
v -0.094270 4.181680 -2.337359
v -0.108537 4.184208 -2.334714
v -0.100712 4.194815 -2.339065
v -0.101183 4.196855 -2.334939
v -0.100712 4.194815 -2.339065
v -0.108537 4.184208 -2.334714
v -0.095746 4.188066 -2.324446
v -0.109008 4.186248 -2.330588
v -0.103068 4.175287 -2.324489
v -0.094270 4.181680 -2.337359
v -0.102597 4.173246 -2.328614
v -0.108537 4.184208 -2.334714
v -0.109008 4.186248 -2.330588
v -0.108537 4.184208 -2.334714
v -0.102597 4.173246 -2.328614
v -0.095746 4.188066 -2.324446
v -0.103068 4.175287 -2.324489
v -0.089303 4.174932 -2.322740
v -0.094270 4.181680 -2.337359
v -0.088832 4.172891 -2.326865
v -0.102597 4.173246 -2.328614
v -0.103068 4.175287 -2.324489
v -0.102597 4.173246 -2.328614
v -0.088832 4.172891 -2.326865
v -0.095746 4.188066 -2.324446
v -0.089303 4.174932 -2.322740
v -0.081479 4.185538 -2.327091
v -0.094270 4.181680 -2.337359
v -0.081007 4.183497 -2.331216
v -0.088832 4.172891 -2.326865
v -0.089303 4.174932 -2.322740
v -0.088832 4.172891 -2.326865
v -0.081007 4.183497 -2.331216
v -0.095746 4.188066 -2.324446
v -0.081479 4.185538 -2.327091
v -0.087419 4.196499 -2.333190
v -0.094270 4.181680 -2.337359
v -0.086947 4.194459 -2.337316
v -0.081007 4.183497 -2.331216
v -0.081479 4.185538 -2.327091
v -0.081007 4.183497 -2.331216
v -0.086947 4.194459 -2.337316
v -0.095746 4.188066 -2.324446
v -0.087419 4.196499 -2.333190
v -0.101183 4.196855 -2.334939
v -0.094270 4.181680 -2.337359
v -0.100712 4.194815 -2.339065
v -0.086947 4.194459 -2.337316
v -0.087419 4.196499 -2.333190
v -0.086947 4.194459 -2.337316
v -0.100712 4.194815 -2.339065
v -0.109008 4.186248 -2.330588
v -0.101183 4.196855 -2.334939
v -0.108537 4.184208 -2.334714
v -0.103068 4.175287 -2.324489
v -0.109008 4.186248 -2.330588
v -0.102597 4.173246 -2.328614
v -0.089303 4.174932 -2.322740
v -0.081479 4.185538 -2.327091
v -0.087419 4.196499 -2.333190
v -0.081479 4.185538 -2.327091
v -0.086947 4.194459 -2.337316
v -0.101183 4.196855 -2.334939
v -0.087419 4.196499 -2.333190
v -0.100712 4.194815 -2.339065
vn -0.405200 0.586600 0.701300
vn -0.405200 0.586600 0.701300
vn -0.405200 0.586600 0.701300
vn -0.216600 -0.229500 -0.948900
vn -0.216600 -0.229500 -0.948900
vn -0.216600 -0.229500 -0.948900
vn -0.819600 0.470700 -0.326500
vn -0.819600 0.470700 -0.326500
vn -0.819600 0.470700 -0.326500
vn -0.434900 0.246300 0.866100
vn -0.434900 0.246300 0.866100
vn -0.434900 0.246300 0.866100
vn -0.246300 -0.569700 -0.784000
vn -0.246300 -0.569700 -0.784000
vn -0.246300 -0.569700 -0.784000
vn -0.898000 -0.426400 0.108300
vn -0.898000 -0.426400 0.108300
vn -0.898000 -0.426400 0.108300
vn -0.124000 0.067800 0.990000
vn -0.124000 0.067800 0.990000
vn -0.124000 0.067800 0.990000
vn 0.064600 -0.748300 -0.660200
vn 0.064600 -0.748300 -0.660200
vn 0.064600 -0.748300 -0.660200
vn -0.078400 -0.897200 0.434600
vn -0.078400 -0.897200 0.434600
vn -0.078400 -0.897200 0.434600
vn 0.216600 0.229500 0.948900
vn 0.216600 0.229500 0.948900
vn 0.216600 0.229500 0.948900
vn 0.405100 -0.586600 -0.701300
vn 0.405100 -0.586600 -0.701300
vn 0.405100 -0.586600 -0.701300
vn 0.819600 -0.470700 0.326600
vn 0.819600 -0.470700 0.326600
vn 0.819600 -0.470700 0.326600
vn 0.246300 0.569800 0.784000
vn 0.246300 0.569800 0.784000
vn 0.246300 0.569800 0.784000
vn 0.434900 -0.246300 -0.866100
vn 0.434900 -0.246300 -0.866100
vn 0.434900 -0.246300 -0.866100
vn 0.898000 0.426400 -0.108400
vn 0.898000 0.426400 -0.108400
vn 0.898000 0.426400 -0.108400
vn -0.064600 0.748300 0.660200
vn -0.064600 0.748300 0.660200
vn -0.064600 0.748300 0.660200
vn 0.124000 -0.067800 -0.990000
vn 0.124000 -0.067800 -0.990000
vn 0.124000 -0.067800 -0.990000
vn 0.078400 0.897200 -0.434500
vn 0.078400 0.897200 -0.434500
vn 0.078400 0.897200 -0.434500
vn -0.819700 0.470800 -0.326400
vn -0.819700 0.470800 -0.326400
vn -0.819700 0.470800 -0.326400
vn -0.898000 -0.426400 0.108200
vn -0.898000 -0.426400 0.108200
vn -0.898000 -0.426400 0.108200
vn -0.078400 -0.897200 0.434600
vn 0.819600 -0.470700 0.326600
vn 0.898000 0.426400 -0.108200
vn 0.898000 0.426400 -0.108200
vn 0.898000 0.426400 -0.108200
vn 0.078400 0.897000 -0.434900
vn 0.078400 0.897000 -0.434900
vn 0.078400 0.897000 -0.434900
vt 0.000000 0.000000
vt 0.000000 0.000000
vt 0.000000 0.000000
vt 0.000000 0.000000
vt 0.000000 0.000000
vt 0.000000 0.000000
vt 0.000000 0.000000
vt 0.000000 0.000000
vt 0.000000 0.000000
vt 0.000000 0.000000
vt 0.000000 0.000000
vt 0.000000 0.000000
vt 0.000000 0.000000
vt 0.000000 0.000000
vt 0.000000 0.000000
vt 0.000000 0.000000
vt 0.000000 0.000000
vt 0.000000 0.000000
vt 0.000000 0.000000
vt 0.000000 0.000000
vt 0.000000 0.000000
vt 0.000000 0.000000
vt 0.000000 0.000000
vt 0.000000 0.000000
vt 0.000000 0.000000
vt 0.000000 0.000000
vt 0.000000 0.000000
vt 0.000000 0.000000
vt 0.000000 0.000000
vt 0.000000 0.000000
vt 0.000000 0.000000
vt 0.000000 0.000000
vt 0.000000 0.000000
vt 0.000000 0.000000
vt 0.000000 0.000000
vt 0.000000 0.000000
vt 0.000000 0.000000
vt 0.000000 0.000000
vt 0.000000 0.000000
vt 0.000000 0.000000
vt 0.000000 0.000000
vt 0.000000 0.000000
vt 0.000000 0.000000
vt 0.000000 0.000000
vt 0.000000 0.000000
vt 0.000000 0.000000
vt 0.000000 0.000000
vt 0.000000 0.000000
vt 0.000000 0.000000
vt 0.000000 0.000000
vt 0.000000 0.000000
vt 0.000000 0.000000
vt 0.000000 0.000000
vt 0.000000 0.000000
vt 0.000000 0.000000
vt 0.000000 0.000000
vt 0.000000 0.000000
vt 0.000000 0.000000
vt 0.000000 0.000000
vt 0.000000 0.000000
vt 0.000000 0.000000
vt 0.000000 0.000000
vt 0.000000 0.000000
vt 0.000000 0.000000
vt 0.000000 0.000000
vt 0.000000 0.000000
vt 0.000000 0.000000
vt 0.000000 0.000000
f 1/1/1 2/2/2 3/3/3
f 4/4/4 5/5/5 6/6/6
f 7/7/7 8/8/8 9/9/9
f 10/10/10 11/11/11 12/12/12
f 13/13/13 14/14/14 15/15/15
f 16/16/16 17/17/17 18/18/18
f 19/19/19 20/20/20 21/21/21
f 22/22/22 23/23/23 24/24/24
f 25/25/25 26/26/26 27/27/27
f 28/28/28 29/29/29 30/30/30
f 31/31/31 32/32/32 33/33/33
f 34/34/34 35/35/35 36/36/36
f 37/37/37 38/38/38 39/39/39
f 40/40/40 41/41/41 42/42/42
f 43/43/43 44/44/44 45/45/45
f 46/46/46 47/47/47 48/48/48
f 49/49/49 50/50/50 51/51/51
f 52/52/52 53/53/53 54/54/54
f 55/55/55 56/56/56 57/57/57
f 58/58/58 59/59/59 60/60/60
f 61/61/61 25/25/25 27/27/27
f 62/62/62 34/34/34 36/36/36
f 63/63/63 64/64/64 65/65/65
f 66/66/66 67/67/67 68/68/68
