v 0.489249 1.958797 -1.444348
v 0.486899 1.958797 -1.452094
v 0.501358 1.952711 -1.454970
v 0.511596 1.958797 -1.422001
v 0.504457 1.958797 -1.425817
v 0.512647 1.952711 -1.438075
v 0.537557 1.952711 -1.435621
v 0.543199 1.958797 -1.422001
v 0.535453 1.958797 -1.419651
v 0.565546 1.958797 -1.444348
v 0.561730 1.958797 -1.437209
v 0.549472 1.952711 -1.445400
v 0.565546 1.958797 -1.475952
v 0.567896 1.958797 -1.468206
v 0.553437 1.952711 -1.465330
v 0.537557 1.952711 -1.484679
v 0.543199 1.958797 -1.498299
v 0.550338 1.958797 -1.494483
v 0.517237 1.952711 -1.484679
v 0.511596 1.958797 -1.498299
v 0.519342 1.958797 -1.500648
v 0.486899 1.958797 -1.468206
v 0.501358 1.952711 -1.465330
v 0.500848 1.952711 -1.460150
v 0.493064 1.958797 -1.437209
v 0.505322 1.952711 -1.445400
v 0.508624 1.952711 -1.441377
v 0.502869 1.952711 -1.449990
v 0.517237 1.952711 -1.435621
v 0.522218 1.952711 -1.434111
v 0.519342 1.958797 -1.419651
v 0.519342 1.958797 -1.419651
v 0.522218 1.952711 -1.434111
v 0.527397 1.952711 -1.433600
v 0.532577 1.952711 -1.434111
v 0.542147 1.952711 -1.438075
v 0.550338 1.958797 -1.425817
v 0.546171 1.952711 -1.441377
v 0.551926 1.952711 -1.449990
v 0.553437 1.952711 -1.454970
v 0.553947 1.952711 -1.460150
v 0.568689 1.958797 -1.460150
v 0.551926 1.952711 -1.470310
v 0.549473 1.952711 -1.474900
v 0.546171 1.952711 -1.478923
v 0.556595 1.958797 -1.489348
v 0.542148 1.952711 -1.482225
v 0.532577 1.952711 -1.486189
v 0.535453 1.958797 -1.500648
v 0.527397 1.952711 -1.486699
v 0.522218 1.952711 -1.486189
v 0.519342 1.958797 -1.500648
v 0.512647 1.952711 -1.482225
v 0.504457 1.958797 -1.494483
v 0.508624 1.952711 -1.478923
v 0.498200 1.958797 -1.489348
v 0.505322 1.952711 -1.474900
v 0.493064 1.958797 -1.483091
v 0.502869 1.952711 -1.470310
v 0.489249 1.958797 -1.475952
v 0.522218 1.952711 -1.486189
v 0.486105 1.958797 -1.460150
v 0.498200 1.958797 -1.430952
v 0.527397 1.958797 -1.418858
v 0.556595 1.958797 -1.430952
v 0.567896 1.958797 -1.452094
v 0.561730 1.958797 -1.483091
v 0.527397 1.958797 -1.501442
vn -0.352500 -0.924300 0.146000
vn -0.374200 -0.924300 0.074400
vn -0.374200 -0.924300 0.074400
vn -0.146000 -0.924300 0.352500
vn -0.212000 -0.924300 0.317200
vn -0.212000 -0.924300 0.317300
vn 0.146000 -0.924300 0.352500
vn 0.146000 -0.924300 0.352500
vn 0.074400 -0.924300 0.374200
vn 0.352500 -0.924300 0.146000
vn 0.317200 -0.924300 0.212000
vn 0.317300 -0.924300 0.212000
vn 0.352500 -0.924300 -0.146000
vn 0.374200 -0.924300 -0.074400
vn 0.374200 -0.924300 -0.074400
vn 0.146000 -0.924300 -0.352500
vn 0.146000 -0.924300 -0.352500
vn 0.212000 -0.924300 -0.317200
vn -0.146000 -0.924300 -0.352500
vn -0.146000 -0.924300 -0.352500
vn -0.074400 -0.924300 -0.374200
vn -0.374200 -0.924300 -0.074400
vn -0.374200 -0.924300 -0.074400
vn -0.381500 -0.924300 0.000000
vn -0.317300 -0.924300 0.212000
vn -0.317300 -0.924300 0.212000
vn -0.269800 -0.924300 0.269800
vn -0.352500 -0.924300 0.146000
vn -0.146000 -0.924300 0.352500
vn -0.074400 -0.924300 0.374200
vn -0.074400 -0.924300 0.374200
vn -0.074400 -0.924300 0.374200
vn -0.074400 -0.924300 0.374200
vn 0.000000 -0.924300 0.381600
vn 0.074400 -0.924300 0.374200
vn 0.212000 -0.924300 0.317300
vn 0.212000 -0.924300 0.317200
vn 0.269800 -0.924300 0.269800
vn 0.352500 -0.924300 0.146000
vn 0.374200 -0.924300 0.074400
vn 0.381600 -0.924300 0.000000
vn 0.381600 -0.924300 0.000000
vn 0.352500 -0.924300 -0.146000
vn 0.317300 -0.924300 -0.212000
vn 0.269800 -0.924300 -0.269800
vn 0.269800 -0.924300 -0.269800
vn 0.212000 -0.924300 -0.317200
vn 0.074400 -0.924300 -0.374200
vn 0.074400 -0.924300 -0.374200
vn 0.000000 -0.924300 -0.381600
vn -0.074400 -0.924300 -0.374200
vn -0.074400 -0.924300 -0.374200
vn -0.212000 -0.924300 -0.317300
vn -0.212000 -0.924300 -0.317300
vn -0.269800 -0.924300 -0.269800
vn -0.269800 -0.924300 -0.269800
vn -0.317200 -0.924300 -0.212000
vn -0.317300 -0.924300 -0.212000
vn -0.352500 -0.924300 -0.146000
vn -0.352500 -0.924300 -0.146000
vn -0.074400 -0.924300 -0.374200
vn -0.381600 -0.924300 0.000000
vn -0.269800 -0.924300 0.269800
vn 0.000000 -0.924300 0.381600
vn 0.269800 -0.924300 0.269800
vn 0.374200 -0.924300 0.074400
vn 0.317200 -0.924300 -0.212000
vn 0.000000 -0.924300 -0.381600
vt 0.021320 0.933073
vt 0.021794 0.932355
vt 0.014006 0.929236
vt 0.010010 0.935144
vt 0.014195 0.934790
vt 0.008643 0.930802
vt 0.705510 0.931029
vt 0.701535 0.935144
vt 0.706365 0.935362
vt 0.690224 0.933073
vt 0.691631 0.933734
vt 0.699101 0.930123
vt 0.693028 0.930143
vt 0.691257 0.930861
vt 0.698181 0.928276
vt 0.706726 0.926482
vt 0.704485 0.928071
vt 0.701158 0.928425
vt 0.004819 0.926482
vt 0.007059 0.928071
vt 0.003570 0.927854
vt 0.020288 0.930861
vt 0.013364 0.928276
vt 0.013942 0.928756
vt 0.019914 0.933734
vt 0.012444 0.930123
vt 0.010806 0.930496
vt 0.013513 0.929698
vt 0.006034 0.931029
vt 0.003103 0.931170
vt 0.005180 0.935362
vt 0.716724 0.935362
vt 0.714647 0.931170
vt 0.711545 0.931217
vt 0.708442 0.931170
vt 0.702902 0.930802
vt 0.697349 0.934790
vt 0.700738 0.930496
vt 0.698032 0.929698
vt 0.697539 0.929236
vt 0.697602 0.928756
vt 0.690128 0.931608
vt 0.699222 0.927814
vt 0.700663 0.927388
vt 0.702439 0.927015
vt 0.698078 0.928901
vt 0.704482 0.926709
vt 0.709102 0.926342
vt 0.707975 0.927854
vt 0.711545 0.926295
vt 0.713987 0.926342
vt 0.715115 0.927854
vt 0.007062 0.926709
vt 0.010387 0.928425
vt 0.009106 0.927015
vt 0.013467 0.928901
vt 0.010882 0.927388
vt 0.016208 0.929481
vt 0.012323 0.927814
vt 0.018516 0.930143
vt 0.002443 0.926342
vt 0.021416 0.931608
vt 0.017532 0.934314
vt 0.711545 0.935436
vt 0.694013 0.934314
vt 0.689750 0.932355
vt 0.695336 0.929481
vt 0.711545 0.927780
f 1/1/1 2/2/2 3/3/3
f 4/4/4 5/5/5 6/6/6
f 7/7/7 8/8/8 9/9/9
f 10/10/10 11/11/11 12/12/12
f 13/13/13 14/14/14 15/15/15
f 16/16/16 17/17/17 18/18/18
f 19/19/19 20/20/20 21/21/21
f 22/22/22 23/23/23 24/24/24
f 25/25/25 26/26/26 27/27/27
f 24/24/24 3/3/3 2/2/2
f 28/28/28 26/26/26 25/25/25
f 27/27/27 6/6/6 5/5/5
f 29/29/29 30/30/30 31/31/31
f 32/32/32 33/33/33 34/34/34
f 34/34/34 35/35/35 9/9/9
f 8/8/8 7/7/7 36/36/36
f 37/37/37 36/36/36 38/38/38
f 38/38/38 12/12/12 11/11/11
f 10/10/10 39/39/39 40/40/40
f 40/40/40 41/41/41 42/42/42
f 41/41/41 15/15/15 14/14/14
f 13/13/13 43/43/43 44/44/44
f 44/44/44 45/45/45 46/46/46
f 45/45/45 47/47/47 18/18/18
f 16/16/16 48/48/48 49/49/49
f 49/49/49 48/48/48 50/50/50
f 50/50/50 51/51/51 52/52/52
f 19/19/19 53/53/53 54/54/54
f 53/53/53 55/55/55 56/56/56
f 55/55/55 57/57/57 58/58/58
f 57/57/57 59/59/59 60/60/60
f 60/60/60 59/59/59 23/23/23
f 28/28/28 1/1/1 3/3/3
f 29/29/29 4/4/4 6/6/6
f 35/35/35 7/7/7 9/9/9
f 39/39/39 10/10/10 12/12/12
f 43/43/43 13/13/13 15/15/15
f 47/47/47 16/16/16 18/18/18
f 61/61/61 19/19/19 21/21/21
f 62/62/62 22/22/22 24/24/24
f 63/63/63 25/25/25 27/27/27
f 62/62/62 24/24/24 2/2/2
f 1/1/1 28/28/28 25/25/25
f 63/63/63 27/27/27 5/5/5
f 4/4/4 29/29/29 31/31/31
f 64/64/64 32/32/32 34/34/34
f 64/64/64 34/34/34 9/9/9
f 37/37/37 8/8/8 36/36/36
f 65/65/65 37/37/37 38/38/38
f 65/65/65 38/38/38 11/11/11
f 66/66/66 10/10/10 40/40/40
f 66/66/66 40/40/40 42/42/42
f 42/42/42 41/41/41 14/14/14
f 67/67/67 13/13/13 44/44/44
f 67/67/67 44/44/44 46/46/46
f 46/46/46 45/45/45 18/18/18
f 17/17/17 16/16/16 49/49/49
f 68/68/68 49/49/49 50/50/50
f 68/68/68 50/50/50 52/52/52
f 20/20/20 19/19/19 54/54/54
f 54/54/54 53/53/53 56/56/56
f 56/56/56 55/55/55 58/58/58
f 58/58/58 57/57/57 60/60/60
f 22/22/22 60/60/60 23/23/23
