v 0.459859 1.913395 -1.473584
v 0.451616 1.908769 -1.475224
v 0.451616 1.909586 -1.460150
v 0.463778 1.913395 -1.486502
v 0.470141 1.913395 -1.498407
v 0.454524 1.903057 -1.508842
v 0.451616 1.903057 -1.503402
v 0.451616 1.906149 -1.491540
v 0.451616 1.900198 -1.510785
v 0.478705 1.913395 -1.508842
v 0.465424 1.903057 -1.522123
v 0.451616 1.890460 -1.529480
v 0.454524 1.890460 -1.533023
v 0.451616 1.885299 -1.535931
v 0.451616 1.885299 -1.535931
v 0.458068 1.890460 -1.535931
v 0.489140 1.913395 -1.517406
v 0.478705 1.903057 -1.533023
v 0.476762 1.900198 -1.535931
v 0.496008 1.906149 -1.535931
v 0.484146 1.903057 -1.535931
v 0.501045 1.913395 -1.523769
v 0.513963 1.913395 -1.527688
v 0.512324 1.908769 -1.535931
v 0.513963 1.913395 -1.527688
v 0.527397 1.913395 -1.529011
v 0.527397 1.909586 -1.535931
v 0.540832 1.913395 -1.527688
v 0.542471 1.908769 -1.535931
v 0.553749 1.913395 -1.523769
v 0.565655 1.913395 -1.517406
v 0.576090 1.903057 -1.533023
v 0.570649 1.903057 -1.535931
v 0.558787 1.906149 -1.535931
v 0.578033 1.900198 -1.535931
v 0.576090 1.913395 -1.508842
v 0.589371 1.903057 -1.522123
v 0.596727 1.890460 -1.535931
v 0.600270 1.890460 -1.533023
v 0.603179 1.885299 -1.535931
v 0.603179 1.885299 -1.535931
v 0.603179 1.890460 -1.529480
v 0.584653 1.913395 -1.498407
v 0.600270 1.903057 -1.508842
v 0.603179 1.900198 -1.510785
v 0.603179 1.903057 -1.503402
v 0.603179 1.906149 -1.491539
v 0.591017 1.913395 -1.486502
v 0.594935 1.913395 -1.473584
v 0.603179 1.908769 -1.475224
v 0.596259 1.913395 -1.460150
v 0.603179 1.909586 -1.460150
v 0.594935 1.913395 -1.446716
v 0.603179 1.908769 -1.445076
v 0.591017 1.913395 -1.433798
v 0.584653 1.913395 -1.421893
v 0.600270 1.903057 -1.411458
v 0.603179 1.903057 -1.416898
v 0.603179 1.906149 -1.428760
v 0.603179 1.900198 -1.409515
v 0.576090 1.913395 -1.411458
v 0.589371 1.903057 -1.398177
v 0.603179 1.890460 -1.390820
v 0.600270 1.890460 -1.387277
v 0.603179 1.885299 -1.384369
v 0.596727 1.890460 -1.384369
v 0.565655 1.913395 -1.402894
v 0.576090 1.903057 -1.387277
v 0.578033 1.900198 -1.384369
v 0.570649 1.903057 -1.384369
v 0.558787 1.906149 -1.384369
v 0.553749 1.913395 -1.396531
v 0.540832 1.913395 -1.392612
v 0.542471 1.908769 -1.384369
v 0.527397 1.913395 -1.391289
v 0.527397 1.909586 -1.384369
v 0.513963 1.913395 -1.392612
v 0.512324 1.908769 -1.384369
v 0.513963 1.913395 -1.392612
v 0.501045 1.913395 -1.396531
v 0.489140 1.913395 -1.402894
v 0.478705 1.903057 -1.387277
v 0.484146 1.903057 -1.384369
v 0.496008 1.906149 -1.384369
v 0.476762 1.900198 -1.384369
v 0.478705 1.913395 -1.411458
v 0.465424 1.903057 -1.398177
v 0.458068 1.890460 -1.384369
v 0.454524 1.890460 -1.387277
v 0.451616 1.885299 -1.384369
v 0.451616 1.890460 -1.390821
v 0.470141 1.913395 -1.421893
v 0.454524 1.903057 -1.411458
v 0.451616 1.900198 -1.409515
v 0.451616 1.903057 -1.416898
v 0.451616 1.906149 -1.428760
v 0.463778 1.913395 -1.433798
v 0.459859 1.913395 -1.446716
v 0.451616 1.908769 -1.445076
v 0.458536 1.913395 -1.460150
v 0.467074 1.915845 -1.472149
v 0.483907 1.915845 -1.416659
v 0.465892 1.915845 -1.460150
v 0.476258 1.915845 -1.425980
v 0.493227 1.915845 -1.409010
v 0.503860 1.915845 -1.403327
v 0.527397 1.915845 -1.398645
v 0.561568 1.915845 -1.409010
v 0.570888 1.915845 -1.416659
v 0.587721 1.915845 -1.448151
v 0.588902 1.915845 -1.460150
v 0.587721 1.915845 -1.472149
v 0.578537 1.915845 -1.494320
v 0.570888 1.915845 -1.503641
v 0.561568 1.915845 -1.511290
v 0.550934 1.915845 -1.516973
v 0.527397 1.915845 -1.521655
v 0.515398 1.915845 -1.520473
v 0.493227 1.915845 -1.511290
v 0.483907 1.915845 -1.503641
v 0.476258 1.915845 -1.494320
v 0.470574 1.915845 -1.483687
v 0.470574 1.915845 -1.436613
v 0.467074 1.915845 -1.448151
v 0.550934 1.915845 -1.403327
v 0.539396 1.915845 -1.399827
v 0.584221 1.915845 -1.436613
v 0.578537 1.915845 -1.425980
v 0.584221 1.915845 -1.483687
v 0.503860 1.915845 -1.516973
v 0.515398 1.915845 -1.520473
v 0.512324 1.908769 -1.535931
v 0.512324 1.908769 -1.384369
v 0.515398 1.915845 -1.399827
v 0.515398 1.915845 -1.399827
v 0.539396 1.915845 -1.520473
vn -0.397700 0.914100 -0.079100
vn -0.471600 0.876000 -0.100600
vn -0.482200 0.876000 0.000000
vn -0.374600 0.914100 -0.155200
vn -0.337100 0.914100 -0.225300
vn -0.468700 0.826000 -0.313200
vn -0.453100 0.857900 -0.242200
vn -0.440400 0.876000 -0.196700
vn -0.510600 0.774000 -0.374400
vn -0.286700 0.914100 -0.286700
vn -0.398600 0.826000 -0.398600
vn -0.525700 0.733100 -0.431400
vn -0.505300 0.699500 -0.505400
vn -0.120100 0.150200 -0.981300
vn -0.237700 0.243900 -0.940200
vn -0.431300 0.733200 -0.525700
vn -0.225300 0.914100 -0.337100
vn -0.313200 0.826000 -0.468700
vn -0.374400 0.774000 -0.510600
vn -0.196700 0.876000 -0.440400
vn -0.242200 0.857900 -0.453100
vn -0.155200 0.914100 -0.374600
vn -0.079100 0.914100 -0.397700
vn -0.100600 0.876000 -0.471600
vn -0.079100 0.914100 -0.397700
vn 0.000000 0.914100 -0.405500
vn 0.000000 0.876100 -0.482200
vn 0.079100 0.914100 -0.397700
vn 0.100600 0.876000 -0.471600
vn 0.155200 0.914100 -0.374600
vn 0.225300 0.914100 -0.337100
vn 0.313200 0.826000 -0.468700
vn 0.242200 0.857900 -0.453100
vn 0.196600 0.876000 -0.440400
vn 0.374400 0.774000 -0.510600
vn 0.286700 0.914100 -0.286700
vn 0.398600 0.826000 -0.398600
vn 0.431400 0.733200 -0.525700
vn 0.505400 0.699500 -0.505300
vn 0.258200 0.264900 0.929000
vn 0.224100 0.280100 0.933400
vn 0.525700 0.733200 -0.431400
vn 0.337100 0.914100 -0.225300
vn 0.468700 0.826000 -0.313200
vn 0.510600 0.774000 -0.374400
vn 0.453100 0.857900 -0.242200
vn 0.440400 0.876000 -0.196600
vn 0.374600 0.914100 -0.155200
vn 0.397700 0.914100 -0.079100
vn 0.471600 0.876000 -0.100600
vn 0.405500 0.914100 0.000000
vn 0.482200 0.876100 0.000000
vn 0.397700 0.914100 0.079100
vn 0.471600 0.876000 0.100600
vn 0.374600 0.914100 0.155200
vn 0.337100 0.914100 0.225300
vn 0.468700 0.826000 0.313200
vn 0.453100 0.857900 0.242200
vn 0.440400 0.876000 0.196600
vn 0.510600 0.774000 0.374400
vn 0.286700 0.914100 0.286700
vn 0.398600 0.826000 0.398600
vn 0.525700 0.733200 0.431400
vn 0.505300 0.699400 0.505400
vn 0.553000 0.623200 0.553000
vn 0.431400 0.733200 0.525700
vn 0.225300 0.914100 0.337100
vn 0.313200 0.826000 0.468700
vn 0.374400 0.774000 0.510600
vn 0.242200 0.857900 0.453100
vn 0.196700 0.876000 0.440400
vn 0.155200 0.914100 0.374600
vn 0.079100 0.914100 0.397700
vn 0.100600 0.876000 0.471600
vn 0.000000 0.914100 0.405500
vn 0.000000 0.876000 0.482200
vn -0.079100 0.914100 0.397700
vn -0.100600 0.876000 0.471600
vn -0.079100 0.914100 0.397700
vn -0.155200 0.914100 0.374600
vn -0.225300 0.914100 0.337100
vn -0.313200 0.826000 0.468700
vn -0.242200 0.857900 0.453100
vn -0.196700 0.876000 0.440400
vn -0.374400 0.774000 0.510600
vn -0.286700 0.914100 0.286700
vn -0.398600 0.826000 0.398600
vn -0.431400 0.733200 0.525700
vn -0.505300 0.699400 0.505300
vn -0.553000 0.623200 0.553000
vn -0.525700 0.733200 0.431400
vn -0.337100 0.914100 0.225300
vn -0.468700 0.826000 0.313200
vn -0.510600 0.774000 0.374400
vn -0.453100 0.857900 0.242200
vn -0.440400 0.876000 0.196700
vn -0.374600 0.914100 0.155200
vn -0.397700 0.914100 0.079100
vn -0.471600 0.876000 0.100600
vn -0.405500 0.914100 0.000000
vn -0.309900 0.948700 -0.061600
vn -0.223500 0.948700 0.223500
vn -0.316000 0.948700 0.000000
vn -0.262800 0.948700 0.175600
vn -0.175600 0.948700 0.262800
vn -0.120900 0.948700 0.292000
vn 0.000000 0.948700 0.316000
vn 0.175600 0.948700 0.262800
vn 0.223500 0.948700 0.223500
vn 0.309900 0.948700 0.061600
vn 0.316000 0.948700 0.000000
vn 0.309900 0.948700 -0.061600
vn 0.262800 0.948700 -0.175600
vn 0.223500 0.948700 -0.223500
vn 0.175600 0.948700 -0.262800
vn 0.120900 0.948700 -0.292000
vn 0.000000 0.948700 -0.316000
vn -0.061600 0.948700 -0.309900
vn -0.175600 0.948700 -0.262800
vn -0.223500 0.948700 -0.223500
vn -0.262800 0.948700 -0.175600
vn -0.292000 0.948700 -0.120900
vn -0.292000 0.948700 0.120900
vn -0.309900 0.948700 0.061600
vn 0.120900 0.948700 0.292000
vn 0.061600 0.948700 0.309900
vn 0.292000 0.948700 0.120900
vn 0.262800 0.948700 0.175600
vn 0.292000 0.948700 -0.120900
vn -0.120900 0.948700 -0.292000
vn -0.061600 0.948700 -0.309900
vn -0.100600 0.876000 -0.471600
vn -0.100600 0.876000 0.471600
vn -0.061600 0.948700 0.309900
vn -0.061600 0.948700 0.309900
vn 0.061600 0.948700 -0.309900
vt 0.033716 0.909085
vt 0.037438 0.906765
vt 0.039887 0.908546
vt 0.030213 0.907888
vt 0.026055 0.906784
vt 0.031797 0.900972
vt 0.033667 0.901476
vt 0.035143 0.904025
vt 0.032830 0.899452
vt 0.021392 0.905817
vt 0.025949 0.899741
vt 0.030935 0.893155
vt 0.029441 0.892827
vt 0.030365 0.890139
vt 0.030365 0.890139
vt 0.027791 0.892557
vt 0.016353 0.905023
vt 0.019747 0.898730
vt 0.020353 0.897121
vt 0.012649 0.899910
vt 0.017401 0.898461
vt 0.011045 0.904433
vt 0.005565 0.904070
vt 0.006083 0.901138
vt 0.717109 0.904070
vt 0.711545 0.903947
vt 0.711545 0.901521
vt 0.705980 0.904070
vt 0.705462 0.901138
vt 0.700500 0.904433
vt 0.695192 0.905023
vt 0.691798 0.898730
vt 0.694143 0.898461
vt 0.698896 0.899910
vt 0.691192 0.897121
vt 0.690152 0.905817
vt 0.685596 0.899741
vt 0.683753 0.892557
vt 0.682103 0.892827
vt 0.681179 0.890139
vt 0.681179 0.890139
vt 0.680610 0.893155
vt 0.685490 0.906784
vt 0.679748 0.900972
vt 0.678714 0.899452
vt 0.677877 0.901476
vt 0.676402 0.904025
vt 0.681332 0.907888
vt 0.677828 0.909085
vt 0.674106 0.906765
vt 0.675164 0.910331
vt 0.671658 0.908546
vt 0.673560 0.911576
vt 0.668819 0.909560
vt 0.673282 0.912773
vt 0.674632 0.913877
vt 0.662374 0.910000
vt 0.662126 0.909495
vt 0.665201 0.909845
vt 0.659959 0.908840
vt 0.677923 0.914844
vt 0.665556 0.911231
vt 0.653425 0.906009
vt 0.654050 0.906338
vt 0.650671 0.904189
vt 0.655379 0.906607
vt 0.683401 0.915638
vt 0.671919 0.912241
vt 0.669489 0.911171
vt 0.675322 0.912511
vt 0.684946 0.913960
vt 0.691119 0.916228
vt 0.700762 0.916591
vt 0.698638 0.915188
vt 0.711545 0.916714
vt 0.711545 0.915571
vt 0.722327 0.916591
vt 0.012907 0.915188
vt 0.010782 0.916591
vt 0.020426 0.916228
vt 0.028144 0.915638
vt 0.039626 0.912241
vt 0.036222 0.912511
vt 0.026598 0.913960
vt 0.042055 0.911171
vt 0.033622 0.914844
vt 0.045989 0.911231
vt 0.056166 0.906607
vt 0.057495 0.906338
vt 0.060873 0.904189
vt 0.058119 0.906009
vt 0.036912 0.913877
vt 0.049171 0.910000
vt 0.051586 0.908840
vt 0.049419 0.909495
vt 0.046343 0.909845
vt 0.038263 0.912773
vt 0.037985 0.911576
vt 0.042725 0.909560
vt 0.036381 0.910331
vt 0.030416 0.910367
vt 0.029230 0.915511
vt 0.032648 0.911479
vt 0.032393 0.914647
vt 0.024234 0.916220
vt 0.017436 0.916747
vt 0.711545 0.917180
vt 0.687311 0.916220
vt 0.682315 0.915511
vt 0.677672 0.912591
vt 0.678897 0.911479
vt 0.681129 0.910367
vt 0.687858 0.908311
vt 0.692044 0.907447
vt 0.696608 0.906738
vt 0.701442 0.906212
vt 0.711545 0.905777
vt 0.716639 0.905887
vt 0.014937 0.906738
vt 0.019500 0.907447
vt 0.023687 0.908311
vt 0.027373 0.909297
vt 0.033867 0.913661
vt 0.033872 0.912591
vt 0.694108 0.916747
vt 0.702397 0.917071
vt 0.677678 0.913661
vt 0.679151 0.914647
vt 0.684172 0.909297
vt 0.010102 0.906212
vt 0.005094 0.905887
vt 0.717627 0.901138
vt 0.724451 0.915188
vt 0.009147 0.917071
vt 0.720692 0.917071
vt 0.706451 0.905887
f 1/1/1 2/2/2 3/3/3
f 2/2/2 1/1/1 4/4/4
f 5/5/5 6/6/6 7/7/7
f 8/8/8 4/4/4 5/5/5
f 7/7/7 6/6/6 9/9/9
f 5/5/5 10/10/10 11/11/11
f 11/11/11 12/12/12 9/9/9
f 11/11/11 13/13/13 12/12/12
f 13/13/13 14/14/14 15/15/15
f 14/14/14 13/13/13 16/16/16
f 10/10/10 17/17/17 18/18/18
f 11/11/11 18/18/18 19/19/19
f 16/16/16 13/13/13 11/11/11
f 17/17/17 20/20/20 21/21/21
f 17/17/17 22/22/22 20/20/20
f 19/19/19 18/18/18 21/21/21
f 22/22/22 23/23/23 24/24/24
f 25/25/25 26/26/26 27/27/27
f 27/27/27 26/26/26 28/28/28
f 29/29/29 28/28/28 30/30/30
f 31/31/31 32/32/32 33/33/33
f 34/34/34 30/30/30 31/31/31
f 33/33/33 32/32/32 35/35/35
f 36/36/36 37/37/37 32/32/32
f 37/37/37 38/38/38 35/35/35
f 37/37/37 39/39/39 38/38/38
f 39/39/39 40/40/40 41/41/41
f 40/40/40 39/39/39 42/42/42
f 36/36/36 43/43/43 44/44/44
f 37/37/37 44/44/44 45/45/45
f 42/42/42 39/39/39 37/37/37
f 45/45/45 44/44/44 46/46/46
f 43/43/43 47/47/47 46/46/46
f 43/43/43 48/48/48 47/47/47
f 48/48/48 49/49/49 50/50/50
f 49/49/49 51/51/51 52/52/52
f 52/52/52 51/51/51 53/53/53
f 54/54/54 53/53/53 55/55/55
f 56/56/56 57/57/57 58/58/58
f 59/59/59 55/55/55 56/56/56
f 58/58/58 57/57/57 60/60/60
f 61/61/61 62/62/62 57/57/57
f 62/62/62 63/63/63 60/60/60
f 62/62/62 64/64/64 63/63/63
f 63/63/63 64/64/64 65/65/65
f 65/65/65 64/64/64 66/66/66
f 67/67/67 68/68/68 62/62/62
f 62/62/62 68/68/68 69/69/69
f 66/66/66 64/64/64 62/62/62
f 69/69/69 68/68/68 70/70/70
f 67/67/67 71/71/71 70/70/70
f 67/67/67 72/72/72 71/71/71
f 72/72/72 73/73/73 74/74/74
f 73/73/73 75/75/75 76/76/76
f 76/76/76 75/75/75 77/77/77
f 78/78/78 79/79/79 80/80/80
f 81/81/81 82/82/82 83/83/83
f 84/84/84 80/80/80 81/81/81
f 83/83/83 82/82/82 85/85/85
f 81/81/81 86/86/86 87/87/87
f 87/87/87 88/88/88 85/85/85
f 87/87/87 89/89/89 88/88/88
f 88/88/88 89/89/89 90/90/90
f 90/90/90 89/89/89 91/91/91
f 86/86/86 92/92/92 93/93/93
f 87/87/87 93/93/93 94/94/94
f 91/91/91 89/89/89 87/87/87
f 94/94/94 93/93/93 95/95/95
f 92/92/92 96/96/96 95/95/95
f 92/92/92 97/97/97 96/96/96
f 97/97/97 98/98/98 99/99/99
f 98/98/98 100/100/100 3/3/3
f 101/101/101 1/1/1 100/100/100
f 92/92/92 86/86/86 102/102/102
f 103/103/103 100/100/100 98/98/98
f 97/97/97 92/92/92 104/104/104
f 86/86/86 81/81/81 105/105/105
f 106/106/106 80/80/80 79/79/79
f 77/77/77 75/75/75 107/107/107
f 107/107/107 75/75/75 73/73/73
f 72/72/72 67/67/67 108/108/108
f 108/108/108 67/67/67 61/61/61
f 109/109/109 61/61/61 56/56/56
f 55/55/55 53/53/53 110/110/110
f 53/53/53 51/51/51 111/111/111
f 51/51/51 49/49/49 112/112/112
f 48/48/48 43/43/43 113/113/113
f 43/43/43 36/36/36 114/114/114
f 36/36/36 31/31/31 115/115/115
f 116/116/116 30/30/30 28/28/28
f 28/28/28 26/26/26 117/117/117
f 26/26/26 25/25/25 118/118/118
f 22/22/22 17/17/17 119/119/119
f 17/17/17 10/10/10 120/120/120
f 120/120/120 10/10/10 5/5/5
f 121/121/121 5/5/5 4/4/4
f 122/122/122 4/4/4 1/1/1
f 123/123/123 124/124/124 98/98/98
f 80/80/80 106/106/106 105/105/105
f 125/125/125 126/126/126 73/73/73
f 127/127/127 128/128/128 56/56/56
f 129/129/129 112/112/112 49/49/49
f 30/30/30 116/116/116 115/115/115
f 130/130/130 131/131/131 23/23/23
f 100/100/100 1/1/1 3/3/3
f 8/8/8 2/2/2 4/4/4
f 8/8/8 5/5/5 7/7/7
f 6/6/6 5/5/5 11/11/11
f 6/6/6 11/11/11 9/9/9
f 12/12/12 13/13/13 15/15/15
f 11/11/11 10/10/10 18/18/18
f 16/16/16 11/11/11 19/19/19
f 18/18/18 17/17/17 21/21/21
f 20/20/20 22/22/22 24/24/24
f 132/132/132 25/25/25 27/27/27
f 29/29/29 27/27/27 28/28/28
f 34/34/34 29/29/29 30/30/30
f 34/34/34 31/31/31 33/33/33
f 31/31/31 36/36/36 32/32/32
f 32/32/32 37/37/37 35/35/35
f 38/38/38 39/39/39 41/41/41
f 37/37/37 36/36/36 44/44/44
f 42/42/42 37/37/37 45/45/45
f 44/44/44 43/43/43 46/46/46
f 47/47/47 48/48/48 50/50/50
f 50/50/50 49/49/49 52/52/52
f 54/54/54 52/52/52 53/53/53
f 59/59/59 54/54/54 55/55/55
f 59/59/59 56/56/56 58/58/58
f 56/56/56 61/61/61 57/57/57
f 57/57/57 62/62/62 60/60/60
f 61/61/61 67/67/67 62/62/62
f 66/66/66 62/62/62 69/69/69
f 68/68/68 67/67/67 70/70/70
f 71/71/71 72/72/72 74/74/74
f 74/74/74 73/73/73 76/76/76
f 133/133/133 76/76/76 77/77/77
f 84/84/84 78/78/78 80/80/80
f 84/84/84 81/81/81 83/83/83
f 82/82/82 81/81/81 87/87/87
f 82/82/82 87/87/87 85/85/85
f 87/87/87 86/86/86 93/93/93
f 91/91/91 87/87/87 94/94/94
f 93/93/93 92/92/92 95/95/95
f 96/96/96 97/97/97 99/99/99
f 99/99/99 98/98/98 3/3/3
f 103/103/103 101/101/101 100/100/100
f 104/104/104 92/92/92 102/102/102
f 124/124/124 103/103/103 98/98/98
f 123/123/123 97/97/97 104/104/104
f 102/102/102 86/86/86 105/105/105
f 134/134/134 106/106/106 79/79/79
f 135/135/135 77/77/77 107/107/107
f 126/126/126 107/107/107 73/73/73
f 125/125/125 72/72/72 108/108/108
f 109/109/109 108/108/108 61/61/61
f 128/128/128 109/109/109 56/56/56
f 127/127/127 55/55/55 110/110/110
f 110/110/110 53/53/53 111/111/111
f 111/111/111 51/51/51 112/112/112
f 129/129/129 48/48/48 113/113/113
f 113/113/113 43/43/43 114/114/114
f 114/114/114 36/36/36 115/115/115
f 136/136/136 116/116/116 28/28/28
f 136/136/136 28/28/28 117/117/117
f 117/117/117 26/26/26 118/118/118
f 130/130/130 22/22/22 119/119/119
f 119/119/119 17/17/17 120/120/120
f 121/121/121 120/120/120 5/5/5
f 122/122/122 121/121/121 4/4/4
f 101/101/101 122/122/122 1/1/1
f 97/97/97 123/123/123 98/98/98
f 81/81/81 80/80/80 105/105/105
f 72/72/72 125/125/125 73/73/73
f 55/55/55 127/127/127 56/56/56
f 48/48/48 129/129/129 49/49/49
f 31/31/31 30/30/30 115/115/115
f 22/22/22 130/130/130 23/23/23
