v 0.491248 1.972325 -1.445176
v 0.490963 1.973355 -1.445058
v 0.488718 1.973355 -1.452456
v 0.512306 1.973355 -1.423715
v 0.505488 1.973355 -1.427360
v 0.505659 1.972325 -1.427616
v 0.542371 1.972325 -1.424000
v 0.542489 1.973355 -1.423715
v 0.535091 1.973355 -1.421471
v 0.563547 1.972325 -1.445176
v 0.563832 1.973355 -1.445058
v 0.560188 1.973355 -1.438240
v 0.563832 1.973355 -1.475242
v 0.566076 1.973355 -1.467844
v 0.565774 1.972325 -1.467783
v 0.542489 1.973355 -1.496585
v 0.549307 1.973355 -1.492940
v 0.549136 1.972325 -1.492684
v 0.512424 1.972325 -1.496300
v 0.512306 1.973355 -1.496585
v 0.519704 1.973355 -1.498829
v 0.489021 1.972325 -1.467783
v 0.488269 1.972325 -1.460150
v 0.487961 1.973355 -1.460150
v 0.494607 1.973355 -1.438240
v 0.494863 1.972325 -1.438411
v 0.499729 1.972325 -1.432482
v 0.489021 1.972325 -1.452516
v 0.512424 1.972325 -1.424000
v 0.519764 1.972325 -1.421773
v 0.519704 1.973355 -1.421471
v 0.519764 1.972325 -1.421773
v 0.527397 1.972325 -1.421022
v 0.527397 1.973355 -1.420713
v 0.535031 1.972325 -1.421773
v 0.549136 1.972325 -1.427616
v 0.549307 1.973355 -1.427360
v 0.555065 1.972325 -1.432482
v 0.559931 1.972325 -1.438411
v 0.565774 1.972325 -1.452516
v 0.566526 1.972325 -1.460150
v 0.566834 1.973355 -1.460150
v 0.563547 1.972325 -1.475124
v 0.559931 1.972325 -1.481889
v 0.560188 1.973355 -1.482060
v 0.555065 1.972325 -1.487818
v 0.555283 1.973355 -1.488036
v 0.542371 1.972325 -1.496300
v 0.535031 1.972325 -1.498526
v 0.535091 1.973355 -1.498829
v 0.527397 1.972325 -1.499278
v 0.527397 1.973355 -1.499587
v 0.519764 1.972325 -1.498526
v 0.505659 1.972325 -1.492684
v 0.505488 1.973355 -1.492940
v 0.499729 1.972325 -1.487818
v 0.499511 1.973355 -1.488036
v 0.494863 1.972325 -1.481889
v 0.494607 1.973355 -1.482060
v 0.491248 1.972325 -1.475124
v 0.490963 1.973355 -1.475242
v 0.519764 1.972325 -1.498526
v 0.488718 1.973355 -1.467844
v 0.499511 1.973355 -1.432264
v 0.519704 1.973355 -1.421471
v 0.555283 1.973355 -1.432264
v 0.566076 1.973355 -1.452456
v 0.519704 1.973355 -1.498829
vn -0.885000 -0.286900 0.366600
vn -0.885000 -0.286900 0.366600
vn -0.939500 -0.286900 0.186900
vn -0.366600 -0.286900 0.885000
vn -0.532200 -0.286900 0.796500
vn -0.532200 -0.286900 0.796500
vn 0.366600 -0.286900 0.885000
vn 0.366600 -0.286900 0.885000
vn 0.186900 -0.286800 0.939500
vn 0.885000 -0.286900 0.366600
vn 0.885000 -0.286900 0.366600
vn 0.796500 -0.286900 0.532200
vn 0.885000 -0.286800 -0.366600
vn 0.939600 -0.286800 -0.186900
vn 0.939600 -0.286800 -0.186900
vn 0.366600 -0.286800 -0.885100
vn 0.532300 -0.286800 -0.796500
vn 0.532300 -0.286800 -0.796500
vn -0.366600 -0.286800 -0.885100
vn -0.366600 -0.286800 -0.885100
vn -0.186900 -0.286800 -0.939600
vn -0.939500 -0.286900 -0.186900
vn -0.957900 -0.286800 0.000000
vn -0.957900 -0.286800 0.000000
vn -0.796500 -0.286900 0.532200
vn -0.796500 -0.286900 0.532200
vn -0.677300 -0.286900 0.677400
vn -0.939500 -0.286900 0.186900
vn -0.366600 -0.286900 0.885000
vn -0.186800 -0.286800 0.939600
vn -0.186800 -0.286800 0.939600
vn -0.186800 -0.286800 0.939600
vn 0.000000 -0.286900 0.957900
vn 0.000000 -0.286900 0.957900
vn 0.186900 -0.286800 0.939500
vn 0.532200 -0.286900 0.796500
vn 0.532200 -0.286900 0.796500
vn 0.677300 -0.286900 0.677400
vn 0.796500 -0.286900 0.532200
vn 0.939500 -0.286800 0.186900
vn 0.958000 -0.286800 0.000000
vn 0.958000 -0.286800 0.000000
vn 0.885000 -0.286800 -0.366600
vn 0.796500 -0.286800 -0.532200
vn 0.796500 -0.286800 -0.532200
vn 0.677300 -0.286800 -0.677400
vn 0.677300 -0.286800 -0.677400
vn 0.366600 -0.286800 -0.885100
vn 0.186900 -0.286800 -0.939500
vn 0.186900 -0.286800 -0.939500
vn 0.000000 -0.286800 -0.958000
vn 0.000000 -0.286800 -0.958000
vn -0.186900 -0.286800 -0.939600
vn -0.532200 -0.286800 -0.796500
vn -0.532200 -0.286800 -0.796500
vn -0.677300 -0.286800 -0.677400
vn -0.677300 -0.286800 -0.677400
vn -0.796500 -0.286800 -0.532200
vn -0.796500 -0.286800 -0.532200
vn -0.885000 -0.286800 -0.366600
vn -0.885100 -0.286800 -0.366600
vn -0.186900 -0.286800 -0.939600
vn -0.939500 -0.286900 -0.186900
vn -0.677300 -0.286900 0.677400
vn -0.186800 -0.286800 0.939600
vn 0.677300 -0.286900 0.677400
vn 0.939500 -0.286800 0.186900
vn -0.186900 -0.286800 -0.939600
vt 0.019893 0.939335
vt 0.020038 0.939829
vt 0.020530 0.939143
vt 0.009327 0.941808
vt 0.013251 0.941470
vt 0.013145 0.940963
vt 0.702294 0.941298
vt 0.702217 0.941808
vt 0.706724 0.942016
vt 0.691652 0.939335
vt 0.691506 0.939829
vt 0.692872 0.940461
vt 0.694005 0.937031
vt 0.692358 0.937717
vt 0.692484 0.937240
vt 0.704832 0.935052
vt 0.701674 0.935390
vt 0.701733 0.934931
vt 0.006673 0.934596
vt 0.006713 0.935052
vt 0.003396 0.934844
vt 0.019061 0.937240
vt 0.020080 0.937947
vt 0.020216 0.938430
vt 0.018672 0.940461
vt 0.018532 0.939963
vt 0.016273 0.940512
vt 0.020386 0.938655
vt 0.009251 0.941298
vt 0.004781 0.941505
vt 0.004821 0.942016
vt 0.716325 0.941505
vt 0.711545 0.941575
vt 0.711545 0.942137
vt 0.706764 0.941505
vt 0.698400 0.940963
vt 0.698294 0.941470
vt 0.695272 0.940512
vt 0.693013 0.939963
vt 0.691158 0.938655
vt 0.691465 0.937947
vt 0.691328 0.938430
vt 0.694117 0.936559
vt 0.696266 0.935932
vt 0.696171 0.936399
vt 0.698836 0.935383
vt 0.698758 0.935845
vt 0.704872 0.934596
vt 0.708169 0.934390
vt 0.708149 0.934844
vt 0.711545 0.934320
vt 0.711545 0.934774
vt 0.714920 0.934390
vt 0.009812 0.934931
vt 0.009871 0.935390
vt 0.012709 0.935383
vt 0.012787 0.935845
vt 0.015278 0.935932
vt 0.015374 0.936399
vt 0.017427 0.936559
vt 0.017539 0.937031
vt 0.003376 0.934390
vt 0.019187 0.937717
vt 0.016401 0.941015
vt 0.716366 0.942016
vt 0.695144 0.941015
vt 0.691014 0.939143
vt 0.714940 0.934844
f 1/1/1 2/2/2 3/3/3
f 4/4/4 5/5/5 6/6/6
f 7/7/7 8/8/8 9/9/9
f 10/10/10 11/11/11 12/12/12
f 13/13/13 14/14/14 15/15/15
f 16/16/16 17/17/17 18/18/18
f 19/19/19 20/20/20 21/21/21
f 22/22/22 23/23/23 24/24/24
f 25/25/25 26/26/26 27/27/27
f 24/24/24 23/23/23 28/28/28
f 1/1/1 26/26/26 25/25/25
f 27/27/27 6/6/6 5/5/5
f 29/29/29 30/30/30 31/31/31
f 32/32/32 33/33/33 34/34/34
f 33/33/33 35/35/35 9/9/9
f 8/8/8 7/7/7 36/36/36
f 37/37/37 36/36/36 38/38/38
f 38/38/38 39/39/39 12/12/12
f 11/11/11 10/10/10 40/40/40
f 40/40/40 41/41/41 42/42/42
f 41/41/41 15/15/15 14/14/14
f 43/43/43 44/44/44 45/45/45
f 44/44/44 46/46/46 47/47/47
f 46/46/46 18/18/18 17/17/17
f 48/48/48 49/49/49 50/50/50
f 50/50/50 49/49/49 51/51/51
f 52/52/52 51/51/51 53/53/53
f 20/20/20 19/19/19 54/54/54
f 55/55/55 54/54/54 56/56/56
f 57/57/57 56/56/56 58/58/58
f 59/59/59 58/58/58 60/60/60
f 61/61/61 60/60/60 22/22/22
f 28/28/28 1/1/1 3/3/3
f 29/29/29 4/4/4 6/6/6
f 35/35/35 7/7/7 9/9/9
f 39/39/39 10/10/10 12/12/12
f 43/43/43 13/13/13 15/15/15
f 48/48/48 16/16/16 18/18/18
f 62/62/62 19/19/19 21/21/21
f 63/63/63 22/22/22 24/24/24
f 64/64/64 25/25/25 27/27/27
f 3/3/3 24/24/24 28/28/28
f 2/2/2 1/1/1 25/25/25
f 64/64/64 27/27/27 5/5/5
f 4/4/4 29/29/29 31/31/31
f 65/65/65 32/32/32 34/34/34
f 34/34/34 33/33/33 9/9/9
f 37/37/37 8/8/8 36/36/36
f 66/66/66 37/37/37 38/38/38
f 66/66/66 38/38/38 12/12/12
f 67/67/67 11/11/11 40/40/40
f 67/67/67 40/40/40 42/42/42
f 42/42/42 41/41/41 14/14/14
f 13/13/13 43/43/43 45/45/45
f 45/45/45 44/44/44 47/47/47
f 47/47/47 46/46/46 17/17/17
f 16/16/16 48/48/48 50/50/50
f 52/52/52 50/50/50 51/51/51
f 68/68/68 52/52/52 53/53/53
f 55/55/55 20/20/20 54/54/54
f 57/57/57 55/55/55 56/56/56
f 59/59/59 57/57/57 58/58/58
f 61/61/61 59/59/59 60/60/60
f 63/63/63 61/61/61 22/22/22
