v -0.895186 0.545732 -3.423727
v -0.894852 0.551217 -3.424181
v -0.866542 0.546436 -3.419828
v -0.866804 0.540936 -3.419366
v -0.837956 0.542736 -3.416519
v -0.838151 0.537225 -3.416053
v -0.838346 0.531714 -3.415587
v -0.867066 0.535436 -3.418905
v -0.895520 0.540246 -3.423271
v -0.240056 0.568339 -3.464301
v -0.239697 0.573827 -3.464754
v -0.215498 0.566609 -3.462628
v -0.215926 0.561144 -3.462187
v -0.190974 0.558527 -3.459433
v -0.191438 0.553077 -3.458997
v -0.191902 0.547627 -3.458561
v -0.216354 0.555679 -3.461745
v -0.240415 0.562852 -3.463849
v -0.142037 0.537944 -3.449879
v -0.141653 0.543416 -3.450328
v -0.119299 0.539025 -3.445321
v -0.119637 0.533540 -3.444869
v -0.102475 0.536526 -3.441382
v -0.102792 0.531110 -3.440910
v -0.103109 0.525694 -3.440439
v -0.119975 0.528055 -3.444417
v -0.142422 0.532472 -3.449430
v -0.453636 0.566343 -3.439961
v -0.478708 0.559357 -3.434344
v -0.479143 0.564813 -3.434784
v -0.454052 0.571806 -3.440405
v -0.429583 0.577926 -3.445900
v -0.429215 0.572448 -3.445449
v -0.428846 0.566970 -3.444998
v -0.453219 0.560880 -3.439518
v -0.478274 0.553902 -3.433903
v -0.747304 0.529931 -3.412587
v -0.747260 0.535455 -3.413061
v -0.730293 0.535150 -3.413028
v -0.730314 0.529626 -3.412553
v -0.713569 0.535051 -3.413027
v -0.713569 0.529527 -3.412552
v -0.713569 0.524004 -3.412076
v -0.730335 0.524102 -3.412078
v -0.747348 0.524408 -3.412113
v -0.784996 0.531666 -3.413102
v -0.784891 0.537187 -3.413574
v -0.764715 0.535979 -3.413158
v -0.764786 0.530456 -3.412685
v -0.764858 0.524932 -3.412212
v -0.785100 0.526144 -3.412630
v -0.560335 0.540936 -3.419367
v -0.588988 0.537225 -3.416054
v -0.589183 0.542736 -3.416520
v -0.560597 0.546436 -3.419828
v -0.532287 0.551217 -3.424182
v -0.531953 0.545732 -3.423727
v -0.531619 0.540246 -3.423272
v -0.560073 0.535436 -3.418905
v -0.588793 0.531714 -3.415587
v -0.810022 0.539546 -3.414564
v -0.810166 0.534028 -3.414095
v -0.810310 0.528511 -3.413625
v -1.332035 0.530075 -3.439199
v -1.335145 0.529737 -3.438615
v -1.334650 0.533556 -3.439195
v -1.332379 0.535261 -3.439728
v -1.324664 0.536526 -3.441380
v -1.324347 0.531110 -3.440908
v -1.324030 0.525693 -3.440437
v -1.331692 0.524888 -3.438671
v -1.334086 0.526087 -3.438327
v -0.696825 0.529626 -3.412553
v -0.696846 0.535150 -3.413028
v -0.679878 0.535455 -3.413061
v -0.679834 0.529931 -3.412587
v -0.679790 0.524408 -3.412113
v -0.696804 0.524102 -3.412078
v -0.948431 0.559357 -3.434343
v -0.947996 0.564813 -3.434783
v -0.921961 0.557647 -3.429271
v -0.922360 0.552180 -3.428825
v -0.922759 0.546712 -3.428379
v -0.948865 0.553902 -3.433902
v -0.662352 0.530456 -3.412685
v -0.662424 0.535979 -3.413158
v -0.642248 0.537187 -3.413574
v -0.642143 0.531666 -3.413102
v -0.642039 0.526144 -3.412631
v -0.662280 0.524932 -3.412212
v -1.260750 0.544900 -3.454740
v -1.285102 0.537944 -3.449877
v -1.285487 0.543416 -3.450326
v -1.261188 0.550357 -3.455180
v -1.236165 0.558527 -3.459431
v -1.235701 0.553077 -3.458995
v -1.235238 0.547627 -3.458560
v -1.260312 0.539443 -3.454299
v -1.284717 0.532472 -3.449429
v -0.616973 0.534028 -3.414095
v -0.617117 0.539546 -3.414565
v -0.616829 0.528511 -3.413626
v -1.045837 0.580360 -3.455148
v -1.045595 0.585866 -3.455611
v -1.021726 0.582477 -3.451030
v -1.022041 0.576985 -3.450574
v -0.997556 0.577926 -3.445899
v -0.997924 0.572448 -3.445448
v -0.998293 0.566970 -3.444997
v -1.022355 0.571494 -3.450117
v -1.046079 0.574854 -3.454685
v -0.094760 0.535261 -3.439729
v -0.095104 0.530075 -3.439201
v -0.092489 0.533556 -3.439197
v -0.091994 0.529737 -3.438617
v -0.093053 0.526087 -3.438329
v -0.095447 0.524888 -3.438673
v -1.163110 0.573902 -3.465331
v -1.187083 0.568339 -3.464300
v -1.187442 0.573827 -3.464752
v -1.163398 0.579405 -3.465790
v -1.139564 0.583798 -3.465741
v -1.139360 0.578282 -3.465276
v -1.139157 0.572765 -3.464809
v -1.162822 0.568398 -3.464871
v -1.186724 0.562852 -3.463848
v -0.504779 0.552180 -3.428826
v -0.505178 0.557647 -3.429272
v -0.504380 0.546712 -3.428380
v -1.115903 0.581930 -3.464132
v -1.115999 0.587461 -3.464606
v -1.092573 0.589370 -3.462478
v -1.092597 0.583833 -3.462001
v -1.092621 0.578297 -3.461524
v -1.115808 0.576400 -3.463659
v -0.165951 0.550357 -3.455182
v -0.166389 0.544900 -3.454741
v -0.166827 0.539443 -3.454300
v -1.069158 0.588500 -3.459454
v -1.069299 0.582976 -3.458982
v -1.069439 0.577451 -3.458510
v -0.405099 0.576985 -3.450575
v -0.405413 0.582477 -3.451031
v -0.381544 0.585866 -3.455612
v -0.381302 0.580360 -3.455149
v -0.381060 0.574854 -3.454686
v -0.404784 0.571494 -3.450118
v -1.211213 0.561144 -3.462185
v -1.211641 0.566609 -3.462627
v -1.210786 0.555679 -3.461743
v -0.287779 0.578282 -3.465277
v -0.287575 0.583798 -3.465743
v -0.263742 0.579405 -3.465792
v -0.264030 0.573902 -3.465332
v -0.264318 0.568398 -3.464873
v -0.287982 0.572765 -3.464811
v -0.973087 0.571806 -3.440404
v -0.973503 0.566343 -3.439961
v -0.973920 0.560880 -3.439517
v -0.334542 0.583833 -3.462002
v -0.334566 0.589370 -3.462479
v -0.311140 0.587461 -3.464607
v -0.311236 0.581930 -3.464134
v -0.311331 0.576400 -3.463660
v -0.334518 0.578297 -3.461525
v -1.307502 0.533540 -3.444867
v -1.307840 0.539025 -3.445319
v -1.307164 0.528055 -3.444416
v -0.357841 0.582976 -3.458983
v -0.357981 0.588500 -3.459455
v -0.357700 0.577451 -3.458511
vn 0.149500 -0.090800 -0.984600
vn 0.150800 -0.090800 -0.984400
vn 0.121000 -0.088800 -0.988600
vn 0.119800 -0.088700 -0.988800
vn 0.082800 -0.086900 -0.992800
vn 0.081500 -0.086900 -0.992900
vn 0.080100 -0.086900 -0.993000
vn 0.118600 -0.088600 -0.989000
vn 0.148100 -0.090700 -0.984800
vn 0.042500 -0.084800 -0.995500
vn 0.040100 -0.084700 -0.995600
vn 0.078100 -0.086400 -0.993200
vn 0.080900 -0.086600 -0.992900
vn 0.116200 -0.089000 -0.989200
vn 0.119100 -0.089200 -0.988900
vn 0.122000 -0.089400 -0.988500
vn 0.083700 -0.086800 -0.992700
vn 0.044700 -0.084900 -0.995400
vn 0.184600 -0.093100 -0.978400
vn 0.183100 -0.093100 -0.978700
vn 0.206300 -0.093100 -0.974000
vn 0.207100 -0.093200 -0.973800
vn 0.204600 -0.096400 -0.974100
vn 0.207300 -0.098200 -0.973300
vn 0.210900 -0.100100 -0.972400
vn 0.208000 -0.093400 -0.973600
vn 0.186300 -0.093200 -0.978100
vn -0.194300 -0.094100 -0.976400
vn -0.187000 -0.093800 -0.977800
vn -0.187700 -0.093800 -0.977700
vn -0.194400 -0.094100 -0.976400
vn -0.192700 -0.093300 -0.976800
vn -0.193100 -0.093400 -0.976700
vn -0.193500 -0.093400 -0.976600
vn -0.194100 -0.094100 -0.976400
vn -0.186300 -0.093800 -0.978000
vn 0.001700 -0.085500 -0.996300
vn 0.001700 -0.085500 -0.996300
vn 0.000000 -0.085600 -0.996300
vn 0.000000 -0.085600 -0.996300
vn 0.000000 -0.085800 -0.996300
vn 0.000000 -0.085800 -0.996300
vn 0.000000 -0.085800 -0.996300
vn 0.000000 -0.085700 -0.996300
vn 0.001800 -0.085500 -0.996300
vn 0.023300 -0.085500 -0.996000
vn 0.023600 -0.085500 -0.996000
vn 0.009300 -0.085400 -0.996300
vn 0.009200 -0.085400 -0.996300
vn 0.009100 -0.085400 -0.996300
vn 0.023000 -0.085500 -0.996100
vn -0.119800 -0.088700 -0.988800
vn -0.081500 -0.086900 -0.992900
vn -0.082800 -0.086900 -0.992700
vn -0.121000 -0.088800 -0.988600
vn -0.150800 -0.090800 -0.984400
vn -0.149500 -0.090800 -0.984600
vn -0.148100 -0.090700 -0.984800
vn -0.118600 -0.088600 -0.989000
vn -0.080200 -0.086800 -0.993000
vn 0.046200 -0.085900 -0.995200
vn 0.045500 -0.085800 -0.995200
vn 0.044700 -0.085800 -0.995300
vn -0.187700 -0.115200 -0.975400
vn -0.169800 -0.126400 -0.977300
vn -0.155100 -0.115400 -0.981100
vn -0.179700 -0.107700 -0.977800
vn -0.204600 -0.096400 -0.974100
vn -0.207300 -0.098200 -0.973300
vn -0.210900 -0.100100 -0.972400
vn -0.205400 -0.112600 -0.972200
vn -0.187500 -0.116900 -0.975300
vn 0.000000 -0.085600 -0.996300
vn 0.000000 -0.085600 -0.996300
vn -0.001700 -0.085400 -0.996300
vn -0.001700 -0.085500 -0.996300
vn -0.001700 -0.085500 -0.996300
vn 0.000000 -0.085700 -0.996300
vn 0.187000 -0.093800 -0.977800
vn 0.187800 -0.093800 -0.977700
vn 0.173200 -0.092700 -0.980500
vn 0.172000 -0.092600 -0.980700
vn 0.170800 -0.092500 -0.980900
vn 0.186300 -0.093800 -0.978000
vn -0.009200 -0.085400 -0.996300
vn -0.009300 -0.085400 -0.996300
vn -0.023600 -0.085500 -0.996000
vn -0.023300 -0.085500 -0.996100
vn -0.023000 -0.085500 -0.996100
vn -0.009100 -0.085500 -0.996300
vn -0.153700 -0.091800 -0.983800
vn -0.184600 -0.093100 -0.978400
vn -0.183100 -0.093200 -0.978700
vn -0.151500 -0.091600 -0.984200
vn -0.116200 -0.089000 -0.989200
vn -0.119100 -0.089200 -0.988900
vn -0.122000 -0.089400 -0.988500
vn -0.156000 -0.091900 -0.983500
vn -0.186300 -0.093100 -0.978100
vn -0.045500 -0.085800 -0.995200
vn -0.046200 -0.085900 -0.995200
vn -0.044700 -0.085800 -0.995300
vn 0.163300 -0.089800 -0.982500
vn 0.162400 -0.089700 -0.982600
vn 0.182200 -0.091700 -0.978900
vn 0.182900 -0.091800 -0.978800
vn 0.192700 -0.093300 -0.976800
vn 0.193100 -0.093400 -0.976700
vn 0.193500 -0.093400 -0.976600
vn 0.183600 -0.092000 -0.978700
vn 0.164200 -0.089900 -0.982300
vn 0.179700 -0.107700 -0.977800
vn 0.187800 -0.115200 -0.975400
vn 0.155200 -0.115400 -0.981100
vn 0.169900 -0.126400 -0.977300
vn 0.187300 -0.116900 -0.975300
vn 0.205200 -0.112700 -0.972200
vn -0.002800 -0.083300 -0.996500
vn -0.042500 -0.084800 -0.995500
vn -0.040100 -0.084700 -0.995600
vn -0.000900 -0.083300 -0.996500
vn 0.041100 -0.082700 -0.995700
vn 0.039500 -0.082700 -0.995800
vn 0.037900 -0.082600 -0.995800
vn -0.004700 -0.083400 -0.996500
vn -0.044700 -0.084900 -0.995400
vn -0.172000 -0.092600 -0.980700
vn -0.173200 -0.092700 -0.980500
vn -0.170800 -0.092500 -0.980900
vn 0.079500 -0.083700 -0.993300
vn 0.080300 -0.083800 -0.993200
vn 0.110900 -0.085700 -0.990100
vn 0.111100 -0.085700 -0.990100
vn 0.111200 -0.085700 -0.990100
vn 0.078800 -0.083500 -0.993400
vn 0.151500 -0.091600 -0.984200
vn 0.153700 -0.091800 -0.983800
vn 0.156000 -0.091900 -0.983500
vn 0.137200 -0.087600 -0.986600
vn 0.138000 -0.087700 -0.986500
vn 0.138700 -0.087800 -0.986400
vn -0.182900 -0.091900 -0.978800
vn -0.182200 -0.091700 -0.978900
vn -0.162400 -0.089700 -0.982600
vn -0.163300 -0.089800 -0.982500
vn -0.164200 -0.089900 -0.982300
vn -0.183600 -0.092000 -0.978700
vn -0.080900 -0.086600 -0.992900
vn -0.078100 -0.086500 -0.993200
vn -0.083700 -0.086800 -0.992700
vn -0.039500 -0.082700 -0.995800
vn -0.041100 -0.082700 -0.995700
vn 0.000900 -0.083300 -0.996500
vn 0.002800 -0.083400 -0.996500
vn 0.004700 -0.083400 -0.996500
vn -0.037900 -0.082600 -0.995800
vn 0.194400 -0.094100 -0.976400
vn 0.194200 -0.094100 -0.976400
vn 0.194100 -0.094100 -0.976400
vn -0.111100 -0.085700 -0.990100
vn -0.110900 -0.085700 -0.990100
vn -0.080300 -0.083800 -0.993200
vn -0.079500 -0.083700 -0.993300
vn -0.078800 -0.083500 -0.993400
vn -0.111200 -0.085700 -0.990100
vn -0.207100 -0.093200 -0.973800
vn -0.206300 -0.093100 -0.974000
vn -0.208000 -0.093400 -0.973600
vn -0.138000 -0.087700 -0.986500
vn -0.137200 -0.087600 -0.986600
vn -0.138700 -0.087800 -0.986400
vt 0.000000 0.000000
vt 0.000000 0.000000
vt 0.000000 0.000000
vt 0.000000 0.000000
vt 0.000000 0.000000
vt 0.000000 0.000000
vt 0.000000 0.000000
vt 0.000000 0.000000
vt 0.000000 0.000000
vt 0.000000 0.000000
vt 0.000000 0.000000
vt 0.000000 0.000000
vt 0.000000 0.000000
vt 0.000000 0.000000
vt 0.000000 0.000000
vt 0.000000 0.000000
vt 0.000000 0.000000
vt 0.000000 0.000000
vt 0.000000 0.000000
vt 0.000000 0.000000
vt 0.000000 0.000000
vt 0.000000 0.000000
vt 0.000000 0.000000
vt 0.000000 0.000000
vt 0.000000 0.000000
vt 0.000000 0.000000
vt 0.000000 0.000000
vt 0.000000 0.000000
vt 0.000000 0.000000
vt 0.000000 0.000000
vt 0.000000 0.000000
vt 0.000000 0.000000
vt 0.000000 0.000000
vt 0.000000 0.000000
vt 0.000000 0.000000
vt 0.000000 0.000000
vt 0.000000 0.000000
vt 0.000000 0.000000
vt 0.000000 0.000000
vt 0.000000 0.000000
vt 0.000000 0.000000
vt 0.000000 0.000000
vt 0.000000 0.000000
vt 0.000000 0.000000
vt 0.000000 0.000000
vt 0.000000 0.000000
vt 0.000000 0.000000
vt 0.000000 0.000000
vt 0.000000 0.000000
vt 0.000000 0.000000
vt 0.000000 0.000000
vt 0.000000 0.000000
vt 0.000000 0.000000
vt 0.000000 0.000000
vt 0.000000 0.000000
vt 0.000000 0.000000
vt 0.000000 0.000000
vt 0.000000 0.000000
vt 0.000000 0.000000
vt 0.000000 0.000000
vt 0.000000 0.000000
vt 0.000000 0.000000
vt 0.000000 0.000000
vt 0.000000 0.000000
vt 0.000000 0.000000
vt 0.000000 0.000000
vt 0.000000 0.000000
vt 0.000000 0.000000
vt 0.000000 0.000000
vt 0.000000 0.000000
vt 0.000000 0.000000
vt 0.000000 0.000000
vt 0.000000 0.000000
vt 0.000000 0.000000
vt 0.000000 0.000000
vt 0.000000 0.000000
vt 0.000000 0.000000
vt 0.000000 0.000000
vt 0.000000 0.000000
vt 0.000000 0.000000
vt 0.000000 0.000000
vt 0.000000 0.000000
vt 0.000000 0.000000
vt 0.000000 0.000000
vt 0.000000 0.000000
vt 0.000000 0.000000
vt 0.000000 0.000000
vt 0.000000 0.000000
vt 0.000000 0.000000
vt 0.000000 0.000000
vt 0.000000 0.000000
vt 0.000000 0.000000
vt 0.000000 0.000000
vt 0.000000 0.000000
vt 0.000000 0.000000
vt 0.000000 0.000000
vt 0.000000 0.000000
vt 0.000000 0.000000
vt 0.000000 0.000000
vt 0.000000 0.000000
vt 0.000000 0.000000
vt 0.000000 0.000000
vt 0.000000 0.000000
vt 0.000000 0.000000
vt 0.000000 0.000000
vt 0.000000 0.000000
vt 0.000000 0.000000
vt 0.000000 0.000000
vt 0.000000 0.000000
vt 0.000000 0.000000
vt 0.000000 0.000000
vt 0.000000 0.000000
vt 0.000000 0.000000
vt 0.000000 0.000000
vt 0.000000 0.000000
vt 0.000000 0.000000
vt 0.000000 0.000000
vt 0.000000 0.000000
vt 0.000000 0.000000
vt 0.000000 0.000000
vt 0.000000 0.000000
vt 0.000000 0.000000
vt 0.000000 0.000000
vt 0.000000 0.000000
vt 0.000000 0.000000
vt 0.000000 0.000000
vt 0.000000 0.000000
vt 0.000000 0.000000
vt 0.000000 0.000000
vt 0.000000 0.000000
vt 0.000000 0.000000
vt 0.000000 0.000000
vt 0.000000 0.000000
vt 0.000000 0.000000
vt 0.000000 0.000000
vt 0.000000 0.000000
vt 0.000000 0.000000
vt 0.000000 0.000000
vt 0.000000 0.000000
vt 0.000000 0.000000
vt 0.000000 0.000000
vt 0.000000 0.000000
vt 0.000000 0.000000
vt 0.000000 0.000000
vt 0.000000 0.000000
vt 0.000000 0.000000
vt 0.000000 0.000000
vt 0.000000 0.000000
vt 0.000000 0.000000
vt 0.000000 0.000000
vt 0.000000 0.000000
vt 0.000000 0.000000
vt 0.000000 0.000000
vt 0.000000 0.000000
vt 0.000000 0.000000
vt 0.000000 0.000000
vt 0.000000 0.000000
vt 0.000000 0.000000
vt 0.000000 0.000000
vt 0.000000 0.000000
vt 0.000000 0.000000
vt 0.000000 0.000000
vt 0.000000 0.000000
vt 0.000000 0.000000
vt 0.000000 0.000000
vt 0.000000 0.000000
vt 0.000000 0.000000
vt 0.000000 0.000000
vt 0.000000 0.000000
vt 0.000000 0.000000
vt 0.000000 0.000000
f 1/1/1 2/2/2 3/3/3
f 4/4/4 3/3/3 5/5/5
f 6/6/6 7/7/7 8/8/8
f 4/4/4 8/8/8 9/9/9
f 10/10/10 11/11/11 12/12/12
f 13/13/13 12/12/12 14/14/14
f 15/15/15 16/16/16 17/17/17
f 13/13/13 17/17/17 18/18/18
f 19/19/19 20/20/20 21/21/21
f 22/22/22 21/21/21 23/23/23
f 24/24/24 25/25/25 26/26/26
f 22/22/22 26/26/26 27/27/27
f 28/28/28 29/29/29 30/30/30
f 31/31/31 32/32/32 33/33/33
f 28/28/28 33/33/33 34/34/34
f 35/35/35 36/36/36 29/29/29
f 37/37/37 38/38/38 39/39/39
f 40/40/40 39/39/39 41/41/41
f 42/42/42 43/43/43 44/44/44
f 40/40/40 44/44/44 45/45/45
f 46/46/46 47/47/47 48/48/48
f 49/49/49 48/48/48 38/38/38
f 37/37/37 45/45/45 50/50/50
f 49/49/49 50/50/50 51/51/51
f 52/52/52 53/53/53 54/54/54
f 55/55/55 56/56/56 57/57/57
f 52/52/52 57/57/57 58/58/58
f 59/59/59 60/60/60 53/53/53
f 6/6/6 5/5/5 61/61/61
f 62/62/62 61/61/61 47/47/47
f 46/46/46 51/51/51 63/63/63
f 62/62/62 63/63/63 7/7/7
f 64/64/64 65/65/65 66/66/66
f 67/67/67 68/68/68 69/69/69
f 64/64/64 69/69/69 70/70/70
f 64/64/64 71/71/71 72/72/72
f 73/73/73 42/42/42 41/41/41
f 74/74/74 75/75/75 76/76/76
f 73/73/73 76/76/76 77/77/77
f 78/78/78 43/43/43 42/42/42
f 79/79/79 80/80/80 81/81/81
f 82/82/82 81/81/81 2/2/2
f 1/1/1 9/9/9 83/83/83
f 82/82/82 83/83/83 84/84/84
f 85/85/85 76/76/76 75/75/75
f 86/86/86 87/87/87 88/88/88
f 85/85/85 88/88/88 89/89/89
f 90/90/90 77/77/77 76/76/76
f 91/91/91 92/92/92 93/93/93
f 94/94/94 95/95/95 96/96/96
f 91/91/91 96/96/96 97/97/97
f 98/98/98 99/99/99 92/92/92
f 100/100/100 88/88/88 87/87/87
f 101/101/101 54/54/54 53/53/53
f 100/100/100 53/53/53 60/60/60
f 102/102/102 89/89/89 88/88/88
f 103/103/103 104/104/104 105/105/105
f 106/106/106 105/105/105 107/107/107
f 108/108/108 109/109/109 110/110/110
f 106/106/106 110/110/110 111/111/111
f 24/24/24 23/23/23 112/112/112
f 113/113/113 112/112/112 114/114/114
f 113/113/113 115/115/115 116/116/116
f 113/113/113 117/117/117 25/25/25
f 118/118/118 119/119/119 120/120/120
f 121/121/121 122/122/122 123/123/123
f 118/118/118 123/123/123 124/124/124
f 125/125/125 126/126/126 119/119/119
f 127/127/127 57/57/57 56/56/56
f 128/128/128 30/30/30 29/29/29
f 127/127/127 29/29/29 36/36/36
f 129/129/129 58/58/58 57/57/57
f 130/130/130 123/123/123 122/122/122
f 131/131/131 132/132/132 133/133/133
f 130/130/130 133/133/133 134/134/134
f 135/135/135 124/124/124 123/123/123
f 15/15/15 14/14/14 136/136/136
f 137/137/137 136/136/136 20/20/20
f 19/19/19 27/27/27 138/138/138
f 137/137/137 138/138/138 16/16/16
f 133/133/133 132/132/132 139/139/139
f 140/140/140 139/139/139 104/104/104
f 103/103/103 111/111/111 141/141/141
f 140/140/140 141/141/141 134/134/134
f 142/142/142 33/33/33 32/32/32
f 143/143/143 144/144/144 145/145/145
f 142/142/142 145/145/145 146/146/146
f 147/147/147 34/34/34 33/33/33
f 148/148/148 96/96/96 95/95/95
f 149/149/149 120/120/120 119/119/119
f 148/148/148 119/119/119 126/126/126
f 150/150/150 97/97/97 96/96/96
f 151/151/151 152/152/152 153/153/153
f 154/154/154 153/153/153 11/11/11
f 10/10/10 18/18/18 155/155/155
f 154/154/154 155/155/155 156/156/156
f 108/108/108 107/107/107 157/157/157
f 158/158/158 157/157/157 80/80/80
f 79/79/79 84/84/84 159/159/159
f 158/158/158 159/159/159 109/109/109
f 160/160/160 161/161/161 162/162/162
f 163/163/163 162/162/162 152/152/152
f 151/151/151 156/156/156 164/164/164
f 163/163/163 164/164/164 165/165/165
f 166/166/166 69/69/69 68/68/68
f 167/167/167 93/93/93 92/92/92
f 166/166/166 92/92/92 99/99/99
f 168/168/168 70/70/70 69/69/69
f 169/169/169 145/145/145 144/144/144
f 170/170/170 161/161/161 160/160/160
f 169/169/169 160/160/160 165/165/165
f 171/171/171 146/146/146 145/145/145
f 4/4/4 1/1/1 3/3/3
f 6/6/6 4/4/4 5/5/5
f 4/4/4 6/6/6 8/8/8
f 1/1/1 4/4/4 9/9/9
f 13/13/13 10/10/10 12/12/12
f 15/15/15 13/13/13 14/14/14
f 13/13/13 15/15/15 17/17/17
f 10/10/10 13/13/13 18/18/18
f 22/22/22 19/19/19 21/21/21
f 24/24/24 22/22/22 23/23/23
f 22/22/22 24/24/24 26/26/26
f 19/19/19 22/22/22 27/27/27
f 31/31/31 28/28/28 30/30/30
f 28/28/28 31/31/31 33/33/33
f 35/35/35 28/28/28 34/34/34
f 28/28/28 35/35/35 29/29/29
f 40/40/40 37/37/37 39/39/39
f 42/42/42 40/40/40 41/41/41
f 40/40/40 42/42/42 44/44/44
f 37/37/37 40/40/40 45/45/45
f 49/49/49 46/46/46 48/48/48
f 37/37/37 49/49/49 38/38/38
f 49/49/49 37/37/37 50/50/50
f 46/46/46 49/49/49 51/51/51
f 55/55/55 52/52/52 54/54/54
f 52/52/52 55/55/55 57/57/57
f 59/59/59 52/52/52 58/58/58
f 52/52/52 59/59/59 53/53/53
f 62/62/62 6/6/6 61/61/61
f 46/46/46 62/62/62 47/47/47
f 62/62/62 46/46/46 63/63/63
f 6/6/6 62/62/62 7/7/7
f 67/67/67 64/64/64 66/66/66
f 64/64/64 67/67/67 69/69/69
f 71/71/71 64/64/64 70/70/70
f 65/65/65 64/64/64 72/72/72
f 74/74/74 73/73/73 41/41/41
f 73/73/73 74/74/74 76/76/76
f 78/78/78 73/73/73 77/77/77
f 73/73/73 78/78/78 42/42/42
f 82/82/82 79/79/79 81/81/81
f 1/1/1 82/82/82 2/2/2
f 82/82/82 1/1/1 83/83/83
f 79/79/79 82/82/82 84/84/84
f 86/86/86 85/85/85 75/75/75
f 85/85/85 86/86/86 88/88/88
f 90/90/90 85/85/85 89/89/89
f 85/85/85 90/90/90 76/76/76
f 94/94/94 91/91/91 93/93/93
f 91/91/91 94/94/94 96/96/96
f 98/98/98 91/91/91 97/97/97
f 91/91/91 98/98/98 92/92/92
f 101/101/101 100/100/100 87/87/87
f 100/100/100 101/101/101 53/53/53
f 102/102/102 100/100/100 60/60/60
f 100/100/100 102/102/102 88/88/88
f 106/106/106 103/103/103 105/105/105
f 108/108/108 106/106/106 107/107/107
f 106/106/106 108/108/108 110/110/110
f 103/103/103 106/106/106 111/111/111
f 113/113/113 24/24/24 112/112/112
f 115/115/115 113/113/113 114/114/114
f 117/117/117 113/113/113 116/116/116
f 24/24/24 113/113/113 25/25/25
f 121/121/121 118/118/118 120/120/120
f 118/118/118 121/121/121 123/123/123
f 125/125/125 118/118/118 124/124/124
f 118/118/118 125/125/125 119/119/119
f 128/128/128 127/127/127 56/56/56
f 127/127/127 128/128/128 29/29/29
f 129/129/129 127/127/127 36/36/36
f 127/127/127 129/129/129 57/57/57
f 131/131/131 130/130/130 122/122/122
f 130/130/130 131/131/131 133/133/133
f 135/135/135 130/130/130 134/134/134
f 130/130/130 135/135/135 123/123/123
f 137/137/137 15/15/15 136/136/136
f 19/19/19 137/137/137 20/20/20
f 137/137/137 19/19/19 138/138/138
f 15/15/15 137/137/137 16/16/16
f 140/140/140 133/133/133 139/139/139
f 103/103/103 140/140/140 104/104/104
f 140/140/140 103/103/103 141/141/141
f 133/133/133 140/140/140 134/134/134
f 143/143/143 142/142/142 32/32/32
f 142/142/142 143/143/143 145/145/145
f 147/147/147 142/142/142 146/146/146
f 142/142/142 147/147/147 33/33/33
f 149/149/149 148/148/148 95/95/95
f 148/148/148 149/149/149 119/119/119
f 150/150/150 148/148/148 126/126/126
f 148/148/148 150/150/150 96/96/96
f 154/154/154 151/151/151 153/153/153
f 10/10/10 154/154/154 11/11/11
f 154/154/154 10/10/10 155/155/155
f 151/151/151 154/154/154 156/156/156
f 158/158/158 108/108/108 157/157/157
f 79/79/79 158/158/158 80/80/80
f 158/158/158 79/79/79 159/159/159
f 108/108/108 158/158/158 109/109/109
f 163/163/163 160/160/160 162/162/162
f 151/151/151 163/163/163 152/152/152
f 163/163/163 151/151/151 164/164/164
f 160/160/160 163/163/163 165/165/165
f 167/167/167 166/166/166 68/68/68
f 166/166/166 167/167/167 92/92/92
f 168/168/168 166/166/166 99/99/99
f 166/166/166 168/168/168 69/69/69
f 170/170/170 169/169/169 144/144/144
f 169/169/169 170/170/170 160/160/160
f 171/171/171 169/169/169 165/165/165
f 169/169/169 171/171/171 145/145/145
