v -0.529076 4.811316 -2.031447
v -0.527507 4.812884 -2.031447
v -0.528117 4.812884 -2.028380
v -0.529566 4.811316 -2.028980
v -0.529855 4.812884 -2.025779
v -0.530964 4.811316 -2.026888
v -0.532456 4.812884 -2.024042
v -0.535523 4.812884 -2.023431
v -0.535523 4.811316 -2.025000
v -0.538590 4.812884 -2.024041
v -0.537990 4.811316 -2.025490
v -0.541191 4.812884 -2.025779
v -0.540082 4.811316 -2.026888
v -0.542929 4.812884 -2.028379
v -0.541480 4.811316 -2.028980
v -0.543539 4.812884 -2.031447
v -0.541971 4.811316 -2.031447
v -0.542929 4.812884 -2.034514
v -0.541480 4.811316 -2.033914
v -0.541191 4.812884 -2.037115
v -0.540082 4.811316 -2.036006
v -0.538591 4.812884 -2.038853
v -0.537991 4.811316 -2.037404
v -0.535523 4.812884 -2.039463
v -0.532456 4.812884 -2.038853
v -0.533056 4.811316 -2.037404
v -0.529855 4.812884 -2.037115
v -0.530964 4.811316 -2.036006
v -0.528118 4.812884 -2.034515
v -0.529566 4.811316 -2.033915
v -0.533056 4.811316 -2.025491
v -0.535523 4.811316 -2.037895
vn 0.707100 -0.707100 0.000000
vn 0.707100 -0.707100 0.000000
vn 0.653300 -0.707100 0.270600
vn 0.653300 -0.707100 0.270500
vn 0.500000 -0.707100 0.500000
vn 0.500000 -0.707100 0.500000
vn 0.270600 -0.707100 0.653200
vn 0.000000 -0.707100 0.707100
vn 0.000000 -0.707100 0.707100
vn -0.270600 -0.707100 0.653300
vn -0.270600 -0.707200 0.653200
vn -0.500000 -0.707000 0.500000
vn -0.500000 -0.707100 0.500000
vn -0.653300 -0.707100 0.270700
vn -0.653300 -0.707100 0.270600
vn -0.707100 -0.707100 0.000000
vn -0.707100 -0.707100 0.000000
vn -0.653300 -0.707100 -0.270600
vn -0.653300 -0.707100 -0.270500
vn -0.500000 -0.707100 -0.500000
vn -0.500000 -0.707100 -0.499900
vn -0.270600 -0.707100 -0.653200
vn -0.270600 -0.707100 -0.653200
vn 0.000000 -0.707100 -0.707100
vn 0.270600 -0.707100 -0.653300
vn 0.270600 -0.707100 -0.653200
vn 0.500000 -0.707100 -0.500000
vn 0.500000 -0.707100 -0.500000
vn 0.653300 -0.707100 -0.270600
vn 0.653200 -0.707100 -0.270500
vn 0.270700 -0.707100 0.653200
vn 0.000000 -0.707100 -0.707100
vt 0.000000 0.000000
vt 0.000000 0.000000
vt 0.000000 0.000000
vt 0.000000 0.000000
vt 0.000000 0.000000
vt 0.000000 0.000000
vt 0.000000 0.000000
vt 0.000000 0.000000
vt 0.000000 0.000000
vt 0.000000 0.000000
vt 0.000000 0.000000
vt 0.000000 0.000000
vt 0.000000 0.000000
vt 0.000000 0.000000
vt 0.000000 0.000000
vt 0.000000 0.000000
vt 0.000000 0.000000
vt 0.000000 0.000000
vt 0.000000 0.000000
vt 0.000000 0.000000
vt 0.000000 0.000000
vt 0.000000 0.000000
vt 0.000000 0.000000
vt 0.000000 0.000000
vt 0.000000 0.000000
vt 0.000000 0.000000
vt 0.000000 0.000000
vt 0.000000 0.000000
vt 0.000000 0.000000
vt 0.000000 0.000000
vt 0.000000 0.000000
vt 0.000000 0.000000
f 1/1/1 2/2/2 3/3/3
f 4/4/4 3/3/3 5/5/5
f 6/6/6 5/5/5 7/7/7
f 7/7/7 8/8/8 9/9/9
f 8/8/8 10/10/10 11/11/11
f 10/10/10 12/12/12 13/13/13
f 12/12/12 14/14/14 15/15/15
f 15/15/15 14/14/14 16/16/16
f 17/17/17 16/16/16 18/18/18
f 19/19/19 18/18/18 20/20/20
f 21/21/21 20/20/20 22/22/22
f 23/23/23 22/22/22 24/24/24
f 24/24/24 25/25/25 26/26/26
f 25/25/25 27/27/27 28/28/28
f 27/27/27 29/29/29 30/30/30
f 29/29/29 2/2/2 1/1/1
f 4/4/4 1/1/1 3/3/3
f 6/6/6 4/4/4 5/5/5
f 31/31/31 6/6/6 7/7/7
f 31/31/31 7/7/7 9/9/9
f 9/9/9 8/8/8 11/11/11
f 11/11/11 10/10/10 13/13/13
f 13/13/13 12/12/12 15/15/15
f 17/17/17 15/15/15 16/16/16
f 19/19/19 17/17/17 18/18/18
f 21/21/21 19/19/19 20/20/20
f 23/23/23 21/21/21 22/22/22
f 32/32/32 23/23/23 24/24/24
f 32/32/32 24/24/24 26/26/26
f 26/26/26 25/25/25 28/28/28
f 28/28/28 27/27/27 30/30/30
f 30/30/30 29/29/29 1/1/1
