v 0.460549 2.779651 -3.221461
v 0.459255 2.779651 -3.208323
v 0.452488 2.783376 -3.208323
v 0.464382 2.779651 -3.234095
v 0.452488 2.784175 -3.223065
v 0.470605 2.779651 -3.245738
v 0.452488 2.786737 -3.239022
v 0.452488 2.789762 -3.250622
v 0.452488 2.792557 -3.257843
v 0.455332 2.789762 -3.255943
v 0.465991 2.789762 -3.268932
v 0.478980 2.779651 -3.255943
v 0.458797 2.802082 -3.282436
v 0.477080 2.792557 -3.282436
v 0.478980 2.789762 -3.279592
v 0.484301 2.789762 -3.282436
v 0.489185 2.779651 -3.264318
v 0.495902 2.786737 -3.282436
v 0.500829 2.779651 -3.270542
v 0.511859 2.784175 -3.282436
v 0.513462 2.779651 -3.274374
v 0.526600 2.783376 -3.282436
v 0.526600 2.779651 -3.275668
v 0.513462 2.779651 -3.274374
v 0.539739 2.779651 -3.274374
v 0.552372 2.779651 -3.270542
v 0.541342 2.784175 -3.282436
v 0.576121 2.792557 -3.282436
v 0.574221 2.789762 -3.279592
v 0.568900 2.789762 -3.282436
v 0.564016 2.779651 -3.264318
v 0.557299 2.786737 -3.282436
v 0.587210 2.789762 -3.268932
v 0.574221 2.779651 -3.255943
v 0.600713 2.802082 -3.276126
v 0.600713 2.792557 -3.257843
v 0.594404 2.802082 -3.282436
v 0.597869 2.789762 -3.255943
v 0.582596 2.779651 -3.245738
v 0.600713 2.789762 -3.250623
v 0.600713 2.786737 -3.239021
v 0.588819 2.779651 -3.234095
v 0.600713 2.784175 -3.223065
v 0.592652 2.779651 -3.221461
v 0.600713 2.783376 -3.208323
v 0.593946 2.779651 -3.208323
v 0.592652 2.779651 -3.195184
v 0.588819 2.779651 -3.182551
v 0.600713 2.784175 -3.193581
v 0.600713 2.792557 -3.158802
v 0.597869 2.789762 -3.160702
v 0.600713 2.789762 -3.166023
v 0.582596 2.779651 -3.170908
v 0.600713 2.786737 -3.177624
v 0.587210 2.789762 -3.147714
v 0.594404 2.802082 -3.134210
v 0.576121 2.792557 -3.134210
v 0.600713 2.802082 -3.140520
v 0.574221 2.789762 -3.137054
v 0.564016 2.779651 -3.152327
v 0.568900 2.789762 -3.134210
v 0.557299 2.786737 -3.134210
v 0.552372 2.779651 -3.146104
v 0.541342 2.784175 -3.134210
v 0.539739 2.779651 -3.142272
v 0.526600 2.783376 -3.134210
v 0.526600 2.779651 -3.140978
v 0.513462 2.779651 -3.142272
v 0.500829 2.779651 -3.146104
v 0.513462 2.779651 -3.142272
v 0.511858 2.784175 -3.134210
v 0.526600 2.777470 -3.271996
v 0.514179 2.777470 -3.270772
v 0.491226 2.777470 -3.261265
v 0.477080 2.792557 -3.134210
v 0.478980 2.789762 -3.137054
v 0.484301 2.789762 -3.134210
v 0.489185 2.779651 -3.152327
v 0.495902 2.786737 -3.134210
v 0.465991 2.789762 -3.147714
v 0.452488 2.802082 -3.140520
v 0.452488 2.792557 -3.158802
v 0.455332 2.789762 -3.160703
v 0.470605 2.779651 -3.170908
v 0.467774 2.777470 -3.232689
v 0.458797 2.802082 -3.134210
v 0.452488 2.789762 -3.166023
v 0.452488 2.786737 -3.177624
v 0.464382 2.779651 -3.182551
v 0.452488 2.784175 -3.193581
v 0.460549 2.779651 -3.195184
v 0.464151 2.777470 -3.220745
v 0.452488 2.802082 -3.276126
v 0.452488 2.807128 -3.282436
v 0.539022 2.777470 -3.270772
v 0.550967 2.777470 -3.267149
v 0.561975 2.777470 -3.261265
v 0.571624 2.777470 -3.253346
v 0.579542 2.777470 -3.243698
v 0.585427 2.777470 -3.232689
v 0.590273 2.777470 -3.208323
v 0.481577 2.777470 -3.253346
v 0.473658 2.777470 -3.243698
v 0.478980 2.779651 -3.160703
v 0.481577 2.777470 -3.163300
v 0.491226 2.777470 -3.155381
v 0.473658 2.777470 -3.172948
v 0.467775 2.777470 -3.183956
v 0.464151 2.777470 -3.195901
v 0.462928 2.777470 -3.208323
v 0.589050 2.777470 -3.195901
v 0.585426 2.777470 -3.183956
v 0.579542 2.777470 -3.172948
v 0.571624 2.777470 -3.163299
v 0.561975 2.777470 -3.155381
v 0.574221 2.779651 -3.160702
v 0.550967 2.777470 -3.149497
v 0.539022 2.777470 -3.145874
v 0.526600 2.777470 -3.144650
v 0.514179 2.777470 -3.145874
v 0.502234 2.777470 -3.149497
v 0.514179 2.777470 -3.145874
v 0.511859 2.784175 -3.282436
v 0.600713 2.807128 -3.282436
v 0.600713 2.807128 -3.134210
v 0.511858 2.784175 -3.134210
v 0.514179 2.777470 -3.270772
v 0.502234 2.777470 -3.267149
v 0.452488 2.807128 -3.134210
v 0.589050 2.777470 -3.220745
vn -0.486200 -0.868400 -0.096700
vn -0.495700 -0.868400 0.000000
vn -0.482200 -0.876000 0.000000
vn -0.458000 -0.868500 -0.189700
vn -0.471600 -0.876000 -0.100600
vn -0.412200 -0.868400 -0.275400
vn -0.440400 -0.876000 -0.196700
vn -0.453100 -0.857900 -0.242200
vn -0.510600 -0.774000 -0.374400
vn -0.468700 -0.826000 -0.313200
vn -0.399200 -0.825400 -0.399200
vn -0.350500 -0.868500 -0.350500
vn -0.464600 -0.738100 -0.489300
vn -0.374400 -0.774000 -0.510500
vn -0.313200 -0.826000 -0.468700
vn -0.242200 -0.857900 -0.453100
vn -0.275400 -0.868400 -0.412200
vn -0.196700 -0.876000 -0.440400
vn -0.189700 -0.868400 -0.458000
vn -0.100600 -0.876000 -0.471600
vn -0.096700 -0.868500 -0.486200
vn 0.000000 -0.876000 -0.482200
vn 0.000000 -0.868400 -0.495700
vn -0.096700 -0.868500 -0.486200
vn 0.096700 -0.868500 -0.486200
vn 0.189700 -0.868500 -0.458000
vn 0.100600 -0.876000 -0.471600
vn 0.374400 -0.774000 -0.510600
vn 0.313200 -0.826000 -0.468700
vn 0.242200 -0.857900 -0.453100
vn 0.275400 -0.868400 -0.412200
vn 0.196600 -0.876000 -0.440400
vn 0.399200 -0.825400 -0.399200
vn 0.350500 -0.868500 -0.350500
vn 0.489300 -0.738100 -0.464600
vn 0.510600 -0.774000 -0.374400
vn 0.464500 -0.738100 -0.489300
vn 0.468700 -0.826000 -0.313200
vn 0.412200 -0.868500 -0.275400
vn 0.453100 -0.857900 -0.242200
vn 0.440400 -0.876000 -0.196700
vn 0.458000 -0.868500 -0.189700
vn 0.471600 -0.876000 -0.100600
vn 0.486200 -0.868400 -0.096700
vn 0.482200 -0.876000 0.000000
vn 0.495700 -0.868500 0.000000
vn 0.486200 -0.868500 0.096700
vn 0.458000 -0.868500 0.189700
vn 0.471600 -0.876000 0.100600
vn 0.510600 -0.774000 0.374400
vn 0.468700 -0.826000 0.313200
vn 0.453100 -0.857900 0.242200
vn 0.412200 -0.868400 0.275400
vn 0.440400 -0.876000 0.196700
vn 0.399200 -0.825400 0.399200
vn 0.464500 -0.738100 0.489300
vn 0.374400 -0.774000 0.510600
vn 0.489300 -0.738100 0.464600
vn 0.313200 -0.826000 0.468700
vn 0.275400 -0.868500 0.412200
vn 0.242200 -0.857900 0.453100
vn 0.196700 -0.876000 0.440400
vn 0.189700 -0.868400 0.458000
vn 0.100600 -0.876000 0.471600
vn 0.096700 -0.868500 0.486200
vn 0.000000 -0.876000 0.482200
vn 0.000000 -0.868400 0.495700
vn -0.096700 -0.868500 0.486200
vn -0.189700 -0.868500 0.458000
vn -0.096700 -0.868500 0.486200
vn -0.100600 -0.876000 0.471600
vn 0.000000 -0.859700 -0.510700
vn -0.099600 -0.859800 -0.500900
vn -0.283700 -0.859700 -0.424700
vn -0.374400 -0.773900 0.510600
vn -0.313200 -0.826000 0.468700
vn -0.242200 -0.857900 0.453100
vn -0.275400 -0.868500 0.412200
vn -0.196700 -0.876000 0.440400
vn -0.399200 -0.825400 0.399200
vn -0.489300 -0.738100 0.464600
vn -0.510600 -0.774000 0.374400
vn -0.468700 -0.826000 0.313200
vn -0.412200 -0.868500 0.275400
vn -0.471800 -0.859700 -0.195400
vn -0.464500 -0.738100 0.489300
vn -0.453100 -0.857900 0.242200
vn -0.440400 -0.876000 0.196700
vn -0.458000 -0.868400 0.189700
vn -0.471600 -0.876000 0.100600
vn -0.486200 -0.868500 0.096700
vn -0.500900 -0.859700 -0.099600
vn -0.489300 -0.738100 -0.464500
vn -0.529800 -0.662300 -0.529700
vn 0.099600 -0.859700 -0.500900
vn 0.195400 -0.859700 -0.471800
vn 0.283700 -0.859700 -0.424700
vn 0.361100 -0.859700 -0.361100
vn 0.424600 -0.859700 -0.283700
vn 0.471800 -0.859700 -0.195400
vn 0.510700 -0.859700 0.000000
vn -0.361100 -0.859700 -0.361100
vn -0.424600 -0.859700 -0.283700
vn -0.350500 -0.868500 0.350500
vn -0.361100 -0.859700 0.361100
vn -0.283700 -0.859700 0.424600
vn -0.424600 -0.859700 0.283700
vn -0.471800 -0.859700 0.195400
vn -0.500900 -0.859700 0.099600
vn -0.510700 -0.859700 0.000000
vn 0.500900 -0.859700 0.099600
vn 0.471800 -0.859700 0.195400
vn 0.424600 -0.859700 0.283700
vn 0.361100 -0.859700 0.361100
vn 0.283700 -0.859700 0.424600
vn 0.350500 -0.868500 0.350500
vn 0.195400 -0.859700 0.471800
vn 0.099600 -0.859800 0.500800
vn 0.000000 -0.859700 0.510700
vn -0.099600 -0.859700 0.500900
vn -0.195400 -0.859800 0.471800
vn -0.099600 -0.859700 0.500900
vn -0.100600 -0.876000 -0.471600
vn 0.529700 -0.662300 -0.529800
vn 0.529700 -0.662300 0.529800
vn -0.100600 -0.876000 0.471600
vn -0.099600 -0.859800 -0.500900
vn -0.195400 -0.859700 -0.471800
vn -0.529700 -0.662300 0.529700
vn 0.500900 -0.859700 -0.099600
vt 0.080848 0.745372
vt 0.091724 0.746084
vt 0.097172 0.747105
vt 0.069697 0.744687
vt 0.086245 0.746525
vt 0.058343 0.744056
vt 0.076382 0.746362
vt 0.070270 0.746562
vt 0.066814 0.746937
vt 0.065716 0.746274
vt 0.052568 0.745570
vt 0.046838 0.743503
vt 0.052780 0.748214
vt 0.040054 0.745604
vt 0.039427 0.744992
vt 0.034639 0.744838
vt 0.035220 0.743049
vt 0.025534 0.744009
vt 0.023523 0.742711
vt 0.012432 0.743306
vt 0.011774 0.742503
vt 0.795999 0.743087
vt 0.795999 0.742433
vt 0.807773 0.742503
vt 0.784225 0.742503
vt 0.772476 0.742711
vt 0.783567 0.743306
vt 0.755945 0.745604
vt 0.756572 0.744992
vt 0.761360 0.744838
vt 0.760779 0.743049
vt 0.770465 0.744009
vt 0.743431 0.745570
vt 0.749161 0.743503
vt 0.736850 0.748556
vt 0.729185 0.746937
vt 0.743219 0.748214
vt 0.730283 0.746274
vt 0.737656 0.744056
vt 0.725729 0.746562
vt 0.719617 0.746362
vt 0.726302 0.744687
vt 0.709754 0.746525
vt 0.715151 0.745372
vt 0.698827 0.747105
vt 0.704275 0.746084
vt 0.693782 0.746797
vt 0.683844 0.747482
vt 0.685837 0.748124
vt 0.645859 0.752306
vt 0.649592 0.751437
vt 0.655155 0.751149
vt 0.674771 0.748113
vt 0.669116 0.749691
vt 0.634856 0.752142
vt 0.611535 0.756250
vt 0.612188 0.753640
vt 0.620657 0.755908
vt 0.618636 0.752719
vt 0.662395 0.749120
vt 0.613153 0.752874
vt 0.616794 0.752045
vt 0.664249 0.749458
vt 0.633263 0.751342
vt 0.687371 0.749665
vt 0.795999 0.751123
vt 0.795999 0.749736
vt 0.904627 0.749665
vt 0.131750 0.749458
vt 0.108628 0.749665
vt 0.162736 0.751342
vt 0.795999 0.742035
vt 0.011455 0.742101
vt 0.034241 0.742616
vt 0.183812 0.753640
vt 0.177363 0.752719
vt 0.182846 0.752874
vt 0.133604 0.749120
vt 0.179205 0.752045
vt 0.161143 0.752142
vt 0.175342 0.755908
vt 0.150140 0.752306
vt 0.146407 0.751437
vt 0.121228 0.748113
vt 0.067562 0.744165
vt 0.184464 0.756250
vt 0.140843 0.751149
vt 0.126884 0.749691
vt 0.112155 0.747482
vt 0.110162 0.748124
vt 0.102217 0.746797
vt 0.078237 0.744813
vt 0.059149 0.748556
vt 0.056759 0.749597
vt 0.784544 0.742101
vt 0.773119 0.742297
vt 0.761758 0.742616
vt 0.750494 0.743046
vt 0.739370 0.743569
vt 0.728437 0.744165
vt 0.707439 0.745487
vt 0.045505 0.743046
vt 0.056629 0.743569
vt 0.128832 0.748666
vt 0.121519 0.747927
vt 0.123956 0.748357
vt 0.115459 0.747404
vt 0.107488 0.746808
vt 0.098387 0.746160
vt 0.088560 0.745487
vt 0.697612 0.746160
vt 0.688511 0.746808
vt 0.680540 0.747404
vt 0.674480 0.747927
vt 0.672043 0.748357
vt 0.667167 0.748666
vt 0.677718 0.748676
vt 0.706171 0.748872
vt 0.795999 0.748939
vt 0.885827 0.748872
vt 0.118281 0.748676
vt 0.089828 0.748872
vt 0.808431 0.743306
vt 0.739240 0.749597
vt 0.611960 0.757633
vt 0.958735 0.751342
vt 0.807454 0.742101
vt 0.022880 0.742297
vt 0.184039 0.757633
vt 0.717762 0.744813
f 1/1/1 2/2/2 3/3/3
f 4/4/4 1/1/1 5/5/5
f 6/6/6 7/7/7 8/8/8
f 6/6/6 4/4/4 7/7/7
f 9/9/9 10/10/10 8/8/8
f 11/11/11 10/10/10 9/9/9
f 10/10/10 11/11/11 12/12/12
f 11/11/11 13/13/13 14/14/14
f 12/12/12 11/11/11 15/15/15
f 16/16/16 15/15/15 14/14/14
f 17/17/17 15/15/15 16/16/16
f 18/18/18 19/19/19 17/17/17
f 20/20/20 21/21/21 19/19/19
f 22/22/22 23/23/23 24/24/24
f 25/25/25 23/23/23 22/22/22
f 26/26/26 25/25/25 27/27/27
f 28/28/28 29/29/29 30/30/30
f 31/31/31 32/32/32 30/30/30
f 31/31/31 26/26/26 32/32/32
f 33/33/33 29/29/29 28/28/28
f 29/29/29 33/33/33 34/34/34
f 33/33/33 35/35/35 36/36/36
f 35/35/35 33/33/33 37/37/37
f 33/33/33 38/38/38 39/39/39
f 40/40/40 38/38/38 36/36/36
f 39/39/39 38/38/38 40/40/40
f 41/41/41 42/42/42 39/39/39
f 43/43/43 44/44/44 42/42/42
f 45/45/45 46/46/46 44/44/44
f 47/47/47 46/46/46 45/45/45
f 48/48/48 47/47/47 49/49/49
f 50/50/50 51/51/51 52/52/52
f 53/53/53 54/54/54 52/52/52
f 53/53/53 48/48/48 54/54/54
f 53/53/53 51/51/51 55/55/55
f 55/55/55 51/51/51 50/50/50
f 55/55/55 56/56/56 57/57/57
f 56/56/56 55/55/55 58/58/58
f 55/55/55 59/59/59 60/60/60
f 61/61/61 59/59/59 57/57/57
f 60/60/60 59/59/59 61/61/61
f 62/62/62 63/63/63 60/60/60
f 64/64/64 65/65/65 63/63/63
f 66/66/66 67/67/67 65/65/65
f 68/68/68 67/67/67 66/66/66
f 69/69/69 70/70/70 71/71/71
f 24/24/24 23/23/23 72/72/72
f 19/19/19 21/21/21 73/73/73
f 74/74/74 17/17/17 19/19/19
f 75/75/75 76/76/76 77/77/77
f 78/78/78 79/79/79 77/77/77
f 78/78/78 69/69/69 79/79/79
f 78/78/78 76/76/76 80/80/80
f 12/12/12 17/17/17 74/74/74
f 80/80/80 76/76/76 75/75/75
f 80/80/80 81/81/81 82/82/82
f 80/80/80 83/83/83 84/84/84
f 1/1/1 4/4/4 85/85/85
f 81/81/81 80/80/80 86/86/86
f 87/87/87 83/83/83 82/82/82
f 84/84/84 83/83/83 87/87/87
f 88/88/88 89/89/89 84/84/84
f 90/90/90 91/91/91 89/89/89
f 3/3/3 2/2/2 91/91/91
f 2/2/2 1/1/1 92/92/92
f 93/93/93 94/94/94 13/13/13
f 72/72/72 23/23/23 25/25/25
f 95/95/95 25/25/25 26/26/26
f 96/96/96 26/26/26 31/31/31
f 97/97/97 31/31/31 34/34/34
f 98/98/98 34/34/34 39/39/39
f 99/99/99 39/39/39 42/42/42
f 100/100/100 42/42/42 44/44/44
f 44/44/44 46/46/46 101/101/101
f 6/6/6 12/12/12 102/102/102
f 4/4/4 6/6/6 103/103/103
f 104/104/104 105/105/105 106/106/106
f 107/107/107 105/105/105 104/104/104
f 108/108/108 107/107/107 84/84/84
f 91/91/91 109/109/109 108/108/108
f 2/2/2 110/110/110 109/109/109
f 111/111/111 101/101/101 46/46/46
f 112/112/112 111/111/111 47/47/47
f 113/113/113 112/112/112 48/48/48
f 114/114/114 113/113/113 53/53/53
f 115/115/115 114/114/114 116/116/116
f 117/117/117 115/115/115 60/60/60
f 118/118/118 117/117/117 63/63/63
f 67/67/67 119/119/119 118/118/118
f 120/120/120 119/119/119 67/67/67
f 121/121/121 122/122/122 70/70/70
f 78/78/78 106/106/106 121/121/121
f 5/5/5 1/1/1 3/3/3
f 7/7/7 4/4/4 5/5/5
f 10/10/10 6/6/6 8/8/8
f 93/93/93 11/11/11 9/9/9
f 6/6/6 10/10/10 12/12/12
f 15/15/15 11/11/11 14/14/14
f 17/17/17 12/12/12 15/15/15
f 18/18/18 17/17/17 16/16/16
f 18/18/18 20/20/20 19/19/19
f 123/123/123 22/22/22 24/24/24
f 27/27/27 25/25/25 22/22/22
f 32/32/32 26/26/26 27/27/27
f 29/29/29 31/31/31 30/30/30
f 37/37/37 33/33/33 28/28/28
f 31/31/31 29/29/29 34/34/34
f 38/38/38 33/33/33 36/36/36
f 124/124/124 35/35/35 37/37/37
f 34/34/34 33/33/33 39/39/39
f 41/41/41 39/39/39 40/40/40
f 41/41/41 43/43/43 42/42/42
f 43/43/43 45/45/45 44/44/44
f 49/49/49 47/47/47 45/45/45
f 54/54/54 48/48/48 49/49/49
f 51/51/51 53/53/53 52/52/52
f 116/116/116 53/53/53 55/55/55
f 58/58/58 55/55/55 50/50/50
f 59/59/59 55/55/55 57/57/57
f 125/125/125 56/56/56 58/58/58
f 116/116/116 55/55/55 60/60/60
f 62/62/62 60/60/60 61/61/61
f 62/62/62 64/64/64 63/63/63
f 64/64/64 66/66/66 65/65/65
f 126/126/126 68/68/68 66/66/66
f 79/79/79 69/69/69 71/71/71
f 127/127/127 24/24/24 72/72/72
f 128/128/128 19/19/19 73/73/73
f 128/128/128 74/74/74 19/19/19
f 76/76/76 78/78/78 77/77/77
f 104/104/104 78/78/78 80/80/80
f 102/102/102 12/12/12 74/74/74
f 86/86/86 80/80/80 75/75/75
f 83/83/83 80/80/80 82/82/82
f 104/104/104 80/80/80 84/84/84
f 92/92/92 1/1/1 85/85/85
f 129/129/129 81/81/81 86/86/86
f 88/88/88 84/84/84 87/87/87
f 88/88/88 90/90/90 89/89/89
f 90/90/90 3/3/3 91/91/91
f 110/110/110 2/2/2 92/92/92
f 11/11/11 93/93/93 13/13/13
f 95/95/95 72/72/72 25/25/25
f 96/96/96 95/95/95 26/26/26
f 97/97/97 96/96/96 31/31/31
f 98/98/98 97/97/97 34/34/34
f 99/99/99 98/98/98 39/39/39
f 100/100/100 99/99/99 42/42/42
f 130/130/130 100/100/100 44/44/44
f 130/130/130 44/44/44 101/101/101
f 103/103/103 6/6/6 102/102/102
f 85/85/85 4/4/4 103/103/103
f 78/78/78 104/104/104 106/106/106
f 84/84/84 107/107/107 104/104/104
f 89/89/89 108/108/108 84/84/84
f 89/89/89 91/91/91 108/108/108
f 91/91/91 2/2/2 109/109/109
f 47/47/47 111/111/111 46/46/46
f 48/48/48 112/112/112 47/47/47
f 53/53/53 113/113/113 48/48/48
f 116/116/116 114/114/114 53/53/53
f 60/60/60 115/115/115 116/116/116
f 63/63/63 117/117/117 60/60/60
f 65/65/65 118/118/118 63/63/63
f 65/65/65 67/67/67 118/118/118
f 68/68/68 120/120/120 67/67/67
f 69/69/69 121/121/121 70/70/70
f 69/69/69 78/78/78 121/121/121
