v -1.017614 4.439022 -2.209916
v -1.002610 4.439022 -2.246138
v -0.992001 4.439022 -2.220525
v -1.029715 4.439022 -2.228027
v -1.029339 4.439022 -2.231851
v -1.028223 4.439022 -2.235528
v -1.028223 4.439022 -2.220525
v -1.029339 4.439022 -2.224202
v -1.026412 4.439022 -2.217136
v -1.021003 4.439022 -2.211727
v -1.023974 4.439022 -2.214165
v -1.010112 4.439022 -2.208424
v -1.013937 4.439022 -2.208800
v -1.006288 4.439022 -2.208800
v -0.996251 4.439022 -2.214165
v -0.999221 4.439022 -2.211727
v -1.002610 4.439022 -2.209916
v -0.993813 4.439022 -2.217136
v -0.990509 4.439022 -2.228027
v -0.990886 4.439022 -2.224202
v -0.990886 4.439022 -2.231851
v -0.996251 4.439022 -2.241888
v -0.993813 4.439022 -2.238918
v -0.992001 4.439022 -2.235528
v -0.999221 4.439022 -2.244326
v -1.017614 4.439022 -2.246138
v -1.006288 4.439022 -2.247253
v -1.013937 4.439022 -2.247253
v -1.010112 4.439022 -2.247630
v -1.023974 4.439022 -2.241888
v -1.021003 4.439022 -2.244326
v -1.026412 4.439022 -2.238918
vn 0.000000 -1.000000 0.000000
vn 0.000000 -1.000000 0.000000
vn 0.000000 -1.000000 0.000000
vn 0.000000 -1.000000 0.000000
vn 0.000000 -1.000000 0.000000
vn 0.000000 -1.000000 0.000000
vn 0.000000 -1.000000 0.000100
vn 0.000000 -1.000000 0.000000
vn 0.000000 -1.000000 0.000100
vn 0.000000 -1.000000 0.000000
vn 0.000000 -1.000000 -0.000400
vn 0.000000 -1.000000 -0.000400
vn 0.000000 -1.000000 0.000000
vn 0.000000 -1.000000 0.000000
vn 0.000000 -1.000000 0.000400
vn 0.000000 -1.000000 0.000000
vn 0.000000 -1.000000 0.000000
vn 0.000000 -1.000000 -0.000400
vn 0.000000 -1.000000 0.000000
vn 0.000000 -1.000000 0.000000
vn 0.000000 -1.000000 0.000000
vn 0.000000 -1.000000 0.000100
vn 0.000000 -1.000000 -0.000600
vn 0.000000 -1.000000 0.000000
vn 0.000000 -1.000000 0.000000
vn 0.000000 -1.000000 -0.000100
vn 0.000000 -1.000000 -0.000200
vn 0.000000 -1.000000 0.000000
vn 0.000000 -1.000000 0.000400
vn 0.000000 -1.000000 -0.000400
vn 0.000000 -1.000000 0.000000
vn 0.000000 -1.000000 0.000400
vt 0.000000 0.000000
vt 0.000000 0.000000
vt 0.000000 0.000000
vt 0.000000 0.000000
vt 0.000000 0.000000
vt 0.000000 0.000000
vt 0.000000 0.000000
vt 0.000000 0.000000
vt 0.000000 0.000000
vt 0.000000 0.000000
vt 0.000000 0.000000
vt 0.000000 0.000000
vt 0.000000 0.000000
vt 0.000000 0.000000
vt 0.000000 0.000000
vt 0.000000 0.000000
vt 0.000000 0.000000
vt 0.000000 0.000000
vt 0.000000 0.000000
vt 0.000000 0.000000
vt 0.000000 0.000000
vt 0.000000 0.000000
vt 0.000000 0.000000
vt 0.000000 0.000000
vt 0.000000 0.000000
vt 0.000000 0.000000
vt 0.000000 0.000000
vt 0.000000 0.000000
vt 0.000000 0.000000
vt 0.000000 0.000000
vt 0.000000 0.000000
vt 0.000000 0.000000
f 1/1/1 2/2/2 3/3/3
f 4/4/4 5/5/5 6/6/6
f 7/7/7 8/8/8 4/4/4
f 1/1/1 9/9/9 7/7/7
f 1/1/1 10/10/10 11/11/11
f 12/12/12 13/13/13 1/1/1
f 1/1/1 14/14/14 12/12/12
f 15/15/15 16/16/16 17/17/17
f 17/17/17 18/18/18 15/15/15
f 19/19/19 20/20/20 3/3/3
f 3/3/3 21/21/21 19/19/19
f 22/22/22 23/23/23 24/24/24
f 2/2/2 25/25/25 22/22/22
f 26/26/26 27/27/27 2/2/2
f 26/26/26 28/28/28 29/29/29
f 30/30/30 31/31/31 26/26/26
f 26/26/26 32/32/32 30/30/30
f 1/1/1 4/4/4 6/6/6
f 1/1/1 11/11/11 9/9/9
f 17/17/17 14/14/14 1/1/1
f 3/3/3 18/18/18 17/17/17
f 24/24/24 21/21/21 3/3/3
f 2/2/2 22/22/22 24/24/24
f 26/26/26 29/29/29 27/27/27
f 6/6/6 32/32/32 26/26/26
f 1/1/1 7/7/7 4/4/4
f 3/3/3 17/17/17 1/1/1
f 2/2/2 24/24/24 3/3/3
f 6/6/6 26/26/26 2/2/2
f 2/2/2 1/1/1 6/6/6
