v -1.377764 0.941302 -5.159606
v -1.377764 0.950433 -5.159606
v -1.377764 0.950433 -5.161390
v -1.377764 0.932347 -5.159606
v -1.377764 0.941302 -5.161390
v -1.377764 0.923392 -5.159606
v -1.377764 0.932347 -5.161390
v -1.377764 0.923392 -5.161390
vn -1.000000 0.000000 0.000000
vn -1.000000 0.000000 0.000000
vn -1.000000 0.000000 0.000000
vn -1.000000 0.000000 0.000000
vn -1.000000 0.000000 0.000000
vn -1.000000 0.000000 0.000000
vn -1.000000 0.000000 0.000000
vn -1.000000 0.000000 0.000000
vt 0.000000 0.000000
vt 0.000000 0.000000
vt 0.000000 0.000000
vt 0.000000 0.000000
vt 0.000000 0.000000
vt 0.000000 0.000000
vt 0.000000 0.000000
vt 0.000000 0.000000
f 1/1/1 2/2/2 3/3/3
f 4/4/4 1/1/1 5/5/5
f 6/6/6 4/4/4 7/7/7
f 5/5/5 1/1/1 3/3/3
f 7/7/7 4/4/4 5/5/5
f 8/8/8 6/6/6 7/7/7
