v -0.044425 4.188066 -1.785470
v -0.033942 4.196855 -1.790929
v -0.038309 4.186248 -1.798745
v -0.031509 4.181680 -1.784020
v -0.034183 4.184208 -1.798282
v -0.029816 4.194815 -1.790466
v -0.033942 4.196855 -1.790929
v -0.029816 4.194815 -1.790466
v -0.034183 4.184208 -1.798282
v -0.044425 4.188066 -1.785470
v -0.038309 4.186248 -1.798745
v -0.044397 4.175287 -1.792793
v -0.031509 4.181680 -1.784020
v -0.040271 4.173246 -1.792330
v -0.034183 4.184208 -1.798282
v -0.038309 4.186248 -1.798745
v -0.034183 4.184208 -1.798282
v -0.040271 4.173246 -1.792330
v -0.044425 4.188066 -1.785470
v -0.044397 4.175287 -1.792793
v -0.046118 4.174931 -1.779025
v -0.031509 4.181680 -1.784020
v -0.041992 4.172891 -1.778561
v -0.040271 4.173246 -1.792330
v -0.044397 4.175287 -1.792793
v -0.040271 4.173246 -1.792330
v -0.041992 4.172891 -1.778561
v -0.044425 4.188066 -1.785470
v -0.046118 4.174931 -1.779025
v -0.041752 4.185538 -1.771209
v -0.031509 4.181680 -1.784020
v -0.037625 4.183497 -1.770746
v -0.041992 4.172891 -1.778561
v -0.041992 4.172891 -1.778561
v -0.037625 4.183497 -1.770746
v -0.041752 4.185538 -1.771209
v -0.044425 4.188066 -1.785470
v -0.041752 4.185538 -1.771209
v -0.035664 4.196499 -1.777161
v -0.031509 4.181680 -1.784020
v -0.031537 4.194459 -1.776698
v -0.037625 4.183497 -1.770746
v -0.037625 4.183497 -1.770746
v -0.031537 4.194459 -1.776698
v -0.035664 4.196499 -1.777161
v -0.044425 4.188066 -1.785470
v -0.035664 4.196499 -1.777161
v -0.033942 4.196855 -1.790929
v -0.031509 4.181680 -1.784020
v -0.029816 4.194815 -1.790466
v -0.031537 4.194459 -1.776698
v -0.035664 4.196499 -1.777161
v -0.031537 4.194459 -1.776698
v -0.029816 4.194815 -1.790466
v -0.038309 4.186248 -1.798745
v -0.033942 4.196855 -1.790929
v -0.034183 4.184208 -1.798282
v -0.044397 4.175287 -1.792793
v -0.038309 4.186248 -1.798745
v -0.040271 4.173246 -1.792330
v -0.046118 4.174931 -1.779025
v -0.044397 4.175287 -1.792793
v -0.041992 4.172891 -1.778561
v -0.046118 4.174931 -1.779025
v -0.041992 4.172891 -1.778561
v -0.041752 4.185538 -1.771209
v -0.041752 4.185538 -1.771209
v -0.037625 4.183497 -1.770746
v -0.035664 4.196499 -1.777161
v -0.033942 4.196855 -1.790929
v -0.035664 4.196499 -1.777161
v -0.029816 4.194815 -1.790466
vn -0.702000 0.586600 -0.403800
vn -0.702000 0.586600 -0.403800
vn -0.702000 0.586600 -0.403800
vn 0.948500 -0.229500 -0.218500
vn 0.948500 -0.229500 -0.218500
vn 0.948500 -0.229500 -0.218500
vn 0.324800 0.470700 -0.820300
vn 0.324800 0.470700 -0.820300
vn 0.324800 0.470700 -0.820300
vn -0.867000 0.246300 -0.433200
vn -0.867000 0.246300 -0.433200
vn -0.867000 0.246300 -0.433200
vn 0.783500 -0.569800 -0.247900
vn 0.783500 -0.569800 -0.247900
vn 0.783500 -0.569800 -0.247900
vn -0.110000 -0.426400 -0.897800
vn -0.110000 -0.426400 -0.897800
vn -0.110000 -0.426400 -0.897800
vn -0.990200 0.067800 -0.122000
vn -0.990200 0.067800 -0.122000
vn -0.990200 0.067800 -0.122000
vn 0.660300 -0.748300 0.063200
vn 0.660300 -0.748300 0.063200
vn 0.660300 -0.748300 0.063200
vn -0.434900 -0.897100 -0.077500
vn -0.434900 -0.897100 -0.077500
vn -0.434900 -0.897100 -0.077500
vn -0.948500 0.229500 0.218500
vn -0.948500 0.229500 0.218500
vn -0.948500 0.229500 0.218500
vn 0.702000 -0.586600 0.403800
vn 0.702000 -0.586600 0.403800
vn 0.702000 -0.586600 0.403800
vn -0.324900 -0.470700 0.820300
vn -0.324900 -0.470700 0.820300
vn -0.324900 -0.470700 0.820300
vn -0.783500 0.569800 0.247900
vn -0.783500 0.569800 0.247900
vn -0.783500 0.569800 0.247900
vn 0.867000 -0.246300 0.433200
vn 0.867000 -0.246300 0.433200
vn 0.867000 -0.246300 0.433200
vn 0.110000 0.426400 0.897800
vn 0.110000 0.426400 0.897800
vn 0.110000 0.426400 0.897800
vn -0.660300 0.748300 -0.063300
vn -0.660300 0.748300 -0.063300
vn -0.660300 0.748300 -0.063300
vn 0.990200 -0.067800 0.122100
vn 0.990200 -0.067800 0.122100
vn 0.990200 -0.067800 0.122100
vn 0.434900 0.897100 0.077500
vn 0.434900 0.897100 0.077500
vn 0.434900 0.897100 0.077500
vn 0.324800 0.470800 -0.820300
vn 0.324800 0.470800 -0.820300
vn 0.324800 0.470800 -0.820300
vn -0.110100 -0.426400 -0.897800
vn -0.110100 -0.426400 -0.897800
vn -0.110100 -0.426400 -0.897800
vn -0.434800 -0.897200 -0.077600
vn -0.434800 -0.897200 -0.077600
vn -0.434800 -0.897200 -0.077600
vn -0.324800 -0.470800 0.820300
vn -0.324800 -0.470800 0.820300
vn -0.324800 -0.470800 0.820300
vn 0.110100 0.426400 0.897800
vn 0.110100 0.426400 0.897800
vn 0.110100 0.426400 0.897800
vn 0.434800 0.897200 0.077600
vn 0.434800 0.897200 0.077600
vn 0.434800 0.897200 0.077600
vt 0.000000 0.000000
vt 0.000000 0.000000
vt 0.000000 0.000000
vt 0.000000 0.000000
vt 0.000000 0.000000
vt 0.000000 0.000000
vt 0.000000 0.000000
vt 0.000000 0.000000
vt 0.000000 0.000000
vt 0.000000 0.000000
vt 0.000000 0.000000
vt 0.000000 0.000000
vt 0.000000 0.000000
vt 0.000000 0.000000
vt 0.000000 0.000000
vt 0.000000 0.000000
vt 0.000000 0.000000
vt 0.000000 0.000000
vt 0.000000 0.000000
vt 0.000000 0.000000
vt 0.000000 0.000000
vt 0.000000 0.000000
vt 0.000000 0.000000
vt 0.000000 0.000000
vt 0.000000 0.000000
vt 0.000000 0.000000
vt 0.000000 0.000000
vt 0.000000 0.000000
vt 0.000000 0.000000
vt 0.000000 0.000000
vt 0.000000 0.000000
vt 0.000000 0.000000
vt 0.000000 0.000000
vt 0.000000 0.000000
vt 0.000000 0.000000
vt 0.000000 0.000000
vt 0.000000 0.000000
vt 0.000000 0.000000
vt 0.000000 0.000000
vt 0.000000 0.000000
vt 0.000000 0.000000
vt 0.000000 0.000000
vt 0.000000 0.000000
vt 0.000000 0.000000
vt 0.000000 0.000000
vt 0.000000 0.000000
vt 0.000000 0.000000
vt 0.000000 0.000000
vt 0.000000 0.000000
vt 0.000000 0.000000
vt 0.000000 0.000000
vt 0.000000 0.000000
vt 0.000000 0.000000
vt 0.000000 0.000000
vt 0.000000 0.000000
vt 0.000000 0.000000
vt 0.000000 0.000000
vt 0.000000 0.000000
vt 0.000000 0.000000
vt 0.000000 0.000000
vt 0.000000 0.000000
vt 0.000000 0.000000
vt 0.000000 0.000000
vt 0.000000 0.000000
vt 0.000000 0.000000
vt 0.000000 0.000000
vt 0.000000 0.000000
vt 0.000000 0.000000
vt 0.000000 0.000000
vt 0.000000 0.000000
vt 0.000000 0.000000
vt 0.000000 0.000000
f 1/1/1 2/2/2 3/3/3
f 4/4/4 5/5/5 6/6/6
f 7/7/7 8/8/8 9/9/9
f 10/10/10 11/11/11 12/12/12
f 13/13/13 14/14/14 15/15/15
f 16/16/16 17/17/17 18/18/18
f 19/19/19 20/20/20 21/21/21
f 22/22/22 23/23/23 24/24/24
f 25/25/25 26/26/26 27/27/27
f 28/28/28 29/29/29 30/30/30
f 31/31/31 32/32/32 33/33/33
f 34/34/34 35/35/35 36/36/36
f 37/37/37 38/38/38 39/39/39
f 40/40/40 41/41/41 42/42/42
f 43/43/43 44/44/44 45/45/45
f 46/46/46 47/47/47 48/48/48
f 49/49/49 50/50/50 51/51/51
f 52/52/52 53/53/53 54/54/54
f 55/55/55 56/56/56 57/57/57
f 58/58/58 59/59/59 60/60/60
f 61/61/61 62/62/62 63/63/63
f 64/64/64 65/65/65 66/66/66
f 67/67/67 68/68/68 69/69/69
f 70/70/70 71/71/71 72/72/72
