v -0.529076 4.811316 -2.031447
v -0.529566 4.811316 -2.028980
v -0.529566 3.806131 -2.028980
v -0.530964 4.811316 -2.026888
v -0.530964 3.806131 -2.026888
v -0.533056 4.811316 -2.025491
v -0.533056 3.806131 -2.025491
v -0.535523 4.811316 -2.025000
v -0.535523 3.806131 -2.025000
v -0.537990 4.811316 -2.025490
v -0.537990 3.806131 -2.025490
v -0.540082 4.811316 -2.026888
v -0.540082 3.806131 -2.026888
v -0.541480 4.811316 -2.028980
v -0.541480 3.806131 -2.028980
v -0.541971 4.811316 -2.031447
v -0.541971 3.806131 -2.031447
v -0.541480 4.811316 -2.033914
v -0.541480 3.806131 -2.033914
v -0.540082 4.811316 -2.036006
v -0.540082 3.806131 -2.036006
v -0.537991 4.811316 -2.037404
v -0.537991 3.806131 -2.037404
v -0.535523 4.811316 -2.037895
v -0.535523 3.806131 -2.037895
v -0.533056 4.811316 -2.037404
v -0.533056 3.806131 -2.037404
v -0.530964 4.811316 -2.036006
v -0.530964 3.806131 -2.036006
v -0.529566 4.811316 -2.033915
v -0.529566 3.806131 -2.033915
v -0.529076 3.806131 -2.031447
vn 1.000000 0.000000 0.000000
vn 0.923900 0.000000 0.382700
vn 0.923900 0.000000 0.382600
vn 0.707100 0.000000 0.707100
vn 0.707100 0.000000 0.707100
vn 0.382700 0.000000 0.923900
vn 0.382700 0.000000 0.923900
vn 0.000100 0.000000 1.000000
vn 0.000000 0.000000 1.000000
vn -0.382700 0.000000 0.923900
vn -0.382600 0.000000 0.923900
vn -0.707100 0.000000 0.707000
vn -0.707000 -0.000000 0.707200
vn -0.923900 0.000000 0.382700
vn -0.923800 0.000000 0.382700
vn -1.000000 -0.000000 0.000000
vn -1.000000 -0.000000 0.000000
vn -0.923900 0.000000 -0.382700
vn -0.923900 0.000000 -0.382600
vn -0.707100 -0.000000 -0.707100
vn -0.707200 0.000000 -0.707000
vn -0.382700 0.000000 -0.923900
vn -0.382800 0.000000 -0.923800
vn 0.000000 -0.000000 -1.000000
vn 0.000000 -0.000000 -1.000000
vn 0.382700 0.000000 -0.923900
vn 0.382700 0.000000 -0.923900
vn 0.707100 0.000000 -0.707100
vn 0.707100 0.000000 -0.707100
vn 0.923900 0.000000 -0.382700
vn 0.923900 0.000000 -0.382700
vn 1.000000 0.000000 0.000000
vt 0.000000 0.000000
vt 0.000000 0.000000
vt 0.000000 0.000000
vt 0.000000 0.000000
vt 0.000000 0.000000
vt 0.000000 0.000000
vt 0.000000 0.000000
vt 0.000000 0.000000
vt 0.000000 0.000000
vt 0.000000 0.000000
vt 0.000000 0.000000
vt 0.000000 0.000000
vt 0.000000 0.000000
vt 0.000000 0.000000
vt 0.000000 0.000000
vt 0.000000 0.000000
vt 0.000000 0.000000
vt 0.000000 0.000000
vt 0.000000 0.000000
vt 0.000000 0.000000
vt 0.000000 0.000000
vt 0.000000 0.000000
vt 0.000000 0.000000
vt 0.000000 0.000000
vt 0.000000 0.000000
vt 0.000000 0.000000
vt 0.000000 0.000000
vt 0.000000 0.000000
vt 0.000000 0.000000
vt 0.000000 0.000000
vt 0.000000 0.000000
vt 0.000000 0.000000
f 1/1/1 2/2/2 3/3/3
f 2/2/2 4/4/4 5/5/5
f 4/4/4 6/6/6 7/7/7
f 6/6/6 8/8/8 9/9/9
f 8/8/8 10/10/10 11/11/11
f 10/10/10 12/12/12 13/13/13
f 12/12/12 14/14/14 15/15/15
f 14/14/14 16/16/16 17/17/17
f 16/16/16 18/18/18 19/19/19
f 18/18/18 20/20/20 21/21/21
f 20/20/20 22/22/22 23/23/23
f 22/22/22 24/24/24 25/25/25
f 24/24/24 26/26/26 27/27/27
f 26/26/26 28/28/28 29/29/29
f 28/28/28 30/30/30 31/31/31
f 30/30/30 1/1/1 32/32/32
f 32/32/32 1/1/1 3/3/3
f 3/3/3 2/2/2 5/5/5
f 5/5/5 4/4/4 7/7/7
f 7/7/7 6/6/6 9/9/9
f 9/9/9 8/8/8 11/11/11
f 11/11/11 10/10/10 13/13/13
f 13/13/13 12/12/12 15/15/15
f 15/15/15 14/14/14 17/17/17
f 17/17/17 16/16/16 19/19/19
f 19/19/19 18/18/18 21/21/21
f 21/21/21 20/20/20 23/23/23
f 23/23/23 22/22/22 25/25/25
f 25/25/25 24/24/24 27/27/27
f 27/27/27 26/26/26 29/29/29
f 29/29/29 28/28/28 31/31/31
f 31/31/31 30/30/30 32/32/32
