v 0.596727 0.025438 -1.535931
v 0.596727 0.737816 -1.535931
v 0.603179 0.732655 -1.535931
v 0.578033 0.025438 -1.535931
v 0.578033 0.747554 -1.535931
v 0.570649 0.025438 -1.535931
v 0.570649 0.750413 -1.535931
v 0.558787 0.025438 -1.535931
v 0.558787 0.753505 -1.535931
v 0.542471 0.025438 -1.535931
v 0.542471 0.756125 -1.535931
v 0.527397 0.025438 -1.535931
v 0.527397 0.756942 -1.535931
v 0.458068 0.737816 -1.535931
v 0.476762 0.747554 -1.535931
v 0.476762 0.025438 -1.535931
v 0.484146 0.750413 -1.535931
v 0.484146 0.025438 -1.535931
v 0.496008 0.753505 -1.535931
v 0.512324 0.756125 -1.535931
v 0.512324 0.025438 -1.535931
v 0.527397 0.756942 -1.535931
v 0.451616 0.732655 -1.535931
v 0.458068 0.025438 -1.535931
v 0.496008 0.025438 -1.535931
v 0.603179 0.025438 -1.535931
v 0.451616 0.025438 -1.535931
vn 0.000000 0.000000 -1.000000
vn 0.000000 0.000000 -1.000000
vn 0.000000 0.000000 -1.000000
vn 0.000000 0.000000 -1.000000
vn 0.000000 0.000000 -1.000000
vn 0.000000 0.000000 -1.000000
vn 0.000000 0.000000 -1.000000
vn 0.000000 0.000000 -1.000000
vn 0.000000 0.000000 -1.000000
vn 0.000000 0.000000 -1.000000
vn 0.000000 0.000000 -1.000000
vn 0.000000 0.000000 -1.000000
vn 0.000000 0.000000 -1.000000
vn 0.000000 0.000000 -1.000000
vn 0.000000 0.000000 -1.000000
vn 0.000000 0.000000 -1.000000
vn 0.000000 0.000000 -1.000000
vn 0.000000 0.000000 -1.000000
vn 0.000000 0.000000 -1.000000
vn 0.000000 0.000000 -1.000000
vn 0.000000 0.000000 -1.000000
vn 0.000000 0.000000 -1.000000
vn 0.000000 0.000000 -1.000000
vn 0.000000 0.000000 -1.000000
vn 0.000000 0.000000 -1.000000
vn 0.000000 0.000000 -1.000000
vn 0.000000 0.000000 -1.000000
vt 0.428456 0.000000
vt 0.607725 0.352384
vt 0.601912 0.349966
vt 0.412356 0.000000
vt 0.627316 0.356948
vt 0.405180 0.000000
vt 0.636666 0.358287
vt 0.392723 0.000000
vt 0.653853 0.359737
vt 0.374015 0.000000
vt 0.682118 0.360964
vt 0.355772 0.000000
vt 0.711545 0.361347
vt 0.103820 0.352384
vt 0.084229 0.356948
vt 0.299189 0.000000
vt 0.074878 0.358287
vt 0.306365 0.000000
vt 0.057692 0.359737
vt 0.029426 0.360964
vt 0.337530 0.000000
vt 0.000000 0.361347
vt 0.109633 0.349966
vt 0.283089 0.000000
vt 0.318822 0.000000
vt 0.433343 0.000000
vt 0.278202 0.000000
f 1/1/1 2/2/2 3/3/3
f 4/4/4 5/5/5 2/2/2
f 6/6/6 7/7/7 5/5/5
f 8/8/8 9/9/9 7/7/7
f 10/10/10 11/11/11 9/9/9
f 12/12/12 13/13/13 11/11/11
f 14/14/14 15/15/15 16/16/16
f 15/15/15 17/17/17 18/18/18
f 19/19/19 20/20/20 21/21/21
f 20/20/20 22/22/22 12/12/12
f 23/23/23 14/14/14 24/24/24
f 25/25/25 18/18/18 17/17/17
f 26/26/26 1/1/1 3/3/3
f 1/1/1 4/4/4 2/2/2
f 4/4/4 6/6/6 5/5/5
f 6/6/6 8/8/8 7/7/7
f 8/8/8 10/10/10 9/9/9
f 10/10/10 12/12/12 11/11/11
f 24/24/24 14/14/14 16/16/16
f 16/16/16 15/15/15 18/18/18
f 25/25/25 19/19/19 21/21/21
f 21/21/21 20/20/20 12/12/12
f 27/27/27 23/23/23 24/24/24
f 19/19/19 25/25/25 17/17/17
