v -0.057564 4.617000 -1.851809
v -0.060933 4.617000 -1.852140
v -0.060933 4.617000 -1.834869
v -0.046573 4.617000 -1.825274
v -0.044977 4.617000 -1.828260
v -0.076890 4.617000 -1.828260
v -0.075294 4.617000 -1.825274
v -0.043994 4.617000 -1.831500
v -0.064303 4.617000 -1.851809
v -0.067543 4.617000 -1.850826
v -0.073146 4.617000 -1.822657
v -0.070528 4.617000 -1.820509
v -0.043662 4.617000 -1.834869
v -0.043994 4.617000 -1.838239
v -0.070529 4.617000 -1.849230
v -0.073146 4.617000 -1.847082
v -0.067543 4.617000 -1.818913
v -0.064303 4.617000 -1.817930
v -0.044977 4.617000 -1.841479
v -0.046573 4.617000 -1.844465
v -0.075294 4.617000 -1.844465
v -0.076890 4.617000 -1.841479
v -0.060933 4.617000 -1.817598
v -0.057564 4.617000 -1.817930
v -0.048721 4.617000 -1.847082
v -0.051338 4.617000 -1.849230
v -0.054324 4.617000 -1.818913
v -0.051338 4.617000 -1.820509
v -0.077873 4.617000 -1.838239
v -0.078204 4.617000 -1.834869
v -0.054324 4.617000 -1.850826
v -0.048721 4.617000 -1.822657
v -0.077872 4.617000 -1.831500
vn 0.000000 1.000000 0.000000
vn 0.000000 1.000000 0.000000
vn 0.000000 1.000000 0.000000
vn 0.000000 1.000000 0.000000
vn 0.000000 1.000000 0.000000
vn 0.000000 1.000000 -0.000100
vn 0.000000 1.000000 -0.000100
vn 0.000000 1.000000 0.000000
vn 0.000000 1.000000 0.000000
vn 0.000000 1.000000 0.000000
vn 0.000000 1.000000 0.000000
vn 0.000000 1.000000 -0.000100
vn 0.000000 1.000000 0.000100
vn 0.000000 1.000000 0.000100
vn 0.000000 1.000000 0.000000
vn 0.000000 1.000000 0.000100
vn 0.000000 1.000000 0.000000
vn 0.000000 1.000000 0.000000
vn 0.000000 1.000000 0.000000
vn 0.000000 1.000000 0.000000
vn 0.000000 1.000000 0.000000
vn 0.000000 1.000000 0.000000
vn 0.000000 1.000000 0.000000
vn 0.000000 1.000000 0.000000
vn 0.000000 1.000000 0.000000
vn 0.000000 1.000000 0.000000
vn 0.000000 1.000000 0.000000
vn 0.000000 1.000000 0.000000
vn 0.000000 1.000000 -0.000100
vn 0.000000 1.000000 0.000000
vn 0.000000 1.000000 0.000000
vn 0.000000 1.000000 0.000000
vn 0.000000 1.000000 0.000100
vt 0.000000 0.000000
vt 0.000000 0.000000
vt 0.000000 0.000000
vt 0.000000 0.000000
vt 0.000000 0.000000
vt 0.000000 0.000000
vt 0.000000 0.000000
vt 0.000000 0.000000
vt 0.000000 0.000000
vt 0.000000 0.000000
vt 0.000000 0.000000
vt 0.000000 0.000000
vt 0.000000 0.000000
vt 0.000000 0.000000
vt 0.000000 0.000000
vt 0.000000 0.000000
vt 0.000000 0.000000
vt 0.000000 0.000000
vt 0.000000 0.000000
vt 0.000000 0.000000
vt 0.000000 0.000000
vt 0.000000 0.000000
vt 0.000000 0.000000
vt 0.000000 0.000000
vt 0.000000 0.000000
vt 0.000000 0.000000
vt 0.000000 0.000000
vt 0.000000 0.000000
vt 0.000000 0.000000
vt 0.000000 0.000000
vt 0.000000 0.000000
vt 0.000000 0.000000
vt 0.000000 0.000000
f 1/1/1 2/2/2 3/3/3
f 4/4/4 5/5/5 3/3/3
f 6/6/6 7/7/7 3/3/3
f 5/5/5 8/8/8 3/3/3
f 9/9/9 10/10/10 3/3/3
f 11/11/11 12/12/12 3/3/3
f 13/13/13 14/14/14 3/3/3
f 15/15/15 16/16/16 3/3/3
f 17/17/17 18/18/18 3/3/3
f 19/19/19 20/20/20 3/3/3
f 21/21/21 22/22/22 3/3/3
f 23/23/23 24/24/24 3/3/3
f 25/25/25 26/26/26 3/3/3
f 27/27/27 28/28/28 3/3/3
f 29/29/29 30/30/30 3/3/3
f 31/31/31 1/1/1 3/3/3
f 32/32/32 4/4/4 3/3/3
f 33/33/33 6/6/6 3/3/3
f 2/2/2 9/9/9 3/3/3
f 7/7/7 11/11/11 3/3/3
f 8/8/8 13/13/13 3/3/3
f 10/10/10 15/15/15 3/3/3
f 12/12/12 17/17/17 3/3/3
f 14/14/14 19/19/19 3/3/3
f 16/16/16 21/21/21 3/3/3
f 18/18/18 23/23/23 3/3/3
f 20/20/20 25/25/25 3/3/3
f 24/24/24 27/27/27 3/3/3
f 22/22/22 29/29/29 3/3/3
f 26/26/26 31/31/31 3/3/3
f 28/28/28 32/32/32 3/3/3
f 30/30/30 33/33/33 3/3/3
