v -0.739606 4.615049 -2.524147
v -0.735929 4.615049 -2.525262
v -0.735929 4.439022 -2.525262
v -0.732104 4.615049 -2.525639
v -0.732104 4.439022 -2.525639
v -0.728280 4.615049 -2.525262
v -0.728280 4.439022 -2.525262
v -0.724602 4.615049 -2.524147
v -0.724602 4.439022 -2.524147
v -0.721213 4.615049 -2.522335
v -0.721213 4.439022 -2.522335
v -0.718243 4.615049 -2.519897
v -0.718243 4.439022 -2.519897
v -0.715805 4.615049 -2.516927
v -0.715805 4.439022 -2.516927
v -0.713993 4.615049 -2.513537
v -0.713993 4.439022 -2.513537
v -0.712878 4.615049 -2.509860
v -0.712878 4.439022 -2.509860
v -0.712501 4.615049 -2.506036
v -0.712501 4.439022 -2.506036
v -0.712878 4.615049 -2.502211
v -0.712878 4.439022 -2.502211
v -0.713993 4.615049 -2.498534
v -0.713993 4.439022 -2.498534
v -0.715805 4.615049 -2.495145
v -0.715805 4.439022 -2.495145
v -0.718243 4.615049 -2.492174
v -0.718243 4.439022 -2.492174
v -0.721213 4.615049 -2.489736
v -0.721213 4.439022 -2.489736
v -0.724602 4.615049 -2.487925
v -0.724602 4.439022 -2.487925
v -0.728280 4.615049 -2.486809
v -0.728280 4.439022 -2.486809
v -0.732104 4.615049 -2.486433
v -0.735929 4.615049 -2.486809
v -0.735929 4.439022 -2.486809
v -0.739606 4.615049 -2.487925
v -0.739606 4.439022 -2.487925
v -0.742995 4.615049 -2.489736
v -0.742995 4.439022 -2.489736
v -0.745966 4.615049 -2.492174
v -0.745966 4.439022 -2.492174
v -0.748404 4.615049 -2.495145
v -0.748404 4.439022 -2.495145
v -0.750215 4.615049 -2.498534
v -0.750215 4.439022 -2.498534
v -0.751331 4.615049 -2.502211
v -0.751331 4.439022 -2.502211
v -0.751707 4.615049 -2.506036
v -0.751707 4.439022 -2.506036
v -0.751331 4.615049 -2.509860
v -0.751331 4.439022 -2.509860
v -0.750215 4.615049 -2.513537
v -0.750215 4.439022 -2.513537
v -0.748404 4.615049 -2.516927
v -0.748404 4.439022 -2.516927
v -0.745966 4.615049 -2.519897
v -0.745966 4.439022 -2.519897
v -0.742995 4.615049 -2.522335
v -0.739606 4.439022 -2.524147
v -0.742995 4.439022 -2.522335
v -0.732104 4.439022 -2.486433
vn -0.382700 0.000000 -0.923900
vn -0.195000 0.000000 -0.980800
vn -0.195100 0.000000 -0.980800
vn 0.000000 -0.000000 -1.000000
vn 0.000000 -0.000000 -1.000000
vn 0.195100 0.000000 -0.980800
vn 0.195000 0.000000 -0.980800
vn 0.382700 0.000000 -0.923900
vn 0.382600 0.000000 -0.923900
vn 0.555600 0.000000 -0.831400
vn 0.555500 0.000000 -0.831500
vn 0.707100 0.000000 -0.707100
vn 0.707100 0.000000 -0.707100
vn 0.831400 0.000000 -0.555600
vn 0.831400 0.000000 -0.555600
vn 0.923900 0.000000 -0.382600
vn 0.923900 0.000000 -0.382700
vn 0.980800 0.000000 -0.195100
vn 0.980800 0.000000 -0.195100
vn 1.000000 0.000000 0.000000
vn 1.000000 0.000000 0.000000
vn 0.980800 0.000000 0.195100
vn 0.980800 0.000000 0.195100
vn 0.923900 0.000000 0.382700
vn 0.923900 0.000000 0.382700
vn 0.831400 0.000000 0.555600
vn 0.831400 0.000000 0.555600
vn 0.707100 0.000000 0.707100
vn 0.707100 0.000000 0.707100
vn 0.555600 0.000000 0.831400
vn 0.555500 0.000000 0.831500
vn 0.382700 0.000000 0.923900
vn 0.382600 0.000000 0.923900
vn 0.195000 0.000000 0.980800
vn 0.195100 0.000000 0.980800
vn 0.000000 0.000000 1.000000
vn -0.195000 0.000000 0.980800
vn -0.195100 0.000000 0.980800
vn -0.382600 0.000000 0.923900
vn -0.382700 0.000000 0.923900
vn -0.555500 0.000000 0.831500
vn -0.555600 0.000000 0.831400
vn -0.707100 -0.000000 0.707100
vn -0.707100 -0.000000 0.707100
vn -0.831400 0.000000 0.555600
vn -0.831400 0.000000 0.555600
vn -0.923900 0.000000 0.382700
vn -0.923900 0.000000 0.382700
vn -0.980800 0.000000 0.195100
vn -0.980800 0.000000 0.195000
vn -1.000000 -0.000000 0.000000
vn -1.000000 -0.000000 0.000000
vn -0.980800 0.000000 -0.195100
vn -0.980800 0.000000 -0.195100
vn -0.923900 0.000000 -0.382700
vn -0.923900 0.000000 -0.382600
vn -0.831500 0.000000 -0.555500
vn -0.831500 0.000000 -0.555500
vn -0.707100 -0.000000 -0.707100
vn -0.707100 -0.000000 -0.707100
vn -0.555500 0.000000 -0.831500
vn -0.382700 0.000000 -0.923900
vn -0.555500 0.000000 -0.831500
vn 0.000000 0.000000 1.000000
vt 0.000000 0.000000
vt 0.000000 0.000000
vt 0.000000 0.000000
vt 0.000000 0.000000
vt 0.000000 0.000000
vt 0.000000 0.000000
vt 0.000000 0.000000
vt 0.000000 0.000000
vt 0.000000 0.000000
vt 0.000000 0.000000
vt 0.000000 0.000000
vt 0.000000 0.000000
vt 0.000000 0.000000
vt 0.000000 0.000000
vt 0.000000 0.000000
vt 0.000000 0.000000
vt 0.000000 0.000000
vt 0.000000 0.000000
vt 0.000000 0.000000
vt 0.000000 0.000000
vt 0.000000 0.000000
vt 0.000000 0.000000
vt 0.000000 0.000000
vt 0.000000 0.000000
vt 0.000000 0.000000
vt 0.000000 0.000000
vt 0.000000 0.000000
vt 0.000000 0.000000
vt 0.000000 0.000000
vt 0.000000 0.000000
vt 0.000000 0.000000
vt 0.000000 0.000000
vt 0.000000 0.000000
vt 0.000000 0.000000
vt 0.000000 0.000000
vt 0.000000 0.000000
vt 0.000000 0.000000
vt 0.000000 0.000000
vt 0.000000 0.000000
vt 0.000000 0.000000
vt 0.000000 0.000000
vt 0.000000 0.000000
vt 0.000000 0.000000
vt 0.000000 0.000000
vt 0.000000 0.000000
vt 0.000000 0.000000
vt 0.000000 0.000000
vt 0.000000 0.000000
vt 0.000000 0.000000
vt 0.000000 0.000000
vt 0.000000 0.000000
vt 0.000000 0.000000
vt 0.000000 0.000000
vt 0.000000 0.000000
vt 0.000000 0.000000
vt 0.000000 0.000000
vt 0.000000 0.000000
vt 0.000000 0.000000
vt 0.000000 0.000000
vt 0.000000 0.000000
vt 0.000000 0.000000
vt 0.000000 0.000000
vt 0.000000 0.000000
vt 0.000000 0.000000
f 1/1/1 2/2/2 3/3/3
f 2/2/2 4/4/4 5/5/5
f 4/4/4 6/6/6 7/7/7
f 6/6/6 8/8/8 9/9/9
f 8/8/8 10/10/10 11/11/11
f 10/10/10 12/12/12 13/13/13
f 12/12/12 14/14/14 15/15/15
f 14/14/14 16/16/16 17/17/17
f 16/16/16 18/18/18 19/19/19
f 18/18/18 20/20/20 21/21/21
f 20/20/20 22/22/22 23/23/23
f 22/22/22 24/24/24 25/25/25
f 24/24/24 26/26/26 27/27/27
f 26/26/26 28/28/28 29/29/29
f 28/28/28 30/30/30 31/31/31
f 30/30/30 32/32/32 33/33/33
f 33/33/33 32/32/32 34/34/34
f 35/35/35 34/34/34 36/36/36
f 36/36/36 37/37/37 38/38/38
f 37/37/37 39/39/39 40/40/40
f 39/39/39 41/41/41 42/42/42
f 41/41/41 43/43/43 44/44/44
f 43/43/43 45/45/45 46/46/46
f 45/45/45 47/47/47 48/48/48
f 47/47/47 49/49/49 50/50/50
f 49/49/49 51/51/51 52/52/52
f 51/51/51 53/53/53 54/54/54
f 53/53/53 55/55/55 56/56/56
f 55/55/55 57/57/57 58/58/58
f 57/57/57 59/59/59 60/60/60
f 61/61/61 1/1/1 62/62/62
f 59/59/59 61/61/61 63/63/63
f 62/62/62 1/1/1 3/3/3
f 3/3/3 2/2/2 5/5/5
f 5/5/5 4/4/4 7/7/7
f 7/7/7 6/6/6 9/9/9
f 9/9/9 8/8/8 11/11/11
f 11/11/11 10/10/10 13/13/13
f 13/13/13 12/12/12 15/15/15
f 15/15/15 14/14/14 17/17/17
f 17/17/17 16/16/16 19/19/19
f 19/19/19 18/18/18 21/21/21
f 21/21/21 20/20/20 23/23/23
f 23/23/23 22/22/22 25/25/25
f 25/25/25 24/24/24 27/27/27
f 27/27/27 26/26/26 29/29/29
f 29/29/29 28/28/28 31/31/31
f 31/31/31 30/30/30 33/33/33
f 35/35/35 33/33/33 34/34/34
f 64/64/64 35/35/35 36/36/36
f 64/64/64 36/36/36 38/38/38
f 38/38/38 37/37/37 40/40/40
f 40/40/40 39/39/39 42/42/42
f 42/42/42 41/41/41 44/44/44
f 44/44/44 43/43/43 46/46/46
f 46/46/46 45/45/45 48/48/48
f 48/48/48 47/47/47 50/50/50
f 50/50/50 49/49/49 52/52/52
f 52/52/52 51/51/51 54/54/54
f 54/54/54 53/53/53 56/56/56
f 56/56/56 55/55/55 58/58/58
f 58/58/58 57/57/57 60/60/60
f 63/63/63 61/61/61 62/62/62
f 60/60/60 59/59/59 63/63/63
