v -0.266471 4.184873 -2.502365
v -0.291144 4.184873 -2.527039
v -0.307354 4.184873 -2.543248
v -0.327097 4.184873 -2.554058
v -0.350533 4.184873 -2.554058
v -0.385825 4.184873 -2.554058
v -0.429996 4.184873 -2.554058
v -0.480067 4.184873 -2.554058
v -0.533059 4.184873 -2.554057
v -0.585995 4.184873 -2.554057
v -0.635895 4.184873 -2.554057
v -0.679781 4.184873 -2.554057
v -0.714675 4.184873 -2.554057
v -0.737599 4.184873 -2.554057
v -0.759203 4.184873 -2.547740
v -0.775775 4.184873 -2.531168
v -0.800730 4.184873 -2.506212
v -0.831963 4.184873 -2.474979
v -0.867368 4.184873 -2.439573
v -0.904839 4.184873 -2.402102
v -0.942270 4.184873 -2.364671
v -0.977555 4.184873 -2.329386
v -1.008587 4.184873 -2.298353
v -1.033260 4.184873 -2.273679
v -1.049470 4.184873 -2.257469
v -1.060278 4.184873 -2.237730
v -1.060278 4.184873 -2.214294
v -1.060278 4.184873 -2.179002
v -1.060278 4.184873 -2.134831
v -1.060278 4.184873 -2.084760
v -1.060277 4.184873 -2.031768
v -1.060277 4.184873 -1.978833
v -1.060277 4.184873 -1.928933
v -1.060277 4.184873 -1.885046
v -1.060277 4.184873 -1.850152
v -1.060277 4.184873 -1.827229
v -1.053960 4.184873 -1.805624
v -1.037389 4.184873 -1.789052
v -1.012433 4.184873 -1.764097
v -0.981199 4.184873 -1.732864
v -0.945794 4.184873 -1.697459
v -0.908322 4.184873 -1.659988
v -0.870891 4.184873 -1.622557
v -0.835607 4.184873 -1.587272
v -0.804574 4.184873 -1.556240
v -0.779900 4.184873 -1.531566
v -0.763691 4.184873 -1.515357
v -0.743951 4.184873 -1.504549
v -0.720515 4.184873 -1.504549
v -0.685223 4.184873 -1.504549
v -0.641052 4.184873 -1.504549
v -0.590981 4.184873 -1.504549
v -0.537989 4.184873 -1.504549
v -0.485054 4.184873 -1.504549
v -0.435154 4.184873 -1.504549
v -0.391267 4.184873 -1.504549
v -0.356373 4.184873 -1.504549
v -0.333450 4.184873 -1.504549
v -0.311845 4.184873 -1.510866
v -0.295274 4.184873 -1.527437
v -0.270318 4.184873 -1.552393
v -0.239085 4.184873 -1.583626
v -0.203680 4.184873 -1.619032
v -0.166209 4.184873 -1.656503
v -0.128778 4.184873 -1.693934
v -0.093493 4.184873 -1.729219
v -0.062461 4.184873 -1.760251
v -0.037787 4.184873 -1.784925
v -0.021578 4.184873 -1.801135
v -0.010768 4.184873 -1.820878
v -0.010768 4.184873 -1.844314
v -0.010768 4.184873 -1.879606
v -0.010768 4.184873 -1.923777
v -0.010768 4.184873 -1.973848
v -0.010769 4.184873 -2.026840
v -0.010769 4.184873 -2.079775
v -0.010769 4.184873 -2.129676
v -0.010770 4.184873 -2.173562
v -0.010770 4.184873 -2.208456
v -0.010770 4.184873 -2.231380
v -0.017085 4.184873 -2.252980
v -0.033657 4.184873 -2.269552
v -0.058612 4.184873 -2.294507
v -0.089846 4.184873 -2.325741
v -0.125251 4.184873 -2.361146
v -0.162722 4.184873 -2.398617
v -0.200153 4.184873 -2.436048
v -0.235438 4.184873 -2.471333
v -0.267208 4.188066 -2.495908
v -0.272646 4.196855 -2.506402
v -0.280471 4.186248 -2.502051
v -0.265733 4.181680 -2.508821
v -0.279999 4.184208 -2.506176
v -0.272175 4.194815 -2.510528
v -0.272646 4.196855 -2.506402
v -0.272175 4.194815 -2.510528
v -0.279999 4.184208 -2.506176
v -0.267208 4.188066 -2.495908
v -0.280471 4.186248 -2.502051
v -0.274531 4.175287 -2.495951
v -0.265733 4.181680 -2.508821
v -0.274059 4.173246 -2.500077
v -0.279999 4.184208 -2.506176
v -0.279999 4.184208 -2.506176
v -0.274059 4.173246 -2.500077
v -0.274531 4.175287 -2.495951
v -0.267208 4.188066 -2.495908
v -0.274531 4.175287 -2.495951
v -0.260766 4.174932 -2.494202
v -0.265733 4.181680 -2.508821
v -0.260295 4.172891 -2.498328
v -0.274059 4.173246 -2.500077
v -0.274531 4.175287 -2.495951
v -0.274059 4.173246 -2.500077
v -0.260295 4.172891 -2.498328
v -0.267208 4.188066 -2.495908
v -0.260766 4.174932 -2.494202
v -0.252942 4.185538 -2.498553
v -0.265733 4.181680 -2.508821
v -0.252470 4.183497 -2.502679
v -0.260295 4.172891 -2.498328
v -0.260295 4.172891 -2.498328
v -0.252470 4.183497 -2.502679
v -0.252942 4.185538 -2.498553
v -0.267208 4.188066 -2.495908
v -0.252942 4.185538 -2.498553
v -0.258882 4.196499 -2.504653
v -0.265733 4.181680 -2.508821
v -0.258410 4.194459 -2.508779
v -0.252470 4.183497 -2.502679
v -0.252942 4.185538 -2.498553
v -0.252470 4.183497 -2.502679
v -0.258410 4.194459 -2.508779
v -0.267208 4.188066 -2.495908
v -0.258882 4.196499 -2.504653
v -0.272646 4.196855 -2.506402
v -0.265733 4.181680 -2.508821
v -0.272175 4.194815 -2.510528
v -0.258410 4.194459 -2.508779
v -0.258882 4.196499 -2.504653
v -0.258410 4.194459 -2.508779
v -0.272175 4.194815 -2.510528
v -0.280471 4.186248 -2.502051
v -0.272646 4.196855 -2.506402
v -0.279999 4.184208 -2.506176
v -0.280471 4.186248 -2.502051
v -0.279999 4.184208 -2.506176
v -0.274531 4.175287 -2.495951
v -0.260766 4.174932 -2.494202
v -0.260766 4.174932 -2.494202
v -0.260295 4.172891 -2.498328
v -0.252942 4.185538 -2.498553
v -0.258882 4.196499 -2.504653
v -0.252942 4.185538 -2.498553
v -0.258410 4.194459 -2.508779
v -0.272646 4.196855 -2.506402
v -0.258882 4.196499 -2.504653
v -0.272175 4.194815 -2.510528
vn 0.000000 1.000000 0.000000
vn 0.000000 1.000000 0.000000
vn 0.000000 1.000000 0.000000
vn 0.000000 1.000000 0.000000
vn 0.000000 1.000000 0.000000
vn 0.000000 1.000000 0.000000
vn 0.000000 1.000000 0.000000
vn 0.000000 1.000000 0.000000
vn 0.000000 1.000000 0.000000
vn 0.000000 1.000000 0.000000
vn 0.000000 1.000000 0.000000
vn 0.000000 1.000000 0.000000
vn 0.000000 1.000000 0.000000
vn 0.000000 1.000000 0.000000
vn 0.000000 1.000000 0.000000
vn 0.000000 1.000000 0.000000
vn 0.000000 1.000000 0.000000
vn 0.000000 1.000000 0.000000
vn 0.000000 1.000000 0.000000
vn 0.000000 1.000000 0.000000
vn 0.000000 1.000000 0.000000
vn 0.000000 1.000000 0.000000
vn 0.000000 1.000000 0.000000
vn 0.000000 1.000000 0.000000
vn 0.000000 1.000000 0.000000
vn 0.000000 1.000000 0.000000
vn 0.000000 1.000000 0.000000
vn 0.000000 1.000000 0.000000
vn 0.000000 1.000000 0.000000
vn 0.000000 1.000000 0.000000
vn 0.000000 1.000000 0.000000
vn 0.000000 1.000000 0.000000
vn 0.000000 1.000000 0.000000
vn 0.000000 1.000000 0.000000
vn 0.000000 1.000000 0.000000
vn 0.000000 1.000000 0.000000
vn 0.000000 1.000000 0.000000
vn 0.000000 1.000000 0.000000
vn 0.000000 1.000000 0.000000
vn 0.000000 1.000000 0.000000
vn 0.000000 1.000000 0.000000
vn 0.000000 1.000000 0.000000
vn 0.000000 1.000000 0.000000
vn 0.000000 1.000000 0.000000
vn 0.000000 1.000000 0.000000
vn 0.000000 1.000000 0.000000
vn 0.000000 1.000000 0.000000
vn 0.000000 1.000000 0.000000
vn 0.000000 1.000000 0.000000
vn 0.000000 1.000000 0.000000
vn 0.000000 1.000000 0.000000
vn 0.000000 1.000000 0.000000
vn 0.000000 1.000000 0.000000
vn 0.000000 1.000000 0.000000
vn 0.000000 1.000000 0.000000
vn 0.000000 1.000000 0.000000
vn 0.000000 1.000000 0.000000
vn 0.000000 1.000000 0.000000
vn 0.000000 1.000000 0.000000
vn 0.000000 1.000000 0.000000
vn 0.000000 1.000000 0.000000
vn 0.000000 1.000000 0.000000
vn 0.000000 1.000000 0.000000
vn 0.000000 1.000000 0.000000
vn 0.000000 1.000000 0.000000
vn 0.000000 1.000000 0.000000
vn 0.000000 1.000000 0.000000
vn 0.000000 1.000000 0.000000
vn 0.000000 1.000000 0.000000
vn 0.000000 1.000000 0.000000
vn 0.000000 1.000000 0.000000
vn 0.000000 1.000000 0.000000
vn 0.000000 1.000000 0.000000
vn 0.000000 1.000000 0.000000
vn 0.000000 1.000000 0.000000
vn 0.000000 1.000000 0.000000
vn 0.000000 1.000000 0.000000
vn 0.000000 1.000000 0.000000
vn 0.000000 1.000000 0.000000
vn 0.000000 1.000000 0.000000
vn 0.000000 1.000000 0.000000
vn 0.000000 1.000000 0.000000
vn 0.000000 1.000000 0.000000
vn 0.000000 1.000000 0.000000
vn 0.000000 1.000000 0.000000
vn 0.000000 1.000000 0.000000
vn 0.000000 1.000000 0.000000
vn 0.000000 1.000000 0.000000
vn -0.405200 0.586600 0.701300
vn -0.405200 0.586600 0.701300
vn -0.405200 0.586600 0.701300
vn -0.216600 -0.229500 -0.948900
vn -0.216600 -0.229500 -0.948900
vn -0.216600 -0.229500 -0.948900
vn -0.819600 0.470800 -0.326500
vn -0.819600 0.470800 -0.326500
vn -0.819600 0.470800 -0.326500
vn -0.434900 0.246300 0.866100
vn -0.434900 0.246300 0.866100
vn -0.434900 0.246300 0.866100
vn -0.246300 -0.569700 -0.784000
vn -0.246300 -0.569700 -0.784000
vn -0.246300 -0.569700 -0.784000
vn -0.898000 -0.426400 0.108300
vn -0.898000 -0.426400 0.108300
vn -0.898000 -0.426400 0.108300
vn -0.124000 0.067800 0.990000
vn -0.124000 0.067800 0.990000
vn -0.124000 0.067800 0.990000
vn 0.064600 -0.748300 -0.660200
vn 0.064600 -0.748300 -0.660200
vn 0.064600 -0.748300 -0.660200
vn -0.078400 -0.897200 0.434600
vn -0.078400 -0.897200 0.434600
vn -0.078400 -0.897200 0.434600
vn 0.216600 0.229500 0.948900
vn 0.216600 0.229500 0.948900
vn 0.216600 0.229500 0.948900
vn 0.405100 -0.586600 -0.701300
vn 0.405100 -0.586600 -0.701300
vn 0.405100 -0.586600 -0.701300
vn 0.819600 -0.470700 0.326600
vn 0.819600 -0.470700 0.326600
vn 0.819600 -0.470700 0.326600
vn 0.246300 0.569800 0.784000
vn 0.246300 0.569800 0.784000
vn 0.246300 0.569800 0.784000
vn 0.434900 -0.246300 -0.866100
vn 0.434900 -0.246300 -0.866100
vn 0.434900 -0.246300 -0.866100
vn 0.898000 0.426400 -0.108300
vn 0.898000 0.426400 -0.108300
vn 0.898000 0.426400 -0.108300
vn -0.064500 0.748300 0.660200
vn -0.064500 0.748300 0.660200
vn -0.064500 0.748300 0.660200
vn 0.124000 -0.067800 -0.990000
vn 0.124000 -0.067800 -0.990000
vn 0.124000 -0.067800 -0.990000
vn 0.078400 0.897200 -0.434500
vn 0.078400 0.897200 -0.434500
vn 0.078400 0.897200 -0.434500
vn -0.819700 0.470700 -0.326400
vn -0.819700 0.470700 -0.326400
vn -0.819700 0.470700 -0.326400
vn -0.898000 -0.426400 0.108200
vn -0.898000 -0.426400 0.108200
vn -0.898000 -0.426400 0.108200
vn -0.078400 -0.897200 0.434600
vn 0.819600 -0.470700 0.326500
vn 0.819600 -0.470700 0.326500
vn 0.819600 -0.470700 0.326500
vn 0.898000 0.426400 -0.108200
vn 0.898000 0.426400 -0.108200
vn 0.898000 0.426400 -0.108200
vn 0.078400 0.897000 -0.434900
vn 0.078400 0.897000 -0.434900
vn 0.078400 0.897000 -0.434900
vt 0.000000 0.000000
vt 0.000000 0.000000
vt 0.000000 0.000000
vt 0.000000 0.000000
vt 0.000000 0.000000
vt 0.000000 0.000000
vt 0.000000 0.000000
vt 0.000000 0.000000
vt 0.000000 0.000000
vt 0.000000 0.000000
vt 0.000000 0.000000
vt 0.000000 0.000000
vt 0.000000 0.000000
vt 0.000000 0.000000
vt 0.000000 0.000000
vt 0.000000 0.000000
vt 0.000000 0.000000
vt 0.000000 0.000000
vt 0.000000 0.000000
vt 0.000000 0.000000
vt 0.000000 0.000000
vt 0.000000 0.000000
vt 0.000000 0.000000
vt 0.000000 0.000000
vt 0.000000 0.000000
vt 0.000000 0.000000
vt 0.000000 0.000000
vt 0.000000 0.000000
vt 0.000000 0.000000
vt 0.000000 0.000000
vt 0.000000 0.000000
vt 0.000000 0.000000
vt 0.000000 0.000000
vt 0.000000 0.000000
vt 0.000000 0.000000
vt 0.000000 0.000000
vt 0.000000 0.000000
vt 0.000000 0.000000
vt 0.000000 0.000000
vt 0.000000 0.000000
vt 0.000000 0.000000
vt 0.000000 0.000000
vt 0.000000 0.000000
vt 0.000000 0.000000
vt 0.000000 0.000000
vt 0.000000 0.000000
vt 0.000000 0.000000
vt 0.000000 0.000000
vt 0.000000 0.000000
vt 0.000000 0.000000
vt 0.000000 0.000000
vt 0.000000 0.000000
vt 0.000000 0.000000
vt 0.000000 0.000000
vt 0.000000 0.000000
vt 0.000000 0.000000
vt 0.000000 0.000000
vt 0.000000 0.000000
vt 0.000000 0.000000
vt 0.000000 0.000000
vt 0.000000 0.000000
vt 0.000000 0.000000
vt 0.000000 0.000000
vt 0.000000 0.000000
vt 0.000000 0.000000
vt 0.000000 0.000000
vt 0.000000 0.000000
vt 0.000000 0.000000
vt 0.000000 0.000000
vt 0.000000 0.000000
vt 0.000000 0.000000
vt 0.000000 0.000000
vt 0.000000 0.000000
vt 0.000000 0.000000
vt 0.000000 0.000000
vt 0.000000 0.000000
vt 0.000000 0.000000
vt 0.000000 0.000000
vt 0.000000 0.000000
vt 0.000000 0.000000
vt 0.000000 0.000000
vt 0.000000 0.000000
vt 0.000000 0.000000
vt 0.000000 0.000000
vt 0.000000 0.000000
vt 0.000000 0.000000
vt 0.000000 0.000000
vt 0.000000 0.000000
vt 0.000000 0.000000
vt 0.000000 0.000000
vt 0.000000 0.000000
vt 0.000000 0.000000
vt 0.000000 0.000000
vt 0.000000 0.000000
vt 0.000000 0.000000
vt 0.000000 0.000000
vt 0.000000 0.000000
vt 0.000000 0.000000
vt 0.000000 0.000000
vt 0.000000 0.000000
vt 0.000000 0.000000
vt 0.000000 0.000000
vt 0.000000 0.000000
vt 0.000000 0.000000
vt 0.000000 0.000000
vt 0.000000 0.000000
vt 0.000000 0.000000
vt 0.000000 0.000000
vt 0.000000 0.000000
vt 0.000000 0.000000
vt 0.000000 0.000000
vt 0.000000 0.000000
vt 0.000000 0.000000
vt 0.000000 0.000000
vt 0.000000 0.000000
vt 0.000000 0.000000
vt 0.000000 0.000000
vt 0.000000 0.000000
vt 0.000000 0.000000
vt 0.000000 0.000000
vt 0.000000 0.000000
vt 0.000000 0.000000
vt 0.000000 0.000000
vt 0.000000 0.000000
vt 0.000000 0.000000
vt 0.000000 0.000000
vt 0.000000 0.000000
vt 0.000000 0.000000
vt 0.000000 0.000000
vt 0.000000 0.000000
vt 0.000000 0.000000
vt 0.000000 0.000000
vt 0.000000 0.000000
vt 0.000000 0.000000
vt 0.000000 0.000000
vt 0.000000 0.000000
vt 0.000000 0.000000
vt 0.000000 0.000000
vt 0.000000 0.000000
vt 0.000000 0.000000
vt 0.000000 0.000000
vt 0.000000 0.000000
vt 0.000000 0.000000
vt 0.000000 0.000000
vt 0.000000 0.000000
vt 0.000000 0.000000
vt 0.000000 0.000000
vt 0.000000 0.000000
vt 0.000000 0.000000
vt 0.000000 0.000000
vt 0.000000 0.000000
vt 0.000000 0.000000
vt 0.000000 0.000000
vt 0.000000 0.000000
vt 0.000000 0.000000
vt 0.000000 0.000000
vt 0.000000 0.000000
vt 0.000000 0.000000
f 89/89/89 90/90/90 91/91/91
f 92/92/92 93/93/93 94/94/94
f 95/95/95 96/96/96 97/97/97
f 98/98/98 99/99/99 100/100/100
f 101/101/101 102/102/102 103/103/103
f 104/104/104 105/105/105 106/106/106
f 107/107/107 108/108/108 109/109/109
f 110/110/110 111/111/111 112/112/112
f 113/113/113 114/114/114 115/115/115
f 116/116/116 117/117/117 118/118/118
f 119/119/119 120/120/120 121/121/121
f 122/122/122 123/123/123 124/124/124
f 125/125/125 126/126/126 127/127/127
f 128/128/128 129/129/129 130/130/130
f 131/131/131 132/132/132 133/133/133
f 134/134/134 135/135/135 136/136/136
f 137/137/137 138/138/138 139/139/139
f 140/140/140 141/141/141 142/142/142
f 143/143/143 144/144/144 145/145/145
f 146/146/146 147/147/147 148/148/148
f 149/149/149 113/113/113 115/115/115
f 150/150/150 151/151/151 152/152/152
f 153/153/153 154/154/154 155/155/155
f 156/156/156 157/157/157 158/158/158
