v -1.217550 2.969765 -3.645437
v -1.217550 2.969765 -3.209751
v -0.781453 2.969765 -3.209751
v -1.217550 2.969765 -5.178236
v -0.781452 2.969765 -3.645437
v -0.781453 2.969765 -3.209751
v -1.217550 2.969765 -3.209751
v -1.253550 2.969765 -3.173751
v -0.781452 2.969765 -3.645437
v -0.745453 2.969765 -3.645437
v -0.745452 2.969765 -5.178236
v -0.721453 2.945765 -3.149751
v -1.277550 2.945765 -3.149751
v -1.277550 2.941531 -3.149751
v -1.253550 2.969765 -3.173751
v -1.217550 2.969765 -3.209751
v -1.217550 2.969765 -3.209751
v -1.277550 2.945765 -3.149751
v -1.277550 2.945765 -3.209751
v -1.277550 2.941531 -3.209751
v -0.724668 2.957765 -5.178236
v -0.733452 2.966549 -5.178236
v -0.733452 2.966549 -3.645437
v -0.724668 2.957765 -3.645437
v -0.733453 2.966549 -3.161751
v -0.745453 2.969765 -3.173751
v -0.724668 2.957765 -3.152967
v -1.274335 2.957765 -3.152967
v -0.733453 2.966549 -3.161751
v -1.265550 2.966549 -3.161751
v -0.745453 2.969765 -3.173751
v -1.274335 2.929531 -3.152967
v -0.724668 2.929531 -3.152967
v -1.265550 2.920746 -3.161751
v -0.733453 2.920746 -3.161751
v -1.274335 2.957765 -3.152967
v -1.274335 2.957765 -3.209751
v -1.265550 2.966549 -3.161751
v -1.265550 2.966549 -3.209751
v -1.274335 2.929531 -3.209751
v -1.274335 2.929531 -3.152967
v -1.265550 2.920746 -3.209751
v -1.265550 2.920746 -3.161751
v -0.781453 2.969765 -3.209751
v -0.781452 2.969765 -5.178236
v -0.781452 2.969765 -5.178236
v -0.721453 2.941531 -3.149751
v -1.253550 2.969765 -3.209751
v -1.277550 2.941531 -3.149751
v -0.724668 2.957765 -3.152967
vn 0.000000 1.000000 0.000000
vn 0.000000 1.000000 0.000000
vn 0.000000 1.000000 0.000000
vn 0.000000 1.000000 0.000000
vn 0.000000 1.000000 0.000000
vn 0.000000 1.000000 0.000000
vn 0.000000 1.000000 0.000000
vn -0.098400 0.990200 0.098500
vn 0.000000 1.000000 0.000000
vn 0.130500 0.991400 0.000000
vn 0.130500 0.991400 0.000000
vn 0.000000 0.119100 0.992900
vn 0.000000 0.119100 0.992900
vn 0.000000 -0.119100 0.992900
vn -0.098400 0.990200 0.098500
vn 0.000000 1.000000 0.000000
vn 0.000000 -1.000000 0.000000
vn -0.992900 0.119100 0.000000
vn -0.991400 0.130500 0.000000
vn -0.991400 -0.130500 0.000000
vn 0.707100 0.707100 0.000000
vn 0.500000 0.866000 0.000000
vn 0.500000 0.866000 0.000000
vn 0.707100 0.707100 0.000000
vn 0.333200 0.882000 0.333200
vn 0.098400 0.990200 0.098400
vn 0.000000 0.426000 0.904700
vn 0.000000 0.426000 0.904700
vn 0.333200 0.882000 0.333200
vn -0.333200 0.882000 0.333200
vn 0.098400 0.990200 0.098400
vn 0.000000 -0.426000 0.904700
vn 0.000000 -0.425900 0.904700
vn 0.000000 -0.707100 0.707100
vn 0.000000 -0.707100 0.707100
vn -0.904700 0.426000 0.000000
vn -0.866000 0.500000 0.000000
vn -0.333200 0.882000 0.333200
vn -0.500000 0.866000 0.000000
vn -0.866000 -0.500000 0.000000
vn -0.904700 -0.425900 0.000000
vn -0.707100 -0.707100 0.000000
vn -0.707100 -0.707100 0.000000
vn 0.000000 1.000000 0.000000
vn 0.000000 1.000000 0.000000
vn 0.000000 1.000000 0.000000
vn 0.000000 -0.119100 0.992900
vn -0.130500 0.991400 0.000000
vn -0.992900 -0.119100 0.000000
vn 0.707100 0.707100 0.000000
vt 0.960740 0.757308
vt 0.960740 0.953010
vt 0.434563 0.953010
vt 0.960741 0.068806
vt 0.434563 0.757308
vt 0.467060 0.734199
vt 0.467063 0.250026
vt 0.551925 0.210057
vt 0.894388 0.635851
vt 0.874190 0.635028
vt 0.872589 0.058361
vt 0.639777 0.800813
vt 0.639777 0.183412
vt 0.662653 0.183518
vt 0.370748 0.471816
vt 0.252611 0.353678
vt 0.252646 0.351617
vt 0.493053 0.550575
vt 0.493053 0.353679
vt 0.506946 0.353679
vt 0.847409 0.057169
vt 0.859998 0.057766
vt 0.862716 0.634438
vt 0.851239 0.633884
vt 0.870220 0.965833
vt 0.880702 0.957980
vt 0.610491 0.797243
vt 0.610495 0.186981
vt 0.581206 0.787490
vt 0.581212 0.196733
vt 0.551921 0.774167
vt 0.691939 0.187088
vt 0.691942 0.797349
vt 0.721224 0.196840
vt 0.721224 0.787597
vt 0.452285 0.540023
vt 0.452285 0.353678
vt 0.411517 0.511196
vt 0.411516 0.353679
vt 0.547715 0.353679
vt 0.547715 0.540023
vt 0.588484 0.353678
vt 0.588483 0.511196
vt 0.911344 0.933426
vt 0.434563 0.068806
vt 0.889557 0.059231
vt 0.662653 0.800919
vt 0.370748 0.353678
vt 0.506947 0.550575
vt 0.859722 0.971440
f 1/1/1 2/2/2 3/3/3
f 4/4/4 1/1/1 5/5/5
f 6/6/6 7/7/7 8/8/8
f 9/9/9 10/10/10 11/11/11
f 12/12/12 13/13/13 14/14/14
f 15/15/15 16/16/16 17/17/17
f 18/18/18 19/19/19 20/20/20
f 21/21/21 22/22/22 23/23/23
f 22/22/22 11/11/11 10/10/10
f 24/24/24 23/23/23 25/25/25
f 23/23/23 10/10/10 26/26/26
f 12/12/12 27/27/27 28/28/28
f 27/27/27 29/29/29 30/30/30
f 30/30/30 29/29/29 31/31/31
f 14/14/14 32/32/32 33/33/33
f 32/32/32 34/34/34 35/35/35
f 19/19/19 18/18/18 36/36/36
f 37/37/37 36/36/36 38/38/38
f 39/39/39 38/38/38 15/15/15
f 20/20/20 40/40/40 41/41/41
f 40/40/40 42/42/42 43/43/43
f 44/44/44 26/26/26 10/10/10
f 5/5/5 1/1/1 3/3/3
f 45/45/45 4/4/4 5/5/5
f 31/31/31 6/6/6 8/8/8
f 46/46/46 9/9/9 11/11/11
f 47/47/47 12/12/12 14/14/14
f 48/48/48 15/15/15 17/17/17
f 49/49/49 18/18/18 20/20/20
f 24/24/24 21/21/21 23/23/23
f 23/23/23 22/22/22 10/10/10
f 50/50/50 24/24/24 25/25/25
f 25/25/25 23/23/23 26/26/26
f 13/13/13 12/12/12 28/28/28
f 28/28/28 27/27/27 30/30/30
f 8/8/8 30/30/30 31/31/31
f 47/47/47 14/14/14 33/33/33
f 33/33/33 32/32/32 35/35/35
f 37/37/37 19/19/19 36/36/36
f 39/39/39 37/37/37 38/38/38
f 48/48/48 39/39/39 15/15/15
f 49/49/49 20/20/20 41/41/41
f 41/41/41 40/40/40 43/43/43
f 9/9/9 44/44/44 10/10/10
