v 1.840915 4.118543 -5.141870
v 1.832367 4.129789 -5.146107
v 1.353353 4.129789 -5.146107
v 1.924592 4.031743 -5.141870
v 1.840915 4.118543 -5.141870
v 1.344806 4.118543 -5.141870
v 1.924592 4.896187 -5.141870
v 1.261128 4.896187 -5.141870
v 1.344806 4.809387 -5.141870
v 1.840915 4.809387 -5.141870
v 1.261128 4.031743 -5.141870
v 1.832367 4.129789 -5.146107
v 1.832367 4.129789 -5.148210
v 1.353353 4.129789 -5.148210
v 1.344806 4.809387 -5.141870
v 1.353353 4.798140 -5.146107
v 1.832367 4.798140 -5.146107
v 1.840915 4.809387 -5.141870
v 1.832367 4.798140 -5.146107
v 1.832367 4.129789 -5.146107
v 1.344806 4.118543 -5.141870
v 1.353353 4.129789 -5.146107
v 1.353353 4.798140 -5.146107
v 1.353353 4.798140 -5.146107
v 1.353353 4.798140 -5.148210
v 1.832367 4.798140 -5.148210
v 1.832367 4.798140 -5.146107
v 1.832367 4.798140 -5.148210
v 1.832367 4.129789 -5.148210
v 1.353353 4.129789 -5.146107
v 1.353353 4.129789 -5.148210
v 1.353353 4.798140 -5.148210
v 1.344806 4.118543 -5.141870
v 1.353353 4.129789 -5.146107
v 1.840915 4.809387 -5.141870
v 1.344806 4.809387 -5.141870
v 1.832367 4.798140 -5.146107
v 1.840915 4.118543 -5.141870
v 1.344806 4.809387 -5.141870
v 1.344806 4.118543 -5.141870
v 1.353353 4.798140 -5.146107
v 1.832367 4.798140 -5.146107
v 1.832367 4.129789 -5.146107
v 1.353353 4.798140 -5.146107
vn 0.000000 0.352600 0.935800
vn 0.000000 0.352600 0.935800
vn 0.000000 0.352600 0.935800
vn 0.000000 0.000000 1.000000
vn 0.000000 0.000000 1.000000
vn 0.000000 0.000000 1.000000
vn 0.000000 0.000000 1.000000
vn 0.000000 0.000000 1.000000
vn 0.000000 0.000000 1.000000
vn 0.000000 0.000000 1.000000
vn 0.000000 0.000000 1.000000
vn 0.000000 1.000000 0.000000
vn 0.000000 1.000000 0.000000
vn 0.000000 1.000000 0.000000
vn 0.000000 -0.352600 0.935800
vn 0.000000 -0.352600 0.935800
vn 0.000000 -0.352600 0.935800
vn -0.444100 0.000000 0.896000
vn -0.444100 0.000000 0.896000
vn -0.444100 0.000000 0.896000
vn 0.444100 0.000000 0.896000
vn 0.444100 0.000000 0.896000
vn 0.444100 0.000000 0.896000
vn 0.000000 -1.000000 0.000000
vn 0.000000 -1.000000 0.000000
vn 0.000000 -1.000000 0.000000
vn -1.000000 0.000000 0.000000
vn -1.000000 0.000000 0.000000
vn -1.000000 0.000000 0.000000
vn 1.000000 0.000000 0.000000
vn 1.000000 0.000000 0.000000
vn 1.000000 0.000000 0.000000
vn 0.000000 0.352600 0.935800
vn 0.000000 1.000000 0.000000
vn -0.000000 -0.352500 0.935800
vn -0.000000 -0.352500 0.935800
vn -0.000000 -0.352500 0.935800
vn -0.444100 0.000000 0.896000
vn 0.444200 0.000000 0.896000
vn 0.444200 0.000000 0.896000
vn 0.444200 0.000000 0.896000
vn 0.000000 -1.000000 0.000000
vn -1.000000 0.000000 0.000000
vn 1.000000 0.000000 0.000000
vt 0.999903 0.000097
vt 0.999903 0.000097
vt 0.000097 0.000097
vt 0.999903 0.000097
vt 0.999903 0.000097
vt 0.000097 0.000097
vt 0.999903 0.996547
vt 0.000097 0.996547
vt 0.000097 0.996547
vt 0.999903 0.996547
vt 0.000097 0.000097
vt 0.999903 0.000097
vt 0.999903 0.000097
vt 0.000097 0.000097
vt 0.000097 0.996547
vt 0.000097 0.996547
vt 0.999903 0.996547
vt 0.999903 0.996547
vt 0.999903 0.996547
vt 0.999903 0.000097
vt 0.000097 0.000097
vt 0.000097 0.000097
vt 0.000097 0.996547
vt 0.000097 0.996547
vt 0.000097 0.996547
vt 0.999903 0.996547
vt 0.999903 0.996547
vt 0.999903 0.996547
vt 0.999903 0.000097
vt 0.000097 0.000097
vt 0.000097 0.000097
vt 0.000097 0.996547
vt 0.000097 0.000097
vt 0.000097 0.000097
vt 0.999903 0.996547
vt 0.000097 0.996547
vt 0.999903 0.996547
vt 0.999903 0.000097
vt 0.000097 0.996547
vt 0.000097 0.000097
vt 0.000097 0.996547
vt 0.999903 0.996547
vt 0.999903 0.000097
vt 0.000097 0.996547
f 1/1/1 2/2/2 3/3/3
f 4/4/4 5/5/5 6/6/6
f 7/7/7 8/8/8 9/9/9
f 4/4/4 7/7/7 10/10/10
f 11/11/11 6/6/6 9/9/9
f 12/12/12 13/13/13 14/14/14
f 15/15/15 16/16/16 17/17/17
f 18/18/18 19/19/19 20/20/20
f 21/21/21 22/22/22 23/23/23
f 24/24/24 25/25/25 26/26/26
f 27/27/27 28/28/28 29/29/29
f 30/30/30 31/31/31 32/32/32
f 33/33/33 1/1/1 3/3/3
f 11/11/11 4/4/4 6/6/6
f 10/10/10 7/7/7 9/9/9
f 5/5/5 4/4/4 10/10/10
f 8/8/8 11/11/11 9/9/9
f 34/34/34 12/12/12 14/14/14
f 35/35/35 36/36/36 37/37/37
f 38/38/38 18/18/18 20/20/20
f 39/39/39 40/40/40 41/41/41
f 42/42/42 24/24/24 26/26/26
f 43/43/43 27/27/27 29/29/29
f 44/44/44 30/30/30 32/32/32
