v -4.106978 3.109775 -3.209751
v -1.653648 3.109775 -3.209751
v -1.653648 3.109775 -5.178236
v -4.106978 3.109775 1.043220
v -4.106978 3.109775 -5.178236
v -1.653648 3.109775 1.043221
vn 0.000000 1.000000 0.000000
vn 0.000000 1.000000 0.000000
vn 0.000000 1.000000 0.000000
vn 0.000000 1.000000 0.000000
vn 0.000000 1.000000 0.000000
vn 0.000000 1.000000 0.000000
vt 0.557542 0.954179
vt 0.557542 0.954179
vt 0.557542 0.954179
vt 0.557542 0.954179
vt 0.557542 0.954179
vt 0.557542 0.954179
f 1/1/1 2/2/2 3/3/3
f 2/2/2 1/1/1 4/4/4
f 5/5/5 1/1/1 3/3/3
f 6/6/6 2/2/2 4/4/4
