v -0.781453 2.675332 -3.209751
v -0.345355 2.675332 -3.209751
v -0.345355 2.675332 -3.645437
v -0.781452 2.675332 -3.645437
v -0.345355 2.675332 -5.178236
v -0.817452 2.675332 -3.173751
v -0.781453 2.675332 -3.209751
v -0.781453 2.675332 -3.209752
v -0.345355 2.675332 -3.209751
v -0.781453 2.675332 -3.209751
v -0.817452 2.675332 -3.173751
v -0.345355 2.675332 -3.645437
v -0.309355 2.675332 -3.645437
v -0.309355 2.675332 -5.178236
v -0.297355 2.672117 -5.178236
v -0.297355 2.672117 -3.645437
v -0.309355 2.675332 -3.173751
v -0.297355 2.672117 -3.161751
v -0.309355 2.675332 -3.173751
v -0.829453 2.672117 -3.209752
v -0.829453 2.672117 -3.161751
v -0.345355 2.675332 -3.209751
v -0.781452 2.675332 -5.178236
v -0.817452 2.675332 -3.209752
v -0.345355 2.675332 -5.178236
v -0.297355 2.672117 -3.161751
v -0.829453 2.672117 -3.161751
vn 0.000000 1.000000 0.000000
vn 0.000000 1.000000 0.000000
vn 0.000000 1.000000 0.000000
vn 0.000000 1.000000 0.000000
vn 0.000000 1.000000 0.000000
vn -0.098400 0.990200 0.098400
vn 0.000000 1.000000 0.000000
vn 0.000000 1.000000 0.000000
vn 0.000000 1.000000 0.000000
vn 0.000000 1.000000 0.000000
vn -0.098400 0.990200 0.098400
vn 0.000000 1.000000 0.000000
vn 0.130500 0.991400 0.000000
vn 0.130500 0.991400 0.000000
vn 0.258800 0.965900 0.000000
vn 0.258800 0.965900 0.000000
vn 0.098400 0.990200 0.098400
vn 0.131600 0.982500 0.131600
vn 0.098400 0.990200 0.098400
vn -0.258800 0.965900 0.000000
vn -0.131600 0.982500 0.131600
vn 0.000000 1.000000 0.000000
vn 0.000000 1.000000 0.000000
vn -0.130500 0.991400 0.000000
vn 0.000000 1.000000 0.000000
vn 0.131600 0.982500 0.131600
vn -0.131600 0.982500 0.131600
vt 0.864490 0.923529
vt 0.485568 0.923529
vt 0.485568 0.727827
vt 0.864490 0.727827
vt 0.485568 0.039325
vt 0.499981 0.630147
vt 0.353635 0.483821
vt 0.353680 0.481268
vt 0.524496 0.684239
vt 0.524493 0.310448
vt 0.591119 0.279591
vt 0.803267 0.625425
vt 0.783390 0.625837
vt 0.777316 0.069612
vt 0.764925 0.069787
vt 0.772098 0.625952
vt 0.792487 0.936938
vt 0.614114 0.725381
vt 0.591122 0.715096
vt 0.550470 0.483807
vt 0.550484 0.678922
vt 0.822421 0.911424
vt 0.864490 0.039325
vt 0.499970 0.483810
vt 0.794017 0.069442
vt 0.782242 0.945139
vt 0.614113 0.269305
f 1/1/1 2/2/2 3/3/3
f 4/4/4 3/3/3 5/5/5
f 6/6/6 7/7/7 8/8/8
f 9/9/9 10/10/10 11/11/11
f 12/12/12 13/13/13 14/14/14
f 15/15/15 14/14/14 13/13/13
f 16/16/16 13/13/13 17/17/17
f 18/18/18 19/19/19 11/11/11
f 20/20/20 21/21/21 6/6/6
f 22/22/22 17/17/17 13/13/13
f 4/4/4 1/1/1 3/3/3
f 23/23/23 4/4/4 5/5/5
f 24/24/24 6/6/6 8/8/8
f 19/19/19 9/9/9 11/11/11
f 25/25/25 12/12/12 14/14/14
f 16/16/16 15/15/15 13/13/13
f 26/26/26 16/16/16 17/17/17
f 27/27/27 18/18/18 11/11/11
f 24/24/24 20/20/20 6/6/6
f 12/12/12 22/22/22 13/13/13
