v -1.654883 3.894545 -3.168839
v -1.647782 3.894545 -3.174666
v -1.646623 3.900348 -3.173507
v -1.671775 3.894545 -3.253761
v -1.680917 3.894545 -3.254661
v -1.680917 3.900348 -3.256301
v -1.634958 3.894545 -3.216943
v -1.633350 3.900348 -3.217263
v -1.632418 3.900348 -3.207801
v -1.634958 3.894545 -3.198659
v -1.634058 3.894545 -3.207801
v -1.662985 3.894545 -3.164509
v -1.653972 3.900348 -3.167475
v -1.719880 3.894545 -3.181767
v -1.721243 3.900348 -3.180856
v -1.725725 3.900348 -3.189241
v -1.647782 3.894545 -3.240936
v -1.646623 3.900348 -3.242095
v -1.640591 3.900348 -3.234746
v -1.641955 3.894545 -3.181767
v -1.640591 3.900348 -3.180856
v -1.637625 3.894545 -3.225734
v -1.636109 3.900348 -3.226361
v -1.714052 3.894545 -3.240936
v -1.719880 3.894545 -3.233835
v -1.721243 3.900348 -3.234746
v -1.726876 3.894545 -3.198659
v -1.728485 3.900348 -3.198339
v -1.729417 3.900348 -3.207801
v -1.706951 3.894545 -3.246764
v -1.715211 3.900348 -3.242095
v -1.707862 3.900348 -3.248127
v -1.699477 3.900348 -3.252609
v -1.662985 3.894545 -3.251094
v -1.662357 3.900348 -3.252609
v -1.653972 3.900348 -3.248127
v -1.637625 3.894545 -3.189869
v -1.636110 3.900348 -3.189241
v -1.706951 3.894545 -3.168839
v -1.698850 3.894545 -3.164509
v -1.699477 3.900348 -3.162994
v -1.654883 3.894545 -3.246764
v -1.707862 3.900348 -3.167475
v -1.715211 3.900348 -3.173507
v -1.662357 3.900348 -3.162994
v -1.671455 3.900348 -3.160234
v -1.633350 3.900348 -3.198339
v -1.714052 3.894545 -3.174667
v -1.724210 3.894545 -3.225734
v -1.725725 3.900348 -3.226361
v -1.671455 3.900348 -3.255369
v -1.662357 3.900348 -3.252609
v -1.726876 3.894545 -3.216943
v -1.727777 3.894545 -3.207801
v -1.641955 3.894545 -3.233835
v -1.690059 3.894545 -3.253761
v -1.698850 3.894545 -3.251094
v -1.671775 3.894545 -3.161842
v -1.680917 3.900348 -3.159302
v -1.680917 3.894545 -3.160942
v -1.690379 3.900348 -3.160234
v -1.724210 3.894545 -3.189869
v -1.690059 3.894545 -3.161842
v -1.690379 3.900348 -3.255369
v -1.728485 3.900348 -3.217263
v -1.662985 3.894545 -3.251094
vn 0.534600 -0.271900 0.800100
vn 0.680400 -0.271900 0.680400
vn 0.680500 -0.271900 0.680400
vn 0.187700 -0.271900 -0.943800
vn 0.000000 -0.271900 -0.962300
vn 0.000000 -0.271900 -0.962300
vn 0.943800 -0.271900 -0.187700
vn 0.943800 -0.271900 -0.187700
vn 0.962300 -0.271900 0.000000
vn 0.943800 -0.271900 0.187700
vn 0.962300 -0.271900 0.000000
vn 0.368200 -0.271900 0.889100
vn 0.534600 -0.271900 0.800100
vn -0.800100 -0.271900 0.534600
vn -0.800100 -0.271900 0.534600
vn -0.889000 -0.271900 0.368300
vn 0.680500 -0.271900 -0.680400
vn 0.680400 -0.271900 -0.680500
vn 0.800100 -0.271900 -0.534600
vn 0.800100 -0.271900 0.534600
vn 0.800100 -0.271900 0.534600
vn 0.889100 -0.271900 -0.368200
vn 0.889100 -0.271900 -0.368200
vn -0.680500 -0.271900 -0.680400
vn -0.800100 -0.271900 -0.534600
vn -0.800100 -0.271900 -0.534600
vn -0.943800 -0.271900 0.187700
vn -0.943800 -0.271900 0.187700
vn -0.962300 -0.271900 0.000000
vn -0.534600 -0.271900 -0.800100
vn -0.680500 -0.271900 -0.680400
vn -0.534600 -0.271900 -0.800200
vn -0.368200 -0.271900 -0.889100
vn 0.368200 -0.271900 -0.889100
vn 0.368200 -0.271900 -0.889100
vn 0.534600 -0.271900 -0.800100
vn 0.889100 -0.271900 0.368200
vn 0.889100 -0.271900 0.368300
vn -0.534600 -0.271900 0.800100
vn -0.368300 -0.271900 0.889000
vn -0.368200 -0.271900 0.889100
vn 0.534700 -0.271900 -0.800100
vn -0.534600 -0.271900 0.800100
vn -0.680400 -0.271900 0.680400
vn 0.368200 -0.271900 0.889100
vn 0.187700 -0.271900 0.943800
vn 0.943800 -0.271900 0.187700
vn -0.680400 -0.271900 0.680400
vn -0.889100 -0.271900 -0.368200
vn -0.889100 -0.271900 -0.368200
vn 0.187700 -0.271900 -0.943800
vn 0.368200 -0.271900 -0.889100
vn -0.943800 -0.271900 -0.187700
vn -0.962300 -0.272000 0.000000
vn 0.800100 -0.271900 -0.534600
vn -0.187700 -0.271900 -0.943800
vn -0.368300 -0.271900 -0.889000
vn 0.187700 -0.271900 0.943800
vn 0.000000 -0.271900 0.962300
vn 0.000000 -0.271900 0.962300
vn -0.187700 -0.271900 0.943800
vn -0.889000 -0.271900 0.368300
vn -0.187700 -0.271900 0.943800
vn -0.187700 -0.271900 -0.943800
vn -0.943800 -0.271900 -0.187700
vn 0.368200 -0.271900 -0.889100
vt 0.650773 0.500837
vt 0.676028 0.502895
vt 0.668274 0.504901
vt 0.066498 0.517653
vt 0.110798 0.516850
vt 0.120106 0.519345
vt 0.807287 0.513590
vt 0.796586 0.515971
vt 0.767752 0.513993
vt 0.751189 0.509572
vt 0.778076 0.511680
vt 0.624716 0.498999
vt 0.643834 0.502771
vt 0.422143 0.496566
vt 0.426141 0.498350
vt 0.399520 0.499703
vt 0.919925 0.517460
vt 0.912434 0.519976
vt 0.867406 0.519020
vt 0.700842 0.505094
vt 0.692361 0.507177
vt 0.839940 0.515230
vt 0.829264 0.517668
vt 0.241086 0.510208
vt 0.266904 0.508009
vt 0.276243 0.510194
vt 0.367521 0.499513
vt 0.373809 0.501400
vt 0.348920 0.503378
vt 0.213621 0.512265
vt 0.251031 0.512469
vt 0.224081 0.514599
vt 0.194271 0.516502
vt 1.017743 0.518029
vt 1.019607 0.520564
vt 0.964246 0.520497
vt 0.725695 0.507348
vt 0.716544 0.509510
vt 0.480632 0.495139
vt 0.510573 0.495074
vt 0.510005 0.496806
vt 0.967601 0.517964
vt 0.481671 0.496874
vt 0.453600 0.497395
vt 0.618721 0.500869
vt 0.592745 0.499267
vt 0.741415 0.511811
vt 0.451013 0.495643
vt 0.291877 0.505755
vt 0.300560 0.507861
vt 0.072955 0.520175
vt 0.019607 0.520564
vt 0.316647 0.503531
vt 0.341730 0.501423
vt 0.877218 0.516537
vt 0.149625 0.515652
vt 0.183520 0.514104
vt 0.597633 0.497451
vt 0.565863 0.498026
vt 0.569463 0.496253
vt 0.538194 0.497196
vt 0.394288 0.497872
vt 0.540336 0.495450
vt 0.160160 0.518104
vt 0.324623 0.505559
vt 0.017743 0.518029
f 1/1/1 2/2/2 3/3/3
f 4/4/4 5/5/5 6/6/6
f 7/7/7 8/8/8 9/9/9
f 10/10/10 11/11/11 9/9/9
f 12/12/12 1/1/1 13/13/13
f 14/14/14 15/15/15 16/16/16
f 17/17/17 18/18/18 19/19/19
f 2/2/2 20/20/20 21/21/21
f 22/22/22 23/23/23 8/8/8
f 24/24/24 25/25/25 26/26/26
f 27/27/27 28/28/28 29/29/29
f 30/30/30 24/24/24 31/31/31
f 30/30/30 32/32/32 33/33/33
f 34/34/34 35/35/35 36/36/36
f 37/37/37 38/38/38 21/21/21
f 39/39/39 40/40/40 41/41/41
f 17/17/17 42/42/42 36/36/36
f 39/39/39 43/43/43 44/44/44
f 12/12/12 45/45/45 46/46/46
f 10/10/10 47/47/47 38/38/38
f 48/48/48 44/44/44 15/15/15
f 25/25/25 49/49/49 50/50/50
f 4/4/4 51/51/51 52/52/52
f 53/53/53 54/54/54 29/29/29
f 55/55/55 19/19/19 23/23/23
f 56/56/56 57/57/57 33/33/33
f 58/58/58 46/46/46 59/59/59
f 60/60/60 59/59/59 61/61/61
f 62/62/62 16/16/16 28/28/28
f 63/63/63 61/61/61 41/41/41
f 5/5/5 56/56/56 64/64/64
f 53/53/53 65/65/65 50/50/50
f 13/13/13 1/1/1 3/3/3
f 51/51/51 4/4/4 6/6/6
f 11/11/11 7/7/7 9/9/9
f 47/47/47 10/10/10 9/9/9
f 45/45/45 12/12/12 13/13/13
f 62/62/62 14/14/14 16/16/16
f 55/55/55 17/17/17 19/19/19
f 3/3/3 2/2/2 21/21/21
f 7/7/7 22/22/22 8/8/8
f 31/31/31 24/24/24 26/26/26
f 54/54/54 27/27/27 29/29/29
f 32/32/32 30/30/30 31/31/31
f 57/57/57 30/30/30 33/33/33
f 42/42/42 34/34/34 36/36/36
f 20/20/20 37/37/37 21/21/21
f 43/43/43 39/39/39 41/41/41
f 18/18/18 17/17/17 36/36/36
f 48/48/48 39/39/39 44/44/44
f 58/58/58 12/12/12 46/46/46
f 37/37/37 10/10/10 38/38/38
f 14/14/14 48/48/48 15/15/15
f 26/26/26 25/25/25 50/50/50
f 66/66/66 4/4/4 52/52/52
f 65/65/65 53/53/53 29/29/29
f 22/22/22 55/55/55 23/23/23
f 64/64/64 56/56/56 33/33/33
f 60/60/60 58/58/58 59/59/59
f 63/63/63 60/60/60 61/61/61
f 27/27/27 62/62/62 28/28/28
f 40/40/40 63/63/63 41/41/41
f 6/6/6 5/5/5 64/64/64
f 49/49/49 53/53/53 50/50/50
