v 2.454232 2.429279 -0.661967
v 2.491517 2.429279 -0.661967
v 2.491517 2.429280 -1.555266
v 2.454232 3.529670 -0.661967
v 2.491517 3.529670 -0.661967
v 2.491517 2.429279 -0.661967
v 2.454232 3.529670 -1.555266
v 2.491517 3.529670 -1.555266
v 2.491517 3.529670 -0.661967
v 2.454232 2.429280 -1.555266
v 2.491517 2.429280 -1.555266
v 2.491517 3.529670 -1.555266
v 2.454232 2.429280 -1.555266
v 2.454232 2.429279 -0.661967
v 2.454232 3.529670 -0.661967
v 2.454232 3.529670 -1.555266
vn 0.000000 1.000000 0.000000
vn 0.000000 1.000000 0.000000
vn 0.000000 1.000000 0.000000
vn 0.000000 0.000000 -1.000000
vn 0.000000 0.000000 -1.000000
vn 0.000000 0.000000 -1.000000
vn 0.000000 -1.000000 0.000000
vn 0.000000 -1.000000 0.000000
vn 0.000000 -1.000000 0.000000
vn 0.000000 0.000000 1.000000
vn 0.000000 0.000000 1.000000
vn 0.000000 0.000000 1.000000
vn 0.000000 1.000000 0.000000
vn 0.000000 0.000000 -1.000000
vn 0.000000 -1.000000 0.000000
vn 0.000000 0.000000 1.000000
vt 0.000000 0.000000
vt 0.000000 0.000000
vt 0.000000 0.000000
vt 0.000000 0.000000
vt 0.000000 0.000000
vt 0.000000 0.000000
vt 0.000000 0.000000
vt 0.000000 0.000000
vt 0.000000 0.000000
vt 0.845908 -1.774848
vt 0.974653 -1.774848
vt 0.974666 2.024771
vt 0.000000 0.000000
vt 0.000000 0.000000
vt 0.000000 0.000000
vt 0.845919 2.024772
f 1/1/1 2/2/2 3/3/3
f 4/4/4 5/5/5 6/6/6
f 7/7/7 8/8/8 9/9/9
f 10/10/10 11/11/11 12/12/12
f 13/13/13 1/1/1 3/3/3
f 14/14/14 4/4/4 6/6/6
f 15/15/15 7/7/7 9/9/9
f 16/16/16 10/10/10 12/12/12
