v 0.513462 2.311954 -3.274374
v 0.513462 2.312753 -3.274374
v 0.526600 2.312753 -3.275668
v 0.500829 2.311954 -3.270542
v 0.500829 2.312753 -3.270542
v 0.526600 2.311954 -3.140978
v 0.526600 2.312753 -3.140978
v 0.513462 2.312753 -3.142272
v 0.582596 2.311954 -3.245738
v 0.582596 2.312753 -3.245738
v 0.588819 2.312753 -3.234095
v 0.592652 2.311954 -3.195184
v 0.592652 2.312753 -3.195184
v 0.588819 2.312753 -3.182551
v 0.460549 2.311954 -3.221461
v 0.460549 2.312753 -3.221461
v 0.464382 2.312753 -3.234095
v 0.588819 2.311954 -3.234095
v 0.592652 2.312753 -3.221461
v 0.564016 2.311954 -3.152327
v 0.564016 2.312753 -3.152327
v 0.552372 2.312753 -3.146104
v 0.539739 2.311954 -3.142272
v 0.539739 2.312753 -3.142272
v 0.588819 2.311954 -3.182551
v 0.582596 2.312753 -3.170908
v 0.539739 2.311954 -3.274374
v 0.539739 2.312753 -3.274374
v 0.552372 2.312753 -3.270542
v 0.460549 2.311954 -3.195184
v 0.460549 2.312753 -3.195184
v 0.459255 2.312753 -3.208323
v 0.582596 2.311954 -3.170908
v 0.574221 2.312753 -3.160703
v 0.564016 2.311954 -3.264318
v 0.564016 2.312753 -3.264318
v 0.574221 2.312753 -3.255943
v 0.470605 2.311954 -3.170908
v 0.470605 2.312753 -3.170908
v 0.464382 2.312753 -3.182551
v 0.574221 2.311954 -3.160703
v 0.464382 2.311954 -3.234095
v 0.470605 2.312753 -3.245738
v 0.459255 2.311954 -3.208323
v 0.489185 2.311954 -3.152328
v 0.489185 2.312753 -3.152328
v 0.478980 2.312753 -3.160703
v 0.470605 2.311954 -3.245738
v 0.478980 2.312753 -3.255943
v 0.513462 2.311954 -3.142272
v 0.500829 2.312753 -3.146104
v 0.574221 2.311954 -3.255943
v 0.500829 2.311954 -3.146104
v 0.489185 2.311954 -3.264318
v 0.489185 2.312753 -3.264318
v 0.526600 2.311954 -3.275668
v 0.526600 2.312753 -3.275668
v 0.552372 2.311954 -3.270542
v 0.552372 2.311954 -3.146104
v 0.464382 2.311954 -3.182551
v 0.592652 2.311954 -3.221461
v 0.593946 2.312753 -3.208323
v 0.478980 2.311954 -3.160703
v 0.593946 2.311954 -3.208323
v 0.478980 2.311954 -3.255943
v 0.513827 2.307956 -3.272541
v 0.526600 2.311954 -3.275668
v 0.501544 2.307956 -3.268815
v 0.526600 2.307956 -3.142847
v 0.581042 2.307956 -3.244699
v 0.587092 2.307956 -3.183266
v 0.590818 2.307956 -3.195549
v 0.462382 2.307956 -3.221097
v 0.587092 2.307956 -3.233380
v 0.562977 2.307956 -3.153882
v 0.539374 2.307956 -3.144105
v 0.581042 2.307956 -3.171946
v 0.551657 2.307956 -3.268815
v 0.539374 2.307956 -3.272541
v 0.461124 2.307956 -3.208323
v 0.462383 2.307956 -3.195549
v 0.572899 2.307956 -3.254622
v 0.562977 2.307956 -3.262764
v 0.472159 2.307956 -3.171947
v 0.572899 2.307956 -3.162024
v 0.466108 2.307956 -3.233380
v 0.480302 2.307956 -3.162024
v 0.490224 2.307956 -3.153882
v 0.480302 2.307956 -3.254622
v 0.472159 2.307956 -3.244699
v 0.513827 2.307956 -3.144105
v 0.501544 2.307956 -3.147831
v 0.490224 2.307956 -3.262764
v 0.526600 2.307956 -3.273799
v 0.551657 2.307956 -3.147831
v 0.466109 2.307956 -3.183266
v 0.592077 2.307956 -3.208323
v 0.590818 2.307956 -3.221097
v 0.526600 2.307956 -3.273799
vn -0.190500 -0.214100 -0.958000
vn -0.195000 0.000000 -0.980800
vn 0.000000 0.000000 -1.000000
vn -0.373800 -0.214100 -0.902400
vn -0.382700 0.000000 -0.923900
vn 0.000000 -0.214100 0.976800
vn 0.000000 0.000000 1.000000
vn -0.195100 0.000000 0.980800
vn 0.812200 -0.214100 -0.542700
vn 0.831400 0.000000 -0.555600
vn 0.923900 0.000000 -0.382600
vn 0.958000 -0.214100 0.190500
vn 0.980800 0.000000 0.195000
vn 0.923800 0.000000 0.382800
vn -0.958000 -0.214100 -0.190500
vn -0.980800 0.000000 -0.195000
vn -0.923800 0.000000 -0.382800
vn 0.902400 -0.214100 -0.373800
vn 0.980800 0.000000 -0.195100
vn 0.542700 -0.214100 0.812200
vn 0.555600 0.000000 0.831400
vn 0.382700 0.000000 0.923900
vn 0.190500 -0.214100 0.958000
vn 0.195000 0.000000 0.980800
vn 0.902400 -0.214100 0.373900
vn 0.831400 0.000000 0.555600
vn 0.190600 -0.214100 -0.958000
vn 0.195100 0.000000 -0.980800
vn 0.382600 0.000000 -0.923900
vn -0.958000 -0.214100 0.190600
vn -0.980700 0.000000 0.195100
vn -1.000000 0.000000 0.000000
vn 0.812200 -0.214100 0.542700
vn 0.707000 0.000000 0.707200
vn 0.542700 -0.214100 -0.812200
vn 0.555600 0.000000 -0.831400
vn 0.707100 0.000000 -0.707100
vn -0.812100 -0.214100 0.542700
vn -0.831400 0.000000 0.555700
vn -0.923900 0.000000 0.382600
vn 0.690600 -0.214100 0.690700
vn -0.902400 -0.214100 -0.373900
vn -0.831400 0.000000 -0.555600
vn -0.976800 -0.214100 0.000000
vn -0.542700 -0.214100 0.812200
vn -0.555600 0.000000 0.831400
vn -0.707100 0.000000 0.707100
vn -0.812200 -0.214100 -0.542600
vn -0.707000 0.000000 -0.707200
vn -0.190600 -0.214100 0.958000
vn -0.382600 0.000000 0.923900
vn 0.690700 -0.214100 -0.690700
vn -0.373800 -0.214100 0.902400
vn -0.542700 -0.214100 -0.812200
vn -0.555600 0.000000 -0.831400
vn 0.000000 -0.214100 -0.976800
vn 0.000000 0.000000 -1.000000
vn 0.373800 -0.214100 -0.902500
vn 0.373800 -0.214100 0.902400
vn -0.902400 -0.214100 0.373800
vn 0.958000 -0.214100 -0.190600
vn 1.000000 0.000000 0.000000
vn -0.690700 -0.214100 0.690700
vn 0.976800 -0.214100 0.000000
vn -0.690600 -0.214100 -0.690700
vn -0.176700 -0.423500 -0.888500
vn 0.000000 -0.214100 -0.976800
vn -0.346700 -0.423500 -0.836900
vn 0.000000 -0.423500 0.905900
vn 0.753200 -0.423500 -0.503300
vn 0.836900 -0.423500 0.346600
vn 0.888500 -0.423500 0.176700
vn -0.888500 -0.423500 -0.176700
vn 0.836900 -0.423500 -0.346700
vn 0.503300 -0.423500 0.753200
vn 0.176700 -0.423500 0.888500
vn 0.753200 -0.423500 0.503300
vn 0.346600 -0.423500 -0.836900
vn 0.176700 -0.423500 -0.888500
vn -0.905900 -0.423500 0.000000
vn -0.888500 -0.423500 0.176700
vn 0.640500 -0.423500 -0.640600
vn 0.503300 -0.423500 -0.753200
vn -0.753200 -0.423500 0.503300
vn 0.640500 -0.423500 0.640600
vn -0.836900 -0.423500 -0.346700
vn -0.640500 -0.423500 0.640600
vn -0.503300 -0.423500 0.753200
vn -0.640500 -0.423500 -0.640600
vn -0.753200 -0.423500 -0.503200
vn -0.176700 -0.423500 0.888500
vn -0.346700 -0.423500 0.836900
vn -0.503300 -0.423500 -0.753200
vn 0.000000 -0.423500 -0.905900
vn 0.346700 -0.423500 0.836900
vn -0.836900 -0.423500 0.346700
vn 0.905900 -0.423500 0.000000
vn 0.888500 -0.423500 -0.176700
vn 0.000000 -0.423500 -0.905900
vt 0.032426 0.614318
vt 0.032331 0.614537
vt 0.000000 0.614467
vt 0.064178 0.614526
vt 0.063999 0.614745
vt 0.397999 0.621550
vt 0.397999 0.621769
vt 0.377181 0.621699
vt 0.644648 0.615870
vt 0.644951 0.616089
vt 0.618865 0.616721
vt 0.547053 0.618611
vt 0.547307 0.618830
vt 0.525023 0.619515
vt 0.202263 0.617187
vt 0.201966 0.617406
vt 0.177134 0.616721
vt 0.618558 0.616502
vt 0.594033 0.617406
vt 0.460548 0.620935
vt 0.460666 0.621154
vt 0.439688 0.621491
vt 0.418778 0.621480
vt 0.418818 0.621699
vt 0.524799 0.619296
vt 0.503238 0.620146
vt 0.763573 0.614318
vt 0.763669 0.614537
vt 0.732000 0.614745
vt 0.248946 0.618611
vt 0.248692 0.618830
vt 0.225750 0.618118
vt 0.503047 0.619927
vt 0.481821 0.620700
vt 0.701264 0.614863
vt 0.701506 0.615082
vt 0.672468 0.615536
vt 0.292952 0.619927
vt 0.292761 0.620146
vt 0.270976 0.619515
vt 0.481666 0.620481
vt 0.177441 0.616502
vt 0.151048 0.616089
vt 0.226029 0.617899
vt 0.335451 0.620935
vt 0.335333 0.621154
vt 0.314178 0.620700
vt 0.151351 0.615870
vt 0.123531 0.615536
vt 0.377221 0.621480
vt 0.356311 0.621491
vt 0.672185 0.615317
vt 0.356391 0.621272
vt 0.094735 0.614863
vt 0.094493 0.615082
vt 0.795999 0.614248
vt 0.795999 0.614467
vt 0.731821 0.614526
vt 0.439608 0.621272
vt 0.271200 0.619296
vt 0.593736 0.617187
vt 0.570249 0.618118
vt 0.314333 0.620481
vt 0.569970 0.617899
vt 0.123814 0.615317
vt 0.033194 0.613321
vt 0.000000 0.614248
vt 0.065612 0.613523
vt 0.397999 0.620409
vt 0.642254 0.614831
vt 0.523061 0.618161
vt 0.545081 0.617496
vt 0.204590 0.616111
vt 0.616149 0.615445
vt 0.459636 0.619755
vt 0.418470 0.620285
vt 0.501569 0.618775
vt 0.730387 0.613523
vt 0.762805 0.613321
vt 0.228203 0.616803
vt 0.250918 0.617496
vt 0.669938 0.614293
vt 0.699331 0.613851
vt 0.294430 0.618775
vt 0.480465 0.619313
vt 0.179850 0.615445
vt 0.315535 0.619313
vt 0.336363 0.619755
vt 0.126061 0.614293
vt 0.153746 0.614831
vt 0.377529 0.620285
vt 0.357003 0.620083
vt 0.096668 0.613851
vt 0.795999 0.613253
vt 0.438996 0.620083
vt 0.272938 0.618161
vt 0.567796 0.616803
vt 0.591409 0.616111
vt 0.000000 0.613253
f 1/1/1 2/2/2 3/3/3
f 4/4/4 5/5/5 2/2/2
f 6/6/6 7/7/7 8/8/8
f 9/9/9 10/10/10 11/11/11
f 12/12/12 13/13/13 14/14/14
f 15/15/15 16/16/16 17/17/17
f 18/18/18 11/11/11 19/19/19
f 20/20/20 21/21/21 22/22/22
f 23/23/23 24/24/24 7/7/7
f 25/25/25 14/14/14 26/26/26
f 27/27/27 28/28/28 29/29/29
f 30/30/30 31/31/31 32/32/32
f 33/33/33 26/26/26 34/34/34
f 35/35/35 36/36/36 37/37/37
f 38/38/38 39/39/39 40/40/40
f 41/41/41 34/34/34 21/21/21
f 42/42/42 17/17/17 43/43/43
f 44/44/44 32/32/32 16/16/16
f 45/45/45 46/46/46 47/47/47
f 48/48/48 43/43/43 49/49/49
f 50/50/50 8/8/8 51/51/51
f 52/52/52 37/37/37 10/10/10
f 53/53/53 51/51/51 46/46/46
f 54/54/54 55/55/55 5/5/5
f 56/56/56 57/57/57 28/28/28
f 58/58/58 29/29/29 36/36/36
f 59/59/59 22/22/22 24/24/24
f 60/60/60 40/40/40 31/31/31
f 61/61/61 19/19/19 62/62/62
f 63/63/63 47/47/47 39/39/39
f 64/64/64 62/62/62 13/13/13
f 65/65/65 49/49/49 55/55/55
f 66/66/66 1/1/1 67/67/67
f 68/68/68 4/4/4 1/1/1
f 69/69/69 6/6/6 50/50/50
f 70/70/70 9/9/9 18/18/18
f 71/71/71 72/72/72 12/12/12
f 73/73/73 15/15/15 42/42/42
f 74/74/74 18/18/18 61/61/61
f 75/75/75 20/20/20 59/59/59
f 76/76/76 23/23/23 6/6/6
f 77/77/77 71/71/71 25/25/25
f 78/78/78 79/79/79 27/27/27
f 80/80/80 81/81/81 30/30/30
f 77/77/77 33/33/33 41/41/41
f 82/82/82 83/83/83 35/35/35
f 84/84/84 38/38/38 60/60/60
f 85/85/85 41/41/41 20/20/20
f 86/86/86 42/42/42 48/48/48
f 80/80/80 44/44/44 15/15/15
f 87/87/87 88/88/88 45/45/45
f 89/89/89 90/90/90 48/48/48
f 91/91/91 50/50/50 53/53/53
f 70/70/70 82/82/82 52/52/52
f 88/88/88 92/92/92 53/53/53
f 93/93/93 54/54/54 4/4/4
f 79/79/79 94/94/94 56/56/56
f 78/78/78 58/58/58 35/35/35
f 95/95/95 59/59/59 23/23/23
f 96/96/96 60/60/60 30/30/30
f 97/97/97 98/98/98 61/61/61
f 84/84/84 87/87/87 63/63/63
f 72/72/72 97/97/97 64/64/64
f 93/93/93 89/89/89 65/65/65
f 67/67/67 1/1/1 3/3/3
f 1/1/1 4/4/4 2/2/2
f 50/50/50 6/6/6 8/8/8
f 18/18/18 9/9/9 11/11/11
f 25/25/25 12/12/12 14/14/14
f 42/42/42 15/15/15 17/17/17
f 61/61/61 18/18/18 19/19/19
f 59/59/59 20/20/20 22/22/22
f 6/6/6 23/23/23 7/7/7
f 33/33/33 25/25/25 26/26/26
f 58/58/58 27/27/27 29/29/29
f 44/44/44 30/30/30 32/32/32
f 41/41/41 33/33/33 34/34/34
f 52/52/52 35/35/35 37/37/37
f 60/60/60 38/38/38 40/40/40
f 20/20/20 41/41/41 21/21/21
f 48/48/48 42/42/42 43/43/43
f 15/15/15 44/44/44 16/16/16
f 63/63/63 45/45/45 47/47/47
f 65/65/65 48/48/48 49/49/49
f 53/53/53 50/50/50 51/51/51
f 9/9/9 52/52/52 10/10/10
f 45/45/45 53/53/53 46/46/46
f 4/4/4 54/54/54 5/5/5
f 27/27/27 56/56/56 28/28/28
f 35/35/35 58/58/58 36/36/36
f 23/23/23 59/59/59 24/24/24
f 30/30/30 60/60/60 31/31/31
f 64/64/64 61/61/61 62/62/62
f 38/38/38 63/63/63 39/39/39
f 12/12/12 64/64/64 13/13/13
f 54/54/54 65/65/65 55/55/55
f 99/99/99 66/66/66 67/67/67
f 66/66/66 68/68/68 1/1/1
f 91/91/91 69/69/69 50/50/50
f 74/74/74 70/70/70 18/18/18
f 25/25/25 71/71/71 12/12/12
f 86/86/86 73/73/73 42/42/42
f 98/98/98 74/74/74 61/61/61
f 95/95/95 75/75/75 59/59/59
f 69/69/69 76/76/76 6/6/6
f 33/33/33 77/77/77 25/25/25
f 58/58/58 78/78/78 27/27/27
f 44/44/44 80/80/80 30/30/30
f 85/85/85 77/77/77 41/41/41
f 52/52/52 82/82/82 35/35/35
f 96/96/96 84/84/84 60/60/60
f 75/75/75 85/85/85 20/20/20
f 90/90/90 86/86/86 48/48/48
f 73/73/73 80/80/80 15/15/15
f 63/63/63 87/87/87 45/45/45
f 65/65/65 89/89/89 48/48/48
f 92/92/92 91/91/91 53/53/53
f 9/9/9 70/70/70 52/52/52
f 45/45/45 88/88/88 53/53/53
f 68/68/68 93/93/93 4/4/4
f 27/27/27 79/79/79 56/56/56
f 83/83/83 78/78/78 35/35/35
f 76/76/76 95/95/95 23/23/23
f 81/81/81 96/96/96 30/30/30
f 64/64/64 97/97/97 61/61/61
f 38/38/38 84/84/84 63/63/63
f 12/12/12 72/72/72 64/64/64
f 54/54/54 93/93/93 65/65/65
