v -0.727182 4.188066 -2.549425
v -0.738762 4.196855 -2.551790
v -0.740294 4.186249 -2.542969
v -0.736299 4.181680 -2.558688
v -0.743207 4.184208 -2.545928
v -0.741674 4.194815 -2.554749
v -0.741674 4.194815 -2.554749
v -0.743207 4.184208 -2.545928
v -0.740294 4.186249 -2.542969
v -0.727182 4.188066 -2.549425
v -0.740294 4.186249 -2.542969
v -0.731816 4.175287 -2.543756
v -0.736299 4.181680 -2.558688
v -0.734729 4.173246 -2.546715
v -0.743207 4.184208 -2.545928
v -0.743207 4.184208 -2.545928
v -0.734729 4.173246 -2.546715
v -0.731816 4.175287 -2.543756
v -0.727182 4.188066 -2.549425
v -0.731816 4.175287 -2.543756
v -0.721806 4.174932 -2.553364
v -0.736299 4.181680 -2.558688
v -0.724719 4.172891 -2.556324
v -0.734729 4.173246 -2.546715
v -0.731816 4.175287 -2.543756
v -0.734729 4.173246 -2.546715
v -0.724719 4.172891 -2.556324
v -0.727182 4.188066 -2.549425
v -0.721806 4.174932 -2.553364
v -0.720273 4.185538 -2.562185
v -0.736299 4.181680 -2.558688
v -0.723186 4.183497 -2.565145
v -0.724719 4.172891 -2.556324
v -0.721806 4.174932 -2.553364
v -0.724719 4.172891 -2.556324
v -0.723186 4.183497 -2.565145
v -0.727182 4.188066 -2.549425
v -0.720273 4.185538 -2.562185
v -0.728751 4.196499 -2.561398
v -0.736299 4.181680 -2.558688
v -0.731664 4.194459 -2.564357
v -0.723186 4.183497 -2.565145
v -0.723186 4.183497 -2.565145
v -0.731664 4.194459 -2.564357
v -0.728751 4.196499 -2.561398
v -0.727182 4.188066 -2.549425
v -0.728751 4.196499 -2.561398
v -0.738762 4.196855 -2.551790
v -0.736299 4.181680 -2.558688
v -0.741674 4.194815 -2.554749
v -0.731664 4.194459 -2.564357
v -0.731664 4.194459 -2.564357
v -0.741674 4.194815 -2.554749
v -0.738762 4.196855 -2.551790
v -0.738762 4.196855 -2.551790
v -0.741674 4.194815 -2.554749
v -0.740294 4.186249 -2.542969
v -0.740294 4.186249 -2.542969
v -0.721806 4.174932 -2.553364
v -0.731816 4.175287 -2.543756
v -0.724719 4.172891 -2.556324
v -0.720273 4.185538 -2.562185
v -0.721806 4.174932 -2.553364
v -0.723186 4.183497 -2.565145
v -0.720273 4.185538 -2.562185
v -0.728751 4.196499 -2.561398
v -0.731664 4.194459 -2.564357
v -0.738762 4.196855 -2.551790
vn 0.290900 0.586600 0.755800
vn 0.290900 0.586600 0.755800
vn 0.290900 0.586600 0.755800
vn -0.874200 -0.229500 -0.427800
vn -0.874200 -0.229500 -0.427800
vn -0.874200 -0.229500 -0.427800
vn -0.769100 0.470700 0.432400
vn -0.769100 0.470700 0.432400
vn -0.769100 0.470700 0.432400
vn 0.400400 0.246300 0.882600
vn 0.400400 0.246300 0.882600
vn 0.400400 0.246300 0.882600
vn -0.764700 -0.569700 -0.301100
vn -0.764700 -0.569700 -0.301100
vn -0.764700 -0.569700 -0.301100
vn -0.480100 -0.426400 0.766600
vn -0.480100 -0.426400 0.766600
vn -0.480100 -0.426400 0.766600
vn 0.692100 0.067800 0.718600
vn 0.692100 0.067800 0.718600
vn 0.692100 0.067800 0.718600
vn -0.473000 -0.748300 -0.465100
vn -0.473000 -0.748300 -0.465100
vn -0.473000 -0.748300 -0.465100
vn 0.288900 -0.897100 0.334200
vn 0.288900 -0.897100 0.334200
vn 0.288900 -0.897100 0.334200
vn 0.874200 0.229500 0.427800
vn 0.874200 0.229500 0.427800
vn 0.874200 0.229500 0.427800
vn -0.290900 -0.586600 -0.755800
vn -0.290900 -0.586600 -0.755800
vn -0.290900 -0.586600 -0.755800
vn 0.769100 -0.470700 -0.432400
vn 0.769100 -0.470700 -0.432400
vn 0.769100 -0.470700 -0.432400
vn 0.764700 0.569800 0.301100
vn 0.764700 0.569800 0.301100
vn 0.764700 0.569800 0.301100
vn -0.400400 -0.246300 -0.882600
vn -0.400400 -0.246300 -0.882600
vn -0.400400 -0.246300 -0.882600
vn 0.480100 0.426400 -0.766600
vn 0.480100 0.426400 -0.766600
vn 0.480100 0.426400 -0.766600
vn 0.473000 0.748300 0.465100
vn 0.473000 0.748300 0.465100
vn 0.473000 0.748300 0.465100
vn -0.692100 -0.067800 -0.718600
vn -0.692100 -0.067800 -0.718600
vn -0.692100 -0.067800 -0.718600
vn -0.288900 0.897200 -0.334100
vn -0.288900 0.897200 -0.334100
vn -0.288900 0.897200 -0.334100
vn -0.769000 0.470700 0.432400
vn -0.769000 0.470700 0.432400
vn -0.769000 0.470700 0.432400
vn -0.480100 -0.426400 0.766600
vn 0.288900 -0.897200 0.334100
vn 0.288900 -0.897200 0.334100
vn 0.288900 -0.897200 0.334100
vn 0.769000 -0.470700 -0.432400
vn 0.769000 -0.470700 -0.432400
vn 0.769000 -0.470700 -0.432400
vn 0.480100 0.426400 -0.766600
vn -0.288800 0.897200 -0.334200
vn -0.288800 0.897200 -0.334200
vn -0.288800 0.897200 -0.334200
vt 0.000000 0.000000
vt 0.000000 0.000000
vt 0.000000 0.000000
vt 0.000000 0.000000
vt 0.000000 0.000000
vt 0.000000 0.000000
vt 0.000000 0.000000
vt 0.000000 0.000000
vt 0.000000 0.000000
vt 0.000000 0.000000
vt 0.000000 0.000000
vt 0.000000 0.000000
vt 0.000000 0.000000
vt 0.000000 0.000000
vt 0.000000 0.000000
vt 0.000000 0.000000
vt 0.000000 0.000000
vt 0.000000 0.000000
vt 0.000000 0.000000
vt 0.000000 0.000000
vt 0.000000 0.000000
vt 0.000000 0.000000
vt 0.000000 0.000000
vt 0.000000 0.000000
vt 0.000000 0.000000
vt 0.000000 0.000000
vt 0.000000 0.000000
vt 0.000000 0.000000
vt 0.000000 0.000000
vt 0.000000 0.000000
vt 0.000000 0.000000
vt 0.000000 0.000000
vt 0.000000 0.000000
vt 0.000000 0.000000
vt 0.000000 0.000000
vt 0.000000 0.000000
vt 0.000000 0.000000
vt 0.000000 0.000000
vt 0.000000 0.000000
vt 0.000000 0.000000
vt 0.000000 0.000000
vt 0.000000 0.000000
vt 0.000000 0.000000
vt 0.000000 0.000000
vt 0.000000 0.000000
vt 0.000000 0.000000
vt 0.000000 0.000000
vt 0.000000 0.000000
vt 0.000000 0.000000
vt 0.000000 0.000000
vt 0.000000 0.000000
vt 0.000000 0.000000
vt 0.000000 0.000000
vt 0.000000 0.000000
vt 0.000000 0.000000
vt 0.000000 0.000000
vt 0.000000 0.000000
vt 0.000000 0.000000
vt 0.000000 0.000000
vt 0.000000 0.000000
vt 0.000000 0.000000
vt 0.000000 0.000000
vt 0.000000 0.000000
vt 0.000000 0.000000
vt 0.000000 0.000000
vt 0.000000 0.000000
vt 0.000000 0.000000
vt 0.000000 0.000000
f 1/1/1 2/2/2 3/3/3
f 4/4/4 5/5/5 6/6/6
f 7/7/7 8/8/8 9/9/9
f 10/10/10 11/11/11 12/12/12
f 13/13/13 14/14/14 15/15/15
f 16/16/16 17/17/17 18/18/18
f 19/19/19 20/20/20 21/21/21
f 22/22/22 23/23/23 24/24/24
f 25/25/25 26/26/26 27/27/27
f 28/28/28 29/29/29 30/30/30
f 31/31/31 32/32/32 33/33/33
f 34/34/34 35/35/35 36/36/36
f 37/37/37 38/38/38 39/39/39
f 40/40/40 41/41/41 42/42/42
f 43/43/43 44/44/44 45/45/45
f 46/46/46 47/47/47 48/48/48
f 49/49/49 50/50/50 51/51/51
f 52/52/52 53/53/53 54/54/54
f 55/55/55 56/56/56 57/57/57
f 58/58/58 16/16/16 18/18/18
f 59/59/59 60/60/60 61/61/61
f 62/62/62 63/63/63 64/64/64
f 65/65/65 43/43/43 45/45/45
f 66/66/66 67/67/67 68/68/68
