v -0.999796 4.188066 -1.758655
v -0.994358 4.196855 -1.748161
v -0.986534 4.186249 -1.752512
v -1.001272 4.181680 -1.745742
v -0.987005 4.184209 -1.748387
v -0.994830 4.194815 -1.744036
v -0.994830 4.194815 -1.744036
v -0.987005 4.184209 -1.748387
v -0.986534 4.186249 -1.752512
v -0.999796 4.188066 -1.758655
v -0.986534 4.186249 -1.752512
v -0.992474 4.175287 -1.758612
v -1.001272 4.181680 -1.745742
v -0.992945 4.173247 -1.754487
v -0.987005 4.184209 -1.748387
v -0.986534 4.186249 -1.752512
v -0.987005 4.184209 -1.748387
v -0.992945 4.173247 -1.754487
v -0.999796 4.188066 -1.758655
v -0.992474 4.175287 -1.758612
v -1.006238 4.174932 -1.760361
v -1.001272 4.181680 -1.745742
v -1.006710 4.172892 -1.756235
v -0.992945 4.173247 -1.754487
v -0.992945 4.173247 -1.754487
v -1.006710 4.172892 -1.756235
v -1.006238 4.174932 -1.760361
v -0.999796 4.188066 -1.758655
v -1.006238 4.174932 -1.760361
v -1.014063 4.185538 -1.756010
v -1.001272 4.181680 -1.745742
v -1.014535 4.183498 -1.751884
v -1.006710 4.172892 -1.756235
v -1.006238 4.174932 -1.760361
v -1.006710 4.172892 -1.756235
v -1.014535 4.183498 -1.751884
v -0.999796 4.188066 -1.758655
v -1.014063 4.185538 -1.756010
v -1.008123 4.196500 -1.749910
v -1.001272 4.181680 -1.745742
v -1.008595 4.194459 -1.745785
v -1.014535 4.183498 -1.751884
v -1.014535 4.183498 -1.751884
v -1.008595 4.194459 -1.745785
v -1.008123 4.196500 -1.749910
v -0.999796 4.188066 -1.758655
v -1.008123 4.196500 -1.749910
v -0.994358 4.196855 -1.748161
v -1.001272 4.181680 -1.745742
v -0.994830 4.194815 -1.744036
v -1.008595 4.194459 -1.745785
v -1.008123 4.196500 -1.749910
v -1.008595 4.194459 -1.745785
v -0.994830 4.194815 -1.744036
v -0.994358 4.196855 -1.748161
v -0.994830 4.194815 -1.744036
v -0.986534 4.186249 -1.752512
v -0.992474 4.175287 -1.758612
v -0.986534 4.186249 -1.752512
v -0.992945 4.173247 -1.754487
v -0.992474 4.175287 -1.758612
v -0.992945 4.173247 -1.754487
v -1.006238 4.174932 -1.760361
v -1.014063 4.185538 -1.756010
v -1.006238 4.174932 -1.760361
v -1.014535 4.183498 -1.751884
v -1.014063 4.185538 -1.756010
v -0.994358 4.196855 -1.748161
v -1.008123 4.196500 -1.749910
v -0.994830 4.194815 -1.744036
vn 0.405200 0.586600 -0.701300
vn 0.405200 0.586600 -0.701300
vn 0.405200 0.586600 -0.701300
vn 0.216600 -0.229500 0.948900
vn 0.216600 -0.229500 0.948900
vn 0.216600 -0.229500 0.948900
vn 0.819700 0.470800 0.326300
vn 0.819700 0.470800 0.326300
vn 0.819700 0.470800 0.326300
vn 0.434900 0.246300 -0.866100
vn 0.434900 0.246300 -0.866100
vn 0.434900 0.246300 -0.866100
vn 0.246300 -0.569800 0.784000
vn 0.246300 -0.569800 0.784000
vn 0.246300 -0.569800 0.784000
vn 0.898100 -0.426400 -0.108100
vn 0.898100 -0.426400 -0.108100
vn 0.898100 -0.426400 -0.108100
vn 0.124000 0.067800 -0.990000
vn 0.124000 0.067800 -0.990000
vn 0.124000 0.067800 -0.990000
vn -0.064600 -0.748300 0.660200
vn -0.064600 -0.748300 0.660200
vn -0.064600 -0.748300 0.660200
vn 0.078400 -0.897100 -0.434800
vn 0.078400 -0.897100 -0.434800
vn 0.078400 -0.897100 -0.434800
vn -0.216600 0.229500 -0.948900
vn -0.216600 0.229500 -0.948900
vn -0.216600 0.229500 -0.948900
vn -0.405200 -0.586600 0.701200
vn -0.405200 -0.586600 0.701200
vn -0.405200 -0.586600 0.701200
vn -0.819600 -0.470800 -0.326400
vn -0.819600 -0.470800 -0.326400
vn -0.819600 -0.470800 -0.326400
vn -0.246300 0.569800 -0.784000
vn -0.246300 0.569800 -0.784000
vn -0.246300 0.569800 -0.784000
vn -0.434900 -0.246300 0.866100
vn -0.434900 -0.246300 0.866100
vn -0.434900 -0.246300 0.866100
vn -0.898000 0.426400 0.108200
vn -0.898000 0.426400 0.108200
vn -0.898000 0.426400 0.108200
vn 0.064600 0.748300 -0.660200
vn 0.064600 0.748300 -0.660200
vn 0.064600 0.748300 -0.660200
vn -0.124000 -0.067800 0.990000
vn -0.124000 -0.067800 0.990000
vn -0.124000 -0.067800 0.990000
vn -0.078400 0.897100 0.434800
vn -0.078400 0.897100 0.434800
vn -0.078400 0.897100 0.434800
vn 0.819600 0.470800 0.326500
vn 0.819600 0.470800 0.326500
vn 0.819600 0.470800 0.326500
vn 0.898000 -0.426400 -0.108300
vn 0.898000 -0.426400 -0.108300
vn 0.898000 -0.426400 -0.108300
vn 0.078400 -0.897100 -0.434700
vn 0.078400 -0.897100 -0.434700
vn 0.078400 -0.897100 -0.434700
vn -0.819600 -0.470700 -0.326600
vn -0.819600 -0.470700 -0.326600
vn -0.819600 -0.470700 -0.326600
vn -0.898000 0.426400 0.108200
vn -0.078400 0.897300 0.434500
vn -0.078400 0.897300 0.434500
vn -0.078400 0.897300 0.434500
vt 0.000000 0.000000
vt 0.000000 0.000000
vt 0.000000 0.000000
vt 0.000000 0.000000
vt 0.000000 0.000000
vt 0.000000 0.000000
vt 0.000000 0.000000
vt 0.000000 0.000000
vt 0.000000 0.000000
vt 0.000000 0.000000
vt 0.000000 0.000000
vt 0.000000 0.000000
vt 0.000000 0.000000
vt 0.000000 0.000000
vt 0.000000 0.000000
vt 0.000000 0.000000
vt 0.000000 0.000000
vt 0.000000 0.000000
vt 0.000000 0.000000
vt 0.000000 0.000000
vt 0.000000 0.000000
vt 0.000000 0.000000
vt 0.000000 0.000000
vt 0.000000 0.000000
vt 0.000000 0.000000
vt 0.000000 0.000000
vt 0.000000 0.000000
vt 0.000000 0.000000
vt 0.000000 0.000000
vt 0.000000 0.000000
vt 0.000000 0.000000
vt 0.000000 0.000000
vt 0.000000 0.000000
vt 0.000000 0.000000
vt 0.000000 0.000000
vt 0.000000 0.000000
vt 0.000000 0.000000
vt 0.000000 0.000000
vt 0.000000 0.000000
vt 0.000000 0.000000
vt 0.000000 0.000000
vt 0.000000 0.000000
vt 0.000000 0.000000
vt 0.000000 0.000000
vt 0.000000 0.000000
vt 0.000000 0.000000
vt 0.000000 0.000000
vt 0.000000 0.000000
vt 0.000000 0.000000
vt 0.000000 0.000000
vt 0.000000 0.000000
vt 0.000000 0.000000
vt 0.000000 0.000000
vt 0.000000 0.000000
vt 0.000000 0.000000
vt 0.000000 0.000000
vt 0.000000 0.000000
vt 0.000000 0.000000
vt 0.000000 0.000000
vt 0.000000 0.000000
vt 0.000000 0.000000
vt 0.000000 0.000000
vt 0.000000 0.000000
vt 0.000000 0.000000
vt 0.000000 0.000000
vt 0.000000 0.000000
vt 0.000000 0.000000
vt 0.000000 0.000000
vt 0.000000 0.000000
vt 0.000000 0.000000
f 1/1/1 2/2/2 3/3/3
f 4/4/4 5/5/5 6/6/6
f 7/7/7 8/8/8 9/9/9
f 10/10/10 11/11/11 12/12/12
f 13/13/13 14/14/14 15/15/15
f 16/16/16 17/17/17 18/18/18
f 19/19/19 20/20/20 21/21/21
f 22/22/22 23/23/23 24/24/24
f 25/25/25 26/26/26 27/27/27
f 28/28/28 29/29/29 30/30/30
f 31/31/31 32/32/32 33/33/33
f 34/34/34 35/35/35 36/36/36
f 37/37/37 38/38/38 39/39/39
f 40/40/40 41/41/41 42/42/42
f 43/43/43 44/44/44 45/45/45
f 46/46/46 47/47/47 48/48/48
f 49/49/49 50/50/50 51/51/51
f 52/52/52 53/53/53 54/54/54
f 55/55/55 56/56/56 57/57/57
f 58/58/58 59/59/59 60/60/60
f 61/61/61 62/62/62 63/63/63
f 64/64/64 65/65/65 66/66/66
f 67/67/67 43/43/43 45/45/45
f 68/68/68 69/69/69 70/70/70
