v -0.042824 4.439022 -2.235531
v -0.053433 4.439022 -2.209918
v -0.079046 4.439022 -2.220527
v -0.047074 4.439022 -2.241890
v -0.044636 4.439022 -2.238920
v -0.053433 4.439022 -2.246140
v -0.050044 4.439022 -2.244328
v -0.060935 4.439022 -2.247632
v -0.057111 4.439022 -2.247256
v -0.068437 4.439022 -2.246140
v -0.064759 4.439022 -2.247256
v -0.074797 4.439022 -2.241890
v -0.071826 4.439022 -2.244328
v -0.079046 4.439022 -2.235531
v -0.077234 4.439022 -2.238920
v -0.080162 4.439022 -2.231853
v -0.080162 4.439022 -2.224205
v -0.080538 4.439022 -2.228029
v -0.068437 4.439022 -2.209918
v -0.077234 4.439022 -2.217138
v -0.071826 4.439022 -2.211730
v -0.074797 4.439022 -2.214167
v -0.064759 4.439022 -2.208802
v -0.057111 4.439022 -2.208802
v -0.060935 4.439022 -2.208426
v -0.047074 4.439022 -2.214168
v -0.050044 4.439022 -2.211730
v -0.042824 4.439022 -2.220527
v -0.044636 4.439022 -2.217138
v -0.041332 4.439022 -2.228029
v -0.041709 4.439022 -2.224205
v -0.041709 4.439022 -2.231853
vn 0.000000 -1.000000 0.000000
vn 0.000000 -1.000000 0.000000
vn 0.000000 -1.000000 0.000000
vn 0.000000 -1.000000 0.000000
vn 0.000000 -1.000000 -0.000600
vn 0.000000 -1.000000 0.000100
vn 0.000000 -1.000000 0.000000
vn 0.000000 -1.000000 0.000000
vn 0.000000 -1.000000 0.000000
vn 0.000000 -1.000000 0.000000
vn 0.000000 -1.000000 0.001300
vn 0.000000 -1.000000 0.000000
vn 0.000000 -1.000000 0.000000
vn 0.000000 -1.000000 0.000000
vn 0.000000 -1.000000 -0.000600
vn 0.000000 -1.000000 0.000000
vn 0.000000 -1.000000 -0.000200
vn 0.000000 -1.000000 0.000100
vn 0.000000 -1.000000 0.000000
vn 0.000000 -1.000000 0.000100
vn 0.000000 -1.000000 0.000000
vn 0.000000 -1.000000 0.000000
vn 0.000000 -1.000000 0.000400
vn 0.000000 -1.000000 -0.001300
vn 0.000000 -1.000000 0.000000
vn 0.000000 -1.000000 0.000000
vn 0.000000 -1.000000 0.000000
vn 0.000000 -1.000000 0.000000
vn 0.000000 -1.000000 0.000600
vn 0.000000 -1.000000 0.000000
vn 0.000000 -1.000000 0.000000
vn 0.000000 -1.000000 0.000200
vt 0.000000 0.000000
vt 0.000000 0.000000
vt 0.000000 0.000000
vt 0.000000 0.000000
vt 0.000000 0.000000
vt 0.000000 0.000000
vt 0.000000 0.000000
vt 0.000000 0.000000
vt 0.000000 0.000000
vt 0.000000 0.000000
vt 0.000000 0.000000
vt 0.000000 0.000000
vt 0.000000 0.000000
vt 0.000000 0.000000
vt 0.000000 0.000000
vt 0.000000 0.000000
vt 0.000000 0.000000
vt 0.000000 0.000000
vt 0.000000 0.000000
vt 0.000000 0.000000
vt 0.000000 0.000000
vt 0.000000 0.000000
vt 0.000000 0.000000
vt 0.000000 0.000000
vt 0.000000 0.000000
vt 0.000000 0.000000
vt 0.000000 0.000000
vt 0.000000 0.000000
vt 0.000000 0.000000
vt 0.000000 0.000000
vt 0.000000 0.000000
vt 0.000000 0.000000
f 1/1/1 2/2/2 3/3/3
f 4/4/4 5/5/5 1/1/1
f 6/6/6 7/7/7 4/4/4
f 8/8/8 9/9/9 6/6/6
f 10/10/10 11/11/11 8/8/8
f 12/12/12 13/13/13 10/10/10
f 14/14/14 15/15/15 12/12/12
f 3/3/3 16/16/16 14/14/14
f 3/3/3 17/17/17 18/18/18
f 19/19/19 20/20/20 3/3/3
f 19/19/19 21/21/21 22/22/22
f 2/2/2 23/23/23 19/19/19
f 2/2/2 24/24/24 25/25/25
f 26/26/26 27/27/27 2/2/2
f 28/28/28 29/29/29 26/26/26
f 30/30/30 31/31/31 28/28/28
f 1/1/1 32/32/32 30/30/30
f 6/6/6 4/4/4 1/1/1
f 1/1/1 8/8/8 6/6/6
f 3/3/3 12/12/12 10/10/10
f 3/3/3 18/18/18 16/16/16
f 19/19/19 22/22/22 20/20/20
f 2/2/2 25/25/25 23/23/23
f 1/1/1 26/26/26 2/2/2
f 1/1/1 30/30/30 28/28/28
f 10/10/10 8/8/8 1/1/1
f 3/3/3 14/14/14 12/12/12
f 2/2/2 19/19/19 3/3/3
f 1/1/1 28/28/28 26/26/26
f 3/3/3 10/10/10 1/1/1
