v 0.451616 0.025438 -1.529480
v 0.451616 0.737816 -1.529480
v 0.451616 0.732655 -1.535931
v 0.451616 0.025438 -1.510785
v 0.451616 0.747554 -1.510785
v 0.451616 0.025438 -1.503402
v 0.451616 0.750413 -1.503402
v 0.451616 0.025438 -1.491540
v 0.451616 0.753505 -1.491540
v 0.451616 0.025438 -1.475224
v 0.451616 0.756125 -1.475224
v 0.451616 0.025438 -1.390821
v 0.451616 0.025438 -1.384369
v 0.451616 0.732655 -1.384369
v 0.451616 0.025438 -1.409515
v 0.451616 0.737816 -1.390821
v 0.451616 0.025438 -1.416899
v 0.451616 0.747554 -1.409515
v 0.451616 0.025438 -1.428761
v 0.451616 0.750413 -1.416899
v 0.451616 0.025438 -1.445076
v 0.451616 0.753505 -1.428761
v 0.451616 0.025438 -1.460150
v 0.451616 0.756125 -1.445076
v 0.451616 0.025438 -1.535931
v 0.451616 0.756942 -1.460150
vn -1.000000 0.000000 0.000000
vn -1.000000 0.000000 0.000000
vn -1.000000 0.000000 0.000000
vn -1.000000 0.000000 0.000000
vn -1.000000 0.000000 0.000000
vn -1.000000 0.000000 0.000000
vn -1.000000 0.000000 0.000000
vn -1.000000 0.000000 0.000000
vn -1.000000 0.000000 0.000000
vn -1.000000 0.000000 0.000000
vn -1.000000 0.000000 0.000000
vn -1.000000 0.000000 0.000000
vn -1.000000 0.000000 0.000000
vn -1.000000 0.000000 0.000000
vn -1.000000 0.000000 0.000000
vn -1.000000 0.000000 0.000000
vn -1.000000 0.000000 0.000000
vn -1.000000 0.000000 0.000000
vn -1.000000 0.000000 0.000000
vn -1.000000 0.000000 0.000000
vn -1.000000 0.000000 0.000000
vn -1.000000 0.000000 0.000000
vn -1.000000 0.000000 0.000000
vn -1.000000 0.000000 0.000000
vn -1.000000 0.000000 0.000000
vn -1.000000 0.000000 0.000000
vt 0.281837 0.000598
vt 0.115215 0.352982
vt 0.109633 0.349966
vt 0.290874 0.002331
vt 0.134723 0.359279
vt 0.293922 0.003015
vt 0.143588 0.361303
vt 0.298312 0.004115
vt 0.159164 0.363852
vt 0.303491 0.005628
vt 0.182149 0.366592
vt 0.320462 0.013452
vt 0.321331 0.014050
vt 0.280404 0.364015
vt 0.317688 0.011719
vt 0.276023 0.365836
vt 0.316473 0.011034
vt 0.261510 0.368667
vt 0.314358 0.009935
vt 0.254801 0.369322
vt 0.311068 0.008422
vt 0.242826 0.369671
vt 0.307557 0.007025
vt 0.223676 0.369387
vt 0.278202 0.000000
vt 0.203562 0.368372
f 1/1/1 2/2/2 3/3/3
f 4/4/4 5/5/5 2/2/2
f 6/6/6 7/7/7 5/5/5
f 8/8/8 9/9/9 7/7/7
f 10/10/10 11/11/11 9/9/9
f 12/12/12 13/13/13 14/14/14
f 15/15/15 12/12/12 16/16/16
f 17/17/17 15/15/15 18/18/18
f 19/19/19 17/17/17 20/20/20
f 21/21/21 19/19/19 22/22/22
f 23/23/23 21/21/21 24/24/24
f 11/11/11 10/10/10 23/23/23
f 25/25/25 1/1/1 3/3/3
f 1/1/1 4/4/4 2/2/2
f 4/4/4 6/6/6 5/5/5
f 6/6/6 8/8/8 7/7/7
f 8/8/8 10/10/10 9/9/9
f 16/16/16 12/12/12 14/14/14
f 18/18/18 15/15/15 16/16/16
f 20/20/20 17/17/17 18/18/18
f 22/22/22 19/19/19 20/20/20
f 24/24/24 21/21/21 22/22/22
f 26/26/26 23/23/23 24/24/24
f 26/26/26 11/11/11 23/23/23
