v 0.481553 2.626556 -3.217283
v 0.477922 2.631262 -3.218006
v 0.480746 2.631262 -3.227316
v 0.552118 2.626556 -3.170134
v 0.559078 2.626556 -3.175846
v 0.561696 2.631262 -3.173228
v 0.526600 2.626556 -3.254252
v 0.526600 2.631262 -3.257955
v 0.536283 2.631262 -3.257001
v 0.571647 2.626556 -3.217283
v 0.575279 2.631262 -3.218006
v 0.576232 2.631262 -3.208323
v 0.571647 2.626556 -3.199363
v 0.572530 2.626556 -3.208323
v 0.544177 2.626556 -3.165890
v 0.554174 2.631262 -3.167055
v 0.488412 2.626556 -3.182806
v 0.485333 2.631262 -3.180749
v 0.480747 2.631262 -3.189330
v 0.564789 2.626556 -3.233840
v 0.559078 2.626556 -3.240800
v 0.561696 2.631262 -3.243418
v 0.564789 2.626556 -3.182806
v 0.567868 2.631262 -3.180749
v 0.569034 2.626556 -3.225899
v 0.572454 2.631262 -3.227316
v 0.488411 2.626556 -3.233840
v 0.485333 2.631262 -3.235897
v 0.491505 2.631262 -3.243418
v 0.480671 2.626556 -3.208323
v 0.481554 2.626556 -3.199363
v 0.477922 2.631262 -3.198640
v 0.494123 2.626556 -3.240800
v 0.499026 2.631262 -3.249590
v 0.509024 2.626556 -3.250756
v 0.501083 2.626556 -3.246512
v 0.544177 2.626556 -3.250756
v 0.545594 2.631262 -3.254177
v 0.554175 2.631262 -3.249590
v 0.569034 2.626556 -3.190747
v 0.572454 2.631262 -3.189330
v 0.509024 2.626556 -3.165890
v 0.507607 2.631262 -3.162469
v 0.499026 2.631262 -3.167055
v 0.552118 2.626556 -3.246512
v 0.501083 2.626556 -3.170134
v 0.491505 2.631262 -3.173228
v 0.545594 2.631262 -3.162469
v 0.536283 2.631262 -3.159645
v 0.575279 2.631262 -3.198640
v 0.494123 2.626556 -3.175846
v 0.484167 2.626556 -3.225899
v 0.535561 2.626556 -3.253370
v 0.476968 2.631262 -3.208323
v 0.567868 2.631262 -3.235897
v 0.507607 2.631262 -3.254177
v 0.516918 2.631262 -3.257001
v 0.535561 2.626556 -3.163276
v 0.526600 2.631262 -3.158691
v 0.526600 2.626556 -3.162394
v 0.516918 2.631262 -3.159645
v 0.484167 2.626556 -3.190747
v 0.517640 2.626556 -3.163276
v 0.516918 2.631262 -3.159645
v 0.526600 2.626556 -3.254252
v 0.517640 2.626556 -3.253370
v 0.489275 2.622581 -3.215748
v 0.547744 2.622581 -3.176680
v 0.553511 2.622581 -3.181413
v 0.534025 2.622581 -3.245649
v 0.526600 2.622581 -3.246380
v 0.564657 2.622581 -3.208323
v 0.563926 2.622581 -3.215748
v 0.563926 2.622581 -3.200898
v 0.491440 2.622581 -3.193759
v 0.494957 2.622581 -3.187180
v 0.553511 2.622581 -3.235233
v 0.558244 2.622581 -3.187180
v 0.561761 2.622581 -3.222887
v 0.499690 2.622581 -3.235233
v 0.494957 2.622581 -3.229466
v 0.489275 2.622581 -3.200898
v 0.512037 2.622581 -3.243483
v 0.505457 2.622581 -3.239966
v 0.541164 2.622581 -3.243483
v 0.561761 2.622581 -3.193759
v 0.505457 2.622581 -3.176680
v 0.512037 2.622581 -3.173163
v 0.547744 2.622581 -3.239966
v 0.499690 2.622581 -3.181413
v 0.534025 2.622581 -3.170997
v 0.541164 2.622581 -3.173163
v 0.491440 2.622581 -3.222887
v 0.488543 2.622581 -3.208323
v 0.558244 2.622581 -3.229466
v 0.519176 2.622581 -3.170997
v 0.526600 2.622581 -3.170266
v 0.519176 2.622581 -3.170997
v 0.519176 2.622581 -3.245649
v 0.517640 2.626556 -3.163276
v 0.526600 2.631262 -3.257955
v 0.526600 2.622581 -3.246380
vn -0.629000 -0.767300 -0.125100
vn -0.770700 -0.618400 -0.153300
vn -0.726000 -0.618400 -0.300700
vn 0.356300 -0.767300 0.533200
vn 0.453400 -0.767300 0.453400
vn 0.555700 -0.618400 0.555700
vn 0.000000 -0.767300 -0.641300
vn 0.000000 -0.618400 -0.785800
vn 0.153300 -0.618400 -0.770700
vn 0.629000 -0.767300 -0.125100
vn 0.770700 -0.618400 -0.153300
vn 0.785900 -0.618400 0.000000
vn 0.629000 -0.767300 0.125100
vn 0.641300 -0.767300 0.000000
vn 0.245400 -0.767300 0.592500
vn 0.436600 -0.618400 0.653400
vn -0.533200 -0.767300 0.356200
vn -0.653400 -0.618400 0.436600
vn -0.726000 -0.618400 0.300700
vn 0.533200 -0.767300 -0.356200
vn 0.453400 -0.767300 -0.453400
vn 0.555700 -0.618400 -0.555700
vn 0.533200 -0.767300 0.356300
vn 0.653400 -0.618400 0.436600
vn 0.592500 -0.767300 -0.245400
vn 0.726000 -0.618400 -0.300700
vn -0.533200 -0.767300 -0.356300
vn -0.653400 -0.618400 -0.436600
vn -0.555700 -0.618400 -0.555700
vn -0.641300 -0.767300 0.000000
vn -0.629000 -0.767300 0.125100
vn -0.770700 -0.618400 0.153300
vn -0.453400 -0.767300 -0.453400
vn -0.436600 -0.618400 -0.653400
vn -0.245400 -0.767300 -0.592500
vn -0.356300 -0.767300 -0.533200
vn 0.245400 -0.767300 -0.592500
vn 0.300700 -0.618400 -0.726000
vn 0.436600 -0.618400 -0.653400
vn 0.592500 -0.767300 0.245400
vn 0.726000 -0.618400 0.300800
vn -0.245400 -0.767300 0.592500
vn -0.300700 -0.618400 0.726000
vn -0.436600 -0.618400 0.653400
vn 0.356300 -0.767300 -0.533200
vn -0.356300 -0.767300 0.533200
vn -0.555700 -0.618400 0.555700
vn 0.300700 -0.618400 0.726000
vn 0.153300 -0.618400 0.770700
vn 0.770700 -0.618400 0.153300
vn -0.453400 -0.767300 0.453400
vn -0.592500 -0.767300 -0.245400
vn 0.125100 -0.767300 -0.628900
vn -0.785900 -0.618400 0.000000
vn 0.653400 -0.618400 -0.436600
vn -0.300700 -0.618400 -0.726000
vn -0.153300 -0.618400 -0.770700
vn 0.125100 -0.767300 0.629000
vn 0.000000 -0.618400 0.785900
vn 0.000000 -0.767300 0.641300
vn -0.153300 -0.618400 0.770700
vn -0.592500 -0.767300 0.245400
vn -0.125100 -0.767300 0.629000
vn -0.153300 -0.618400 0.770700
vn 0.000000 -0.767300 -0.641300
vn -0.125100 -0.767300 -0.629000
vn -0.442100 -0.892600 -0.088000
vn 0.250400 -0.892600 0.374800
vn 0.318700 -0.892600 0.318700
vn 0.087900 -0.892600 -0.442100
vn 0.000000 -0.892600 -0.450700
vn 0.450700 -0.892600 0.000000
vn 0.442100 -0.892600 -0.088000
vn 0.442100 -0.892600 0.087900
vn -0.416400 -0.892600 0.172500
vn -0.374800 -0.892600 0.250400
vn 0.318700 -0.892600 -0.318700
vn 0.374800 -0.892600 0.250400
vn 0.416400 -0.892600 -0.172500
vn -0.318700 -0.892600 -0.318700
vn -0.374800 -0.892600 -0.250400
vn -0.442100 -0.892600 0.087900
vn -0.172500 -0.892600 -0.416400
vn -0.250400 -0.892600 -0.374800
vn 0.172500 -0.892600 -0.416400
vn 0.416400 -0.892600 0.172500
vn -0.250400 -0.892600 0.374800
vn -0.172500 -0.892600 0.416500
vn 0.250400 -0.892600 -0.374800
vn -0.318700 -0.892600 0.318700
vn 0.087900 -0.892600 0.442100
vn 0.172500 -0.892600 0.416500
vn -0.416400 -0.892600 -0.172500
vn -0.450700 -0.892600 0.000000
vn 0.374700 -0.892600 -0.250400
vn -0.087900 -0.892600 0.442100
vn 0.000000 -0.892600 0.450800
vn -0.087900 -0.892600 0.442100
vn -0.087900 -0.892600 -0.442100
vn -0.125100 -0.767300 0.629000
vn 0.000000 -0.618400 -0.785800
vn 0.000000 -0.892600 -0.450700
vt 0.086659 0.703639
vt 0.089688 0.704889
vt 0.076922 0.704384
vt 0.639932 0.706195
vt 0.650515 0.705885
vt 0.641759 0.707317
vt 0.795999 0.701634
vt 0.795999 0.702723
vt 0.783148 0.702775
vt 0.709340 0.703639
vt 0.706311 0.704889
vt 0.693546 0.705414
vt 0.685226 0.704610
vt 0.697223 0.704125
vt 0.630980 0.706425
vt 0.628009 0.707651
vt 0.134227 0.705508
vt 0.141033 0.706909
vt 0.128074 0.706444
vt 0.733843 0.702741
vt 0.746198 0.702364
vt 0.744654 0.703511
vt 0.661772 0.705508
vt 0.654966 0.706909
vt 0.721552 0.703172
vt 0.719077 0.704384
vt 0.062156 0.702741
vt 0.064142 0.703919
vt 0.051345 0.703511
vt 0.098776 0.704125
vt 0.110773 0.704610
vt 0.115236 0.705939
vt 0.049801 0.702364
vt 0.038529 0.703177
vt 0.024952 0.701824
vt 0.037395 0.702054
vt 0.771047 0.701824
vt 0.770303 0.702928
vt 0.757470 0.703177
vt 0.673387 0.705077
vt 0.667925 0.706444
vt 0.165019 0.706425
vt 0.183153 0.707900
vt 0.167990 0.707651
vt 0.758604 0.702054
vt 0.156067 0.706195
vt 0.154240 0.707317
vt 0.612846 0.707900
vt 0.591998 0.708053
vt 0.680763 0.705939
vt 0.145484 0.705885
vt 0.074447 0.703172
vt 0.783517 0.701682
vt 0.102453 0.705414
vt 0.731857 0.703919
vt 0.025696 0.702928
vt 0.012851 0.702775
vt 0.628391 0.706567
vt 0.398000 0.708105
vt 0.795999 0.706614
vt 1.000000 0.708053
vt 0.122612 0.705077
vt 0.167608 0.706567
vt 0.204001 0.708053
vt 0.000000 0.701634
vt 0.012482 0.701682
vt 0.077767 0.702633
vt 0.673741 0.704751
vt 0.675781 0.704494
vt 0.784601 0.701011
vt 0.795999 0.700972
vt 0.708009 0.703035
vt 0.718232 0.702633
vt 0.698301 0.703438
vt 0.106651 0.703825
vt 0.114427 0.704181
vt 0.750735 0.701576
vt 0.681572 0.704181
vt 0.728822 0.702246
vt 0.045264 0.701576
vt 0.056319 0.701889
vt 0.097698 0.703438
vt 0.022764 0.701129
vt 0.034065 0.701320
vt 0.773235 0.701129
vt 0.689349 0.703825
vt 0.122258 0.704751
vt 0.115978 0.704941
vt 0.761934 0.701320
vt 0.120218 0.704494
vt 0.709095 0.705059
vt 0.680021 0.704941
vt 0.067177 0.702246
vt 0.087990 0.703035
vt 0.739680 0.701889
vt 0.882903 0.705059
vt 0.795999 0.705098
vt 0.086904 0.705059
vt 0.011398 0.701011
vt 0.963608 0.706567
vt 0.000000 0.702723
vt 0.000000 0.700972
f 1/1/1 2/2/2 3/3/3
f 4/4/4 5/5/5 6/6/6
f 7/7/7 8/8/8 9/9/9
f 10/10/10 11/11/11 12/12/12
f 13/13/13 14/14/14 12/12/12
f 15/15/15 4/4/4 16/16/16
f 17/17/17 18/18/18 19/19/19
f 20/20/20 21/21/21 22/22/22
f 23/23/23 24/24/24 6/6/6
f 25/25/25 26/26/26 11/11/11
f 27/27/27 28/28/28 29/29/29
f 30/30/30 31/31/31 32/32/32
f 33/33/33 29/29/29 34/34/34
f 35/35/35 36/36/36 34/34/34
f 37/37/37 38/38/38 39/39/39
f 23/23/23 40/40/40 41/41/41
f 42/42/42 43/43/43 44/44/44
f 45/45/45 39/39/39 22/22/22
f 46/46/46 44/44/44 47/47/47
f 15/15/15 48/48/48 49/49/49
f 40/40/40 13/13/13 50/50/50
f 51/51/51 47/47/47 18/18/18
f 27/27/27 52/52/52 3/3/3
f 53/53/53 9/9/9 38/38/38
f 1/1/1 30/30/30 54/54/54
f 20/20/20 55/55/55 26/26/26
f 35/35/35 56/56/56 57/57/57
f 58/58/58 49/49/49 59/59/59
f 60/60/60 59/59/59 61/61/61
f 31/31/31 62/62/62 19/19/19
f 42/42/42 63/63/63 64/64/64
f 65/65/65 66/66/66 57/57/57
f 67/67/67 1/1/1 52/52/52
f 68/68/68 69/69/69 5/5/5
f 70/70/70 71/71/71 7/7/7
f 72/72/72 73/73/73 10/10/10
f 74/74/74 72/72/72 14/14/14
f 68/68/68 4/4/4 15/15/15
f 75/75/75 76/76/76 17/17/17
f 77/77/77 21/21/21 20/20/20
f 69/69/69 78/78/78 23/23/23
f 73/73/73 79/79/79 25/25/25
f 80/80/80 81/81/81 27/27/27
f 82/82/82 31/31/31 30/30/30
f 80/80/80 33/33/33 36/36/36
f 83/83/83 84/84/84 36/36/36
f 85/85/85 37/37/37 45/45/45
f 78/78/78 86/86/86 40/40/40
f 87/87/87 88/88/88 42/42/42
f 77/77/77 89/89/89 45/45/45
f 90/90/90 87/87/87 46/46/46
f 91/91/91 92/92/92 15/15/15
f 74/74/74 13/13/13 40/40/40
f 90/90/90 51/51/51 17/17/17
f 93/93/93 52/52/52 27/27/27
f 70/70/70 53/53/53 37/37/37
f 94/94/94 30/30/30 1/1/1
f 95/95/95 20/20/20 25/25/25
f 83/83/83 35/35/35 66/66/66
f 91/91/91 58/58/58 60/60/60
f 96/96/96 97/97/97 60/60/60
f 75/75/75 62/62/62 31/31/31
f 98/98/98 63/63/63 42/42/42
f 99/99/99 66/66/66 65/65/65
f 52/52/52 1/1/1 3/3/3
f 16/16/16 4/4/4 6/6/6
f 53/53/53 7/7/7 9/9/9
f 14/14/14 10/10/10 12/12/12
f 50/50/50 13/13/13 12/12/12
f 48/48/48 15/15/15 16/16/16
f 62/62/62 17/17/17 19/19/19
f 55/55/55 20/20/20 22/22/22
f 5/5/5 23/23/23 6/6/6
f 10/10/10 25/25/25 11/11/11
f 33/33/33 27/27/27 29/29/29
f 54/54/54 30/30/30 32/32/32
f 36/36/36 33/33/33 34/34/34
f 56/56/56 35/35/35 34/34/34
f 45/45/45 37/37/37 39/39/39
f 24/24/24 23/23/23 41/41/41
f 46/46/46 42/42/42 44/44/44
f 21/21/21 45/45/45 22/22/22
f 51/51/51 46/46/46 47/47/47
f 58/58/58 15/15/15 49/49/49
f 41/41/41 40/40/40 50/50/50
f 17/17/17 51/51/51 18/18/18
f 28/28/28 27/27/27 3/3/3
f 37/37/37 53/53/53 38/38/38
f 2/2/2 1/1/1 54/54/54
f 25/25/25 20/20/20 26/26/26
f 66/66/66 35/35/35 57/57/57
f 60/60/60 58/58/58 59/59/59
f 100/100/100 60/60/60 61/61/61
f 32/32/32 31/31/31 19/19/19
f 43/43/43 42/42/42 64/64/64
f 101/101/101 65/65/65 57/57/57
f 93/93/93 67/67/67 52/52/52
f 4/4/4 68/68/68 5/5/5
f 53/53/53 70/70/70 7/7/7
f 14/14/14 72/72/72 10/10/10
f 13/13/13 74/74/74 14/14/14
f 92/92/92 68/68/68 15/15/15
f 62/62/62 75/75/75 17/17/17
f 95/95/95 77/77/77 20/20/20
f 5/5/5 69/69/69 23/23/23
f 10/10/10 73/73/73 25/25/25
f 33/33/33 80/80/80 27/27/27
f 94/94/94 82/82/82 30/30/30
f 84/84/84 80/80/80 36/36/36
f 35/35/35 83/83/83 36/36/36
f 89/89/89 85/85/85 45/45/45
f 23/23/23 78/78/78 40/40/40
f 46/46/46 87/87/87 42/42/42
f 21/21/21 77/77/77 45/45/45
f 51/51/51 90/90/90 46/46/46
f 58/58/58 91/91/91 15/15/15
f 86/86/86 74/74/74 40/40/40
f 76/76/76 90/90/90 17/17/17
f 81/81/81 93/93/93 27/27/27
f 85/85/85 70/70/70 37/37/37
f 67/67/67 94/94/94 1/1/1
f 79/79/79 95/95/95 25/25/25
f 99/99/99 83/83/83 66/66/66
f 97/97/97 91/91/91 60/60/60
f 100/100/100 96/96/96 60/60/60
f 82/82/82 75/75/75 31/31/31
f 88/88/88 98/98/98 42/42/42
f 102/102/102 99/99/99 65/65/65
