v -1.653648 3.264197 -3.645437
v -1.653648 3.264197 -5.178236
v -1.653648 3.510171 -5.178236
v -1.653648 3.264197 -3.209751
v -1.653648 3.510171 -3.645437
v -1.653648 3.510171 -3.209751
vn 1.000000 0.000000 0.000000
vn 1.000000 0.000000 0.000000
vn 1.000000 0.000000 0.000000
vn 1.000000 0.000000 0.000000
vn 1.000000 0.000000 0.000000
vn 1.000000 0.000000 0.000000
vt 0.552015 0.638170
vt 0.540045 0.086225
vt 0.814715 0.085462
vt 0.557542 0.954179
vt 0.826759 0.637942
vt 0.851689 0.965587
f 1/1/1 2/2/2 3/3/3
f 4/4/4 1/1/1 5/5/5
f 5/5/5 1/1/1 3/3/3
f 6/6/6 4/4/4 5/5/5
