v 0.460549 3.261406 -3.221461
v 0.459255 3.261406 -3.208323
v 0.452488 3.265131 -3.208323
v 0.464382 3.261406 -3.234095
v 0.452488 3.265930 -3.223065
v 0.470605 3.261406 -3.245738
v 0.452488 3.268492 -3.239022
v 0.452488 3.271517 -3.250622
v 0.452488 3.274312 -3.257843
v 0.455332 3.271517 -3.255943
v 0.465991 3.271517 -3.268932
v 0.458797 3.283837 -3.282436
v 0.477080 3.274312 -3.282436
v 0.478980 3.261406 -3.255943
v 0.478980 3.271517 -3.279592
v 0.484301 3.271517 -3.282436
v 0.489185 3.261406 -3.264318
v 0.495902 3.268492 -3.282436
v 0.500829 3.261406 -3.270542
v 0.511859 3.265930 -3.282436
v 0.513462 3.261406 -3.274374
v 0.526600 3.265131 -3.282436
v 0.526600 3.261406 -3.275668
v 0.513462 3.261406 -3.274374
v 0.539739 3.261406 -3.274374
v 0.552372 3.261406 -3.270542
v 0.541342 3.265930 -3.282436
v 0.576121 3.274312 -3.282436
v 0.574221 3.271517 -3.279592
v 0.568900 3.271517 -3.282436
v 0.564016 3.261406 -3.264318
v 0.557299 3.268492 -3.282436
v 0.587210 3.271517 -3.268932
v 0.574221 3.261406 -3.255943
v 0.600713 3.283837 -3.276126
v 0.600713 3.274312 -3.257843
v 0.594404 3.283837 -3.282436
v 0.597869 3.271517 -3.255943
v 0.582596 3.261406 -3.245738
v 0.600713 3.271517 -3.250623
v 0.600713 3.268492 -3.239021
v 0.588819 3.261406 -3.234095
v 0.600713 3.265930 -3.223065
v 0.592652 3.261406 -3.221461
v 0.600713 3.265131 -3.208323
v 0.593946 3.261406 -3.208323
v 0.592652 3.261406 -3.195184
v 0.588819 3.261406 -3.182551
v 0.600713 3.265930 -3.193581
v 0.600713 3.274312 -3.158802
v 0.597869 3.271517 -3.160702
v 0.600713 3.271517 -3.166023
v 0.582596 3.261406 -3.170908
v 0.600713 3.268492 -3.177624
v 0.587210 3.271517 -3.147714
v 0.594404 3.283837 -3.134210
v 0.576121 3.274312 -3.134210
v 0.600713 3.283837 -3.140520
v 0.574221 3.271517 -3.137054
v 0.564016 3.261406 -3.152327
v 0.568900 3.271517 -3.134210
v 0.557299 3.268492 -3.134210
v 0.552372 3.261406 -3.146104
v 0.541342 3.265930 -3.134210
v 0.539739 3.261406 -3.142272
v 0.526600 3.265131 -3.134210
v 0.526600 3.261406 -3.140978
v 0.513462 3.261406 -3.142272
v 0.500829 3.261406 -3.146104
v 0.513462 3.261406 -3.142272
v 0.511858 3.265930 -3.134210
v 0.514179 3.259225 -3.270772
v 0.514179 3.259225 -3.270772
v 0.491226 3.259225 -3.261265
v 0.477080 3.274312 -3.134210
v 0.478980 3.271517 -3.137054
v 0.484301 3.271517 -3.134210
v 0.489185 3.261406 -3.152327
v 0.495902 3.268492 -3.134210
v 0.465991 3.271517 -3.147714
v 0.481577 3.259225 -3.253346
v 0.452488 3.283837 -3.140520
v 0.452488 3.274312 -3.158802
v 0.455332 3.271517 -3.160703
v 0.470605 3.261406 -3.170908
v 0.467774 3.259225 -3.232689
v 0.458797 3.283837 -3.134210
v 0.452488 3.271517 -3.166023
v 0.452488 3.268492 -3.177624
v 0.464382 3.261406 -3.182551
v 0.452488 3.265930 -3.193581
v 0.460549 3.261406 -3.195184
v 0.464151 3.259225 -3.220745
v 0.452488 3.283837 -3.276126
v 0.452488 3.288883 -3.282436
v 0.526600 3.259225 -3.271996
v 0.539022 3.259225 -3.270772
v 0.561975 3.259225 -3.261265
v 0.579542 3.259225 -3.243698
v 0.585427 3.259225 -3.232689
v 0.590273 3.259225 -3.208323
v 0.473658 3.259225 -3.243698
v 0.478980 3.261406 -3.160703
v 0.481577 3.259225 -3.163300
v 0.491226 3.259225 -3.155381
v 0.473658 3.259225 -3.172948
v 0.467775 3.259225 -3.183956
v 0.464151 3.259225 -3.195901
v 0.462928 3.259225 -3.208323
v 0.589050 3.259225 -3.195901
v 0.585426 3.259225 -3.183956
v 0.579542 3.259225 -3.172948
v 0.571624 3.259225 -3.163299
v 0.561975 3.259225 -3.155381
v 0.550967 3.259225 -3.149497
v 0.539022 3.259225 -3.145874
v 0.526600 3.259225 -3.144650
v 0.514179 3.259225 -3.145874
v 0.502234 3.259225 -3.149497
v 0.514179 3.259225 -3.145874
v 0.511859 3.265930 -3.282436
v 0.600713 3.288883 -3.282436
v 0.574221 3.261406 -3.160702
v 0.600713 3.288883 -3.134210
v 0.511858 3.265930 -3.134210
v 0.502234 3.259225 -3.267149
v 0.452488 3.288883 -3.134210
v 0.550967 3.259225 -3.267149
v 0.571624 3.259225 -3.253346
v 0.589050 3.259225 -3.220745
vn -0.486200 -0.868400 -0.096700
vn -0.495700 -0.868400 0.000000
vn -0.482200 -0.876000 0.000000
vn -0.458000 -0.868500 -0.189700
vn -0.471600 -0.876000 -0.100600
vn -0.412200 -0.868500 -0.275400
vn -0.440400 -0.876000 -0.196600
vn -0.453100 -0.857900 -0.242200
vn -0.510600 -0.774000 -0.374400
vn -0.468700 -0.826000 -0.313200
vn -0.399200 -0.825400 -0.399200
vn -0.464600 -0.738100 -0.489300
vn -0.374400 -0.774000 -0.510500
vn -0.350500 -0.868500 -0.350500
vn -0.313200 -0.826000 -0.468700
vn -0.242200 -0.857900 -0.453100
vn -0.275400 -0.868500 -0.412200
vn -0.196700 -0.876000 -0.440400
vn -0.189700 -0.868400 -0.458000
vn -0.100600 -0.876000 -0.471600
vn -0.096700 -0.868400 -0.486200
vn 0.000000 -0.876100 -0.482200
vn 0.000000 -0.868500 -0.495700
vn -0.096700 -0.868400 -0.486200
vn 0.096700 -0.868400 -0.486200
vn 0.189700 -0.868500 -0.458000
vn 0.100600 -0.876000 -0.471600
vn 0.374400 -0.774000 -0.510600
vn 0.313200 -0.826000 -0.468700
vn 0.242200 -0.857900 -0.453100
vn 0.275400 -0.868400 -0.412200
vn 0.196700 -0.876000 -0.440400
vn 0.399200 -0.825400 -0.399200
vn 0.350500 -0.868500 -0.350500
vn 0.489300 -0.738100 -0.464500
vn 0.510600 -0.774000 -0.374400
vn 0.464600 -0.738100 -0.489300
vn 0.468700 -0.826000 -0.313200
vn 0.412200 -0.868500 -0.275400
vn 0.453100 -0.857900 -0.242200
vn 0.440400 -0.876000 -0.196700
vn 0.458000 -0.868500 -0.189700
vn 0.471600 -0.876000 -0.100600
vn 0.486200 -0.868400 -0.096700
vn 0.482200 -0.876000 0.000000
vn 0.495700 -0.868500 0.000000
vn 0.486200 -0.868500 0.096700
vn 0.458000 -0.868500 0.189700
vn 0.471600 -0.876000 0.100600
vn 0.510600 -0.774000 0.374400
vn 0.468700 -0.826000 0.313200
vn 0.453100 -0.857900 0.242200
vn 0.412200 -0.868400 0.275400
vn 0.440400 -0.876000 0.196700
vn 0.399200 -0.825400 0.399200
vn 0.464500 -0.738100 0.489300
vn 0.374400 -0.774000 0.510600
vn 0.489300 -0.738100 0.464600
vn 0.313100 -0.826000 0.468700
vn 0.275400 -0.868400 0.412200
vn 0.242200 -0.857900 0.453100
vn 0.196700 -0.876000 0.440400
vn 0.189700 -0.868400 0.458000
vn 0.100600 -0.876000 0.471600
vn 0.096700 -0.868400 0.486200
vn 0.000000 -0.876100 0.482200
vn 0.000000 -0.868500 0.495700
vn -0.096700 -0.868400 0.486200
vn -0.189700 -0.868500 0.458000
vn -0.096700 -0.868400 0.486200
vn -0.100600 -0.876000 0.471600
vn -0.099600 -0.859700 -0.500900
vn -0.099600 -0.859700 -0.500900
vn -0.283700 -0.859700 -0.424600
vn -0.374400 -0.774000 0.510600
vn -0.313100 -0.826000 0.468700
vn -0.242200 -0.857900 0.453100
vn -0.275400 -0.868400 0.412200
vn -0.196700 -0.876000 0.440400
vn -0.399200 -0.825400 0.399200
vn -0.361100 -0.859700 -0.361100
vn -0.489300 -0.738100 0.464500
vn -0.510600 -0.774000 0.374400
vn -0.468700 -0.826000 0.313200
vn -0.412200 -0.868500 0.275400
vn -0.471800 -0.859700 -0.195400
vn -0.464500 -0.738100 0.489300
vn -0.453100 -0.857900 0.242200
vn -0.440400 -0.876000 0.196600
vn -0.458000 -0.868400 0.189700
vn -0.471600 -0.876000 0.100600
vn -0.486200 -0.868500 0.096700
vn -0.500900 -0.859700 -0.099600
vn -0.489300 -0.738100 -0.464500
vn -0.529800 -0.662300 -0.529700
vn 0.000000 -0.859700 -0.510700
vn 0.099600 -0.859700 -0.500900
vn 0.283700 -0.859700 -0.424700
vn 0.424600 -0.859700 -0.283700
vn 0.471800 -0.859700 -0.195400
vn 0.510700 -0.859700 0.000000
vn -0.424600 -0.859700 -0.283800
vn -0.350500 -0.868500 0.350500
vn -0.361100 -0.859700 0.361100
vn -0.283700 -0.859700 0.424600
vn -0.424600 -0.859700 0.283700
vn -0.471800 -0.859700 0.195400
vn -0.500900 -0.859700 0.099600
vn -0.510700 -0.859700 0.000000
vn 0.500900 -0.859700 0.099600
vn 0.471800 -0.859700 0.195400
vn 0.424600 -0.859700 0.283700
vn 0.361100 -0.859700 0.361100
vn 0.283700 -0.859700 0.424700
vn 0.195400 -0.859700 0.471800
vn 0.099600 -0.859700 0.500900
vn 0.000000 -0.859700 0.510700
vn -0.099600 -0.859700 0.500900
vn -0.195400 -0.859800 0.471800
vn -0.099600 -0.859700 0.500900
vn -0.100600 -0.876000 -0.471600
vn 0.529700 -0.662300 -0.529700
vn 0.350500 -0.868500 0.350500
vn 0.529700 -0.662300 0.529700
vn -0.100600 -0.876000 0.471600
vn -0.195400 -0.859700 -0.471800
vn -0.529700 -0.662300 0.529700
vn 0.195400 -0.859800 -0.471800
vn 0.361100 -0.859800 -0.361000
vn 0.500900 -0.859700 -0.099600
vt 0.043985 0.877411
vt 0.047874 0.878123
vt 0.051982 0.879144
vt 0.039142 0.876726
vt 0.048275 0.878564
vt 0.033569 0.876095
vt 0.044724 0.878401
vt 0.042401 0.878601
vt 0.041038 0.878976
vt 0.039973 0.878312
vt 0.032498 0.877608
vt 0.033979 0.880253
vt 0.025281 0.877642
vt 0.027445 0.875541
vt 0.024662 0.877030
vt 0.021719 0.876876
vt 0.020914 0.875087
vt 0.015873 0.876047
vt 0.014095 0.874750
vt 0.007669 0.875345
vt 0.007092 0.874542
vt 0.795999 0.875126
vt 0.795999 0.874472
vt 0.803091 0.874542
vt 0.788907 0.874542
vt 0.781904 0.874750
vt 0.788330 0.875345
vt 0.770718 0.877642
vt 0.771337 0.877030
vt 0.774280 0.876876
vt 0.775085 0.875087
vt 0.780126 0.876047
vt 0.763501 0.877608
vt 0.768554 0.875541
vt 0.758131 0.880595
vt 0.754961 0.878976
vt 0.762020 0.880253
vt 0.756026 0.878312
vt 0.762430 0.876095
vt 0.753598 0.878601
vt 0.751275 0.878401
vt 0.756857 0.876726
vt 0.747725 0.878564
vt 0.752014 0.877411
vt 0.744017 0.879144
vt 0.748125 0.878123
vt 0.745479 0.878835
vt 0.744447 0.879520
vt 0.739832 0.880162
vt 0.727559 0.884345
vt 0.730307 0.883476
vt 0.730405 0.883188
vt 0.745496 0.880152
vt 0.734657 0.881730
vt 0.733232 0.884180
vt 0.721272 0.888289
vt 0.737469 0.885678
vt 0.719525 0.887947
vt 0.740519 0.884758
vt 0.756058 0.881159
vt 0.744801 0.884912
vt 0.757658 0.884083
vt 0.766484 0.881496
vt 0.777050 0.883381
vt 0.780207 0.881704
vt 0.795999 0.883162
vt 0.795999 0.881774
vt 0.811791 0.881704
vt 0.029515 0.881496
vt 0.015792 0.881704
vt 0.018949 0.883381
vt 0.802820 0.874140
vt 0.006821 0.874140
vt 0.020093 0.874655
vt 0.058530 0.885678
vt 0.055480 0.884758
vt 0.051198 0.884912
vt 0.039941 0.881159
vt 0.038341 0.884083
vt 0.062767 0.884180
vt 0.026343 0.875084
vt 0.076474 0.887947
vt 0.068440 0.884345
vt 0.065692 0.883476
vt 0.050503 0.880152
vt 0.037457 0.876204
vt 0.074727 0.888289
vt 0.065594 0.883188
vt 0.061342 0.881730
vt 0.051552 0.879520
vt 0.056167 0.880162
vt 0.050520 0.878835
vt 0.042001 0.876852
vt 0.037868 0.880595
vt 0.036833 0.881636
vt 0.795999 0.874073
vt 0.789178 0.874140
vt 0.775906 0.874655
vt 0.763820 0.875607
vt 0.758542 0.876204
vt 0.750408 0.877525
vt 0.032179 0.875607
vt 0.046819 0.880705
vt 0.043780 0.879966
vt 0.037110 0.880395
vt 0.047499 0.879443
vt 0.048728 0.878846
vt 0.047950 0.878199
vt 0.045591 0.877525
vt 0.748049 0.878199
vt 0.747271 0.878846
vt 0.748500 0.879443
vt 0.752219 0.879966
vt 0.758889 0.880395
vt 0.768746 0.880714
vt 0.781487 0.880911
vt 0.795999 0.880977
vt 0.810511 0.880911
vt 0.027253 0.880714
vt 0.014512 0.880911
vt 0.803668 0.875345
vt 0.759166 0.881636
vt 0.749180 0.880705
vt 0.716558 0.889672
vt 0.814948 0.883381
vt 0.013551 0.874336
vt 0.079441 0.889672
vt 0.782448 0.874336
vt 0.769656 0.875084
vt 0.753998 0.876852
f 1/1/1 2/2/2 3/3/3
f 4/4/4 1/1/1 5/5/5
f 6/6/6 7/7/7 8/8/8
f 6/6/6 4/4/4 7/7/7
f 9/9/9 10/10/10 8/8/8
f 11/11/11 10/10/10 9/9/9
f 6/6/6 10/10/10 11/11/11
f 11/11/11 12/12/12 13/13/13
f 14/14/14 11/11/11 15/15/15
f 16/16/16 15/15/15 13/13/13
f 17/17/17 15/15/15 16/16/16
f 18/18/18 19/19/19 17/17/17
f 20/20/20 21/21/21 19/19/19
f 22/22/22 23/23/23 24/24/24
f 25/25/25 23/23/23 22/22/22
f 26/26/26 25/25/25 27/27/27
f 28/28/28 29/29/29 30/30/30
f 31/31/31 32/32/32 30/30/30
f 31/31/31 26/26/26 32/32/32
f 33/33/33 29/29/29 28/28/28
f 29/29/29 33/33/33 34/34/34
f 33/33/33 35/35/35 36/36/36
f 35/35/35 33/33/33 37/37/37
f 33/33/33 38/38/38 39/39/39
f 40/40/40 38/38/38 36/36/36
f 39/39/39 38/38/38 40/40/40
f 41/41/41 42/42/42 39/39/39
f 43/43/43 44/44/44 42/42/42
f 45/45/45 46/46/46 44/44/44
f 47/47/47 46/46/46 45/45/45
f 48/48/48 47/47/47 49/49/49
f 50/50/50 51/51/51 52/52/52
f 53/53/53 54/54/54 52/52/52
f 53/53/53 48/48/48 54/54/54
f 53/53/53 51/51/51 55/55/55
f 55/55/55 51/51/51 50/50/50
f 55/55/55 56/56/56 57/57/57
f 56/56/56 55/55/55 58/58/58
f 55/55/55 59/59/59 60/60/60
f 61/61/61 59/59/59 57/57/57
f 60/60/60 59/59/59 61/61/61
f 62/62/62 63/63/63 60/60/60
f 64/64/64 65/65/65 63/63/63
f 66/66/66 67/67/67 65/65/65
f 68/68/68 67/67/67 66/66/66
f 69/69/69 70/70/70 71/71/71
f 72/72/72 24/24/24 23/23/23
f 19/19/19 21/21/21 73/73/73
f 74/74/74 17/17/17 19/19/19
f 75/75/75 76/76/76 77/77/77
f 78/78/78 79/79/79 77/77/77
f 78/78/78 69/69/69 79/79/79
f 78/78/78 76/76/76 80/80/80
f 81/81/81 14/14/14 17/17/17
f 80/80/80 76/76/76 75/75/75
f 80/80/80 82/82/82 83/83/83
f 80/80/80 84/84/84 85/85/85
f 1/1/1 4/4/4 86/86/86
f 82/82/82 80/80/80 87/87/87
f 88/88/88 84/84/84 83/83/83
f 85/85/85 84/84/84 88/88/88
f 89/89/89 90/90/90 85/85/85
f 91/91/91 92/92/92 90/90/90
f 3/3/3 2/2/2 92/92/92
f 2/2/2 1/1/1 93/93/93
f 94/94/94 95/95/95 12/12/12
f 96/96/96 23/23/23 25/25/25
f 97/97/97 25/25/25 26/26/26
f 26/26/26 31/31/31 98/98/98
f 98/98/98 31/31/31 34/34/34
f 34/34/34 39/39/39 99/99/99
f 99/99/99 39/39/39 42/42/42
f 100/100/100 42/42/42 44/44/44
f 44/44/44 46/46/46 101/101/101
f 6/6/6 14/14/14 81/81/81
f 4/4/4 6/6/6 102/102/102
f 103/103/103 104/104/104 105/105/105
f 106/106/106 104/104/104 103/103/103
f 90/90/90 107/107/107 106/106/106
f 108/108/108 107/107/107 90/90/90
f 2/2/2 109/109/109 108/108/108
f 110/110/110 101/101/101 46/46/46
f 111/111/111 110/110/110 47/47/47
f 112/112/112 111/111/111 48/48/48
f 113/113/113 112/112/112 53/53/53
f 60/60/60 114/114/114 113/113/113
f 115/115/115 114/114/114 60/60/60
f 116/116/116 115/115/115 63/63/63
f 67/67/67 117/117/117 116/116/116
f 118/118/118 117/117/117 67/67/67
f 69/69/69 119/119/119 120/120/120
f 78/78/78 105/105/105 119/119/119
f 5/5/5 1/1/1 3/3/3
f 7/7/7 4/4/4 5/5/5
f 10/10/10 6/6/6 8/8/8
f 94/94/94 11/11/11 9/9/9
f 14/14/14 6/6/6 11/11/11
f 15/15/15 11/11/11 13/13/13
f 17/17/17 14/14/14 15/15/15
f 18/18/18 17/17/17 16/16/16
f 18/18/18 20/20/20 19/19/19
f 121/121/121 22/22/22 24/24/24
f 27/27/27 25/25/25 22/22/22
f 32/32/32 26/26/26 27/27/27
f 29/29/29 31/31/31 30/30/30
f 37/37/37 33/33/33 28/28/28
f 31/31/31 29/29/29 34/34/34
f 38/38/38 33/33/33 36/36/36
f 122/122/122 35/35/35 37/37/37
f 34/34/34 33/33/33 39/39/39
f 41/41/41 39/39/39 40/40/40
f 41/41/41 43/43/43 42/42/42
f 43/43/43 45/45/45 44/44/44
f 49/49/49 47/47/47 45/45/45
f 54/54/54 48/48/48 49/49/49
f 51/51/51 53/53/53 52/52/52
f 123/123/123 53/53/53 55/55/55
f 58/58/58 55/55/55 50/50/50
f 59/59/59 55/55/55 57/57/57
f 124/124/124 56/56/56 58/58/58
f 123/123/123 55/55/55 60/60/60
f 62/62/62 60/60/60 61/61/61
f 62/62/62 64/64/64 63/63/63
f 64/64/64 66/66/66 65/65/65
f 125/125/125 68/68/68 66/66/66
f 79/79/79 69/69/69 71/71/71
f 96/96/96 72/72/72 23/23/23
f 126/126/126 19/19/19 73/73/73
f 126/126/126 74/74/74 19/19/19
f 76/76/76 78/78/78 77/77/77
f 103/103/103 78/78/78 80/80/80
f 74/74/74 81/81/81 17/17/17
f 87/87/87 80/80/80 75/75/75
f 84/84/84 80/80/80 83/83/83
f 103/103/103 80/80/80 85/85/85
f 93/93/93 1/1/1 86/86/86
f 127/127/127 82/82/82 87/87/87
f 89/89/89 85/85/85 88/88/88
f 89/89/89 91/91/91 90/90/90
f 91/91/91 3/3/3 92/92/92
f 109/109/109 2/2/2 93/93/93
f 11/11/11 94/94/94 12/12/12
f 97/97/97 96/96/96 25/25/25
f 128/128/128 97/97/97 26/26/26
f 128/128/128 26/26/26 98/98/98
f 129/129/129 98/98/98 34/34/34
f 129/129/129 34/34/34 99/99/99
f 100/100/100 99/99/99 42/42/42
f 130/130/130 100/100/100 44/44/44
f 130/130/130 44/44/44 101/101/101
f 102/102/102 6/6/6 81/81/81
f 86/86/86 4/4/4 102/102/102
f 78/78/78 103/103/103 105/105/105
f 85/85/85 106/106/106 103/103/103
f 85/85/85 90/90/90 106/106/106
f 92/92/92 108/108/108 90/90/90
f 92/92/92 2/2/2 108/108/108
f 47/47/47 110/110/110 46/46/46
f 48/48/48 111/111/111 47/47/47
f 53/53/53 112/112/112 48/48/48
f 123/123/123 113/113/113 53/53/53
f 123/123/123 60/60/60 113/113/113
f 63/63/63 115/115/115 60/60/60
f 65/65/65 116/116/116 63/63/63
f 65/65/65 67/67/67 116/116/116
f 68/68/68 118/118/118 67/67/67
f 70/70/70 69/69/69 120/120/120
f 69/69/69 78/78/78 119/119/119
