v 0.468976 1.932137 -1.435951
v 0.465378 1.932137 -1.447814
v 0.458387 1.928549 -1.446423
v 0.503199 1.932137 -1.401729
v 0.492266 1.932137 -1.407572
v 0.488306 1.928549 -1.401645
v 0.554324 1.928549 -1.395143
v 0.551596 1.932137 -1.401729
v 0.539734 1.932137 -1.398130
v 0.585819 1.932137 -1.435951
v 0.579975 1.932137 -1.425019
v 0.585902 1.928549 -1.421058
v 0.585819 1.932137 -1.484349
v 0.589417 1.932137 -1.472486
v 0.596408 1.928549 -1.473877
v 0.554324 1.928549 -1.525157
v 0.551596 1.932137 -1.518571
v 0.562529 1.932137 -1.512728
v 0.503199 1.932137 -1.518571
v 0.515061 1.932137 -1.522170
v 0.513670 1.928549 -1.529161
v 0.465378 1.932137 -1.472486
v 0.464163 1.932137 -1.460150
v 0.483978 1.936254 -1.460150
v 0.474820 1.932137 -1.425019
v 0.482684 1.932137 -1.415436
v 0.496695 1.936254 -1.429448
v 0.487283 1.936254 -1.443534
v 0.510781 1.936254 -1.420035
v 0.515061 1.932137 -1.398130
v 0.515061 1.932137 -1.398130
v 0.527397 1.932137 -1.396915
v 0.527397 1.936254 -1.416730
v 0.535868 1.936254 -1.417565
v 0.562529 1.932137 -1.407572
v 0.551520 1.936254 -1.424048
v 0.572111 1.932137 -1.415436
v 0.558100 1.936254 -1.429448
v 0.563500 1.936254 -1.436027
v 0.589417 1.932137 -1.447814
v 0.569983 1.936254 -1.451679
v 0.590632 1.932137 -1.460150
v 0.570817 1.936254 -1.460150
v 0.569983 1.936254 -1.468621
v 0.567512 1.936254 -1.476766
v 0.579975 1.932137 -1.495281
v 0.563500 1.936254 -1.484273
v 0.572111 1.932137 -1.504864
v 0.551520 1.936254 -1.496252
v 0.539734 1.932137 -1.522170
v 0.535868 1.936254 -1.502735
v 0.527397 1.932137 -1.523385
v 0.527397 1.936254 -1.503570
v 0.515061 1.932137 -1.522170
v 0.518927 1.936254 -1.502735
v 0.510781 1.936254 -1.500265
v 0.492266 1.932137 -1.512728
v 0.503275 1.936254 -1.496252
v 0.482684 1.932137 -1.504864
v 0.496695 1.936254 -1.490852
v 0.474820 1.932137 -1.495281
v 0.468976 1.932137 -1.484349
v 0.487283 1.936254 -1.476766
v 0.484812 1.936254 -1.468621
v 0.458386 1.928549 -1.473877
v 0.457034 1.928549 -1.460150
v 0.468893 1.928549 -1.421059
v 0.477643 1.928549 -1.410396
v 0.462391 1.928549 -1.433223
v 0.500471 1.928549 -1.395143
v 0.513670 1.928549 -1.391139
v 0.513670 1.928549 -1.391139
v 0.527397 1.928549 -1.389787
v 0.541124 1.928549 -1.391139
v 0.566489 1.928549 -1.401645
v 0.577151 1.928549 -1.410396
v 0.592404 1.928549 -1.433223
v 0.596408 1.928549 -1.446423
v 0.597760 1.928549 -1.460150
v 0.592404 1.928549 -1.487077
v 0.585902 1.928549 -1.499241
v 0.577151 1.928549 -1.509904
v 0.566489 1.928549 -1.518655
v 0.541125 1.928549 -1.529161
v 0.527397 1.928549 -1.530513
v 0.513670 1.928549 -1.529161
v 0.500471 1.928549 -1.525157
v 0.488306 1.928549 -1.518655
v 0.477643 1.928549 -1.509904
v 0.468893 1.928549 -1.499241
v 0.462391 1.928549 -1.487077
v 0.484812 1.936254 -1.451679
v 0.503275 1.936254 -1.424048
v 0.544013 1.936254 -1.420035
v 0.567512 1.936254 -1.443534
v 0.544013 1.936254 -1.500265
v 0.518927 1.936254 -1.502735
v 0.491295 1.936254 -1.436027
v 0.518927 1.936254 -1.417565
v 0.518927 1.936254 -1.417565
v 0.558100 1.936254 -1.490852
v 0.491295 1.936254 -1.484273
vn -0.310900 0.941600 0.128800
vn -0.330100 0.941600 0.065600
vn -0.441000 0.893200 0.087700
vn -0.128800 0.941600 0.311000
vn -0.187000 0.941600 0.279800
vn -0.249800 0.893200 0.373900
vn 0.172100 0.893200 0.415400
vn 0.128800 0.941600 0.310900
vn 0.065600 0.941600 0.330100
vn 0.311000 0.941600 0.128800
vn 0.279800 0.941600 0.187000
vn 0.373900 0.893200 0.249800
vn 0.310900 0.941600 -0.128800
vn 0.330100 0.941600 -0.065600
vn 0.441000 0.893200 -0.087700
vn 0.172100 0.893200 -0.415400
vn 0.128800 0.941600 -0.311000
vn 0.187000 0.941600 -0.279800
vn -0.128800 0.941600 -0.310900
vn -0.065600 0.941600 -0.330100
vn -0.087700 0.893200 -0.441000
vn -0.330100 0.941600 -0.065600
vn -0.336600 0.941600 0.000000
vn -0.203400 0.979100 0.000000
vn -0.279800 0.941600 0.187000
vn -0.238000 0.941600 0.238000
vn -0.143800 0.979100 0.143800
vn -0.187900 0.979100 0.077800
vn -0.077900 0.979100 0.187900
vn -0.065600 0.941600 0.330100
vn -0.065600 0.941600 0.330100
vn 0.000000 0.941600 0.336600
vn 0.000000 0.979100 0.203400
vn 0.039700 0.979100 0.199500
vn 0.187000 0.941600 0.279800
vn 0.113000 0.979100 0.169100
vn 0.238000 0.941600 0.238000
vn 0.143800 0.979100 0.143800
vn 0.169100 0.979100 0.113000
vn 0.330100 0.941600 0.065600
vn 0.199500 0.979100 0.039700
vn 0.336600 0.941600 0.000000
vn 0.203400 0.979100 0.000000
vn 0.199500 0.979100 -0.039700
vn 0.187900 0.979100 -0.077800
vn 0.279800 0.941600 -0.187000
vn 0.169100 0.979100 -0.113000
vn 0.238000 0.941600 -0.238000
vn 0.113000 0.979100 -0.169100
vn 0.065600 0.941600 -0.330100
vn 0.039700 0.979100 -0.199500
vn 0.000000 0.941600 -0.336600
vn 0.000000 0.979100 -0.203400
vn -0.065600 0.941600 -0.330100
vn -0.039700 0.979100 -0.199500
vn -0.077900 0.979100 -0.187900
vn -0.187000 0.941600 -0.279800
vn -0.113000 0.979100 -0.169200
vn -0.238000 0.941600 -0.238000
vn -0.143800 0.979100 -0.143800
vn -0.279800 0.941600 -0.187000
vn -0.310900 0.941600 -0.128800
vn -0.187900 0.979100 -0.077900
vn -0.199500 0.979100 -0.039700
vn -0.441000 0.893200 -0.087700
vn -0.449600 0.893200 0.000000
vn -0.373900 0.893200 0.249800
vn -0.317900 0.893200 0.317900
vn -0.415400 0.893200 0.172100
vn -0.172100 0.893200 0.415400
vn -0.087700 0.893200 0.441000
vn -0.087700 0.893200 0.441000
vn 0.000000 0.893200 0.449600
vn 0.087700 0.893200 0.441000
vn 0.249800 0.893200 0.373900
vn 0.317900 0.893200 0.317900
vn 0.415400 0.893200 0.172100
vn 0.441000 0.893200 0.087700
vn 0.449600 0.893200 0.000000
vn 0.415400 0.893200 -0.172000
vn 0.373900 0.893200 -0.249800
vn 0.317900 0.893200 -0.317900
vn 0.249800 0.893200 -0.373800
vn 0.087700 0.893200 -0.441000
vn 0.000000 0.893200 -0.449600
vn -0.087700 0.893200 -0.441000
vn -0.172100 0.893200 -0.415400
vn -0.249800 0.893200 -0.373900
vn -0.317900 0.893200 -0.317900
vn -0.373900 0.893200 -0.249800
vn -0.415400 0.893200 -0.172100
vn -0.199500 0.979100 0.039700
vn -0.113000 0.979100 0.169100
vn 0.077900 0.979100 0.187900
vn 0.187900 0.979100 0.077900
vn 0.077800 0.979100 -0.187900
vn -0.039700 0.979100 -0.199500
vn -0.169100 0.979100 0.113000
vn -0.039700 0.979100 0.199500
vn -0.039700 0.979100 0.199500
vn 0.143800 0.979100 -0.143800
vn -0.169100 0.979100 -0.113000
vt 0.034322 0.921357
vt 0.034301 0.920257
vt 0.038266 0.918705
vt 0.017735 0.924529
vt 0.024629 0.923988
vt 0.028422 0.922856
vt 0.690904 0.923458
vt 0.693809 0.924529
vt 0.702235 0.924863
vt 0.677223 0.921357
vt 0.678687 0.922371
vt 0.674318 0.921056
vt 0.683872 0.916870
vt 0.680781 0.917970
vt 0.677605 0.916160
vt 0.700437 0.911406
vt 0.701342 0.913698
vt 0.696458 0.914240
vt 0.010203 0.913698
vt 0.005144 0.913365
vt 0.005596 0.911035
vt 0.030763 0.917970
vt 0.033039 0.919114
vt 0.022945 0.921043
vt 0.032858 0.922371
vt 0.029677 0.923259
vt 0.019003 0.923889
vt 0.022969 0.922584
vt 0.010906 0.924762
vt 0.009310 0.924863
vt 0.720855 0.924863
vt 0.711545 0.924976
vt 0.711545 0.925068
vt 0.705893 0.924991
vt 0.686916 0.923988
vt 0.696114 0.924390
vt 0.681867 0.923259
vt 0.692541 0.923889
vt 0.690025 0.923279
vt 0.677244 0.920257
vt 0.688133 0.921829
vt 0.678506 0.919114
vt 0.688600 0.921043
vt 0.689860 0.920258
vt 0.691793 0.919503
vt 0.687607 0.915857
vt 0.694284 0.918807
vt 0.691844 0.914969
vt 0.700510 0.917697
vt 0.706401 0.913365
vt 0.707757 0.917096
vt 0.711545 0.913252
vt 0.711545 0.917018
vt 0.716689 0.913365
vt 0.715333 0.917096
vt 0.007494 0.917325
vt 0.015087 0.914240
vt 0.011035 0.917697
vt 0.019701 0.914969
vt 0.014322 0.918197
vt 0.023937 0.915857
vt 0.027673 0.916870
vt 0.019752 0.919503
vt 0.021685 0.920258
vt 0.033940 0.916160
vt 0.036635 0.917432
vt 0.037227 0.921056
vt 0.033931 0.922045
vt 0.038566 0.919928
vt 0.020641 0.923458
vt 0.010901 0.923830
vt 0.722445 0.923830
vt 0.711545 0.923955
vt 0.700644 0.923830
vt 0.683123 0.922856
vt 0.677614 0.922045
vt 0.672979 0.919928
vt 0.673278 0.918705
vt 0.674910 0.917432
vt 0.681140 0.914936
vt 0.685331 0.913808
vt 0.690025 0.912820
vt 0.695097 0.912009
vt 0.705949 0.911035
vt 0.711545 0.910910
vt 0.717141 0.911035
vt 0.011108 0.911406
vt 0.016448 0.912009
vt 0.021519 0.912820
vt 0.026214 0.913808
vt 0.030405 0.914936
vt 0.023411 0.921829
vt 0.015430 0.924390
vt 0.700639 0.924762
vt 0.688576 0.922584
vt 0.704050 0.917325
vt 0.003788 0.917096
vt 0.021519 0.923279
vt 0.005652 0.924991
vt 0.717197 0.924991
vt 0.697223 0.918197
vt 0.017261 0.918807
f 1/1/1 2/2/2 3/3/3
f 4/4/4 5/5/5 6/6/6
f 7/7/7 8/8/8 9/9/9
f 10/10/10 11/11/11 12/12/12
f 13/13/13 14/14/14 15/15/15
f 16/16/16 17/17/17 18/18/18
f 19/19/19 20/20/20 21/21/21
f 22/22/22 23/23/23 24/24/24
f 25/25/25 26/26/26 27/27/27
f 24/24/24 23/23/23 2/2/2
f 28/28/28 1/1/1 25/25/25
f 27/27/27 26/26/26 5/5/5
f 29/29/29 4/4/4 30/30/30
f 31/31/31 32/32/32 33/33/33
f 32/32/32 9/9/9 34/34/34
f 8/8/8 35/35/35 36/36/36
f 35/35/35 37/37/37 38/38/38
f 37/37/37 11/11/11 39/39/39
f 10/10/10 40/40/40 41/41/41
f 40/40/40 42/42/42 43/43/43
f 42/42/42 14/14/14 44/44/44
f 45/45/45 13/13/13 46/46/46
f 47/47/47 46/46/46 48/48/48
f 48/48/48 18/18/18 49/49/49
f 17/17/17 50/50/50 51/51/51
f 50/50/50 52/52/52 53/53/53
f 52/52/52 54/54/54 55/55/55
f 56/56/56 19/19/19 57/57/57
f 58/58/58 57/57/57 59/59/59
f 60/60/60 59/59/59 61/61/61
f 61/61/61 62/62/62 63/63/63
f 62/62/62 22/22/22 64/64/64
f 22/22/22 65/65/65 66/66/66
f 25/25/25 67/67/67 68/68/68
f 66/66/66 3/3/3 2/2/2
f 1/1/1 69/69/69 67/67/67
f 68/68/68 6/6/6 5/5/5
f 70/70/70 71/71/71 30/30/30
f 31/31/31 72/72/72 73/73/73
f 32/32/32 73/73/73 74/74/74
f 8/8/8 7/7/7 75/75/75
f 75/75/75 76/76/76 37/37/37
f 37/37/37 76/76/76 12/12/12
f 77/77/77 78/78/78 40/40/40
f 78/78/78 79/79/79 42/42/42
f 42/42/42 79/79/79 15/15/15
f 80/80/80 81/81/81 46/46/46
f 81/81/81 82/82/82 48/48/48
f 82/82/82 83/83/83 18/18/18
f 16/16/16 84/84/84 50/50/50
f 84/84/84 85/85/85 52/52/52
f 85/85/85 86/86/86 54/54/54
f 87/87/87 88/88/88 57/57/57
f 57/57/57 88/88/88 89/89/89
f 89/89/89 90/90/90 61/61/61
f 90/90/90 91/91/91 62/62/62
f 91/91/91 65/65/65 22/22/22
f 1/1/1 28/28/28 92/92/92
f 4/4/4 29/29/29 93/93/93
f 8/8/8 94/94/94 34/34/34
f 10/10/10 95/95/95 39/39/39
f 13/13/13 45/45/45 44/44/44
f 17/17/17 96/96/96 49/49/49
f 56/56/56 97/97/97 20/20/20
f 69/69/69 1/1/1 3/3/3
f 70/70/70 4/4/4 6/6/6
f 74/74/74 7/7/7 9/9/9
f 77/77/77 10/10/10 12/12/12
f 80/80/80 13/13/13 15/15/15
f 83/83/83 16/16/16 18/18/18
f 87/87/87 19/19/19 21/21/21
f 64/64/64 22/22/22 24/24/24
f 98/98/98 25/25/25 27/27/27
f 92/92/92 24/24/24 2/2/2
f 98/98/98 28/28/28 25/25/25
f 93/93/93 27/27/27 5/5/5
f 99/99/99 29/29/29 30/30/30
f 100/100/100 31/31/31 33/33/33
f 33/33/33 32/32/32 34/34/34
f 94/94/94 8/8/8 36/36/36
f 36/36/36 35/35/35 38/38/38
f 38/38/38 37/37/37 39/39/39
f 95/95/95 10/10/10 41/41/41
f 41/41/41 40/40/40 43/43/43
f 43/43/43 42/42/42 44/44/44
f 47/47/47 45/45/45 46/46/46
f 101/101/101 47/47/47 48/48/48
f 101/101/101 48/48/48 49/49/49
f 96/96/96 17/17/17 51/51/51
f 51/51/51 50/50/50 53/53/53
f 53/53/53 52/52/52 55/55/55
f 58/58/58 56/56/56 57/57/57
f 60/60/60 58/58/58 59/59/59
f 102/102/102 60/60/60 61/61/61
f 102/102/102 61/61/61 63/63/63
f 63/63/63 62/62/62 64/64/64
f 23/23/23 22/22/22 66/66/66
f 26/26/26 25/25/25 68/68/68
f 23/23/23 66/66/66 2/2/2
f 25/25/25 1/1/1 67/67/67
f 26/26/26 68/68/68 5/5/5
f 4/4/4 70/70/70 30/30/30
f 32/32/32 31/31/31 73/73/73
f 9/9/9 32/32/32 74/74/74
f 35/35/35 8/8/8 75/75/75
f 35/35/35 75/75/75 37/37/37
f 11/11/11 37/37/37 12/12/12
f 10/10/10 77/77/77 40/40/40
f 40/40/40 78/78/78 42/42/42
f 14/14/14 42/42/42 15/15/15
f 13/13/13 80/80/80 46/46/46
f 46/46/46 81/81/81 48/48/48
f 48/48/48 82/82/82 18/18/18
f 17/17/17 16/16/16 50/50/50
f 50/50/50 84/84/84 52/52/52
f 52/52/52 85/85/85 54/54/54
f 19/19/19 87/87/87 57/57/57
f 59/59/59 57/57/57 89/89/89
f 59/59/59 89/89/89 61/61/61
f 61/61/61 90/90/90 62/62/62
f 62/62/62 91/91/91 22/22/22
f 2/2/2 1/1/1 92/92/92
f 5/5/5 4/4/4 93/93/93
f 9/9/9 8/8/8 34/34/34
f 11/11/11 10/10/10 39/39/39
f 14/14/14 13/13/13 44/44/44
f 18/18/18 17/17/17 49/49/49
f 19/19/19 56/56/56 20/20/20
