v -0.487456 3.796720 -2.051358
v -0.483495 3.796720 -2.031447
v -0.483495 3.761464 -2.031447
v -0.488621 3.801426 -2.050875
v -0.484756 3.801426 -2.031447
v -0.491803 3.804871 -2.049557
v -0.488201 3.804871 -2.031447
v -0.491803 3.804871 -2.013338
v -0.488621 3.801426 -2.012020
v -0.487456 3.796720 -2.011537
v -0.487456 3.761464 -2.011537
v -0.502061 3.804871 -1.997985
v -0.498734 3.796720 -1.994658
v -0.498734 3.761464 -1.994658
v -0.499625 3.801426 -1.995550
v -0.517414 3.804871 -1.987727
v -0.516095 3.801426 -1.984545
v -0.515613 3.796720 -1.983380
v -0.515613 3.761464 -1.983380
v -0.535523 3.804871 -1.984125
v -0.535523 3.796720 -1.979419
v -0.535523 3.761464 -1.979419
v -0.535523 3.801426 -1.980680
v -0.553632 3.804871 -1.987727
v -0.555433 3.796720 -1.983380
v -0.555433 3.761464 -1.983380
v -0.554951 3.801426 -1.984545
v -0.568985 3.804871 -1.997985
v -0.572312 3.796720 -1.994658
v -0.572312 3.761464 -1.994658
v -0.571421 3.801426 -1.995549
v -0.579243 3.804871 -2.013338
v -0.582425 3.801426 -2.012019
v -0.583590 3.796720 -2.011537
v -0.583590 3.761464 -2.011537
v -0.582845 3.804871 -2.031447
v -0.586290 3.801426 -2.031447
v -0.587551 3.796720 -2.031447
v -0.579243 3.804871 -2.049556
v -0.582426 3.801426 -2.050875
v -0.583590 3.796721 -2.051357
v -0.583590 3.761464 -2.051357
v -0.568985 3.804871 -2.064909
v -0.572312 3.796721 -2.068236
v -0.572312 3.761464 -2.068236
v -0.571421 3.801426 -2.067345
v -0.553633 3.804871 -2.075167
v -0.555433 3.796721 -2.079515
v -0.555433 3.761464 -2.079515
v -0.554951 3.801426 -2.078350
v -0.535523 3.804871 -2.078769
v -0.535523 3.796721 -2.083475
v -0.535523 3.761464 -2.083475
v -0.535523 3.801426 -2.082214
v -0.517414 3.804871 -2.075167
v -0.516096 3.801426 -2.078350
v -0.515613 3.796721 -2.079515
v -0.515613 3.761464 -2.079515
v -0.502061 3.804871 -2.064909
v -0.498734 3.796720 -2.068236
v -0.499626 3.801426 -2.067345
v -0.487456 3.761464 -2.051358
v -0.587551 3.761464 -2.031447
v -0.498734 3.761464 -2.068236
vn 0.916200 0.128500 -0.379500
vn 0.991700 0.128500 0.000000
vn 1.000000 0.000000 0.000000
vn 0.807100 0.486500 -0.334300
vn 0.873700 0.486500 0.000000
vn 0.653300 0.707100 -0.270600
vn 0.707100 0.707100 0.000000
vn 0.653200 0.707100 0.270600
vn 0.807100 0.486500 0.334300
vn 0.916200 0.128500 0.379500
vn 0.923900 0.000000 0.382700
vn 0.500000 0.707100 0.500000
vn 0.701200 0.128500 0.701200
vn 0.707100 0.000000 0.707100
vn 0.617800 0.486500 0.617800
vn 0.270600 0.707200 0.653200
vn 0.334300 0.486600 0.807100
vn 0.379500 0.128500 0.916200
vn 0.382700 0.000000 0.923900
vn 0.000000 0.707100 0.707100
vn 0.000000 0.128500 0.991700
vn 0.000000 0.000000 1.000000
vn 0.000000 0.486500 0.873600
vn -0.270600 0.707100 0.653200
vn -0.379500 0.128500 0.916200
vn -0.382700 0.000000 0.923900
vn -0.334300 0.486500 0.807200
vn -0.500000 0.707100 0.500000
vn -0.701200 0.128500 0.701200
vn -0.707100 -0.000000 0.707100
vn -0.617800 0.486500 0.617800
vn -0.653200 0.707100 0.270600
vn -0.807100 0.486500 0.334300
vn -0.916200 0.128500 0.379500
vn -0.923900 0.000000 0.382700
vn -0.707100 0.707100 0.000000
vn -0.873600 0.486500 0.000000
vn -0.991700 0.128500 0.000000
vn -0.653300 0.707100 -0.270500
vn -0.807200 0.486500 -0.334300
vn -0.916200 0.128500 -0.379500
vn -0.923900 0.000000 -0.382700
vn -0.500000 0.707100 -0.500000
vn -0.701200 0.128500 -0.701300
vn -0.707100 -0.000000 -0.707100
vn -0.617700 0.486500 -0.617800
vn -0.270600 0.707100 -0.653200
vn -0.379500 0.128500 -0.916200
vn -0.382700 0.000000 -0.923900
vn -0.334300 0.486600 -0.807100
vn 0.000000 0.707100 -0.707100
vn 0.000000 0.128500 -0.991700
vn 0.000000 -0.000000 -1.000000
vn 0.000000 0.486600 -0.873600
vn 0.270600 0.707100 -0.653200
vn 0.334300 0.486600 -0.807100
vn 0.379500 0.128500 -0.916200
vn 0.382700 0.000000 -0.923900
vn 0.500000 0.707100 -0.500000
vn 0.701200 0.128500 -0.701200
vn 0.617800 0.486600 -0.617700
vn 0.923900 0.000000 -0.382700
vn -1.000000 -0.000000 0.000000
vn 0.707100 0.000000 -0.707100
vt 0.000000 0.000000
vt 0.000000 0.000000
vt 0.000000 0.000000
vt 0.000000 0.000000
vt 0.000000 0.000000
vt 0.000000 0.000000
vt 0.000000 0.000000
vt 0.000000 0.000000
vt 0.000000 0.000000
vt 0.000000 0.000000
vt 0.000000 0.000000
vt 0.000000 0.000000
vt 0.000000 0.000000
vt 0.000000 0.000000
vt 0.000000 0.000000
vt 0.000000 0.000000
vt 0.000000 0.000000
vt 0.000000 0.000000
vt 0.000000 0.000000
vt 0.000000 0.000000
vt 0.000000 0.000000
vt 0.000000 0.000000
vt 0.000000 0.000000
vt 0.000000 0.000000
vt 0.000000 0.000000
vt 0.000000 0.000000
vt 0.000000 0.000000
vt 0.000000 0.000000
vt 0.000000 0.000000
vt 0.000000 0.000000
vt 0.000000 0.000000
vt 0.000000 0.000000
vt 0.000000 0.000000
vt 0.000000 0.000000
vt 0.000000 0.000000
vt 0.000000 0.000000
vt 0.000000 0.000000
vt 0.000000 0.000000
vt 0.000000 0.000000
vt 0.000000 0.000000
vt 0.000000 0.000000
vt 0.000000 0.000000
vt 0.000000 0.000000
vt 0.000000 0.000000
vt 0.000000 0.000000
vt 0.000000 0.000000
vt 0.000000 0.000000
vt 0.000000 0.000000
vt 0.000000 0.000000
vt 0.000000 0.000000
vt 0.000000 0.000000
vt 0.000000 0.000000
vt 0.000000 0.000000
vt 0.000000 0.000000
vt 0.000000 0.000000
vt 0.000000 0.000000
vt 0.000000 0.000000
vt 0.000000 0.000000
vt 0.000000 0.000000
vt 0.000000 0.000000
vt 0.000000 0.000000
vt 0.000000 0.000000
vt 0.000000 0.000000
vt 0.000000 0.000000
f 1/1/1 2/2/2 3/3/3
f 4/4/4 5/5/5 2/2/2
f 4/4/4 6/6/6 7/7/7
f 7/7/7 8/8/8 9/9/9
f 2/2/2 10/10/10 11/11/11
f 2/2/2 5/5/5 9/9/9
f 9/9/9 8/8/8 12/12/12
f 10/10/10 13/13/13 14/14/14
f 10/10/10 9/9/9 15/15/15
f 12/12/12 16/16/16 17/17/17
f 13/13/13 18/18/18 19/19/19
f 13/13/13 15/15/15 17/17/17
f 17/17/17 16/16/16 20/20/20
f 18/18/18 21/21/21 22/22/22
f 18/18/18 17/17/17 23/23/23
f 23/23/23 20/20/20 24/24/24
f 21/21/21 25/25/25 26/26/26
f 21/21/21 23/23/23 27/27/27
f 27/27/27 24/24/24 28/28/28
f 25/25/25 29/29/29 30/30/30
f 25/25/25 27/27/27 31/31/31
f 28/28/28 32/32/32 33/33/33
f 29/29/29 34/34/34 35/35/35
f 29/29/29 31/31/31 33/33/33
f 32/32/32 36/36/36 37/37/37
f 35/35/35 34/34/34 38/38/38
f 33/33/33 37/37/37 38/38/38
f 36/36/36 39/39/39 40/40/40
f 38/38/38 41/41/41 42/42/42
f 38/38/38 37/37/37 40/40/40
f 40/40/40 39/39/39 43/43/43
f 41/41/41 44/44/44 45/45/45
f 41/41/41 40/40/40 46/46/46
f 46/46/46 43/43/43 47/47/47
f 44/44/44 48/48/48 49/49/49
f 44/44/44 46/46/46 50/50/50
f 50/50/50 47/47/47 51/51/51
f 48/48/48 52/52/52 53/53/53
f 50/50/50 54/54/54 52/52/52
f 51/51/51 55/55/55 56/56/56
f 52/52/52 57/57/57 58/58/58
f 54/54/54 56/56/56 57/57/57
f 56/56/56 55/55/55 59/59/59
f 58/58/58 57/57/57 60/60/60
f 57/57/57 56/56/56 61/61/61
f 61/61/61 59/59/59 6/6/6
f 60/60/60 1/1/1 62/62/62
f 60/60/60 61/61/61 4/4/4
f 62/62/62 1/1/1 3/3/3
f 1/1/1 4/4/4 2/2/2
f 5/5/5 4/4/4 7/7/7
f 5/5/5 7/7/7 9/9/9
f 3/3/3 2/2/2 11/11/11
f 10/10/10 2/2/2 9/9/9
f 15/15/15 9/9/9 12/12/12
f 11/11/11 10/10/10 14/14/14
f 13/13/13 10/10/10 15/15/15
f 15/15/15 12/12/12 17/17/17
f 14/14/14 13/13/13 19/19/19
f 18/18/18 13/13/13 17/17/17
f 23/23/23 17/17/17 20/20/20
f 19/19/19 18/18/18 22/22/22
f 21/21/21 18/18/18 23/23/23
f 27/27/27 23/23/23 24/24/24
f 22/22/22 21/21/21 26/26/26
f 25/25/25 21/21/21 27/27/27
f 31/31/31 27/27/27 28/28/28
f 26/26/26 25/25/25 30/30/30
f 29/29/29 25/25/25 31/31/31
f 31/31/31 28/28/28 33/33/33
f 30/30/30 29/29/29 35/35/35
f 34/34/34 29/29/29 33/33/33
f 33/33/33 32/32/32 37/37/37
f 63/63/63 35/35/35 38/38/38
f 34/34/34 33/33/33 38/38/38
f 37/37/37 36/36/36 40/40/40
f 63/63/63 38/38/38 42/42/42
f 41/41/41 38/38/38 40/40/40
f 46/46/46 40/40/40 43/43/43
f 42/42/42 41/41/41 45/45/45
f 44/44/44 41/41/41 46/46/46
f 50/50/50 46/46/46 47/47/47
f 45/45/45 44/44/44 49/49/49
f 48/48/48 44/44/44 50/50/50
f 54/54/54 50/50/50 51/51/51
f 49/49/49 48/48/48 53/53/53
f 48/48/48 50/50/50 52/52/52
f 54/54/54 51/51/51 56/56/56
f 53/53/53 52/52/52 58/58/58
f 52/52/52 54/54/54 57/57/57
f 61/61/61 56/56/56 59/59/59
f 64/64/64 58/58/58 60/60/60
f 60/60/60 57/57/57 61/61/61
f 4/4/4 61/61/61 6/6/6
f 64/64/64 60/60/60 62/62/62
f 1/1/1 60/60/60 4/4/4
