v -0.491803 3.804871 -2.049557
v -0.496151 3.806131 -2.047756
v -0.492907 3.806131 -2.031447
v -0.529076 3.806131 -2.031447
v -0.529566 3.806131 -2.028980
v -0.488201 3.804871 -2.031447
v -0.496150 3.806131 -2.015139
v -0.530964 3.806131 -2.026888
v -0.491803 3.804871 -2.013338
v -0.505388 3.806131 -2.001313
v -0.533056 3.806131 -2.025491
v -0.519214 3.806131 -1.992075
v -0.502061 3.804871 -1.997985
v -0.535523 3.806131 -2.025000
v -0.535523 3.806131 -1.988831
v -0.535523 3.804871 -1.984125
v -0.537990 3.806131 -2.025490
v -0.551832 3.806131 -1.992074
v -0.553632 3.804871 -1.987727
v -0.540082 3.806131 -2.026888
v -0.565658 3.806131 -2.001312
v -0.541480 3.806131 -2.028980
v -0.568985 3.804871 -1.997985
v -0.574896 3.806131 -2.015138
v -0.541971 3.806131 -2.031447
v -0.578140 3.806131 -2.031447
v -0.582845 3.804871 -2.031447
v -0.541480 3.806131 -2.033914
v -0.574896 3.806131 -2.047756
v -0.540082 3.806131 -2.036006
v -0.579243 3.804871 -2.049556
v -0.565658 3.806131 -2.061582
v -0.537991 3.806131 -2.037404
v -0.551832 3.806131 -2.070820
v -0.553633 3.804871 -2.075167
v -0.535523 3.806131 -2.037895
v -0.535523 3.806131 -2.074064
v -0.535523 3.804871 -2.078769
v -0.533056 3.806131 -2.037404
v -0.519215 3.806131 -2.070820
v -0.517414 3.804871 -2.075167
v -0.530964 3.806131 -2.036006
v -0.505389 3.806131 -2.061582
v -0.502061 3.804871 -2.064909
v -0.529566 3.806131 -2.033915
v -0.517414 3.804871 -1.987727
v -0.579243 3.804871 -2.013338
v -0.568985 3.804871 -2.064909
vn 0.239100 0.965900 -0.099000
vn 0.135300 0.989200 -0.056000
vn 0.146500 0.989200 0.000000
vn 0.000000 1.000000 0.000100
vn 0.000000 1.000000 0.000100
vn 0.258800 0.965900 0.000000
vn 0.135300 0.989200 0.056100
vn 0.000000 1.000000 0.000000
vn 0.239100 0.965900 0.099000
vn 0.103500 0.989200 0.103600
vn 0.000000 1.000000 0.000000
vn 0.056000 0.989200 0.135300
vn 0.183000 0.965900 0.183000
vn 0.000000 1.000000 0.000000
vn 0.000000 0.989200 0.146400
vn 0.000000 0.965900 0.258800
vn 0.000000 1.000000 0.000000
vn -0.056000 0.989200 0.135300
vn -0.099000 0.965900 0.239100
vn 0.000000 1.000000 0.000000
vn -0.103500 0.989200 0.103600
vn 0.000000 1.000000 0.000000
vn -0.183000 0.965900 0.183000
vn -0.135300 0.989200 0.056100
vn 0.000000 1.000000 -0.000100
vn -0.146500 0.989200 0.000000
vn -0.258800 0.965900 0.000000
vn 0.000000 1.000000 -0.000100
vn -0.135300 0.989200 -0.056000
vn 0.000000 1.000000 0.000000
vn -0.239100 0.965900 -0.099000
vn -0.103500 0.989200 -0.103600
vn 0.000000 1.000000 0.000000
vn -0.056000 0.989200 -0.135300
vn -0.099000 0.965900 -0.239100
vn 0.000000 1.000000 0.000000
vn 0.000000 0.989200 -0.146500
vn 0.000000 0.965900 -0.258800
vn 0.000000 1.000000 0.000000
vn 0.056000 0.989200 -0.135300
vn 0.099000 0.965900 -0.239100
vn 0.000000 1.000000 0.000000
vn 0.103500 0.989200 -0.103600
vn 0.183000 0.965900 -0.183000
vn 0.000000 1.000000 0.000000
vn 0.099000 0.965900 0.239100
vn -0.239100 0.965900 0.099000
vn -0.183000 0.965900 -0.183100
vt 0.000000 0.000000
vt 0.000000 0.000000
vt 0.000000 0.000000
vt 0.000000 0.000000
vt 0.000000 0.000000
vt 0.000000 0.000000
vt 0.000000 0.000000
vt 0.000000 0.000000
vt 0.000000 0.000000
vt 0.000000 0.000000
vt 0.000000 0.000000
vt 0.000000 0.000000
vt 0.000000 0.000000
vt 0.000000 0.000000
vt 0.000000 0.000000
vt 0.000000 0.000000
vt 0.000000 0.000000
vt 0.000000 0.000000
vt 0.000000 0.000000
vt 0.000000 0.000000
vt 0.000000 0.000000
vt 0.000000 0.000000
vt 0.000000 0.000000
vt 0.000000 0.000000
vt 0.000000 0.000000
vt 0.000000 0.000000
vt 0.000000 0.000000
vt 0.000000 0.000000
vt 0.000000 0.000000
vt 0.000000 0.000000
vt 0.000000 0.000000
vt 0.000000 0.000000
vt 0.000000 0.000000
vt 0.000000 0.000000
vt 0.000000 0.000000
vt 0.000000 0.000000
vt 0.000000 0.000000
vt 0.000000 0.000000
vt 0.000000 0.000000
vt 0.000000 0.000000
vt 0.000000 0.000000
vt 0.000000 0.000000
vt 0.000000 0.000000
vt 0.000000 0.000000
vt 0.000000 0.000000
vt 0.000000 0.000000
vt 0.000000 0.000000
vt 0.000000 0.000000
f 1/1/1 2/2/2 3/3/3
f 3/3/3 4/4/4 5/5/5
f 6/6/6 3/3/3 7/7/7
f 7/7/7 5/5/5 8/8/8
f 9/9/9 7/7/7 10/10/10
f 8/8/8 11/11/11 12/12/12
f 13/13/13 10/10/10 12/12/12
f 12/12/12 11/11/11 14/14/14
f 12/12/12 15/15/15 16/16/16
f 15/15/15 14/14/14 17/17/17
f 15/15/15 18/18/18 19/19/19
f 18/18/18 17/17/17 20/20/20
f 19/19/19 18/18/18 21/21/21
f 21/21/21 20/20/20 22/22/22
f 23/23/23 21/21/21 24/24/24
f 24/24/24 22/22/22 25/25/25
f 24/24/24 26/26/26 27/27/27
f 26/26/26 25/25/25 28/28/28
f 27/27/27 26/26/26 29/29/29
f 29/29/29 28/28/28 30/30/30
f 31/31/31 29/29/29 32/32/32
f 30/30/30 33/33/33 34/34/34
f 32/32/32 34/34/34 35/35/35
f 34/34/34 33/33/33 36/36/36
f 34/34/34 37/37/37 38/38/38
f 36/36/36 39/39/39 40/40/40
f 37/37/37 40/40/40 41/41/41
f 40/40/40 39/39/39 42/42/42
f 40/40/40 43/43/43 44/44/44
f 2/2/2 45/45/45 4/4/4
f 43/43/43 42/42/42 45/45/45
f 44/44/44 43/43/43 2/2/2
f 6/6/6 1/1/1 3/3/3
f 7/7/7 3/3/3 5/5/5
f 9/9/9 6/6/6 7/7/7
f 10/10/10 7/7/7 8/8/8
f 13/13/13 9/9/9 10/10/10
f 10/10/10 8/8/8 12/12/12
f 46/46/46 13/13/13 12/12/12
f 15/15/15 12/12/12 14/14/14
f 46/46/46 12/12/12 16/16/16
f 18/18/18 15/15/15 17/17/17
f 16/16/16 15/15/15 19/19/19
f 21/21/21 18/18/18 20/20/20
f 23/23/23 19/19/19 21/21/21
f 24/24/24 21/21/21 22/22/22
f 47/47/47 23/23/23 24/24/24
f 26/26/26 24/24/24 25/25/25
f 47/47/47 24/24/24 27/27/27
f 29/29/29 26/26/26 28/28/28
f 31/31/31 27/27/27 29/29/29
f 32/32/32 29/29/29 30/30/30
f 48/48/48 31/31/31 32/32/32
f 32/32/32 30/30/30 34/34/34
f 48/48/48 32/32/32 35/35/35
f 37/37/37 34/34/34 36/36/36
f 35/35/35 34/34/34 38/38/38
f 37/37/37 36/36/36 40/40/40
f 38/38/38 37/37/37 41/41/41
f 43/43/43 40/40/40 42/42/42
f 41/41/41 40/40/40 44/44/44
f 3/3/3 2/2/2 4/4/4
f 2/2/2 43/43/43 45/45/45
f 1/1/1 44/44/44 2/2/2
