v 0.458068 1.836119 -1.535931
v 0.458068 1.692907 -1.535931
v 0.451616 1.698068 -1.535931
v 0.596727 1.836119 -1.535931
v 0.596727 1.890460 -1.535931
v 0.603179 1.885299 -1.535931
v 0.578033 1.836119 -1.535931
v 0.578033 1.900198 -1.535931
v 0.570649 1.836119 -1.535931
v 0.570649 1.903057 -1.535931
v 0.558787 1.836119 -1.535931
v 0.558787 1.906149 -1.535931
v 0.542471 1.836119 -1.535931
v 0.542471 1.908769 -1.535931
v 0.527397 1.836119 -1.535931
v 0.527397 1.909586 -1.535931
v 0.458068 1.890460 -1.535931
v 0.476762 1.900198 -1.535931
v 0.476762 1.836119 -1.535931
v 0.484146 1.903057 -1.535931
v 0.484146 1.836119 -1.535931
v 0.496008 1.836119 -1.535931
v 0.496008 1.677217 -1.535931
v 0.484146 1.680310 -1.535931
v 0.496008 1.906149 -1.535931
v 0.512324 1.908769 -1.535931
v 0.512324 1.836119 -1.535931
v 0.512324 1.908769 -1.535931
v 0.451616 1.885299 -1.535931
v 0.603179 1.698068 -1.535931
v 0.596727 1.692907 -1.535931
v 0.578033 1.683168 -1.535931
v 0.570649 1.680310 -1.535931
v 0.558787 1.677217 -1.535931
v 0.542471 1.674598 -1.535931
v 0.476762 1.683168 -1.535931
v 0.512324 1.674598 -1.535931
v 0.512324 1.836119 -1.535931
v 0.451616 1.836119 -1.535931
v 0.603179 1.836119 -1.535931
v 0.527397 1.673781 -1.535931
v 0.512324 1.674598 -1.535931
vn 0.000000 0.000000 -1.000000
vn 0.000000 0.000000 -1.000000
vn 0.000000 0.000000 -1.000000
vn 0.000000 0.000000 -1.000000
vn 0.000000 0.000000 -1.000000
vn 0.000000 0.000000 -1.000000
vn 0.000000 0.000000 -1.000000
vn 0.000000 0.000000 -1.000000
vn 0.000000 0.000000 -1.000000
vn 0.000000 0.000000 -1.000000
vn 0.000000 0.000000 -1.000000
vn 0.000000 0.000000 -1.000000
vn 0.000000 0.000000 -1.000000
vn 0.000000 0.000000 -1.000000
vn 0.000000 0.000000 -1.000000
vn 0.000000 0.000000 -1.000000
vn 0.000000 0.000000 -1.000000
vn 0.000000 0.000000 -1.000000
vn 0.000000 0.000000 -1.000000
vn 0.000000 0.000000 -1.000000
vn 0.000000 0.000000 -1.000000
vn 0.000000 0.000000 -1.000000
vn 0.000000 0.000000 -1.000000
vn 0.000000 0.000000 -1.000000
vn 0.000000 0.000000 -1.000000
vn 0.000000 0.000000 -1.000000
vn 0.000000 0.000000 -1.000000
vn 0.000000 0.000000 -1.000000
vn 0.000000 0.000000 -1.000000
vn 0.000000 0.000000 -1.000000
vn 0.000000 0.000000 -1.000000
vn 0.000000 0.000000 -1.000000
vn 0.000000 0.000000 -1.000000
vn 0.000000 0.000000 -1.000000
vn 0.000000 0.000000 -1.000000
vn 0.000000 0.000000 -1.000000
vn 0.000000 0.000000 -1.000000
vn 0.000000 0.000000 -1.000000
vn 0.000000 0.000000 -1.000000
vn 0.000000 0.000000 -1.000000
vn 0.000000 0.000000 -1.000000
vn 0.000000 0.000000 -1.000000
vt 0.028846 0.867091
vt 0.032039 0.799977
vt 0.034706 0.802395
vt 0.682699 0.867091
vt 0.683753 0.892557
vt 0.681179 0.890139
vt 0.690263 0.867091
vt 0.691192 0.897121
vt 0.693309 0.867091
vt 0.694143 0.898461
vt 0.698256 0.867091
vt 0.698896 0.899910
vt 0.705141 0.867091
vt 0.705462 0.901138
vt 0.711545 0.867091
vt 0.711545 0.901521
vt 0.027791 0.892557
vt 0.020353 0.897121
vt 0.021281 0.867091
vt 0.017401 0.898461
vt 0.018236 0.867091
vt 0.013289 0.867091
vt 0.015010 0.792624
vt 0.020524 0.794073
vt 0.012649 0.899910
vt 0.006083 0.901138
vt 0.006404 0.867091
vt 0.717627 0.901138
vt 0.030365 0.890139
vt 0.676838 0.802395
vt 0.679506 0.799977
vt 0.687668 0.795413
vt 0.691021 0.794073
vt 0.696535 0.792624
vt 0.704288 0.791396
vt 0.023877 0.795413
vt 0.718801 0.791396
vt 0.717949 0.867091
vt 0.031400 0.867091
vt 0.680145 0.867091
vt 0.711545 0.791013
vt 0.007256 0.791396
f 1/1/1 2/2/2 3/3/3
f 4/4/4 5/5/5 6/6/6
f 7/7/7 8/8/8 5/5/5
f 9/9/9 10/10/10 8/8/8
f 11/11/11 12/12/12 10/10/10
f 13/13/13 14/14/14 12/12/12
f 15/15/15 16/16/16 14/14/14
f 17/17/17 18/18/18 19/19/19
f 18/18/18 20/20/20 21/21/21
f 22/22/22 23/23/23 24/24/24
f 25/25/25 26/26/26 27/27/27
f 28/28/28 16/16/16 15/15/15
f 29/29/29 17/17/17 1/1/1
f 30/30/30 31/31/31 4/4/4
f 7/7/7 4/4/4 31/31/31
f 9/9/9 7/7/7 32/32/32
f 11/11/11 9/9/9 33/33/33
f 13/13/13 11/11/11 34/34/34
f 15/15/15 13/13/13 35/35/35
f 2/2/2 1/1/1 19/19/19
f 36/36/36 19/19/19 21/21/21
f 22/22/22 21/21/21 20/20/20
f 23/23/23 22/22/22 27/27/27
f 37/37/37 38/38/38 15/15/15
f 39/39/39 1/1/1 3/3/3
f 40/40/40 4/4/4 6/6/6
f 4/4/4 7/7/7 5/5/5
f 7/7/7 9/9/9 8/8/8
f 9/9/9 11/11/11 10/10/10
f 11/11/11 13/13/13 12/12/12
f 13/13/13 15/15/15 14/14/14
f 1/1/1 17/17/17 19/19/19
f 19/19/19 18/18/18 21/21/21
f 21/21/21 22/22/22 24/24/24
f 22/22/22 25/25/25 27/27/27
f 38/38/38 28/28/28 15/15/15
f 39/39/39 29/29/29 1/1/1
f 40/40/40 30/30/30 4/4/4
f 32/32/32 7/7/7 31/31/31
f 33/33/33 9/9/9 32/32/32
f 34/34/34 11/11/11 33/33/33
f 35/35/35 13/13/13 34/34/34
f 41/41/41 15/15/15 35/35/35
f 36/36/36 2/2/2 19/19/19
f 24/24/24 36/36/36 21/21/21
f 25/25/25 22/22/22 20/20/20
f 42/42/42 23/23/23 27/27/27
f 41/41/41 37/37/37 15/15/15
