v 0.466841 1.477602 -2.713242
v 0.466841 1.477602 -3.209340
v 0.466841 1.469142 -3.209340
v 0.469520 1.487602 -2.715921
v 0.469520 1.459142 -3.209340
v 0.469520 1.459142 -2.715921
v 0.466841 1.469142 -2.713242
v 0.469520 1.487602 -3.209340
vn -0.992900 0.119100 0.000000
vn -0.991400 0.130500 0.000000
vn -0.991400 -0.130500 0.000000
vn -0.965900 0.258800 0.000000
vn -0.965900 -0.258800 0.000000
vn -0.965900 -0.258800 0.000000
vn -0.992900 -0.119100 0.000000
vn -0.965900 0.258800 0.000000
vt 0.677043 0.683532
vt 0.677043 0.326240
vt 0.689640 0.326242
vt 0.661979 0.681601
vt 0.704702 0.326242
vt 0.704705 0.681604
vt 0.689641 0.683534
vt 0.661978 0.326239
f 1/1/1 2/2/2 3/3/3
f 2/2/2 1/1/1 4/4/4
f 3/3/3 5/5/5 6/6/6
f 7/7/7 1/1/1 3/3/3
f 8/8/8 2/2/2 4/4/4
f 7/7/7 3/3/3 6/6/6
