v 0.563998 0.826846 -1.460150
v 0.559159 0.830878 -1.460150
v 0.558549 0.830878 -1.453954
v 0.547732 0.826846 -1.429718
v 0.545043 0.830878 -1.433741
v 0.539552 0.830878 -1.430806
v 0.496965 0.826846 -1.439816
v 0.500989 0.830878 -1.442504
v 0.498054 0.830878 -1.447995
v 0.557830 0.826846 -1.480484
v 0.553278 0.826846 -1.486031
v 0.549856 0.830878 -1.482609
v 0.557830 0.826846 -1.439816
v 0.553806 0.830878 -1.442504
v 0.549856 0.830878 -1.437691
v 0.563295 0.826846 -1.467291
v 0.561212 0.826846 -1.474157
v 0.556741 0.830878 -1.472305
v 0.501517 0.826846 -1.486031
v 0.496965 0.826846 -1.480484
v 0.500989 0.830878 -1.477796
v 0.491500 0.826846 -1.453010
v 0.496246 0.830878 -1.453954
v 0.495636 0.830878 -1.460150
v 0.504939 0.830878 -1.482609
v 0.509752 0.830878 -1.486559
v 0.513391 0.826846 -1.493965
v 0.507063 0.826846 -1.490583
v 0.547732 0.826846 -1.490583
v 0.541404 0.826846 -1.493965
v 0.539552 0.830878 -1.489494
v 0.561212 0.826846 -1.446144
v 0.556741 0.830878 -1.447995
v 0.507063 0.826846 -1.429718
v 0.513391 0.826846 -1.426335
v 0.515243 0.830878 -1.430806
v 0.545043 0.830878 -1.486559
v 0.501517 0.826846 -1.434269
v 0.509752 0.830878 -1.433741
v 0.541404 0.826846 -1.426335
v 0.533594 0.830878 -1.428999
v 0.563295 0.826846 -1.453010
v 0.504939 0.830878 -1.437691
v 0.493583 0.826846 -1.474157
v 0.498053 0.830878 -1.472305
v 0.534538 0.826846 -1.496048
v 0.533594 0.830878 -1.491301
v 0.491500 0.826846 -1.467291
v 0.490796 0.826846 -1.460150
v 0.553806 0.830878 -1.477796
v 0.515243 0.830878 -1.489494
v 0.521201 0.830878 -1.491301
v 0.527397 0.826846 -1.423549
v 0.534538 0.826846 -1.424252
v 0.520257 0.826846 -1.424252
v 0.527397 0.830878 -1.428388
v 0.493583 0.826846 -1.446144
v 0.521201 0.830878 -1.428999
v 0.527397 0.826846 -1.496751
v 0.520257 0.826846 -1.496048
v 0.496246 0.830878 -1.466347
v 0.553278 0.826846 -1.434269
v 0.527397 0.826846 -1.496751
v 0.527397 0.830878 -1.491912
v 0.558549 0.830878 -1.466347
v 0.577150 0.821497 -1.460150
v 0.555038 0.821497 -1.418782
v 0.486030 0.821497 -1.432509
v 0.562578 0.821497 -1.495330
v 0.562578 0.821497 -1.424970
v 0.568765 0.821497 -1.432509
v 0.576194 0.821497 -1.469856
v 0.573363 0.821497 -1.479190
v 0.492217 0.821497 -1.495330
v 0.486030 0.821497 -1.487791
v 0.478601 0.821497 -1.450444
v 0.508358 0.821497 -1.506115
v 0.499756 0.821497 -1.501518
v 0.555038 0.821497 -1.501518
v 0.546437 0.821497 -1.506115
v 0.573363 0.821497 -1.441111
v 0.508358 0.821497 -1.414185
v 0.499756 0.821497 -1.418782
v 0.537104 0.821497 -1.411354
v 0.546437 0.821497 -1.414185
v 0.576194 0.821497 -1.450444
v 0.492217 0.821497 -1.424970
v 0.481432 0.821497 -1.479190
v 0.537104 0.821497 -1.508947
v 0.477645 0.821497 -1.460150
v 0.568765 0.821497 -1.487791
v 0.517691 0.821497 -1.411354
v 0.527397 0.821497 -1.410398
v 0.481432 0.821497 -1.441111
v 0.517691 0.821497 -1.508947
v 0.478601 0.821497 -1.469856
v 0.527397 0.821497 -1.509903
v 0.527397 0.830878 -1.491912
v 0.527397 0.821497 -1.509903
vn 0.507400 0.861700 0.000000
vn 0.640100 0.768300 0.000000
vn 0.627800 0.768300 0.124900
vn 0.281900 0.861700 0.421900
vn 0.355600 0.768300 0.532200
vn 0.244900 0.768300 0.591400
vn -0.421900 0.861700 0.281900
vn -0.532200 0.768300 0.355600
vn -0.591400 0.768300 0.244900
vn 0.421900 0.861700 -0.281900
vn 0.358800 0.861700 -0.358800
vn 0.452600 0.768300 -0.452600
vn 0.421900 0.861700 0.281900
vn 0.532200 0.768300 0.355600
vn 0.452600 0.768300 0.452600
vn 0.497600 0.861700 -0.099000
vn 0.468800 0.861700 -0.194200
vn 0.591400 0.768300 -0.244900
vn -0.358800 0.861700 -0.358800
vn -0.421900 0.861700 -0.281900
vn -0.532200 0.768300 -0.355600
vn -0.497600 0.861700 0.099000
vn -0.627800 0.768300 0.124900
vn -0.640100 0.768300 0.000000
vn -0.452600 0.768300 -0.452600
vn -0.355600 0.768300 -0.532200
vn -0.194200 0.861700 -0.468800
vn -0.281900 0.861700 -0.421900
vn 0.281900 0.861700 -0.421900
vn 0.194200 0.861700 -0.468800
vn 0.244900 0.768300 -0.591400
vn 0.468800 0.861700 0.194200
vn 0.591400 0.768300 0.244900
vn -0.281900 0.861700 0.421900
vn -0.194200 0.861700 0.468800
vn -0.244900 0.768300 0.591400
vn 0.355600 0.768300 -0.532200
vn -0.358800 0.861700 0.358800
vn -0.355600 0.768300 0.532200
vn 0.194200 0.861700 0.468800
vn 0.124900 0.768300 0.627800
vn 0.497600 0.861700 0.099000
vn -0.452600 0.768300 0.452600
vn -0.468800 0.861700 -0.194200
vn -0.591400 0.768300 -0.244900
vn 0.099000 0.861700 -0.497600
vn 0.124900 0.768300 -0.627800
vn -0.497600 0.861700 -0.099000
vn -0.507400 0.861700 0.000000
vn 0.532200 0.768300 -0.355600
vn -0.244900 0.768300 -0.591400
vn -0.124900 0.768300 -0.627800
vn 0.000000 0.861700 0.507400
vn 0.099000 0.861700 0.497600
vn -0.099000 0.861700 0.497600
vn 0.000000 0.768300 0.640100
vn -0.468800 0.861700 0.194200
vn -0.124900 0.768300 0.627800
vn 0.000000 0.861700 -0.507400
vn -0.099000 0.861700 -0.497600
vn -0.627800 0.768300 -0.124900
vn 0.358800 0.861700 0.358800
vn 0.000000 0.861700 -0.507400
vn 0.000000 0.768300 -0.640100
vn 0.627800 0.768300 -0.124900
vn 0.376700 0.926300 0.000000
vn 0.209300 0.926300 0.313200
vn -0.313200 0.926300 0.209300
vn 0.266400 0.926300 -0.266400
vn 0.266400 0.926300 0.266400
vn 0.313200 0.926300 0.209300
vn 0.369500 0.926300 -0.073500
vn 0.348000 0.926300 -0.144200
vn -0.266400 0.926300 -0.266400
vn -0.313200 0.926300 -0.209300
vn -0.369500 0.926300 0.073500
vn -0.144200 0.926300 -0.348000
vn -0.209300 0.926300 -0.313200
vn 0.209300 0.926300 -0.313200
vn 0.144200 0.926300 -0.348000
vn 0.348000 0.926300 0.144100
vn -0.144100 0.926300 0.348000
vn -0.209300 0.926300 0.313200
vn 0.073500 0.926300 0.369500
vn 0.144100 0.926300 0.348000
vn 0.369500 0.926300 0.073500
vn -0.266400 0.926300 0.266400
vn -0.348000 0.926300 -0.144100
vn 0.073500 0.926300 -0.369500
vn -0.376700 0.926300 0.000000
vn 0.313200 0.926300 -0.209300
vn -0.073500 0.926300 0.369500
vn 0.000000 0.926300 0.376700
vn -0.348000 0.926300 0.144200
vn -0.073500 0.926300 -0.369500
vn -0.369500 0.926300 -0.073500
vn 0.000000 0.926300 -0.376700
vn 0.000000 0.768300 -0.640100
vn 0.000000 0.926300 -0.376700
vt 0.521583 0.401132
vt 0.522515 0.403021
vt 0.501091 0.403596
vt 0.417148 0.403953
vt 0.417603 0.405470
vt 0.396973 0.405742
vt 0.253199 0.403017
vt 0.252494 0.404657
vt 0.231581 0.404148
vt 0.588562 0.399247
vt 0.612086 0.398733
vt 0.612871 0.400939
vt 0.458345 0.403017
vt 0.459051 0.404657
vt 0.438282 0.405103
vt 0.543373 0.400470
vt 0.565673 0.399834
vt 0.566612 0.401895
vt 0.099459 0.398733
vt 0.122983 0.399247
vt 0.122099 0.401386
vt 0.211335 0.401794
vt 0.210454 0.403596
vt 0.189029 0.403021
vt 0.098674 0.400939
vt 0.074658 0.400573
vt 0.050568 0.397997
vt 0.075299 0.398311
vt 0.636246 0.398311
vt 0.660977 0.397997
vt 0.661432 0.400301
vt 0.479159 0.402430
vt 0.479964 0.404148
vt 0.294396 0.403953
vt 0.314881 0.404267
vt 0.314572 0.405742
vt 0.636887 0.400573
vt 0.273850 0.403531
vt 0.293942 0.405470
vt 0.396663 0.404267
vt 0.376368 0.405909
vt 0.500209 0.401794
vt 0.273262 0.405103
vt 0.145871 0.399834
vt 0.144933 0.401895
vt 0.686143 0.397804
vt 0.686379 0.400134
vt 0.168171 0.400470
vt 0.189962 0.401132
vt 0.589445 0.401386
vt 0.050112 0.400301
vt 0.025165 0.400134
vt 0.355772 0.404525
vt 0.376211 0.404460
vt 0.335334 0.404460
vt 0.355772 0.405966
vt 0.232386 0.402430
vt 0.335177 0.405909
vt 0.000000 0.397739
vt 0.025402 0.397804
vt 0.167218 0.402447
vt 0.437695 0.403531
vt 0.711545 0.397739
vt 0.711545 0.400077
vt 0.544326 0.402447
vt 0.522416 0.398625
vt 0.417554 0.402460
vt 0.252570 0.401188
vt 0.612787 0.395364
vt 0.438219 0.401887
vt 0.458975 0.401188
vt 0.544225 0.397726
vt 0.566512 0.396860
vt 0.098757 0.395364
vt 0.122194 0.396063
vt 0.210548 0.399525
vt 0.050161 0.394364
vt 0.074726 0.394791
vt 0.636819 0.394791
vt 0.661384 0.394364
vt 0.479877 0.400390
vt 0.314605 0.402886
vt 0.293991 0.402460
vt 0.376351 0.403149
vt 0.396940 0.402886
vt 0.500997 0.399525
vt 0.273326 0.401887
vt 0.145033 0.396860
vt 0.686354 0.394102
vt 0.189129 0.398625
vt 0.589351 0.396063
vt 0.335194 0.403149
vt 0.355772 0.403237
vt 0.231667 0.400390
vt 0.025190 0.394102
vt 0.167320 0.397726
vt 0.711545 0.394013
vt 0.000000 0.400077
vt 0.000000 0.394013
f 1/1/1 2/2/2 3/3/3
f 4/4/4 5/5/5 6/6/6
f 7/7/7 8/8/8 9/9/9
f 10/10/10 11/11/11 12/12/12
f 13/13/13 14/14/14 15/15/15
f 16/16/16 17/17/17 18/18/18
f 19/19/19 20/20/20 21/21/21
f 22/22/22 23/23/23 24/24/24
f 19/19/19 25/25/25 26/26/26
f 27/27/27 28/28/28 26/26/26
f 29/29/29 30/30/30 31/31/31
f 32/32/32 33/33/33 14/14/14
f 34/34/34 35/35/35 36/36/36
f 29/29/29 37/37/37 12/12/12
f 38/38/38 34/34/34 39/39/39
f 40/40/40 6/6/6 41/41/41
f 42/42/42 3/3/3 33/33/33
f 7/7/7 38/38/38 43/43/43
f 20/20/20 44/44/44 45/45/45
f 30/30/30 46/46/46 47/47/47
f 48/48/48 49/49/49 24/24/24
f 17/17/17 10/10/10 50/50/50
f 27/27/27 51/51/51 52/52/52
f 53/53/53 54/54/54 41/41/41
f 55/55/55 53/53/53 56/56/56
f 22/22/22 57/57/57 9/9/9
f 55/55/55 58/58/58 36/36/36
f 59/59/59 60/60/60 52/52/52
f 44/44/44 48/48/48 61/61/61
f 4/4/4 62/62/62 15/15/15
f 63/63/63 64/64/64 47/47/47
f 1/1/1 16/16/16 65/65/65
f 66/66/66 1/1/1 42/42/42
f 67/67/67 4/4/4 40/40/40
f 68/68/68 7/7/7 57/57/57
f 69/69/69 11/11/11 10/10/10
f 70/70/70 71/71/71 13/13/13
f 72/72/72 73/73/73 17/17/17
f 74/74/74 75/75/75 20/20/20
f 76/76/76 22/22/22 49/49/49
f 74/74/74 19/19/19 28/28/28
f 77/77/77 78/78/78 28/28/28
f 79/79/79 80/80/80 30/30/30
f 81/81/81 32/32/32 13/13/13
f 82/82/82 35/35/35 34/34/34
f 69/69/69 79/79/79 29/29/29
f 83/83/83 34/34/34 38/38/38
f 84/84/84 85/85/85 40/40/40
f 81/81/81 86/86/86 42/42/42
f 68/68/68 87/87/87 38/38/38
f 88/88/88 44/44/44 20/20/20
f 80/80/80 89/89/89 46/46/46
f 90/90/90 49/49/49 48/48/48
f 91/91/91 10/10/10 17/17/17
f 77/77/77 27/27/27 60/60/60
f 84/84/84 54/54/54 53/53/53
f 92/92/92 93/93/93 53/53/53
f 94/94/94 57/57/57 22/22/22
f 92/92/92 55/55/55 35/35/35
f 95/95/95 60/60/60 59/59/59
f 96/96/96 48/48/48 44/44/44
f 70/70/70 62/62/62 4/4/4
f 97/97/97 63/63/63 46/46/46
f 72/72/72 16/16/16 1/1/1
f 42/42/42 1/1/1 3/3/3
f 40/40/40 4/4/4 6/6/6
f 57/57/57 7/7/7 9/9/9
f 50/50/50 10/10/10 12/12/12
f 62/62/62 13/13/13 15/15/15
f 65/65/65 16/16/16 18/18/18
f 25/25/25 19/19/19 21/21/21
f 49/49/49 22/22/22 24/24/24
f 28/28/28 19/19/19 26/26/26
f 51/51/51 27/27/27 26/26/26
f 37/37/37 29/29/29 31/31/31
f 13/13/13 32/32/32 14/14/14
f 39/39/39 34/34/34 36/36/36
f 11/11/11 29/29/29 12/12/12
f 43/43/43 38/38/38 39/39/39
f 54/54/54 40/40/40 41/41/41
f 32/32/32 42/42/42 33/33/33
f 8/8/8 7/7/7 43/43/43
f 21/21/21 20/20/20 45/45/45
f 31/31/31 30/30/30 47/47/47
f 61/61/61 48/48/48 24/24/24
f 18/18/18 17/17/17 50/50/50
f 60/60/60 27/27/27 52/52/52
f 56/56/56 53/53/53 41/41/41
f 58/58/58 55/55/55 56/56/56
f 23/23/23 22/22/22 9/9/9
f 35/35/35 55/55/55 36/36/36
f 98/98/98 59/59/59 52/52/52
f 45/45/45 44/44/44 61/61/61
f 5/5/5 4/4/4 15/15/15
f 46/46/46 63/63/63 47/47/47
f 2/2/2 1/1/1 65/65/65
f 86/86/86 66/66/66 42/42/42
f 85/85/85 67/67/67 40/40/40
f 94/94/94 68/68/68 57/57/57
f 91/91/91 69/69/69 10/10/10
f 62/62/62 70/70/70 13/13/13
f 16/16/16 72/72/72 17/17/17
f 19/19/19 74/74/74 20/20/20
f 90/90/90 76/76/76 49/49/49
f 78/78/78 74/74/74 28/28/28
f 27/27/27 77/77/77 28/28/28
f 29/29/29 79/79/79 30/30/30
f 71/71/71 81/81/81 13/13/13
f 83/83/83 82/82/82 34/34/34
f 11/11/11 69/69/69 29/29/29
f 87/87/87 83/83/83 38/38/38
f 54/54/54 84/84/84 40/40/40
f 32/32/32 81/81/81 42/42/42
f 7/7/7 68/68/68 38/38/38
f 75/75/75 88/88/88 20/20/20
f 30/30/30 80/80/80 46/46/46
f 96/96/96 90/90/90 48/48/48
f 73/73/73 91/91/91 17/17/17
f 95/95/95 77/77/77 60/60/60
f 93/93/93 84/84/84 53/53/53
f 55/55/55 92/92/92 53/53/53
f 76/76/76 94/94/94 22/22/22
f 82/82/82 92/92/92 35/35/35
f 99/99/99 95/95/95 59/59/59
f 88/88/88 96/96/96 44/44/44
f 67/67/67 70/70/70 4/4/4
f 89/89/89 97/97/97 46/46/46
f 66/66/66 72/72/72 1/1/1
