v -0.345355 2.380899 -3.645437
v 0.090743 2.380899 -3.645437
v 0.090743 2.380899 -5.178236
v -0.345355 2.380899 -3.209751
v 0.090743 2.380899 -3.209751
v 0.090743 2.380899 -5.178236
v 0.090743 2.380899 -3.645437
v 0.130743 2.380899 -3.645437
v 0.140743 2.378220 -5.178236
v 0.130743 2.380899 -5.178236
v 0.140743 2.378220 -3.645437
v 0.130743 2.380899 -3.169751
v 0.090743 2.380899 -3.209751
v 0.140743 2.378220 -3.159751
v 0.130743 2.380899 -3.169751
v -0.385355 2.380899 -3.169751
v -0.395355 2.378220 -3.209751
v -0.395355 2.378220 -3.159751
v -0.385355 2.380899 -3.169751
v -0.345355 2.380899 -3.209751
v -0.385355 2.380899 -3.209751
v 0.090743 2.380899 -3.209751
v -0.345355 2.380899 -3.209751
v -0.345355 2.380899 -5.178236
v 0.140743 2.378220 -3.159751
v -0.395355 2.378220 -3.159751
vn 0.000000 1.000000 0.000000
vn 0.000000 1.000000 0.000000
vn 0.000000 1.000000 0.000000
vn 0.000000 1.000000 0.000000
vn 0.000000 1.000000 0.000000
vn 0.000000 1.000000 0.000000
vn 0.000000 1.000000 0.000000
vn 0.130500 0.991400 0.000000
vn 0.258800 0.965900 0.000000
vn 0.130500 0.991400 0.000000
vn 0.258800 0.965900 0.000000
vn 0.098400 0.990200 0.098400
vn 0.000000 1.000000 0.000000
vn 0.131600 0.982500 0.131600
vn 0.098400 0.990200 0.098400
vn -0.098400 0.990200 0.098400
vn -0.258800 0.965900 0.000000
vn -0.131600 0.982500 0.131600
vn -0.098400 0.990200 0.098400
vn 0.000000 1.000000 0.000000
vn -0.130500 0.991400 0.000000
vn 0.000000 1.000000 0.000000
vn 0.000000 1.000000 0.000000
vn 0.000000 1.000000 0.000000
vn 0.131600 0.982500 0.131600
vn -0.131600 0.982500 0.131600
vt 0.863090 0.748308
vt 0.131160 0.748308
vt 0.131161 0.059805
vt 0.863090 0.944009
vt 0.131161 0.944009
vt 0.818718 0.050556
vt 0.828774 0.576146
vt 0.807651 0.576676
vt 0.789464 0.050947
vt 0.801176 0.050761
vt 0.797227 0.576802
vt 0.819185 0.919480
vt 0.854816 0.889521
vt 0.723251 0.730902
vt 0.712416 0.722718
vt 0.712416 0.300341
vt 0.799599 0.611283
vt 0.850775 0.506795
vt 0.873813 0.549571
vt 0.806945 0.684918
vt 0.806252 0.626249
vt 0.670552 0.689982
vt 0.670553 0.333077
vt 0.863090 0.059805
vt 0.809875 0.926936
vt 0.723252 0.292156
f 1/1/1 2/2/2 3/3/3
f 4/4/4 5/5/5 2/2/2
f 6/6/6 7/7/7 8/8/8
f 9/9/9 10/10/10 8/8/8
f 11/11/11 8/8/8 12/12/12
f 13/13/13 12/12/12 8/8/8
f 14/14/14 15/15/15 16/16/16
f 17/17/17 18/18/18 19/19/19
f 19/19/19 20/20/20 21/21/21
f 22/22/22 23/23/23 16/16/16
f 24/24/24 1/1/1 3/3/3
f 1/1/1 4/4/4 2/2/2
f 10/10/10 6/6/6 8/8/8
f 11/11/11 9/9/9 8/8/8
f 25/25/25 11/11/11 12/12/12
f 7/7/7 13/13/13 8/8/8
f 26/26/26 14/14/14 16/16/16
f 21/21/21 17/17/17 19/19/19
f 15/15/15 22/22/22 16/16/16
