v -1.605136 4.727760 -3.132020
v -1.605136 4.722600 -3.138472
v -1.605136 4.865812 -3.138472
v -1.605136 4.914992 -3.283582
v -1.605136 4.920152 -3.277131
v -1.605136 4.865812 -3.277131
v -1.605136 4.929891 -3.258436
v -1.605136 4.865812 -3.258436
v -1.605136 4.932749 -3.251053
v -1.605136 4.865812 -3.251053
v -1.605136 4.865812 -3.239191
v -1.605136 4.706910 -3.239191
v -1.605136 4.710003 -3.251053
v -1.605136 4.935842 -3.239191
v -1.605136 4.938461 -3.222875
v -1.605136 4.865812 -3.222875
v -1.605136 4.939279 -3.207801
v -1.605136 4.865812 -3.207801
v -1.605136 4.712861 -3.157166
v -1.605136 4.865812 -3.157166
v -1.605136 4.710003 -3.164550
v -1.605136 4.865812 -3.164550
v -1.605136 4.865812 -3.176412
v -1.605136 4.935842 -3.176412
v -1.605136 4.932749 -3.164550
v -1.605136 4.706910 -3.176412
v -1.605136 4.704290 -3.192727
v -1.605136 4.865812 -3.192727
v -1.605136 4.703474 -3.207801
v -1.605136 4.914992 -3.132020
v -1.605136 4.865812 -3.132020
v -1.605136 4.727760 -3.283582
v -1.605136 4.865812 -3.283582
v -1.605136 4.722600 -3.277131
v -1.605136 4.712861 -3.258436
v -1.605136 4.704290 -3.222875
v -1.605136 4.920152 -3.138472
v -1.605136 4.929891 -3.157166
v -1.605136 4.938461 -3.192727
vn 1.000000 0.000000 0.000000
vn 1.000000 0.000000 0.000000
vn 1.000000 0.000000 0.000000
vn 1.000000 0.000000 0.000000
vn 1.000000 0.000000 0.000000
vn 1.000000 0.000000 0.000000
vn 1.000000 0.000000 0.000000
vn 1.000000 0.000000 0.000000
vn 1.000000 0.000000 0.000000
vn 1.000000 0.000000 0.000000
vn 1.000000 0.000000 0.000000
vn 1.000000 0.000000 0.000000
vn 1.000000 0.000000 0.000000
vn 1.000000 0.000000 0.000000
vn 1.000000 0.000000 0.000000
vn 1.000000 0.000000 0.000000
vn 1.000000 0.000000 0.000000
vn 1.000000 0.000000 0.000000
vn 1.000000 0.000000 0.000000
vn 1.000000 0.000000 0.000000
vn 1.000000 0.000000 0.000000
vn 1.000000 0.000000 0.000000
vn 1.000000 0.000000 0.000000
vn 1.000000 0.000000 0.000000
vn 1.000000 0.000000 0.000000
vn 1.000000 0.000000 0.000000
vn 1.000000 0.000000 0.000000
vn 1.000000 0.000000 0.000000
vn 1.000000 0.000000 0.000000
vn 1.000000 0.000000 0.000000
vn 1.000000 0.000000 0.000000
vn 1.000000 0.000000 0.000000
vn 1.000000 0.000000 0.000000
vn 1.000000 0.000000 0.000000
vn 1.000000 0.000000 0.000000
vn 1.000000 0.000000 0.000000
vn 1.000000 0.000000 0.000000
vn 1.000000 0.000000 0.000000
vn 1.000000 0.000000 0.000000
vt 0.531855 0.804573
vt 0.531446 0.804093
vt 0.527171 0.856754
vt 0.510999 0.906730
vt 0.511742 0.907210
vt 0.512494 0.887228
vt 0.513846 0.906682
vt 0.514859 0.883119
vt 0.514648 0.906110
vt 0.515754 0.881497
vt 0.517150 0.878890
vt 0.520806 0.820460
vt 0.519112 0.824204
vt 0.515916 0.904641
vt 0.517605 0.902018
vt 0.518986 0.875304
vt 0.519121 0.899006
vt 0.520601 0.871991
vt 0.530002 0.804621
vt 0.525527 0.860862
vt 0.529363 0.805192
vt 0.524853 0.862485
vt 0.523740 0.865092
vt 0.522179 0.890843
vt 0.523311 0.887099
vt 0.528243 0.806662
vt 0.526556 0.809285
vt 0.522145 0.868678
vt 0.524847 0.812297
vt 0.526490 0.873420
vt 0.527718 0.855336
vt 0.513932 0.837883
vt 0.511643 0.888646
vt 0.515028 0.834567
vt 0.518001 0.826878
vt 0.522986 0.815911
vt 0.525835 0.876735
vt 0.524022 0.884425
vt 0.520603 0.895392
f 1/1/1 2/2/2 3/3/3
f 4/4/4 5/5/5 6/6/6
f 5/5/5 7/7/7 8/8/8
f 7/7/7 9/9/9 10/10/10
f 11/11/11 12/12/12 13/13/13
f 14/14/14 15/15/15 16/16/16
f 15/15/15 17/17/17 18/18/18
f 2/2/2 19/19/19 20/20/20
f 19/19/19 21/21/21 22/22/22
f 23/23/23 24/24/24 25/25/25
f 26/26/26 27/27/27 28/28/28
f 27/27/27 29/29/29 18/18/18
f 30/30/30 31/31/31 3/3/3
f 32/32/32 33/33/33 6/6/6
f 34/34/34 6/6/6 8/8/8
f 35/35/35 8/8/8 10/10/10
f 11/11/11 10/10/10 9/9/9
f 12/12/12 11/11/11 16/16/16
f 36/36/36 16/16/16 18/18/18
f 37/37/37 3/3/3 20/20/20
f 38/38/38 20/20/20 22/22/22
f 23/23/23 22/22/22 21/21/21
f 24/24/24 23/23/23 28/28/28
f 39/39/39 28/28/28 18/18/18
f 31/31/31 1/1/1 3/3/3
f 33/33/33 4/4/4 6/6/6
f 6/6/6 5/5/5 8/8/8
f 8/8/8 7/7/7 10/10/10
f 10/10/10 11/11/11 13/13/13
f 11/11/11 14/14/14 16/16/16
f 16/16/16 15/15/15 18/18/18
f 3/3/3 2/2/2 20/20/20
f 20/20/20 19/19/19 22/22/22
f 22/22/22 23/23/23 25/25/25
f 23/23/23 26/26/26 28/28/28
f 28/28/28 27/27/27 18/18/18
f 37/37/37 30/30/30 3/3/3
f 34/34/34 32/32/32 6/6/6
f 35/35/35 34/34/34 8/8/8
f 13/13/13 35/35/35 10/10/10
f 14/14/14 11/11/11 9/9/9
f 36/36/36 12/12/12 16/16/16
f 29/29/29 36/36/36 18/18/18
f 38/38/38 37/37/37 20/20/20
f 25/25/25 38/38/38 22/22/22
f 26/26/26 23/23/23 21/21/21
f 39/39/39 24/24/24 28/28/28
f 17/17/17 39/39/39 18/18/18
