v -1.708508 4.809759 0.853258
v -1.708508 4.813372 0.853258
v -1.708511 4.813373 -3.175178
v -1.634141 4.826327 -3.175178
v -1.634138 4.826326 0.853343
v -1.634138 4.813372 0.853258
v -1.730263 4.813373 0.853258
v -1.730263 4.826327 0.853343
v -1.730266 4.826327 -3.175178
v -1.708508 4.809759 0.853258
v -1.708512 4.809760 -3.175178
v -1.653736 4.809760 -3.175178
v -1.730263 4.813373 0.853258
v -1.730267 4.813373 -3.175178
v -1.708511 4.813373 -3.175178
v -1.653733 4.809759 0.853258
v -1.653736 4.809760 -3.175178
v -1.653736 4.813373 -3.175178
v -1.653733 4.813372 0.853258
v -1.653736 4.813373 -3.175178
v -1.634141 4.813373 -3.175178
v -1.708512 4.809760 -3.175178
v -1.708508 4.809759 0.853258
v -1.708511 4.813373 -3.175178
v -1.634141 4.813373 -3.175178
v -1.730267 4.813373 -3.175178
v -1.653733 4.809759 0.853258
v -1.708508 4.813372 0.853258
v -1.653733 4.813372 0.853258
v -1.634138 4.813372 0.853258
vn -1.000000 0.000000 0.000000
vn -1.000000 0.000000 0.000000
vn -1.000000 0.000000 0.000000
vn 1.000000 -0.000000 -0.000000
vn 1.000000 -0.000000 -0.000000
vn 1.000000 -0.000000 -0.000000
vn -1.000000 0.000000 0.000000
vn -1.000000 0.000000 0.000000
vn -1.000000 0.000000 0.000000
vn -0.000000 -1.000000 -0.000000
vn -0.000000 -1.000000 -0.000000
vn -0.000000 -1.000000 -0.000000
vn -0.000000 -1.000000 -0.000000
vn -0.000000 -1.000000 -0.000000
vn -0.000000 -1.000000 -0.000000
vn 1.000000 -0.000000 -0.000000
vn 1.000000 -0.000000 -0.000000
vn 1.000000 -0.000000 -0.000000
vn -0.000000 -1.000000 -0.000000
vn -0.000000 -1.000000 -0.000000
vn -0.000000 -1.000000 -0.000000
vn -1.000000 0.000100 0.000000
vn -1.000000 0.000100 0.000000
vn -1.000000 0.000100 0.000000
vn 1.000000 -0.000000 -0.000000
vn -1.000000 0.000000 0.000000
vn -0.000000 -1.000000 -0.000000
vn -0.000000 -1.000000 -0.000000
vn 1.000000 -0.000000 -0.000000
vn -0.000000 -1.000000 -0.000000
vt 0.859065 0.961208
vt 0.828355 0.961337
vt 0.828355 0.113953
vt 0.987390 0.078220
vt 0.987390 0.961567
vt 0.955377 0.961419
vt 0.797650 0.961137
vt 0.766941 0.961231
vt 0.766939 0.113877
vt 0.859343 0.960831
vt 0.859346 0.077413
vt 0.891362 0.077531
vt 0.797650 0.961137
vt 0.797650 0.113752
vt 0.828355 0.113953
vt 0.891359 0.960949
vt 0.891362 0.077531
vt 0.923370 0.077786
vt 0.923366 0.961204
vt 0.923370 0.077786
vt 0.955380 0.078002
vt 0.859066 0.113824
vt 0.859065 0.961208
vt 0.828355 0.113953
vt 0.955380 0.078002
vt 0.797650 0.113752
vt 0.891359 0.960949
vt 0.828355 0.961337
vt 0.923366 0.961204
vt 0.955377 0.961419
f 1/1/1 2/2/2 3/3/3
f 4/4/4 5/5/5 6/6/6
f 7/7/7 8/8/8 9/9/9
f 10/10/10 11/11/11 12/12/12
f 13/13/13 14/14/14 15/15/15
f 16/16/16 17/17/17 18/18/18
f 19/19/19 20/20/20 21/21/21
f 22/22/22 23/23/23 24/24/24
f 25/25/25 4/4/4 6/6/6
f 26/26/26 7/7/7 9/9/9
f 27/27/27 10/10/10 12/12/12
f 28/28/28 13/13/13 15/15/15
f 29/29/29 16/16/16 18/18/18
f 30/30/30 19/19/19 21/21/21
