v 0.090743 2.332440 -3.209751
v 0.090743 2.332440 -3.645437
v 0.130743 2.332440 -3.645437
v 0.090743 2.332440 -5.178236
v 0.130743 2.332440 -5.178236
v 0.140743 2.335120 -3.645437
v 0.140743 2.335120 -3.159751
v 0.130743 2.332440 -3.169751
v 0.140743 2.335120 -5.178236
v 0.140743 2.335120 -3.159751
v -0.395355 2.335120 -3.159751
v -0.385355 2.332440 -3.169751
v -0.385355 2.332440 -3.169751
v -0.395355 2.335120 -3.159751
v -0.395355 2.335120 -3.209751
v 0.130743 2.332440 -3.169751
v -0.345355 2.332440 -3.209751
v -0.345355 2.332440 -3.209751
v -0.385355 2.332440 -3.209751
v 0.090743 2.332440 -3.209751
vn 0.000000 -1.000000 0.000000
vn 0.000000 -1.000000 0.000000
vn 0.130500 -0.991400 0.000000
vn 0.000000 -1.000000 0.000000
vn 0.130500 -0.991400 0.000000
vn 0.258800 -0.965900 0.000000
vn 0.131600 -0.982500 0.131600
vn 0.098400 -0.990200 0.098400
vn 0.258800 -0.965900 0.000000
vn 0.131600 -0.982500 0.131600
vn -0.131600 -0.982500 0.131600
vn -0.098400 -0.990200 0.098500
vn -0.098400 -0.990200 0.098500
vn -0.131600 -0.982500 0.131600
vn -0.258800 -0.965900 0.000000
vn 0.098400 -0.990200 0.098400
vn 0.000000 -1.000000 0.000000
vn 0.000000 -1.000000 0.000000
vn -0.130500 -0.991400 0.000000
vn 0.000000 -1.000000 0.000000
vt 0.716531 0.892102
vt 0.714860 0.579145
vt 0.736075 0.578358
vt 0.701665 0.052037
vt 0.719228 0.051924
vt 0.746502 0.577980
vt 0.763767 0.927892
vt 0.753969 0.920827
vt 0.730947 0.051748
vt 0.776748 0.730921
vt 0.776749 0.292175
vt 0.787584 0.300359
vt 0.636507 0.545572
vt 0.663421 0.503741
vt 0.709980 0.614722
vt 0.787584 0.722736
vt 0.829448 0.333095
vt 0.688804 0.701839
vt 0.697870 0.628969
vt 0.829448 0.690000
f 1/1/1 2/2/2 3/3/3
f 4/4/4 5/5/5 3/3/3
f 6/6/6 7/7/7 8/8/8
f 5/5/5 9/9/9 6/6/6
f 10/10/10 11/11/11 12/12/12
f 13/13/13 14/14/14 15/15/15
f 16/16/16 12/12/12 17/17/17
f 18/18/18 13/13/13 19/19/19
f 8/8/8 1/1/1 3/3/3
f 2/2/2 4/4/4 3/3/3
f 3/3/3 6/6/6 8/8/8
f 3/3/3 5/5/5 6/6/6
f 16/16/16 10/10/10 12/12/12
f 19/19/19 13/13/13 15/15/15
f 20/20/20 16/16/16 17/17/17
