v -1.748455 4.699665 -3.221235
v -1.749778 4.699665 -3.207801
v -1.756698 4.703474 -3.207801
v -1.744537 4.699665 -3.234153
v -1.756698 4.704290 -3.222875
v -1.738173 4.699665 -3.246058
v -1.756698 4.706910 -3.239191
v -1.756698 4.710003 -3.251053
v -1.756698 4.712861 -3.258437
v -1.753790 4.710003 -3.256494
v -1.742891 4.710003 -3.269775
v -1.729609 4.699665 -3.256494
v -1.750247 4.722600 -3.283582
v -1.731552 4.712861 -3.283582
v -1.729609 4.710003 -3.280674
v -1.724169 4.710003 -3.283582
v -1.719174 4.699665 -3.265057
v -1.712307 4.706910 -3.283582
v -1.707269 4.699665 -3.271421
v -1.695991 4.704290 -3.283582
v -1.694351 4.699665 -3.275339
v -1.680917 4.703474 -3.283582
v -1.680917 4.699665 -3.276662
v -1.667483 4.699665 -3.275339
v -1.654565 4.699665 -3.271421
v -1.665843 4.704290 -3.283582
v -1.630282 4.712861 -3.283582
v -1.632225 4.710003 -3.280674
v -1.637666 4.710003 -3.283582
v -1.642660 4.699665 -3.265057
v -1.649528 4.706910 -3.283582
v -1.618944 4.710003 -3.269775
v -1.605136 4.722600 -3.277131
v -1.605136 4.712861 -3.258436
v -1.611588 4.722600 -3.283582
v -1.632225 4.699665 -3.256493
v -1.608044 4.710003 -3.256493
v -1.605136 4.710003 -3.251053
v -1.623661 4.699665 -3.246058
v -1.605136 4.706910 -3.239191
v -1.617298 4.699665 -3.234153
v -1.605136 4.704290 -3.222875
v -1.613379 4.699665 -3.221235
v -1.605136 4.703474 -3.207801
v -1.612056 4.699665 -3.207801
v -1.613379 4.699665 -3.194367
v -1.617298 4.699665 -3.181449
v -1.605136 4.704290 -3.192727
v -1.605136 4.712861 -3.157166
v -1.608044 4.710003 -3.159109
v -1.605136 4.710003 -3.164550
v -1.623661 4.699665 -3.169544
v -1.605136 4.706910 -3.176412
v -1.618944 4.710003 -3.145828
v -1.632225 4.699665 -3.159109
v -1.611588 4.722600 -3.132020
v -1.630282 4.712861 -3.132020
v -1.605136 4.722600 -3.138472
v -1.632225 4.710003 -3.134928
v -1.642660 4.699665 -3.150545
v -1.637666 4.710003 -3.132020
v -1.649528 4.706910 -3.132020
v -1.654565 4.699665 -3.144182
v -1.665843 4.704290 -3.132020
v -1.667483 4.699665 -3.140263
v -1.680917 4.703474 -3.132020
v -1.680917 4.699665 -3.138940
v -1.694351 4.699665 -3.140263
v -1.707269 4.699665 -3.144182
v -1.695991 4.704290 -3.132020
v -1.693619 4.697434 -3.271656
v -1.705832 4.697434 -3.267951
v -1.731552 4.712861 -3.132020
v -1.729609 4.710003 -3.134928
v -1.724169 4.710003 -3.132020
v -1.719174 4.699665 -3.150545
v -1.712307 4.706910 -3.132020
v -1.742891 4.710003 -3.145828
v -1.726954 4.697434 -3.253838
v -1.756698 4.722600 -3.138472
v -1.756698 4.712861 -3.157166
v -1.729609 4.699665 -3.159109
v -1.753790 4.710003 -3.159109
v -1.744772 4.697434 -3.220503
v -1.750247 4.722600 -3.132020
v -1.756698 4.710003 -3.164550
v -1.738173 4.699665 -3.169544
v -1.756698 4.706910 -3.176412
v -1.744537 4.699665 -3.181449
v -1.756698 4.704290 -3.192727
v -1.748455 4.699665 -3.194367
v -1.746023 4.697434 -3.207801
v -1.756698 4.722600 -3.277131
v -1.756698 4.727760 -3.283582
v -1.680917 4.697434 -3.272907
v -1.656002 4.697434 -3.267951
v -1.644746 4.697434 -3.261935
v -1.626783 4.697434 -3.243972
v -1.620767 4.697434 -3.232716
v -1.617062 4.697434 -3.220503
v -1.615811 4.697434 -3.207801
v -1.735051 4.697434 -3.243972
v -1.741067 4.697434 -3.232716
v -1.726954 4.697434 -3.161764
v -1.717088 4.697434 -3.153668
v -1.735051 4.697434 -3.171630
v -1.741067 4.697434 -3.182886
v -1.744772 4.697434 -3.195100
v -1.617062 4.697434 -3.195100
v -1.620767 4.697434 -3.182886
v -1.626783 4.697434 -3.171630
v -1.634880 4.697434 -3.161764
v -1.644746 4.697434 -3.153667
v -1.656002 4.697434 -3.147651
v -1.668216 4.697434 -3.143946
v -1.680917 4.697434 -3.142695
v -1.693619 4.697434 -3.143946
v -1.705832 4.697434 -3.147651
v -1.605136 4.727760 -3.283582
v -1.605136 4.727760 -3.132020
v -1.717088 4.697434 -3.261935
v -1.756698 4.727760 -3.132020
v -1.668216 4.697434 -3.271656
v -1.634880 4.697434 -3.253838
vn -0.486200 -0.868500 -0.096700
vn -0.495700 -0.868500 0.000000
vn -0.482200 -0.876000 0.000000
vn -0.458000 -0.868500 -0.189700
vn -0.471600 -0.876000 -0.100600
vn -0.412200 -0.868400 -0.275400
vn -0.440400 -0.876000 -0.196700
vn -0.453100 -0.857900 -0.242200
vn -0.510500 -0.774000 -0.374400
vn -0.468600 -0.826000 -0.313200
vn -0.399200 -0.825400 -0.399200
vn -0.350500 -0.868400 -0.350500
vn -0.464500 -0.738100 -0.489300
vn -0.374400 -0.774000 -0.510500
vn -0.313200 -0.826000 -0.468600
vn -0.242200 -0.857900 -0.453100
vn -0.275400 -0.868400 -0.412200
vn -0.196700 -0.876000 -0.440400
vn -0.189700 -0.868500 -0.458000
vn -0.100600 -0.876000 -0.471600
vn -0.096700 -0.868500 -0.486200
vn 0.000000 -0.876000 -0.482200
vn 0.000000 -0.868400 -0.495700
vn 0.096700 -0.868500 -0.486200
vn 0.189700 -0.868500 -0.458000
vn 0.100600 -0.876000 -0.471600
vn 0.374400 -0.774000 -0.510500
vn 0.313200 -0.826000 -0.468600
vn 0.242200 -0.857900 -0.453100
vn 0.275400 -0.868400 -0.412200
vn 0.196700 -0.876000 -0.440400
vn 0.399200 -0.825400 -0.399200
vn 0.489300 -0.738100 -0.464500
vn 0.510600 -0.774000 -0.374400
vn 0.464600 -0.738100 -0.489300
vn 0.350500 -0.868400 -0.350500
vn 0.468700 -0.826000 -0.313200
vn 0.453100 -0.857900 -0.242200
vn 0.412200 -0.868500 -0.275400
vn 0.440400 -0.876000 -0.196700
vn 0.458000 -0.868500 -0.189700
vn 0.471600 -0.876000 -0.100600
vn 0.486200 -0.868500 -0.096700
vn 0.482200 -0.876000 0.000000
vn 0.495700 -0.868400 0.000000
vn 0.486200 -0.868400 0.096700
vn 0.458000 -0.868500 0.189700
vn 0.471600 -0.876000 0.100600
vn 0.510600 -0.774000 0.374400
vn 0.468700 -0.826000 0.313200
vn 0.453100 -0.857900 0.242200
vn 0.412200 -0.868500 0.275400
vn 0.440400 -0.876000 0.196700
vn 0.399200 -0.825400 0.399200
vn 0.350500 -0.868500 0.350500
vn 0.464600 -0.738100 0.489300
vn 0.374400 -0.774000 0.510500
vn 0.489300 -0.738100 0.464500
vn 0.313200 -0.826000 0.468600
vn 0.275400 -0.868400 0.412200
vn 0.242200 -0.857900 0.453100
vn 0.196700 -0.876000 0.440400
vn 0.189700 -0.868500 0.458000
vn 0.100600 -0.876000 0.471600
vn 0.096700 -0.868500 0.486200
vn 0.000000 -0.876000 0.482200
vn 0.000000 -0.868400 0.495700
vn -0.096700 -0.868500 0.486200
vn -0.189700 -0.868500 0.458000
vn -0.100600 -0.876000 0.471600
vn -0.099600 -0.859800 -0.500800
vn -0.195400 -0.859700 -0.471800
vn -0.374400 -0.774000 0.510500
vn -0.313200 -0.826000 0.468600
vn -0.242200 -0.857900 0.453100
vn -0.275400 -0.868400 0.412200
vn -0.196700 -0.876000 0.440400
vn -0.399200 -0.825400 0.399200
vn -0.361100 -0.859700 -0.361100
vn -0.489300 -0.738100 0.464500
vn -0.510500 -0.774000 0.374300
vn -0.350500 -0.868500 0.350500
vn -0.468700 -0.826000 0.313100
vn -0.500900 -0.859800 -0.099600
vn -0.464600 -0.738100 0.489300
vn -0.453100 -0.857900 0.242200
vn -0.412200 -0.868500 0.275400
vn -0.440400 -0.876000 0.196700
vn -0.458000 -0.868500 0.189700
vn -0.471600 -0.876000 0.100600
vn -0.486200 -0.868500 0.096700
vn -0.510700 -0.859800 0.000000
vn -0.489300 -0.738100 -0.464600
vn -0.529800 -0.662300 -0.529800
vn 0.000000 -0.859700 -0.510700
vn 0.195400 -0.859800 -0.471800
vn 0.283700 -0.859700 -0.424700
vn 0.424600 -0.859700 -0.283700
vn 0.471800 -0.859700 -0.195400
vn 0.500900 -0.859700 -0.099600
vn 0.510700 -0.859700 0.000000
vn -0.424600 -0.859700 -0.283700
vn -0.471800 -0.859700 -0.195400
vn -0.361100 -0.859800 0.361100
vn -0.283700 -0.859700 0.424700
vn -0.424600 -0.859700 0.283700
vn -0.471800 -0.859700 0.195400
vn -0.500900 -0.859700 0.099600
vn 0.500900 -0.859700 0.099600
vn 0.471800 -0.859700 0.195500
vn 0.424600 -0.859700 0.283700
vn 0.361100 -0.859700 0.361100
vn 0.283700 -0.859700 0.424700
vn 0.195400 -0.859700 0.471800
vn 0.099600 -0.859800 0.500800
vn 0.000000 -0.859700 0.510700
vn -0.099600 -0.859800 0.500800
vn -0.195400 -0.859700 0.471900
vn 0.529800 -0.662300 -0.529800
vn 0.529800 -0.662300 0.529800
vn -0.283700 -0.859700 -0.424800
vn -0.529700 -0.662300 0.529700
vn 0.099600 -0.859800 -0.500800
vn 0.361100 -0.859700 -0.361100
vt 0.477742 0.798165
vt 0.479777 0.795067
vt 0.477980 0.795711
vt 0.476454 0.801433
vt 0.475294 0.799324
vt 0.476010 0.804746
vt 0.472319 0.803873
vt 0.470123 0.807617
vt 0.468763 0.810291
vt 0.469854 0.809131
vt 0.470261 0.813243
vt 0.476489 0.807976
vt 0.465790 0.820105
vt 0.470822 0.818570
vt 0.471909 0.817092
vt 0.472944 0.818327
vt 0.477945 0.811000
vt 0.476511 0.818488
vt 0.480386 0.813702
vt 0.481673 0.819310
vt 0.483769 0.815977
vt 0.486680 0.820659
vt 0.487982 0.817738
vt 0.492842 0.818917
vt 0.498102 0.819470
vt 0.491886 0.822609
vt 0.504722 0.829652
vt 0.504526 0.827749
vt 0.502014 0.827793
vt 0.503470 0.819374
vt 0.497700 0.825358
vt 0.511244 0.826807
vt 0.515028 0.834567
vt 0.518001 0.826878
vt 0.511593 0.835279
vt 0.508641 0.818634
vt 0.517276 0.825081
vt 0.519112 0.824204
vt 0.513334 0.817277
vt 0.520806 0.820460
vt 0.517319 0.815357
vt 0.522986 0.815911
vt 0.520433 0.812947
vt 0.524847 0.812297
vt 0.522586 0.810139
vt 0.523751 0.807042
vt 0.523953 0.803774
vt 0.526556 0.809285
vt 0.530002 0.804621
vt 0.528993 0.803678
vt 0.529363 0.805192
vt 0.523251 0.800461
vt 0.528243 0.806662
vt 0.526960 0.799567
vt 0.521733 0.797230
vt 0.530116 0.801969
vt 0.524878 0.796342
vt 0.531446 0.804093
vt 0.524081 0.795718
vt 0.519498 0.794207
vt 0.522778 0.794483
vt 0.519375 0.792048
vt 0.516656 0.791505
vt 0.514700 0.789299
vt 0.513319 0.789230
vt 0.510414 0.787349
vt 0.509600 0.787469
vt 0.505615 0.786290
vt 0.501476 0.785737
vt 0.506187 0.786000
vt 0.484694 0.814427
vt 0.481481 0.812276
vt 0.496594 0.785259
vt 0.496697 0.785060
vt 0.498531 0.785016
vt 0.497297 0.785833
vt 0.501709 0.785177
vt 0.491672 0.786002
vt 0.477742 0.806863
vt 0.489317 0.787506
vt 0.486442 0.788034
vt 0.493192 0.786573
vt 0.486858 0.787728
vt 0.478850 0.797587
vt 0.491850 0.786795
vt 0.485266 0.788606
vt 0.489273 0.787929
vt 0.483338 0.790076
vt 0.485655 0.789849
vt 0.480598 0.792698
vt 0.482452 0.792260
vt 0.480765 0.794658
vt 0.465338 0.817981
vt 0.464211 0.821296
vt 0.488678 0.816092
vt 0.498214 0.817729
vt 0.503266 0.817639
vt 0.512565 0.815657
vt 0.516338 0.813842
vt 0.519300 0.811563
vt 0.521362 0.808908
vt 0.477258 0.803809
vt 0.477651 0.800676
vt 0.493510 0.786627
vt 0.497423 0.785927
vt 0.489777 0.787909
vt 0.486336 0.789725
vt 0.483295 0.792004
vt 0.522495 0.805980
vt 0.522715 0.802890
vt 0.522077 0.799758
vt 0.520657 0.796703
vt 0.518550 0.793844
vt 0.515859 0.791290
vt 0.512689 0.789139
vt 0.509150 0.787474
vt 0.505353 0.786359
vt 0.501408 0.785837
vt 0.513932 0.837883
vt 0.531855 0.804573
vt 0.479148 0.809722
vt 0.490282 0.787986
vt 0.493262 0.817207
vt 0.508136 0.816939
f 1/1/1 2/2/2 3/3/3
f 4/4/4 1/1/1 5/5/5
f 6/6/6 7/7/7 8/8/8
f 6/6/6 4/4/4 7/7/7
f 9/9/9 10/10/10 8/8/8
f 11/11/11 10/10/10 9/9/9
f 10/10/10 11/11/11 12/12/12
f 11/11/11 13/13/13 14/14/14
f 12/12/12 11/11/11 15/15/15
f 16/16/16 15/15/15 14/14/14
f 17/17/17 15/15/15 16/16/16
f 18/18/18 19/19/19 17/17/17
f 20/20/20 21/21/21 19/19/19
f 22/22/22 23/23/23 21/21/21
f 24/24/24 23/23/23 22/22/22
f 25/25/25 24/24/24 26/26/26
f 27/27/27 28/28/28 29/29/29
f 30/30/30 31/31/31 29/29/29
f 30/30/30 25/25/25 31/31/31
f 32/32/32 28/28/28 27/27/27
f 30/30/30 28/28/28 32/32/32
f 32/32/32 33/33/33 34/34/34
f 33/33/33 32/32/32 35/35/35
f 36/36/36 32/32/32 37/37/37
f 38/38/38 37/37/37 34/34/34
f 39/39/39 37/37/37 38/38/38
f 40/40/40 41/41/41 39/39/39
f 42/42/42 43/43/43 41/41/41
f 44/44/44 45/45/45 43/43/43
f 46/46/46 45/45/45 44/44/44
f 47/47/47 46/46/46 48/48/48
f 49/49/49 50/50/50 51/51/51
f 52/52/52 53/53/53 51/51/51
f 52/52/52 47/47/47 53/53/53
f 50/50/50 54/54/54 55/55/55
f 54/54/54 50/50/50 49/49/49
f 54/54/54 56/56/56 57/57/57
f 56/56/56 54/54/54 58/58/58
f 54/54/54 59/59/59 60/60/60
f 61/61/61 59/59/59 57/57/57
f 60/60/60 59/59/59 61/61/61
f 62/62/62 63/63/63 60/60/60
f 64/64/64 65/65/65 63/63/63
f 66/66/66 67/67/67 65/65/65
f 68/68/68 67/67/67 66/66/66
f 69/69/69 68/68/68 70/70/70
f 71/71/71 21/21/21 23/23/23
f 72/72/72 19/19/19 21/21/21
f 17/17/17 19/19/19 72/72/72
f 73/73/73 74/74/74 75/75/75
f 76/76/76 77/77/77 75/75/75
f 76/76/76 69/69/69 77/77/77
f 76/76/76 74/74/74 78/78/78
f 79/79/79 12/12/12 17/17/17
f 78/78/78 74/74/74 73/73/73
f 78/78/78 80/80/80 81/81/81
f 82/82/82 78/78/78 83/83/83
f 84/84/84 1/1/1 4/4/4
f 80/80/80 78/78/78 85/85/85
f 86/86/86 83/83/83 81/81/81
f 87/87/87 83/83/83 86/86/86
f 88/88/88 89/89/89 87/87/87
f 90/90/90 91/91/91 89/89/89
f 3/3/3 2/2/2 91/91/91
f 92/92/92 2/2/2 1/1/1
f 93/93/93 94/94/94 13/13/13
f 95/95/95 23/23/23 24/24/24
f 24/24/24 25/25/25 96/96/96
f 96/96/96 25/25/25 30/30/30
f 97/97/97 30/30/30 36/36/36
f 36/36/36 39/39/39 98/98/98
f 39/39/39 41/41/41 99/99/99
f 41/41/41 43/43/43 100/100/100
f 43/43/43 45/45/45 101/101/101
f 12/12/12 79/79/79 102/102/102
f 6/6/6 102/102/102 103/103/103
f 104/104/104 105/105/105 76/76/76
f 106/106/106 104/104/104 82/82/82
f 89/89/89 107/107/107 106/106/106
f 91/91/91 108/108/108 107/107/107
f 2/2/2 92/92/92 108/108/108
f 46/46/46 109/109/109 101/101/101
f 47/47/47 110/110/110 109/109/109
f 111/111/111 110/110/110 47/47/47
f 55/55/55 112/112/112 111/111/111
f 60/60/60 113/113/113 112/112/112
f 114/114/114 113/113/113 60/60/60
f 65/65/65 115/115/115 114/114/114
f 67/67/67 116/116/116 115/115/115
f 68/68/68 117/117/117 116/116/116
f 69/69/69 118/118/118 117/117/117
f 76/76/76 105/105/105 118/118/118
f 5/5/5 1/1/1 3/3/3
f 7/7/7 4/4/4 5/5/5
f 10/10/10 6/6/6 8/8/8
f 93/93/93 11/11/11 9/9/9
f 6/6/6 10/10/10 12/12/12
f 15/15/15 11/11/11 14/14/14
f 17/17/17 12/12/12 15/15/15
f 18/18/18 17/17/17 16/16/16
f 18/18/18 20/20/20 19/19/19
f 20/20/20 22/22/22 21/21/21
f 26/26/26 24/24/24 22/22/22
f 31/31/31 25/25/25 26/26/26
f 28/28/28 30/30/30 29/29/29
f 35/35/35 32/32/32 27/27/27
f 36/36/36 30/30/30 32/32/32
f 37/37/37 32/32/32 34/34/34
f 119/119/119 33/33/33 35/35/35
f 39/39/39 36/36/36 37/37/37
f 40/40/40 39/39/39 38/38/38
f 40/40/40 42/42/42 41/41/41
f 42/42/42 44/44/44 43/43/43
f 48/48/48 46/46/46 44/44/44
f 53/53/53 47/47/47 48/48/48
f 50/50/50 52/52/52 51/51/51
f 52/52/52 50/50/50 55/55/55
f 58/58/58 54/54/54 49/49/49
f 59/59/59 54/54/54 57/57/57
f 120/120/120 56/56/56 58/58/58
f 55/55/55 54/54/54 60/60/60
f 62/62/62 60/60/60 61/61/61
f 62/62/62 64/64/64 63/63/63
f 64/64/64 66/66/66 65/65/65
f 70/70/70 68/68/68 66/66/66
f 77/77/77 69/69/69 70/70/70
f 95/95/95 71/71/71 23/23/23
f 71/71/71 72/72/72 21/21/21
f 121/121/121 17/17/17 72/72/72
f 74/74/74 76/76/76 75/75/75
f 82/82/82 76/76/76 78/78/78
f 121/121/121 79/79/79 17/17/17
f 85/85/85 78/78/78 73/73/73
f 83/83/83 78/78/78 81/81/81
f 87/87/87 82/82/82 83/83/83
f 103/103/103 84/84/84 4/4/4
f 122/122/122 80/80/80 85/85/85
f 88/88/88 87/87/87 86/86/86
f 88/88/88 90/90/90 89/89/89
f 90/90/90 3/3/3 91/91/91
f 84/84/84 92/92/92 1/1/1
f 11/11/11 93/93/93 13/13/13
f 123/123/123 95/95/95 24/24/24
f 123/123/123 24/24/24 96/96/96
f 97/97/97 96/96/96 30/30/30
f 124/124/124 97/97/97 36/36/36
f 124/124/124 36/36/36 98/98/98
f 98/98/98 39/39/39 99/99/99
f 99/99/99 41/41/41 100/100/100
f 100/100/100 43/43/43 101/101/101
f 6/6/6 12/12/12 102/102/102
f 4/4/4 6/6/6 103/103/103
f 82/82/82 104/104/104 76/76/76
f 87/87/87 106/106/106 82/82/82
f 87/87/87 89/89/89 106/106/106
f 89/89/89 91/91/91 107/107/107
f 91/91/91 2/2/2 108/108/108
f 45/45/45 46/46/46 101/101/101
f 46/46/46 47/47/47 109/109/109
f 52/52/52 111/111/111 47/47/47
f 52/52/52 55/55/55 111/111/111
f 55/55/55 60/60/60 112/112/112
f 63/63/63 114/114/114 60/60/60
f 63/63/63 65/65/65 114/114/114
f 65/65/65 67/67/67 115/115/115
f 67/67/67 68/68/68 116/116/116
f 68/68/68 69/69/69 117/117/117
f 69/69/69 76/76/76 118/118/118
