v -1.745924 4.958241 -3.180875
v -1.739338 4.961830 -3.183602
v -1.742937 4.961830 -3.195465
v -1.707844 4.958241 -3.142794
v -1.705116 4.961830 -3.149380
v -1.716048 4.961830 -3.155223
v -1.653991 4.958241 -3.142794
v -1.656718 4.961830 -3.149380
v -1.668581 4.961830 -3.145782
v -1.622496 4.961830 -3.183602
v -1.628339 4.961830 -3.172670
v -1.622413 4.958241 -3.168710
v -1.615910 4.958241 -3.234728
v -1.622496 4.961830 -3.232000
v -1.618897 4.961830 -3.220138
v -1.656718 4.961830 -3.266222
v -1.645786 4.961830 -3.260379
v -1.641826 4.958241 -3.266306
v -1.707844 4.958241 -3.272808
v -1.705116 4.961830 -3.266222
v -1.693254 4.961830 -3.269821
v -1.742937 4.961830 -3.220138
v -1.744152 4.961830 -3.207801
v -1.724337 4.965947 -3.207801
v -1.717019 4.965947 -3.183678
v -1.733495 4.961830 -3.172670
v -1.725631 4.961830 -3.163088
v -1.721032 4.965947 -3.191185
v -1.711620 4.965947 -3.177099
v -1.697533 4.965947 -3.167686
v -1.693254 4.961830 -3.145782
v -1.689388 4.965947 -3.165216
v -1.680917 4.961830 -3.144567
v -1.680917 4.965947 -3.164382
v -1.645786 4.961830 -3.155223
v -1.656794 4.965947 -3.171699
v -1.636204 4.961830 -3.163087
v -1.650215 4.965947 -3.177099
v -1.644815 4.965947 -3.183678
v -1.618897 4.961830 -3.195465
v -1.638332 4.965947 -3.199330
v -1.617682 4.961830 -3.207801
v -1.638332 4.965947 -3.216272
v -1.628339 4.961830 -3.242933
v -1.644815 4.965947 -3.231924
v -1.636203 4.961830 -3.252515
v -1.650215 4.965947 -3.238504
v -1.664301 4.965947 -3.247916
v -1.668581 4.961830 -3.269821
v -1.680917 4.961830 -3.271036
v -1.680917 4.965947 -3.251221
v -1.689388 4.965947 -3.250387
v -1.697533 4.965947 -3.247916
v -1.716048 4.961830 -3.260379
v -1.725631 4.961830 -3.252515
v -1.711620 4.965947 -3.238504
v -1.733495 4.961830 -3.242933
v -1.717019 4.965947 -3.231924
v -1.739339 4.961830 -3.232000
v -1.721032 4.965947 -3.224417
v -1.749928 4.958241 -3.221528
v -1.751280 4.958241 -3.207801
v -1.739422 4.958241 -3.168710
v -1.730671 4.958241 -3.158047
v -1.749928 4.958241 -3.194074
v -1.720009 4.958241 -3.149297
v -1.694644 4.958241 -3.138790
v -1.680917 4.958241 -3.137438
v -1.667190 4.958241 -3.138790
v -1.641826 4.958241 -3.149297
v -1.631163 4.958241 -3.158047
v -1.615910 4.958241 -3.180874
v -1.611906 4.958241 -3.194074
v -1.610554 4.958241 -3.207801
v -1.611906 4.958241 -3.221528
v -1.622413 4.958241 -3.246893
v -1.631163 4.958241 -3.257555
v -1.653990 4.958241 -3.272808
v -1.667190 4.958241 -3.276812
v -1.680917 4.958241 -3.278164
v -1.694644 4.958241 -3.276812
v -1.720009 4.958241 -3.266306
v -1.730671 4.958241 -3.257555
v -1.739422 4.958241 -3.246893
v -1.745924 4.958241 -3.234728
v -1.723503 4.965947 -3.199330
v -1.705040 4.965947 -3.171699
v -1.664301 4.965947 -3.167686
v -1.672446 4.965947 -3.165216
v -1.640803 4.965947 -3.191185
v -1.640803 4.965947 -3.224417
v -1.656794 4.965947 -3.243903
v -1.723503 4.965947 -3.216272
v -1.637497 4.965947 -3.207801
v -1.672446 4.965947 -3.250387
v -1.705040 4.965947 -3.243903
vn -0.415400 0.893200 0.172000
vn -0.310900 0.941600 0.128800
vn -0.330100 0.941600 0.065600
vn -0.172000 0.893200 0.415400
vn -0.128800 0.941600 0.311000
vn -0.187000 0.941600 0.279800
vn 0.172100 0.893200 0.415400
vn 0.128800 0.941600 0.311000
vn 0.065600 0.941600 0.330100
vn 0.311000 0.941600 0.128800
vn 0.279800 0.941600 0.187000
vn 0.373900 0.893200 0.249800
vn 0.415400 0.893200 -0.172000
vn 0.311000 0.941600 -0.128800
vn 0.330100 0.941600 -0.065600
vn 0.128800 0.941600 -0.311000
vn 0.187000 0.941600 -0.279900
vn 0.249800 0.893200 -0.373800
vn -0.172100 0.893200 -0.415400
vn -0.128800 0.941600 -0.311000
vn -0.065600 0.941600 -0.330100
vn -0.330100 0.941600 -0.065600
vn -0.336600 0.941600 0.000000
vn -0.203400 0.979100 0.000000
vn -0.169200 0.979100 0.113000
vn -0.279800 0.941600 0.187000
vn -0.238000 0.941600 0.238000
vn -0.188000 0.979100 0.077800
vn -0.143800 0.979100 0.143800
vn -0.077900 0.979100 0.188000
vn -0.065600 0.941600 0.330100
vn -0.039700 0.979100 0.199600
vn 0.000000 0.941600 0.336600
vn 0.000000 0.979100 0.203500
vn 0.187000 0.941600 0.279800
vn 0.113000 0.979100 0.169200
vn 0.238000 0.941600 0.238000
vn 0.143800 0.979100 0.143800
vn 0.169200 0.979100 0.113000
vn 0.330100 0.941600 0.065600
vn 0.199500 0.979100 0.039700
vn 0.336600 0.941600 0.000000
vn 0.199500 0.979100 -0.039700
vn 0.279800 0.941600 -0.187000
vn 0.169200 0.979100 -0.113000
vn 0.238000 0.941600 -0.238000
vn 0.143800 0.979100 -0.143900
vn 0.077900 0.979100 -0.188000
vn 0.065600 0.941600 -0.330100
vn 0.000000 0.941600 -0.336600
vn 0.000000 0.979100 -0.203500
vn -0.039700 0.979100 -0.199500
vn -0.077900 0.979100 -0.188000
vn -0.187000 0.941600 -0.279900
vn -0.238000 0.941600 -0.238000
vn -0.143800 0.979100 -0.143800
vn -0.279900 0.941600 -0.187000
vn -0.169200 0.979100 -0.113000
vn -0.311000 0.941600 -0.128800
vn -0.188000 0.979100 -0.077900
vn -0.441000 0.893200 -0.087700
vn -0.449600 0.893200 0.000000
vn -0.373900 0.893200 0.249800
vn -0.317900 0.893200 0.317900
vn -0.441000 0.893200 0.087700
vn -0.249800 0.893200 0.373800
vn -0.087700 0.893200 0.440900
vn 0.000000 0.893200 0.449600
vn 0.087700 0.893200 0.441000
vn 0.249800 0.893200 0.373800
vn 0.317900 0.893200 0.317900
vn 0.415400 0.893200 0.172100
vn 0.441000 0.893200 0.087700
vn 0.449600 0.893200 0.000000
vn 0.441000 0.893200 -0.087700
vn 0.373900 0.893200 -0.249800
vn 0.317900 0.893200 -0.317900
vn 0.172100 0.893200 -0.415400
vn 0.087700 0.893200 -0.441000
vn 0.000000 0.893200 -0.449600
vn -0.087700 0.893200 -0.441000
vn -0.249800 0.893200 -0.373900
vn -0.317900 0.893200 -0.317900
vn -0.373900 0.893200 -0.249800
vn -0.415400 0.893200 -0.172000
vn -0.199500 0.979100 0.039700
vn -0.113000 0.979100 0.169200
vn 0.077900 0.979100 0.188000
vn 0.039700 0.979100 0.199600
vn 0.188000 0.979100 0.077800
vn 0.188000 0.979100 -0.077900
vn 0.113000 0.979100 -0.169200
vn -0.199500 0.979100 -0.039700
vn 0.203400 0.979100 0.000000
vn 0.039700 0.979100 -0.199600
vn -0.113000 0.979100 -0.169200
vt 0.488617 0.884653
vt 0.489727 0.887293
vt 0.487484 0.889506
vt 0.501177 0.880451
vt 0.501064 0.883516
vt 0.498052 0.883604
vt 0.513191 0.886345
vt 0.511895 0.888813
vt 0.509548 0.886724
vt 0.516702 0.900079
vt 0.516329 0.897037
vt 0.518192 0.895496
vt 0.513182 0.910717
vt 0.511716 0.910716
vt 0.513922 0.908503
vt 0.498733 0.914492
vt 0.502317 0.914405
vt 0.502615 0.914821
vt 0.485016 0.909025
vt 0.486666 0.909196
vt 0.489041 0.911285
vt 0.484296 0.894929
vt 0.485647 0.892084
vt 0.490051 0.895767
vt 0.494607 0.891266
vt 0.492295 0.885529
vt 0.495099 0.884284
vt 0.492828 0.892477
vt 0.496564 0.890411
vt 0.500747 0.889884
vt 0.504044 0.884024
vt 0.502836 0.890232
vt 0.506901 0.885107
vt 0.504833 0.890976
vt 0.513860 0.891294
vt 0.509619 0.895224
vt 0.515362 0.894071
vt 0.510616 0.897131
vt 0.511230 0.899168
vt 0.516436 0.903080
vt 0.511182 0.903317
vt 0.515508 0.905925
vt 0.509369 0.907041
vt 0.508966 0.912480
vt 0.505982 0.909771
vt 0.505784 0.913725
vt 0.503848 0.910626
vt 0.499159 0.911153
vt 0.495213 0.913985
vt 0.491931 0.912902
vt 0.494622 0.910061
vt 0.492669 0.908951
vt 0.491039 0.907516
vt 0.484892 0.906715
vt 0.483768 0.903938
vt 0.488975 0.903906
vt 0.483308 0.900972
vt 0.488600 0.901869
vt 0.483497 0.897929
vt 0.488668 0.899780
vt 0.482526 0.893150
vt 0.484056 0.889985
vt 0.491469 0.882691
vt 0.494577 0.881305
vt 0.486115 0.887116
vt 0.497846 0.880549
vt 0.504474 0.881016
vt 0.507639 0.882221
vt 0.510577 0.884020
vt 0.515390 0.889105
vt 0.517084 0.892195
vt 0.518643 0.898881
vt 0.518383 0.902220
vt 0.517381 0.905385
vt 0.515635 0.908254
vt 0.510103 0.912679
vt 0.506526 0.914065
vt 0.498570 0.914919
vt 0.494599 0.914354
vt 0.490904 0.913149
vt 0.487664 0.911350
vt 0.483057 0.906265
vt 0.481834 0.903175
vt 0.481358 0.899874
vt 0.481605 0.896489
vt 0.491290 0.893996
vt 0.498633 0.889944
vt 0.508287 0.893520
vt 0.506671 0.892086
vt 0.511426 0.901257
vt 0.507848 0.908560
vt 0.501539 0.911093
vt 0.489162 0.897720
vt 0.510492 0.905270
vt 0.496818 0.910805
vt 0.489794 0.905813
f 1/1/1 2/2/2 3/3/3
f 4/4/4 5/5/5 6/6/6
f 7/7/7 8/8/8 9/9/9
f 10/10/10 11/11/11 12/12/12
f 13/13/13 14/14/14 15/15/15
f 16/16/16 17/17/17 18/18/18
f 19/19/19 20/20/20 21/21/21
f 22/22/22 23/23/23 24/24/24
f 25/25/25 26/26/26 27/27/27
f 24/24/24 23/23/23 3/3/3
f 28/28/28 2/2/2 26/26/26
f 29/29/29 27/27/27 6/6/6
f 30/30/30 5/5/5 31/31/31
f 32/32/32 31/31/31 33/33/33
f 34/34/34 33/33/33 9/9/9
f 8/8/8 35/35/35 36/36/36
f 35/35/35 37/37/37 38/38/38
f 37/37/37 11/11/11 39/39/39
f 10/10/10 40/40/40 41/41/41
f 41/41/41 40/40/40 42/42/42
f 42/42/42 15/15/15 43/43/43
f 14/14/14 44/44/44 45/45/45
f 44/44/44 46/46/46 47/47/47
f 47/47/47 46/46/46 17/17/17
f 48/48/48 16/16/16 49/49/49
f 49/49/49 50/50/50 51/51/51
f 50/50/50 21/21/21 52/52/52
f 53/53/53 20/20/20 54/54/54
f 54/54/54 55/55/55 56/56/56
f 56/56/56 55/55/55 57/57/57
f 58/58/58 57/57/57 59/59/59
f 60/60/60 59/59/59 22/22/22
f 61/61/61 62/62/62 23/23/23
f 26/26/26 63/63/63 64/64/64
f 23/23/23 62/62/62 65/65/65
f 2/2/2 1/1/1 63/63/63
f 64/64/64 66/66/66 6/6/6
f 4/4/4 67/67/67 31/31/31
f 31/31/31 67/67/67 68/68/68
f 68/68/68 69/69/69 9/9/9
f 7/7/7 70/70/70 35/35/35
f 35/35/35 70/70/70 71/71/71
f 71/71/71 12/12/12 11/11/11
f 72/72/72 73/73/73 40/40/40
f 73/73/73 74/74/74 42/42/42
f 42/42/42 74/74/74 75/75/75
f 13/13/13 76/76/76 44/44/44
f 76/76/76 77/77/77 46/46/46
f 46/46/46 77/77/77 18/18/18
f 78/78/78 79/79/79 49/49/49
f 79/79/79 80/80/80 50/50/50
f 80/80/80 81/81/81 21/21/21
f 20/20/20 19/19/19 82/82/82
f 54/54/54 82/82/82 83/83/83
f 55/55/55 83/83/83 84/84/84
f 84/84/84 85/85/85 59/59/59
f 85/85/85 61/61/61 22/22/22
f 2/2/2 28/28/28 86/86/86
f 30/30/30 87/87/87 6/6/6
f 88/88/88 89/89/89 9/9/9
f 90/90/90 39/39/39 11/11/11
f 91/91/91 43/43/43 15/15/15
f 16/16/16 48/48/48 92/92/92
f 20/20/20 53/53/53 52/52/52
f 65/65/65 1/1/1 3/3/3
f 66/66/66 4/4/4 6/6/6
f 69/69/69 7/7/7 9/9/9
f 72/72/72 10/10/10 12/12/12
f 75/75/75 13/13/13 15/15/15
f 78/78/78 16/16/16 18/18/18
f 81/81/81 19/19/19 21/21/21
f 93/93/93 22/22/22 24/24/24
f 29/29/29 25/25/25 27/27/27
f 86/86/86 24/24/24 3/3/3
f 25/25/25 28/28/28 26/26/26
f 87/87/87 29/29/29 6/6/6
f 32/32/32 30/30/30 31/31/31
f 34/34/34 32/32/32 33/33/33
f 89/89/89 34/34/34 9/9/9
f 88/88/88 8/8/8 36/36/36
f 36/36/36 35/35/35 38/38/38
f 38/38/38 37/37/37 39/39/39
f 90/90/90 10/10/10 41/41/41
f 94/94/94 41/41/41 42/42/42
f 94/94/94 42/42/42 43/43/43
f 91/91/91 14/14/14 45/45/45
f 45/45/45 44/44/44 47/47/47
f 92/92/92 47/47/47 17/17/17
f 95/95/95 48/48/48 49/49/49
f 95/95/95 49/49/49 51/51/51
f 51/51/51 50/50/50 52/52/52
f 96/96/96 53/53/53 54/54/54
f 96/96/96 54/54/54 56/56/56
f 58/58/58 56/56/56 57/57/57
f 60/60/60 58/58/58 59/59/59
f 93/93/93 60/60/60 22/22/22
f 22/22/22 61/61/61 23/23/23
f 27/27/27 26/26/26 64/64/64
f 3/3/3 23/23/23 65/65/65
f 26/26/26 2/2/2 63/63/63
f 27/27/27 64/64/64 6/6/6
f 5/5/5 4/4/4 31/31/31
f 33/33/33 31/31/31 68/68/68
f 33/33/33 68/68/68 9/9/9
f 8/8/8 7/7/7 35/35/35
f 37/37/37 35/35/35 71/71/71
f 37/37/37 71/71/71 11/11/11
f 10/10/10 72/72/72 40/40/40
f 40/40/40 73/73/73 42/42/42
f 15/15/15 42/42/42 75/75/75
f 14/14/14 13/13/13 44/44/44
f 44/44/44 76/76/76 46/46/46
f 17/17/17 46/46/46 18/18/18
f 16/16/16 78/78/78 49/49/49
f 49/49/49 79/79/79 50/50/50
f 50/50/50 80/80/80 21/21/21
f 54/54/54 20/20/20 82/82/82
f 55/55/55 54/54/54 83/83/83
f 57/57/57 55/55/55 84/84/84
f 57/57/57 84/84/84 59/59/59
f 59/59/59 85/85/85 22/22/22
f 3/3/3 2/2/2 86/86/86
f 5/5/5 30/30/30 6/6/6
f 8/8/8 88/88/88 9/9/9
f 10/10/10 90/90/90 11/11/11
f 14/14/14 91/91/91 15/15/15
f 17/17/17 16/16/16 92/92/92
f 21/21/21 20/20/20 52/52/52
