v -1.294133 1.009330 -5.149665
v -1.294133 1.009330 -5.154481
v -1.294921 1.009780 -5.154481
v -1.295756 1.010134 -5.149665
v -1.295756 1.010134 -5.154481
v -1.296296 1.010293 -5.154481
v -1.306440 1.012121 -5.149665
v -1.306440 1.012121 -5.154481
v -1.313285 1.013010 -5.154481
v -1.354618 1.013010 -5.149665
v -1.354618 1.013010 -5.154481
v -1.361463 1.012121 -5.154481
v -1.291254 1.005910 -5.149665
v -1.291254 1.005910 -5.154481
v -1.291661 1.006720 -5.154481
v -1.371608 1.010293 -5.149665
v -1.371608 1.010293 -5.154481
v -1.372148 1.010134 -5.154481
v -1.374499 1.008792 -5.149665
v -1.374499 1.008792 -5.154481
v -1.375161 1.008171 -5.154481
v -1.347745 1.013645 -5.149665
v -1.347745 1.013645 -5.154481
v -1.354618 1.013010 -5.154481
v -1.375744 1.007477 -5.149665
v -1.375744 1.007477 -5.154481
v -1.376243 1.006720 -5.154481
v -1.372148 1.010134 -5.149665
v -1.372148 1.010134 -5.154481
v -1.372983 1.009780 -5.154481
v -1.293404 1.008792 -5.149665
v -1.293404 1.008792 -5.154481
v -1.294133 1.009330 -5.154481
v -1.361463 1.012121 -5.149665
v -1.361463 1.012121 -5.154481
v -1.368271 1.010981 -5.154481
v -1.372983 1.009780 -5.149665
v -1.372983 1.009780 -5.154481
v -1.373770 1.009330 -5.154481
v -1.313285 1.013010 -5.149665
v -1.313285 1.013010 -5.154481
v -1.320158 1.013645 -5.154481
v -1.292159 1.007477 -5.149665
v -1.292159 1.007477 -5.154481
v -1.292743 1.008171 -5.154481
v -1.368271 1.010981 -5.149665
v -1.368271 1.010981 -5.154481
v -1.370573 1.010507 -5.154481
v -1.373770 1.009330 -5.149665
v -1.373770 1.009330 -5.154481
v -1.374499 1.008792 -5.154481
v -1.376243 1.006720 -5.149665
v -1.376243 1.006720 -5.154481
v -1.376649 1.005910 -5.154481
v -1.320158 1.013645 -5.149665
v -1.320158 1.013645 -5.154481
v -1.327050 1.014027 -5.154481
v -1.327050 1.014027 -5.149665
v -1.327050 1.014027 -5.154481
v -1.333952 1.014154 -5.154481
v -1.333952 1.014154 -5.149665
v -1.333952 1.014154 -5.154481
v -1.340853 1.014027 -5.154481
v -1.292743 1.008171 -5.149665
v -1.292743 1.008171 -5.154481
v -1.293404 1.008792 -5.154481
v -1.376649 1.005910 -5.149665
v -1.376649 1.005910 -5.154481
v -1.376979 1.004979 -5.154481
v -1.294921 1.009780 -5.149665
v -1.294921 1.009780 -5.154481
v -1.295756 1.010134 -5.154481
v -1.340853 1.014027 -5.149665
v -1.340853 1.014027 -5.154481
v -1.347745 1.013645 -5.154481
v -1.375161 1.008171 -5.149665
v -1.375161 1.008171 -5.154481
v -1.375744 1.007477 -5.154481
v -1.299633 1.010981 -5.149665
v -1.299633 1.010981 -5.154481
v -1.306440 1.012121 -5.154481
v -1.370573 1.010507 -5.149665
v -1.371608 1.010293 -5.154481
v -1.284747 0.963380 -5.149665
v -1.284747 0.963380 -5.154481
v -1.290925 1.004979 -5.154481
v -1.296296 1.010293 -5.149665
v -1.296296 1.010293 -5.154481
v -1.297331 1.010507 -5.154481
v -1.297331 1.010507 -5.149665
v -1.299633 1.010981 -5.154481
v -1.290925 1.004979 -5.149665
v -1.290925 1.004979 -5.154481
v -1.291254 1.005910 -5.154481
v -1.291661 1.006720 -5.149665
v -1.291661 1.006720 -5.154481
v -1.292159 1.007477 -5.154481
v -1.376979 1.004979 -5.149665
v -1.376979 1.004979 -5.154481
v -1.383157 0.963380 -5.154481
v -1.294921 1.009780 -5.149665
v -1.296296 1.010293 -5.149665
v -1.313285 1.013010 -5.149665
v -1.361463 1.012121 -5.149665
v -1.291661 1.006720 -5.149665
v -1.372148 1.010134 -5.149665
v -1.375161 1.008171 -5.149665
v -1.354618 1.013010 -5.149665
v -1.376243 1.006720 -5.149665
v -1.372983 1.009780 -5.149665
v -1.294133 1.009330 -5.149665
v -1.368271 1.010981 -5.149665
v -1.373770 1.009330 -5.149665
v -1.320158 1.013645 -5.149665
v -1.292743 1.008171 -5.149665
v -1.374499 1.008792 -5.149665
v -1.376649 1.005910 -5.149665
v -1.327050 1.014027 -5.149665
v -1.333952 1.014154 -5.149665
v -1.340853 1.014027 -5.149665
v -1.293404 1.008792 -5.149665
v -1.376979 1.004979 -5.149665
v -1.295756 1.010134 -5.149665
v -1.347745 1.013645 -5.149665
v -1.375744 1.007477 -5.149665
v -1.306440 1.012121 -5.149665
v -1.371608 1.010293 -5.149665
v -1.290925 1.004979 -5.149665
v -1.299633 1.010981 -5.149665
v -1.291254 1.005910 -5.149665
v -1.292159 1.007477 -5.149665
v -1.383157 0.963380 -5.149665
vn 0.545800 0.837900 0.000000
vn 0.545800 0.837900 0.000000
vn 0.443800 0.896100 0.000000
vn 0.337200 0.941400 0.000000
vn 0.337100 0.941400 0.000000
vn 0.243200 0.970000 0.000000
vn 0.147000 0.989100 0.000000
vn 0.147000 0.989100 0.000000
vn 0.110400 0.993900 0.000000
vn -0.110400 0.993900 0.000000
vn -0.110400 0.993900 0.000000
vn -0.147000 0.989100 0.000000
vn 0.920000 0.391900 0.000000
vn 0.920000 0.391800 0.000000
vn 0.866100 0.499700 0.000000
vn -0.243200 0.970000 0.000000
vn -0.243200 0.970000 0.000000
vn -0.337100 0.941400 0.000000
vn -0.640200 0.768100 0.000000
vn -0.640200 0.768200 0.000000
vn -0.725900 0.687700 0.000000
vn -0.073700 0.997300 0.000000
vn -0.073700 0.997300 0.000000
vn -0.110400 0.993900 0.000000
vn -0.801600 0.597800 0.000000
vn -0.801500 0.597900 0.000000
vn -0.866100 0.499800 0.000000
vn -0.337200 0.941400 0.000000
vn -0.337100 0.941400 0.000000
vn -0.443700 0.896100 0.000000
vn 0.640200 0.768200 0.000000
vn 0.640300 0.768100 0.000000
vn 0.545800 0.837900 0.000000
vn -0.147000 0.989100 0.000000
vn -0.147000 0.989100 0.000000
vn -0.183300 0.983000 0.000000
vn -0.443800 0.896100 0.000000
vn -0.443700 0.896100 0.000000
vn -0.545800 0.837900 0.000000
vn 0.110400 0.993900 0.000000
vn 0.110400 0.993900 0.000000
vn 0.073700 0.997300 0.000000
vn 0.801500 0.597900 0.000000
vn 0.801600 0.597800 0.000000
vn 0.726000 0.687600 0.000000
vn -0.183300 0.983000 0.000000
vn -0.183300 0.983000 0.000000
vn -0.202200 0.979300 0.000000
vn -0.545800 0.837900 0.000000
vn -0.545800 0.837900 0.000000
vn -0.640200 0.768200 0.000000
vn -0.866200 0.499700 0.000000
vn -0.866100 0.499800 0.000000
vn -0.920000 0.391800 0.000000
vn 0.073700 0.997300 0.000000
vn 0.073700 0.997300 0.000000
vn 0.036900 0.999300 0.000000
vn 0.036900 0.999300 0.000000
vn 0.036900 0.999300 0.000000
vn 0.000000 1.000000 0.000000
vn 0.000000 1.000000 0.000000
vn 0.000000 1.000000 0.000000
vn -0.036900 0.999300 0.000000
vn 0.725800 0.687900 0.000000
vn 0.726000 0.687600 0.000000
vn 0.640300 0.768100 0.000000
vn -0.920000 0.391900 0.000000
vn -0.920000 0.391800 0.000000
vn -0.970400 0.241600 0.000000
vn 0.443800 0.896100 0.000000
vn 0.443800 0.896100 0.000000
vn 0.337100 0.941400 0.000000
vn -0.036900 0.999300 0.000000
vn -0.036900 0.999300 0.000000
vn -0.073700 0.997300 0.000000
vn -0.725900 0.687800 0.000000
vn -0.725900 0.687700 0.000000
vn -0.801500 0.597900 0.000000
vn 0.183300 0.983000 0.000000
vn 0.183300 0.983000 0.000000
vn 0.147000 0.989100 0.000000
vn -0.202200 0.979300 0.000000
vn -0.243200 0.970000 0.000000
vn 0.989100 0.146900 0.000000
vn 0.989100 0.146900 0.000000
vn 0.970400 0.241600 0.000000
vn 0.243200 0.970000 0.000000
vn 0.243200 0.970000 0.000000
vn 0.202200 0.979300 0.000000
vn 0.202200 0.979300 0.000000
vn 0.183300 0.983000 0.000000
vn 0.970400 0.241600 0.000000
vn 0.970400 0.241600 0.000000
vn 0.920000 0.391800 0.000000
vn 0.866100 0.499800 0.000000
vn 0.866100 0.499700 0.000000
vn 0.801600 0.597800 0.000000
vn -0.970400 0.241600 0.000000
vn -0.970400 0.241600 0.000000
vn -0.989100 0.146900 0.000000
vn 0.443800 0.896100 0.000000
vn 0.243200 0.970000 0.000000
vn 0.110400 0.993900 0.000000
vn -0.147000 0.989100 0.000000
vn 0.866100 0.499800 0.000000
vn -0.337200 0.941400 0.000000
vn -0.725900 0.687800 0.000000
vn -0.110400 0.993900 0.000000
vn -0.866200 0.499700 0.000000
vn -0.443800 0.896100 0.000000
vn 0.545800 0.837900 0.000000
vn -0.183300 0.983000 0.000000
vn -0.545800 0.837900 0.000000
vn 0.073700 0.997300 0.000000
vn 0.725800 0.687900 0.000000
vn -0.640200 0.768100 0.000000
vn -0.920000 0.391900 0.000000
vn 0.036900 0.999300 0.000000
vn 0.000000 1.000000 0.000000
vn -0.036900 0.999300 0.000000
vn 0.640200 0.768200 0.000000
vn -0.970400 0.241600 0.000000
vn 0.337200 0.941400 0.000000
vn -0.073700 0.997300 0.000000
vn -0.801600 0.597800 0.000000
vn 0.147000 0.989100 0.000000
vn -0.243200 0.970000 0.000000
vn 0.970400 0.241600 0.000000
vn 0.183300 0.983000 0.000000
vn 0.920000 0.391900 0.000000
vn 0.801500 0.597900 0.000000
vn -0.989100 0.146900 0.000000
vt 10.045258 30.613409
vt 10.045258 30.613409
vt 10.045258 30.730406
vt 10.045258 23.250544
vt 10.045258 23.250544
vt 10.045258 23.314053
vt 10.045258 19.358662
vt 10.045258 19.358662
vt 10.045258 20.549395
vt -10.045258 -17.079344
vt -10.045258 -17.079344
vt -10.045258 -18.270075
vt 10.045258 40.988255
vt 10.045258 40.988255
vt 10.045258 41.105251
vt -10.045258 -13.115331
vt -10.045258 -13.115331
vt -10.045258 -13.178841
vt -10.045258 8.737050
vt -10.045258 8.737050
vt -10.045258 8.620053
vt -10.045258 -17.481127
vt -10.045258 -17.481127
vt -10.045258 -18.671860
vt -10.045258 19.222046
vt -10.045258 19.222046
vt -10.045258 19.105049
vt -10.045258 -7.697011
vt -10.045258 -7.697011
vt -10.045258 -7.814008
vt 10.045258 33.684250
vt 10.045258 33.684250
vt 10.045258 33.801247
vt -10.045258 -16.653515
vt -10.045258 -16.653515
vt -10.045258 -17.844246
vt -10.045258 -2.225188
vt -10.045258 -2.225188
vt -10.045258 -2.342185
vt 10.045258 19.111431
vt 10.045258 19.111431
vt 10.045258 20.302162
vt 10.045258 38.393509
vt 10.045258 38.393509
vt 10.045258 38.510506
vt -10.045258 -16.204220
vt -10.045258 -16.204220
vt -10.045258 -16.607552
vt -10.045258 3.278139
vt -10.045258 3.278139
vt -10.045258 3.161142
vt -10.045258 24.103487
vt -10.045258 24.103487
vt -10.045258 23.986490
vt 10.045258 18.837391
vt 10.045258 18.837391
vt 10.045258 20.028122
vt 10.045258 18.536913
vt 10.045258 18.536913
vt 10.045258 19.727644
vt -10.045258 -18.210407
vt -10.045258 -18.210407
vt -10.045258 -19.401140
vt 10.045258 36.289597
vt 10.045258 36.289597
vt 10.045258 36.406593
vt -10.045258 28.653219
vt -10.045258 28.653219
vt -10.045258 28.536222
vt 10.045258 27.119440
vt 10.045258 27.119440
vt 10.045258 27.236437
vt -10.045258 -17.858320
vt -10.045258 -17.858320
vt -10.045258 -19.049051
vt -10.045258 14.076238
vt -10.045258 14.076238
vt -10.045258 13.959241
vt 10.045258 19.578749
vt 10.045258 19.578749
vt 10.045258 20.769480
vt -10.045258 -16.607552
vt -10.045258 -16.777781
vt 10.045258 30.532074
vt 10.045258 30.532074
vt 0.000000 0.000000
vt 10.045258 20.388561
vt 10.045258 20.388561
vt 10.045258 20.558790
vt 10.045258 20.558790
vt 10.045258 20.962122
vt 10.045258 41.443295
vt 10.045258 41.443295
vt 10.045258 41.560291
vt 10.045258 39.966965
vt 10.045258 39.966965
vt 10.045258 40.083961
vt -10.045258 32.808479
vt -10.045258 32.808479
vt -10.045258 28.074263
vt 10.045258 30.730406
vt 10.045258 23.314053
vt 10.045258 20.549395
vt -10.045258 -18.270075
vt 10.045258 41.105251
vt -10.045258 -13.178841
vt -10.045258 8.620053
vt -10.045258 -18.671860
vt -10.045258 19.105049
vt -10.045258 -7.814008
vt 10.045258 33.801247
vt -10.045258 -17.844246
vt -10.045258 -2.342185
vt 10.045258 20.302162
vt 10.045258 38.510506
vt -10.045258 3.161142
vt -10.045258 23.986490
vt 10.045258 20.028122
vt 10.045258 19.727644
vt -10.045258 -19.401140
vt 10.045258 36.406593
vt -10.045258 28.536222
vt 10.045258 27.236437
vt -10.045258 -19.049051
vt -10.045258 13.959241
vt 10.045258 20.769480
vt -10.045258 -16.777781
vt 0.000000 0.000000
vt 10.045258 20.962122
vt 10.045258 41.560291
vt 10.045258 40.083961
vt -10.045258 28.074263
f 1/1/1 2/2/2 3/3/3
f 4/4/4 5/5/5 6/6/6
f 7/7/7 8/8/8 9/9/9
f 10/10/10 11/11/11 12/12/12
f 13/13/13 14/14/14 15/15/15
f 16/16/16 17/17/17 18/18/18
f 19/19/19 20/20/20 21/21/21
f 22/22/22 23/23/23 24/24/24
f 25/25/25 26/26/26 27/27/27
f 28/28/28 29/29/29 30/30/30
f 31/31/31 32/32/32 33/33/33
f 34/34/34 35/35/35 36/36/36
f 37/37/37 38/38/38 39/39/39
f 40/40/40 41/41/41 42/42/42
f 43/43/43 44/44/44 45/45/45
f 46/46/46 47/47/47 48/48/48
f 49/49/49 50/50/50 51/51/51
f 52/52/52 53/53/53 54/54/54
f 55/55/55 56/56/56 57/57/57
f 58/58/58 59/59/59 60/60/60
f 61/61/61 62/62/62 63/63/63
f 64/64/64 65/65/65 66/66/66
f 67/67/67 68/68/68 69/69/69
f 70/70/70 71/71/71 72/72/72
f 73/73/73 74/74/74 75/75/75
f 76/76/76 77/77/77 78/78/78
f 79/79/79 80/80/80 81/81/81
f 82/82/82 48/48/48 83/83/83
f 84/84/84 85/85/85 86/86/86
f 87/87/87 88/88/88 89/89/89
f 90/90/90 89/89/89 91/91/91
f 92/92/92 93/93/93 94/94/94
f 95/95/95 96/96/96 97/97/97
f 98/98/98 99/99/99 100/100/100
f 101/101/101 1/1/1 3/3/3
f 102/102/102 4/4/4 6/6/6
f 103/103/103 7/7/7 9/9/9
f 104/104/104 10/10/10 12/12/12
f 105/105/105 13/13/13 15/15/15
f 106/106/106 16/16/16 18/18/18
f 107/107/107 19/19/19 21/21/21
f 108/108/108 22/22/22 24/24/24
f 109/109/109 25/25/25 27/27/27
f 110/110/110 28/28/28 30/30/30
f 111/111/111 31/31/31 33/33/33
f 112/112/112 34/34/34 36/36/36
f 113/113/113 37/37/37 39/39/39
f 114/114/114 40/40/40 42/42/42
f 115/115/115 43/43/43 45/45/45
f 82/82/82 46/46/46 48/48/48
f 116/116/116 49/49/49 51/51/51
f 117/117/117 52/52/52 54/54/54
f 118/118/118 55/55/55 57/57/57
f 119/119/119 58/58/58 60/60/60
f 120/120/120 61/61/61 63/63/63
f 121/121/121 64/64/64 66/66/66
f 122/122/122 67/67/67 69/69/69
f 123/123/123 70/70/70 72/72/72
f 124/124/124 73/73/73 75/75/75
f 125/125/125 76/76/76 78/78/78
f 126/126/126 79/79/79 81/81/81
f 127/127/127 82/82/82 83/83/83
f 128/128/128 84/84/84 86/86/86
f 90/90/90 87/87/87 89/89/89
f 129/129/129 90/90/90 91/91/91
f 130/130/130 92/92/92 94/94/94
f 131/131/131 95/95/95 97/97/97
f 132/132/132 98/98/98 100/100/100
