v 3.009529 1.301182 -5.917447
v 3.053041 1.310478 -5.917447
v 3.048239 1.342915 -5.905898
v 3.006031 1.333785 -5.917447
v 2.793967 1.273076 -5.917447
v 2.871365 1.286357 -5.917447
v 2.867867 1.318961 -5.917447
v 2.789165 1.305514 -5.917447
v 2.920865 1.293229 -5.917074
v 2.919743 1.326000 -5.917447
v 2.967157 1.294814 -5.917074
v 2.966034 1.327586 -5.917447
v 2.824513 1.139212 -5.871939
v 2.891822 1.151931 -5.893925
v 2.883062 1.197455 -5.904649
v 2.810391 1.184083 -5.898854
v 2.877856 1.221150 -5.917904
v 2.803469 1.208202 -5.918404
v 2.874864 1.253754 -5.918256
v 2.798769 1.240639 -5.918281
v 2.923246 1.157454 -5.903282
v 2.923315 1.203300 -5.911868
v 2.927332 1.227715 -5.917193
v 2.921988 1.260457 -5.917074
v 2.935117 1.158596 -5.874933
v 2.977046 1.156527 -5.902279
v 2.973605 1.203399 -5.909047
v 2.930025 1.203584 -5.894842
v 2.969402 1.229027 -5.917447
v 2.968279 1.262043 -5.917074
v 3.031257 1.166420 -5.899939
v 3.023648 1.212074 -5.909365
v 3.016526 1.235975 -5.918159
v 3.013027 1.268578 -5.918084
v 3.079984 1.176613 -5.906308
v 3.071070 1.222020 -5.912260
v 3.062645 1.245603 -5.916180
v 3.057843 1.278040 -5.916884
vn -0.019900 -0.044800 0.998800
vn -0.054300 -0.098200 0.993700
vn -0.091900 -0.185400 0.978300
vn -0.046700 -0.094800 0.994400
vn 0.002100 -0.012600 0.999900
vn -0.003700 -0.008000 0.999900
vn -0.002300 0.002800 1.000000
vn 0.000000 0.000000 1.000000
vn -0.004600 0.001100 1.000000
vn -0.002300 0.008500 1.000000
vn 0.005300 0.001900 1.000000
vn 0.001700 0.008600 1.000000
vn 0.104800 0.404800 0.908400
vn 0.145000 0.317500 0.937100
vn 0.060600 0.389800 0.918900
vn 0.015400 0.484400 0.874700
vn -0.020000 0.235800 0.971600
vn -0.037500 0.284400 0.958000
vn -0.008500 -0.008700 0.999900
vn -0.000000 -0.010600 0.999900
vn 0.186500 0.220100 0.957500
vn 0.089700 0.303000 0.948800
vn 0.034300 0.216000 0.975800
vn -0.008100 -0.004900 0.999900
vn 0.424600 0.288600 0.858100
vn 0.200400 0.236800 0.950700
vn 0.119600 0.332600 0.935400
vn 0.291900 0.412900 0.862800
vn 0.032200 0.227600 0.973200
vn 0.010000 -0.005200 0.999900
vn 0.003200 0.171600 0.985200
vn -0.017700 0.225800 0.974000
vn -0.024800 0.146100 0.989000
vn -0.003400 -0.002800 1.000000
vn 0.057700 0.176400 0.982600
vn 0.009700 0.210200 0.977600
vn -0.039300 0.129300 0.990800
vn -0.024000 0.001000 0.999700
vt 0.816311 0.693252
vt 0.975390 0.705685
vt 1.000000 0.872573
vt 0.838898 0.853811
vt 0.047438 0.721089
vt 0.326733 0.726058
vt 0.349833 0.886427
vt 0.066031 0.881529
vt 0.503745 0.721665
vt 0.534973 0.881120
vt 0.664150 0.694278
vt 0.695228 0.853841
vt 0.000000 0.000000
vt 0.257325 0.042913
vt 0.269910 0.274128
vt 0.006530 0.253705
vt 0.278620 0.404982
vt 0.009283 0.400602
vt 0.303507 0.565499
vt 0.028718 0.560615
vt 0.376799 0.056110
vt 0.416523 0.282506
vt 0.455505 0.399661
vt 0.472401 0.562117
vt 0.373713 0.017418
vt 0.560623 0.000000
vt 0.586621 0.237624
vt 0.420276 0.253198
vt 0.601024 0.372708
vt 0.632957 0.534457
vt 0.755247 0.013576
vt 0.771375 0.244493
vt 0.771370 0.371797
vt 0.793755 0.532564
vt 0.933766 0.034731
vt 0.945070 0.262453
vt 0.940033 0.384199
vt 0.957585 0.544965
f 1/1/1 2/2/2 3/3/3
f 1/1/1 3/3/3 4/4/4
f 5/5/5 6/6/6 7/7/7
f 5/5/5 7/7/7 8/8/8
f 6/6/6 9/9/9 10/10/10
f 6/6/6 10/10/10 7/7/7
f 9/9/9 11/11/11 12/12/12
f 9/9/9 12/12/12 10/10/10
f 11/11/11 1/1/1 4/4/4
f 11/11/11 4/4/4 12/12/12
f 13/13/13 14/14/14 15/15/15
f 13/13/13 15/15/15 16/16/16
f 16/16/16 15/15/15 17/17/17
f 16/16/16 17/17/17 18/18/18
f 18/18/18 17/17/17 19/19/19
f 18/18/18 19/19/19 20/20/20
f 20/20/20 19/19/19 6/6/6
f 20/20/20 6/6/6 5/5/5
f 14/14/14 21/21/21 22/22/22
f 14/14/14 22/22/22 15/15/15
f 15/15/15 22/22/22 23/23/23
f 15/15/15 23/23/23 17/17/17
f 17/17/17 23/23/23 24/24/24
f 17/17/17 24/24/24 19/19/19
f 19/19/19 24/24/24 9/9/9
f 19/19/19 9/9/9 6/6/6
f 25/25/25 26/26/26 27/27/27
f 25/25/25 27/27/27 28/28/28
f 28/28/28 27/27/27 29/29/29
f 28/28/28 29/29/29 23/23/23
f 23/23/23 29/29/29 30/30/30
f 23/23/23 30/30/30 24/24/24
f 24/24/24 30/30/30 11/11/11
f 24/24/24 11/11/11 9/9/9
f 26/26/26 31/31/31 32/32/32
f 26/26/26 32/32/32 27/27/27
f 27/27/27 32/32/32 33/33/33
f 27/27/27 33/33/33 29/29/29
f 29/29/29 33/33/33 34/34/34
f 29/29/29 34/34/34 30/30/30
f 30/30/30 34/34/34 1/1/1
f 30/30/30 1/1/1 11/11/11
f 31/31/31 35/35/35 36/36/36
f 31/31/31 36/36/36 32/32/32
f 32/32/32 36/36/36 37/37/37
f 32/32/32 37/37/37 33/33/33
f 33/33/33 37/37/37 38/38/38
f 33/33/33 38/38/38 34/34/34
f 34/34/34 38/38/38 2/2/2
f 34/34/34 2/2/2 1/1/1
