v -3.950815 0.073662 -1.050681
v -4.178714 0.073662 -1.318641
v -3.910754 0.073662 -1.546540
v -3.682855 0.073662 -1.278580
v -3.682855 0.380191 -1.278580
v -3.910754 0.380191 -1.546540
v -3.911408 0.380191 -1.538444
v -3.690951 0.380191 -1.279234
v -4.178714 0.073662 -1.318641
v -3.950815 0.073662 -1.050681
v -3.950815 0.380191 -1.050681
v -4.178714 0.380191 -1.318641
v -3.950815 0.073662 -1.050681
v -3.682855 0.073662 -1.278580
v -3.682855 0.380191 -1.278580
v -3.950815 0.380191 -1.050681
v -3.910754 0.073662 -1.546540
v -4.178714 0.073662 -1.318641
v -4.178714 0.380191 -1.318641
v -3.910754 0.380191 -1.546540
v -3.682855 0.073662 -1.278580
v -3.910754 0.073662 -1.546540
v -3.910754 0.380191 -1.546540
v -3.682855 0.380191 -1.278580
v -4.178714 0.380191 -1.318641
v -3.950815 0.380191 -1.050681
v -3.950161 0.380191 -1.058778
v -4.170618 0.380191 -1.317987
v -3.690951 0.380191 -1.279234
v -3.911408 0.380191 -1.538444
v -3.911408 0.066912 -1.538444
v -3.690951 0.066912 -1.279234
v -4.170618 0.380191 -1.317987
v -3.950161 0.380191 -1.058778
v -3.950161 0.066912 -1.058778
v -4.170618 0.066912 -1.317987
v -3.950161 0.380191 -1.058778
v -3.690951 0.380191 -1.279234
v -3.690951 0.066912 -1.279234
v -3.950161 0.066912 -1.058778
v -3.911408 0.380191 -1.538444
v -4.170618 0.380191 -1.317987
v -4.170618 0.066912 -1.317987
v -3.911408 0.066912 -1.538444
v -4.071701 0.463189 -1.192817
v -3.803741 0.463189 -1.420716
v -3.905221 0.383188 -1.540035
v -4.173181 0.383188 -1.312136
v -4.073268 0.467925 -1.194660
v -4.174748 0.387925 -1.313978
v -3.906788 0.387925 -1.541877
v -3.805308 0.467925 -1.422559
v -3.905221 0.383188 -1.540035
v -3.803741 0.463189 -1.420716
v -3.805308 0.467925 -1.422559
v -3.906788 0.387925 -1.541877
v -4.071701 0.463189 -1.192817
v -4.173181 0.383188 -1.312136
v -4.174748 0.387925 -1.313978
v -4.073268 0.467925 -1.194660
v -3.803741 0.463189 -1.420716
v -4.071701 0.463189 -1.192817
v -4.073268 0.467925 -1.194660
v -3.805308 0.467925 -1.422559
v -4.173181 0.383188 -1.312136
v -3.905221 0.383188 -1.540035
v -3.906788 0.387925 -1.541877
v -4.174748 0.387925 -1.313978
v -3.950022 0.376220 -1.049749
v -3.682062 0.376220 -1.277648
v -3.795970 0.380971 -1.411579
v -4.063931 0.380971 -1.183680
v -3.949929 0.381536 -1.049639
v -4.063838 0.386287 -1.183571
v -3.795877 0.386287 -1.411470
v -3.681969 0.381536 -1.277538
v -3.795970 0.380971 -1.411579
v -3.682062 0.376220 -1.277648
v -3.681969 0.381536 -1.277538
v -3.795877 0.386287 -1.411470
v -3.950022 0.376220 -1.049749
v -4.063931 0.380971 -1.183680
v -4.063838 0.386287 -1.183571
v -3.949929 0.381536 -1.049639
v -3.682062 0.376220 -1.277648
v -3.950022 0.376220 -1.049749
v -3.949929 0.381536 -1.049639
v -3.681969 0.381536 -1.277538
v -4.063931 0.380971 -1.183680
v -3.795970 0.380971 -1.411579
v -3.795877 0.386287 -1.411470
v -4.063838 0.386287 -1.183571
vn 0.000000 -1.000000 0.000000
vn 0.000000 -1.000000 0.000000
vn 0.000000 -1.000000 0.000000
vn 0.000000 -1.000000 0.000000
vn 0.000000 1.000000 0.000000
vn 0.000000 1.000000 0.000000
vn 0.000000 1.000000 0.000000
vn 0.000000 1.000000 0.000000
vn -0.761800 0.000000 0.647900
vn -0.761800 0.000000 0.647900
vn -0.761800 0.000000 0.647900
vn -0.761800 0.000000 0.647900
vn 0.647900 0.000000 0.761800
vn 0.647900 0.000000 0.761800
vn 0.647900 0.000000 0.761800
vn 0.647900 0.000000 0.761800
vn -0.647900 0.000000 -0.761800
vn -0.647900 0.000000 -0.761800
vn -0.647900 0.000000 -0.761800
vn -0.647900 0.000000 -0.761800
vn 0.761800 0.000000 -0.647900
vn 0.761800 0.000000 -0.647900
vn 0.761800 0.000000 -0.647900
vn 0.761800 0.000000 -0.647900
vn 0.000000 1.000000 0.000000
vn 0.000000 1.000000 0.000000
vn 0.000000 1.000000 0.000000
vn 0.000000 1.000000 0.000000
vn -0.761800 0.000000 0.647900
vn -0.761800 0.000000 0.647900
vn -0.761800 0.000000 0.647900
vn -0.761800 0.000000 0.647900
vn 0.761800 0.000000 -0.647900
vn 0.761800 0.000000 -0.647900
vn 0.761800 0.000000 -0.647900
vn 0.761800 0.000000 -0.647900
vn -0.647900 0.000000 -0.761800
vn -0.647900 0.000000 -0.761800
vn -0.647900 0.000000 -0.761800
vn -0.647900 0.000000 -0.761800
vn 0.647900 0.000000 0.761800
vn 0.647900 0.000000 0.761800
vn 0.647900 0.000000 0.761800
vn 0.647900 0.000000 0.761800
vn -0.294700 0.890600 -0.346500
vn -0.294700 0.890600 -0.346500
vn -0.294700 0.890600 -0.346500
vn -0.294700 0.890600 -0.346500
vn 0.294700 -0.890600 0.346500
vn 0.294700 -0.890600 0.346500
vn 0.294700 -0.890600 0.346500
vn 0.294700 -0.890600 0.346500
vn -0.761800 0.000000 0.647900
vn -0.761800 0.000000 0.647900
vn -0.761800 0.000000 0.647900
vn -0.761800 0.000000 0.647900
vn 0.761700 -0.000000 -0.647900
vn 0.761700 -0.000000 -0.647900
vn 0.761700 -0.000000 -0.647900
vn 0.761700 -0.000000 -0.647900
vn -0.577000 -0.454800 -0.678400
vn -0.577000 -0.454800 -0.678400
vn -0.577000 -0.454800 -0.678400
vn -0.577000 -0.454800 -0.678400
vn 0.577000 0.454800 0.678400
vn 0.577000 0.454800 0.678400
vn 0.577000 0.454800 0.678400
vn 0.577000 0.454800 0.678400
vn 0.017500 0.999600 0.020600
vn 0.017500 0.999600 0.020600
vn 0.017500 0.999600 0.020600
vn 0.017500 0.999600 0.020600
vn -0.017500 -0.999600 -0.020600
vn -0.017500 -0.999600 -0.020600
vn -0.017500 -0.999600 -0.020600
vn -0.017500 -0.999600 -0.020600
vn -0.761800 0.000000 0.647900
vn -0.761800 0.000000 0.647900
vn -0.761800 0.000000 0.647900
vn -0.761800 0.000000 0.647900
vn 0.761800 0.000000 -0.647900
vn 0.761800 0.000000 -0.647900
vn 0.761800 0.000000 -0.647900
vn 0.761800 0.000000 -0.647900
vn -0.647600 0.027000 -0.761500
vn -0.647600 0.027000 -0.761500
vn -0.647600 0.027000 -0.761500
vn -0.647600 0.027000 -0.761500
vn 0.647600 -0.027000 0.761500
vn 0.647600 -0.027000 0.761500
vn 0.647600 -0.027000 0.761500
vn 0.647600 -0.027000 0.761500
vt 0.000000 0.000000
vt 0.000000 0.000000
vt 0.000000 0.000000
vt 0.000000 0.000000
vt 0.000000 0.000000
vt 0.000000 0.000000
vt 0.000000 0.000000
vt 0.000000 0.000000
vt 0.000000 0.000000
vt 0.000000 0.000000
vt 0.000000 0.000000
vt 0.000000 0.000000
vt 0.000000 0.000000
vt 0.000000 0.000000
vt 0.000000 0.000000
vt 0.000000 0.000000
vt 0.000000 0.000000
vt 0.000000 0.000000
vt 0.000000 0.000000
vt 0.000000 0.000000
vt 0.000000 0.000000
vt 0.000000 0.000000
vt 0.000000 0.000000
vt 0.000000 0.000000
vt 0.000000 0.000000
vt 0.000000 0.000000
vt 0.000000 0.000000
vt 0.000000 0.000000
vt 0.000000 0.000000
vt 0.000000 0.000000
vt 0.000000 0.000000
vt 0.000000 0.000000
vt 0.000000 0.000000
vt 0.000000 0.000000
vt 0.000000 0.000000
vt 0.000000 0.000000
vt 0.000000 0.000000
vt 0.000000 0.000000
vt 0.000000 0.000000
vt 0.000000 0.000000
vt 0.000000 0.000000
vt 0.000000 0.000000
vt 0.000000 0.000000
vt 0.000000 0.000000
vt 0.000000 0.000000
vt 0.000000 0.000000
vt 0.000000 0.000000
vt 0.000000 0.000000
vt 0.000000 0.000000
vt 0.000000 0.000000
vt 0.000000 0.000000
vt 0.000000 0.000000
vt 0.000000 0.000000
vt 0.000000 0.000000
vt 0.000000 0.000000
vt 0.000000 0.000000
vt 0.000000 0.000000
vt 0.000000 0.000000
vt 0.000000 0.000000
vt 0.000000 0.000000
vt 0.000000 0.000000
vt 0.000000 0.000000
vt 0.000000 0.000000
vt 0.000000 0.000000
vt 0.000000 0.000000
vt 0.000000 0.000000
vt 0.000000 0.000000
vt 0.000000 0.000000
vt 0.000000 0.000000
vt 0.000000 0.000000
vt 0.000000 0.000000
vt 0.000000 0.000000
vt 0.000000 0.000000
vt 0.000000 0.000000
vt 0.000000 0.000000
vt 0.000000 0.000000
vt 0.000000 0.000000
vt 0.000000 0.000000
vt 0.000000 0.000000
vt 0.000000 0.000000
vt 0.000000 0.000000
vt 0.000000 0.000000
vt 0.000000 0.000000
vt 0.000000 0.000000
vt 0.000000 0.000000
vt 0.000000 0.000000
vt 0.000000 0.000000
vt 0.000000 0.000000
vt 0.000000 0.000000
vt 0.000000 0.000000
vt 0.000000 0.000000
vt 0.000000 0.000000
f 1/1/1 2/2/2 3/3/3
f 1/1/1 3/3/3 4/4/4
f 5/5/5 6/6/6 7/7/7
f 5/5/5 7/7/7 8/8/8
f 9/9/9 10/10/10 11/11/11
f 9/9/9 11/11/11 12/12/12
f 13/13/13 14/14/14 15/15/15
f 13/13/13 15/15/15 16/16/16
f 17/17/17 18/18/18 19/19/19
f 17/17/17 19/19/19 20/20/20
f 21/21/21 22/22/22 23/23/23
f 21/21/21 23/23/23 24/24/24
f 25/25/25 26/26/26 27/27/27
f 25/25/25 27/27/27 28/28/28
f 26/26/26 5/5/5 8/8/8
f 26/26/26 8/8/8 27/27/27
f 6/6/6 25/25/25 28/28/28
f 6/6/6 28/28/28 7/7/7
f 29/29/29 30/30/30 31/31/31
f 29/29/29 31/31/31 32/32/32
f 33/33/33 34/34/34 35/35/35
f 33/33/33 35/35/35 36/36/36
f 37/37/37 38/38/38 39/39/39
f 37/37/37 39/39/39 40/40/40
f 41/41/41 42/42/42 43/43/43
f 41/41/41 43/43/43 44/44/44
f 45/45/45 46/46/46 47/47/47
f 45/45/45 47/47/47 48/48/48
f 49/49/49 50/50/50 51/51/51
f 49/49/49 51/51/51 52/52/52
f 53/53/53 54/54/54 55/55/55
f 53/53/53 55/55/55 56/56/56
f 57/57/57 58/58/58 59/59/59
f 57/57/57 59/59/59 60/60/60
f 61/61/61 62/62/62 63/63/63
f 61/61/61 63/63/63 64/64/64
f 65/65/65 66/66/66 67/67/67
f 65/65/65 67/67/67 68/68/68
f 69/69/69 70/70/70 71/71/71
f 69/69/69 71/71/71 72/72/72
f 73/73/73 74/74/74 75/75/75
f 73/73/73 75/75/75 76/76/76
f 77/77/77 78/78/78 79/79/79
f 77/77/77 79/79/79 80/80/80
f 81/81/81 82/82/82 83/83/83
f 81/81/81 83/83/83 84/84/84
f 85/85/85 86/86/86 87/87/87
f 85/85/85 87/87/87 88/88/88
f 89/89/89 90/90/90 91/91/91
f 89/89/89 91/91/91 92/92/92
