v 3.437283 2.123466 -5.917447
v 3.480794 2.132762 -5.917447
v 3.475993 2.165199 -5.905898
v 3.433784 2.156070 -5.917447
v 3.221721 2.095361 -5.917447
v 3.299119 2.108641 -5.917447
v 3.295621 2.141245 -5.917447
v 3.216919 2.127798 -5.917447
v 3.348619 2.115513 -5.917074
v 3.347496 2.148284 -5.917447
v 3.394911 2.117098 -5.917074
v 3.393788 2.149870 -5.917447
v 3.252267 1.961496 -5.871939
v 3.319576 1.974215 -5.893925
v 3.310815 2.019740 -5.904649
v 3.238145 2.006367 -5.898854
v 3.305609 2.043434 -5.917904
v 3.231223 2.030486 -5.918404
v 3.302617 2.076038 -5.918256
v 3.226522 2.062923 -5.918281
v 3.351000 1.979739 -5.903282
v 3.351069 2.025584 -5.911868
v 3.355086 2.049999 -5.917193
v 3.349741 2.082741 -5.917074
v 3.362870 1.980880 -5.874933
v 3.404800 1.978811 -5.902279
v 3.401359 2.025683 -5.909047
v 3.357779 2.025869 -5.894842
v 3.397156 2.051311 -5.917447
v 3.396033 2.084327 -5.917074
v 3.459011 1.988705 -5.899939
v 3.451401 2.034359 -5.909365
v 3.444279 2.058259 -5.918159
v 3.440781 2.090863 -5.918084
v 3.507737 1.998898 -5.906308
v 3.498824 2.044305 -5.912260
v 3.490398 2.067887 -5.916180
v 3.485596 2.100325 -5.916884
vn -0.019900 -0.044800 0.998800
vn -0.054300 -0.098200 0.993700
vn -0.091900 -0.185400 0.978300
vn -0.046700 -0.094800 0.994400
vn 0.002100 -0.012600 0.999900
vn -0.003700 -0.008000 0.999900
vn -0.002300 0.002800 1.000000
vn 0.000000 0.000000 1.000000
vn -0.004600 0.001100 1.000000
vn -0.002300 0.008500 1.000000
vn 0.005300 0.001900 1.000000
vn 0.001700 0.008600 1.000000
vn 0.104800 0.404800 0.908400
vn 0.145000 0.317500 0.937100
vn 0.060600 0.389800 0.918900
vn 0.015400 0.484400 0.874700
vn -0.020000 0.235800 0.971600
vn -0.037400 0.284400 0.958000
vn -0.008400 -0.008700 0.999900
vn -0.000000 -0.010600 0.999900
vn 0.186500 0.220100 0.957500
vn 0.089700 0.303000 0.948800
vn 0.034300 0.216000 0.975800
vn -0.008100 -0.004900 0.999900
vn 0.424600 0.288600 0.858100
vn 0.200400 0.236800 0.950700
vn 0.119600 0.332600 0.935400
vn 0.291900 0.412900 0.862800
vn 0.032200 0.227600 0.973200
vn 0.010000 -0.005200 0.999900
vn 0.003200 0.171600 0.985200
vn -0.017700 0.225800 0.974000
vn -0.024800 0.146100 0.989000
vn -0.003400 -0.002800 1.000000
vn 0.057700 0.176400 0.982600
vn 0.009700 0.210200 0.977600
vn -0.039300 0.129300 0.990800
vn -0.024000 0.001000 0.999700
vt 0.810958 0.744365
vt 0.970009 0.757758
vt 0.994615 0.937536
vt 0.833541 0.917325
vt 0.042219 0.774352
vt 0.321465 0.779704
vt 0.344561 0.952460
vt 0.060809 0.947183
vt 0.498446 0.774971
vt 0.529669 0.946743
vt 0.658823 0.745469
vt 0.689895 0.917357
vt -0.005211 -0.002433
vt 0.252069 0.043794
vt 0.264652 0.292868
vt 0.001318 0.270868
vt 0.273361 0.433829
vt 0.004070 0.429110
vt 0.298243 0.606744
vt 0.023502 0.601482
vt 0.371523 0.058010
vt 0.411240 0.301893
vt 0.450214 0.428097
vt 0.467108 0.603101
vt 0.368437 0.016330
vt 0.555314 -0.002433
vt 0.581308 0.253545
vt 0.414992 0.270321
vt 0.595709 0.399063
vt 0.627636 0.573304
vt 0.749905 0.012191
vt 0.766030 0.260944
vt 0.766024 0.398081
vt 0.788406 0.571265
vt 0.928392 0.034980
vt 0.939694 0.280292
vt 0.934658 0.411441
vt 0.952207 0.584624
f 1/1/1 2/2/2 3/3/3
f 1/1/1 3/3/3 4/4/4
f 5/5/5 6/6/6 7/7/7
f 5/5/5 7/7/7 8/8/8
f 6/6/6 9/9/9 10/10/10
f 6/6/6 10/10/10 7/7/7
f 9/9/9 11/11/11 12/12/12
f 9/9/9 12/12/12 10/10/10
f 11/11/11 1/1/1 4/4/4
f 11/11/11 4/4/4 12/12/12
f 13/13/13 14/14/14 15/15/15
f 13/13/13 15/15/15 16/16/16
f 16/16/16 15/15/15 17/17/17
f 16/16/16 17/17/17 18/18/18
f 18/18/18 17/17/17 19/19/19
f 18/18/18 19/19/19 20/20/20
f 20/20/20 19/19/19 6/6/6
f 20/20/20 6/6/6 5/5/5
f 14/14/14 21/21/21 22/22/22
f 14/14/14 22/22/22 15/15/15
f 15/15/15 22/22/22 23/23/23
f 15/15/15 23/23/23 17/17/17
f 17/17/17 23/23/23 24/24/24
f 17/17/17 24/24/24 19/19/19
f 19/19/19 24/24/24 9/9/9
f 19/19/19 9/9/9 6/6/6
f 25/25/25 26/26/26 27/27/27
f 25/25/25 27/27/27 28/28/28
f 28/28/28 27/27/27 29/29/29
f 28/28/28 29/29/29 23/23/23
f 23/23/23 29/29/29 30/30/30
f 23/23/23 30/30/30 24/24/24
f 24/24/24 30/30/30 11/11/11
f 24/24/24 11/11/11 9/9/9
f 26/26/26 31/31/31 32/32/32
f 26/26/26 32/32/32 27/27/27
f 27/27/27 32/32/32 33/33/33
f 27/27/27 33/33/33 29/29/29
f 29/29/29 33/33/33 34/34/34
f 29/29/29 34/34/34 30/30/30
f 30/30/30 34/34/34 1/1/1
f 30/30/30 1/1/1 11/11/11
f 31/31/31 35/35/35 36/36/36
f 31/31/31 36/36/36 32/32/32
f 32/32/32 36/36/36 37/37/37
f 32/32/32 37/37/37 33/33/33
f 33/33/33 37/37/37 38/38/38
f 33/33/33 38/38/38 34/34/34
f 34/34/34 38/38/38 2/2/2
f 34/34/34 2/2/2 1/1/1
