v -3.766000 0.063352 -1.634640
v -3.678954 0.063352 -1.956596
v -3.356999 0.063352 -1.869550
v -3.444044 0.063352 -1.547595
v -3.444044 0.353975 -1.547595
v -3.356999 0.353975 -1.869550
v -3.363677 0.353975 -1.865715
v -3.447880 0.353975 -1.554273
v -3.678954 0.063352 -1.956596
v -3.766000 0.063352 -1.634640
v -3.766000 0.353975 -1.634640
v -3.678954 0.353975 -1.956596
v -3.766000 0.063352 -1.634640
v -3.444044 0.063352 -1.547595
v -3.444044 0.353975 -1.547595
v -3.766000 0.353975 -1.634640
v -3.356999 0.063352 -1.869550
v -3.678954 0.063352 -1.956596
v -3.678954 0.353975 -1.956596
v -3.356999 0.353975 -1.869550
v -3.444044 0.063352 -1.547595
v -3.356999 0.063352 -1.869550
v -3.356999 0.353975 -1.869550
v -3.444044 0.353975 -1.547595
v -3.678954 0.353975 -1.956596
v -3.766000 0.353975 -1.634640
v -3.759321 0.353975 -1.638476
v -3.675118 0.353975 -1.949917
v -3.447880 0.353975 -1.554273
v -3.363677 0.353975 -1.865715
v -3.363677 0.056952 -1.865715
v -3.447880 0.056952 -1.554273
v -3.675118 0.353975 -1.949917
v -3.759321 0.353975 -1.638476
v -3.759321 0.056952 -1.638476
v -3.675118 0.056952 -1.949917
v -3.759321 0.353975 -1.638476
v -3.447880 0.353975 -1.554273
v -3.447880 0.056952 -1.554273
v -3.759321 0.056952 -1.638476
v -3.363677 0.353975 -1.865715
v -3.675118 0.353975 -1.949917
v -3.675118 0.056952 -1.949917
v -3.363677 0.056952 -1.865715
v -3.721910 0.355036 -1.797716
v -3.399954 0.355036 -1.710671
v -3.356431 0.355036 -1.871649
v -3.678387 0.355036 -1.958694
v -3.721910 0.360079 -1.797716
v -3.678387 0.360079 -1.958694
v -3.356431 0.360079 -1.871649
v -3.399954 0.360079 -1.710671
v -3.356431 0.355036 -1.871649
v -3.399954 0.355036 -1.710671
v -3.399954 0.360079 -1.710671
v -3.356431 0.360079 -1.871649
v -3.721910 0.355036 -1.797716
v -3.678387 0.355036 -1.958694
v -3.678387 0.360079 -1.958694
v -3.721910 0.360079 -1.797716
v -3.399954 0.355036 -1.710671
v -3.721910 0.355036 -1.797716
v -3.721910 0.360079 -1.797716
v -3.399954 0.360079 -1.710671
v -3.678387 0.355036 -1.958694
v -3.356431 0.355036 -1.871649
v -3.356431 0.360079 -1.871649
v -3.678387 0.360079 -1.958694
v -3.766302 0.350210 -1.633521
v -3.444347 0.350210 -1.546475
v -3.400840 0.354715 -1.707394
v -3.722795 0.354715 -1.794440
v -3.766338 0.355250 -1.633389
v -3.722831 0.359755 -1.794308
v -3.400876 0.359755 -1.707263
v -3.444382 0.355250 -1.546344
v -3.400840 0.354715 -1.707394
v -3.444347 0.350210 -1.546475
v -3.444382 0.355250 -1.546344
v -3.400876 0.359755 -1.707263
v -3.766302 0.350210 -1.633521
v -3.722795 0.354715 -1.794440
v -3.722831 0.359755 -1.794308
v -3.766338 0.355250 -1.633389
v -3.444347 0.350210 -1.546475
v -3.766302 0.350210 -1.633521
v -3.766338 0.355250 -1.633389
v -3.444382 0.355250 -1.546344
v -3.722795 0.354715 -1.794440
v -3.400840 0.354715 -1.707394
v -3.400876 0.359755 -1.707263
v -3.722831 0.359755 -1.794308
vn 0.000000 -1.000000 0.000000
vn 0.000000 -1.000000 0.000000
vn 0.000000 -1.000000 0.000000
vn 0.000000 -1.000000 0.000000
vn 0.000000 1.000000 -0.000000
vn 0.000000 1.000000 -0.000000
vn 0.000000 1.000000 -0.000000
vn 0.000000 1.000000 -0.000000
vn -0.965300 0.000000 -0.261000
vn -0.965300 0.000000 -0.261000
vn -0.965300 0.000000 -0.261000
vn -0.965300 0.000000 -0.261000
vn -0.261000 0.000000 0.965300
vn -0.261000 0.000000 0.965300
vn -0.261000 0.000000 0.965300
vn -0.261000 0.000000 0.965300
vn 0.261000 0.000000 -0.965300
vn 0.261000 0.000000 -0.965300
vn 0.261000 0.000000 -0.965300
vn 0.261000 0.000000 -0.965300
vn 0.965300 0.000000 0.261000
vn 0.965300 0.000000 0.261000
vn 0.965300 0.000000 0.261000
vn 0.965300 0.000000 0.261000
vn 0.000000 1.000000 -0.000000
vn 0.000000 1.000000 -0.000000
vn 0.000000 1.000000 -0.000000
vn 0.000000 1.000000 -0.000000
vn -0.965300 0.000000 -0.261000
vn -0.965300 0.000000 -0.261000
vn -0.965300 0.000000 -0.261000
vn -0.965300 0.000000 -0.261000
vn 0.965300 0.000000 0.261000
vn 0.965300 0.000000 0.261000
vn 0.965300 0.000000 0.261000
vn 0.965300 0.000000 0.261000
vn 0.261000 0.000000 -0.965300
vn 0.261000 0.000000 -0.965300
vn 0.261000 0.000000 -0.965300
vn 0.261000 0.000000 -0.965300
vn -0.261000 0.000000 0.965300
vn -0.261000 0.000000 0.965300
vn -0.261000 0.000000 0.965300
vn -0.261000 0.000000 0.965300
vn 0.000000 1.000000 -0.000000
vn 0.000000 1.000000 -0.000000
vn 0.000000 1.000000 -0.000000
vn 0.000000 1.000000 -0.000000
vn 0.000000 -1.000000 0.000000
vn 0.000000 -1.000000 0.000000
vn 0.000000 -1.000000 0.000000
vn 0.000000 -1.000000 0.000000
vn -0.965300 0.000000 -0.261000
vn -0.965300 0.000000 -0.261000
vn -0.965300 0.000000 -0.261000
vn -0.965300 0.000000 -0.261000
vn 0.965300 0.000000 0.261000
vn 0.965300 0.000000 0.261000
vn 0.965300 0.000000 0.261000
vn 0.965300 0.000000 0.261000
vn 0.261000 0.000000 -0.965300
vn 0.261000 0.000000 -0.965300
vn 0.261000 0.000000 -0.965300
vn 0.261000 0.000000 -0.965300
vn -0.261000 0.000000 0.965300
vn -0.261000 0.000000 0.965300
vn -0.261000 0.000000 0.965300
vn -0.261000 0.000000 0.965300
vn -0.007100 0.999600 0.026100
vn -0.007100 0.999600 0.026100
vn -0.007100 0.999600 0.026100
vn -0.007100 0.999600 0.026100
vn 0.007100 -0.999600 -0.026100
vn 0.007100 -0.999600 -0.026100
vn 0.007100 -0.999600 -0.026100
vn 0.007100 -0.999600 -0.026100
vn -0.965300 0.000000 -0.261000
vn -0.965300 0.000000 -0.261000
vn -0.965300 0.000000 -0.261000
vn -0.965300 0.000000 -0.261000
vn 0.965300 0.000100 0.261000
vn 0.965300 0.000100 0.261000
vn 0.965300 0.000100 0.261000
vn 0.965300 0.000100 0.261000
vn 0.260900 0.027000 -0.965000
vn 0.260900 0.027000 -0.965000
vn 0.260900 0.027000 -0.965000
vn 0.260900 0.027000 -0.965000
vn -0.260900 -0.027000 0.965000
vn -0.260900 -0.027000 0.965000
vn -0.260900 -0.027000 0.965000
vn -0.260900 -0.027000 0.965000
vt 0.000000 0.000000
vt 0.000000 0.000000
vt 0.000000 0.000000
vt 0.000000 0.000000
vt 0.000000 0.000000
vt 0.000000 0.000000
vt 0.000000 0.000000
vt 0.000000 0.000000
vt 0.000000 0.000000
vt 0.000000 0.000000
vt 0.000000 0.000000
vt 0.000000 0.000000
vt 0.000000 0.000000
vt 0.000000 0.000000
vt 0.000000 0.000000
vt 0.000000 0.000000
vt 0.000000 0.000000
vt 0.000000 0.000000
vt 0.000000 0.000000
vt 0.000000 0.000000
vt 0.000000 0.000000
vt 0.000000 0.000000
vt 0.000000 0.000000
vt 0.000000 0.000000
vt 0.000000 0.000000
vt 0.000000 0.000000
vt 0.000000 0.000000
vt 0.000000 0.000000
vt 0.000000 0.000000
vt 0.000000 0.000000
vt 0.000000 0.000000
vt 0.000000 0.000000
vt 0.000000 0.000000
vt 0.000000 0.000000
vt 0.000000 0.000000
vt 0.000000 0.000000
vt 0.000000 0.000000
vt 0.000000 0.000000
vt 0.000000 0.000000
vt 0.000000 0.000000
vt 0.000000 0.000000
vt 0.000000 0.000000
vt 0.000000 0.000000
vt 0.000000 0.000000
vt 0.000000 0.000000
vt 0.000000 0.000000
vt 0.000000 0.000000
vt 0.000000 0.000000
vt 0.000000 0.000000
vt 0.000000 0.000000
vt 0.000000 0.000000
vt 0.000000 0.000000
vt 0.000000 0.000000
vt 0.000000 0.000000
vt 0.000000 0.000000
vt 0.000000 0.000000
vt 0.000000 0.000000
vt 0.000000 0.000000
vt 0.000000 0.000000
vt 0.000000 0.000000
vt 0.000000 0.000000
vt 0.000000 0.000000
vt 0.000000 0.000000
vt 0.000000 0.000000
vt 0.000000 0.000000
vt 0.000000 0.000000
vt 0.000000 0.000000
vt 0.000000 0.000000
vt 0.000000 0.000000
vt 0.000000 0.000000
vt 0.000000 0.000000
vt 0.000000 0.000000
vt 0.000000 0.000000
vt 0.000000 0.000000
vt 0.000000 0.000000
vt 0.000000 0.000000
vt 0.000000 0.000000
vt 0.000000 0.000000
vt 0.000000 0.000000
vt 0.000000 0.000000
vt 0.000000 0.000000
vt 0.000000 0.000000
vt 0.000000 0.000000
vt 0.000000 0.000000
vt 0.000000 0.000000
vt 0.000000 0.000000
vt 0.000000 0.000000
vt 0.000000 0.000000
vt 0.000000 0.000000
vt 0.000000 0.000000
vt 0.000000 0.000000
vt 0.000000 0.000000
f 1/1/1 2/2/2 3/3/3
f 1/1/1 3/3/3 4/4/4
f 5/5/5 6/6/6 7/7/7
f 5/5/5 7/7/7 8/8/8
f 9/9/9 10/10/10 11/11/11
f 9/9/9 11/11/11 12/12/12
f 13/13/13 14/14/14 15/15/15
f 13/13/13 15/15/15 16/16/16
f 17/17/17 18/18/18 19/19/19
f 17/17/17 19/19/19 20/20/20
f 21/21/21 22/22/22 23/23/23
f 21/21/21 23/23/23 24/24/24
f 25/25/25 26/26/26 27/27/27
f 25/25/25 27/27/27 28/28/28
f 26/26/26 5/5/5 8/8/8
f 26/26/26 8/8/8 27/27/27
f 6/6/6 25/25/25 28/28/28
f 6/6/6 28/28/28 7/7/7
f 29/29/29 30/30/30 31/31/31
f 29/29/29 31/31/31 32/32/32
f 33/33/33 34/34/34 35/35/35
f 33/33/33 35/35/35 36/36/36
f 37/37/37 38/38/38 39/39/39
f 37/37/37 39/39/39 40/40/40
f 41/41/41 42/42/42 43/43/43
f 41/41/41 43/43/43 44/44/44
f 45/45/45 46/46/46 47/47/47
f 45/45/45 47/47/47 48/48/48
f 49/49/49 50/50/50 51/51/51
f 49/49/49 51/51/51 52/52/52
f 53/53/53 54/54/54 55/55/55
f 53/53/53 55/55/55 56/56/56
f 57/57/57 58/58/58 59/59/59
f 57/57/57 59/59/59 60/60/60
f 61/61/61 62/62/62 63/63/63
f 61/61/61 63/63/63 64/64/64
f 65/65/65 66/66/66 67/67/67
f 65/65/65 67/67/67 68/68/68
f 69/69/69 70/70/70 71/71/71
f 69/69/69 71/71/71 72/72/72
f 73/73/73 74/74/74 75/75/75
f 73/73/73 75/75/75 76/76/76
f 77/77/77 78/78/78 79/79/79
f 77/77/77 79/79/79 80/80/80
f 81/81/81 82/82/82 83/83/83
f 81/81/81 83/83/83 84/84/84
f 85/85/85 86/86/86 87/87/87
f 85/85/85 87/87/87 88/88/88
f 89/89/89 90/90/90 91/91/91
f 89/89/89 91/91/91 92/92/92
