v -2.723123 0.909174 -2.322920
v -2.707992 0.917333 -2.319163
v -2.707992 0.918769 -2.330855
v -2.723123 0.910609 -2.334613
v -1.260634 0.909174 -2.322920
v -1.245504 0.917333 -2.319163
v -1.245504 0.918769 -2.330855
v -1.260634 0.910609 -2.334613
v 0.201854 0.909174 -2.322920
v 0.216985 0.917333 -2.319163
v 0.216985 0.918769 -2.330855
v 0.201854 0.910609 -2.334613
v 1.664342 0.909174 -2.322920
v 1.679473 0.917333 -2.319163
v 1.679473 0.918769 -2.330855
v 1.664342 0.910609 -2.334613
v -2.723123 0.909174 -1.048993
v -2.707992 0.917333 -1.045235
v -2.707992 0.918769 -1.056927
v -2.723123 0.910609 -1.060686
v -1.260634 0.909174 -1.048993
v -1.245504 0.917333 -1.045235
v -1.245504 0.918769 -1.056927
v -1.260634 0.910609 -1.060686
v 0.201854 0.909174 -1.048993
v 0.216985 0.917333 -1.045235
v 0.216985 0.918769 -1.056927
v 0.201854 0.910609 -1.060686
v 1.664342 0.909174 -1.048993
v 1.679473 0.917333 -1.045235
v 1.679473 0.918769 -1.056927
v 1.664342 0.910609 -1.060686
v -2.723123 0.909174 0.224935
v -2.707992 0.917333 0.228692
v -2.707992 0.918769 0.217000
v -2.723123 0.910609 0.213242
v -1.260634 0.909174 0.224935
v -1.245504 0.917333 0.228692
v -1.245504 0.918769 0.217000
v -1.260634 0.910609 0.213242
v 0.201854 0.909174 0.224935
v 0.216985 0.917333 0.228692
v 0.216985 0.918769 0.217000
v 0.201854 0.910609 0.213242
v 1.664342 0.909174 0.224935
v 1.679473 0.917333 0.228692
v 1.679473 0.918769 0.217000
v 1.664342 0.910609 0.213242
v -2.723123 0.909174 1.498862
v -2.707992 0.917333 1.502619
v -2.707992 0.918769 1.490927
v -2.723123 0.910609 1.487169
v -1.260634 0.909174 1.498862
v -1.245504 0.917333 1.502619
v -1.245504 0.918769 1.490927
v -1.260634 0.910609 1.487169
v 0.201854 0.909174 1.498862
v 0.216985 0.917333 1.502619
v 0.216985 0.918769 1.490927
v 0.201854 0.910609 1.487169
v 1.664342 0.909174 1.498862
v 1.679473 0.917333 1.502619
v 1.679473 0.918769 1.490927
v 1.664342 0.910609 1.487169
v -2.723123 0.909174 2.772789
v -2.707992 0.917333 2.776547
v -2.707992 0.918769 2.764855
v -2.723123 0.910609 2.761096
v -1.260634 0.909174 2.772789
v -1.245504 0.917333 2.776547
v -1.245504 0.918769 2.764855
v -1.260634 0.910609 2.761096
v 0.201854 0.909174 2.772789
v 0.216985 0.917333 2.776547
v 0.216985 0.918769 2.764855
v 0.201854 0.910609 2.761096
v 1.664342 0.909174 2.772789
v 1.679473 0.917333 2.776547
v 1.679473 0.918769 2.764855
v 1.664342 0.910609 2.761096
vn -0.629100 0.771600 0.094700
vn -0.291800 0.949400 0.116600
vn -0.327700 0.937700 0.115100
vn -0.658200 0.747300 0.091700
vn -0.629100 0.771600 0.094700
vn -0.291800 0.949400 0.116600
vn -0.327700 0.937700 0.115100
vn -0.658200 0.747300 0.091700
vn -0.629100 0.771600 0.094700
vn -0.291800 0.949400 0.116600
vn -0.327700 0.937700 0.115100
vn -0.658200 0.747300 0.091700
vn -0.629100 0.771600 0.094700
vn -0.291800 0.949400 0.116600
vn -0.327700 0.937700 0.115100
vn -0.658200 0.747300 0.091700
vn -0.629100 0.771600 0.094700
vn -0.291800 0.949400 0.116600
vn -0.327700 0.937700 0.115100
vn -0.658200 0.747300 0.091700
vn -0.629100 0.771600 0.094700
vn -0.291800 0.949400 0.116600
vn -0.327700 0.937700 0.115100
vn -0.658200 0.747300 0.091700
vn -0.629100 0.771600 0.094700
vn -0.291800 0.949400 0.116600
vn -0.327700 0.937700 0.115100
vn -0.658200 0.747300 0.091700
vn -0.629100 0.771600 0.094700
vn -0.291800 0.949400 0.116600
vn -0.327700 0.937700 0.115100
vn -0.658200 0.747300 0.091700
vn -0.629100 0.771600 0.094700
vn -0.291800 0.949400 0.116600
vn -0.327700 0.937700 0.115100
vn -0.658200 0.747300 0.091700
vn -0.629100 0.771600 0.094700
vn -0.291800 0.949400 0.116600
vn -0.327700 0.937700 0.115100
vn -0.658200 0.747300 0.091700
vn -0.629100 0.771600 0.094700
vn -0.291800 0.949400 0.116600
vn -0.327700 0.937700 0.115100
vn -0.658200 0.747200 0.091700
vn -0.629100 0.771600 0.094700
vn -0.291800 0.949400 0.116600
vn -0.327700 0.937700 0.115100
vn -0.658200 0.747300 0.091700
vn -0.629100 0.771600 0.094700
vn -0.291800 0.949400 0.116600
vn -0.327700 0.937700 0.115100
vn -0.658200 0.747300 0.091700
vn -0.629100 0.771600 0.094700
vn -0.291800 0.949400 0.116600
vn -0.327700 0.937700 0.115100
vn -0.658200 0.747300 0.091700
vn -0.629100 0.771600 0.094700
vn -0.291800 0.949400 0.116600
vn -0.327700 0.937700 0.115100
vn -0.658200 0.747300 0.091700
vn -0.629100 0.771600 0.094700
vn -0.291800 0.949400 0.116600
vn -0.327700 0.937700 0.115100
vn -0.658200 0.747300 0.091700
vn -0.629100 0.771600 0.094700
vn -0.291800 0.949400 0.116600
vn -0.327700 0.937700 0.115100
vn -0.658200 0.747300 0.091700
vn -0.629100 0.771600 0.094700
vn -0.291800 0.949400 0.116600
vn -0.327700 0.937700 0.115100
vn -0.658200 0.747300 0.091700
vn -0.629100 0.771600 0.094700
vn -0.291800 0.949400 0.116600
vn -0.327700 0.937700 0.115100
vn -0.658200 0.747300 0.091700
vn -0.629100 0.771600 0.094700
vn -0.291800 0.949400 0.116600
vn -0.327700 0.937700 0.115100
vn -0.658200 0.747300 0.091700
vt 0.744407 0.102278
vt 0.763849 0.131087
vt 0.735824 0.136182
vt 0.718521 0.112752
vt 0.744407 0.102278
vt 0.763849 0.131087
vt 0.735824 0.136182
vt 0.718521 0.112752
vt 0.744407 0.102278
vt 0.763849 0.131087
vt 0.735824 0.136182
vt 0.718521 0.112752
vt 0.744407 0.102278
vt 0.763849 0.131087
vt 0.735824 0.136182
vt 0.718521 0.112752
vt 0.744407 0.102278
vt 0.763849 0.131087
vt 0.735824 0.136182
vt 0.718521 0.112752
vt 0.744407 0.102278
vt 0.763849 0.131087
vt 0.735824 0.136182
vt 0.718521 0.112752
vt 0.744407 0.102278
vt 0.763849 0.131087
vt 0.735824 0.136182
vt 0.718521 0.112752
vt 0.744407 0.102278
vt 0.763849 0.131087
vt 0.735824 0.136182
vt 0.718521 0.112752
vt 0.744407 0.102278
vt 0.763849 0.131087
vt 0.735824 0.136182
vt 0.718521 0.112752
vt 0.744407 0.102278
vt 0.763849 0.131087
vt 0.735824 0.136182
vt 0.718521 0.112752
vt 0.744407 0.102278
vt 0.763849 0.131087
vt 0.735824 0.136182
vt 0.718521 0.112752
vt 0.744407 0.102278
vt 0.763849 0.131087
vt 0.735824 0.136182
vt 0.718521 0.112752
vt 0.744407 0.102278
vt 0.763849 0.131087
vt 0.735824 0.136182
vt 0.718521 0.112752
vt 0.744407 0.102278
vt 0.763849 0.131087
vt 0.735824 0.136182
vt 0.718521 0.112752
vt 0.744407 0.102278
vt 0.763849 0.131087
vt 0.735824 0.136182
vt 0.718521 0.112752
vt 0.744407 0.102278
vt 0.763849 0.131087
vt 0.735824 0.136182
vt 0.718521 0.112752
vt 0.744407 0.102278
vt 0.763849 0.131087
vt 0.735824 0.136182
vt 0.718521 0.112752
vt 0.744407 0.102278
vt 0.763849 0.131087
vt 0.735824 0.136182
vt 0.718521 0.112752
vt 0.744407 0.102278
vt 0.763849 0.131087
vt 0.735824 0.136182
vt 0.718521 0.112752
vt 0.744407 0.102278
vt 0.763849 0.131087
vt 0.735824 0.136182
vt 0.718521 0.112752
f 1/1/1 2/2/2 3/3/3
f 1/1/1 3/3/3 4/4/4
f 5/5/5 6/6/6 7/7/7
f 5/5/5 7/7/7 8/8/8
f 9/9/9 10/10/10 11/11/11
f 9/9/9 11/11/11 12/12/12
f 13/13/13 14/14/14 15/15/15
f 13/13/13 15/15/15 16/16/16
f 17/17/17 18/18/18 19/19/19
f 17/17/17 19/19/19 20/20/20
f 21/21/21 22/22/22 23/23/23
f 21/21/21 23/23/23 24/24/24
f 25/25/25 26/26/26 27/27/27
f 25/25/25 27/27/27 28/28/28
f 29/29/29 30/30/30 31/31/31
f 29/29/29 31/31/31 32/32/32
f 33/33/33 34/34/34 35/35/35
f 33/33/33 35/35/35 36/36/36
f 37/37/37 38/38/38 39/39/39
f 37/37/37 39/39/39 40/40/40
f 41/41/41 42/42/42 43/43/43
f 41/41/41 43/43/43 44/44/44
f 45/45/45 46/46/46 47/47/47
f 45/45/45 47/47/47 48/48/48
f 49/49/49 50/50/50 51/51/51
f 49/49/49 51/51/51 52/52/52
f 53/53/53 54/54/54 55/55/55
f 53/53/53 55/55/55 56/56/56
f 57/57/57 58/58/58 59/59/59
f 57/57/57 59/59/59 60/60/60
f 61/61/61 62/62/62 63/63/63
f 61/61/61 63/63/63 64/64/64
f 65/65/65 66/66/66 67/67/67
f 65/65/65 67/67/67 68/68/68
f 69/69/69 70/70/70 71/71/71
f 69/69/69 71/71/71 72/72/72
f 73/73/73 74/74/74 75/75/75
f 73/73/73 75/75/75 76/76/76
f 77/77/77 78/78/78 79/79/79
f 77/77/77 79/79/79 80/80/80
