v 3.335769 1.232738 -5.917447
v 3.379280 1.242033 -5.917447
v 3.374479 1.274471 -5.905898
v 3.332270 1.265341 -5.917447
v 3.120207 1.204632 -5.917447
v 3.197605 1.217913 -5.917447
v 3.194107 1.250517 -5.917447
v 3.115405 1.237069 -5.917447
v 3.247105 1.224784 -5.917074
v 3.245982 1.257556 -5.917447
v 3.293396 1.226370 -5.917074
v 3.292274 1.259141 -5.917447
v 3.150753 1.070768 -5.871939
v 3.218061 1.083487 -5.893925
v 3.209301 1.129011 -5.904649
v 3.136631 1.115639 -5.898854
v 3.204095 1.152706 -5.917904
v 3.129709 1.139758 -5.918404
v 3.201103 1.185309 -5.918256
v 3.125008 1.172195 -5.918281
v 3.249486 1.089010 -5.903282
v 3.249555 1.134856 -5.911868
v 3.253572 1.159270 -5.917193
v 3.248227 1.192013 -5.917074
v 3.240723 1.090152 -5.874933
v 3.303286 1.088082 -5.902279
v 3.299845 1.134955 -5.909047
v 3.241299 1.133813 -5.894842
v 3.295641 1.160583 -5.917447
v 3.294519 1.193599 -5.917074
v 3.357497 1.097976 -5.899939
v 3.349887 1.143630 -5.909365
v 3.342765 1.167531 -5.918159
v 3.339267 1.200134 -5.918084
v 3.406223 1.108169 -5.906308
v 3.397310 1.153576 -5.912260
v 3.388884 1.177159 -5.916180
v 3.384082 1.209596 -5.916884
vn -0.019900 -0.044800 0.998800
vn -0.054300 -0.098200 0.993700
vn -0.091900 -0.185400 0.978300
vn -0.046700 -0.094800 0.994400
vn 0.002100 -0.012600 0.999900
vn -0.003700 -0.008000 0.999900
vn -0.002300 0.002800 1.000000
vn 0.000000 0.000000 1.000000
vn -0.004600 0.001100 1.000000
vn -0.002300 0.008500 1.000000
vn 0.005300 0.001900 1.000000
vn 0.001700 0.008600 1.000000
vn 0.104800 0.404800 0.908400
vn 0.145000 0.317500 0.937100
vn 0.060600 0.389800 0.918900
vn 0.015400 0.484400 0.874700
vn -0.020000 0.235800 0.971600
vn -0.037500 0.284400 0.958000
vn -0.008500 -0.008700 0.999900
vn -0.000000 -0.010600 0.999900
vn 0.186500 0.220100 0.957500
vn 0.089700 0.303000 0.948800
vn 0.034100 0.226900 0.973300
vn -0.008100 -0.004900 0.999900
vn 0.313700 0.277500 0.908100
vn 0.138700 0.227400 0.963900
vn 0.083900 0.317700 0.944500
vn 0.238600 0.366800 0.899200
vn 0.025800 0.217000 0.975800
vn 0.010000 -0.005200 0.999900
vn 0.003200 0.171600 0.985200
vn -0.017700 0.225800 0.974000
vn -0.024800 0.146100 0.989000
vn -0.003400 -0.002800 1.000000
vn 0.057700 0.176400 0.982600
vn 0.009700 0.210200 0.977600
vn -0.039300 0.129300 0.990800
vn -0.024000 0.001000 0.999700
vt 0.816259 0.787632
vt 0.975313 0.801482
vt 0.999918 0.987385
vt 0.838843 0.966485
vt 0.047512 0.818641
vt 0.326761 0.824175
vt 0.349857 1.002818
vt 0.066102 0.997361
vt 0.503744 0.819282
vt 0.534967 0.996905
vt 0.664123 0.788774
vt 0.695196 0.966519
vt 0.000082 0.015391
vt 0.257365 0.063193
vt 0.269948 0.320753
vt 0.006611 0.298003
vt 0.278656 0.466517
vt 0.009363 0.461637
vt 0.303539 0.645323
vt 0.028795 0.639882
vt 0.376819 0.077893
vt 0.416537 0.330086
vt 0.455512 0.460589
vt 0.472405 0.641556
vt 0.373734 0.034793
vt 0.560613 0.015391
vt 0.586607 0.280090
vt 0.420289 0.297438
vt 0.601008 0.430565
vt 0.632935 0.610744
vt 0.755206 0.030513
vt 0.771331 0.287741
vt 0.771325 0.429550
vt 0.793707 0.608635
vt 0.933695 0.054079
vt 0.944998 0.307748
vt 0.939961 0.443365
vt 0.957510 0.622449
f 1/1/1 2/2/2 3/3/3
f 1/1/1 3/3/3 4/4/4
f 5/5/5 6/6/6 7/7/7
f 5/5/5 7/7/7 8/8/8
f 6/6/6 9/9/9 10/10/10
f 6/6/6 10/10/10 7/7/7
f 9/9/9 11/11/11 12/12/12
f 9/9/9 12/12/12 10/10/10
f 11/11/11 1/1/1 4/4/4
f 11/11/11 4/4/4 12/12/12
f 13/13/13 14/14/14 15/15/15
f 13/13/13 15/15/15 16/16/16
f 16/16/16 15/15/15 17/17/17
f 16/16/16 17/17/17 18/18/18
f 18/18/18 17/17/17 19/19/19
f 18/18/18 19/19/19 20/20/20
f 20/20/20 19/19/19 6/6/6
f 20/20/20 6/6/6 5/5/5
f 14/14/14 21/21/21 22/22/22
f 14/14/14 22/22/22 15/15/15
f 15/15/15 22/22/22 23/23/23
f 15/15/15 23/23/23 17/17/17
f 17/17/17 23/23/23 24/24/24
f 17/17/17 24/24/24 19/19/19
f 19/19/19 24/24/24 9/9/9
f 19/19/19 9/9/9 6/6/6
f 25/25/25 26/26/26 27/27/27
f 25/25/25 27/27/27 28/28/28
f 28/28/28 27/27/27 29/29/29
f 28/28/28 29/29/29 23/23/23
f 23/23/23 29/29/29 30/30/30
f 23/23/23 30/30/30 24/24/24
f 24/24/24 30/30/30 11/11/11
f 24/24/24 11/11/11 9/9/9
f 26/26/26 31/31/31 32/32/32
f 26/26/26 32/32/32 27/27/27
f 27/27/27 32/32/32 33/33/33
f 27/27/27 33/33/33 29/29/29
f 29/29/29 33/33/33 34/34/34
f 29/29/29 34/34/34 30/30/30
f 30/30/30 34/34/34 1/1/1
f 30/30/30 1/1/1 11/11/11
f 31/31/31 35/35/35 36/36/36
f 31/31/31 36/36/36 32/32/32
f 32/32/32 36/36/36 37/37/37
f 32/32/32 37/37/37 33/33/33
f 33/33/33 37/37/37 38/38/38
f 33/33/33 38/38/38 34/34/34
f 34/34/34 38/38/38 2/2/2
f 34/34/34 2/2/2 1/1/1
