v 0.010753 2.562478 0.004383
v 0.010753 2.562478 -0.007445
v 0.009599 2.562365 -0.007445
v 0.009599 2.562365 0.004383
v 0.009599 2.562365 0.004383
v 0.009599 2.562365 -0.007445
v 0.008490 2.562028 -0.007445
v 0.008490 2.562028 0.004383
v 0.008490 2.562028 0.004383
v 0.008490 2.562028 -0.007445
v 0.007467 2.561482 -0.007445
v 0.007467 2.561482 0.004383
v 0.007467 2.561482 0.004383
v 0.007467 2.561482 -0.007445
v 0.006571 2.560746 -0.007445
v 0.006571 2.560746 0.004383
v 0.006571 2.560746 0.004383
v 0.006571 2.560746 -0.007445
v 0.005836 2.559850 -0.007445
v 0.005836 2.559850 0.004383
v 0.005836 2.559850 0.004383
v 0.005836 2.559850 -0.007445
v 0.005289 2.558827 -0.007445
v 0.005289 2.558828 0.004383
v 0.005289 2.558828 0.004383
v 0.005289 2.558827 -0.007445
v 0.004953 2.557718 -0.007445
v 0.004953 2.557718 0.004383
v 0.004953 2.557718 0.004383
v 0.004953 2.557718 -0.007445
v 0.004839 2.556564 -0.007445
v 0.004839 2.556564 0.004383
v 0.004839 2.556564 0.004383
v 0.004839 2.556564 -0.007445
v 0.004953 2.555411 -0.007445
v 0.004953 2.555411 0.004383
v 0.004953 2.555411 0.004383
v 0.004953 2.555411 -0.007445
v 0.005289 2.554301 -0.007445
v 0.005289 2.554301 0.004383
v 0.005289 2.554301 0.004383
v 0.005289 2.554301 -0.007445
v 0.005836 2.553279 -0.007445
v 0.005836 2.553279 0.004383
v 0.005836 2.553279 0.004383
v 0.005836 2.553279 -0.007445
v 0.006571 2.552382 -0.007445
v 0.006571 2.552382 0.004383
v 0.006571 2.552382 0.004383
v 0.006571 2.552382 -0.007445
v 0.007467 2.551647 -0.007445
v 0.007467 2.551647 0.004383
v 0.007467 2.551647 0.004383
v 0.007467 2.551647 -0.007445
v 0.008490 2.551100 -0.007445
v 0.008490 2.551100 0.004383
v 0.008490 2.551100 0.004383
v 0.008490 2.551100 -0.007445
v 0.009599 2.550764 -0.007445
v 0.009599 2.550764 0.004383
v 0.009599 2.550764 0.004383
v 0.009599 2.550764 -0.007445
v 0.010753 2.550650 -0.007445
v 0.010753 2.550650 0.004383
v 0.010753 2.550650 0.004383
v 0.010753 2.550650 -0.007445
v 0.011907 2.550764 -0.007445
v 0.011907 2.550764 0.004383
v 0.011907 2.550764 0.004383
v 0.011907 2.550764 -0.007445
v 0.013016 2.551100 -0.007445
v 0.013016 2.551100 0.004383
v 0.013016 2.551100 0.004383
v 0.013016 2.551100 -0.007445
v 0.014039 2.551647 -0.007445
v 0.014039 2.551647 0.004383
v 0.014039 2.551647 0.004383
v 0.014039 2.551647 -0.007445
v 0.014935 2.552382 -0.007445
v 0.014935 2.552382 0.004383
v 0.014935 2.552382 0.004383
v 0.014935 2.552382 -0.007445
v 0.015670 2.553279 -0.007445
v 0.015670 2.553279 0.004383
v 0.015670 2.553279 0.004383
v 0.015670 2.553279 -0.007445
v 0.016217 2.554301 -0.007445
v 0.016217 2.554301 0.004383
v 0.016217 2.554301 0.004383
v 0.016217 2.554301 -0.007445
v 0.016553 2.555411 -0.007445
v 0.016553 2.555411 0.004383
v 0.016553 2.555411 0.004383
v 0.016553 2.555411 -0.007445
v 0.016667 2.556564 -0.007445
v 0.016667 2.556564 0.004383
v 0.016667 2.556564 0.004383
v 0.016667 2.556564 -0.007445
v 0.016553 2.557718 -0.007445
v 0.016553 2.557718 0.004383
v 0.016553 2.557718 0.004383
v 0.016553 2.557718 -0.007445
v 0.016217 2.558827 -0.007445
v 0.016217 2.558828 0.004383
v 0.016217 2.558828 0.004383
v 0.016217 2.558827 -0.007445
v 0.015670 2.559850 -0.007445
v 0.015670 2.559850 0.004383
v 0.015670 2.559850 0.004383
v 0.015670 2.559850 -0.007445
v 0.014935 2.560746 -0.007445
v 0.014935 2.560746 0.004383
v 0.014935 2.560746 0.004383
v 0.014935 2.560746 -0.007445
v 0.014039 2.561482 -0.007445
v 0.014039 2.561482 0.004383
v 0.014039 2.561482 0.004383
v 0.014039 2.561482 -0.007445
v 0.013016 2.562028 -0.007445
v 0.013016 2.562028 0.004383
v 0.009599 2.562365 -0.007445
v 0.010753 2.562478 -0.007445
v 0.011907 2.562365 -0.007445
v 0.013016 2.562028 -0.007445
v 0.014039 2.561482 -0.007445
v 0.014935 2.560746 -0.007445
v 0.015670 2.559850 -0.007445
v 0.016217 2.558827 -0.007445
v 0.016553 2.557718 -0.007445
v 0.016667 2.556564 -0.007445
v 0.016553 2.555411 -0.007445
v 0.016217 2.554301 -0.007445
v 0.015670 2.553279 -0.007445
v 0.014935 2.552382 -0.007445
v 0.014039 2.551647 -0.007445
v 0.013016 2.551100 -0.007445
v 0.011907 2.550764 -0.007445
v 0.010753 2.550650 -0.007445
v 0.009599 2.550764 -0.007445
v 0.008490 2.551100 -0.007445
v 0.007467 2.551647 -0.007445
v 0.006571 2.552382 -0.007445
v 0.005836 2.553279 -0.007445
v 0.005289 2.554301 -0.007445
v 0.004953 2.555411 -0.007445
v 0.004839 2.556564 -0.007445
v 0.004953 2.557718 -0.007445
v 0.005289 2.558827 -0.007445
v 0.005836 2.559850 -0.007445
v 0.006571 2.560746 -0.007445
v 0.007467 2.561482 -0.007445
v 0.008490 2.562028 -0.007445
v 0.011907 2.562365 0.004383
v 0.011907 2.562365 -0.007445
v 0.010753 2.562478 -0.007445
v 0.010753 2.562478 0.004383
v 0.013016 2.562028 0.004383
v 0.013016 2.562028 -0.007445
v 0.011907 2.562365 -0.007445
v 0.011907 2.562365 0.004383
v 0.010753 2.562478 0.004383
v 0.009599 2.562365 0.004383
v 0.008490 2.562028 0.004383
v 0.007467 2.561482 0.004383
v 0.006571 2.560746 0.004383
v 0.005836 2.559850 0.004383
v 0.005289 2.558828 0.004383
v 0.004953 2.557718 0.004383
v 0.004839 2.556564 0.004383
v 0.004953 2.555411 0.004383
v 0.005289 2.554301 0.004383
v 0.005836 2.553279 0.004383
v 0.006571 2.552382 0.004383
v 0.007467 2.551647 0.004383
v 0.008490 2.551100 0.004383
v 0.009599 2.550764 0.004383
v 0.010753 2.550650 0.004383
v 0.011907 2.550764 0.004383
v 0.013016 2.551100 0.004383
v 0.014039 2.551647 0.004383
v 0.014935 2.552382 0.004383
v 0.015670 2.553279 0.004383
v 0.016217 2.554301 0.004383
v 0.016553 2.555411 0.004383
v 0.016667 2.556564 0.004383
v 0.016553 2.557718 0.004383
v 0.016217 2.558828 0.004383
v 0.015670 2.559850 0.004383
v 0.014935 2.560746 0.004383
v 0.014039 2.561482 0.004383
v 0.013016 2.562028 0.004383
v 0.011907 2.562365 0.004383
vn -0.098100 0.995200 0.000000
vn -0.098100 0.995200 0.000000
vn -0.098100 0.995200 0.000000
vn -0.098100 0.995200 0.000000
vn -0.290200 0.957000 0.000000
vn -0.290200 0.957000 0.000000
vn -0.290200 0.957000 0.000000
vn -0.290200 0.957000 0.000000
vn -0.471400 0.881900 0.000000
vn -0.471400 0.881900 0.000000
vn -0.471400 0.881900 0.000000
vn -0.471400 0.881900 0.000000
vn -0.634400 0.773000 0.000000
vn -0.634400 0.773000 0.000000
vn -0.634400 0.773000 0.000000
vn -0.634400 0.773000 0.000000
vn -0.773000 0.634400 -0.000000
vn -0.773000 0.634400 -0.000000
vn -0.773000 0.634400 -0.000000
vn -0.773000 0.634400 -0.000000
vn -0.881900 0.471400 -0.000000
vn -0.881900 0.471400 -0.000000
vn -0.881900 0.471400 -0.000000
vn -0.881900 0.471400 -0.000000
vn -0.956900 0.290300 0.000000
vn -0.956900 0.290300 0.000000
vn -0.956900 0.290300 0.000000
vn -0.956900 0.290300 0.000000
vn -0.995200 0.098000 0.000000
vn -0.995200 0.098000 0.000000
vn -0.995200 0.098000 0.000000
vn -0.995200 0.098000 0.000000
vn -0.995200 -0.098000 0.000000
vn -0.995200 -0.098000 0.000000
vn -0.995200 -0.098000 0.000000
vn -0.995200 -0.098000 0.000000
vn -0.956900 -0.290300 0.000000
vn -0.956900 -0.290300 0.000000
vn -0.956900 -0.290300 0.000000
vn -0.956900 -0.290300 0.000000
vn -0.881900 -0.471400 0.000000
vn -0.881900 -0.471400 0.000000
vn -0.881900 -0.471400 0.000000
vn -0.881900 -0.471400 0.000000
vn -0.773000 -0.634400 0.000000
vn -0.773000 -0.634400 0.000000
vn -0.773000 -0.634400 0.000000
vn -0.773000 -0.634400 0.000000
vn -0.634400 -0.773000 -0.000000
vn -0.634400 -0.773000 -0.000000
vn -0.634400 -0.773000 -0.000000
vn -0.634400 -0.773000 -0.000000
vn -0.471400 -0.881900 0.000000
vn -0.471400 -0.881900 0.000000
vn -0.471400 -0.881900 0.000000
vn -0.471400 -0.881900 0.000000
vn -0.290200 -0.957000 0.000000
vn -0.290200 -0.957000 0.000000
vn -0.290200 -0.957000 0.000000
vn -0.290200 -0.957000 0.000000
vn -0.098100 -0.995200 -0.000000
vn -0.098100 -0.995200 -0.000000
vn -0.098100 -0.995200 -0.000000
vn -0.098100 -0.995200 -0.000000
vn 0.098100 -0.995200 -0.000000
vn 0.098100 -0.995200 -0.000000
vn 0.098100 -0.995200 -0.000000
vn 0.098100 -0.995200 -0.000000
vn 0.290200 -0.957000 0.000000
vn 0.290200 -0.957000 0.000000
vn 0.290200 -0.957000 0.000000
vn 0.290200 -0.957000 0.000000
vn 0.471400 -0.881900 -0.000000
vn 0.471400 -0.881900 -0.000000
vn 0.471400 -0.881900 -0.000000
vn 0.471400 -0.881900 -0.000000
vn 0.634400 -0.773000 0.000000
vn 0.634400 -0.773000 0.000000
vn 0.634400 -0.773000 0.000000
vn 0.634400 -0.773000 0.000000
vn 0.773000 -0.634400 -0.000000
vn 0.773000 -0.634400 -0.000000
vn 0.773000 -0.634400 -0.000000
vn 0.773000 -0.634400 -0.000000
vn 0.881900 -0.471400 0.000000
vn 0.881900 -0.471400 0.000000
vn 0.881900 -0.471400 0.000000
vn 0.881900 -0.471400 0.000000
vn 0.956900 -0.290300 -0.000000
vn 0.956900 -0.290300 -0.000000
vn 0.956900 -0.290300 -0.000000
vn 0.956900 -0.290300 -0.000000
vn 0.995200 -0.098000 -0.000000
vn 0.995200 -0.098000 -0.000000
vn 0.995200 -0.098000 -0.000000
vn 0.995200 -0.098000 -0.000000
vn 0.995200 0.098000 -0.000000
vn 0.995200 0.098000 -0.000000
vn 0.995200 0.098000 -0.000000
vn 0.995200 0.098000 -0.000000
vn 0.956900 0.290300 0.000000
vn 0.956900 0.290300 0.000000
vn 0.956900 0.290300 0.000000
vn 0.956900 0.290300 0.000000
vn 0.881900 0.471400 -0.000000
vn 0.881900 0.471400 -0.000000
vn 0.881900 0.471400 -0.000000
vn 0.881900 0.471400 -0.000000
vn 0.773000 0.634400 -0.000000
vn 0.773000 0.634400 -0.000000
vn 0.773000 0.634400 -0.000000
vn 0.773000 0.634400 -0.000000
vn 0.634400 0.773000 0.000000
vn 0.634400 0.773000 0.000000
vn 0.634400 0.773000 0.000000
vn 0.634400 0.773000 0.000000
vn 0.471400 0.881900 0.000000
vn 0.471400 0.881900 0.000000
vn 0.471400 0.881900 0.000000
vn 0.471400 0.881900 0.000000
vn -0.000000 -0.000000 -1.000000
vn -0.000000 -0.000000 -1.000000
vn -0.000000 -0.000000 -1.000000
vn -0.000000 -0.000000 -1.000000
vn -0.000000 -0.000000 -1.000000
vn -0.000000 -0.000000 -1.000000
vn -0.000000 -0.000000 -1.000000
vn -0.000000 -0.000000 -1.000000
vn -0.000000 -0.000000 -1.000000
vn -0.000000 -0.000000 -1.000000
vn -0.000000 -0.000000 -1.000000
vn -0.000000 -0.000000 -1.000000
vn -0.000000 -0.000000 -1.000000
vn -0.000000 -0.000000 -1.000000
vn -0.000000 -0.000000 -1.000000
vn -0.000000 -0.000000 -1.000000
vn -0.000000 -0.000000 -1.000000
vn -0.000000 -0.000000 -1.000000
vn -0.000000 -0.000000 -1.000000
vn -0.000000 -0.000000 -1.000000
vn -0.000000 -0.000000 -1.000000
vn -0.000000 -0.000000 -1.000000
vn -0.000000 -0.000000 -1.000000
vn -0.000000 -0.000000 -1.000000
vn -0.000000 -0.000000 -1.000000
vn -0.000000 -0.000000 -1.000000
vn -0.000000 -0.000000 -1.000000
vn -0.000000 -0.000000 -1.000000
vn -0.000000 -0.000000 -1.000000
vn -0.000000 -0.000000 -1.000000
vn -0.000000 -0.000000 -1.000000
vn -0.000000 -0.000000 -1.000000
vn 0.098100 0.995200 0.000000
vn 0.098100 0.995200 0.000000
vn 0.098100 0.995200 0.000000
vn 0.098100 0.995200 0.000000
vn 0.290200 0.957000 0.000000
vn 0.290200 0.957000 0.000000
vn 0.290200 0.957000 0.000000
vn 0.290200 0.957000 0.000000
vn 0.000000 0.000000 1.000000
vn 0.000000 0.000000 1.000000
vn 0.000000 0.000000 1.000000
vn 0.000000 0.000000 1.000000
vn 0.000000 0.000000 1.000000
vn 0.000000 0.000000 1.000000
vn 0.000000 0.000000 1.000000
vn 0.000000 0.000000 1.000000
vn 0.000000 0.000000 1.000000
vn 0.000000 0.000000 1.000000
vn 0.000000 0.000000 1.000000
vn 0.000000 0.000000 1.000000
vn 0.000000 0.000000 1.000000
vn 0.000000 0.000000 1.000000
vn 0.000000 0.000000 1.000000
vn 0.000000 0.000000 1.000000
vn 0.000000 0.000000 1.000000
vn 0.000000 0.000000 1.000000
vn 0.000000 0.000000 1.000000
vn 0.000000 0.000000 1.000000
vn 0.000000 0.000000 1.000000
vn 0.000000 0.000000 1.000000
vn 0.000000 0.000000 1.000000
vn 0.000000 0.000000 1.000000
vn 0.000000 0.000000 1.000000
vn 0.000000 0.000000 1.000000
vn 0.000000 0.000000 1.000000
vn 0.000000 0.000000 1.000000
vn 0.000000 0.000000 1.000000
vn 0.000000 0.000000 1.000000
vn 0.000000 0.000000 1.000000
vn 0.000000 0.000000 1.000000
vt 0.000000 0.000000
vt 0.000000 0.000000
vt 0.000000 0.000000
vt 0.000000 0.000000
vt 0.000000 0.000000
vt 0.000000 0.000000
vt 0.000000 0.000000
vt 0.000000 0.000000
vt 0.000000 0.000000
vt 0.000000 0.000000
vt 0.000000 0.000000
vt 0.000000 0.000000
vt 0.000000 0.000000
vt 0.000000 0.000000
vt 0.000000 0.000000
vt 0.000000 0.000000
vt 0.000000 0.000000
vt 0.000000 0.000000
vt 0.000000 0.000000
vt 0.000000 0.000000
vt 0.000000 0.000000
vt 0.000000 0.000000
vt 0.000000 0.000000
vt 0.000000 0.000000
vt 0.000000 0.000000
vt 0.000000 0.000000
vt 0.000000 0.000000
vt 0.000000 0.000000
vt 0.000000 0.000000
vt 0.000000 0.000000
vt 0.000000 0.000000
vt 0.000000 0.000000
vt 0.000000 0.000000
vt 0.000000 0.000000
vt 0.000000 0.000000
vt 0.000000 0.000000
vt 0.000000 0.000000
vt 0.000000 0.000000
vt 0.000000 0.000000
vt 0.000000 0.000000
vt 0.000000 0.000000
vt 0.000000 0.000000
vt 0.000000 0.000000
vt 0.000000 0.000000
vt 0.000000 0.000000
vt 0.000000 0.000000
vt 0.000000 0.000000
vt 0.000000 0.000000
vt 0.000000 0.000000
vt 0.000000 0.000000
vt 0.000000 0.000000
vt 0.000000 0.000000
vt 0.000000 0.000000
vt 0.000000 0.000000
vt 0.000000 0.000000
vt 0.000000 0.000000
vt 0.000000 0.000000
vt 0.000000 0.000000
vt 0.000000 0.000000
vt 0.000000 0.000000
vt 0.000000 0.000000
vt 0.000000 0.000000
vt 0.000000 0.000000
vt 0.000000 0.000000
vt 0.000000 0.000000
vt 0.000000 0.000000
vt 0.000000 0.000000
vt 0.000000 0.000000
vt 0.000000 0.000000
vt 0.000000 0.000000
vt 0.000000 0.000000
vt 0.000000 0.000000
vt 0.000000 0.000000
vt 0.000000 0.000000
vt 0.000000 0.000000
vt 0.000000 0.000000
vt 0.000000 0.000000
vt 0.000000 0.000000
vt 0.000000 0.000000
vt 0.000000 0.000000
vt 0.000000 0.000000
vt 0.000000 0.000000
vt 0.000000 0.000000
vt 0.000000 0.000000
vt 0.000000 0.000000
vt 0.000000 0.000000
vt 0.000000 0.000000
vt 0.000000 0.000000
vt 0.000000 0.000000
vt 0.000000 0.000000
vt 0.000000 0.000000
vt 0.000000 0.000000
vt 0.000000 0.000000
vt 0.000000 0.000000
vt 0.000000 0.000000
vt 0.000000 0.000000
vt 0.000000 0.000000
vt 0.000000 0.000000
vt 0.000000 0.000000
vt 0.000000 0.000000
vt 0.000000 0.000000
vt 0.000000 0.000000
vt 0.000000 0.000000
vt 0.000000 0.000000
vt 0.000000 0.000000
vt 0.000000 0.000000
vt 0.000000 0.000000
vt 0.000000 0.000000
vt 0.000000 0.000000
vt 0.000000 0.000000
vt 0.000000 0.000000
vt 0.000000 0.000000
vt 0.000000 0.000000
vt 0.000000 0.000000
vt 0.000000 0.000000
vt 0.000000 0.000000
vt 0.000000 0.000000
vt 0.000000 0.000000
vt 0.000000 0.000000
vt 0.000000 0.000000
vt 0.000000 0.000000
vt 0.000000 0.000000
vt 0.000000 0.000000
vt 0.000000 0.000000
vt 0.000000 0.000000
vt 0.000000 0.000000
vt 0.000000 0.000000
vt 0.000000 0.000000
vt 0.000000 0.000000
vt 0.000000 0.000000
vt 0.000000 0.000000
vt 0.000000 0.000000
vt 0.000000 0.000000
vt 0.000000 0.000000
vt 0.000000 0.000000
vt 0.000000 0.000000
vt 0.000000 0.000000
vt 0.000000 0.000000
vt 0.000000 0.000000
vt 0.000000 0.000000
vt 0.000000 0.000000
vt 0.000000 0.000000
vt 0.000000 0.000000
vt 0.000000 0.000000
vt 0.000000 0.000000
vt 0.000000 0.000000
vt 0.000000 0.000000
vt 0.000000 0.000000
vt 0.000000 0.000000
vt 0.000000 0.000000
vt 0.000000 0.000000
vt 0.000000 0.000000
vt 0.000000 0.000000
vt 0.000000 0.000000
vt 0.000000 0.000000
vt 0.000000 0.000000
vt 0.000000 0.000000
vt 0.000000 0.000000
vt 0.000000 0.000000
vt 0.000000 0.000000
vt 0.000000 0.000000
vt 0.000000 0.000000
vt 0.000000 0.000000
vt 0.000000 0.000000
vt 0.000000 0.000000
vt 0.000000 0.000000
vt 0.000000 0.000000
vt 0.000000 0.000000
vt 0.000000 0.000000
vt 0.000000 0.000000
vt 0.000000 0.000000
vt 0.000000 0.000000
vt 0.000000 0.000000
vt 0.000000 0.000000
vt 0.000000 0.000000
vt 0.000000 0.000000
vt 0.000000 0.000000
vt 0.000000 0.000000
vt 0.000000 0.000000
vt 0.000000 0.000000
vt 0.000000 0.000000
vt 0.000000 0.000000
vt 0.000000 0.000000
vt 0.000000 0.000000
vt 0.000000 0.000000
vt 0.000000 0.000000
vt 0.000000 0.000000
vt 0.000000 0.000000
vt 0.000000 0.000000
vt 0.000000 0.000000
vt 0.000000 0.000000
vt 0.000000 0.000000
f 1/1/1 2/2/2 3/3/3
f 1/1/1 3/3/3 4/4/4
f 5/5/5 6/6/6 7/7/7
f 5/5/5 7/7/7 8/8/8
f 9/9/9 10/10/10 11/11/11
f 9/9/9 11/11/11 12/12/12
f 13/13/13 14/14/14 15/15/15
f 13/13/13 15/15/15 16/16/16
f 17/17/17 18/18/18 19/19/19
f 17/17/17 19/19/19 20/20/20
f 21/21/21 22/22/22 23/23/23
f 21/21/21 23/23/23 24/24/24
f 25/25/25 26/26/26 27/27/27
f 25/25/25 27/27/27 28/28/28
f 29/29/29 30/30/30 31/31/31
f 29/29/29 31/31/31 32/32/32
f 33/33/33 34/34/34 35/35/35
f 33/33/33 35/35/35 36/36/36
f 37/37/37 38/38/38 39/39/39
f 37/37/37 39/39/39 40/40/40
f 41/41/41 42/42/42 43/43/43
f 41/41/41 43/43/43 44/44/44
f 45/45/45 46/46/46 47/47/47
f 45/45/45 47/47/47 48/48/48
f 49/49/49 50/50/50 51/51/51
f 49/49/49 51/51/51 52/52/52
f 53/53/53 54/54/54 55/55/55
f 53/53/53 55/55/55 56/56/56
f 57/57/57 58/58/58 59/59/59
f 57/57/57 59/59/59 60/60/60
f 61/61/61 62/62/62 63/63/63
f 61/61/61 63/63/63 64/64/64
f 65/65/65 66/66/66 67/67/67
f 65/65/65 67/67/67 68/68/68
f 69/69/69 70/70/70 71/71/71
f 69/69/69 71/71/71 72/72/72
f 73/73/73 74/74/74 75/75/75
f 73/73/73 75/75/75 76/76/76
f 77/77/77 78/78/78 79/79/79
f 77/77/77 79/79/79 80/80/80
f 81/81/81 82/82/82 83/83/83
f 81/81/81 83/83/83 84/84/84
f 85/85/85 86/86/86 87/87/87
f 85/85/85 87/87/87 88/88/88
f 89/89/89 90/90/90 91/91/91
f 89/89/89 91/91/91 92/92/92
f 93/93/93 94/94/94 95/95/95
f 93/93/93 95/95/95 96/96/96
f 97/97/97 98/98/98 99/99/99
f 97/97/97 99/99/99 100/100/100
f 101/101/101 102/102/102 103/103/103
f 101/101/101 103/103/103 104/104/104
f 105/105/105 106/106/106 107/107/107
f 105/105/105 107/107/107 108/108/108
f 109/109/109 110/110/110 111/111/111
f 109/109/109 111/111/111 112/112/112
f 113/113/113 114/114/114 115/115/115
f 113/113/113 115/115/115 116/116/116
f 117/117/117 118/118/118 119/119/119
f 117/117/117 119/119/119 120/120/120
f 121/121/121 122/122/122 123/123/123
f 121/121/121 123/123/123 124/124/124
f 121/121/121 124/124/124 125/125/125
f 121/121/121 125/125/125 126/126/126
f 121/121/121 126/126/126 127/127/127
f 121/121/121 127/127/127 128/128/128
f 121/121/121 128/128/128 129/129/129
f 121/121/121 129/129/129 130/130/130
f 121/121/121 130/130/130 131/131/131
f 121/121/121 131/131/131 132/132/132
f 121/121/121 132/132/132 133/133/133
f 121/121/121 133/133/133 134/134/134
f 121/121/121 134/134/134 135/135/135
f 121/121/121 135/135/135 136/136/136
f 121/121/121 136/136/136 137/137/137
f 121/121/121 137/137/137 138/138/138
f 121/121/121 138/138/138 139/139/139
f 121/121/121 139/139/139 140/140/140
f 121/121/121 140/140/140 141/141/141
f 121/121/121 141/141/141 142/142/142
f 121/121/121 142/142/142 143/143/143
f 121/121/121 143/143/143 144/144/144
f 121/121/121 144/144/144 145/145/145
f 121/121/121 145/145/145 146/146/146
f 121/121/121 146/146/146 147/147/147
f 121/121/121 147/147/147 148/148/148
f 121/121/121 148/148/148 149/149/149
f 121/121/121 149/149/149 150/150/150
f 121/121/121 150/150/150 151/151/151
f 121/121/121 151/151/151 152/152/152
f 153/153/153 154/154/154 155/155/155
f 153/153/153 155/155/155 156/156/156
f 157/157/157 158/158/158 159/159/159
f 157/157/157 159/159/159 160/160/160
f 161/161/161 162/162/162 163/163/163
f 161/161/161 163/163/163 164/164/164
f 161/161/161 164/164/164 165/165/165
f 161/161/161 165/165/165 166/166/166
f 161/161/161 166/166/166 167/167/167
f 161/161/161 167/167/167 168/168/168
f 161/161/161 168/168/168 169/169/169
f 161/161/161 169/169/169 170/170/170
f 161/161/161 170/170/170 171/171/171
f 161/161/161 171/171/171 172/172/172
f 161/161/161 172/172/172 173/173/173
f 161/161/161 173/173/173 174/174/174
f 161/161/161 174/174/174 175/175/175
f 161/161/161 175/175/175 176/176/176
f 161/161/161 176/176/176 177/177/177
f 161/161/161 177/177/177 178/178/178
f 161/161/161 178/178/178 179/179/179
f 161/161/161 179/179/179 180/180/180
f 161/161/161 180/180/180 181/181/181
f 161/161/161 181/181/181 182/182/182
f 161/161/161 182/182/182 183/183/183
f 161/161/161 183/183/183 184/184/184
f 161/161/161 184/184/184 185/185/185
f 161/161/161 185/185/185 186/186/186
f 161/161/161 186/186/186 187/187/187
f 161/161/161 187/187/187 188/188/188
f 161/161/161 188/188/188 189/189/189
f 161/161/161 189/189/189 190/190/190
f 161/161/161 190/190/190 191/191/191
f 161/161/161 191/191/191 192/192/192
