v -1.327704 1.232842 -4.541210
v -1.327704 1.255837 -4.541210
v -1.343835 1.255837 -4.535056
v -1.343835 1.232842 -4.535056
v -1.343835 1.232842 -5.304265
v -1.343835 1.255837 -5.304265
v -1.327704 1.255837 -5.298936
v -1.327704 1.232842 -5.298936
v -1.314250 1.232842 -4.567651
v -1.314250 1.255837 -4.567651
v -1.327704 1.255837 -4.541210
v -1.327704 1.232842 -4.541210
v -1.327704 1.232842 -5.298936
v -1.327704 1.255837 -5.298936
v -1.314250 1.255837 -5.275324
v -1.314250 1.232842 -5.275324
v -1.314250 1.232842 -5.275324
v -1.314250 1.255837 -5.275324
v -1.314250 1.255837 -4.567651
v -1.314250 1.232842 -4.567651
v -2.718186 1.255837 -4.535056
v -2.734318 1.255837 -4.541210
v -2.734318 1.232842 -4.541210
v -2.718186 1.232842 -4.535056
v -2.734318 1.255837 -5.298936
v -2.718186 1.255837 -5.304265
v -2.718186 1.232842 -5.304265
v -2.734318 1.232842 -5.298936
v -2.734318 1.255837 -4.541210
v -2.747771 1.255837 -4.567651
v -2.747771 1.232842 -4.567651
v -2.734318 1.232842 -4.541210
v -2.747771 1.255837 -4.567651
v -2.747771 1.255837 -5.275324
v -2.747771 1.232842 -5.275324
v -2.747771 1.232842 -4.567651
v -2.747771 1.255837 -5.275324
v -2.734318 1.255837 -5.298936
v -2.734318 1.232842 -5.298936
v -2.747771 1.232842 -5.275324
v -1.343835 1.255837 -4.535056
v -2.718186 1.255837 -4.535056
v -2.718186 1.232842 -4.535056
v -1.343835 1.232842 -4.535056
v -2.718186 1.255837 -5.304265
v -1.343835 1.255837 -5.304265
v -1.343835 1.232842 -5.304265
v -2.718186 1.232842 -5.304265
v -1.327704 1.255837 -4.541210
v -1.327704 1.255837 -5.298936
v -1.343835 1.255837 -5.304265
v -1.343835 1.255837 -4.535056
v -1.314250 1.255837 -4.567651
v -1.314250 1.255837 -5.275324
v -2.718186 1.255837 -5.304265
v -2.734318 1.255837 -5.298936
v -2.734318 1.255837 -4.541210
v -2.718186 1.255837 -4.535056
v -2.747771 1.255837 -5.275324
v -2.747771 1.255837 -4.567651
vn 0.356400 0.000000 0.934300
vn 0.356400 0.000000 0.934300
vn 0.356400 0.000000 0.934300
vn 0.356400 0.000000 0.934300
vn 0.313700 0.000000 -0.949500
vn 0.313700 0.000000 -0.949500
vn 0.313700 0.000000 -0.949500
vn 0.313700 0.000000 -0.949500
vn 0.891300 0.000000 0.453500
vn 0.891300 0.000000 0.453500
vn 0.891300 0.000000 0.453500
vn 0.891300 0.000000 0.453500
vn 0.868900 0.000000 -0.495100
vn 0.868900 0.000000 -0.495100
vn 0.868900 0.000000 -0.495100
vn 0.868900 0.000000 -0.495100
vn 1.000000 0.000000 0.000000
vn 1.000000 0.000000 0.000000
vn 1.000000 0.000000 0.000000
vn 1.000000 0.000000 0.000000
vn -0.356400 0.000000 0.934300
vn -0.356400 0.000000 0.934300
vn -0.356400 0.000000 0.934300
vn -0.356400 0.000000 0.934300
vn -0.313700 0.000000 -0.949500
vn -0.313700 0.000000 -0.949500
vn -0.313700 0.000000 -0.949500
vn -0.313700 0.000000 -0.949500
vn -0.891300 0.000000 0.453500
vn -0.891300 0.000000 0.453500
vn -0.891300 0.000000 0.453500
vn -0.891300 0.000000 0.453500
vn -1.000000 0.000000 0.000000
vn -1.000000 0.000000 0.000000
vn -1.000000 0.000000 0.000000
vn -1.000000 0.000000 0.000000
vn -0.868900 0.000000 -0.495100
vn -0.868900 0.000000 -0.495100
vn -0.868900 0.000000 -0.495100
vn -0.868900 0.000000 -0.495100
vn 0.000000 0.000000 1.000000
vn 0.000000 0.000000 1.000000
vn 0.000000 0.000000 1.000000
vn 0.000000 0.000000 1.000000
vn 0.000000 0.000000 -1.000000
vn 0.000000 0.000000 -1.000000
vn 0.000000 0.000000 -1.000000
vn 0.000000 0.000000 -1.000000
vn 0.000000 1.000000 0.000000
vn 0.000000 1.000000 0.000000
vn 0.000000 1.000000 0.000000
vn 0.000000 1.000000 0.000000
vn 0.000000 1.000000 0.000000
vn 0.000000 1.000000 0.000000
vn 0.000000 1.000000 0.000000
vn 0.000000 1.000000 0.000000
vn 0.000000 1.000000 0.000000
vn 0.000000 1.000000 0.000000
vn 0.000000 1.000000 0.000000
vn 0.000000 1.000000 0.000000
vt 0.109711 0.020891
vt 0.131640 0.035899
vt 0.119200 0.049648
vt 0.092020 0.037859
vt 0.907979 0.084896
vt 0.882653 0.092068
vt 0.874674 0.076836
vt 0.898258 0.066979
vt 0.147475 0.006652
vt 0.155673 0.025134
vt 0.131640 0.035899
vt 0.109711 0.020891
vt 0.898258 0.066979
vt 0.874674 0.076836
vt 0.853891 0.065895
vt 0.868702 0.048699
vt 0.868702 0.048699
vt 0.853891 0.065895
vt 0.155673 0.025134
vt 0.147475 0.006652
vt 0.115819 0.943460
vt 0.122573 0.953383
vt 0.105090 0.965186
vt 0.092022 0.951503
vt 0.783757 0.946729
vt 0.788461 0.936575
vt 0.810403 0.942433
vt 0.802078 0.955299
vt 0.122573 0.953383
vt 0.142885 0.961949
vt 0.135425 0.977485
vt 0.105090 0.965186
vt 0.142885 0.961949
vt 0.765126 0.954723
vt 0.776346 0.970143
vt 0.135425 0.977485
vt 0.765126 0.954723
vt 0.783757 0.946729
vt 0.802078 0.955299
vt 0.776346 0.970143
vt 0.119200 0.049648
vt 0.115819 0.943460
vt 0.092022 0.951503
vt 0.092020 0.037859
vt 0.788461 0.936575
vt 0.882653 0.092068
vt 0.907979 0.084896
vt 0.810403 0.942433
vt 0.017002 0.019676
vt 0.984045 0.019675
vt 0.990845 0.030751
vt 0.009147 0.030753
vt 0.050744 0.010439
vt 0.953913 0.010438
vt 0.990853 0.974441
vt 0.984051 0.985518
vt 0.017010 0.985520
vt 0.009155 0.974443
vt 0.953916 0.994756
vt 0.050752 0.994757
f 1/1/1 2/2/2 3/3/3
f 1/1/1 3/3/3 4/4/4
f 5/5/5 6/6/6 7/7/7
f 5/5/5 7/7/7 8/8/8
f 9/9/9 10/10/10 11/11/11
f 9/9/9 11/11/11 12/12/12
f 13/13/13 14/14/14 15/15/15
f 13/13/13 15/15/15 16/16/16
f 17/17/17 18/18/18 19/19/19
f 17/17/17 19/19/19 20/20/20
f 21/21/21 22/22/22 23/23/23
f 21/21/21 23/23/23 24/24/24
f 25/25/25 26/26/26 27/27/27
f 25/25/25 27/27/27 28/28/28
f 29/29/29 30/30/30 31/31/31
f 29/29/29 31/31/31 32/32/32
f 33/33/33 34/34/34 35/35/35
f 33/33/33 35/35/35 36/36/36
f 37/37/37 38/38/38 39/39/39
f 37/37/37 39/39/39 40/40/40
f 41/41/41 42/42/42 43/43/43
f 41/41/41 43/43/43 44/44/44
f 45/45/45 46/46/46 47/47/47
f 45/45/45 47/47/47 48/48/48
f 49/49/49 50/50/50 51/51/51
f 49/49/49 51/51/51 52/52/52
f 53/53/53 54/54/54 50/50/50
f 53/53/53 50/50/50 49/49/49
f 55/55/55 56/56/56 57/57/57
f 55/55/55 57/57/57 58/58/58
f 56/56/56 59/59/59 60/60/60
f 56/56/56 60/60/60 57/57/57
f 52/52/52 51/51/51 55/55/55
f 52/52/52 55/55/55 58/58/58
