v -2.645812 1.244340 -4.638471
v -2.645812 1.244340 -5.217213
v -2.645812 0.296567 -5.217213
v -2.645812 0.296567 -4.638471
v -1.451355 1.244340 -4.603267
v -2.610667 1.244340 -4.603267
v -2.610667 0.296567 -4.603267
v -1.451355 0.296567 -4.603267
vn -1.000000 0.000000 0.000000
vn -1.000000 0.000000 0.000000
vn -1.000000 0.000000 0.000000
vn -1.000000 0.000000 0.000000
vn 0.000000 0.000000 1.000000
vn 0.000000 0.000000 1.000000
vn 0.000000 0.000000 1.000000
vn 0.000000 0.000000 1.000000
vt 0.990545 0.999922
vt 0.000078 0.999922
vt 0.000078 0.000078
vt 0.990545 0.000078
vt 1.000000 0.989584
vt 0.000000 0.989585
vt 0.000000 0.000000
vt 1.000000 0.000000
f 1/1/1 2/2/2 3/3/3
f 1/1/1 3/3/3 4/4/4
f 5/5/5 6/6/6 7/7/7
f 5/5/5 7/7/7 8/8/8
