v -1.074154 0.937386 -5.885175
v -1.074154 2.243057 -5.885175
v -2.839636 2.243057 -5.885175
v -2.839636 0.937386 -5.885175
v 2.560453 0.937386 -5.885175
v 2.560453 2.243057 -5.885175
v 0.725875 2.243057 -5.885175
v 0.725875 0.937386 -5.885175
v 0.725875 0.937386 -5.885175
v 0.725875 2.243057 -5.885175
v -1.074154 2.243057 -5.885175
v -1.074154 0.937386 -5.885175
vn 0.000000 0.000000 1.000000
vn 0.000000 0.000000 1.000000
vn 0.000000 0.000000 1.000000
vn 0.000000 0.000000 1.000000
vn 0.000000 0.000000 1.000000
vn 0.000000 0.000000 1.000000
vn 0.000000 0.000000 1.000000
vn 0.000000 0.000000 1.000000
vn 0.000000 0.000000 1.000000
vn 0.000000 0.000000 1.000000
vn 0.000000 0.000000 1.000000
vn 0.000000 0.000000 1.000000
vt 0.550232 0.387120
vt 0.550232 0.514118
vt 0.378510 0.514118
vt 0.378510 0.387120
vt 0.544522 0.386324
vt 0.544522 0.500560
vt 0.384010 0.500560
vt 0.384010 0.386324
vt 0.980170 0.017339
vt 0.980170 0.982905
vt 0.027938 0.982905
vt 0.027938 0.017339
f 1/1/1 2/2/2 3/3/3
f 1/1/1 3/3/3 4/4/4
f 5/5/5 6/6/6 7/7/7
f 5/5/5 7/7/7 8/8/8
f 9/9/9 10/10/10 11/11/11
f 9/9/9 11/11/11 12/12/12
