v 3.156574 1.631714 -3.588931
v 3.156574 1.640933 -3.588931
v 3.156574 1.716466 -3.588931
v 3.156574 1.726837 -3.588931
v 3.156574 1.807437 -3.588931
v 3.156574 1.817808 -3.588931
v 3.156574 1.900199 -3.588931
v 3.156574 1.909650 -3.588931
v 3.152108 1.909650 -3.588492
v 3.133933 1.909650 -3.586707
v 3.115650 1.909650 -3.585373
v 3.097196 1.909650 -3.584762
v 3.085561 1.909650 -3.584380
v 3.066586 1.909650 -3.583763
v 3.047610 1.909650 -3.583367
v 3.028635 1.909650 -3.583980
v 3.016999 1.909650 -3.584359
v 2.997544 1.909650 -3.584999
v 2.978118 1.909650 -3.585769
v 2.958944 1.909650 -3.587594
v 2.952568 1.909650 -3.588220
v 2.952568 1.900199 -3.588220
v 2.952568 1.817808 -3.588220
v 2.952568 1.807437 -3.588220
v 2.952568 1.726837 -3.588220
v 2.952568 1.716466 -3.588220
v 2.952568 1.640933 -3.588220
v 2.952568 1.631714 -3.588220
v 2.958944 1.631714 -3.587594
v 2.978118 1.631714 -3.585769
v 2.997544 1.631714 -3.584999
v 3.016999 1.631714 -3.584359
v 3.028635 1.631714 -3.583980
v 3.047610 1.631714 -3.583367
v 3.066586 1.631714 -3.583763
v 3.085561 1.631714 -3.584380
v 3.097196 1.631714 -3.584762
v 3.115650 1.631714 -3.585373
v 3.133933 1.631714 -3.586707
v 3.152108 1.631714 -3.588492
v 3.156574 1.631714 -3.588931
v 3.156574 1.909650 -3.588931
v 3.156574 1.631714 -3.588931
v 3.156574 1.631714 -3.588931
v 3.156574 1.631714 -3.588931
v 3.156574 1.631714 -3.588931
v 3.156574 1.631714 -3.588931
v 3.156574 1.631714 -3.588931
v 3.156574 1.631714 -3.588931
v 3.156574 1.631714 -3.588931
v 3.156574 1.631714 -3.588931
v 3.156574 1.631714 -3.588931
v 3.156574 1.631714 -3.588931
v 3.156574 1.631714 -3.588931
v 3.156574 1.631714 -3.588931
v 3.156574 1.631714 -3.588931
v 3.156574 1.631714 -3.588931
v 3.156574 1.631714 -3.588931
v 3.156574 1.631714 -3.588931
v 3.156574 1.631714 -3.588931
v 3.156574 1.631714 -3.588931
v 2.952568 1.631714 -3.588220
vn 0.000000 1.000000 0.000000
vn 0.000000 1.000000 0.000000
vn 0.000000 1.000000 0.000000
vn 0.000000 1.000000 0.000000
vn 0.000000 1.000000 0.000000
vn 0.000000 1.000000 0.000000
vn 0.000000 1.000000 0.000000
vn 0.000000 1.000000 0.000000
vn 0.097757 -0.000002 0.995210
vn 0.085239 -0.001029 0.996360
vn 0.052870 -0.004999 0.998589
vn 0.032984 -0.007945 0.999424
vn 0.032625 -0.008030 0.999435
vn 0.026676 -0.009950 0.999595
vn -0.005722 -0.022257 0.999736
vn -0.032366 -0.032693 0.998941
vn -0.032740 -0.032874 0.998923
vn -0.036219 -0.034853 0.998736
vn -0.066976 -0.054339 0.996274
vn -0.095238 -0.072496 0.992811
vn -0.045119 -0.035672 0.998344
vn 0.003486 0.000000 0.999994
vn 0.003486 0.000000 0.999994
vn 0.003486 0.000000 0.999994
vn 0.003486 0.000000 0.999994
vn 0.003486 0.000000 0.999994
vn 0.003486 0.000000 0.999994
vn 0.003486 0.000000 0.999994
vn 0.000000 1.000000 0.000000
vn 0.000000 1.000000 0.000000
vn 0.000000 1.000000 0.000000
vn 0.000000 1.000000 0.000000
vn 0.000000 1.000000 0.000000
vn 0.000000 1.000000 0.000000
vn 0.000000 1.000000 0.000000
vn 0.000000 1.000000 0.000000
vn 0.000000 1.000000 0.000000
vn 0.000000 1.000000 0.000000
vn 0.000000 1.000000 0.000000
vn 0.000000 1.000000 0.000000
vn 0.097862 -0.000000 0.995200
vn 0.097862 -0.000000 0.995200
vn 0.097731 -0.000002 0.995213
vn 0.072780 -0.002052 0.997346
vn 0.033081 -0.007924 0.999421
vn 0.032829 -0.007978 0.999429
vn 0.032500 -0.008062 0.999439
vn 0.020851 -0.011839 0.999712
vn -0.032270 -0.032649 0.998946
vn -0.032523 -0.032766 0.998934
vn -0.032869 -0.032939 0.998917
vn -0.039572 -0.036769 0.998540
vn -0.094512 -0.071981 0.992918
vn -0.097419 -0.074045 0.992485
vn 0.003486 0.000000 0.999994
vn 0.003486 0.000000 0.999994
vn 0.003486 0.000000 0.999994
vn 0.003486 0.000000 0.999994
vn 0.003486 0.000000 0.999994
vn 0.003486 0.000000 0.999994
vn 0.003486 0.000000 0.999994
vn 0.000000 1.000000 0.000000
vt 0.000000 0.000000
vt 0.000000 0.000000
vt 0.000000 0.000000
vt 0.000000 0.000000
vt 0.000000 0.000000
vt 0.000000 0.000000
vt 0.000000 0.000000
vt 0.000000 0.000000
vt 0.000000 0.000000
vt 0.000000 0.000000
vt 0.000000 0.000000
vt 0.000000 0.000000
vt 0.000000 0.000000
vt 0.000000 0.000000
vt 0.000000 0.000000
vt 0.000000 0.000000
vt 0.000000 0.000000
vt 0.000000 0.000000
vt 0.000000 0.000000
vt 0.000000 0.000000
vt 0.000000 0.000000
vt 0.000000 0.000000
vt 0.000000 0.000000
vt 0.000000 0.000000
vt 0.000000 0.000000
vt 0.000000 0.000000
vt 0.000000 0.000000
vt 0.000000 0.000000
vt 0.000000 0.000000
vt 0.000000 0.000000
vt 0.000000 0.000000
vt 0.000000 0.000000
vt 0.000000 0.000000
vt 0.000000 0.000000
vt 0.000000 0.000000
vt 0.000000 0.000000
vt 0.000000 0.000000
vt 0.000000 0.000000
vt 0.000000 0.000000
vt 0.000000 0.000000
vt 0.000000 0.000000
vt 0.000000 0.000000
vt 0.000000 0.000000
vt 0.000000 0.000000
vt 0.000000 0.000000
vt 0.000000 0.000000
vt 0.000000 0.000000
vt 0.000000 0.000000
vt 0.000000 0.000000
vt 0.000000 0.000000
vt 0.000000 0.000000
vt 0.000000 0.000000
vt 0.000000 0.000000
vt 0.000000 0.000000
vt 0.000000 0.000000
vt 0.000000 0.000000
vt 0.000000 0.000000
vt 0.000000 0.000000
vt 0.000000 0.000000
vt 0.000000 0.000000
vt 0.000000 0.000000
vt 0.000000 0.000000
f 1/1/1 2/2/2 3/3/3
f 1/1/1 3/3/3 4/4/4
f 1/1/1 4/4/4 5/5/5
f 1/1/1 5/5/5 6/6/6
f 1/1/1 6/6/6 7/7/7
f 1/1/1 7/7/7 8/8/8
f 41/41/41 42/42/42 9/9/9
f 43/43/43 9/9/9 10/10/10
f 44/44/44 10/10/10 11/11/11
f 45/45/45 11/11/11 12/12/12
f 46/46/46 12/12/12 13/13/13
f 47/47/47 13/13/13 14/14/14
f 48/48/48 14/14/14 15/15/15
f 49/49/49 15/15/15 16/16/16
f 50/50/50 16/16/16 17/17/17
f 51/51/51 17/17/17 18/18/18
f 52/52/52 18/18/18 19/19/19
f 53/53/53 19/19/19 20/20/20
f 54/54/54 20/20/20 21/21/21
f 55/55/55 21/21/21 22/22/22
f 56/56/56 22/22/22 23/23/23
f 57/57/57 23/23/23 24/24/24
f 58/58/58 24/24/24 25/25/25
f 59/59/59 25/25/25 26/26/26
f 60/60/60 26/26/26 27/27/27
f 61/61/61 27/27/27 28/28/28
f 1/1/1 62/62/62 29/29/29
f 1/1/1 29/29/29 30/30/30
f 1/1/1 30/30/30 31/31/31
f 1/1/1 31/31/31 32/32/32
f 1/1/1 32/32/32 33/33/33
f 1/1/1 33/33/33 34/34/34
f 1/1/1 34/34/34 35/35/35
f 1/1/1 35/35/35 36/36/36
f 1/1/1 36/36/36 37/37/37
f 1/1/1 37/37/37 38/38/38
f 1/1/1 38/38/38 39/39/39
f 1/1/1 39/39/39 40/40/40
