v 3.016555 0.230477 0.208088
v 3.040676 0.230477 0.200473
v 3.030886 0.227652 0.180379
v 2.999099 0.226741 0.193881
v 2.986659 0.227430 0.200760
v 2.991482 0.230477 0.211433
v 2.869786 0.230477 -0.021758
v 2.856203 0.230477 -0.000419
v 2.863857 0.227430 0.008447
v 2.875331 0.226741 0.000054
v 2.900954 0.227652 -0.023102
v 2.886843 0.230477 -0.040437
v 2.918132 0.230477 0.195236
v 2.941506 0.230477 0.204907
v 2.944242 0.227430 0.195221
v 2.928152 0.226741 0.184617
v 2.906279 0.227430 0.175509
v 2.896775 0.230477 0.181682
v 2.953444 0.230477 -0.075178
v 2.929322 0.230477 -0.067562
v 2.938865 0.227370 -0.058171
v 2.964773 0.226607 -0.060126
v 2.980617 0.227370 -0.067474
v 2.978516 0.230477 -0.078523
v 3.051866 0.230477 -0.062326
v 3.028493 0.230477 -0.071997
v 3.023033 0.227370 -0.061935
v 3.035720 0.226607 -0.050862
v 3.060997 0.227370 -0.042223
v 3.073223 0.230477 -0.048771
v 3.119001 0.230477 0.010785
v 3.107312 0.230477 -0.011648
v 3.085768 0.227618 0.002110
v 3.104867 0.226607 0.034341
v 3.115565 0.227370 0.043232
v 3.126649 0.230477 0.034896
v 2.850997 0.230477 0.122126
v 2.862686 0.230477 0.144558
v 2.879278 0.227686 0.133963
v 2.861787 0.226741 0.103772
v 2.852947 0.227430 0.091990
v 2.843349 0.230477 0.098015
v 3.123435 0.230477 0.109944
v 3.128900 0.230477 0.085246
v 3.117476 0.227370 0.085966
v 3.108064 0.226607 0.105819
v 3.104656 0.227370 0.126776
v 3.113795 0.230477 0.133330
v 3.063093 0.230477 0.188754
v 3.083155 0.230477 0.173348
v 3.078651 0.227370 0.160740
v 3.064567 0.226607 0.162628
v 2.846564 0.230477 0.022967
v 2.841098 0.230477 0.047664
v 2.851037 0.227430 0.049257
v 2.858591 0.226741 0.032294
v 2.966211 0.230477 0.210339
v 2.962809 0.226741 0.195504
v 2.906905 0.230477 -0.055844
v 2.931226 0.226607 -0.046189
v 2.878119 0.230477 0.164600
v 2.899309 0.226741 0.162533
v 3.003788 0.230477 -0.077429
v 3.001063 0.226607 -0.061749
v 3.091879 0.230477 -0.031689
v 3.064563 0.226607 -0.028778
v 3.129960 0.230477 0.059973
v 3.112767 0.226607 0.069798
v 2.840038 0.230477 0.072937
v 2.853888 0.226741 0.068315
v 3.100212 0.230477 0.154669
v 3.091324 0.226607 0.138058
v 2.878528 0.228014 0.055203
v 2.914789 0.231791 0.111288
v 2.969706 0.236444 0.076221
v 2.931837 0.231656 0.016436
v 2.950414 0.228014 0.167779
v 3.008010 0.231656 0.135727
v 2.995081 0.227474 -0.031490
v 3.035399 0.231521 0.034273
v 3.078096 0.227474 0.098516
vn -0.194500 0.571900 -0.796900
vn -0.314200 0.581000 -0.750800
vn -0.015200 0.999100 -0.040100
vn -0.028400 0.997700 -0.061600
vn -0.004200 0.989100 -0.146800
vn -0.043300 0.543600 -0.838200
vn 0.641100 0.571900 0.511700
vn 0.742200 0.543600 0.391900
vn 0.131400 0.989100 0.065500
vn 0.043900 0.997700 0.051700
vn 0.030000 0.999100 0.030700
vn 0.548900 0.581000 0.600900
vn 0.391500 0.531600 -0.751100
vn 0.253600 0.530800 -0.808600
vn 0.046200 0.988100 -0.146400
vn 0.053000 0.992900 -0.106400
vn 0.088400 0.988900 -0.119100
vn 0.515400 0.540800 -0.664700
vn 0.183300 0.545400 0.817900
vn 0.324800 0.556100 0.765000
vn 0.051800 0.990100 0.130400
vn 0.021500 0.994400 0.102700
vn 0.005800 0.988600 0.150100
vn 0.039700 0.542200 0.839300
vn -0.386500 0.547500 0.742200
vn -0.254300 0.543600 0.799900
vn -0.043500 0.988800 0.142800
vn -0.045700 0.994800 0.090900
vn -0.082200 0.990400 0.111000
vn -0.509500 0.559000 0.654100
vn -0.745100 0.581500 0.326600
vn -0.682100 0.587300 0.435600
vn -0.033500 0.999200 0.021400
vn -0.041200 0.998500 0.036500
vn -0.135300 0.990400 0.027800
vn -0.807800 0.559000 0.187100
vn 0.755200 0.566600 -0.329700
vn 0.690200 0.573900 -0.440700
vn 0.037700 0.999000 -0.024100
vn 0.055500 0.997700 -0.039800
vn 0.145300 0.988900 -0.030100
vn 0.819900 0.540800 -0.187900
vn -0.803600 0.539100 -0.252300
vn -0.832600 0.543600 -0.105700
vn -0.147800 0.988800 -0.020500
vn -0.108800 0.993400 -0.034400
vn -0.133700 0.988600 -0.068400
vn -0.744700 0.542200 -0.389100
vn -0.427900 0.576800 -0.695800
vn -0.557300 0.556100 -0.616500
vn -0.096500 0.990100 -0.101800
vn -0.012700 0.998400 -0.055100
vn 0.806600 0.533100 0.255100
vn 0.840300 0.530800 0.110100
vn 0.152300 0.988100 0.019700
vn 0.112500 0.993100 0.032800
vn 0.107900 0.533100 -0.839100
vn 0.017500 0.993100 -0.115900
vn 0.451200 0.576800 0.680900
vn 0.044600 0.998400 0.034700
vn 0.616800 0.566600 -0.546300
vn 0.059500 0.997700 -0.033600
vn -0.109200 0.539100 0.835100
vn -0.014600 0.993400 0.113200
vn -0.609800 0.581500 0.538500
vn -0.050500 0.998500 0.022000
vn -0.835900 0.547500 0.038400
vn -0.101700 0.994800 0.003200
vn 0.846100 0.531600 -0.039200
vn 0.118800 0.992900 -0.003400
vn -0.664800 0.545400 -0.510400
vn -0.084100 0.994400 -0.062700
vn -0.057200 0.998300 -0.009000
vn -0.062500 0.997200 0.039900
vn -0.004200 1.000000 0.002700
vn -0.037800 0.997900 -0.052000
vn -0.015900 0.998300 0.055700
vn 0.031300 0.997900 0.056200
vn 0.006500 0.999100 -0.041400
vn 0.046800 0.998400 -0.029900
vn 0.040300 0.999100 0.011500
vt 0.078951 0.652909
vt 0.057801 0.574187
vt 0.129356 0.565928
vt 0.147811 0.675679
vt 0.150705 0.721398
vt 0.113351 0.726808
vt 0.957758 0.652909
vt 0.923358 0.726808
vt 0.886004 0.721398
vt 0.888898 0.675678
vt 0.907353 0.565927
vt 0.978908 0.574187
vt 0.284553 0.897936
vt 0.217750 0.851226
vt 0.239311 0.826994
vt 0.296017 0.852304
vt 0.358690 0.895918
vt 0.358406 0.932434
vt 0.957757 0.333050
vt 0.978907 0.411771
vt 0.936852 0.402140
vt 0.897228 0.328383
vt 0.889706 0.272606
vt 0.923358 0.259150
vt 0.752156 0.088023
vt 0.818959 0.134733
vt 0.801100 0.167010
vt 0.749022 0.151758
vt 0.681721 0.098087
vt 0.678303 0.053525
vt 0.437156 0.032480
vt 0.518354 0.025321
vt 0.518354 0.107697
vt 0.397690 0.111720
vt 0.354987 0.098087
vt 0.358406 0.053525
vt 0.599553 0.953479
vt 0.518354 0.960637
vt 0.518354 0.897198
vt 0.630689 0.892342
vt 0.678019 0.895917
vt 0.678303 0.932434
vt 0.160150 0.192410
vt 0.217750 0.134733
vt 0.235609 0.167010
vt 0.198012 0.227004
vt 0.147003 0.272606
vt 0.113351 0.259150
vt 0.050751 0.492979
vt 0.057801 0.411771
vt 0.099857 0.402140
vt 0.119153 0.443667
vt 0.876559 0.793549
vt 0.818959 0.851226
vt 0.797398 0.826994
vt 0.830367 0.777058
vt 0.160150 0.793549
vt 0.206342 0.777058
vt 0.985957 0.492979
vt 0.917556 0.443667
vt 0.437156 0.953479
vt 0.406020 0.892342
vt 0.876559 0.192410
vt 0.838697 0.227004
vt 0.599553 0.032480
vt 0.639019 0.111720
vt 0.284553 0.088023
vt 0.287687 0.151758
vt 0.752156 0.897935
vt 0.740692 0.852304
vt 0.078951 0.333050
vt 0.139481 0.328383
vt 0.733568 0.762640
vt 0.518354 0.761423
vt 0.518354 0.551453
vt 0.746406 0.550620
vt 0.303141 0.762640
vt 0.290303 0.550620
vt 0.766889 0.295731
vt 0.518354 0.300280
vt 0.269820 0.295731
f 1/1/1 2/2/2 3/3/3
f 1/1/1 3/3/3 4/4/4
f 1/1/1 4/4/4 5/5/5
f 1/1/1 5/5/5 6/6/6
f 7/7/7 8/8/8 9/9/9
f 7/7/7 9/9/9 10/10/10
f 7/7/7 10/10/10 11/11/11
f 7/7/7 11/11/11 12/12/12
f 13/13/13 14/14/14 15/15/15
f 13/13/13 15/15/15 16/16/16
f 13/13/13 16/16/16 17/17/17
f 13/13/13 17/17/17 18/18/18
f 19/19/19 20/20/20 21/21/21
f 19/19/19 21/21/21 22/22/22
f 19/19/19 22/22/22 23/23/23
f 19/19/19 23/23/23 24/24/24
f 25/25/25 26/26/26 27/27/27
f 25/25/25 27/27/27 28/28/28
f 25/25/25 28/28/28 29/29/29
f 25/25/25 29/29/29 30/30/30
f 31/31/31 32/32/32 33/33/33
f 31/31/31 33/33/33 34/34/34
f 31/31/31 34/34/34 35/35/35
f 31/31/31 35/35/35 36/36/36
f 37/37/37 38/38/38 39/39/39
f 37/37/37 39/39/39 40/40/40
f 37/37/37 40/40/40 41/41/41
f 37/37/37 41/41/41 42/42/42
f 43/43/43 44/44/44 45/45/45
f 43/43/43 45/45/45 46/46/46
f 43/43/43 46/46/46 47/47/47
f 43/43/43 47/47/47 48/48/48
f 49/49/49 50/50/50 51/51/51
f 49/49/49 51/51/51 52/52/52
f 49/49/49 52/52/52 3/3/3
f 49/49/49 3/3/3 2/2/2
f 53/53/53 54/54/54 55/55/55
f 53/53/53 55/55/55 56/56/56
f 53/53/53 56/56/56 9/9/9
f 53/53/53 9/9/9 8/8/8
f 57/57/57 6/6/6 5/5/5
f 57/57/57 5/5/5 58/58/58
f 57/57/57 58/58/58 15/15/15
f 57/57/57 15/15/15 14/14/14
f 59/59/59 12/12/12 11/11/11
f 59/59/59 11/11/11 60/60/60
f 59/59/59 60/60/60 21/21/21
f 59/59/59 21/21/21 20/20/20
f 61/61/61 18/18/18 17/17/17
f 61/61/61 17/17/17 62/62/62
f 61/61/61 62/62/62 39/39/39
f 61/61/61 39/39/39 38/38/38
f 63/63/63 24/24/24 23/23/23
f 63/63/63 23/23/23 64/64/64
f 63/63/63 64/64/64 27/27/27
f 63/63/63 27/27/27 26/26/26
f 65/65/65 30/30/30 29/29/29
f 65/65/65 29/29/29 66/66/66
f 65/65/65 66/66/66 33/33/33
f 65/65/65 33/33/33 32/32/32
f 67/67/67 36/36/36 35/35/35
f 67/67/67 35/35/35 68/68/68
f 67/67/67 68/68/68 45/45/45
f 67/67/67 45/45/45 44/44/44
f 69/69/69 42/42/42 41/41/41
f 69/69/69 41/41/41 70/70/70
f 69/69/69 70/70/70 55/55/55
f 69/69/69 55/55/55 54/54/54
f 71/71/71 48/48/48 47/47/47
f 71/71/71 47/47/47 72/72/72
f 71/71/71 72/72/72 51/51/51
f 71/71/71 51/51/51 50/50/50
f 73/73/73 40/40/40 39/39/39
f 73/73/73 39/39/39 74/74/74
f 73/73/73 74/74/74 75/75/75
f 73/73/73 75/75/75 76/76/76
f 73/73/73 76/76/76 11/11/11
f 73/73/73 11/11/11 10/10/10
f 73/73/73 10/10/10 9/9/9
f 73/73/73 9/9/9 56/56/56
f 73/73/73 56/56/56 55/55/55
f 73/73/73 55/55/55 70/70/70
f 73/73/73 70/70/70 41/41/41
f 73/73/73 41/41/41 40/40/40
f 77/77/77 62/62/62 17/17/17
f 77/77/77 17/17/17 16/16/16
f 77/77/77 16/16/16 15/15/15
f 77/77/77 15/15/15 58/58/58
f 77/77/77 58/58/58 5/5/5
f 77/77/77 5/5/5 4/4/4
f 77/77/77 4/4/4 3/3/3
f 77/77/77 3/3/3 78/78/78
f 77/77/77 78/78/78 75/75/75
f 77/77/77 75/75/75 74/74/74
f 77/77/77 74/74/74 39/39/39
f 77/77/77 39/39/39 62/62/62
f 79/79/79 76/76/76 75/75/75
f 79/79/79 75/75/75 80/80/80
f 79/79/79 80/80/80 33/33/33
f 79/79/79 33/33/33 66/66/66
f 79/79/79 66/66/66 29/29/29
f 79/79/79 29/29/29 28/28/28
f 79/79/79 28/28/28 27/27/27
f 79/79/79 27/27/27 64/64/64
f 79/79/79 64/64/64 23/23/23
f 79/79/79 23/23/23 22/22/22
f 79/79/79 22/22/22 21/21/21
f 79/79/79 21/21/21 60/60/60
f 79/79/79 60/60/60 11/11/11
f 79/79/79 11/11/11 76/76/76
f 81/81/81 80/80/80 75/75/75
f 81/81/81 75/75/75 78/78/78
f 81/81/81 78/78/78 3/3/3
f 81/81/81 3/3/3 52/52/52
f 81/81/81 52/52/52 51/51/51
f 81/81/81 51/51/51 72/72/72
f 81/81/81 72/72/72 47/47/47
f 81/81/81 47/47/47 46/46/46
f 81/81/81 46/46/46 45/45/45
f 81/81/81 45/45/45 68/68/68
f 81/81/81 68/68/68 35/35/35
f 81/81/81 35/35/35 34/34/34
f 81/81/81 34/34/34 33/33/33
f 81/81/81 33/33/33 80/80/80
