v 1.619572 0.718558 0.271907
v 2.145627 0.718558 0.271907
v 2.145627 0.000000 0.271907
v 1.619572 0.000000 0.271907
v 1.619572 0.718558 0.271907
v 1.619572 0.000000 0.271907
v 1.486917 0.000000 -0.035369
v 1.486917 0.718558 -0.035369
v 2.145627 0.000000 0.271907
v 2.145627 0.718558 0.271907
v 2.278282 0.718558 -0.035369
v 2.278282 0.000000 -0.035369
v 2.145627 0.825304 0.271907
v 2.278282 0.825304 -0.035369
v 1.486917 0.825304 -0.035369
v 1.619572 0.825304 0.271907
v 1.619572 0.825304 0.271907
v 2.145627 0.825304 0.271907
vn 0.000000 0.000000 -1.000000
vn 0.000000 0.000000 -1.000000
vn 0.000000 0.000000 -1.000000
vn 0.000000 0.000000 -1.000000
vn 0.918100 0.000000 -0.396400
vn 0.918100 0.000000 -0.396400
vn 0.957000 0.000000 -0.290200
vn 0.945300 0.000000 -0.326200
vn -0.918100 -0.000000 -0.396400
vn -0.918100 -0.000000 -0.396400
vn -0.945300 -0.000000 -0.326200
vn -0.957000 -0.000000 -0.290200
vn -0.918100 -0.000000 -0.396400
vn -0.918100 -0.000000 -0.396400
vn 0.918100 0.000000 -0.396400
vn 0.918100 0.000000 -0.396400
vn 0.000000 0.000000 -1.000000
vn 0.000000 0.000000 -1.000000
vt 0.000000 0.000000
vt 0.000000 0.000000
vt 0.000000 0.000000
vt 0.000000 0.000000
vt 0.000000 0.000000
vt 0.000000 0.000000
vt 0.000000 0.000000
vt 0.000000 0.000000
vt 0.000000 0.000000
vt 0.000000 0.000000
vt 0.000000 0.000000
vt 0.000000 0.000000
vt 0.000000 0.000000
vt 0.000000 0.000000
vt 0.000000 0.000000
vt 0.000000 0.000000
vt 0.000000 0.000000
vt 0.000000 0.000000
f 1/1/1 2/2/2 3/3/3
f 1/1/1 3/3/3 4/4/4
f 5/5/5 6/6/6 7/7/7
f 5/5/5 7/7/7 8/8/8
f 9/9/9 10/10/10 11/11/11
f 9/9/9 11/11/11 12/12/12
f 11/11/11 10/10/10 13/13/13
f 11/11/11 13/13/13 14/14/14
f 5/5/5 8/8/8 15/15/15
f 5/5/5 15/15/15 16/16/16
f 2/2/2 1/1/1 17/17/17
f 2/2/2 17/17/17 18/18/18
