v 1.420650 1.953084 -3.577554
v 1.420650 1.141106 -3.595073
v 1.420650 1.141837 -3.628965
v 1.420650 1.953815 -3.611445
v 1.420650 1.141106 -3.595073
v 2.421100 1.141106 -3.595074
v 2.421100 1.141837 -3.628965
v 1.420650 1.141837 -3.628965
v 2.421100 1.141106 -3.595074
v 2.421100 1.953084 -3.577554
v 2.421100 1.953815 -3.611445
v 2.421100 1.141837 -3.628965
v 2.421100 1.953084 -3.577554
v 1.420650 1.953084 -3.577554
v 1.420650 1.953815 -3.611445
v 2.421100 1.953815 -3.611445
vn 1.000000 0.000000 0.000000
vn 1.000000 0.000000 0.000000
vn 1.000000 0.000000 0.000000
vn 1.000000 0.000000 0.000000
vn 0.000000 0.999800 0.021600
vn 0.000000 0.999800 0.021600
vn 0.000000 0.999800 0.021600
vn 0.000000 0.999800 0.021600
vn -1.000000 0.000000 0.000000
vn -1.000000 0.000000 0.000000
vn -1.000000 0.000000 0.000000
vn -1.000000 0.000000 0.000000
vn 0.000000 -0.999800 -0.021600
vn 0.000000 -0.999800 -0.021600
vn 0.000000 -0.999800 -0.021600
vn 0.000000 -0.999800 -0.021600
vt 0.000000 0.000000
vt 0.000000 0.000000
vt 0.000000 0.000000
vt 0.000000 0.000000
vt 0.000000 0.000000
vt 0.000000 0.000000
vt 0.000000 0.000000
vt 0.000000 0.000000
vt 0.000000 0.000000
vt 0.000000 0.000000
vt 0.000000 0.000000
vt 0.000000 0.000000
vt 0.845919 2.024772
vt 0.845908 -1.774848
vt 0.974653 -1.774848
vt 0.974666 2.024771
f 1/1/1 2/2/2 3/3/3
f 1/1/1 3/3/3 4/4/4
f 5/5/5 6/6/6 7/7/7
f 5/5/5 7/7/7 8/8/8
f 9/9/9 10/10/10 11/11/11
f 9/9/9 11/11/11 12/12/12
f 13/13/13 14/14/14 15/15/15
f 13/13/13 15/15/15 16/16/16
