v 1.520688 1.847466 -3.593385
v 1.520688 1.249308 -3.606291
v 1.530878 1.257122 -3.609462
v 1.530878 1.839796 -3.596890
v 1.442050 1.923259 -3.591749
v 1.442050 1.173516 -3.607926
v 1.520688 1.249308 -3.606291
v 1.520688 1.847466 -3.593385
v 2.386555 1.173516 -3.607926
v 2.386556 1.923259 -3.591749
v 2.307917 1.847466 -3.593385
v 2.307917 1.249308 -3.606291
v 1.530878 1.839796 -3.596890
v 1.530878 1.257122 -3.609462
v 1.530878 1.257158 -3.611119
v 1.530878 1.839832 -3.598547
v 2.307917 1.249308 -3.606291
v 2.307917 1.847466 -3.593385
v 2.297728 1.839796 -3.596890
v 2.297728 1.257122 -3.609462
v 1.520688 1.249308 -3.606291
v 2.307917 1.249308 -3.606291
v 2.297728 1.257122 -3.609462
v 1.530878 1.257122 -3.609462
v 2.307917 1.847466 -3.593385
v 1.520688 1.847466 -3.593385
v 1.530878 1.839796 -3.596890
v 2.297728 1.839796 -3.596890
v 2.297728 1.257122 -3.609462
v 2.297728 1.839796 -3.596890
v 2.297728 1.839832 -3.598547
v 2.297728 1.257158 -3.611119
v 1.530878 1.257122 -3.609462
v 2.297728 1.257122 -3.609462
v 2.297728 1.257158 -3.611119
v 1.530878 1.257158 -3.611119
v 2.297728 1.839796 -3.596890
v 1.530878 1.839796 -3.596890
v 1.530878 1.839832 -3.598547
v 2.297728 1.839832 -3.598547
vn 0.311300 -0.020500 0.950100
vn 0.311300 -0.020500 0.950100
vn 0.311300 -0.020500 0.950100
vn 0.311300 -0.020500 0.950100
vn 0.000000 -0.021600 0.999800
vn 0.000000 -0.021600 0.999800
vn 0.000000 -0.021600 0.999800
vn 0.000000 -0.021600 0.999800
vn 0.000000 -0.021600 0.999800
vn 0.000000 -0.021600 0.999800
vn 0.000000 -0.021600 0.999800
vn 0.000000 -0.021600 0.999800
vn 1.000000 0.000000 0.000000
vn 1.000000 0.000000 0.000000
vn 1.000000 0.000000 0.000000
vn 1.000000 0.000000 0.000000
vn -0.311300 -0.020500 0.950100
vn -0.311300 -0.020500 0.950100
vn -0.311300 -0.020500 0.950100
vn -0.311300 -0.020500 0.950100
vn 0.000000 0.376000 0.926600
vn 0.000000 0.376000 0.926600
vn 0.000000 0.376000 0.926600
vn 0.000000 0.376000 0.926600
vn 0.000000 -0.415600 0.909500
vn 0.000000 -0.415600 0.909500
vn 0.000000 -0.415600 0.909500
vn 0.000000 -0.415600 0.909500
vn -1.000000 0.000000 0.000000
vn -1.000000 0.000000 0.000000
vn -1.000000 0.000000 0.000000
vn -1.000000 0.000000 0.000000
vn 0.000000 0.999800 0.021600
vn 0.000000 0.999800 0.021600
vn 0.000000 0.999800 0.021600
vn 0.000000 0.999800 0.021600
vn 0.000000 -0.999800 -0.021600
vn 0.000000 -0.999800 -0.021600
vn 0.000000 -0.999800 -0.021600
vn 0.000000 -0.999800 -0.021600
vt 0.000097 0.000097
vt 0.999903 0.000097
vt 0.999903 0.000097
vt 0.000097 0.000097
vt 0.000097 0.000097
vt 0.999903 0.000097
vt 0.999903 0.000097
vt 0.000097 0.000097
vt 0.999903 0.996547
vt 0.000097 0.996547
vt 0.000097 0.996547
vt 0.999903 0.996547
vt 0.000097 0.000097
vt 0.999903 0.000097
vt 0.999903 0.000097
vt 0.000097 0.000097
vt 0.999903 0.996547
vt 0.000097 0.996547
vt 0.000097 0.996547
vt 0.999903 0.996547
vt 0.999903 0.000097
vt 0.999903 0.996547
vt 0.999903 0.996547
vt 0.999903 0.000097
vt 0.000097 0.996547
vt 0.000097 0.000097
vt 0.000097 0.000097
vt 0.000097 0.996547
vt 0.999903 0.996547
vt 0.000097 0.996547
vt 0.000097 0.996547
vt 0.999903 0.996547
vt 0.999903 0.000097
vt 0.999903 0.996547
vt 0.999903 0.996547
vt 0.999903 0.000097
vt 0.000097 0.996547
vt 0.000097 0.000097
vt 0.000097 0.000097
vt 0.000097 0.996547
f 1/1/1 2/2/2 3/3/3
f 1/1/1 3/3/3 4/4/4
f 5/5/5 6/6/6 7/7/7
f 5/5/5 7/7/7 8/8/8
f 9/9/9 10/10/10 11/11/11
f 9/9/9 11/11/11 12/12/12
f 6/6/6 9/9/9 12/12/12
f 6/6/6 12/12/12 7/7/7
f 10/10/10 5/5/5 8/8/8
f 10/10/10 8/8/8 11/11/11
f 13/13/13 14/14/14 15/15/15
f 13/13/13 15/15/15 16/16/16
f 17/17/17 18/18/18 19/19/19
f 17/17/17 19/19/19 20/20/20
f 21/21/21 22/22/22 23/23/23
f 21/21/21 23/23/23 24/24/24
f 25/25/25 26/26/26 27/27/27
f 25/25/25 27/27/27 28/28/28
f 29/29/29 30/30/30 31/31/31
f 29/29/29 31/31/31 32/32/32
f 33/33/33 34/34/34 35/35/35
f 33/33/33 35/35/35 36/36/36
f 37/37/37 38/38/38 39/39/39
f 37/37/37 39/39/39 40/40/40
