v 0.000000 0.591434 -3.022501
v 0.000000 0.000000 -3.022501
v 0.000000 0.000000 -3.632799
v 0.000000 0.591434 -3.632799
v 3.502188 0.591434 -3.632799
v 3.502188 0.000000 -3.632799
v 5.122005 0.000000 -3.632799
v 5.122005 0.591434 -3.632799
v 0.000000 0.591434 -3.632799
v 0.000000 0.000000 -3.632799
v 0.254610 0.000000 -3.632799
v 0.254610 0.591434 -3.632799
v 0.254610 0.591434 0.000000
v 0.254610 0.000000 0.000000
v 0.000000 0.000000 0.000000
v 0.000000 0.591434 0.000000
v 1.269489 0.000000 -3.632799
v 1.269489 0.591434 -3.632799
v 1.442800 0.591434 0.000000
v 1.442800 0.000000 0.000000
v 1.269489 0.000000 0.000000
v 1.269489 0.591434 0.000000
v 2.322400 0.591434 -3.632799
v 2.322400 0.000000 -3.632799
v 2.498210 0.000000 -3.632799
v 2.498210 0.591434 -3.632799
v 5.122005 0.591434 0.000000
v 5.122005 0.000000 0.000000
v 3.502188 0.000000 0.000000
v 3.502188 0.591434 0.000000
v 0.000000 2.879001 -3.022501
v 0.000000 2.490900 -3.022501
v 0.000000 2.490900 -3.632799
v 0.000000 2.879001 -3.632799
v 3.502188 2.879001 -3.632799
v 3.502188 2.490900 -3.632799
v 5.122005 2.490900 -3.632799
v 5.122005 2.879001 -3.632799
v 0.000000 2.879001 -3.632799
v 0.000000 2.490900 -3.632799
v 0.254610 2.490900 -3.632799
v 0.254610 2.879001 -3.632799
v 0.254610 2.879001 0.000000
v 0.254610 2.490900 0.000000
v 0.000000 2.490900 0.000000
v 0.000000 2.879001 0.000000
v 1.269489 2.879001 0.000000
v 1.269489 2.490900 0.000000
v 1.269489 2.490900 -3.632799
v 1.269489 2.879001 -3.632799
v 1.442800 2.879001 0.000000
v 1.442800 2.490900 0.000000
v 2.322400 2.879001 -3.632799
v 2.322400 2.490900 -3.632799
v 2.498210 2.490900 -3.632799
v 2.498210 2.879001 -3.632799
v 3.502188 2.879001 0.000000
v 3.502188 2.490900 0.000000
v 2.498210 2.490900 0.000000
v 2.498210 2.879001 0.000000
v 5.122005 2.879001 0.000000
v 5.122005 2.490900 0.000000
v 3.502188 1.995582 -3.632799
v 5.122005 1.995582 -3.632799
v 0.000000 1.995582 -3.632799
v 0.254610 1.995582 -3.632799
v 0.254610 1.995582 0.000000
v 0.000000 1.995582 0.000000
v 1.269489 1.995582 -3.632799
v 1.442800 0.788015 0.000000
v 1.269489 0.788014 0.000000
v 2.322400 1.995582 -3.632799
v 2.498210 1.995582 -3.632799
v 5.122005 1.995582 0.000000
v 3.502188 1.995582 0.000000
v 0.000000 0.591434 0.000000
v 0.000000 0.000000 0.000000
v 0.000000 0.000000 -0.098600
v 0.000000 0.591434 -0.098600
v 0.000000 2.879001 0.000000
v 0.000000 2.490900 0.000000
v 0.000000 2.490900 -0.098600
v 0.000000 2.879001 -0.098600
v 0.000000 1.995582 0.000000
v 0.000000 1.995582 -0.098600
v 0.000000 2.092213 -0.108117
v 0.000000 2.879001 -1.077001
v 0.000000 2.490900 -1.077001
v 0.000000 2.490900 -2.044100
v 0.000000 2.879001 -2.044100
v 5.122005 1.995582 -0.098600
v 5.122005 1.995582 -0.587801
v 5.122005 0.591434 -0.587801
v 5.122005 0.591434 -0.098600
v 0.000000 2.345822 -0.944153
v 0.000000 2.407420 -0.869095
v 5.122005 1.995582 0.000000
v 5.122005 0.591434 0.000000
v 5.122005 1.995582 -1.077001
v 5.122005 0.591434 -1.077001
v 5.122005 1.995582 -2.044100
v 5.122005 0.591434 -2.044100
v 5.122005 0.000000 -0.098600
v 5.122005 0.000000 0.000000
v 5.122005 0.000000 -0.587801
v 5.122005 0.000000 -2.044100
v 5.122005 0.000000 -1.077001
v 5.122005 0.591434 -2.539413
v 5.122005 0.000000 -2.539413
v 5.122005 2.879001 0.000000
v 5.122005 2.879001 -0.098600
v 5.122005 2.490900 -0.098600
v 5.122005 2.490900 0.000000
v 5.122005 2.879001 -0.587801
v 5.122005 2.879001 -1.077001
v 5.122005 2.490900 -1.077001
v 5.122005 2.490900 -0.587801
v 5.122005 2.879001 -2.044100
v 5.122005 2.490900 -2.044100
v 5.122005 2.879001 -2.539413
v 5.122005 2.879001 -3.022501
v 5.122005 2.490900 -3.022501
v 5.122005 2.490900 -2.539413
v 5.122005 2.879001 -3.632799
v 5.122005 2.490900 -3.632799
v 5.122005 1.995582 -2.539413
v 5.122005 1.995582 -3.022501
v 5.122005 0.591434 -3.022501
v 5.122005 1.995582 -3.632799
v 5.122005 0.591434 -3.632799
v 5.122005 0.000000 -3.632799
v 5.122005 0.000000 -3.022501
v 0.000000 2.407420 -2.264232
v 0.000000 2.345822 -2.189174
v 0.000000 2.453192 -2.349865
v 0.000000 2.481379 -2.442783
v 0.000000 2.270763 -2.127575
v 0.000000 2.185130 -2.081803
v 2.322400 0.788015 0.000000
v 2.322400 2.490900 0.000000
v 0.000000 2.092213 -2.053617
v 0.000000 1.995582 -2.044100
v -0.000000 1.995582 -3.022501
v 0.000000 1.995582 -3.632799
v 0.000000 2.879001 -2.539413
v 0.000000 2.490896 -2.539413
v 0.000000 2.092213 -3.019454
v 0.000000 2.185130 -2.997024
v 0.000000 2.270763 -2.951252
v 0.000000 2.481379 -2.636045
v 0.000000 2.453192 -2.728962
v 0.000000 2.407420 -2.814595
v 0.000000 2.345822 -2.889653
v 0.000000 0.591434 -1.077001
v 0.000000 0.000000 -1.077001
v 0.000000 0.000000 -2.044100
v 0.000000 0.591434 -2.044100
v -0.000000 1.995582 -1.077001
v 0.000000 2.092213 -1.073954
v 0.000000 2.185130 -1.051524
v 0.000000 2.270763 -1.005752
v 0.000000 2.453192 -0.783462
v 0.000000 2.481379 -0.690545
v 0.000000 2.481379 -0.497283
v 0.000000 2.453192 -0.404365
v 0.000000 2.490896 -0.587801
v 0.000000 2.879001 -0.587801
v 0.000000 2.185130 -0.136303
v 0.000000 2.270763 -0.182075
v 0.000000 2.407420 -0.318732
v 0.000000 2.345822 -0.243674
v 2.498210 0.591434 0.000000
v 2.498210 0.000000 0.000000
v 2.322400 0.000000 0.000000
v 2.322400 0.591434 0.000000
v 1.442800 0.591434 -3.632799
v 1.442800 0.000000 -3.632799
v 2.322400 2.879001 0.000000
v 1.442800 2.879001 -3.632799
v 1.442800 2.490900 -3.632799
v 2.498210 0.788014 0.000000
v 1.442800 1.995582 -3.632799
vn 1.000000 0.000000 0.000000
vn 1.000000 0.000000 0.000000
vn 1.000000 0.000000 0.000000
vn 1.000000 0.000000 0.000000
vn 0.000000 0.000000 1.000000
vn 0.000000 0.000000 1.000000
vn 0.000000 0.000000 1.000000
vn 0.000000 0.000000 1.000000
vn 0.000000 0.000000 1.000000
vn 0.000000 0.000000 1.000000
vn 0.000000 0.000000 1.000000
vn 0.000000 0.000000 1.000000
vn 0.000000 0.000000 -1.000000
vn 0.000000 0.000000 -1.000000
vn 0.000000 0.000000 -1.000000
vn 0.000000 0.000000 -1.000000
vn 0.000000 0.000000 1.000000
vn 0.000000 0.000000 1.000000
vn 0.000000 0.000000 -1.000000
vn 0.000000 0.000000 -1.000000
vn 0.000000 0.000000 -1.000000
vn 0.000000 0.000000 -1.000000
vn 0.000000 0.000000 1.000000
vn 0.000000 0.000000 1.000000
vn 0.000000 0.000000 1.000000
vn 0.000000 0.000000 1.000000
vn 0.000000 0.000000 -1.000000
vn 0.000000 0.000000 -1.000000
vn 0.000000 0.000000 -1.000000
vn 0.000000 0.000000 -1.000000
vn 1.000000 0.000000 0.000000
vn 1.000000 0.000000 0.000000
vn 1.000000 0.000000 0.000000
vn 1.000000 0.000000 0.000000
vn 0.000000 0.000000 1.000000
vn 0.000000 0.000000 1.000000
vn 0.000000 0.000000 1.000000
vn 0.000000 0.000000 1.000000
vn 0.000000 0.000000 1.000000
vn 0.000000 0.000000 1.000000
vn 0.000000 0.000000 1.000000
vn 0.000000 0.000000 1.000000
vn 0.000000 0.000000 -1.000000
vn 0.000000 0.000000 -1.000000
vn 0.000000 0.000000 -1.000000
vn 0.000000 0.000000 -1.000000
vn 0.000000 0.000000 -1.000000
vn 0.000000 0.000000 -1.000000
vn 0.000000 0.000000 1.000000
vn 0.000000 0.000000 1.000000
vn 0.000000 0.000000 -1.000000
vn 0.000000 0.000000 -1.000000
vn 0.000000 0.000000 1.000000
vn 0.000000 0.000000 1.000000
vn 0.000000 0.000000 1.000000
vn 0.000000 0.000000 1.000000
vn 0.000000 0.000000 -1.000000
vn 0.000000 0.000000 -1.000000
vn 0.000000 0.000000 -1.000000
vn 0.000000 0.000000 -1.000000
vn 0.000000 0.000000 -1.000000
vn 0.000000 0.000000 -1.000000
vn 0.000000 0.000000 1.000000
vn 0.000000 0.000000 1.000000
vn 0.000000 0.000000 1.000000
vn 0.000000 0.000000 1.000000
vn 0.000000 0.000000 -1.000000
vn 0.000000 0.000000 -1.000000
vn 0.000000 0.000000 1.000000
vn 0.000000 0.000000 -1.000000
vn 0.000000 0.000000 -1.000000
vn 0.000000 0.000000 1.000000
vn 0.000000 0.000000 1.000000
vn 0.000000 0.000000 -1.000000
vn 0.000000 0.000000 -1.000000
vn 1.000000 0.000000 0.000000
vn 1.000000 0.000000 0.000000
vn 1.000000 0.000000 0.000000
vn 1.000000 0.000000 0.000000
vn 1.000000 0.000000 0.000000
vn 1.000000 0.000000 0.000000
vn 1.000000 0.000000 0.000000
vn 1.000000 0.000000 0.000000
vn 1.000000 0.000000 0.000000
vn 1.000000 0.000000 0.000000
vn 1.000000 0.000000 0.000000
vn 1.000000 0.000000 0.000000
vn 1.000000 0.000000 0.000000
vn 1.000000 0.000000 0.000000
vn 1.000000 0.000000 0.000000
vn -1.000000 0.000000 0.000000
vn -1.000000 0.000000 0.000000
vn -1.000000 0.000000 0.000000
vn -1.000000 0.000000 0.000000
vn 1.000000 0.000000 0.000000
vn 1.000000 0.000000 0.000000
vn -1.000000 0.000000 0.000000
vn -1.000000 0.000000 0.000000
vn -1.000000 0.000000 0.000000
vn -1.000000 0.000000 0.000000
vn -1.000000 0.000000 0.000000
vn -1.000000 0.000000 0.000000
vn -1.000000 0.000000 0.000000
vn -1.000000 0.000000 0.000000
vn -1.000000 0.000000 0.000000
vn -1.000000 0.000000 0.000000
vn -1.000000 0.000000 0.000000
vn -1.000000 0.000000 0.000000
vn -1.000000 0.000000 0.000000
vn -1.000000 0.000000 0.000000
vn -1.000000 0.000000 0.000000
vn -1.000000 0.000000 0.000000
vn -1.000000 0.000000 0.000000
vn -1.000000 0.000000 0.000000
vn -1.000000 0.000000 0.000000
vn -1.000000 0.000000 0.000000
vn -1.000000 0.000000 0.000000
vn -1.000000 0.000000 0.000000
vn -1.000000 0.000000 0.000000
vn -1.000000 0.000000 0.000000
vn -1.000000 0.000000 0.000000
vn -1.000000 0.000000 0.000000
vn -1.000000 0.000000 0.000000
vn -1.000000 0.000000 0.000000
vn -1.000000 0.000000 0.000000
vn -1.000000 0.000000 0.000000
vn -1.000000 0.000000 0.000000
vn -1.000000 0.000000 0.000000
vn -1.000000 0.000000 0.000000
vn -1.000000 0.000000 0.000000
vn -1.000000 0.000000 0.000000
vn -1.000000 0.000000 0.000000
vn 1.000000 0.000000 0.000000
vn 1.000000 0.000000 0.000000
vn 1.000000 0.000000 0.000000
vn 1.000000 0.000000 0.000000
vn 1.000000 0.000000 0.000000
vn 1.000000 0.000000 0.000000
vn 0.000000 0.000000 -1.000000
vn 0.000000 0.000000 -1.000000
vn 1.000000 0.000000 0.000000
vn 1.000000 0.000000 0.000000
vn 1.000000 0.000000 0.000000
vn 1.000000 0.000000 0.000000
vn 1.000000 0.000000 0.000000
vn 1.000000 0.000000 0.000000
vn 1.000000 -0.000000 -0.000100
vn 1.000000 0.000000 0.000000
vn 1.000000 0.000000 0.000000
vn 1.000000 0.000000 0.000000
vn 1.000000 0.000000 0.000000
vn 1.000000 0.000000 0.000000
vn 1.000000 0.000000 0.000000
vn 1.000000 0.000000 0.000000
vn 1.000000 0.000000 0.000000
vn 1.000000 0.000000 0.000000
vn 1.000000 0.000000 0.000000
vn 1.000000 0.000000 0.000000
vn 1.000000 -0.000000 -0.000100
vn 1.000000 0.000000 0.000000
vn 1.000000 0.000000 0.000000
vn 1.000000 0.000000 0.000000
vn 1.000000 0.000000 0.000000
vn 1.000000 0.000000 0.000000
vn 1.000000 0.000000 0.000000
vn 1.000000 0.000000 0.000000
vn 1.000000 0.000000 0.000000
vn 1.000000 0.000000 0.000000
vn 1.000000 0.000000 0.000000
vn 1.000000 0.000000 0.000000
vn 1.000000 0.000000 0.000000
vn 0.000000 0.000000 -1.000000
vn 0.000000 0.000000 -1.000000
vn 0.000000 0.000000 -1.000000
vn 0.000000 0.000000 -1.000000
vn 0.000000 0.000000 1.000000
vn 0.000000 0.000000 1.000000
vn 0.000000 0.000000 -1.000000
vn 0.000000 0.000000 1.000000
vn 0.000000 0.000000 1.000000
vn 0.000000 0.000000 -1.000000
vn 0.000000 0.000000 1.000000
vt 0.000000 0.000000
vt 0.000000 0.000000
vt 0.000000 0.000000
vt 0.000000 0.000000
vt 0.000000 0.000000
vt 0.000000 0.000000
vt 0.000000 0.000000
vt 0.000000 0.000000
vt 0.000000 0.000000
vt 0.000000 0.000000
vt 0.000000 0.000000
vt 0.000000 0.000000
vt 0.000000 0.000000
vt 0.000000 0.000000
vt 0.000000 0.000000
vt 0.000000 0.000000
vt 0.000000 0.000000
vt 0.000000 0.000000
vt 0.000000 0.000000
vt 0.000000 0.000000
vt 0.000000 0.000000
vt 0.000000 0.000000
vt 0.000000 0.000000
vt 0.000000 0.000000
vt 0.000000 0.000000
vt 0.000000 0.000000
vt 0.000000 0.000000
vt 0.000000 0.000000
vt 0.000000 0.000000
vt 0.000000 0.000000
vt 0.000000 0.000000
vt 0.000000 0.000000
vt 0.000000 0.000000
vt 0.000000 0.000000
vt 0.000000 0.000000
vt 0.000000 0.000000
vt 0.000000 0.000000
vt 0.000000 0.000000
vt 0.000000 0.000000
vt 0.000000 0.000000
vt 0.000000 0.000000
vt 0.000000 0.000000
vt 0.000000 0.000000
vt 0.000000 0.000000
vt 0.000000 0.000000
vt 0.000000 0.000000
vt 0.000000 0.000000
vt 0.000000 0.000000
vt 0.000000 0.000000
vt 0.000000 0.000000
vt 0.000000 0.000000
vt 0.000000 0.000000
vt 0.000000 0.000000
vt 0.000000 0.000000
vt 0.000000 0.000000
vt 0.000000 0.000000
vt 0.000000 0.000000
vt 0.000000 0.000000
vt 0.000000 0.000000
vt 0.000000 0.000000
vt 0.000000 0.000000
vt 0.000000 0.000000
vt 0.000000 0.000000
vt 0.000000 0.000000
vt 0.000000 0.000000
vt 0.000000 0.000000
vt 0.000000 0.000000
vt 0.000000 0.000000
vt 0.000000 0.000000
vt 0.000000 0.000000
vt 0.000000 0.000000
vt 0.000000 0.000000
vt 0.000000 0.000000
vt 0.000000 0.000000
vt 0.000000 0.000000
vt 0.000000 0.000000
vt 0.000000 0.000000
vt 0.000000 0.000000
vt 0.000000 0.000000
vt 0.000000 0.000000
vt 0.000000 0.000000
vt 0.000000 0.000000
vt 0.000000 0.000000
vt 0.000000 0.000000
vt 0.000000 0.000000
vt 0.000000 0.000000
vt 0.000000 0.000000
vt 0.000000 0.000000
vt 0.000000 0.000000
vt 0.000000 0.000000
vt 0.000000 0.000000
vt 0.000000 0.000000
vt 0.000000 0.000000
vt 0.000000 0.000000
vt 0.000000 0.000000
vt 0.000000 0.000000
vt 0.000000 0.000000
vt 0.000000 0.000000
vt 0.000000 0.000000
vt 0.000000 0.000000
vt 0.000000 0.000000
vt 0.000000 0.000000
vt 0.000000 0.000000
vt 0.000000 0.000000
vt 0.000000 0.000000
vt 0.000000 0.000000
vt 0.000000 0.000000
vt 0.000000 0.000000
vt 0.000000 0.000000
vt 0.000000 0.000000
vt 0.000000 0.000000
vt 0.000000 0.000000
vt 0.000000 0.000000
vt 0.000000 0.000000
vt 0.000000 0.000000
vt 0.000000 0.000000
vt 0.000000 0.000000
vt 0.000000 0.000000
vt 0.000000 0.000000
vt 0.000000 0.000000
vt 0.000000 0.000000
vt 0.000000 0.000000
vt 0.000000 0.000000
vt 0.000000 0.000000
vt 0.000000 0.000000
vt 0.000000 0.000000
vt 0.000000 0.000000
vt 0.000000 0.000000
vt 0.000000 0.000000
vt 0.000000 0.000000
vt 0.000000 0.000000
vt 0.000000 0.000000
vt 0.000000 0.000000
vt 0.000000 0.000000
vt 0.000000 0.000000
vt 0.000000 0.000000
vt 0.000000 0.000000
vt 0.000000 0.000000
vt 0.000000 0.000000
vt 0.000000 0.000000
vt 0.000000 0.000000
vt 0.000000 0.000000
vt 0.000000 0.000000
vt 0.000000 0.000000
vt 0.000000 0.000000
vt 0.000000 0.000000
vt 0.000000 0.000000
vt 0.000000 0.000000
vt 0.000000 0.000000
vt 0.000000 0.000000
vt 0.000000 0.000000
vt 0.000000 0.000000
vt 0.000000 0.000000
vt 0.000000 0.000000
vt 0.000000 0.000000
vt 0.000000 0.000000
vt 0.000000 0.000000
vt 0.000000 0.000000
vt 0.000000 0.000000
vt 0.000000 0.000000
vt 0.000000 0.000000
vt 0.000000 0.000000
vt 0.000000 0.000000
vt 0.000000 0.000000
vt 0.000000 0.000000
vt 0.000000 0.000000
vt 0.000000 0.000000
vt 0.000000 0.000000
vt 0.000000 0.000000
vt 0.000000 0.000000
vt 0.000000 0.000000
vt 0.000000 0.000000
vt 0.000000 0.000000
vt 0.000000 0.000000
vt 0.000000 0.000000
vt 0.000000 0.000000
vt 0.000000 0.000000
vt 0.000000 0.000000
vt 0.000000 0.000000
vt 0.000000 0.000000
vt 0.000000 0.000000
vt 0.000000 0.000000
f 1/1/1 2/2/2 3/3/3
f 1/1/1 3/3/3 4/4/4
f 5/5/5 6/6/6 7/7/7
f 5/5/5 7/7/7 8/8/8
f 9/9/9 10/10/10 11/11/11
f 9/9/9 11/11/11 12/12/12
f 13/13/13 14/14/14 15/15/15
f 13/13/13 15/15/15 16/16/16
f 12/12/12 11/11/11 17/17/17
f 12/12/12 17/17/17 18/18/18
f 19/19/19 20/20/20 21/21/21
f 19/19/19 21/21/21 22/22/22
f 23/23/23 24/24/24 25/25/25
f 23/23/23 25/25/25 26/26/26
f 26/26/26 25/25/25 6/6/6
f 26/26/26 6/6/6 5/5/5
f 27/27/27 28/28/28 29/29/29
f 27/27/27 29/29/29 30/30/30
f 31/31/31 32/32/32 33/33/33
f 31/31/31 33/33/33 34/34/34
f 35/35/35 36/36/36 37/37/37
f 35/35/35 37/37/37 38/38/38
f 39/39/39 40/40/40 41/41/41
f 39/39/39 41/41/41 42/42/42
f 43/43/43 44/44/44 45/45/45
f 43/43/43 45/45/45 46/46/46
f 47/47/47 48/48/48 44/44/44
f 47/47/47 44/44/44 43/43/43
f 42/42/42 41/41/41 49/49/49
f 42/42/42 49/49/49 50/50/50
f 51/51/51 52/52/52 48/48/48
f 51/51/51 48/48/48 47/47/47
f 53/53/53 54/54/54 55/55/55
f 53/53/53 55/55/55 56/56/56
f 57/57/57 58/58/58 59/59/59
f 57/57/57 59/59/59 60/60/60
f 56/56/56 55/55/55 36/36/36
f 56/56/56 36/36/36 35/35/35
f 61/61/61 62/62/62 58/58/58
f 61/61/61 58/58/58 57/57/57
f 63/63/63 5/5/5 8/8/8
f 63/63/63 8/8/8 64/64/64
f 65/65/65 9/9/9 12/12/12
f 65/65/65 12/12/12 66/66/66
f 67/67/67 13/13/13 16/16/16
f 67/67/67 16/16/16 68/68/68
f 66/66/66 12/12/12 18/18/18
f 66/66/66 18/18/18 69/69/69
f 70/70/70 19/19/19 22/22/22
f 70/70/70 22/22/22 71/71/71
f 72/72/72 23/23/23 26/26/26
f 72/72/72 26/26/26 73/73/73
f 73/73/73 26/26/26 5/5/5
f 73/73/73 5/5/5 63/63/63
f 74/74/74 27/27/27 30/30/30
f 74/74/74 30/30/30 75/75/75
f 76/76/76 77/77/77 78/78/78
f 76/76/76 78/78/78 79/79/79
f 80/80/80 81/81/81 82/82/82
f 80/80/80 82/82/82 83/83/83
f 84/84/84 76/76/76 79/79/79
f 84/84/84 79/79/79 85/85/85
f 82/82/82 85/85/85 86/86/86
f 87/87/87 88/88/88 89/89/89
f 87/87/87 89/89/89 90/90/90
f 91/91/91 92/92/92 93/93/93
f 91/91/91 93/93/93 94/94/94
f 95/95/95 88/88/88 96/96/96
f 97/97/97 91/91/91 94/94/94
f 97/97/97 94/94/94 98/98/98
f 92/92/92 99/99/99 100/100/100
f 92/92/92 100/100/100 93/93/93
f 99/99/99 101/101/101 102/102/102
f 99/99/99 102/102/102 100/100/100
f 94/94/94 103/103/103 104/104/104
f 94/94/94 104/104/104 98/98/98
f 93/93/93 105/105/105 103/103/103
f 93/93/93 103/103/103 94/94/94
f 102/102/102 106/106/106 107/107/107
f 102/102/102 107/107/107 100/100/100
f 108/108/108 109/109/109 106/106/106
f 108/108/108 106/106/106 102/102/102
f 110/110/110 111/111/111 112/112/112
f 110/110/110 112/112/112 113/113/113
f 114/114/114 115/115/115 116/116/116
f 114/114/114 116/116/116 117/117/117
f 115/115/115 118/118/118 119/119/119
f 115/115/115 119/119/119 116/116/116
f 120/120/120 121/121/121 122/122/122
f 120/120/120 122/122/122 123/123/123
f 121/121/121 124/124/124 125/125/125
f 121/121/121 125/125/125 122/122/122
f 126/126/126 127/127/127 128/128/128
f 126/126/126 128/128/128 108/108/108
f 127/127/127 129/129/129 130/130/130
f 127/127/127 130/130/130 128/128/128
f 130/130/130 131/131/131 132/132/132
f 130/130/130 132/132/132 128/128/128
f 133/133/133 89/89/89 134/134/134
f 128/128/128 132/132/132 109/109/109
f 128/128/128 109/109/109 108/108/108
f 118/118/118 120/120/120 123/123/123
f 118/118/118 123/123/123 119/119/119
f 101/101/101 126/126/126 108/108/108
f 101/101/101 108/108/108 102/102/102
f 135/135/135 89/89/89 133/133/133
f 135/135/135 136/136/136 89/89/89
f 134/134/134 89/89/89 137/137/137
f 36/36/36 63/63/63 64/64/64
f 36/36/36 64/64/64 37/37/37
f 40/40/40 65/65/65 66/66/66
f 40/40/40 66/66/66 41/41/41
f 41/41/41 66/66/66 69/69/69
f 41/41/41 69/69/69 49/49/49
f 54/54/54 72/72/72 73/73/73
f 54/54/54 73/73/73 55/55/55
f 55/55/55 73/73/73 63/63/63
f 55/55/55 63/63/63 36/36/36
f 62/62/62 74/74/74 75/75/75
f 62/62/62 75/75/75 58/58/58
f 113/113/113 112/112/112 91/91/91
f 113/113/113 91/91/91 97/97/97
f 117/117/117 116/116/116 99/99/99
f 117/117/117 99/99/99 92/92/92
f 116/116/116 119/119/119 101/101/101
f 116/116/116 101/101/101 99/99/99
f 123/123/123 122/122/122 127/127/127
f 123/123/123 127/127/127 126/126/126
f 122/122/122 125/125/125 129/129/129
f 122/122/122 129/129/129 127/127/127
f 119/119/119 123/123/123 126/126/126
f 119/119/119 126/126/126 101/101/101
f 137/137/137 89/89/89 138/138/138
f 139/139/139 70/70/70 52/52/52
f 139/139/139 52/52/52 140/140/140
f 44/44/44 67/67/67 68/68/68
f 44/44/44 68/68/68 45/45/45
f 81/81/81 84/84/84 85/85/85
f 81/81/81 85/85/85 82/82/82
f 89/89/89 141/141/141 138/138/138
f 141/141/141 89/89/89 142/142/142
f 143/143/143 1/1/1 4/4/4
f 143/143/143 4/4/4 144/144/144
f 145/145/145 146/146/146 32/32/32
f 145/145/145 32/32/32 31/31/31
f 90/90/90 89/89/89 146/146/146
f 90/90/90 146/146/146 145/145/145
f 146/146/146 89/89/89 136/136/136
f 32/32/32 143/143/143 144/144/144
f 32/32/32 144/144/144 33/33/33
f 143/143/143 32/32/32 147/147/147
f 147/147/147 32/32/32 148/148/148
f 148/148/148 32/32/32 149/149/149
f 150/150/150 32/32/32 146/146/146
f 151/151/151 32/32/32 150/150/150
f 152/152/152 32/32/32 151/151/151
f 153/153/153 32/32/32 152/152/152
f 149/149/149 32/32/32 153/153/153
f 100/100/100 107/107/107 105/105/105
f 100/100/100 105/105/105 93/93/93
f 111/111/111 114/114/114 117/117/117
f 111/111/111 117/117/117 112/112/112
f 112/112/112 117/117/117 92/92/92
f 112/112/112 92/92/92 91/91/91
f 154/154/154 155/155/155 156/156/156
f 154/154/154 156/156/156 157/157/157
f 158/158/158 154/154/154 157/157/157
f 158/158/158 157/157/157 142/142/142
f 88/88/88 158/158/158 142/142/142
f 88/88/88 142/142/142 89/89/89
f 158/158/158 88/88/88 159/159/159
f 159/159/159 88/88/88 160/160/160
f 160/160/160 88/88/88 161/161/161
f 161/161/161 88/88/88 95/95/95
f 96/96/96 88/88/88 162/162/162
f 162/162/162 88/88/88 163/163/163
f 164/164/164 82/82/82 165/165/165
f 166/166/166 163/163/163 88/88/88
f 167/167/167 166/166/166 88/88/88
f 167/167/167 88/88/88 87/87/87
f 83/83/83 82/82/82 166/166/166
f 83/83/83 166/166/166 167/167/167
f 166/166/166 82/82/82 164/164/164
f 168/168/168 82/82/82 86/86/86
f 82/82/82 168/168/168 169/169/169
f 165/165/165 82/82/82 170/170/170
f 170/170/170 82/82/82 171/171/171
f 82/82/82 169/169/169 171/171/171
f 172/172/172 173/173/173 174/174/174
f 172/172/172 174/174/174 175/175/175
f 176/176/176 177/177/177 24/24/24
f 176/176/176 24/24/24 23/23/23
f 60/60/60 59/59/59 140/140/140
f 60/60/60 140/140/140 178/178/178
f 179/179/179 180/180/180 54/54/54
f 179/179/179 54/54/54 53/53/53
f 181/181/181 172/172/172 175/175/175
f 181/181/181 175/175/175 139/139/139
f 182/182/182 176/176/176 23/23/23
f 182/182/182 23/23/23 72/72/72
f 180/180/180 182/182/182 72/72/72
f 180/180/180 72/72/72 54/54/54
f 70/70/70 71/71/71 48/48/48
f 70/70/70 48/48/48 52/52/52
f 178/178/178 140/140/140 52/52/52
f 178/178/178 52/52/52 51/51/51
f 18/18/18 17/17/17 177/177/177
f 18/18/18 177/177/177 176/176/176
f 50/50/50 49/49/49 180/180/180
f 50/50/50 180/180/180 179/179/179
f 69/69/69 18/18/18 176/176/176
f 69/69/69 176/176/176 182/182/182
f 49/49/49 69/69/69 182/182/182
f 49/49/49 182/182/182 180/180/180
f 59/59/59 181/181/181 139/139/139
f 59/59/59 139/139/139 140/140/140
