v 2.847840 0.102490 -2.986472
v 2.868770 0.102490 -2.986472
v 2.868770 -0.002471 -2.986472
v 2.847840 -0.002471 -2.986472
v 2.847289 0.102490 -2.964991
v 2.847289 0.102490 -2.985921
v 2.847289 -0.002471 -2.985921
v 2.847289 -0.002471 -2.964991
v 2.868770 0.102490 -2.964440
v 2.847840 0.102490 -2.964440
v 2.847840 -0.002471 -2.964440
v 2.868770 -0.002471 -2.964440
v 2.869159 0.102490 -2.986310
v 2.869159 -0.002471 -2.986310
v 2.869159 -0.002471 -2.986310
v 2.869159 0.102490 -2.986310
v 2.869321 0.102490 -2.985921
v 2.869321 -0.002471 -2.985921
v 2.869159 -0.002471 -2.964601
v 2.869159 0.102490 -2.964601
v 2.869159 0.102490 -2.964601
v 2.869159 -0.002471 -2.964601
v 2.869321 -0.002471 -2.964991
v 2.869321 0.102490 -2.964991
v 2.847450 -0.002471 -2.964601
v 2.847450 0.102490 -2.964601
v 2.847450 0.102490 -2.964601
v 2.847450 -0.002471 -2.964601
v 2.847450 -0.002471 -2.986310
v 2.847450 0.102490 -2.986310
v 2.847450 0.102490 -2.986310
v 2.847450 -0.002471 -2.986310
v 0.945362 0.102490 -2.986472
v 0.966293 0.102490 -2.986472
v 0.966293 -0.002471 -2.986472
v 0.945362 -0.002471 -2.986472
v 0.944811 0.102490 -2.964991
v 0.944811 0.102490 -2.985921
v 0.944811 -0.002471 -2.985921
v 0.944811 -0.002471 -2.964991
v 0.966293 0.102490 -2.964440
v 0.945362 0.102490 -2.964440
v 0.945362 -0.002471 -2.964440
v 0.966293 -0.002471 -2.964440
v 0.966682 0.102490 -2.986310
v 0.966682 -0.002471 -2.986310
v 0.966682 -0.002471 -2.986310
v 0.966682 0.102490 -2.986310
v 0.966843 0.102490 -2.985921
v 0.966843 -0.002471 -2.985921
v 0.966682 -0.002471 -2.964601
v 0.966682 0.102490 -2.964601
v 0.966682 0.102490 -2.964601
v 0.966682 -0.002471 -2.964601
v 0.966843 -0.002471 -2.964991
v 0.966843 0.102490 -2.964991
v 0.944973 -0.002471 -2.964601
v 0.944973 0.102490 -2.964601
v 0.944973 0.102490 -2.964601
v 0.944973 -0.002471 -2.964601
v 0.944973 -0.002471 -2.986310
v 0.944973 0.102490 -2.986310
v 0.944973 0.102490 -2.986310
v 0.944973 -0.002471 -2.986310
v 0.945362 0.102490 -3.551544
v 0.966293 0.102490 -3.551544
v 0.966293 -0.002471 -3.551544
v 0.945362 -0.002471 -3.551544
v 0.944812 0.102490 -3.530063
v 0.944812 0.102490 -3.550993
v 0.944812 -0.002471 -3.550993
v 0.944812 -0.002471 -3.530063
v 0.966293 0.102490 -3.529512
v 0.945362 0.102490 -3.529512
v 0.945362 -0.002471 -3.529512
v 0.966293 -0.002471 -3.529512
v 0.966682 0.102490 -3.551383
v 0.966682 -0.002471 -3.551383
v 0.966682 -0.002471 -3.551383
v 0.966682 0.102490 -3.551383
v 0.966843 0.102490 -3.550993
v 0.966843 -0.002471 -3.550993
v 0.966682 -0.002471 -3.529674
v 0.966682 0.102490 -3.529674
v 0.966682 0.102490 -3.529674
v 0.966682 -0.002471 -3.529674
v 0.966843 -0.002471 -3.530063
v 0.966843 0.102490 -3.530063
v 0.944973 -0.002471 -3.529674
v 0.944973 0.102490 -3.529674
v 0.944973 0.102490 -3.529674
v 0.944973 -0.002471 -3.529674
v 0.944973 -0.002471 -3.551383
v 0.944973 0.102490 -3.551383
v 0.944973 0.102490 -3.551383
v 0.944973 -0.002471 -3.551383
v 2.847840 0.102490 -3.551544
v 2.868770 0.102490 -3.551544
v 2.868770 -0.002471 -3.551544
v 2.847840 -0.002471 -3.551544
v 2.847289 0.102490 -3.530063
v 2.847289 0.102490 -3.550993
v 2.847289 -0.002471 -3.550993
v 2.847289 -0.002471 -3.530063
v 2.868770 0.102490 -3.529512
v 2.847840 0.102490 -3.529512
v 2.847840 -0.002471 -3.529512
v 2.868770 -0.002471 -3.529512
v 2.869159 0.102490 -3.551383
v 2.869159 -0.002471 -3.551383
v 2.869159 -0.002471 -3.551383
v 2.869159 0.102490 -3.551383
v 2.869321 0.102490 -3.550993
v 2.869321 -0.002471 -3.550993
v 2.869159 -0.002471 -3.529673
v 2.869159 0.102490 -3.529673
v 2.869159 0.102490 -3.529673
v 2.869159 -0.002471 -3.529673
v 2.869321 -0.002471 -3.530063
v 2.869321 0.102490 -3.530063
v 2.847450 -0.002471 -3.529673
v 2.847450 0.102490 -3.529673
v 2.847450 0.102490 -3.529673
v 2.847450 -0.002471 -3.529673
v 2.847450 -0.002471 -3.551383
v 2.847450 0.102490 -3.551383
v 2.847450 0.102490 -3.551383
v 2.847450 -0.002471 -3.551383
vn -0.195400 0.000000 -0.980700
vn 0.195400 0.000000 -0.980700
vn 0.195400 0.000000 -0.980700
vn -0.195400 0.000000 -0.980700
vn -0.980800 0.000000 0.195100
vn -0.980800 0.000000 -0.195100
vn -0.980800 0.000000 -0.195100
vn -0.980800 0.000000 0.195100
vn 0.195100 0.000000 0.980800
vn -0.195100 0.000000 0.980800
vn -0.195100 0.000000 0.980800
vn 0.195100 0.000000 0.980800
vn 0.383300 0.000000 -0.923600
vn 0.383300 0.000000 -0.923600
vn 0.923600 0.000000 -0.383300
vn 0.923600 0.000000 -0.383300
vn 0.980700 0.000000 -0.195400
vn 0.980700 0.000000 -0.195400
vn 0.382700 0.000000 0.923900
vn 0.382700 0.000000 0.923900
vn 0.923600 0.000000 0.383300
vn 0.923600 0.000000 0.383300
vn 0.980700 0.000000 0.195400
vn 0.980700 0.000000 0.195400
vn -0.923800 0.000000 0.382800
vn -0.923800 0.000000 0.382800
vn -0.382700 0.000000 0.923900
vn -0.382700 0.000000 0.923900
vn -0.383300 0.000000 -0.923600
vn -0.383300 0.000000 -0.923600
vn -0.923800 0.000000 -0.382800
vn -0.923800 0.000000 -0.382800
vn -0.195000 0.000000 -0.980800
vn 0.195000 0.000000 -0.980800
vn 0.195000 0.000000 -0.980800
vn -0.195000 0.000000 -0.980800
vn -0.980800 0.000000 0.195100
vn -0.980700 0.000000 -0.195300
vn -0.980700 0.000000 -0.195300
vn -0.980800 0.000000 0.195100
vn 0.195000 0.000000 0.980800
vn -0.194700 0.000000 0.980900
vn -0.194700 0.000000 0.980900
vn 0.195000 0.000000 0.980800
vn 0.382600 0.000000 -0.923900
vn 0.382600 0.000000 -0.923900
vn 0.923700 0.000000 -0.383000
vn 0.923700 0.000000 -0.383000
vn 0.980700 0.000000 -0.195300
vn 0.980700 0.000000 -0.195300
vn 0.382600 0.000000 0.923900
vn 0.382600 0.000000 0.923900
vn 0.923800 0.000000 0.382800
vn 0.923800 0.000000 0.382800
vn 0.980800 0.000000 0.195100
vn 0.980800 0.000000 0.195100
vn -0.923800 0.000000 0.382800
vn -0.923800 0.000000 0.382800
vn -0.382000 0.000000 0.924200
vn -0.382000 0.000000 0.924200
vn -0.382600 0.000000 -0.923900
vn -0.382600 0.000000 -0.923900
vn -0.923700 0.000000 -0.383000
vn -0.923700 0.000000 -0.383000
vn -0.195400 0.000000 -0.980700
vn 0.195400 0.000000 -0.980700
vn 0.195400 0.000000 -0.980700
vn -0.195400 0.000000 -0.980700
vn -0.980800 0.000000 0.195000
vn -0.980800 0.000000 -0.195100
vn -0.980800 0.000000 -0.195100
vn -0.980800 0.000000 0.195000
vn 0.195000 0.000000 0.980800
vn -0.195000 0.000000 0.980800
vn -0.195000 0.000000 0.980800
vn 0.195000 0.000000 0.980800
vn 0.383200 0.000000 -0.923700
vn 0.383200 0.000000 -0.923700
vn 0.923800 0.000000 -0.382800
vn 0.923800 0.000000 -0.382800
vn 0.980800 0.000000 -0.195100
vn 0.980800 0.000000 -0.195100
vn 0.382600 0.000000 0.923900
vn 0.382600 0.000000 0.923900
vn 0.923900 0.000000 0.382500
vn 0.923900 0.000000 0.382500
vn 0.980800 0.000000 0.195000
vn 0.980800 0.000000 0.195000
vn -0.923900 0.000000 0.382500
vn -0.923900 0.000000 0.382500
vn -0.382600 0.000000 0.923900
vn -0.382600 0.000000 0.923900
vn -0.383200 0.000000 -0.923700
vn -0.383200 0.000000 -0.923700
vn -0.923800 0.000000 -0.382800
vn -0.923800 0.000000 -0.382800
vn -0.195100 0.000000 -0.980800
vn 0.195100 0.000000 -0.980800
vn 0.195100 0.000000 -0.980800
vn -0.195100 0.000000 -0.980800
vn -0.980700 0.000000 0.195300
vn -0.980800 0.000000 -0.195100
vn -0.980800 0.000000 -0.195100
vn -0.980700 0.000000 0.195300
vn 0.195400 0.000000 0.980700
vn -0.195400 0.000000 0.980700
vn -0.195400 0.000000 0.980700
vn 0.195400 0.000000 0.980700
vn 0.382700 0.000000 -0.923900
vn 0.382700 0.000000 -0.923900
vn 0.923600 0.000000 -0.383300
vn 0.923600 0.000000 -0.383300
vn 0.980700 0.000000 -0.195400
vn 0.980700 0.000000 -0.195400
vn 0.383300 0.000000 0.923600
vn 0.383300 0.000000 0.923600
vn 0.923500 0.000000 0.383500
vn 0.923500 0.000000 0.383500
vn 0.980700 0.000000 0.195500
vn 0.980700 0.000000 0.195500
vn -0.923700 0.000000 0.383000
vn -0.923700 0.000000 0.383000
vn -0.383300 0.000000 0.923600
vn -0.383300 0.000000 0.923600
vn -0.382700 0.000000 -0.923900
vn -0.382700 0.000000 -0.923900
vn -0.923800 0.000000 -0.382800
vn -0.923800 0.000000 -0.382800
vt 0.000000 0.000000
vt 0.000000 0.000000
vt 0.000000 0.000000
vt 0.000000 0.000000
vt 0.000000 0.000000
vt 0.000000 0.000000
vt 0.000000 0.000000
vt 0.000000 0.000000
vt 0.000000 0.000000
vt 0.000000 0.000000
vt 0.000000 0.000000
vt 0.000000 0.000000
vt 0.000000 0.000000
vt 0.000000 0.000000
vt 0.000000 0.000000
vt 0.000000 0.000000
vt 0.000000 0.000000
vt 0.000000 0.000000
vt 0.000000 0.000000
vt 0.000000 0.000000
vt 0.000000 0.000000
vt 0.000000 0.000000
vt 0.000000 0.000000
vt 0.000000 0.000000
vt 0.000000 0.000000
vt 0.000000 0.000000
vt 0.000000 0.000000
vt 0.000000 0.000000
vt 0.000000 0.000000
vt 0.000000 0.000000
vt 0.000000 0.000000
vt 0.000000 0.000000
vt 0.000000 0.000000
vt 0.000000 0.000000
vt 0.000000 0.000000
vt 0.000000 0.000000
vt 0.000000 0.000000
vt 0.000000 0.000000
vt 0.000000 0.000000
vt 0.000000 0.000000
vt 0.000000 0.000000
vt 0.000000 0.000000
vt 0.000000 0.000000
vt 0.000000 0.000000
vt 0.000000 0.000000
vt 0.000000 0.000000
vt 0.000000 0.000000
vt 0.000000 0.000000
vt 0.000000 0.000000
vt 0.000000 0.000000
vt 0.000000 0.000000
vt 0.000000 0.000000
vt 0.000000 0.000000
vt 0.000000 0.000000
vt 0.000000 0.000000
vt 0.000000 0.000000
vt 0.000000 0.000000
vt 0.000000 0.000000
vt 0.000000 0.000000
vt 0.000000 0.000000
vt 0.000000 0.000000
vt 0.000000 0.000000
vt 0.000000 0.000000
vt 0.000000 0.000000
vt 0.000000 0.000000
vt 0.000000 0.000000
vt 0.000000 0.000000
vt 0.000000 0.000000
vt 0.000000 0.000000
vt 0.000000 0.000000
vt 0.000000 0.000000
vt 0.000000 0.000000
vt 0.000000 0.000000
vt 0.000000 0.000000
vt 0.000000 0.000000
vt 0.000000 0.000000
vt 0.000000 0.000000
vt 0.000000 0.000000
vt 0.000000 0.000000
vt 0.000000 0.000000
vt 0.000000 0.000000
vt 0.000000 0.000000
vt 0.000000 0.000000
vt 0.000000 0.000000
vt 0.000000 0.000000
vt 0.000000 0.000000
vt 0.000000 0.000000
vt 0.000000 0.000000
vt 0.000000 0.000000
vt 0.000000 0.000000
vt 0.000000 0.000000
vt 0.000000 0.000000
vt 0.000000 0.000000
vt 0.000000 0.000000
vt 0.000000 0.000000
vt 0.000000 0.000000
vt 0.000000 0.000000
vt 0.000000 0.000000
vt 0.000000 0.000000
vt 0.000000 0.000000
vt 0.000000 0.000000
vt 0.000000 0.000000
vt 0.000000 0.000000
vt 0.000000 0.000000
vt 0.000000 0.000000
vt 0.000000 0.000000
vt 0.000000 0.000000
vt 0.000000 0.000000
vt 0.000000 0.000000
vt 0.000000 0.000000
vt 0.000000 0.000000
vt 0.000000 0.000000
vt 0.000000 0.000000
vt 0.000000 0.000000
vt 0.000000 0.000000
vt 0.000000 0.000000
vt 0.000000 0.000000
vt 0.000000 0.000000
vt 0.000000 0.000000
vt 0.000000 0.000000
vt 0.000000 0.000000
vt 0.000000 0.000000
vt 0.000000 0.000000
vt 0.000000 0.000000
vt 0.000000 0.000000
vt 0.000000 0.000000
vt 0.000000 0.000000
vt 0.000000 0.000000
f 1/1/1 2/2/2 3/3/3
f 1/1/1 3/3/3 4/4/4
f 5/5/5 6/6/6 7/7/7
f 5/5/5 7/7/7 8/8/8
f 9/9/9 10/10/10 11/11/11
f 9/9/9 11/11/11 12/12/12
f 3/3/3 2/2/2 13/13/13
f 3/3/3 13/13/13 14/14/14
f 15/15/15 16/16/16 17/17/17
f 15/15/15 17/17/17 18/18/18
f 9/9/9 12/12/12 19/19/19
f 9/9/9 19/19/19 20/20/20
f 21/21/21 22/22/22 23/23/23
f 21/21/21 23/23/23 24/24/24
f 5/5/5 8/8/8 25/25/25
f 5/5/5 25/25/25 26/26/26
f 27/27/27 28/28/28 11/11/11
f 27/27/27 11/11/11 10/10/10
f 1/1/1 4/4/4 29/29/29
f 1/1/1 29/29/29 30/30/30
f 31/31/31 32/32/32 7/7/7
f 31/31/31 7/7/7 6/6/6
f 17/17/17 24/24/24 23/23/23
f 17/17/17 23/23/23 18/18/18
f 33/33/33 34/34/34 35/35/35
f 33/33/33 35/35/35 36/36/36
f 37/37/37 38/38/38 39/39/39
f 37/37/37 39/39/39 40/40/40
f 41/41/41 42/42/42 43/43/43
f 41/41/41 43/43/43 44/44/44
f 35/35/35 34/34/34 45/45/45
f 35/35/35 45/45/45 46/46/46
f 47/47/47 48/48/48 49/49/49
f 47/47/47 49/49/49 50/50/50
f 41/41/41 44/44/44 51/51/51
f 41/41/41 51/51/51 52/52/52
f 53/53/53 54/54/54 55/55/55
f 53/53/53 55/55/55 56/56/56
f 37/37/37 40/40/40 57/57/57
f 37/37/37 57/57/57 58/58/58
f 59/59/59 60/60/60 43/43/43
f 59/59/59 43/43/43 42/42/42
f 33/33/33 36/36/36 61/61/61
f 33/33/33 61/61/61 62/62/62
f 63/63/63 64/64/64 39/39/39
f 63/63/63 39/39/39 38/38/38
f 49/49/49 56/56/56 55/55/55
f 49/49/49 55/55/55 50/50/50
f 65/65/65 66/66/66 67/67/67
f 65/65/65 67/67/67 68/68/68
f 69/69/69 70/70/70 71/71/71
f 69/69/69 71/71/71 72/72/72
f 73/73/73 74/74/74 75/75/75
f 73/73/73 75/75/75 76/76/76
f 67/67/67 66/66/66 77/77/77
f 67/67/67 77/77/77 78/78/78
f 79/79/79 80/80/80 81/81/81
f 79/79/79 81/81/81 82/82/82
f 73/73/73 76/76/76 83/83/83
f 73/73/73 83/83/83 84/84/84
f 85/85/85 86/86/86 87/87/87
f 85/85/85 87/87/87 88/88/88
f 69/69/69 72/72/72 89/89/89
f 69/69/69 89/89/89 90/90/90
f 91/91/91 92/92/92 75/75/75
f 91/91/91 75/75/75 74/74/74
f 65/65/65 68/68/68 93/93/93
f 65/65/65 93/93/93 94/94/94
f 95/95/95 96/96/96 71/71/71
f 95/95/95 71/71/71 70/70/70
f 81/81/81 88/88/88 87/87/87
f 81/81/81 87/87/87 82/82/82
f 97/97/97 98/98/98 99/99/99
f 97/97/97 99/99/99 100/100/100
f 101/101/101 102/102/102 103/103/103
f 101/101/101 103/103/103 104/104/104
f 105/105/105 106/106/106 107/107/107
f 105/105/105 107/107/107 108/108/108
f 99/99/99 98/98/98 109/109/109
f 99/99/99 109/109/109 110/110/110
f 111/111/111 112/112/112 113/113/113
f 111/111/111 113/113/113 114/114/114
f 105/105/105 108/108/108 115/115/115
f 105/105/105 115/115/115 116/116/116
f 117/117/117 118/118/118 119/119/119
f 117/117/117 119/119/119 120/120/120
f 101/101/101 104/104/104 121/121/121
f 101/101/101 121/121/121 122/122/122
f 123/123/123 124/124/124 107/107/107
f 123/123/123 107/107/107 106/106/106
f 97/97/97 100/100/100 125/125/125
f 97/97/97 125/125/125 126/126/126
f 127/127/127 128/128/128 103/103/103
f 127/127/127 103/103/103 102/102/102
f 113/113/113 120/120/120 119/119/119
f 113/113/113 119/119/119 114/114/114
