v -6.353170 -1.418362 -4.500465
v 5.263340 -1.418362 -4.500440
v 5.263340 -1.202138 -4.500440
v -6.353170 -1.202138 -4.500465
v -6.353185 -1.418362 -4.532269
v 5.263323 -1.418362 -4.532245
v 5.263340 -1.418362 -4.500440
v -6.353170 -1.418362 -4.500465
v -6.353170 -1.141166 -4.532269
v 5.263340 -1.141166 -4.532245
v 5.263323 -1.418362 -4.532245
v -6.353185 -1.418362 -4.532269
v -6.353170 -1.141258 -4.519215
v 5.263340 -1.141258 -4.519190
v 5.263340 -1.141166 -4.532245
v -6.353170 -1.141166 -4.532269
v -6.353170 -1.146920 -4.510457
v 5.263340 -1.146920 -4.510431
v 5.263340 -1.141258 -4.519190
v -6.353170 -1.141258 -4.519215
v -6.353170 -1.156917 -4.503486
v 5.263340 -1.156917 -4.503461
v 5.263340 -1.146920 -4.510431
v -6.353170 -1.146920 -4.510457
v -6.353170 -1.169973 -4.500468
v 5.263340 -1.169973 -4.500443
v 5.263340 -1.156917 -4.503461
v -6.353170 -1.156917 -4.503486
v -6.353170 -1.182906 -4.502804
v 5.263340 -1.182906 -4.502779
v 5.263340 -1.169973 -4.500443
v -6.353170 -1.169973 -4.500468
v -6.353170 -1.191636 -4.509495
v 5.263340 -1.191636 -4.509470
v 5.263340 -1.182906 -4.502779
v -6.353170 -1.182906 -4.502804
v -6.353170 -1.197057 -4.510237
v 5.263340 -1.197057 -4.510212
v 5.263340 -1.191636 -4.509470
v -6.353170 -1.191636 -4.509495
v -6.353170 -1.202138 -4.500465
v 5.263340 -1.202138 -4.500440
v 5.263340 -1.197057 -4.510212
v -6.353170 -1.197057 -4.510237
vn -0.000000 0.000000 1.000000
vn -0.000000 0.000000 1.000000
vn -0.000000 0.000000 1.000000
vn -0.000000 0.000000 1.000000
vn 0.000000 -1.000000 0.000000
vn 0.000000 -1.000000 0.000000
vn 0.000000 -1.000000 0.000000
vn 0.000000 -1.000000 0.000000
vn 0.000000 -0.000000 -1.000000
vn 0.000000 -0.000000 -1.000000
vn 0.000000 -0.000000 -1.000000
vn 0.000000 -0.000000 -1.000000
vn -0.000000 1.000000 0.007000
vn -0.000000 1.000000 0.007000
vn -0.000000 1.000000 0.007000
vn -0.000000 1.000000 0.007000
vn -0.000000 0.839800 0.542900
vn -0.000000 0.839800 0.542900
vn -0.000000 0.839800 0.542900
vn -0.000000 0.839800 0.542900
vn -0.000000 0.571900 0.820300
vn -0.000000 0.571900 0.820300
vn -0.000000 0.571900 0.820300
vn -0.000000 0.571900 0.820300
vn -0.000000 0.225200 0.974300
vn -0.000000 0.225200 0.974300
vn -0.000000 0.225200 0.974300
vn -0.000000 0.225200 0.974300
vn -0.000000 -0.177800 0.984100
vn -0.000000 -0.177800 0.984100
vn -0.000000 -0.177800 0.984100
vn -0.000000 -0.177800 0.984100
vn -0.000000 -0.608300 0.793700
vn -0.000000 -0.608300 0.793700
vn -0.000000 -0.608300 0.793700
vn -0.000000 -0.608300 0.793700
vn -0.000000 -0.135600 0.990800
vn -0.000000 -0.135600 0.990800
vn -0.000000 -0.135600 0.990800
vn -0.000000 -0.135600 0.990800
vn -0.000000 0.887300 0.461300
vn -0.000000 0.887300 0.461300
vn -0.000000 0.887300 0.461300
vn -0.000000 0.887300 0.461300
vt 0.000000 0.000000
vt 0.000000 0.000000
vt 0.000000 0.000000
vt 0.000000 0.000000
vt 0.000000 0.000000
vt 0.000000 0.000000
vt 0.000000 0.000000
vt 0.000000 0.000000
vt 0.000000 0.000000
vt 0.000000 0.000000
vt 0.000000 0.000000
vt 0.000000 0.000000
vt 0.000000 0.000000
vt 0.000000 0.000000
vt 0.000000 0.000000
vt 0.000000 0.000000
vt 0.000000 0.000000
vt 0.000000 0.000000
vt 0.000000 0.000000
vt 0.000000 0.000000
vt 0.000000 0.000000
vt 0.000000 0.000000
vt 0.000000 0.000000
vt 0.000000 0.000000
vt 0.000000 0.000000
vt 0.000000 0.000000
vt 0.000000 0.000000
vt 0.000000 0.000000
vt 0.000000 0.000000
vt 0.000000 0.000000
vt 0.000000 0.000000
vt 0.000000 0.000000
vt 0.000000 0.000000
vt 0.000000 0.000000
vt 0.000000 0.000000
vt 0.000000 0.000000
vt 0.000000 0.000000
vt 0.000000 0.000000
vt 0.000000 0.000000
vt 0.000000 0.000000
vt 0.000000 0.000000
vt 0.000000 0.000000
vt 0.000000 0.000000
vt 0.000000 0.000000
f 1/1/1 2/2/2 3/3/3
f 1/1/1 3/3/3 4/4/4
f 5/5/5 6/6/6 7/7/7
f 5/5/5 7/7/7 8/8/8
f 9/9/9 10/10/10 11/11/11
f 9/9/9 11/11/11 12/12/12
f 13/13/13 14/14/14 15/15/15
f 13/13/13 15/15/15 16/16/16
f 17/17/17 18/18/18 19/19/19
f 17/17/17 19/19/19 20/20/20
f 21/21/21 22/22/22 23/23/23
f 21/21/21 23/23/23 24/24/24
f 25/25/25 26/26/26 27/27/27
f 25/25/25 27/27/27 28/28/28
f 29/29/29 30/30/30 31/31/31
f 29/29/29 31/31/31 32/32/32
f 33/33/33 34/34/34 35/35/35
f 33/33/33 35/35/35 36/36/36
f 37/37/37 38/38/38 39/39/39
f 37/37/37 39/39/39 40/40/40
f 41/41/41 42/42/42 43/43/43
f 41/41/41 43/43/43 44/44/44
