v 1.628096 0.942048 -0.733983
v 1.640465 0.942048 -0.735843
v 1.639973 0.934771 -0.761309
v 1.626796 0.934771 -0.759385
v 1.652234 0.942048 -0.740081
v 1.652557 0.934771 -0.765656
v 1.787187 0.942048 -0.804247
v 1.767147 0.934771 -0.820140
v 1.797902 0.942048 -0.810699
v 1.778462 0.934771 -0.827155
v 1.807154 0.942048 -0.819119
v 1.788273 0.934771 -0.836161
v 1.638749 0.925386 -0.824664
v 1.623562 0.925386 -0.822584
v 1.653361 0.925386 -0.829284
v 1.717290 0.925386 -0.859680
v 1.730096 0.925386 -0.868097
v 1.741297 0.925386 -0.878563
v 1.788431 0.942048 -1.184990
v 1.778369 0.942048 -1.192421
v 1.760710 0.934771 -1.174067
v 1.771388 0.934771 -1.166109
v 1.767050 0.942048 -1.197746
v 1.748737 0.934771 -1.179891
v 1.626253 0.942048 -1.247801
v 1.629185 0.934771 -1.222393
v 1.614112 0.942048 -1.250815
v 1.616223 0.934771 -1.225433
v 1.601618 0.942048 -1.251404
v 1.602917 0.934771 -1.226002
v 1.716776 0.925386 -1.128402
v 1.728987 0.925386 -1.119134
v 1.703177 0.925386 -1.135468
v 1.636479 0.925386 -1.159179
v 1.621472 0.925386 -1.162283
v 1.606151 0.925386 -1.162802
v 1.601618 0.942048 -1.251404
v 1.589248 0.942048 -1.249543
v 1.589740 0.934771 -1.224078
v 1.602917 0.934771 -1.226001
v 1.577479 0.942048 -1.245305
v 1.577156 0.934771 -1.219730
v 1.442526 0.942048 -1.181140
v 1.462566 0.934771 -1.165247
v 1.431810 0.942048 -1.174687
v 1.451251 0.934771 -1.158231
v 1.422559 0.942048 -1.166268
v 1.441440 0.934771 -1.149225
v 1.590963 0.925386 -1.160722
v 1.606151 0.925386 -1.162802
v 1.576352 0.925386 -1.156102
v 1.512423 0.925386 -1.125706
v 1.499616 0.925386 -1.117289
v 1.488415 0.925386 -1.106823
v 1.873567 0.942048 -1.005932
v 1.871706 0.942048 -1.018301
v 1.846241 0.934771 -1.017810
v 1.848165 0.934771 -1.004632
v 1.867468 0.942048 -1.030071
v 1.841893 0.934771 -1.030394
v 1.803303 0.942048 -1.165023
v 1.787410 0.934771 -1.144984
v 1.796850 0.942048 -1.175739
v 1.780394 0.934771 -1.156299
v 1.788431 0.942048 -1.184990
v 1.771388 0.934771 -1.166109
v 1.782885 0.925386 -1.016586
v 1.784966 0.925386 -1.001398
v 1.778265 0.925386 -1.031198
v 1.747869 0.925386 -1.095127
v 1.739453 0.925386 -1.107933
v 1.728987 0.925386 -1.119134
v 1.807154 0.942048 -0.819118
v 1.814584 0.942048 -0.829181
v 1.796230 0.934771 -0.846840
v 1.788272 0.934771 -0.836161
v 1.819910 0.942048 -0.840499
v 1.802054 0.934771 -0.858812
v 1.869964 0.942048 -0.981297
v 1.844556 0.934771 -0.978365
v 1.872979 0.942048 -0.993437
v 1.847596 0.934771 -0.991327
v 1.873567 0.942048 -1.005932
v 1.848165 0.934771 -1.004632
v 1.750565 0.925386 -0.890774
v 1.741297 0.925386 -0.878563
v 1.757631 0.925386 -0.904372
v 1.781342 0.925386 -0.971070
v 1.784446 0.925386 -0.986077
v 1.784966 0.925386 -1.001398
v 1.441282 0.942048 -0.800396
v 1.451344 0.942048 -0.792965
v 1.469003 0.934771 -0.811319
v 1.458325 0.934771 -0.819277
v 1.462663 0.942048 -0.787640
v 1.480975 0.934771 -0.805495
v 1.603460 0.942048 -0.737585
v 1.600528 0.934771 -0.762994
v 1.615600 0.942048 -0.734571
v 1.613490 0.934771 -0.759953
v 1.628095 0.942048 -0.733983
v 1.626796 0.934771 -0.759385
v 1.512937 0.925386 -0.856984
v 1.500726 0.925386 -0.866252
v 1.526536 0.925386 -0.849918
v 1.593234 0.925386 -0.826207
v 1.608240 0.925386 -0.823103
v 1.623562 0.925386 -0.822584
v 1.356146 0.942048 -0.979454
v 1.358006 0.942048 -0.967084
v 1.383472 0.934771 -0.967576
v 1.381548 0.934771 -0.980754
v 1.362245 0.942048 -0.955315
v 1.387819 0.934771 -0.954992
v 1.426410 0.942048 -0.820363
v 1.442303 0.934771 -0.840402
v 1.432863 0.942048 -0.809647
v 1.449319 0.934771 -0.829087
v 1.441282 0.942048 -0.800396
v 1.458325 0.934771 -0.819277
v 1.446828 0.925386 -0.968800
v 1.444747 0.925386 -0.983988
v 1.451447 0.925386 -0.954188
v 1.481843 0.925386 -0.890259
v 1.490260 0.925386 -0.877453
v 1.500726 0.925386 -0.866252
v 1.422559 0.942048 -1.166268
v 1.415128 0.942048 -1.156205
v 1.433483 0.934771 -1.138546
v 1.441440 0.934771 -1.149225
v 1.409803 0.942048 -1.144887
v 1.427658 0.934771 -1.126574
v 1.359749 0.942048 -1.004089
v 1.385157 0.934771 -1.007021
v 1.356734 0.942048 -0.991949
v 1.382117 0.934771 -0.994059
v 1.356146 0.942048 -0.979454
v 1.381548 0.934771 -0.980754
v 1.479147 0.925386 -1.094612
v 1.488415 0.925386 -1.106823
v 1.472082 0.925386 -1.081014
v 1.448370 0.925386 -1.014316
v 1.445266 0.925386 -0.999309
v 1.444747 0.925386 -0.983988
vn -0.040500 0.961000 -0.273500
vn -0.064200 0.959800 -0.273300
vn -0.053400 0.975400 -0.213700
vn -0.031200 0.976400 -0.213900
vn -0.108600 0.955900 -0.272800
vn -0.087700 0.973300 -0.212200
vn -0.143000 0.955900 -0.256400
vn -0.109200 0.973300 -0.202000
vn -0.171400 0.959800 -0.222300
vn -0.132100 0.975400 -0.176300
vn -0.186600 0.961000 -0.204100
vn -0.146200 0.976300 -0.159300
vn -0.036000 0.988600 -0.145900
vn -0.020600 0.989100 -0.146000
vn -0.061400 0.987300 -0.146200
vn -0.074700 0.987300 -0.139900
vn -0.090500 0.988600 -0.120100
vn -0.100200 0.989100 -0.108100
vn -0.164800 0.961000 0.222100
vn -0.147800 0.959800 0.238600
vn -0.113400 0.975400 0.188800
vn -0.129200 0.976300 0.173300
vn -0.116100 0.955900 0.269700
vn -0.088000 0.973300 0.212100
vn -0.080200 0.955900 0.282400
vn -0.065600 0.973300 0.220000
vn -0.036000 0.959800 0.278400
vn -0.031300 0.975400 0.218100
vn -0.012400 0.961000 0.276200
vn -0.009200 0.976400 0.216000
vn -0.077700 0.988600 0.128700
vn -0.088600 0.989100 0.117800
vn -0.060000 0.987300 0.146800
vn -0.046100 0.987300 0.151700
vn -0.020900 0.988600 0.148900
vn -0.005600 0.989100 0.147300
vn 0.040500 0.961000 0.273500
vn 0.064200 0.959800 0.273300
vn 0.053400 0.975400 0.213700
vn 0.031200 0.976400 0.213900
vn 0.108600 0.955900 0.272800
vn 0.087700 0.973300 0.212200
vn 0.143000 0.955900 0.256400
vn 0.109200 0.973300 0.202000
vn 0.171400 0.959800 0.222300
vn 0.132100 0.975400 0.176300
vn 0.186600 0.961000 0.204100
vn 0.146200 0.976400 0.159200
vn 0.036000 0.988600 0.145900
vn 0.020600 0.989100 0.146000
vn 0.061400 0.987300 0.146200
vn 0.074700 0.987300 0.139900
vn 0.090500 0.988600 0.120100
vn 0.100200 0.989100 0.108100
vn -0.273500 0.961000 0.040500
vn -0.273300 0.959800 0.064200
vn -0.213700 0.975400 0.053400
vn -0.213900 0.976400 0.031200
vn -0.272800 0.955900 0.108600
vn -0.212200 0.973300 0.087700
vn -0.256400 0.955900 0.143000
vn -0.202000 0.973300 0.109200
vn -0.222300 0.959800 0.171400
vn -0.176300 0.975400 0.132100
vn -0.204100 0.961000 0.186600
vn -0.159200 0.976400 0.146200
vn -0.145900 0.988600 0.036000
vn -0.146000 0.989100 0.020600
vn -0.146200 0.987300 0.061400
vn -0.139900 0.987300 0.074700
vn -0.120100 0.988600 0.090500
vn -0.108100 0.989100 0.100200
vn -0.222100 0.961000 -0.164800
vn -0.238600 0.959800 -0.147800
vn -0.188800 0.975400 -0.113400
vn -0.173300 0.976300 -0.129200
vn -0.269700 0.955900 -0.116100
vn -0.212100 0.973300 -0.088000
vn -0.282400 0.955900 -0.080200
vn -0.220000 0.973300 -0.065600
vn -0.278400 0.959800 -0.036000
vn -0.218100 0.975400 -0.031300
vn -0.276200 0.961000 -0.012400
vn -0.216000 0.976400 -0.009200
vn -0.128700 0.988600 -0.077700
vn -0.117800 0.989100 -0.088600
vn -0.146800 0.987300 -0.060000
vn -0.151700 0.987300 -0.046100
vn -0.148900 0.988600 -0.020900
vn -0.147300 0.989100 -0.005600
vn 0.164800 0.961000 -0.222100
vn 0.147800 0.959800 -0.238600
vn 0.113400 0.975400 -0.188800
vn 0.129200 0.976300 -0.173300
vn 0.116100 0.955900 -0.269700
vn 0.088000 0.973300 -0.212100
vn 0.080200 0.955900 -0.282400
vn 0.065600 0.973300 -0.220000
vn 0.036000 0.959800 -0.278400
vn 0.031300 0.975400 -0.218100
vn 0.012400 0.961000 -0.276200
vn 0.009200 0.976400 -0.216000
vn 0.077700 0.988600 -0.128700
vn 0.088600 0.989100 -0.117800
vn 0.060000 0.987300 -0.146800
vn 0.046100 0.987300 -0.151700
vn 0.020900 0.988600 -0.148900
vn 0.005600 0.989100 -0.147300
vn 0.273500 0.961000 -0.040500
vn 0.273300 0.959800 -0.064200
vn 0.213700 0.975400 -0.053400
vn 0.213900 0.976400 -0.031200
vn 0.272800 0.955900 -0.108600
vn 0.212200 0.973300 -0.087700
vn 0.256400 0.955900 -0.143000
vn 0.202000 0.973300 -0.109200
vn 0.222300 0.959800 -0.171400
vn 0.176300 0.975400 -0.132100
vn 0.204100 0.961000 -0.186600
vn 0.159200 0.976400 -0.146200
vn 0.145900 0.988600 -0.036000
vn 0.146000 0.989100 -0.020600
vn 0.146200 0.987300 -0.061400
vn 0.139900 0.987300 -0.074700
vn 0.120100 0.988600 -0.090500
vn 0.108100 0.989100 -0.100200
vn 0.222100 0.961000 0.164800
vn 0.238600 0.959800 0.147800
vn 0.188800 0.975400 0.113400
vn 0.173300 0.976400 0.129200
vn 0.269700 0.955900 0.116100
vn 0.212100 0.973300 0.088000
vn 0.282400 0.955900 0.080200
vn 0.220000 0.973300 0.065600
vn 0.278400 0.959800 0.036000
vn 0.218100 0.975400 0.031300
vn 0.276200 0.961000 0.012400
vn 0.216000 0.976400 0.009200
vn 0.128700 0.988600 0.077700
vn 0.117800 0.989100 0.088600
vn 0.146800 0.987300 0.060000
vn 0.151700 0.987300 0.046100
vn 0.148900 0.988600 0.020900
vn 0.147300 0.989100 0.005600
vt 0.062939 1.002131
vt 0.024430 0.941760
vt 0.290147 0.930194
vt 0.331905 1.001214
vt 0.011278 0.879103
vt 0.274472 0.856566
vt 0.011532 0.128457
vt 0.274754 0.151009
vt 0.024739 0.065788
vt 0.290459 0.077395
vt 0.063309 0.005415
vt 0.332273 0.006391
vt 0.930481 0.885576
vt 0.980366 0.996080
vt 0.908070 0.770938
vt 0.907867 0.236709
vt 0.930388 0.122129
vt 0.980366 0.011683
vt 0.062939 1.002131
vt 0.024430 0.941760
vt 0.290147 0.930194
vt 0.331905 1.001214
vt 0.011278 0.879103
vt 0.274472 0.856566
vt 0.011532 0.128457
vt 0.274754 0.151009
vt 0.024739 0.065788
vt 0.290459 0.077395
vt 0.063309 0.005415
vt 0.332273 0.006391
vt 0.930481 0.885576
vt 0.980366 0.996080
vt 0.908070 0.770938
vt 0.907867 0.236709
vt 0.930388 0.122129
vt 0.980366 0.011683
vt 0.062939 1.002131
vt 0.024430 0.941760
vt 0.290147 0.930194
vt 0.331905 1.001214
vt 0.011278 0.879103
vt 0.274472 0.856566
vt 0.011532 0.128457
vt 0.274754 0.151009
vt 0.024739 0.065788
vt 0.290459 0.077395
vt 0.063309 0.005415
vt 0.332273 0.006391
vt 0.930481 0.885576
vt 0.980366 0.996080
vt 0.908070 0.770938
vt 0.907867 0.236709
vt 0.930388 0.122129
vt 0.980366 0.011683
vt 0.062939 1.002131
vt 0.024430 0.941760
vt 0.290147 0.930194
vt 0.331905 1.001214
vt 0.011278 0.879103
vt 0.274472 0.856566
vt 0.011532 0.128457
vt 0.274754 0.151009
vt 0.024739 0.065788
vt 0.290459 0.077395
vt 0.063309 0.005415
vt 0.332273 0.006391
vt 0.930481 0.885576
vt 0.980366 0.996080
vt 0.908070 0.770938
vt 0.907867 0.236709
vt 0.930388 0.122129
vt 0.980366 0.011683
vt 0.062939 1.002131
vt 0.024430 0.941760
vt 0.290147 0.930194
vt 0.331905 1.001214
vt 0.011278 0.879103
vt 0.274472 0.856566
vt 0.011532 0.128457
vt 0.274754 0.151009
vt 0.024739 0.065788
vt 0.290459 0.077395
vt 0.063309 0.005415
vt 0.332273 0.006391
vt 0.930481 0.885576
vt 0.980366 0.996080
vt 0.908070 0.770938
vt 0.907867 0.236709
vt 0.930388 0.122129
vt 0.980366 0.011683
vt 0.062939 1.002131
vt 0.024430 0.941760
vt 0.290147 0.930194
vt 0.331905 1.001214
vt 0.011278 0.879103
vt 0.274472 0.856566
vt 0.011532 0.128457
vt 0.274754 0.151009
vt 0.024739 0.065788
vt 0.290459 0.077395
vt 0.063309 0.005415
vt 0.332273 0.006391
vt 0.930481 0.885576
vt 0.980366 0.996080
vt 0.908070 0.770938
vt 0.907867 0.236709
vt 0.930388 0.122129
vt 0.980366 0.011683
vt 0.062939 1.002131
vt 0.024430 0.941760
vt 0.290147 0.930194
vt 0.331905 1.001214
vt 0.011278 0.879103
vt 0.274472 0.856566
vt 0.011532 0.128457
vt 0.274754 0.151009
vt 0.024739 0.065788
vt 0.290459 0.077395
vt 0.063309 0.005415
vt 0.332273 0.006391
vt 0.930481 0.885576
vt 0.980366 0.996080
vt 0.908070 0.770938
vt 0.907867 0.236709
vt 0.930388 0.122129
vt 0.980366 0.011683
vt 0.062939 1.002131
vt 0.024430 0.941760
vt 0.290147 0.930194
vt 0.331905 1.001214
vt 0.011278 0.879103
vt 0.274472 0.856566
vt 0.011532 0.128457
vt 0.274754 0.151009
vt 0.024739 0.065788
vt 0.290459 0.077395
vt 0.063309 0.005415
vt 0.332273 0.006391
vt 0.930481 0.885576
vt 0.980366 0.996080
vt 0.908070 0.770938
vt 0.907867 0.236709
vt 0.930388 0.122129
vt 0.980366 0.011683
f 1/1/1 2/2/2 3/3/3
f 1/1/1 3/3/3 4/4/4
f 2/2/2 5/5/5 6/6/6
f 2/2/2 6/6/6 3/3/3
f 5/5/5 7/7/7 8/8/8
f 5/5/5 8/8/8 6/6/6
f 7/7/7 9/9/9 10/10/10
f 7/7/7 10/10/10 8/8/8
f 9/9/9 11/11/11 12/12/12
f 9/9/9 12/12/12 10/10/10
f 4/4/4 3/3/3 13/13/13
f 4/4/4 13/13/13 14/14/14
f 3/3/3 6/6/6 15/15/15
f 3/3/3 15/15/15 13/13/13
f 6/6/6 8/8/8 16/16/16
f 6/6/6 16/16/16 15/15/15
f 8/8/8 10/10/10 17/17/17
f 8/8/8 17/17/17 16/16/16
f 10/10/10 12/12/12 18/18/18
f 10/10/10 18/18/18 17/17/17
f 19/19/19 20/20/20 21/21/21
f 19/19/19 21/21/21 22/22/22
f 20/20/20 23/23/23 24/24/24
f 20/20/20 24/24/24 21/21/21
f 23/23/23 25/25/25 26/26/26
f 23/23/23 26/26/26 24/24/24
f 25/25/25 27/27/27 28/28/28
f 25/25/25 28/28/28 26/26/26
f 27/27/27 29/29/29 30/30/30
f 27/27/27 30/30/30 28/28/28
f 22/22/22 21/21/21 31/31/31
f 22/22/22 31/31/31 32/32/32
f 21/21/21 24/24/24 33/33/33
f 21/21/21 33/33/33 31/31/31
f 24/24/24 26/26/26 34/34/34
f 24/24/24 34/34/34 33/33/33
f 26/26/26 28/28/28 35/35/35
f 26/26/26 35/35/35 34/34/34
f 28/28/28 30/30/30 36/36/36
f 28/28/28 36/36/36 35/35/35
f 37/37/37 38/38/38 39/39/39
f 37/37/37 39/39/39 40/40/40
f 38/38/38 41/41/41 42/42/42
f 38/38/38 42/42/42 39/39/39
f 41/41/41 43/43/43 44/44/44
f 41/41/41 44/44/44 42/42/42
f 43/43/43 45/45/45 46/46/46
f 43/43/43 46/46/46 44/44/44
f 45/45/45 47/47/47 48/48/48
f 45/45/45 48/48/48 46/46/46
f 40/40/40 39/39/39 49/49/49
f 40/40/40 49/49/49 50/50/50
f 39/39/39 42/42/42 51/51/51
f 39/39/39 51/51/51 49/49/49
f 42/42/42 44/44/44 52/52/52
f 42/42/42 52/52/52 51/51/51
f 44/44/44 46/46/46 53/53/53
f 44/44/44 53/53/53 52/52/52
f 46/46/46 48/48/48 54/54/54
f 46/46/46 54/54/54 53/53/53
f 55/55/55 56/56/56 57/57/57
f 55/55/55 57/57/57 58/58/58
f 56/56/56 59/59/59 60/60/60
f 56/56/56 60/60/60 57/57/57
f 59/59/59 61/61/61 62/62/62
f 59/59/59 62/62/62 60/60/60
f 61/61/61 63/63/63 64/64/64
f 61/61/61 64/64/64 62/62/62
f 63/63/63 65/65/65 66/66/66
f 63/63/63 66/66/66 64/64/64
f 58/58/58 57/57/57 67/67/67
f 58/58/58 67/67/67 68/68/68
f 57/57/57 60/60/60 69/69/69
f 57/57/57 69/69/69 67/67/67
f 60/60/60 62/62/62 70/70/70
f 60/60/60 70/70/70 69/69/69
f 62/62/62 64/64/64 71/71/71
f 62/62/62 71/71/71 70/70/70
f 64/64/64 66/66/66 72/72/72
f 64/64/64 72/72/72 71/71/71
f 73/73/73 74/74/74 75/75/75
f 73/73/73 75/75/75 76/76/76
f 74/74/74 77/77/77 78/78/78
f 74/74/74 78/78/78 75/75/75
f 77/77/77 79/79/79 80/80/80
f 77/77/77 80/80/80 78/78/78
f 79/79/79 81/81/81 82/82/82
f 79/79/79 82/82/82 80/80/80
f 81/81/81 83/83/83 84/84/84
f 81/81/81 84/84/84 82/82/82
f 76/76/76 75/75/75 85/85/85
f 76/76/76 85/85/85 86/86/86
f 75/75/75 78/78/78 87/87/87
f 75/75/75 87/87/87 85/85/85
f 78/78/78 80/80/80 88/88/88
f 78/78/78 88/88/88 87/87/87
f 80/80/80 82/82/82 89/89/89
f 80/80/80 89/89/89 88/88/88
f 82/82/82 84/84/84 90/90/90
f 82/82/82 90/90/90 89/89/89
f 91/91/91 92/92/92 93/93/93
f 91/91/91 93/93/93 94/94/94
f 92/92/92 95/95/95 96/96/96
f 92/92/92 96/96/96 93/93/93
f 95/95/95 97/97/97 98/98/98
f 95/95/95 98/98/98 96/96/96
f 97/97/97 99/99/99 100/100/100
f 97/97/97 100/100/100 98/98/98
f 99/99/99 101/101/101 102/102/102
f 99/99/99 102/102/102 100/100/100
f 94/94/94 93/93/93 103/103/103
f 94/94/94 103/103/103 104/104/104
f 93/93/93 96/96/96 105/105/105
f 93/93/93 105/105/105 103/103/103
f 96/96/96 98/98/98 106/106/106
f 96/96/96 106/106/106 105/105/105
f 98/98/98 100/100/100 107/107/107
f 98/98/98 107/107/107 106/106/106
f 100/100/100 102/102/102 108/108/108
f 100/100/100 108/108/108 107/107/107
f 109/109/109 110/110/110 111/111/111
f 109/109/109 111/111/111 112/112/112
f 110/110/110 113/113/113 114/114/114
f 110/110/110 114/114/114 111/111/111
f 113/113/113 115/115/115 116/116/116
f 113/113/113 116/116/116 114/114/114
f 115/115/115 117/117/117 118/118/118
f 115/115/115 118/118/118 116/116/116
f 117/117/117 119/119/119 120/120/120
f 117/117/117 120/120/120 118/118/118
f 112/112/112 111/111/111 121/121/121
f 112/112/112 121/121/121 122/122/122
f 111/111/111 114/114/114 123/123/123
f 111/111/111 123/123/123 121/121/121
f 114/114/114 116/116/116 124/124/124
f 114/114/114 124/124/124 123/123/123
f 116/116/116 118/118/118 125/125/125
f 116/116/116 125/125/125 124/124/124
f 118/118/118 120/120/120 126/126/126
f 118/118/118 126/126/126 125/125/125
f 127/127/127 128/128/128 129/129/129
f 127/127/127 129/129/129 130/130/130
f 128/128/128 131/131/131 132/132/132
f 128/128/128 132/132/132 129/129/129
f 131/131/131 133/133/133 134/134/134
f 131/131/131 134/134/134 132/132/132
f 133/133/133 135/135/135 136/136/136
f 133/133/133 136/136/136 134/134/134
f 135/135/135 137/137/137 138/138/138
f 135/135/135 138/138/138 136/136/136
f 130/130/130 129/129/129 139/139/139
f 130/130/130 139/139/139 140/140/140
f 129/129/129 132/132/132 141/141/141
f 129/129/129 141/141/141 139/139/139
f 132/132/132 134/134/134 142/142/142
f 132/132/132 142/142/142 141/141/141
f 134/134/134 136/136/136 143/143/143
f 134/134/134 143/143/143 142/142/142
f 136/136/136 138/138/138 144/144/144
f 136/136/136 144/144/144 143/143/143
