v -3.147315 0.941554 -2.094106
v -3.154147 0.941554 -2.083627
v -3.134794 0.934277 -2.067069
v -3.127472 0.934277 -2.078193
v -3.158803 0.941554 -2.072017
v -3.139910 0.934277 -2.054777
v -3.200563 0.941554 -1.928541
v -3.175369 0.934277 -1.932950
v -3.202864 0.941554 -1.916246
v -3.177648 0.934277 -1.919832
v -3.202723 0.941554 -1.903738
v -3.177440 0.934277 -1.906517
v -3.086645 0.924892 -2.025872
v -3.078105 0.924892 -2.038602
v -3.092906 0.924892 -2.011884
v -3.112688 0.924892 -1.943918
v -3.114912 0.924892 -1.928755
v -3.114537 0.924892 -1.913430
v -2.916924 0.941554 -1.674540
v -2.904684 0.941554 -1.677119
v -2.906660 0.934277 -1.702512
v -2.919703 0.934277 -1.699823
v -2.893182 0.941554 -1.682036
v -2.894351 0.934277 -1.707586
v -2.762200 0.941554 -1.753960
v -2.783132 0.934277 -1.768658
v -2.751879 0.941554 -1.761027
v -2.772245 0.934277 -1.776321
v -2.743134 0.941554 -1.769971
v -2.762977 0.934277 -1.785884
v -2.911575 0.924892 -1.765689
v -2.926616 0.924892 -1.762726
v -2.897258 0.924892 -1.771153
v -2.835210 0.924892 -1.805224
v -2.822916 0.924892 -1.814373
v -2.812344 0.924892 -1.825475
v -2.743134 0.941554 -1.769971
v -2.736302 0.941554 -1.780450
v -2.755655 0.934277 -1.797008
v -2.762977 0.934277 -1.785884
v -2.731646 0.941554 -1.792060
v -2.750539 0.934277 -1.809300
v -2.689887 0.941554 -1.935536
v -2.715080 0.934277 -1.931128
v -2.687585 0.941554 -1.947831
v -2.712801 0.934277 -1.944245
v -2.687726 0.941554 -1.960339
v -2.713009 0.934277 -1.957561
v -2.803804 0.924892 -1.838205
v -2.812344 0.924892 -1.825475
v -2.797543 0.924892 -1.852193
v -2.777761 0.924892 -1.920160
v -2.775537 0.924892 -1.935322
v -2.775912 0.924892 -1.950647
v -3.107292 0.941554 -1.729948
v -3.096813 0.941554 -1.723117
v -3.080255 0.934277 -1.742469
v -3.091379 0.934277 -1.749791
v -3.085204 0.941554 -1.718460
v -3.067963 0.934277 -1.737353
v -2.941727 0.941554 -1.676701
v -2.946136 0.934277 -1.701895
v -2.929432 0.941554 -1.674399
v -2.933018 0.934277 -1.699615
v -2.916924 0.941554 -1.674540
v -2.919703 0.934277 -1.699823
v -3.039058 0.924892 -1.790618
v -3.051788 0.924892 -1.799158
v -3.025070 0.924892 -1.784357
v -2.957104 0.924892 -1.764575
v -2.941941 0.924892 -1.762352
v -2.926616 0.924892 -1.762726
v -3.202723 0.941554 -1.903738
v -3.200144 0.941554 -1.891498
v -3.174751 0.934277 -1.893474
v -3.177440 0.934277 -1.906517
v -3.195227 0.941554 -1.879996
v -3.169677 0.934277 -1.881165
v -3.123303 0.941554 -1.749014
v -3.108605 0.934277 -1.769946
v -3.116236 0.941554 -1.738693
v -3.100942 0.934277 -1.759059
v -3.107292 0.941554 -1.729948
v -3.091379 0.934277 -1.749791
v -3.111574 0.924892 -1.898389
v -3.114537 0.924892 -1.913430
v -3.106111 0.924892 -1.884072
v -3.072039 0.924892 -1.822024
v -3.062890 0.924892 -1.809730
v -3.051788 0.924892 -1.799158
v -2.973525 0.941554 -2.189537
v -2.985765 0.941554 -2.186958
v -2.983790 0.934277 -2.161565
v -2.970747 0.934277 -2.164254
v -2.997267 0.941554 -2.182041
v -2.996099 0.934277 -2.156491
v -3.128249 0.941554 -2.110117
v -3.107317 0.934277 -2.095419
v -3.138571 0.941554 -2.103050
v -3.118204 0.934277 -2.087756
v -3.147315 0.941554 -2.094106
v -3.127472 0.934277 -2.078193
v -2.978874 0.924892 -2.098388
v -2.963833 0.924892 -2.101351
v -2.993191 0.924892 -2.092925
v -3.055239 0.924892 -2.058853
v -3.067533 0.924892 -2.049704
v -3.078105 0.924892 -2.038602
v -2.783157 0.941554 -2.134129
v -2.793636 0.941554 -2.140961
v -2.810194 0.934277 -2.121608
v -2.799070 0.934277 -2.114286
v -2.805246 0.941554 -2.145617
v -2.822486 0.934277 -2.126724
v -2.948722 0.941554 -2.187377
v -2.944314 0.934277 -2.162183
v -2.961017 0.941554 -2.189678
v -2.957431 0.934277 -2.164462
v -2.973525 0.941554 -2.189537
v -2.970747 0.934277 -2.164254
v -2.851391 0.924892 -2.073459
v -2.838661 0.924892 -2.064919
v -2.865379 0.924892 -2.079720
v -2.933346 0.924892 -2.099502
v -2.948508 0.924892 -2.101726
v -2.963833 0.924892 -2.101351
v -2.687726 0.941554 -1.960339
v -2.690305 0.941554 -1.972579
v -2.715698 0.934277 -1.970604
v -2.713009 0.934277 -1.957561
v -2.695222 0.941554 -1.984081
v -2.720772 0.934277 -1.982913
v -2.767146 0.941554 -2.115063
v -2.781844 0.934277 -2.094131
v -2.774213 0.941554 -2.125385
v -2.789507 0.934277 -2.105018
v -2.783157 0.941554 -2.134129
v -2.799070 0.934277 -2.114286
v -2.778875 0.924892 -1.965688
v -2.775912 0.924892 -1.950647
v -2.784338 0.924892 -1.980006
v -2.818410 0.924892 -2.042053
v -2.827559 0.924892 -2.054347
v -2.838661 0.924892 -2.064919
vn 0.231300 0.961000 0.151500
vn 0.246800 0.959800 0.133600
vn 0.195200 0.975400 0.102200
vn 0.180600 0.976400 0.118900
vn 0.276000 0.955900 0.100100
vn 0.216900 0.973300 0.075400
vn 0.286600 0.955900 0.063600
vn 0.223500 0.973300 0.052700
vn 0.280000 0.959800 0.019700
vn 0.219500 0.975400 0.018500
vn 0.276500 0.961000 -0.003700
vn 0.216200 0.976300 -0.003400
vn 0.133000 0.988600 0.070100
vn 0.122800 0.989100 0.081600
vn 0.150100 0.987300 0.051300
vn 0.154200 0.987300 0.037200
vn 0.149800 0.988600 0.012200
vn 0.147400 0.989100 -0.003000
vn -0.056400 0.961000 -0.270700
vn -0.080000 0.959800 -0.269000
vn -0.065700 0.975400 -0.210200
vn -0.043600 0.976400 -0.211700
vn -0.124400 0.955900 -0.266000
vn -0.100000 0.973300 -0.206700
vn -0.157700 0.955900 -0.247700
vn -0.120800 0.973300 -0.195300
vn -0.184100 0.959800 -0.211900
vn -0.142100 0.975400 -0.168300
vn -0.198200 0.961000 -0.192900
vn -0.155300 0.976400 -0.150500
vn -0.044500 0.988600 -0.143600
vn -0.029100 0.989100 -0.144500
vn -0.069800 0.987300 -0.142400
vn -0.082700 0.987300 -0.135300
vn -0.097300 0.988600 -0.114600
vn -0.106300 0.989100 -0.102100
vn -0.231300 0.961000 -0.151500
vn -0.246800 0.959800 -0.133600
vn -0.195200 0.975400 -0.102200
vn -0.180600 0.976400 -0.118900
vn -0.276000 0.955900 -0.100100
vn -0.216900 0.973300 -0.075400
vn -0.286600 0.955900 -0.063600
vn -0.223500 0.973300 -0.052700
vn -0.280000 0.959800 -0.019700
vn -0.219500 0.975400 -0.018500
vn -0.276500 0.961000 0.003700
vn -0.216200 0.976400 0.003400
vn -0.133000 0.988600 -0.070100
vn -0.122800 0.989100 -0.081600
vn -0.150100 0.987300 -0.051300
vn -0.154200 0.987300 -0.037200
vn -0.149800 0.988600 -0.012200
vn -0.147400 0.989100 0.003000
vn 0.151500 0.961000 -0.231300
vn 0.133600 0.959800 -0.246800
vn 0.102200 0.975400 -0.195200
vn 0.118900 0.976400 -0.180600
vn 0.100100 0.955900 -0.276000
vn 0.075400 0.973300 -0.216900
vn 0.063600 0.955900 -0.286600
vn 0.052700 0.973300 -0.223500
vn 0.019700 0.959800 -0.280000
vn 0.018500 0.975400 -0.219500
vn -0.003700 0.961000 -0.276500
vn -0.003400 0.976400 -0.216200
vn 0.070100 0.988600 -0.133000
vn 0.081600 0.989100 -0.122800
vn 0.051300 0.987300 -0.150100
vn 0.037200 0.987300 -0.154200
vn 0.012200 0.988600 -0.149800
vn -0.003000 0.989100 -0.147400
vn 0.270700 0.961000 -0.056400
vn 0.269000 0.959800 -0.080000
vn 0.210200 0.975400 -0.065700
vn 0.211700 0.976400 -0.043600
vn 0.266000 0.955900 -0.124400
vn 0.206700 0.973300 -0.100000
vn 0.247700 0.955900 -0.157700
vn 0.195300 0.973300 -0.120800
vn 0.211900 0.959800 -0.184100
vn 0.168300 0.975400 -0.142100
vn 0.192900 0.961000 -0.198100
vn 0.150500 0.976400 -0.155300
vn 0.143600 0.988600 -0.044500
vn 0.144500 0.989100 -0.029100
vn 0.142400 0.987300 -0.069800
vn 0.135300 0.987300 -0.082700
vn 0.114600 0.988600 -0.097300
vn 0.102100 0.989100 -0.106300
vn 0.056400 0.961000 0.270700
vn 0.080000 0.959800 0.269000
vn 0.065700 0.975400 0.210200
vn 0.043600 0.976300 0.211800
vn 0.124400 0.955900 0.266000
vn 0.100000 0.973300 0.206700
vn 0.157700 0.955900 0.247700
vn 0.120800 0.973300 0.195300
vn 0.184100 0.959800 0.211900
vn 0.142100 0.975400 0.168300
vn 0.198100 0.961000 0.192900
vn 0.155300 0.976300 0.150500
vn 0.044500 0.988600 0.143600
vn 0.029100 0.989100 0.144500
vn 0.069800 0.987300 0.142400
vn 0.082700 0.987300 0.135300
vn 0.097300 0.988600 0.114600
vn 0.106300 0.989100 0.102100
vn -0.151500 0.961000 0.231300
vn -0.133600 0.959800 0.246800
vn -0.102200 0.975400 0.195200
vn -0.118900 0.976400 0.180600
vn -0.100100 0.955900 0.276000
vn -0.075400 0.973300 0.216900
vn -0.063600 0.955900 0.286600
vn -0.052700 0.973300 0.223500
vn -0.019700 0.959800 0.280000
vn -0.018500 0.975400 0.219500
vn 0.003700 0.961000 0.276500
vn 0.003400 0.976400 0.216200
vn -0.070100 0.988600 0.133000
vn -0.081600 0.989100 0.122800
vn -0.051300 0.987300 0.150100
vn -0.037200 0.987300 0.154200
vn -0.012200 0.988600 0.149800
vn 0.003000 0.989100 0.147400
vn -0.270700 0.961000 0.056400
vn -0.269000 0.959800 0.080000
vn -0.210200 0.975400 0.065700
vn -0.211700 0.976300 0.043600
vn -0.266000 0.955900 0.124400
vn -0.206700 0.973300 0.100000
vn -0.247700 0.955900 0.157700
vn -0.195300 0.973300 0.120800
vn -0.211900 0.959800 0.184100
vn -0.168300 0.975400 0.142100
vn -0.192900 0.961000 0.198200
vn -0.150500 0.976300 0.155300
vn -0.143600 0.988600 0.044500
vn -0.144500 0.989100 0.029100
vn -0.142400 0.987300 0.069800
vn -0.135300 0.987300 0.082700
vn -0.114600 0.988600 0.097300
vn -0.102100 0.989100 0.106300
vt 0.062939 1.002131
vt 0.024430 0.941760
vt 0.290147 0.930194
vt 0.331905 1.001214
vt 0.011278 0.879103
vt 0.274472 0.856566
vt 0.011532 0.128457
vt 0.274754 0.151009
vt 0.024739 0.065788
vt 0.290459 0.077395
vt 0.063309 0.005415
vt 0.332273 0.006391
vt 0.930481 0.885576
vt 0.980366 0.996080
vt 0.908070 0.770938
vt 0.907867 0.236709
vt 0.930388 0.122129
vt 0.980366 0.011683
vt 0.062939 1.002131
vt 0.024430 0.941760
vt 0.290147 0.930194
vt 0.331905 1.001214
vt 0.011278 0.879103
vt 0.274472 0.856566
vt 0.011532 0.128457
vt 0.274754 0.151009
vt 0.024739 0.065788
vt 0.290459 0.077395
vt 0.063309 0.005415
vt 0.332273 0.006391
vt 0.930481 0.885576
vt 0.980366 0.996080
vt 0.908070 0.770938
vt 0.907867 0.236709
vt 0.930388 0.122129
vt 0.980366 0.011683
vt 0.062939 1.002131
vt 0.024430 0.941760
vt 0.290147 0.930194
vt 0.331905 1.001214
vt 0.011278 0.879103
vt 0.274472 0.856566
vt 0.011532 0.128457
vt 0.274754 0.151009
vt 0.024739 0.065788
vt 0.290459 0.077395
vt 0.063309 0.005415
vt 0.332273 0.006391
vt 0.930481 0.885576
vt 0.980366 0.996080
vt 0.908070 0.770938
vt 0.907867 0.236709
vt 0.930388 0.122129
vt 0.980366 0.011683
vt 0.062939 1.002131
vt 0.024430 0.941760
vt 0.290147 0.930194
vt 0.331905 1.001214
vt 0.011278 0.879103
vt 0.274472 0.856566
vt 0.011532 0.128457
vt 0.274754 0.151009
vt 0.024739 0.065788
vt 0.290459 0.077395
vt 0.063309 0.005415
vt 0.332273 0.006391
vt 0.930481 0.885576
vt 0.980366 0.996080
vt 0.908070 0.770938
vt 0.907867 0.236709
vt 0.930388 0.122129
vt 0.980366 0.011683
vt 0.062939 1.002131
vt 0.024430 0.941760
vt 0.290147 0.930194
vt 0.331905 1.001214
vt 0.011278 0.879103
vt 0.274472 0.856566
vt 0.011532 0.128457
vt 0.274754 0.151009
vt 0.024739 0.065788
vt 0.290459 0.077395
vt 0.063309 0.005415
vt 0.332273 0.006391
vt 0.930481 0.885576
vt 0.980366 0.996080
vt 0.908070 0.770938
vt 0.907867 0.236709
vt 0.930388 0.122129
vt 0.980366 0.011683
vt 0.062939 1.002131
vt 0.024430 0.941760
vt 0.290147 0.930194
vt 0.331905 1.001214
vt 0.011278 0.879103
vt 0.274472 0.856566
vt 0.011532 0.128457
vt 0.274754 0.151009
vt 0.024739 0.065788
vt 0.290459 0.077395
vt 0.063309 0.005415
vt 0.332273 0.006391
vt 0.930481 0.885576
vt 0.980366 0.996080
vt 0.908070 0.770938
vt 0.907867 0.236709
vt 0.930388 0.122129
vt 0.980366 0.011683
vt 0.062939 1.002131
vt 0.024430 0.941760
vt 0.290147 0.930194
vt 0.331905 1.001214
vt 0.011278 0.879103
vt 0.274472 0.856566
vt 0.011532 0.128457
vt 0.274754 0.151009
vt 0.024739 0.065788
vt 0.290459 0.077395
vt 0.063309 0.005415
vt 0.332273 0.006391
vt 0.930481 0.885576
vt 0.980366 0.996080
vt 0.908070 0.770938
vt 0.907867 0.236709
vt 0.930388 0.122129
vt 0.980366 0.011683
vt 0.062939 1.002131
vt 0.024430 0.941760
vt 0.290147 0.930194
vt 0.331905 1.001214
vt 0.011278 0.879103
vt 0.274472 0.856566
vt 0.011532 0.128457
vt 0.274754 0.151009
vt 0.024739 0.065788
vt 0.290459 0.077395
vt 0.063309 0.005415
vt 0.332273 0.006391
vt 0.930481 0.885576
vt 0.980366 0.996080
vt 0.908070 0.770938
vt 0.907867 0.236709
vt 0.930388 0.122129
vt 0.980366 0.011683
f 1/1/1 2/2/2 3/3/3
f 1/1/1 3/3/3 4/4/4
f 2/2/2 5/5/5 6/6/6
f 2/2/2 6/6/6 3/3/3
f 5/5/5 7/7/7 8/8/8
f 5/5/5 8/8/8 6/6/6
f 7/7/7 9/9/9 10/10/10
f 7/7/7 10/10/10 8/8/8
f 9/9/9 11/11/11 12/12/12
f 9/9/9 12/12/12 10/10/10
f 4/4/4 3/3/3 13/13/13
f 4/4/4 13/13/13 14/14/14
f 3/3/3 6/6/6 15/15/15
f 3/3/3 15/15/15 13/13/13
f 6/6/6 8/8/8 16/16/16
f 6/6/6 16/16/16 15/15/15
f 8/8/8 10/10/10 17/17/17
f 8/8/8 17/17/17 16/16/16
f 10/10/10 12/12/12 18/18/18
f 10/10/10 18/18/18 17/17/17
f 19/19/19 20/20/20 21/21/21
f 19/19/19 21/21/21 22/22/22
f 20/20/20 23/23/23 24/24/24
f 20/20/20 24/24/24 21/21/21
f 23/23/23 25/25/25 26/26/26
f 23/23/23 26/26/26 24/24/24
f 25/25/25 27/27/27 28/28/28
f 25/25/25 28/28/28 26/26/26
f 27/27/27 29/29/29 30/30/30
f 27/27/27 30/30/30 28/28/28
f 22/22/22 21/21/21 31/31/31
f 22/22/22 31/31/31 32/32/32
f 21/21/21 24/24/24 33/33/33
f 21/21/21 33/33/33 31/31/31
f 24/24/24 26/26/26 34/34/34
f 24/24/24 34/34/34 33/33/33
f 26/26/26 28/28/28 35/35/35
f 26/26/26 35/35/35 34/34/34
f 28/28/28 30/30/30 36/36/36
f 28/28/28 36/36/36 35/35/35
f 37/37/37 38/38/38 39/39/39
f 37/37/37 39/39/39 40/40/40
f 38/38/38 41/41/41 42/42/42
f 38/38/38 42/42/42 39/39/39
f 41/41/41 43/43/43 44/44/44
f 41/41/41 44/44/44 42/42/42
f 43/43/43 45/45/45 46/46/46
f 43/43/43 46/46/46 44/44/44
f 45/45/45 47/47/47 48/48/48
f 45/45/45 48/48/48 46/46/46
f 40/40/40 39/39/39 49/49/49
f 40/40/40 49/49/49 50/50/50
f 39/39/39 42/42/42 51/51/51
f 39/39/39 51/51/51 49/49/49
f 42/42/42 44/44/44 52/52/52
f 42/42/42 52/52/52 51/51/51
f 44/44/44 46/46/46 53/53/53
f 44/44/44 53/53/53 52/52/52
f 46/46/46 48/48/48 54/54/54
f 46/46/46 54/54/54 53/53/53
f 55/55/55 56/56/56 57/57/57
f 55/55/55 57/57/57 58/58/58
f 56/56/56 59/59/59 60/60/60
f 56/56/56 60/60/60 57/57/57
f 59/59/59 61/61/61 62/62/62
f 59/59/59 62/62/62 60/60/60
f 61/61/61 63/63/63 64/64/64
f 61/61/61 64/64/64 62/62/62
f 63/63/63 65/65/65 66/66/66
f 63/63/63 66/66/66 64/64/64
f 58/58/58 57/57/57 67/67/67
f 58/58/58 67/67/67 68/68/68
f 57/57/57 60/60/60 69/69/69
f 57/57/57 69/69/69 67/67/67
f 60/60/60 62/62/62 70/70/70
f 60/60/60 70/70/70 69/69/69
f 62/62/62 64/64/64 71/71/71
f 62/62/62 71/71/71 70/70/70
f 64/64/64 66/66/66 72/72/72
f 64/64/64 72/72/72 71/71/71
f 73/73/73 74/74/74 75/75/75
f 73/73/73 75/75/75 76/76/76
f 74/74/74 77/77/77 78/78/78
f 74/74/74 78/78/78 75/75/75
f 77/77/77 79/79/79 80/80/80
f 77/77/77 80/80/80 78/78/78
f 79/79/79 81/81/81 82/82/82
f 79/79/79 82/82/82 80/80/80
f 81/81/81 83/83/83 84/84/84
f 81/81/81 84/84/84 82/82/82
f 76/76/76 75/75/75 85/85/85
f 76/76/76 85/85/85 86/86/86
f 75/75/75 78/78/78 87/87/87
f 75/75/75 87/87/87 85/85/85
f 78/78/78 80/80/80 88/88/88
f 78/78/78 88/88/88 87/87/87
f 80/80/80 82/82/82 89/89/89
f 80/80/80 89/89/89 88/88/88
f 82/82/82 84/84/84 90/90/90
f 82/82/82 90/90/90 89/89/89
f 91/91/91 92/92/92 93/93/93
f 91/91/91 93/93/93 94/94/94
f 92/92/92 95/95/95 96/96/96
f 92/92/92 96/96/96 93/93/93
f 95/95/95 97/97/97 98/98/98
f 95/95/95 98/98/98 96/96/96
f 97/97/97 99/99/99 100/100/100
f 97/97/97 100/100/100 98/98/98
f 99/99/99 101/101/101 102/102/102
f 99/99/99 102/102/102 100/100/100
f 94/94/94 93/93/93 103/103/103
f 94/94/94 103/103/103 104/104/104
f 93/93/93 96/96/96 105/105/105
f 93/93/93 105/105/105 103/103/103
f 96/96/96 98/98/98 106/106/106
f 96/96/96 106/106/106 105/105/105
f 98/98/98 100/100/100 107/107/107
f 98/98/98 107/107/107 106/106/106
f 100/100/100 102/102/102 108/108/108
f 100/100/100 108/108/108 107/107/107
f 109/109/109 110/110/110 111/111/111
f 109/109/109 111/111/111 112/112/112
f 110/110/110 113/113/113 114/114/114
f 110/110/110 114/114/114 111/111/111
f 113/113/113 115/115/115 116/116/116
f 113/113/113 116/116/116 114/114/114
f 115/115/115 117/117/117 118/118/118
f 115/115/115 118/118/118 116/116/116
f 117/117/117 119/119/119 120/120/120
f 117/117/117 120/120/120 118/118/118
f 112/112/112 111/111/111 121/121/121
f 112/112/112 121/121/121 122/122/122
f 111/111/111 114/114/114 123/123/123
f 111/111/111 123/123/123 121/121/121
f 114/114/114 116/116/116 124/124/124
f 114/114/114 124/124/124 123/123/123
f 116/116/116 118/118/118 125/125/125
f 116/116/116 125/125/125 124/124/124
f 118/118/118 120/120/120 126/126/126
f 118/118/118 126/126/126 125/125/125
f 127/127/127 128/128/128 129/129/129
f 127/127/127 129/129/129 130/130/130
f 128/128/128 131/131/131 132/132/132
f 128/128/128 132/132/132 129/129/129
f 131/131/131 133/133/133 134/134/134
f 131/131/131 134/134/134 132/132/132
f 133/133/133 135/135/135 136/136/136
f 133/133/133 136/136/136 134/134/134
f 135/135/135 137/137/137 138/138/138
f 135/135/135 138/138/138 136/136/136
f 130/130/130 129/129/129 139/139/139
f 130/130/130 139/139/139 140/140/140
f 129/129/129 132/132/132 141/141/141
f 129/129/129 141/141/141 139/139/139
f 132/132/132 134/134/134 142/142/142
f 132/132/132 142/142/142 141/141/141
f 134/134/134 136/136/136 143/143/143
f 134/134/134 143/143/143 142/142/142
f 136/136/136 138/138/138 144/144/144
f 136/136/136 144/144/144 143/143/143
