v -6.305749 -1.419958 9.888323
v 5.133022 -1.419958 9.888323
v 5.133022 -1.419958 2.823203
v -6.305749 -1.419958 2.823203
v 5.133022 -1.419958 -4.055528
v -6.305749 -1.419958 -4.055528
vn 0.000000 1.000000 0.000000
vn 0.000000 1.000000 0.000000
vn 0.000000 1.000000 0.000000
vn 0.000000 1.000000 0.000000
vn 0.000000 1.000000 0.000000
vn 0.000000 1.000000 0.000000
vt -3.602685 0.047026
vt -0.054661 -3.501002
vt 2.611100 -0.835244
vt -0.936925 2.712785
vt 4.399319 0.952974
vt 0.851294 4.501002
f 1/1/1 2/2/2 3/3/3
f 1/1/1 3/3/3 4/4/4
f 4/4/4 3/3/3 5/5/5
f 4/4/4 5/5/5 6/6/6
