v 0.032067 -0.063294 -0.013181
v -0.011889 -0.075072 -0.013181
v 0.010089 -0.063294 -0.051248
v 0.026178 -0.031116 -0.079115
v 0.064245 -0.031116 -0.013181
v 0.032067 0.012840 -0.089315
v 0.076023 0.012840 -0.013181
v 0.026178 0.056796 -0.079115
v 0.032067 0.088974 -0.013181
v 0.064245 0.056796 -0.013181
v -0.011889 0.100752 -0.013181
v 0.010089 0.088974 -0.051248
v -0.033867 0.088974 -0.051248
v -0.049956 0.056796 -0.079115
v -0.055845 0.012840 -0.089315
v -0.049956 -0.031116 -0.079115
v -0.033867 -0.063294 -0.051248
v -0.055845 -0.063294 -0.013181
v -0.088023 -0.031116 -0.013181
v -0.099801 0.012840 -0.013181
v -0.088023 0.056796 -0.013181
v -0.055845 0.088974 -0.013181
v -0.033867 0.088974 0.024886
v -0.049956 0.056796 0.052753
v -0.055845 0.012840 0.062953
v -0.049956 -0.031116 0.052753
v -0.033867 -0.063294 0.024886
v 0.010089 -0.063294 0.024886
v 0.026178 -0.031116 0.052753
v 0.032067 0.012840 0.062953
v 0.026178 0.056796 0.052753
v 0.010089 0.088974 0.024886
vn 0.558500 -0.829500 0.000000
vn 0.000000 -1.000000 0.000000
vn 0.279200 -0.829500 -0.483700
vn 0.442100 -0.467100 -0.765700
vn 0.884200 -0.467100 0.000000
vn 0.500000 0.000000 -0.866000
vn 1.000000 0.000000 0.000000
vn 0.442100 0.467100 -0.765700
vn 0.558500 0.829500 0.000000
vn 0.884200 0.467100 0.000000
vn 0.000000 1.000000 0.000000
vn 0.279200 0.829500 -0.483700
vn -0.279200 0.829500 -0.483700
vn -0.442100 0.467100 -0.765700
vn -0.500000 0.000000 -0.866000
vn -0.442100 -0.467100 -0.765700
vn -0.279200 -0.829500 -0.483700
vn -0.558500 -0.829500 0.000000
vn -0.884200 -0.467100 0.000000
vn -1.000000 0.000000 0.000000
vn -0.884200 0.467100 0.000000
vn -0.558500 0.829500 0.000000
vn -0.279200 0.829500 0.483700
vn -0.442100 0.467100 0.765700
vn -0.500000 0.000000 0.866000
vn -0.442100 -0.467100 0.765700
vn -0.279200 -0.829500 0.483700
vn 0.279200 -0.829500 0.483700
vn 0.442100 -0.467100 0.765700
vn 0.500000 0.000000 0.866000
vn 0.442100 0.467100 0.765700
vn 0.279200 0.829500 0.483700
vt 0.000000 0.000000
vt 0.000000 0.000000
vt 0.000000 0.000000
vt 0.000000 0.000000
vt 0.000000 0.000000
vt 0.000000 0.000000
vt 0.000000 0.000000
vt 0.000000 0.000000
vt 0.000000 0.000000
vt 0.000000 0.000000
vt 0.000000 0.000000
vt 0.000000 0.000000
vt 0.000000 0.000000
vt 0.000000 0.000000
vt 0.000000 0.000000
vt 0.000000 0.000000
vt 0.000000 0.000000
vt 0.000000 0.000000
vt 0.000000 0.000000
vt 0.000000 0.000000
vt 0.000000 0.000000
vt 0.000000 0.000000
vt 0.000000 0.000000
vt 0.000000 0.000000
vt 0.000000 0.000000
vt 0.000000 0.000000
vt 0.000000 0.000000
vt 0.000000 0.000000
vt 0.000000 0.000000
vt 0.000000 0.000000
vt 0.000000 0.000000
vt 0.000000 0.000000
f 1/1/1 2/2/2 3/3/3
f 1/1/1 3/3/3 4/4/4
f 5/5/5 4/4/4 6/6/6
f 7/7/7 6/6/6 8/8/8
f 9/9/9 10/10/10 8/8/8
f 11/11/11 9/9/9 12/12/12
f 11/11/11 12/12/12 13/13/13
f 8/8/8 14/14/14 13/13/13
f 6/6/6 15/15/15 14/14/14
f 6/6/6 4/4/4 16/16/16
f 3/3/3 17/17/17 16/16/16
f 3/3/3 2/2/2 17/17/17
f 17/17/17 2/2/2 18/18/18
f 17/17/17 18/18/18 19/19/19
f 15/15/15 16/16/16 19/19/19
f 15/15/15 20/20/20 21/21/21
f 13/13/13 14/14/14 21/21/21
f 11/11/11 13/13/13 22/22/22
f 11/11/11 22/22/22 23/23/23
f 21/21/21 24/24/24 23/23/23
f 21/21/21 20/20/20 25/25/25
f 19/19/19 26/26/26 25/25/25
f 19/19/19 18/18/18 27/27/27
f 18/18/18 2/2/2 27/27/27
f 27/27/27 2/2/2 28/28/28
f 27/27/27 28/28/28 29/29/29
f 26/26/26 29/29/29 30/30/30
f 25/25/25 30/30/30 31/31/31
f 23/23/23 24/24/24 31/31/31
f 11/11/11 23/23/23 32/32/32
f 32/32/32 9/9/9 11/11/11
f 10/10/10 9/9/9 32/32/32
f 30/30/30 7/7/7 10/10/10
f 29/29/29 5/5/5 7/7/7
f 28/28/28 1/1/1 5/5/5
f 28/28/28 2/2/2 1/1/1
f 5/5/5 1/1/1 4/4/4
f 7/7/7 5/5/5 6/6/6
f 10/10/10 7/7/7 8/8/8
f 12/12/12 9/9/9 8/8/8
f 12/12/12 8/8/8 13/13/13
f 8/8/8 6/6/6 14/14/14
f 15/15/15 6/6/6 16/16/16
f 4/4/4 3/3/3 16/16/16
f 16/16/16 17/17/17 19/19/19
f 20/20/20 15/15/15 19/19/19
f 14/14/14 15/15/15 21/21/21
f 22/22/22 13/13/13 21/21/21
f 22/22/22 21/21/21 23/23/23
f 24/24/24 21/21/21 25/25/25
f 20/20/20 19/19/19 25/25/25
f 26/26/26 19/19/19 27/27/27
f 26/26/26 27/27/27 29/29/29
f 25/25/25 26/26/26 30/30/30
f 24/24/24 25/25/25 31/31/31
f 32/32/32 23/23/23 31/31/31
f 31/31/31 10/10/10 32/32/32
f 31/31/31 30/30/30 10/10/10
f 30/30/30 29/29/29 7/7/7
f 29/29/29 28/28/28 5/5/5
